<?xml version="1.0" encoding="utf-8"?>
<!-- Generator: Adobe Illustrator 28.2.0, SVG Export Plug-In . SVG Version: 6.00 Build 0)  -->
<svg version="1.1" id="Layer_1" xmlns="http://www.w3.org/2000/svg" xmlns:xlink="http://www.w3.org/1999/xlink" x="0px" y="0px"
	 viewBox="0 0 900 380" style="enable-background:new 0 0 900 380;" xml:space="preserve">
<style type="text/css">
	.st0{fill:#FF1A56;}
	.st1{font-family:'SuisseWorks-RegularItalic_LD-V1Regular';}
	.st2{font-size:114.9744px;}
	.st3{fill:#1717E2;}
</style>
<g>
	<text transform="matrix(1 0 0 1 44.146 221.7043)" class="st0 st1 st2">Maschalagnia.</text>
</g>
<g>
	<g>
		<g>
			<path class="st3" d="M104.57,110.91l-2.29-9.38l-1.63,9.38h-2.73l2.49-14.39h2.68l2.26,9.34l1.64-9.34h2.72l-2.5,14.39H104.57z"
				/>
			<path class="st3" d="M120.34,106.35c-0.16,0.53-0.37,1.03-0.62,1.5c-0.26,0.47-0.56,0.91-0.89,1.32
				c-0.34,0.41-0.72,0.75-1.15,1.04c-0.43,0.29-0.9,0.51-1.41,0.67c-0.51,0.16-1.07,0.23-1.68,0.22c-0.57-0.01-1.08-0.11-1.53-0.29
				s-0.83-0.43-1.15-0.74c-0.33-0.3-0.6-0.66-0.81-1.06s-0.37-0.84-0.48-1.31c-0.11-0.46-0.18-0.94-0.2-1.44
				c-0.02-0.5,0-1,0.07-1.49l0.33-2.1c0.08-0.53,0.2-1.05,0.36-1.58c0.16-0.52,0.36-1.02,0.61-1.5c0.24-0.47,0.52-0.92,0.85-1.32
				c0.33-0.41,0.7-0.76,1.12-1.06c0.42-0.29,0.88-0.52,1.38-0.68c0.51-0.16,1.06-0.24,1.66-0.22c0.58,0.01,1.1,0.11,1.55,0.29
				c0.45,0.18,0.85,0.42,1.19,0.72c0.34,0.31,0.62,0.67,0.84,1.07c0.22,0.41,0.4,0.84,0.52,1.3c0.12,0.47,0.19,0.96,0.22,1.46
				s0.01,1.01-0.06,1.51l-0.33,2.09C120.63,105.3,120.5,105.83,120.34,106.35z M118.37,101.85c0.02-0.29,0.02-0.58,0.01-0.88
				c-0.02-0.29-0.06-0.57-0.13-0.85c-0.07-0.28-0.17-0.52-0.31-0.74c-0.14-0.22-0.32-0.4-0.54-0.53c-0.22-0.14-0.5-0.21-0.84-0.23
				c-0.36-0.01-0.68,0.04-0.96,0.15s-0.52,0.27-0.72,0.48c-0.21,0.21-0.39,0.45-0.54,0.73c-0.15,0.27-0.28,0.56-0.38,0.86
				c-0.11,0.3-0.19,0.61-0.26,0.92c-0.07,0.31-0.12,0.61-0.16,0.89l-0.33,2.12c-0.03,0.23-0.06,0.49-0.08,0.77s-0.03,0.57-0.02,0.87
				c0,0.3,0.03,0.59,0.08,0.87c0.05,0.28,0.14,0.54,0.27,0.76s0.29,0.41,0.51,0.55s0.49,0.22,0.83,0.23
				c0.36,0.01,0.68-0.04,0.96-0.15s0.54-0.27,0.76-0.48c0.22-0.2,0.41-0.44,0.57-0.72c0.16-0.28,0.31-0.57,0.42-0.88
				c0.11-0.3,0.2-0.61,0.28-0.93s0.13-0.62,0.18-0.9l0.33-2.12C118.32,102.4,118.35,102.14,118.37,101.85z"/>
			<path class="st3" d="M131.95,106.05c-0.11,0.74-0.31,1.43-0.6,2.06c-0.29,0.63-0.67,1.16-1.13,1.61
				c-0.46,0.45-1.01,0.81-1.64,1.05s-1.34,0.36-2.12,0.34c-0.73-0.01-1.35-0.16-1.87-0.43c-0.52-0.27-0.95-0.64-1.27-1.1
				c-0.32-0.45-0.55-0.98-0.67-1.59c-0.12-0.61-0.15-1.25-0.07-1.92l1.63-9.55h2.71l-1.6,9.55c-0.03,0.28-0.05,0.58-0.04,0.9
				c0,0.32,0.05,0.62,0.14,0.89c0.08,0.28,0.23,0.51,0.43,0.7c0.2,0.19,0.49,0.29,0.85,0.31c0.41,0.02,0.76-0.05,1.06-0.21
				c0.3-0.16,0.55-0.38,0.75-0.65c0.2-0.27,0.36-0.58,0.47-0.92c0.12-0.34,0.2-0.69,0.26-1.03l1.63-9.55h2.69L131.95,106.05z"/>
			<path class="st3" d="M140.21,110.91l-2.29-9.38l-1.63,9.38h-2.73l2.49-14.39h2.68l2.26,9.34l1.64-9.34h2.72l-2.5,14.39H140.21z"
				/>
			<path class="st3" d="M103.12,159.48v-11.04l-3.64,1.3v-2.39l6.27-2.26h0.15v14.39H103.12z"/>
			<path class="st3" d="M114.59,156.6c0.34-0.35,0.8-0.53,1.4-0.53c0.59,0,1.06,0.17,1.4,0.52c0.34,0.35,0.51,0.78,0.51,1.29
				c0,0.51-0.17,0.94-0.52,1.28c-0.35,0.34-0.81,0.51-1.39,0.51c-0.59,0-1.05-0.17-1.39-0.51c-0.34-0.34-0.51-0.77-0.51-1.27
				C114.09,157.39,114.26,156.96,114.59,156.6z"/>
			<path class="st3" d="M138,155.76l-1.16,3.73h-1.83l4.64-14.39h1.53l4.57,14.39h-1.82l-1.14-3.73H138z M142.32,154.17l-1.9-6.25
				l-1.93,6.25H142.32z"/>
			<path class="st3" d="M162.22,159.48h-1.83v-14.39h4.66c0.65,0.01,1.26,0.12,1.83,0.31c0.58,0.19,1.08,0.47,1.52,0.83
				s0.78,0.81,1.03,1.34s0.38,1.15,0.38,1.84s-0.13,1.3-0.38,1.83c-0.25,0.53-0.6,0.98-1.03,1.34s-0.94,0.64-1.52,0.83
				c-0.58,0.19-1.19,0.29-1.83,0.3h-2.84V159.48z M165.06,152.21c0.42-0.01,0.81-0.07,1.17-0.2c0.36-0.13,0.67-0.31,0.93-0.55
				c0.26-0.24,0.47-0.52,0.62-0.86s0.22-0.73,0.22-1.16c0-0.43-0.07-0.83-0.22-1.18s-0.35-0.65-0.61-0.89
				c-0.26-0.24-0.58-0.43-0.93-0.56c-0.36-0.13-0.75-0.2-1.17-0.21h-2.84v5.61H165.06z"/>
			<path class="st3" d="M174.43,155.76l-1.16,3.73h-1.83l4.65-14.39h1.53l4.57,14.39h-1.82l-1.14-3.73H174.43z M178.75,154.17
				l-1.9-6.25l-1.93,6.25H178.75z"/>
			<path class="st3" d="M186.4,153.61v5.87h-1.82v-14.39h4.22c0.67,0.01,1.3,0.11,1.9,0.29s1.11,0.44,1.56,0.8
				c0.44,0.36,0.79,0.8,1.04,1.34c0.25,0.54,0.38,1.17,0.38,1.89c0,0.47-0.07,0.9-0.2,1.28c-0.14,0.39-0.32,0.74-0.56,1.06
				c-0.24,0.32-0.52,0.6-0.85,0.84c-0.33,0.24-0.69,0.45-1.09,0.62l3.05,6.15l-0.01,0.12h-1.93l-2.83-5.87H186.4z M188.85,152.11
				c0.41-0.01,0.79-0.07,1.16-0.19c0.36-0.12,0.68-0.3,0.96-0.53c0.27-0.23,0.48-0.51,0.64-0.85c0.16-0.33,0.24-0.72,0.24-1.15
				c0-0.46-0.08-0.86-0.23-1.21s-0.36-0.64-0.63-0.87c-0.27-0.23-0.59-0.41-0.96-0.52s-0.78-0.18-1.22-0.19h-2.4v5.51H188.85z"/>
			<path class="st3" d="M198.73,155.76l-1.16,3.73h-1.83l4.64-14.39h1.53l4.57,14.39h-1.82l-1.14-3.73H198.73z M203.04,154.17
				l-1.9-6.25l-1.93,6.25H203.04z"/>
			<path class="st3" d="M210.8,159.48h-1.83v-14.39h4.66c0.65,0.01,1.26,0.12,1.83,0.31c0.58,0.19,1.08,0.47,1.52,0.83
				s0.78,0.81,1.03,1.34s0.38,1.15,0.38,1.84s-0.13,1.3-0.38,1.83c-0.25,0.53-0.6,0.98-1.03,1.34s-0.94,0.64-1.52,0.83
				c-0.58,0.19-1.19,0.29-1.83,0.3h-2.84V159.48z M213.64,152.21c0.42-0.01,0.81-0.07,1.17-0.2c0.36-0.13,0.67-0.31,0.93-0.55
				c0.26-0.24,0.47-0.52,0.62-0.86s0.22-0.73,0.22-1.16c0-0.43-0.07-0.83-0.22-1.18s-0.35-0.65-0.61-0.89
				c-0.26-0.24-0.58-0.43-0.93-0.56c-0.36-0.13-0.75-0.2-1.17-0.21h-2.84v5.61H213.64z"/>
			<path class="st3" d="M228.25,159.48v-6.65h-5.9v6.65h-1.72v-14.39h1.72v6.19h5.9v-6.19h1.73v14.39H228.25z"/>
			<path class="st3" d="M241.79,145.09v1.59h-3.45v11.22h3.45v1.58h-8.7v-1.58h3.37v-11.22h-3.37v-1.59H241.79z"/>
			<path class="st3" d="M254.34,157.93v1.55h-8.86v-14.39h1.83v12.84H254.34z"/>
			<path class="st3" d="M266.09,145.09v1.59h-3.45v11.22h3.45v1.58h-8.7v-1.58h3.37v-11.22h-3.37v-1.59H266.09z"/>
			<path class="st3" d="M271.6,155.76l-1.16,3.73h-1.83l4.65-14.39h1.53l4.57,14.39h-1.82l-1.14-3.73H271.6z M275.92,154.17
				l-1.9-6.25l-1.93,6.25H275.92z"/>
			<path class="st3" d="M285.85,161.08c-0.31,0.69-0.73,1.26-1.25,1.73l-1.14-0.62c0.32-0.46,0.54-0.95,0.67-1.47
				c0.13-0.52,0.2-1.06,0.2-1.62v-1.77h1.99v1.74C286.32,159.72,286.16,160.39,285.85,161.08z"/>
			<path class="st3" d="M313.13,159.48l-5.58-10.75l-0.03,10.75h-1.85v-14.39h1.86l5.58,10.73l0.03-10.73h1.85v14.39H313.13z"/>
			<path class="st3" d="M327.34,154.68c-0.08,0.52-0.21,1.03-0.38,1.52c-0.17,0.49-0.39,0.94-0.66,1.36
				c-0.27,0.42-0.58,0.79-0.95,1.11s-0.79,0.56-1.27,0.75s-1.01,0.27-1.61,0.27s-1.13-0.09-1.61-0.27c-0.48-0.18-0.9-0.43-1.27-0.75
				s-0.69-0.69-0.96-1.11c-0.27-0.42-0.49-0.88-0.66-1.37c-0.18-0.49-0.31-0.99-0.39-1.51c-0.09-0.52-0.13-1.04-0.14-1.55v-1.64
				c0.01-0.51,0.05-1.03,0.13-1.56c0.08-0.52,0.21-1.03,0.39-1.52c0.17-0.49,0.39-0.94,0.66-1.37c0.27-0.42,0.58-0.8,0.95-1.12
				c0.37-0.32,0.79-0.56,1.27-0.75s1.01-0.27,1.61-0.27c0.59,0,1.13,0.09,1.61,0.27c0.48,0.18,0.91,0.43,1.28,0.75
				c0.37,0.32,0.69,0.69,0.95,1.11s0.49,0.88,0.67,1.37c0.17,0.49,0.3,1,0.38,1.52c0.08,0.53,0.13,1.05,0.13,1.56v1.64
				C327.47,153.63,327.42,154.15,327.34,154.68z M325.6,150.39c-0.04-0.37-0.11-0.74-0.2-1.11c-0.1-0.36-0.23-0.71-0.38-1.04
				c-0.16-0.33-0.36-0.63-0.59-0.88c-0.24-0.25-0.52-0.45-0.84-0.6c-0.32-0.15-0.7-0.22-1.13-0.22c-0.42,0-0.79,0.08-1.12,0.23
				c-0.32,0.15-0.6,0.35-0.84,0.6c-0.24,0.26-0.43,0.55-0.59,0.88c-0.16,0.33-0.28,0.68-0.38,1.04c-0.1,0.37-0.17,0.74-0.21,1.11
				c-0.04,0.37-0.07,0.73-0.07,1.06v1.66c0.01,0.34,0.03,0.69,0.07,1.07c0.04,0.38,0.11,0.74,0.21,1.11
				c0.1,0.37,0.23,0.72,0.39,1.06s0.36,0.63,0.59,0.88c0.24,0.26,0.52,0.46,0.84,0.61c0.32,0.15,0.7,0.23,1.13,0.23
				c0.43,0,0.81-0.08,1.13-0.23c0.33-0.15,0.61-0.36,0.84-0.61c0.23-0.25,0.42-0.54,0.58-0.87c0.15-0.33,0.28-0.68,0.38-1.05
				c0.09-0.36,0.16-0.73,0.19-1.11s0.06-0.73,0.06-1.08v-1.66C325.66,151.12,325.64,150.76,325.6,150.39z"/>
			<path class="st3" d="M335.52,146.66v12.83h-1.78v-12.83h-4.45v-1.56h10.67v1.56H335.52z"/>
			<path class="st3" d="M356.57,153.13v6.35h-1.85v-14.39h8.83v1.56h-6.99v4.92h5.99v1.55H356.57z"/>
			<path class="st3" d="M375.93,154.68c-0.08,0.52-0.21,1.03-0.38,1.52c-0.17,0.49-0.39,0.94-0.66,1.36
				c-0.27,0.42-0.58,0.79-0.95,1.11s-0.79,0.56-1.27,0.75s-1.01,0.27-1.61,0.27s-1.13-0.09-1.61-0.27c-0.48-0.18-0.9-0.43-1.27-0.75
				s-0.69-0.69-0.96-1.11c-0.27-0.42-0.49-0.88-0.66-1.37c-0.18-0.49-0.31-0.99-0.39-1.51c-0.09-0.52-0.13-1.04-0.14-1.55v-1.64
				c0.01-0.51,0.05-1.03,0.13-1.56c0.08-0.52,0.21-1.03,0.39-1.52c0.17-0.49,0.39-0.94,0.66-1.37c0.27-0.42,0.58-0.8,0.95-1.12
				c0.37-0.32,0.79-0.56,1.27-0.75s1.01-0.27,1.61-0.27c0.59,0,1.13,0.09,1.61,0.27c0.48,0.18,0.91,0.43,1.28,0.75
				c0.37,0.32,0.69,0.69,0.95,1.11s0.49,0.88,0.67,1.37c0.17,0.49,0.3,1,0.38,1.52c0.08,0.53,0.13,1.05,0.13,1.56v1.64
				C376.05,153.63,376.01,154.15,375.93,154.68z M374.18,150.39c-0.04-0.37-0.11-0.74-0.2-1.11c-0.1-0.36-0.23-0.71-0.38-1.04
				c-0.16-0.33-0.36-0.63-0.59-0.88c-0.24-0.25-0.52-0.45-0.84-0.6c-0.32-0.15-0.7-0.22-1.13-0.22c-0.42,0-0.79,0.08-1.12,0.23
				c-0.32,0.15-0.6,0.35-0.84,0.6c-0.24,0.26-0.43,0.55-0.59,0.88c-0.16,0.33-0.28,0.68-0.38,1.04c-0.1,0.37-0.17,0.74-0.21,1.11
				c-0.04,0.37-0.07,0.73-0.07,1.06v1.66c0.01,0.34,0.03,0.69,0.07,1.07c0.04,0.38,0.11,0.74,0.21,1.11
				c0.1,0.37,0.23,0.72,0.39,1.06s0.36,0.63,0.59,0.88c0.24,0.26,0.52,0.46,0.84,0.61c0.32,0.15,0.7,0.23,1.13,0.23
				c0.43,0,0.81-0.08,1.13-0.23c0.33-0.15,0.61-0.36,0.84-0.61c0.23-0.25,0.42-0.54,0.58-0.87c0.15-0.33,0.28-0.68,0.38-1.05
				c0.09-0.36,0.16-0.73,0.19-1.11s0.06-0.73,0.06-1.08v-1.66C374.24,151.12,374.22,150.76,374.18,150.39z"/>
			<path class="st3" d="M380.73,153.61v5.87h-1.82v-14.39h4.22c0.67,0.01,1.3,0.11,1.9,0.29s1.11,0.44,1.56,0.8
				c0.44,0.36,0.79,0.8,1.04,1.34c0.25,0.54,0.38,1.17,0.38,1.89c0,0.47-0.07,0.9-0.2,1.28c-0.14,0.39-0.32,0.74-0.56,1.06
				c-0.24,0.32-0.52,0.6-0.85,0.84c-0.33,0.24-0.69,0.45-1.09,0.62l3.05,6.15l-0.01,0.12h-1.93l-2.83-5.87H380.73z M383.18,152.11
				c0.41-0.01,0.79-0.07,1.16-0.19c0.36-0.12,0.68-0.3,0.96-0.53c0.27-0.23,0.48-0.51,0.64-0.85c0.16-0.33,0.24-0.72,0.24-1.15
				c0-0.46-0.08-0.86-0.23-1.21s-0.36-0.64-0.63-0.87c-0.27-0.23-0.59-0.41-0.96-0.52s-0.78-0.18-1.22-0.19h-2.4v5.51H383.18z"/>
			<path class="st3" d="M395.34,152.29l2.53-7.19h2.27v14.39h-1.78v-5.74l0.15-6.01l-2.66,7.75h-1.05l-2.44-7.54l0.15,5.8v5.74
				h-1.78v-14.39H393L395.34,152.29z"/>
			<path class="st3" d="M405.2,155.76l-1.16,3.73h-1.83l4.65-14.39h1.53l4.57,14.39h-1.82l-1.14-3.73H405.2z M409.52,154.17
				l-1.9-6.25l-1.93,6.25H409.52z"/>
			<path class="st3" d="M424.38,157.93v1.55h-8.87v-14.39h1.83v12.84H424.38z"/>
			<path class="st3" d="M436.53,157.93v1.55h-8.86v-14.39h1.83v12.84H436.53z"/>
			<path class="st3" d="M447.09,145.09h2.08l-4.48,9.02l-0.03,5.37h-1.7l-0.03-5.37l-4.48-9.02h2.08l3.27,7.22L447.09,145.09z"/>
			<path class="st3" d="M465.75,153.61v5.87h-1.82v-14.39h4.22c0.67,0.01,1.3,0.11,1.9,0.29s1.11,0.44,1.56,0.8
				c0.44,0.36,0.79,0.8,1.04,1.34c0.25,0.54,0.38,1.17,0.38,1.89c0,0.47-0.07,0.9-0.2,1.28c-0.14,0.39-0.32,0.74-0.56,1.06
				c-0.24,0.32-0.52,0.6-0.85,0.84c-0.33,0.24-0.69,0.45-1.09,0.62l3.05,6.15l-0.01,0.12h-1.93l-2.83-5.87H465.75z M468.2,152.11
				c0.41-0.01,0.79-0.07,1.16-0.19c0.36-0.12,0.68-0.3,0.96-0.53c0.27-0.23,0.48-0.51,0.64-0.85c0.16-0.33,0.24-0.72,0.24-1.15
				c0-0.46-0.08-0.86-0.23-1.21s-0.36-0.64-0.63-0.87c-0.27-0.23-0.59-0.41-0.96-0.52c-0.37-0.12-0.78-0.18-1.22-0.19h-2.4v5.51
				H468.2z"/>
			<path class="st3" d="M477.92,152.83v5.1h7.01v1.55h-8.83v-14.39h8.75v1.56h-6.92v4.62h6.01v1.55H477.92z"/>
			<path class="st3" d="M496.96,156.99c-0.26,0.56-0.59,1.03-1,1.43c-0.42,0.4-0.9,0.71-1.47,0.93s-1.19,0.33-1.88,0.33
				c-0.59,0-1.13-0.08-1.62-0.25s-0.91-0.4-1.29-0.7c-0.38-0.3-0.71-0.65-0.98-1.05c-0.27-0.4-0.5-0.84-0.68-1.31
				c-0.18-0.47-0.32-0.97-0.41-1.49c-0.09-0.52-0.14-1.05-0.14-1.58v-2.01c0.01-0.53,0.05-1.06,0.14-1.58
				c0.09-0.52,0.23-1.02,0.41-1.49c0.18-0.47,0.4-0.91,0.68-1.32s0.6-0.76,0.98-1.05c0.38-0.3,0.8-0.53,1.28-0.7
				c0.48-0.17,1.02-0.25,1.62-0.25c0.72,0,1.36,0.11,1.93,0.33c0.57,0.22,1.05,0.53,1.46,0.93c0.41,0.41,0.74,0.9,0.98,1.46
				c0.25,0.57,0.41,1.19,0.49,1.88h-1.83c-0.06-0.44-0.16-0.84-0.31-1.22c-0.15-0.38-0.34-0.71-0.58-0.99
				c-0.24-0.28-0.54-0.51-0.89-0.67c-0.35-0.16-0.77-0.24-1.25-0.24c-0.43,0-0.82,0.07-1.15,0.21s-0.62,0.33-0.85,0.58
				c-0.24,0.24-0.45,0.53-0.61,0.85c-0.16,0.32-0.29,0.67-0.39,1.03c-0.1,0.36-0.17,0.73-0.21,1.11s-0.06,0.75-0.06,1.1v2.03
				c0,0.36,0.02,0.72,0.06,1.1s0.11,0.75,0.21,1.11c0.1,0.37,0.23,0.71,0.39,1.04s0.36,0.61,0.6,0.85c0.24,0.25,0.53,0.45,0.86,0.59
				c0.33,0.14,0.71,0.21,1.16,0.21c0.48,0,0.9-0.08,1.25-0.23c0.35-0.15,0.65-0.37,0.89-0.64c0.24-0.27,0.44-0.59,0.58-0.96
				c0.14-0.37,0.25-0.78,0.31-1.21h1.83C497.39,155.82,497.22,156.43,496.96,156.99z"/>
			<path class="st3" d="M509.53,154.68c-0.08,0.52-0.21,1.03-0.38,1.52c-0.17,0.49-0.39,0.94-0.66,1.36
				c-0.27,0.42-0.58,0.79-0.95,1.11c-0.37,0.32-0.79,0.56-1.27,0.75s-1.01,0.27-1.61,0.27c-0.59,0-1.13-0.09-1.61-0.27
				s-0.9-0.43-1.27-0.75s-0.69-0.69-0.96-1.11s-0.49-0.88-0.66-1.37c-0.18-0.49-0.31-0.99-0.4-1.51c-0.08-0.52-0.13-1.04-0.14-1.55
				v-1.64c0.01-0.51,0.05-1.03,0.13-1.56c0.08-0.52,0.21-1.03,0.39-1.52c0.17-0.49,0.39-0.94,0.66-1.37
				c0.27-0.42,0.58-0.8,0.95-1.12c0.37-0.32,0.79-0.56,1.27-0.75s1.01-0.27,1.61-0.27c0.59,0,1.13,0.09,1.61,0.27
				c0.48,0.18,0.91,0.43,1.27,0.75s0.69,0.69,0.95,1.11s0.49,0.88,0.67,1.37c0.17,0.49,0.3,1,0.38,1.52
				c0.08,0.53,0.13,1.05,0.13,1.56v1.64C509.66,153.63,509.61,154.15,509.53,154.68z M507.79,150.39c-0.04-0.37-0.11-0.74-0.2-1.11
				c-0.1-0.36-0.23-0.71-0.39-1.04c-0.16-0.33-0.36-0.63-0.59-0.88c-0.24-0.25-0.52-0.45-0.84-0.6c-0.32-0.15-0.7-0.22-1.13-0.22
				c-0.42,0-0.79,0.08-1.12,0.23c-0.32,0.15-0.6,0.35-0.84,0.6c-0.24,0.26-0.44,0.55-0.59,0.88c-0.16,0.33-0.28,0.68-0.38,1.04
				c-0.1,0.37-0.17,0.74-0.21,1.11s-0.07,0.73-0.07,1.06v1.66c0.01,0.34,0.03,0.69,0.07,1.07c0.04,0.38,0.11,0.74,0.21,1.11
				c0.1,0.37,0.23,0.72,0.39,1.06s0.36,0.63,0.59,0.88c0.24,0.26,0.52,0.46,0.84,0.61c0.32,0.15,0.7,0.23,1.13,0.23
				c0.43,0,0.8-0.08,1.13-0.23c0.33-0.15,0.61-0.36,0.85-0.61c0.23-0.25,0.42-0.54,0.58-0.87c0.15-0.33,0.28-0.68,0.38-1.05
				c0.09-0.36,0.16-0.73,0.19-1.11c0.04-0.38,0.06-0.73,0.06-1.08v-1.66C507.85,151.12,507.82,150.76,507.79,150.39z"/>
			<path class="st3" d="M521.05,158.31c-0.25,0.21-0.51,0.4-0.78,0.56c-0.46,0.28-0.96,0.48-1.49,0.62
				c-0.53,0.14-1.09,0.2-1.68,0.19c-0.59-0.01-1.14-0.1-1.64-0.27c-0.5-0.17-0.94-0.42-1.34-0.73c-0.4-0.3-0.74-0.66-1.04-1.08
				c-0.3-0.42-0.54-0.87-0.74-1.35c-0.21-0.48-0.36-0.99-0.46-1.52c-0.1-0.53-0.16-1.07-0.16-1.61v-1.67
				c0.01-0.53,0.05-1.07,0.14-1.6s0.23-1.04,0.41-1.53c0.18-0.49,0.42-0.94,0.69-1.36s0.61-0.78,1-1.09c0.38-0.3,0.82-0.54,1.3-0.72
				s1.03-0.27,1.64-0.27c0.67,0,1.29,0.1,1.86,0.31c0.57,0.21,1.06,0.5,1.48,0.88c0.42,0.39,0.76,0.85,1.02,1.4s0.42,1.15,0.47,1.82
				h-1.81c-0.07-0.42-0.18-0.8-0.34-1.15c-0.15-0.35-0.35-0.65-0.59-0.9c-0.25-0.25-0.55-0.45-0.89-0.59
				c-0.34-0.14-0.74-0.21-1.2-0.21c-0.43,0-0.82,0.07-1.16,0.22c-0.34,0.15-0.63,0.35-0.88,0.6c-0.25,0.25-0.46,0.54-0.62,0.87
				c-0.17,0.33-0.3,0.68-0.41,1.05s-0.18,0.74-0.23,1.13c-0.05,0.38-0.07,0.75-0.07,1.11v1.69c0.01,0.36,0.04,0.74,0.09,1.12
				c0.06,0.39,0.14,0.76,0.26,1.13c0.12,0.37,0.27,0.72,0.45,1.05s0.41,0.62,0.67,0.87c0.26,0.25,0.56,0.45,0.9,0.6
				c0.34,0.15,0.73,0.23,1.17,0.23c0.25,0.01,0.51,0,0.79-0.03c0.27-0.03,0.54-0.08,0.79-0.16c0.26-0.08,0.5-0.19,0.72-0.32
				s0.41-0.31,0.56-0.53l0.02-3.23h-2.92v-1.54h4.66l0.03,5.28C521.53,157.86,521.3,158.1,521.05,158.31z"/>
			<path class="st3" d="M531.75,159.48l-5.58-10.75l-0.03,10.75h-1.85v-14.39h1.86l5.58,10.73l0.03-10.73h1.85v14.39H531.75z"/>
			<path class="st3" d="M545.44,145.09v1.59h-3.45v11.22h3.45v1.58h-8.7v-1.58h3.37v-11.22h-3.37v-1.59H545.44z"/>
			<path class="st3" d="M556.11,154.73c-0.2-0.3-0.46-0.56-0.78-0.77c-0.32-0.2-0.66-0.38-1.04-0.51c-0.38-0.14-0.74-0.26-1.09-0.38
				c-0.51-0.17-1.02-0.36-1.55-0.6c-0.52-0.23-1-0.52-1.43-0.84c-0.43-0.34-0.79-0.73-1.06-1.19s-0.41-1-0.41-1.62
				c0-0.62,0.14-1.17,0.41-1.66c0.27-0.49,0.63-0.9,1.07-1.24s0.94-0.59,1.5-0.77c0.56-0.17,1.12-0.26,1.69-0.26
				c0.63,0,1.23,0.1,1.81,0.31c0.58,0.21,1.09,0.5,1.54,0.87c0.45,0.38,0.81,0.83,1.08,1.36c0.27,0.53,0.41,1.13,0.42,1.79h-1.88
				c-0.05-0.42-0.16-0.79-0.31-1.13s-0.35-0.63-0.6-0.87s-0.55-0.43-0.89-0.57c-0.35-0.13-0.74-0.2-1.17-0.2
				c-0.35,0-0.69,0.05-1.02,0.15c-0.33,0.1-0.63,0.25-0.88,0.44c-0.26,0.2-0.47,0.44-0.63,0.73c-0.15,0.29-0.23,0.63-0.23,1.01
				c0.01,0.42,0.11,0.77,0.32,1.05s0.46,0.53,0.78,0.73c0.31,0.2,0.65,0.36,1.01,0.49s0.71,0.25,1.03,0.35
				c0.53,0.17,1.07,0.36,1.6,0.6c0.53,0.23,1.02,0.53,1.46,0.89c0.43,0.34,0.79,0.75,1.05,1.24c0.27,0.49,0.4,1.05,0.4,1.69
				c0,0.65-0.14,1.21-0.43,1.69c-0.29,0.48-0.66,0.88-1.11,1.2c-0.46,0.32-0.97,0.56-1.54,0.73c-0.57,0.16-1.15,0.24-1.72,0.24
				c-0.69,0-1.36-0.12-2.02-0.35c-0.66-0.23-1.24-0.56-1.72-1c-0.44-0.38-0.78-0.82-1.03-1.32s-0.39-1.07-0.41-1.69h1.87
				c0.06,0.45,0.18,0.85,0.37,1.19c0.18,0.35,0.42,0.64,0.71,0.87c0.29,0.24,0.62,0.43,1,0.55s0.79,0.18,1.24,0.18
				c0.36,0,0.71-0.04,1.05-0.13s0.65-0.23,0.92-0.42c0.27-0.18,0.49-0.42,0.66-0.71c0.17-0.29,0.26-0.63,0.26-1.02
				C556.42,155.41,556.32,155.03,556.11,154.73z"/>
			<path class="st3" d="M562.94,152.83v5.1h7.01v1.55h-8.83v-14.39h8.75v1.56h-6.92v4.62h6.01v1.55H562.94z"/>
			<path class="st3" d="M572.99,145.09h3.33c0.56,0.01,1.09,0.06,1.59,0.17c0.5,0.11,0.96,0.26,1.38,0.46
				c0.59,0.27,1.11,0.62,1.56,1.06c0.45,0.44,0.81,0.94,1.08,1.52c0.24,0.49,0.43,1.02,0.56,1.6c0.13,0.58,0.2,1.2,0.2,1.86v1.06
				c0,0.63-0.06,1.23-0.18,1.8c-0.12,0.57-0.3,1.09-0.53,1.56c-0.24,0.49-0.54,0.94-0.9,1.34c-0.36,0.4-0.77,0.74-1.22,1.03
				c-0.47,0.3-1.01,0.52-1.61,0.68c-0.6,0.16-1.24,0.24-1.93,0.25h-3.33V145.09z M574.85,157.99h1.47c0.53-0.01,1.01-0.07,1.44-0.2
				c0.43-0.12,0.82-0.3,1.15-0.53c0.36-0.24,0.66-0.53,0.92-0.87c0.26-0.35,0.47-0.73,0.62-1.16c0.13-0.35,0.23-0.73,0.3-1.13
				c0.07-0.41,0.1-0.83,0.11-1.27v-1.08c-0.01-0.45-0.04-0.88-0.11-1.29c-0.07-0.41-0.17-0.8-0.31-1.15
				c-0.18-0.46-0.42-0.88-0.72-1.25s-0.67-0.67-1.1-0.9c-0.31-0.17-0.66-0.3-1.04-0.4c-0.38-0.1-0.8-0.15-1.25-0.15h-1.47V157.99z"
				/>
			<path class="st3" d="M606.17,145.09v1.59h-3.45v11.22h3.45v1.58h-8.7v-1.58h3.37v-11.22h-3.37v-1.59H606.17z"/>
			<path class="st3" d="M616.77,159.48l-5.58-10.75l-0.03,10.75h-1.85v-14.39h1.86l5.58,10.73l0.03-10.73h1.85v14.39H616.77z"/>
			<path class="st3" d="M639.16,146.66v12.83h-1.78v-12.83h-4.45v-1.56h10.67v1.56H639.16z"/>
			<path class="st3" d="M653.34,159.48v-6.65h-5.9v6.65h-1.72v-14.39h1.72v6.19h5.9v-6.19h1.73v14.39H653.34z"/>
			<path class="st3" d="M660.1,152.83v5.1h7.01v1.55h-8.83v-14.39h8.75v1.56h-6.92v4.62h6.01v1.55H660.1z"/>
			<path class="st3" d="M682.3,145.09h3.33c0.56,0.01,1.09,0.06,1.59,0.17c0.5,0.11,0.96,0.26,1.38,0.46
				c0.59,0.27,1.11,0.62,1.56,1.06c0.45,0.44,0.81,0.94,1.08,1.52c0.24,0.49,0.43,1.02,0.56,1.6c0.13,0.58,0.2,1.2,0.2,1.86v1.06
				c0,0.63-0.06,1.23-0.18,1.8c-0.12,0.57-0.3,1.09-0.53,1.56c-0.24,0.49-0.54,0.94-0.9,1.34c-0.36,0.4-0.77,0.74-1.22,1.03
				c-0.47,0.3-1.01,0.52-1.61,0.68c-0.6,0.16-1.24,0.24-1.93,0.25h-3.33V145.09z M684.16,157.99h1.47c0.53-0.01,1.01-0.07,1.44-0.2
				c0.43-0.12,0.82-0.3,1.15-0.53c0.36-0.24,0.66-0.53,0.92-0.87c0.26-0.35,0.47-0.73,0.62-1.16c0.13-0.35,0.23-0.73,0.3-1.13
				c0.07-0.41,0.1-0.83,0.11-1.27v-1.08c-0.01-0.45-0.04-0.88-0.11-1.29c-0.07-0.41-0.17-0.8-0.31-1.15
				c-0.18-0.46-0.42-0.88-0.72-1.25s-0.67-0.67-1.1-0.9c-0.31-0.17-0.66-0.3-1.04-0.4c-0.38-0.1-0.8-0.15-1.25-0.15h-1.47V157.99z"
				/>
			<path class="st3" d="M701.86,154.73c-0.2-0.3-0.46-0.56-0.78-0.77c-0.32-0.2-0.66-0.38-1.04-0.51c-0.38-0.14-0.74-0.26-1.09-0.38
				c-0.51-0.17-1.02-0.36-1.55-0.6c-0.52-0.23-1-0.52-1.43-0.84c-0.43-0.34-0.79-0.73-1.06-1.19s-0.41-1-0.41-1.62
				c0-0.62,0.14-1.17,0.41-1.66c0.27-0.49,0.63-0.9,1.07-1.24s0.94-0.59,1.5-0.77c0.56-0.17,1.12-0.26,1.69-0.26
				c0.63,0,1.23,0.1,1.81,0.31c0.58,0.21,1.09,0.5,1.54,0.87c0.45,0.38,0.81,0.83,1.08,1.36c0.27,0.53,0.41,1.13,0.42,1.79h-1.88
				c-0.05-0.42-0.16-0.79-0.31-1.13s-0.35-0.63-0.6-0.87s-0.55-0.43-0.89-0.57c-0.35-0.13-0.74-0.2-1.17-0.2
				c-0.35,0-0.69,0.05-1.02,0.15c-0.33,0.1-0.63,0.25-0.88,0.44c-0.26,0.2-0.47,0.44-0.63,0.73c-0.15,0.29-0.23,0.63-0.23,1.01
				c0.01,0.42,0.11,0.77,0.32,1.05s0.46,0.53,0.78,0.73c0.31,0.2,0.65,0.36,1.01,0.49s0.71,0.25,1.03,0.35
				c0.53,0.17,1.07,0.36,1.6,0.6c0.53,0.23,1.02,0.53,1.46,0.89c0.43,0.34,0.79,0.75,1.05,1.24c0.27,0.49,0.4,1.05,0.4,1.69
				c0,0.65-0.14,1.21-0.43,1.69c-0.29,0.48-0.66,0.88-1.11,1.2c-0.46,0.32-0.97,0.56-1.54,0.73c-0.57,0.16-1.15,0.24-1.72,0.24
				c-0.69,0-1.36-0.12-2.02-0.35c-0.66-0.23-1.24-0.56-1.72-1c-0.44-0.38-0.78-0.82-1.03-1.32s-0.39-1.07-0.41-1.69h1.87
				c0.06,0.45,0.18,0.85,0.37,1.19c0.18,0.35,0.42,0.64,0.71,0.87c0.29,0.24,0.62,0.43,1,0.55s0.79,0.18,1.24,0.18
				c0.36,0,0.71-0.04,1.05-0.13s0.65-0.23,0.92-0.42c0.27-0.18,0.49-0.42,0.66-0.71c0.17-0.29,0.26-0.63,0.26-1.02
				C702.17,155.41,702.06,155.03,701.86,154.73z"/>
			<path class="st3" d="M711.13,152.29l2.53-7.19h2.27v14.39h-1.78v-5.74l0.15-6.01l-2.66,7.75h-1.05l-2.44-7.54l0.15,5.8v5.74
				h-1.78v-14.39h2.26L711.13,152.29z"/>
			<path class="st3" d="M719.36,153.94v-1.5h7.56v1.5H719.36z"/>
			<path class="st3" d="M739.77,145.09v1.59h-3.45v11.22h3.45v1.58h-8.7v-1.58h3.37v-11.22h-3.37v-1.59H739.77z"/>
			<path class="st3" d="M742.2,145.09h1.96l3.16,10.74l0.21,0.7l0.22-0.72l3.18-10.72h1.95l-4.54,14.39h-1.59L742.2,145.09z"/>
			<path class="st3" d="M759.53,161.08c-0.31,0.69-0.73,1.26-1.25,1.73l-1.14-0.62c0.32-0.46,0.54-0.95,0.67-1.47
				c0.13-0.52,0.2-1.06,0.2-1.62v-1.77H760v1.74C760,159.72,759.84,160.39,759.53,161.08z"/>
			<path class="st3" d="M144.63,169.38v1.59h-3.45v11.22h3.45v1.58h-8.7v-1.58h3.37v-11.22h-3.37v-1.59H144.63z"/>
			<path class="st3" d="M155.23,183.77l-5.58-10.75l-0.03,10.75h-1.85v-14.39h1.86l5.58,10.73l0.03-10.73h1.85v14.39H155.23z"/>
			<path class="st3" d="M171.37,169.38h1.74l1.04,9.92l0.06,0.57l0.11-0.59l1.74-9.9h1.59l1.75,9.91l0.11,0.58l0.06-0.59l1.04-9.9
				h1.73l-1.75,14.39h-1.87l-1.75-10.24l-0.1-0.6l-0.11,0.61L175,183.77h-1.88L171.37,169.38z"/>
			<path class="st3" d="M191.81,183.77v-6.65h-5.9v6.65h-1.72v-14.39h1.72v6.19h5.9v-6.19h1.73v14.39H191.81z"/>
			<path class="st3" d="M205.36,169.38v1.59h-3.45v11.22h3.45v1.58h-8.7v-1.58h3.37v-11.22h-3.37v-1.59H205.36z"/>
			<path class="st3" d="M217.61,181.28c-0.26,0.56-0.59,1.03-1,1.43c-0.42,0.4-0.9,0.71-1.47,0.93c-0.56,0.22-1.19,0.33-1.88,0.33
				c-0.59,0-1.13-0.08-1.62-0.25s-0.91-0.4-1.29-0.7c-0.38-0.3-0.71-0.65-0.98-1.05c-0.27-0.4-0.5-0.84-0.68-1.31
				c-0.18-0.47-0.32-0.97-0.41-1.49c-0.09-0.52-0.14-1.05-0.14-1.58v-2.01c0.01-0.53,0.05-1.06,0.14-1.58s0.23-1.02,0.41-1.49
				c0.18-0.47,0.4-0.91,0.68-1.32s0.6-0.76,0.98-1.05c0.38-0.3,0.8-0.53,1.29-0.7c0.48-0.17,1.02-0.25,1.62-0.25
				c0.72,0,1.36,0.11,1.93,0.33c0.57,0.22,1.05,0.53,1.46,0.93c0.41,0.41,0.74,0.9,0.98,1.46c0.25,0.57,0.41,1.19,0.49,1.88h-1.83
				c-0.06-0.44-0.16-0.84-0.31-1.22c-0.15-0.38-0.34-0.71-0.58-0.99c-0.24-0.28-0.54-0.51-0.89-0.67c-0.35-0.16-0.77-0.24-1.25-0.24
				c-0.44,0-0.82,0.07-1.15,0.21c-0.33,0.14-0.62,0.33-0.86,0.58c-0.24,0.24-0.45,0.53-0.61,0.85c-0.16,0.32-0.29,0.67-0.39,1.03
				s-0.17,0.73-0.21,1.11c-0.04,0.38-0.06,0.75-0.06,1.1v2.03c0,0.36,0.02,0.72,0.06,1.1c0.04,0.38,0.11,0.75,0.21,1.11
				c0.1,0.37,0.23,0.71,0.39,1.04s0.36,0.61,0.6,0.85c0.24,0.25,0.53,0.45,0.86,0.59c0.33,0.14,0.71,0.21,1.16,0.21
				c0.48,0,0.9-0.08,1.25-0.23c0.35-0.15,0.65-0.37,0.89-0.64c0.24-0.27,0.44-0.59,0.58-0.96c0.14-0.37,0.25-0.78,0.31-1.21h1.83
				C218.04,180.11,217.87,180.72,217.61,181.28z"/>
			<path class="st3" d="M228.25,183.77v-6.65h-5.9v6.65h-1.72v-14.39h1.72v6.19h5.9v-6.19h1.73v14.39H228.25z"/>
			<path class="st3" d="M252.47,179.02c-0.2-0.3-0.46-0.56-0.78-0.77c-0.32-0.2-0.66-0.38-1.04-0.51c-0.38-0.14-0.74-0.26-1.09-0.38
				c-0.51-0.17-1.02-0.36-1.55-0.6c-0.52-0.23-1-0.52-1.43-0.84c-0.43-0.34-0.79-0.73-1.06-1.19c-0.27-0.46-0.41-1-0.41-1.62
				c0-0.62,0.14-1.17,0.41-1.66c0.27-0.49,0.63-0.9,1.07-1.24c0.44-0.34,0.94-0.59,1.5-0.77c0.56-0.17,1.12-0.26,1.69-0.26
				c0.63,0,1.23,0.1,1.81,0.31s1.09,0.5,1.54,0.87s0.81,0.83,1.08,1.36c0.27,0.53,0.41,1.13,0.42,1.79h-1.88
				c-0.05-0.42-0.15-0.79-0.31-1.13c-0.15-0.34-0.35-0.63-0.6-0.87c-0.25-0.24-0.55-0.43-0.89-0.57c-0.35-0.13-0.74-0.2-1.17-0.2
				c-0.35,0-0.69,0.05-1.02,0.15c-0.33,0.1-0.63,0.25-0.88,0.44c-0.26,0.2-0.47,0.44-0.63,0.73c-0.15,0.29-0.23,0.63-0.23,1.01
				c0.01,0.42,0.11,0.77,0.32,1.05c0.21,0.29,0.46,0.53,0.78,0.73c0.31,0.2,0.65,0.36,1.01,0.49c0.37,0.13,0.71,0.25,1.03,0.35
				c0.53,0.17,1.07,0.36,1.6,0.6c0.53,0.23,1.02,0.53,1.46,0.89c0.43,0.34,0.79,0.75,1.05,1.24c0.27,0.49,0.4,1.05,0.4,1.69
				c0,0.65-0.14,1.21-0.43,1.69c-0.29,0.48-0.66,0.88-1.11,1.2c-0.46,0.32-0.97,0.56-1.54,0.73c-0.57,0.16-1.15,0.24-1.72,0.24
				c-0.68,0-1.36-0.12-2.02-0.35c-0.66-0.23-1.24-0.56-1.72-1c-0.43-0.38-0.78-0.82-1.03-1.32c-0.25-0.5-0.39-1.07-0.41-1.69h1.87
				c0.06,0.45,0.18,0.85,0.37,1.19c0.18,0.35,0.42,0.64,0.71,0.87c0.29,0.24,0.62,0.43,1,0.55s0.79,0.18,1.24,0.18
				c0.36,0,0.71-0.04,1.05-0.13s0.65-0.23,0.92-0.42c0.27-0.18,0.49-0.42,0.66-0.71c0.17-0.29,0.26-0.63,0.26-1.02
				C252.77,179.69,252.67,179.32,252.47,179.02z"/>
			<path class="st3" d="M259.3,177.12v5.1h7.01v1.55h-8.83v-14.39h8.75v1.56h-6.92v4.62h6.01v1.55H259.3z"/>
			<path class="st3" d="M277.09,169.38h2.15l-4.18,7.14l4.28,7.25h-2.13l-3.18-5.75l-3.19,5.75h-2.16l4.29-7.25l-4.18-7.14h2.14
				l3.06,5.64L277.09,169.38z"/>
			<path class="st3" d="M290.73,179.13c0,0.67-0.12,1.3-0.36,1.89s-0.56,1.1-0.98,1.53c-0.42,0.44-0.91,0.79-1.48,1.04
				c-0.57,0.25-1.2,0.38-1.89,0.38c-0.7,0-1.33-0.13-1.91-0.38c-0.57-0.25-1.06-0.6-1.47-1.04c-0.41-0.44-0.73-0.95-0.96-1.54
				c-0.23-0.59-0.35-1.22-0.36-1.89l0.02-9.74h1.74l0.04,9.74c0.01,0.43,0.07,0.84,0.2,1.24c0.13,0.4,0.31,0.74,0.56,1.05
				c0.24,0.3,0.54,0.55,0.89,0.73c0.36,0.18,0.77,0.28,1.24,0.28s0.88-0.09,1.24-0.27c0.36-0.18,0.66-0.43,0.9-0.74
				c0.24-0.3,0.42-0.65,0.54-1.05c0.12-0.4,0.19-0.81,0.21-1.24l0.03-9.74h1.77L290.73,179.13z"/>
			<path class="st3" d="M303.05,178.96c-0.08,0.52-0.21,1.03-0.38,1.52c-0.17,0.49-0.39,0.94-0.66,1.36
				c-0.27,0.42-0.58,0.79-0.95,1.11s-0.79,0.56-1.27,0.75s-1.01,0.27-1.61,0.27c-0.59,0-1.13-0.09-1.61-0.27s-0.9-0.43-1.27-0.75
				c-0.37-0.32-0.69-0.69-0.96-1.11c-0.27-0.42-0.49-0.88-0.66-1.37c-0.18-0.49-0.31-0.99-0.4-1.51c-0.09-0.52-0.13-1.04-0.14-1.55
				v-1.64c0.01-0.51,0.05-1.03,0.13-1.56c0.08-0.52,0.21-1.03,0.39-1.52c0.17-0.49,0.39-0.94,0.66-1.37
				c0.27-0.42,0.58-0.8,0.95-1.12c0.37-0.32,0.79-0.56,1.27-0.75c0.48-0.18,1.01-0.27,1.61-0.27s1.13,0.09,1.61,0.27
				c0.48,0.18,0.91,0.43,1.27,0.75s0.69,0.69,0.95,1.11c0.27,0.42,0.49,0.88,0.67,1.37c0.17,0.49,0.3,1,0.38,1.52
				c0.08,0.53,0.13,1.05,0.13,1.56v1.64C303.18,177.92,303.13,178.44,303.05,178.96z M301.31,174.67c-0.04-0.37-0.11-0.74-0.2-1.11
				c-0.1-0.36-0.23-0.71-0.39-1.04c-0.16-0.33-0.36-0.63-0.59-0.88c-0.24-0.25-0.52-0.45-0.84-0.6c-0.32-0.15-0.7-0.22-1.13-0.22
				c-0.42,0-0.79,0.08-1.12,0.23c-0.32,0.15-0.6,0.35-0.84,0.6c-0.24,0.26-0.43,0.55-0.59,0.88c-0.16,0.33-0.28,0.68-0.38,1.04
				c-0.1,0.37-0.17,0.74-0.21,1.11s-0.07,0.73-0.07,1.06v1.66c0.01,0.34,0.03,0.69,0.07,1.07c0.04,0.38,0.11,0.74,0.21,1.11
				c0.1,0.37,0.23,0.72,0.38,1.06s0.36,0.63,0.59,0.88c0.24,0.26,0.52,0.46,0.84,0.61c0.32,0.15,0.7,0.23,1.13,0.23
				c0.43,0,0.81-0.08,1.13-0.23c0.33-0.15,0.61-0.36,0.84-0.61c0.23-0.25,0.42-0.54,0.58-0.87c0.16-0.33,0.28-0.68,0.38-1.05
				c0.09-0.36,0.16-0.73,0.19-1.11s0.06-0.73,0.06-1.08v-1.66C301.37,175.4,301.35,175.05,301.31,174.67z"/>
			<path class="st3" d="M307.88,177.12v5.1h7.01v1.55h-8.83v-14.39h8.75v1.56h-6.92v4.62h6.01v1.55H307.88z"/>
			<path class="st3" d="M320,177.9v5.87h-1.82v-14.39h4.22c0.67,0.01,1.3,0.11,1.9,0.29s1.11,0.44,1.56,0.8
				c0.44,0.36,0.79,0.8,1.04,1.34c0.25,0.54,0.38,1.17,0.38,1.89c0,0.47-0.07,0.9-0.2,1.28c-0.14,0.39-0.32,0.74-0.56,1.06
				c-0.24,0.32-0.52,0.6-0.85,0.84c-0.33,0.24-0.69,0.45-1.09,0.62l3.05,6.15l-0.01,0.12h-1.93l-2.83-5.87H320z M322.46,176.4
				c0.41-0.01,0.79-0.07,1.16-0.19c0.36-0.12,0.68-0.3,0.96-0.53c0.27-0.23,0.48-0.51,0.64-0.85c0.16-0.33,0.24-0.72,0.24-1.15
				c0-0.46-0.08-0.86-0.23-1.21s-0.36-0.64-0.63-0.87c-0.27-0.23-0.59-0.41-0.96-0.52s-0.78-0.18-1.22-0.19H320v5.51H322.46z"/>
			<path class="st3" d="M339.49,178.96c-0.08,0.52-0.21,1.03-0.38,1.52c-0.17,0.49-0.39,0.94-0.66,1.36
				c-0.27,0.42-0.58,0.79-0.95,1.11s-0.79,0.56-1.27,0.75s-1.01,0.27-1.61,0.27c-0.59,0-1.13-0.09-1.61-0.27s-0.9-0.43-1.27-0.75
				c-0.37-0.32-0.69-0.69-0.96-1.11c-0.27-0.42-0.49-0.88-0.66-1.37c-0.18-0.49-0.31-0.99-0.4-1.51c-0.09-0.52-0.13-1.04-0.14-1.55
				v-1.64c0.01-0.51,0.05-1.03,0.13-1.56c0.08-0.52,0.21-1.03,0.39-1.52c0.17-0.49,0.39-0.94,0.66-1.37
				c0.27-0.42,0.58-0.8,0.95-1.12c0.37-0.32,0.79-0.56,1.27-0.75c0.48-0.18,1.01-0.27,1.61-0.27s1.13,0.09,1.61,0.27
				c0.48,0.18,0.91,0.43,1.27,0.75s0.69,0.69,0.95,1.11c0.27,0.42,0.49,0.88,0.67,1.37c0.17,0.49,0.3,1,0.38,1.52
				c0.08,0.53,0.13,1.05,0.13,1.56v1.64C339.62,177.92,339.57,178.44,339.49,178.96z M337.74,174.67c-0.04-0.37-0.11-0.74-0.2-1.11
				c-0.1-0.36-0.23-0.71-0.39-1.04c-0.16-0.33-0.36-0.63-0.59-0.88c-0.24-0.25-0.52-0.45-0.84-0.6c-0.32-0.15-0.7-0.22-1.13-0.22
				c-0.42,0-0.79,0.08-1.12,0.23c-0.32,0.15-0.6,0.35-0.84,0.6c-0.24,0.26-0.43,0.55-0.59,0.88c-0.16,0.33-0.28,0.68-0.38,1.04
				c-0.1,0.37-0.17,0.74-0.21,1.11s-0.07,0.73-0.07,1.06v1.66c0.01,0.34,0.03,0.69,0.07,1.07c0.04,0.38,0.11,0.74,0.21,1.11
				c0.1,0.37,0.23,0.72,0.38,1.06s0.36,0.63,0.59,0.88c0.24,0.26,0.52,0.46,0.84,0.61c0.32,0.15,0.7,0.23,1.13,0.23
				c0.43,0,0.81-0.08,1.13-0.23c0.33-0.15,0.61-0.36,0.84-0.61c0.23-0.25,0.42-0.54,0.58-0.87c0.16-0.33,0.28-0.68,0.38-1.05
				c0.09-0.36,0.16-0.73,0.19-1.11s0.06-0.73,0.06-1.08v-1.66C337.81,175.4,337.78,175.05,337.74,174.67z"/>
			<path class="st3" d="M347.67,170.94v12.83h-1.78v-12.83h-4.45v-1.56h10.67v1.56H347.67z"/>
			<path class="st3" d="M363.25,169.38v1.59h-3.45v11.22h3.45v1.58h-8.7v-1.58h3.37v-11.22h-3.37v-1.59H363.25z"/>
			<path class="st3" d="M375.51,181.28c-0.26,0.56-0.59,1.03-1,1.43c-0.42,0.4-0.9,0.71-1.47,0.93s-1.19,0.33-1.88,0.33
				c-0.59,0-1.13-0.08-1.62-0.25c-0.48-0.17-0.92-0.4-1.29-0.7c-0.38-0.3-0.71-0.65-0.98-1.05c-0.27-0.4-0.5-0.84-0.68-1.31
				c-0.18-0.47-0.32-0.97-0.41-1.49c-0.09-0.52-0.14-1.05-0.14-1.58v-2.01c0.01-0.53,0.05-1.06,0.14-1.58s0.23-1.02,0.41-1.49
				c0.18-0.47,0.4-0.91,0.68-1.32s0.6-0.76,0.98-1.05c0.38-0.3,0.8-0.53,1.28-0.7c0.48-0.17,1.02-0.25,1.62-0.25
				c0.72,0,1.36,0.11,1.93,0.33c0.57,0.22,1.05,0.53,1.46,0.93c0.41,0.41,0.74,0.9,0.98,1.46c0.25,0.57,0.41,1.19,0.49,1.88h-1.83
				c-0.06-0.44-0.16-0.84-0.31-1.22c-0.14-0.38-0.34-0.71-0.58-0.99s-0.54-0.51-0.89-0.67c-0.35-0.16-0.77-0.24-1.25-0.24
				c-0.43,0-0.82,0.07-1.15,0.21s-0.62,0.33-0.85,0.58c-0.24,0.24-0.45,0.53-0.61,0.85c-0.16,0.32-0.29,0.67-0.39,1.03
				s-0.17,0.73-0.21,1.11s-0.06,0.75-0.06,1.1v2.03c0,0.36,0.02,0.72,0.06,1.1s0.11,0.75,0.21,1.11c0.1,0.37,0.23,0.71,0.38,1.04
				s0.36,0.61,0.6,0.85c0.24,0.25,0.53,0.45,0.86,0.59s0.71,0.21,1.16,0.21c0.48,0,0.9-0.08,1.25-0.23
				c0.35-0.15,0.65-0.37,0.89-0.64c0.24-0.27,0.44-0.59,0.58-0.96c0.14-0.37,0.25-0.78,0.31-1.21h1.83
				C375.93,180.11,375.76,180.72,375.51,181.28z"/>
			<path class="st3" d="M387.54,169.38v1.59h-3.45v11.22h3.45v1.58h-8.7v-1.58h3.37v-11.22h-3.37v-1.59H387.54z"/>
			<path class="st3" d="M398.22,179.02c-0.2-0.3-0.46-0.56-0.78-0.77c-0.32-0.2-0.66-0.38-1.04-0.51c-0.38-0.14-0.74-0.26-1.09-0.38
				c-0.51-0.17-1.02-0.36-1.55-0.6c-0.52-0.23-1-0.52-1.43-0.84c-0.43-0.34-0.79-0.73-1.06-1.19s-0.41-1-0.41-1.62
				c0-0.62,0.14-1.17,0.41-1.66c0.27-0.49,0.63-0.9,1.07-1.24s0.94-0.59,1.5-0.77c0.56-0.17,1.12-0.26,1.69-0.26
				c0.63,0,1.23,0.1,1.81,0.31c0.58,0.21,1.09,0.5,1.54,0.87s0.81,0.83,1.08,1.36c0.27,0.53,0.41,1.13,0.43,1.79h-1.88
				c-0.05-0.42-0.16-0.79-0.31-1.13s-0.35-0.63-0.6-0.87c-0.25-0.24-0.55-0.43-0.89-0.57c-0.35-0.13-0.74-0.2-1.17-0.2
				c-0.35,0-0.69,0.05-1.02,0.15c-0.33,0.1-0.63,0.25-0.88,0.44c-0.26,0.2-0.47,0.44-0.63,0.73c-0.16,0.29-0.23,0.63-0.23,1.01
				c0.01,0.42,0.11,0.77,0.32,1.05s0.46,0.53,0.78,0.73c0.31,0.2,0.65,0.36,1.01,0.49c0.37,0.13,0.71,0.25,1.03,0.35
				c0.53,0.17,1.07,0.36,1.6,0.6c0.53,0.23,1.02,0.53,1.46,0.89c0.44,0.34,0.79,0.75,1.05,1.24c0.27,0.49,0.4,1.05,0.4,1.69
				c0,0.65-0.14,1.21-0.43,1.69c-0.29,0.48-0.66,0.88-1.11,1.2c-0.45,0.32-0.97,0.56-1.54,0.73c-0.57,0.16-1.15,0.24-1.72,0.24
				c-0.69,0-1.36-0.12-2.02-0.35c-0.66-0.23-1.24-0.56-1.72-1c-0.43-0.38-0.78-0.82-1.03-1.32c-0.25-0.5-0.39-1.07-0.41-1.69h1.87
				c0.06,0.45,0.18,0.85,0.37,1.19c0.18,0.35,0.42,0.64,0.71,0.87c0.29,0.24,0.62,0.43,1,0.55s0.79,0.18,1.24,0.18
				c0.36,0,0.71-0.04,1.05-0.13c0.35-0.09,0.65-0.23,0.92-0.42c0.27-0.18,0.49-0.42,0.66-0.71c0.17-0.29,0.26-0.63,0.26-1.02
				C398.52,179.69,398.42,179.32,398.22,179.02z"/>
			<path class="st3" d="M407.49,176.58l2.53-7.19h2.27v14.39h-1.78v-5.74l0.15-6.01l-2.66,7.75h-1.05l-2.44-7.54l0.15,5.8v5.74
				h-1.78v-14.39h2.26L407.49,176.58z"/>
			<path class="st3" d="M434.72,183.77v-6.65h-5.9v6.65h-1.72v-14.39h1.72v6.19h5.9v-6.19h1.73v14.39H434.72z"/>
			<path class="st3" d="M448.27,169.38v1.59h-3.45v11.22h3.45v1.58h-8.7v-1.58h3.37v-11.22h-3.37v-1.59H448.27z"/>
			<path class="st3" d="M458.88,183.77l-5.58-10.75l-0.03,10.75h-1.85v-14.39h1.86l5.58,10.73l0.03-10.73h1.85v14.39H458.88z"/>
			<path class="st3" d="M472.46,182.6c-0.25,0.21-0.51,0.4-0.78,0.56c-0.46,0.28-0.96,0.48-1.49,0.62c-0.53,0.14-1.09,0.2-1.68,0.19
				c-0.59-0.01-1.14-0.1-1.64-0.27c-0.5-0.17-0.94-0.42-1.34-0.73c-0.4-0.3-0.74-0.66-1.04-1.08c-0.3-0.42-0.54-0.87-0.74-1.35
				c-0.21-0.48-0.36-0.99-0.46-1.52c-0.1-0.53-0.16-1.07-0.16-1.61v-1.67c0.01-0.53,0.05-1.07,0.14-1.6s0.23-1.04,0.41-1.53
				c0.18-0.49,0.42-0.94,0.69-1.36s0.61-0.78,1-1.09c0.38-0.3,0.82-0.54,1.3-0.72s1.03-0.27,1.64-0.27c0.67,0,1.29,0.1,1.86,0.31
				c0.57,0.21,1.06,0.5,1.48,0.88c0.42,0.39,0.76,0.85,1.02,1.4s0.42,1.15,0.47,1.82h-1.81c-0.07-0.42-0.18-0.8-0.34-1.15
				c-0.15-0.35-0.35-0.65-0.59-0.9c-0.25-0.25-0.55-0.45-0.89-0.59c-0.34-0.14-0.74-0.21-1.2-0.21c-0.43,0-0.82,0.07-1.16,0.22
				c-0.34,0.15-0.63,0.35-0.88,0.6c-0.25,0.25-0.46,0.54-0.62,0.87c-0.17,0.33-0.3,0.68-0.41,1.05s-0.18,0.74-0.23,1.13
				c-0.05,0.38-0.07,0.75-0.07,1.11v1.69c0.01,0.36,0.04,0.74,0.09,1.12c0.06,0.39,0.14,0.76,0.26,1.13
				c0.12,0.37,0.27,0.72,0.45,1.05s0.41,0.62,0.67,0.87c0.26,0.25,0.56,0.45,0.9,0.6c0.34,0.15,0.73,0.23,1.17,0.23
				c0.25,0.01,0.51,0,0.79-0.03c0.27-0.03,0.54-0.08,0.79-0.16c0.26-0.08,0.5-0.19,0.72-0.32s0.41-0.31,0.56-0.53l0.02-3.23h-2.92
				v-1.54h4.66l0.03,5.28C472.95,182.15,472.71,182.39,472.46,182.6z"/>
			<path class="st3" d="M477.92,177.12v5.1h7.01v1.55h-8.83v-14.39h8.75v1.56h-6.92v4.62h6.01v1.55H477.92z"/>
			<path class="st3" d="M495.39,179.02c-0.2-0.3-0.46-0.56-0.78-0.77c-0.32-0.2-0.66-0.38-1.04-0.51c-0.38-0.14-0.74-0.26-1.09-0.38
				c-0.51-0.17-1.02-0.36-1.55-0.6c-0.52-0.23-1-0.52-1.43-0.84c-0.43-0.34-0.79-0.73-1.06-1.19s-0.41-1-0.41-1.62
				c0-0.62,0.14-1.17,0.41-1.66c0.27-0.49,0.63-0.9,1.07-1.24s0.94-0.59,1.5-0.77c0.56-0.17,1.12-0.26,1.69-0.26
				c0.63,0,1.23,0.1,1.81,0.31c0.58,0.21,1.09,0.5,1.54,0.87c0.45,0.38,0.81,0.83,1.08,1.36c0.27,0.53,0.41,1.13,0.42,1.79h-1.88
				c-0.05-0.42-0.16-0.79-0.31-1.13s-0.35-0.63-0.6-0.87s-0.55-0.43-0.89-0.57c-0.35-0.13-0.74-0.2-1.17-0.2
				c-0.35,0-0.69,0.05-1.02,0.15c-0.33,0.1-0.63,0.25-0.88,0.44c-0.26,0.2-0.47,0.44-0.63,0.73c-0.15,0.29-0.23,0.63-0.23,1.01
				c0.01,0.42,0.11,0.77,0.32,1.05s0.46,0.53,0.78,0.73c0.31,0.2,0.65,0.36,1.01,0.49s0.71,0.25,1.03,0.35
				c0.53,0.17,1.07,0.36,1.6,0.6c0.53,0.23,1.02,0.53,1.46,0.89c0.43,0.34,0.79,0.75,1.05,1.24c0.27,0.49,0.4,1.05,0.4,1.69
				c0,0.65-0.14,1.21-0.43,1.69c-0.29,0.48-0.66,0.88-1.11,1.2c-0.46,0.32-0.97,0.56-1.54,0.73c-0.57,0.16-1.15,0.24-1.72,0.24
				c-0.69,0-1.36-0.12-2.02-0.35c-0.66-0.23-1.24-0.56-1.72-1c-0.44-0.38-0.78-0.82-1.03-1.32s-0.39-1.07-0.41-1.69h1.87
				c0.06,0.45,0.18,0.85,0.37,1.19c0.18,0.35,0.42,0.64,0.71,0.87c0.29,0.24,0.62,0.43,1,0.55s0.79,0.18,1.24,0.18
				c0.36,0,0.71-0.04,1.05-0.13s0.65-0.23,0.92-0.42c0.27-0.18,0.49-0.42,0.66-0.71c0.17-0.29,0.26-0.63,0.26-1.02
				C495.69,179.69,495.59,179.32,495.39,179.02z"/>
			<path class="st3" d="M521.67,178.96c-0.08,0.52-0.21,1.03-0.38,1.52c-0.17,0.49-0.39,0.94-0.66,1.36
				c-0.27,0.42-0.58,0.79-0.95,1.11c-0.37,0.32-0.79,0.56-1.27,0.75s-1.01,0.27-1.61,0.27c-0.59,0-1.13-0.09-1.61-0.27
				s-0.9-0.43-1.27-0.75s-0.69-0.69-0.96-1.11s-0.49-0.88-0.66-1.37c-0.18-0.49-0.31-0.99-0.4-1.51c-0.08-0.52-0.13-1.04-0.14-1.55
				v-1.64c0.01-0.51,0.05-1.03,0.13-1.56c0.08-0.52,0.21-1.03,0.39-1.52c0.17-0.49,0.39-0.94,0.66-1.37
				c0.27-0.42,0.58-0.8,0.95-1.12c0.37-0.32,0.79-0.56,1.27-0.75s1.01-0.27,1.61-0.27c0.59,0,1.13,0.09,1.61,0.27
				c0.48,0.18,0.91,0.43,1.27,0.75s0.69,0.69,0.95,1.11s0.49,0.88,0.67,1.37c0.17,0.49,0.3,1,0.38,1.52
				c0.08,0.53,0.13,1.05,0.13,1.56v1.64C521.8,177.92,521.76,178.44,521.67,178.96z M519.93,174.67c-0.04-0.37-0.11-0.74-0.2-1.11
				c-0.1-0.36-0.23-0.71-0.39-1.04c-0.16-0.33-0.36-0.63-0.59-0.88c-0.24-0.25-0.52-0.45-0.84-0.6c-0.32-0.15-0.7-0.22-1.13-0.22
				c-0.42,0-0.79,0.08-1.12,0.23c-0.32,0.15-0.6,0.35-0.84,0.6c-0.24,0.26-0.44,0.55-0.59,0.88c-0.16,0.33-0.28,0.68-0.38,1.04
				c-0.1,0.37-0.17,0.74-0.21,1.11s-0.07,0.73-0.07,1.06v1.66c0.01,0.34,0.03,0.69,0.07,1.07c0.04,0.38,0.11,0.74,0.21,1.11
				c0.1,0.37,0.23,0.72,0.39,1.06s0.36,0.63,0.59,0.88c0.24,0.26,0.52,0.46,0.84,0.61c0.32,0.15,0.7,0.23,1.13,0.23
				c0.43,0,0.8-0.08,1.13-0.23c0.33-0.15,0.61-0.36,0.85-0.61c0.23-0.25,0.42-0.54,0.58-0.87c0.15-0.33,0.28-0.68,0.38-1.05
				c0.09-0.36,0.16-0.73,0.19-1.11c0.04-0.38,0.06-0.73,0.06-1.08v-1.66C519.99,175.4,519.97,175.05,519.93,174.67z"/>
			<path class="st3" d="M531.75,183.77l-5.58-10.75l-0.03,10.75h-1.85v-14.39h1.86l5.58,10.73l0.03-10.73h1.85v14.39H531.75z"/>
			<path class="st3" d="M554.14,170.94v12.83h-1.78v-12.83h-4.45v-1.56h10.67v1.56H554.14z"/>
			<path class="st3" d="M568.32,183.77v-6.65h-5.9v6.65h-1.72v-14.39h1.72v6.19h5.9v-6.19h1.73v14.39H568.32z"/>
			<path class="st3" d="M575.08,177.12v5.1h7.01v1.55h-8.83v-14.39H582v1.56h-6.92v4.62h6.01v1.55H575.08z"/>
			<path class="st3" d="M599.48,177.42v6.35h-1.85v-14.39h8.83v1.56h-6.99v4.92h5.99v1.55H599.48z"/>
			<path class="st3" d="M611.52,177.12v5.1h7.01v1.55h-8.83v-14.39h8.75v1.56h-6.92v4.62h6.01v1.55H611.52z"/>
			<path class="st3" d="M626.11,176.58l2.53-7.19h2.27v14.39h-1.78v-5.74l0.15-6.01l-2.66,7.75h-1.05l-2.44-7.54l0.15,5.8v5.74
				h-1.78v-14.39h2.26L626.11,176.58z"/>
			<path class="st3" d="M635.97,180.05l-1.16,3.73h-1.83l4.64-14.39h1.53l4.57,14.39h-1.82l-1.14-3.73H635.97z M640.29,178.45
				l-1.9-6.25l-1.93,6.25H640.29z"/>
			<path class="st3" d="M655.15,182.22v1.55h-8.86v-14.39h1.83v12.84H655.15z"/>
			<path class="st3" d="M660.1,177.12v5.1h7.01v1.55h-8.83v-14.39h8.75v1.56h-6.92v4.62h6.01v1.55H660.1z"/>
			<path class="st3" d="M684.48,183.77h-1.83v-14.39h4.66c0.65,0.01,1.26,0.12,1.83,0.31c0.58,0.19,1.08,0.47,1.52,0.83
				s0.78,0.81,1.03,1.34c0.25,0.53,0.38,1.15,0.38,1.84s-0.13,1.3-0.38,1.83c-0.25,0.53-0.6,0.98-1.03,1.34s-0.94,0.64-1.52,0.83
				c-0.58,0.19-1.19,0.29-1.83,0.3h-2.84V183.77z M687.32,176.5c0.42-0.01,0.81-0.07,1.17-0.2c0.36-0.13,0.67-0.31,0.93-0.55
				c0.26-0.24,0.47-0.52,0.62-0.86c0.15-0.34,0.22-0.73,0.22-1.16c0-0.43-0.07-0.83-0.22-1.18c-0.15-0.35-0.35-0.65-0.61-0.89
				c-0.26-0.24-0.58-0.43-0.93-0.56c-0.36-0.13-0.75-0.2-1.17-0.21h-2.84v5.61H687.32z"/>
			<path class="st3" d="M696.7,180.05l-1.16,3.73h-1.83l4.64-14.39h1.53l4.57,14.39h-1.82l-1.14-3.73H696.7z M701.02,178.45
				l-1.9-6.25l-1.93,6.25H701.02z"/>
			<path class="st3" d="M708.67,177.9v5.87h-1.82v-14.39h4.22c0.67,0.01,1.3,0.11,1.9,0.29s1.11,0.44,1.56,0.8
				c0.44,0.36,0.79,0.8,1.04,1.34c0.25,0.54,0.38,1.17,0.38,1.89c0,0.47-0.07,0.9-0.2,1.28c-0.14,0.39-0.32,0.74-0.56,1.06
				c-0.24,0.32-0.52,0.6-0.85,0.84c-0.33,0.24-0.69,0.45-1.09,0.62l3.05,6.15l-0.01,0.12h-1.93l-2.83-5.87H708.67z M711.12,176.4
				c0.41-0.01,0.79-0.07,1.16-0.19c0.36-0.12,0.68-0.3,0.96-0.53c0.27-0.23,0.48-0.51,0.64-0.85c0.16-0.33,0.24-0.72,0.24-1.15
				c0-0.46-0.08-0.86-0.23-1.21s-0.36-0.64-0.63-0.87c-0.27-0.23-0.59-0.41-0.96-0.52c-0.37-0.12-0.78-0.18-1.22-0.19h-2.4v5.51
				H711.12z"/>
			<path class="st3" d="M724.18,170.94v12.83h-1.78v-12.83h-4.45v-1.56h10.67v1.56H724.18z"/>
			<path class="st3" d="M738.23,183.77l-5.58-10.75l-0.03,10.75h-1.85v-14.39h1.86l5.58,10.73l0.03-10.73h1.85v14.39H738.23z"/>
			<path class="st3" d="M745.12,177.12v5.1h7.01v1.55h-8.83v-14.39h8.75v1.56h-6.92v4.62h6.01v1.55H745.12z"/>
			<path class="st3" d="M757.25,177.9v5.87h-1.82v-14.39h4.22c0.67,0.01,1.3,0.11,1.9,0.29s1.11,0.44,1.56,0.8
				c0.44,0.36,0.79,0.8,1.04,1.34c0.25,0.54,0.38,1.17,0.38,1.89c0,0.47-0.07,0.9-0.2,1.28c-0.14,0.39-0.32,0.74-0.56,1.06
				c-0.24,0.32-0.52,0.6-0.85,0.84c-0.33,0.24-0.69,0.45-1.09,0.62l3.05,6.15l-0.01,0.12h-1.93l-2.83-5.87H757.25z M759.7,176.4
				c0.41-0.01,0.79-0.07,1.16-0.19c0.36-0.12,0.68-0.3,0.96-0.53c0.27-0.23,0.48-0.51,0.64-0.85c0.16-0.33,0.24-0.72,0.24-1.15
				c0-0.46-0.08-0.86-0.23-1.21s-0.36-0.64-0.63-0.87c-0.27-0.23-0.59-0.41-0.96-0.52c-0.37-0.12-0.78-0.18-1.22-0.19h-2.4v5.51
				H759.7z"/>
			<path class="st3" d="M772.95,170.81c-0.08,0.34-0.19,0.68-0.33,1.01c-0.15,0.34-0.33,0.66-0.54,0.96
				c-0.21,0.3-0.45,0.57-0.73,0.81l-1-0.71c0.31-0.47,0.54-0.95,0.7-1.43c0.15-0.49,0.23-1.01,0.23-1.58v-1.48h1.79v1.45
				C773.06,170.14,773.02,170.46,772.95,170.81z"/>
			<path class="st3" d="M786.88,179.02c-0.2-0.3-0.46-0.56-0.78-0.77c-0.32-0.2-0.66-0.38-1.04-0.51c-0.38-0.14-0.74-0.26-1.09-0.38
				c-0.51-0.17-1.02-0.36-1.55-0.6c-0.52-0.23-1-0.52-1.43-0.84c-0.43-0.34-0.79-0.73-1.06-1.19s-0.41-1-0.41-1.62
				c0-0.62,0.14-1.17,0.41-1.66c0.27-0.49,0.63-0.9,1.07-1.24s0.94-0.59,1.5-0.77c0.56-0.17,1.12-0.26,1.69-0.26
				c0.63,0,1.23,0.1,1.81,0.31c0.58,0.21,1.09,0.5,1.54,0.87c0.45,0.38,0.81,0.83,1.08,1.36c0.27,0.53,0.41,1.13,0.42,1.79h-1.88
				c-0.05-0.42-0.16-0.79-0.31-1.13s-0.35-0.63-0.6-0.87s-0.55-0.43-0.89-0.57c-0.35-0.13-0.74-0.2-1.17-0.2
				c-0.35,0-0.69,0.05-1.02,0.15c-0.33,0.1-0.63,0.25-0.88,0.44c-0.26,0.2-0.47,0.44-0.63,0.73c-0.15,0.29-0.23,0.63-0.23,1.01
				c0.01,0.42,0.11,0.77,0.32,1.05s0.46,0.53,0.78,0.73c0.31,0.2,0.65,0.36,1.01,0.49s0.71,0.25,1.03,0.35
				c0.53,0.17,1.07,0.36,1.6,0.6c0.53,0.23,1.02,0.53,1.46,0.89c0.43,0.34,0.79,0.75,1.05,1.24c0.27,0.49,0.4,1.05,0.4,1.69
				c0,0.65-0.14,1.21-0.43,1.69c-0.29,0.48-0.66,0.88-1.11,1.2c-0.46,0.32-0.97,0.56-1.54,0.73c-0.57,0.16-1.15,0.24-1.72,0.24
				c-0.69,0-1.36-0.12-2.02-0.35c-0.66-0.23-1.24-0.56-1.72-1c-0.44-0.38-0.78-0.82-1.03-1.32s-0.39-1.07-0.41-1.69h1.87
				c0.06,0.45,0.18,0.85,0.37,1.19c0.18,0.35,0.42,0.64,0.71,0.87c0.29,0.24,0.62,0.43,1,0.55s0.79,0.18,1.24,0.18
				c0.36,0,0.71-0.04,1.05-0.13s0.65-0.23,0.92-0.42c0.27-0.18,0.49-0.42,0.66-0.71c0.17-0.29,0.26-0.63,0.26-1.02
				C787.18,179.69,787.08,179.32,786.88,179.02z"/>
			<path class="st3" d="M792.57,185.01l6.01-15.62h1.63l-6,15.62H792.57z"/>
			<path class="st3" d="M137.93,208.06h-1.83v-14.39h4.67c0.65,0.01,1.26,0.12,1.83,0.31c0.58,0.19,1.08,0.47,1.52,0.83
				c0.44,0.36,0.78,0.81,1.03,1.34c0.25,0.53,0.38,1.15,0.38,1.84c0,0.69-0.13,1.3-0.38,1.83c-0.25,0.53-0.6,0.98-1.03,1.34
				c-0.43,0.36-0.94,0.64-1.52,0.83c-0.58,0.19-1.19,0.29-1.83,0.3h-2.84V208.06z M140.76,200.79c0.42-0.01,0.81-0.07,1.17-0.2
				c0.36-0.13,0.67-0.31,0.93-0.55s0.47-0.53,0.62-0.86c0.15-0.34,0.22-0.73,0.22-1.16c0-0.43-0.07-0.83-0.22-1.18
				c-0.15-0.35-0.35-0.65-0.61-0.89c-0.26-0.24-0.58-0.43-0.93-0.56c-0.36-0.13-0.75-0.2-1.17-0.21h-2.84v5.61H140.76z"/>
			<path class="st3" d="M150.14,204.33l-1.16,3.73h-1.83l4.65-14.39h1.53l4.57,14.39h-1.82l-1.14-3.73H150.14z M154.46,202.74
				l-1.9-6.25l-1.93,6.25H154.46z"/>
			<path class="st3" d="M162.11,202.19v5.87h-1.82v-14.39h4.22c0.67,0.01,1.3,0.11,1.9,0.29c0.59,0.18,1.11,0.45,1.56,0.8
				c0.44,0.36,0.79,0.8,1.04,1.34s0.38,1.17,0.38,1.89c0,0.47-0.07,0.9-0.2,1.29s-0.32,0.74-0.56,1.06
				c-0.24,0.32-0.52,0.6-0.85,0.84c-0.33,0.24-0.69,0.45-1.09,0.62l3.05,6.15l-0.01,0.12h-1.93l-2.83-5.87H162.11z M164.56,200.69
				c0.41-0.01,0.79-0.07,1.16-0.19c0.36-0.12,0.68-0.3,0.96-0.53c0.27-0.23,0.48-0.51,0.64-0.84s0.24-0.72,0.24-1.15
				c0-0.46-0.08-0.87-0.23-1.21c-0.15-0.35-0.36-0.64-0.63-0.87c-0.27-0.23-0.59-0.41-0.96-0.52c-0.37-0.12-0.78-0.18-1.22-0.19
				h-2.4v5.51H164.56z"/>
			<path class="st3" d="M177.63,195.23v12.83h-1.78v-12.83h-4.45v-1.56h10.67v1.56H177.63z"/>
			<path class="st3" d="M191.67,208.06l-5.58-10.75l-0.03,10.75h-1.85v-14.39h1.86l5.58,10.73l0.03-10.73h1.85v14.39H191.67z"/>
			<path class="st3" d="M198.57,201.41v5.1h7.01v1.55h-8.83v-14.39h8.75v1.56h-6.92v4.62h6.01v1.55H198.57z"/>
			<path class="st3" d="M210.69,202.19v5.87h-1.82v-14.39h4.22c0.67,0.01,1.3,0.11,1.9,0.29c0.59,0.18,1.11,0.45,1.56,0.8
				c0.44,0.36,0.79,0.8,1.04,1.34s0.38,1.17,0.38,1.89c0,0.47-0.07,0.9-0.2,1.29s-0.32,0.74-0.56,1.06
				c-0.24,0.32-0.52,0.6-0.85,0.84c-0.33,0.24-0.69,0.45-1.09,0.62l3.05,6.15l-0.01,0.12h-1.93l-2.83-5.87H210.69z M213.14,200.69
				c0.41-0.01,0.79-0.07,1.16-0.19c0.36-0.12,0.68-0.3,0.96-0.53c0.27-0.23,0.48-0.51,0.64-0.84s0.24-0.72,0.24-1.15
				c0-0.46-0.08-0.87-0.23-1.21c-0.15-0.35-0.36-0.64-0.63-0.87c-0.27-0.23-0.59-0.41-0.96-0.52c-0.37-0.12-0.78-0.18-1.22-0.19
				h-2.4v5.51H213.14z"/>
			<path class="st3" d="M228.18,203.31c-0.2-0.3-0.46-0.56-0.78-0.77c-0.32-0.2-0.66-0.38-1.04-0.51s-0.74-0.26-1.09-0.38
				c-0.51-0.17-1.02-0.36-1.55-0.6c-0.52-0.23-1-0.52-1.43-0.84c-0.43-0.34-0.79-0.73-1.06-1.19s-0.41-1-0.41-1.62
				s0.14-1.17,0.41-1.66s0.63-0.9,1.07-1.24s0.94-0.59,1.5-0.77c0.56-0.17,1.12-0.26,1.69-0.26c0.63,0,1.23,0.1,1.81,0.31
				c0.58,0.21,1.09,0.5,1.54,0.88c0.45,0.38,0.81,0.83,1.08,1.36c0.27,0.53,0.41,1.13,0.43,1.79h-1.88
				c-0.05-0.42-0.16-0.79-0.31-1.13c-0.15-0.34-0.35-0.63-0.6-0.87c-0.25-0.24-0.55-0.43-0.89-0.57s-0.74-0.2-1.17-0.2
				c-0.35,0-0.69,0.05-1.02,0.15c-0.33,0.1-0.63,0.25-0.88,0.45c-0.26,0.2-0.47,0.44-0.63,0.73c-0.16,0.29-0.23,0.63-0.23,1.01
				c0.01,0.42,0.11,0.77,0.32,1.05c0.2,0.29,0.46,0.53,0.78,0.73c0.31,0.2,0.65,0.36,1.01,0.49c0.37,0.13,0.71,0.25,1.03,0.35
				c0.53,0.17,1.07,0.36,1.6,0.6c0.53,0.23,1.02,0.53,1.46,0.89c0.44,0.34,0.79,0.75,1.05,1.24c0.27,0.49,0.4,1.05,0.4,1.69
				c0,0.65-0.14,1.21-0.43,1.69c-0.29,0.48-0.66,0.88-1.11,1.2c-0.45,0.32-0.97,0.56-1.54,0.73c-0.57,0.16-1.15,0.24-1.72,0.24
				c-0.69,0-1.36-0.12-2.02-0.35c-0.66-0.23-1.24-0.56-1.72-1c-0.43-0.38-0.78-0.82-1.03-1.32c-0.25-0.5-0.39-1.07-0.41-1.68h1.87
				c0.06,0.45,0.18,0.84,0.37,1.19c0.18,0.35,0.42,0.64,0.71,0.88c0.29,0.24,0.62,0.43,1,0.55s0.79,0.18,1.24,0.18
				c0.36,0,0.71-0.04,1.05-0.13c0.35-0.09,0.65-0.23,0.92-0.42c0.27-0.18,0.49-0.42,0.66-0.71c0.17-0.29,0.26-0.63,0.26-1.02
				C228.48,203.98,228.38,203.61,228.18,203.31z"/>
			<path class="st3" d="M238.54,195.09c-0.08,0.34-0.19,0.68-0.33,1.01c-0.15,0.34-0.33,0.66-0.54,0.96s-0.46,0.57-0.73,0.81
				l-1-0.71c0.31-0.47,0.54-0.95,0.7-1.43c0.16-0.49,0.23-1.01,0.23-1.58v-1.48h1.79v1.45
				C238.65,194.42,238.61,194.75,238.54,195.09z"/>
			<path class="st3" d="M257.37,193.67h4.28c0.59,0.01,1.17,0.08,1.74,0.23c0.57,0.15,1.07,0.38,1.51,0.69s0.79,0.71,1.06,1.19
				c0.26,0.48,0.39,1.06,0.39,1.73c-0.01,0.38-0.07,0.72-0.18,1.03s-0.27,0.59-0.47,0.83c-0.2,0.25-0.43,0.46-0.68,0.63
				c-0.25,0.17-0.55,0.33-0.89,0.48v0.03c0.36,0.08,0.71,0.24,1.05,0.46c0.34,0.22,0.61,0.47,0.83,0.74c0.23,0.3,0.41,0.63,0.54,1
				c0.13,0.37,0.19,0.77,0.19,1.2c0.01,0.67-0.12,1.26-0.38,1.78c-0.26,0.51-0.62,0.94-1.06,1.28c-0.44,0.35-0.95,0.62-1.53,0.8
				c-0.58,0.18-1.17,0.28-1.78,0.29h-4.61V193.67z M261.76,199.81c0.34-0.01,0.68-0.06,1.01-0.16c0.33-0.1,0.62-0.25,0.88-0.45
				c0.26-0.19,0.46-0.43,0.62-0.71c0.16-0.28,0.24-0.61,0.24-0.99c0-0.4-0.08-0.74-0.23-1.03c-0.16-0.28-0.36-0.52-0.62-0.7
				c-0.26-0.18-0.57-0.31-0.9-0.4c-0.34-0.08-0.69-0.13-1.04-0.14h-2.5v4.58H261.76z M259.21,206.51h2.82
				c0.38-0.01,0.75-0.07,1.09-0.19c0.34-0.12,0.65-0.29,0.91-0.51c0.26-0.22,0.47-0.48,0.63-0.8s0.23-0.67,0.23-1.08
				c0.01-0.41-0.06-0.77-0.2-1.09s-0.34-0.59-0.59-0.81c-0.25-0.22-0.54-0.38-0.88-0.5c-0.34-0.12-0.7-0.18-1.09-0.2h-2.92V206.51z"
				/>
			<path class="st3" d="M271.42,202.19v5.87h-1.82v-14.39h4.22c0.67,0.01,1.3,0.11,1.9,0.29c0.59,0.18,1.11,0.45,1.56,0.8
				c0.44,0.36,0.79,0.8,1.04,1.34s0.38,1.17,0.38,1.89c0,0.47-0.07,0.9-0.2,1.29s-0.32,0.74-0.56,1.06
				c-0.24,0.32-0.52,0.6-0.85,0.84c-0.33,0.24-0.69,0.45-1.09,0.62l3.05,6.15l-0.01,0.12h-1.93l-2.83-5.87H271.42z M273.87,200.69
				c0.41-0.01,0.79-0.07,1.16-0.19c0.36-0.12,0.68-0.3,0.96-0.53c0.27-0.23,0.48-0.51,0.64-0.84s0.24-0.72,0.24-1.15
				c0-0.46-0.08-0.87-0.23-1.21c-0.15-0.35-0.36-0.64-0.63-0.87c-0.27-0.23-0.59-0.41-0.96-0.52c-0.37-0.12-0.78-0.18-1.22-0.19
				h-2.4v5.51H273.87z"/>
			<path class="st3" d="M283.59,201.41v5.1h7.01v1.55h-8.83v-14.39h8.75v1.56h-6.92v4.62h6.01v1.55H283.59z"/>
			<path class="st3" d="M295.89,204.33l-1.16,3.73h-1.83l4.65-14.39h1.53l4.57,14.39h-1.82l-1.14-3.73H295.89z M300.21,202.74
				l-1.9-6.25l-1.93,6.25H300.21z"/>
			<path class="st3" d="M313.2,203.31c-0.2-0.3-0.46-0.56-0.78-0.77c-0.32-0.2-0.66-0.38-1.04-0.51s-0.74-0.26-1.09-0.38
				c-0.51-0.17-1.02-0.36-1.55-0.6c-0.52-0.23-1-0.52-1.43-0.84c-0.43-0.34-0.79-0.73-1.06-1.19c-0.27-0.46-0.41-1-0.41-1.62
				s0.14-1.17,0.41-1.66c0.27-0.49,0.63-0.9,1.07-1.24c0.44-0.34,0.94-0.59,1.5-0.77c0.56-0.17,1.12-0.26,1.69-0.26
				c0.63,0,1.23,0.1,1.81,0.31c0.58,0.21,1.09,0.5,1.54,0.88c0.45,0.38,0.81,0.83,1.08,1.36c0.27,0.53,0.41,1.13,0.42,1.79h-1.88
				c-0.05-0.42-0.15-0.79-0.31-1.13c-0.15-0.34-0.35-0.63-0.6-0.87c-0.25-0.24-0.55-0.43-0.89-0.57c-0.35-0.13-0.74-0.2-1.17-0.2
				c-0.35,0-0.69,0.05-1.02,0.15c-0.33,0.1-0.63,0.25-0.88,0.45c-0.26,0.2-0.47,0.44-0.63,0.73c-0.15,0.29-0.23,0.63-0.23,1.01
				c0.01,0.42,0.11,0.77,0.32,1.05c0.21,0.29,0.46,0.53,0.78,0.73c0.31,0.2,0.65,0.36,1.01,0.49c0.37,0.13,0.71,0.25,1.03,0.35
				c0.53,0.17,1.07,0.36,1.6,0.6c0.53,0.23,1.02,0.53,1.46,0.89c0.43,0.34,0.79,0.75,1.05,1.24c0.27,0.49,0.4,1.05,0.4,1.69
				c0,0.65-0.14,1.21-0.43,1.69c-0.29,0.48-0.66,0.88-1.11,1.2c-0.46,0.32-0.97,0.56-1.54,0.73c-0.57,0.16-1.15,0.24-1.72,0.24
				c-0.68,0-1.36-0.12-2.02-0.35c-0.66-0.23-1.24-0.56-1.72-1c-0.43-0.38-0.78-0.82-1.03-1.32c-0.25-0.5-0.39-1.07-0.41-1.68h1.87
				c0.06,0.45,0.18,0.84,0.37,1.19c0.18,0.35,0.42,0.64,0.71,0.88c0.29,0.24,0.62,0.43,1,0.55s0.79,0.18,1.24,0.18
				c0.36,0,0.71-0.04,1.05-0.13s0.65-0.23,0.92-0.42c0.27-0.18,0.49-0.42,0.66-0.71c0.17-0.29,0.26-0.63,0.26-1.02
				C313.5,203.98,313.4,203.61,313.2,203.31z"/>
			<path class="st3" d="M323.38,195.23v12.83h-1.78v-12.83h-4.45v-1.56h10.67v1.56H323.38z"/>
			<path class="st3" d="M337.49,203.31c-0.2-0.3-0.46-0.56-0.78-0.77c-0.32-0.2-0.66-0.38-1.04-0.51s-0.74-0.26-1.09-0.38
				c-0.51-0.17-1.02-0.36-1.55-0.6c-0.52-0.23-1-0.52-1.43-0.84c-0.43-0.34-0.79-0.73-1.06-1.19s-0.41-1-0.41-1.62
				s0.14-1.17,0.41-1.66s0.63-0.9,1.07-1.24s0.94-0.59,1.5-0.77c0.56-0.17,1.12-0.26,1.69-0.26c0.63,0,1.23,0.1,1.81,0.31
				c0.58,0.21,1.09,0.5,1.54,0.88c0.45,0.38,0.81,0.83,1.08,1.36c0.27,0.53,0.41,1.13,0.43,1.79h-1.88
				c-0.05-0.42-0.16-0.79-0.31-1.13c-0.15-0.34-0.35-0.63-0.6-0.87c-0.25-0.24-0.55-0.43-0.89-0.57s-0.74-0.2-1.17-0.2
				c-0.35,0-0.69,0.05-1.02,0.15c-0.33,0.1-0.63,0.25-0.88,0.45c-0.26,0.2-0.47,0.44-0.63,0.73c-0.16,0.29-0.23,0.63-0.23,1.01
				c0.01,0.42,0.11,0.77,0.32,1.05c0.2,0.29,0.46,0.53,0.78,0.73c0.31,0.2,0.65,0.36,1.01,0.49c0.37,0.13,0.71,0.25,1.03,0.35
				c0.53,0.17,1.07,0.36,1.6,0.6c0.53,0.23,1.02,0.53,1.46,0.89c0.44,0.34,0.79,0.75,1.05,1.24c0.27,0.49,0.4,1.05,0.4,1.69
				c0,0.65-0.14,1.21-0.43,1.69c-0.29,0.48-0.66,0.88-1.11,1.2c-0.45,0.32-0.97,0.56-1.54,0.73c-0.57,0.16-1.15,0.24-1.72,0.24
				c-0.69,0-1.36-0.12-2.02-0.35c-0.66-0.23-1.24-0.56-1.72-1c-0.43-0.38-0.78-0.82-1.03-1.32c-0.25-0.5-0.39-1.07-0.41-1.68h1.87
				c0.06,0.45,0.18,0.84,0.37,1.19c0.18,0.35,0.42,0.64,0.71,0.88c0.29,0.24,0.62,0.43,1,0.55s0.79,0.18,1.24,0.18
				c0.36,0,0.71-0.04,1.05-0.13c0.35-0.09,0.65-0.23,0.92-0.42c0.27-0.18,0.49-0.42,0.66-0.71c0.17-0.29,0.26-0.63,0.26-1.02
				C337.79,203.98,337.69,203.61,337.49,203.31z"/>
			<path class="st3" d="M359.81,195.23v12.83h-1.78v-12.83h-4.45v-1.56h10.67v1.56H359.81z"/>
			<path class="st3" d="M375.93,203.25c-0.08,0.52-0.21,1.03-0.38,1.52c-0.17,0.49-0.39,0.94-0.66,1.36
				c-0.27,0.42-0.58,0.79-0.95,1.11s-0.79,0.57-1.27,0.75c-0.48,0.18-1.01,0.27-1.61,0.27s-1.13-0.09-1.61-0.27
				c-0.48-0.18-0.9-0.43-1.27-0.75s-0.69-0.69-0.96-1.11c-0.27-0.42-0.49-0.88-0.66-1.37c-0.18-0.49-0.31-0.99-0.39-1.51
				c-0.09-0.52-0.13-1.04-0.14-1.55v-1.64c0.01-0.51,0.05-1.03,0.13-1.56c0.08-0.52,0.21-1.03,0.39-1.52
				c0.17-0.49,0.39-0.94,0.66-1.37c0.27-0.42,0.58-0.8,0.95-1.12c0.37-0.32,0.79-0.57,1.27-0.75c0.48-0.18,1.01-0.27,1.61-0.27
				c0.59,0,1.13,0.09,1.61,0.27c0.48,0.18,0.91,0.43,1.28,0.75c0.37,0.32,0.69,0.69,0.95,1.11s0.49,0.88,0.67,1.37
				c0.17,0.49,0.3,1,0.38,1.52c0.08,0.53,0.13,1.05,0.13,1.56v1.64C376.05,202.21,376.01,202.73,375.93,203.25z M374.18,198.96
				c-0.04-0.37-0.11-0.74-0.2-1.11c-0.1-0.36-0.23-0.71-0.38-1.04s-0.36-0.63-0.59-0.88c-0.24-0.25-0.52-0.45-0.84-0.6
				c-0.32-0.15-0.7-0.22-1.13-0.22c-0.42,0-0.79,0.08-1.12,0.23c-0.32,0.15-0.6,0.35-0.84,0.6c-0.24,0.26-0.43,0.55-0.59,0.88
				s-0.28,0.68-0.38,1.04c-0.1,0.37-0.17,0.74-0.21,1.11c-0.04,0.37-0.07,0.73-0.07,1.06v1.66c0.01,0.34,0.03,0.69,0.07,1.07
				c0.04,0.38,0.11,0.75,0.21,1.11c0.1,0.37,0.23,0.72,0.39,1.06s0.36,0.63,0.59,0.88c0.24,0.26,0.52,0.46,0.84,0.61
				c0.32,0.15,0.7,0.23,1.13,0.23c0.43,0,0.81-0.08,1.13-0.23c0.33-0.15,0.61-0.36,0.84-0.61c0.23-0.25,0.42-0.54,0.58-0.88
				c0.15-0.33,0.28-0.68,0.38-1.05c0.09-0.36,0.16-0.73,0.19-1.11c0.04-0.38,0.06-0.73,0.06-1.08v-1.66
				C374.24,199.69,374.22,199.33,374.18,198.96z"/>
			<path class="st3" d="M396.25,195.23v12.83h-1.78v-12.83h-4.45v-1.56h10.67v1.56H396.25z"/>
			<path class="st3" d="M410.43,208.06v-6.65h-5.9v6.65h-1.72v-14.39h1.72v6.19h5.9v-6.19h1.73v14.39H410.43z"/>
			<path class="st3" d="M417.19,201.41v5.1h7.01v1.55h-8.83v-14.39h8.75v1.56h-6.92v4.62h6.01v1.55H417.19z"/>
			<path class="st3" d="M438.56,193.67h1.96l3.16,10.74l0.21,0.7l0.22-0.72l3.18-10.72h1.95l-4.54,14.39h-1.59L438.56,193.67z"/>
			<path class="st3" d="M460.42,193.67v1.59h-3.45v11.22h3.45v1.58h-8.7v-1.58h3.37v-11.22h-3.37v-1.59H460.42z"/>
			<path class="st3" d="M465.75,202.19v5.87h-1.82v-14.39h4.22c0.67,0.01,1.3,0.11,1.9,0.29s1.11,0.45,1.56,0.8
				c0.44,0.36,0.79,0.8,1.04,1.34c0.25,0.54,0.38,1.17,0.38,1.89c0,0.47-0.07,0.9-0.2,1.29c-0.14,0.39-0.32,0.74-0.56,1.06
				c-0.24,0.32-0.52,0.6-0.85,0.84c-0.33,0.24-0.69,0.45-1.09,0.62l3.05,6.15l-0.01,0.12h-1.93l-2.83-5.87H465.75z M468.2,200.69
				c0.41-0.01,0.79-0.07,1.16-0.19c0.36-0.12,0.68-0.3,0.96-0.53c0.27-0.23,0.48-0.51,0.64-0.84s0.24-0.72,0.24-1.15
				c0-0.46-0.08-0.87-0.23-1.21s-0.36-0.64-0.63-0.87c-0.27-0.23-0.59-0.41-0.96-0.52c-0.37-0.12-0.78-0.18-1.22-0.19h-2.4v5.51
				H468.2z"/>
			<path class="st3" d="M481.27,195.23v12.83h-1.78v-12.83h-4.45v-1.56h10.67v1.56H481.27z"/>
			<path class="st3" d="M497.21,203.41c0,0.67-0.12,1.3-0.36,1.89c-0.24,0.59-0.56,1.1-0.98,1.53c-0.42,0.44-0.91,0.79-1.48,1.04
				s-1.2,0.38-1.89,0.38c-0.7,0-1.33-0.13-1.91-0.38s-1.06-0.6-1.47-1.04c-0.41-0.44-0.73-0.95-0.96-1.54s-0.35-1.22-0.36-1.89
				l0.02-9.74h1.74l0.04,9.74c0.01,0.43,0.07,0.84,0.2,1.24c0.13,0.4,0.31,0.74,0.56,1.05c0.24,0.3,0.54,0.55,0.89,0.73
				c0.36,0.18,0.77,0.28,1.24,0.28c0.47,0,0.88-0.09,1.24-0.27c0.36-0.18,0.66-0.43,0.9-0.74c0.24-0.3,0.42-0.65,0.54-1.05
				s0.19-0.81,0.21-1.24l0.03-9.74h1.77L497.21,203.41z"/>
			<path class="st3" d="M502.37,204.33l-1.16,3.73h-1.83l4.64-14.39h1.53l4.57,14.39h-1.82l-1.14-3.73H502.37z M506.69,202.74
				l-1.9-6.25l-1.93,6.25H506.69z"/>
			<path class="st3" d="M521.55,206.51v1.55h-8.86v-14.39h1.83v12.84H521.55z"/>
			<path class="st3" d="M538.65,201.41v5.1h7.01v1.55h-8.83v-14.39h8.75v1.56h-6.92v4.62h6.01v1.55H538.65z"/>
			<path class="st3" d="M556.45,193.67h2.16l-4.18,7.13l4.28,7.25h-2.13l-3.18-5.75l-3.19,5.75h-2.17l4.29-7.25l-4.18-7.13h2.14
				l3.06,5.64L556.45,193.67z"/>
			<path class="st3" d="M569.84,205.56c-0.26,0.56-0.59,1.03-1,1.43c-0.42,0.4-0.9,0.71-1.47,0.93s-1.19,0.33-1.88,0.33
				c-0.59,0-1.13-0.08-1.62-0.25s-0.91-0.4-1.29-0.7c-0.38-0.3-0.71-0.65-0.98-1.05c-0.27-0.4-0.5-0.84-0.68-1.31
				c-0.18-0.47-0.32-0.97-0.41-1.49c-0.09-0.52-0.14-1.05-0.14-1.58v-2.01c0.01-0.53,0.05-1.06,0.14-1.58
				c0.09-0.52,0.23-1.02,0.41-1.49c0.18-0.47,0.4-0.91,0.68-1.32s0.6-0.76,0.98-1.05c0.38-0.3,0.8-0.53,1.28-0.7
				c0.48-0.17,1.02-0.25,1.62-0.25c0.72,0,1.36,0.11,1.93,0.33c0.57,0.22,1.05,0.53,1.46,0.93c0.41,0.41,0.74,0.9,0.98,1.46
				c0.25,0.57,0.41,1.19,0.49,1.88h-1.83c-0.06-0.43-0.16-0.84-0.31-1.21c-0.15-0.38-0.34-0.71-0.58-0.99
				c-0.24-0.28-0.54-0.51-0.89-0.67c-0.35-0.16-0.77-0.24-1.25-0.24c-0.43,0-0.82,0.07-1.15,0.21s-0.62,0.33-0.85,0.58
				c-0.24,0.24-0.45,0.53-0.61,0.85c-0.16,0.32-0.29,0.67-0.39,1.03c-0.1,0.36-0.17,0.73-0.21,1.11s-0.06,0.75-0.06,1.1v2.03
				c0,0.36,0.02,0.72,0.06,1.1s0.11,0.75,0.21,1.11c0.1,0.37,0.23,0.71,0.39,1.04c0.16,0.32,0.36,0.61,0.6,0.85
				c0.24,0.25,0.53,0.45,0.86,0.59c0.33,0.14,0.71,0.21,1.16,0.21c0.48,0,0.9-0.08,1.25-0.23s0.65-0.37,0.89-0.64
				c0.24-0.27,0.44-0.59,0.58-0.96c0.14-0.37,0.25-0.78,0.31-1.21h1.83C570.26,204.4,570.09,205.01,569.84,205.56z"/>
			<path class="st3" d="M582.28,206.51v1.55h-8.86v-14.39h1.83v12.84H582.28z"/>
			<path class="st3" d="M594.38,203.41c0,0.67-0.12,1.3-0.36,1.89c-0.24,0.59-0.56,1.1-0.98,1.53c-0.42,0.44-0.91,0.79-1.48,1.04
				s-1.2,0.38-1.89,0.38c-0.7,0-1.33-0.13-1.91-0.38s-1.06-0.6-1.47-1.04c-0.41-0.44-0.73-0.95-0.96-1.54s-0.35-1.22-0.36-1.89
				l0.02-9.74h1.74l0.04,9.74c0.01,0.43,0.07,0.84,0.2,1.24c0.13,0.4,0.31,0.74,0.56,1.05c0.24,0.3,0.54,0.55,0.89,0.73
				c0.36,0.18,0.77,0.28,1.24,0.28c0.47,0,0.88-0.09,1.24-0.27c0.36-0.18,0.66-0.43,0.9-0.74c0.24-0.3,0.42-0.65,0.54-1.05
				s0.19-0.81,0.21-1.24l0.03-9.74h1.77L594.38,203.41z"/>
			<path class="st3" d="M604.7,203.31c-0.2-0.3-0.46-0.56-0.78-0.77c-0.32-0.2-0.66-0.38-1.04-0.51s-0.74-0.26-1.09-0.38
				c-0.51-0.17-1.02-0.36-1.55-0.6c-0.52-0.23-1-0.52-1.43-0.84c-0.43-0.34-0.79-0.73-1.06-1.19s-0.41-1-0.41-1.62
				s0.14-1.17,0.41-1.66s0.63-0.9,1.07-1.24s0.94-0.59,1.5-0.77c0.56-0.17,1.12-0.26,1.69-0.26c0.63,0,1.23,0.1,1.81,0.31
				c0.58,0.21,1.09,0.5,1.54,0.88c0.45,0.38,0.81,0.83,1.08,1.36c0.27,0.53,0.41,1.13,0.42,1.79h-1.88
				c-0.05-0.42-0.16-0.79-0.31-1.13c-0.15-0.34-0.35-0.63-0.6-0.87c-0.25-0.24-0.55-0.43-0.89-0.57s-0.74-0.2-1.17-0.2
				c-0.35,0-0.69,0.05-1.02,0.15c-0.33,0.1-0.63,0.25-0.88,0.45c-0.26,0.2-0.47,0.44-0.63,0.73c-0.15,0.29-0.23,0.63-0.23,1.01
				c0.01,0.42,0.11,0.77,0.32,1.05c0.2,0.29,0.46,0.53,0.78,0.73c0.31,0.2,0.65,0.36,1.01,0.49s0.71,0.25,1.03,0.35
				c0.53,0.17,1.07,0.36,1.6,0.6c0.53,0.23,1.02,0.53,1.46,0.89c0.43,0.34,0.79,0.75,1.05,1.24c0.27,0.49,0.4,1.05,0.4,1.69
				c0,0.65-0.14,1.21-0.43,1.69c-0.29,0.48-0.66,0.88-1.11,1.2c-0.46,0.32-0.97,0.56-1.54,0.73c-0.57,0.16-1.15,0.24-1.72,0.24
				c-0.69,0-1.36-0.12-2.02-0.35c-0.66-0.23-1.24-0.56-1.72-1c-0.44-0.38-0.78-0.82-1.03-1.32s-0.39-1.07-0.41-1.68h1.87
				c0.06,0.45,0.18,0.84,0.37,1.19c0.18,0.35,0.42,0.64,0.71,0.88c0.29,0.24,0.62,0.43,1,0.55s0.79,0.18,1.24,0.18
				c0.36,0,0.71-0.04,1.05-0.13s0.65-0.23,0.92-0.42c0.27-0.18,0.49-0.42,0.66-0.71c0.17-0.29,0.26-0.63,0.26-1.02
				C605,203.98,604.9,203.61,604.7,203.31z"/>
			<path class="st3" d="M618.31,193.67v1.59h-3.45v11.22h3.45v1.58h-8.7v-1.58h3.37v-11.22h-3.37v-1.59H618.31z"/>
			<path class="st3" d="M630.99,203.25c-0.08,0.52-0.21,1.03-0.38,1.52c-0.17,0.49-0.39,0.94-0.66,1.36s-0.58,0.79-0.95,1.11
				c-0.37,0.32-0.79,0.57-1.27,0.75c-0.48,0.18-1.01,0.27-1.61,0.27c-0.59,0-1.13-0.09-1.61-0.27c-0.48-0.18-0.9-0.43-1.27-0.75
				s-0.69-0.69-0.96-1.11s-0.49-0.88-0.66-1.37c-0.18-0.49-0.31-0.99-0.4-1.51c-0.08-0.52-0.13-1.04-0.14-1.55v-1.64
				c0.01-0.51,0.05-1.03,0.13-1.56c0.08-0.52,0.21-1.03,0.39-1.52c0.17-0.49,0.39-0.94,0.66-1.37c0.27-0.42,0.58-0.8,0.95-1.12
				c0.37-0.32,0.79-0.57,1.27-0.75c0.48-0.18,1.01-0.27,1.61-0.27c0.59,0,1.13,0.09,1.61,0.27c0.48,0.18,0.91,0.43,1.27,0.75
				s0.69,0.69,0.95,1.11s0.49,0.88,0.67,1.37c0.17,0.49,0.3,1,0.38,1.52c0.08,0.53,0.13,1.05,0.13,1.56v1.64
				C631.11,202.21,631.07,202.73,630.99,203.25z M629.24,198.96c-0.04-0.37-0.11-0.74-0.2-1.11c-0.1-0.36-0.23-0.71-0.39-1.04
				c-0.16-0.33-0.36-0.63-0.59-0.88c-0.24-0.25-0.52-0.45-0.84-0.6s-0.7-0.22-1.13-0.22c-0.42,0-0.79,0.08-1.12,0.23
				c-0.32,0.15-0.6,0.35-0.84,0.6c-0.24,0.26-0.44,0.55-0.59,0.88c-0.16,0.33-0.28,0.68-0.38,1.04c-0.1,0.37-0.17,0.74-0.21,1.11
				s-0.07,0.73-0.07,1.06v1.66c0.01,0.34,0.03,0.69,0.07,1.07s0.11,0.75,0.21,1.11c0.1,0.37,0.23,0.72,0.39,1.06
				s0.36,0.63,0.59,0.88c0.24,0.26,0.52,0.46,0.84,0.61c0.32,0.15,0.7,0.23,1.13,0.23c0.43,0,0.8-0.08,1.13-0.23
				c0.33-0.15,0.61-0.36,0.85-0.61c0.23-0.25,0.42-0.54,0.58-0.88c0.15-0.33,0.28-0.68,0.38-1.05c0.09-0.36,0.16-0.73,0.19-1.11
				c0.04-0.38,0.06-0.73,0.06-1.08v-1.66C629.3,199.69,629.28,199.33,629.24,198.96z"/>
			<path class="st3" d="M641.06,208.06l-5.58-10.75l-0.03,10.75h-1.85v-14.39h1.86l5.58,10.73l0.03-10.73h1.85v14.39H641.06z"/>
			<path class="st3" d="M667.42,203.25c-0.08,0.52-0.21,1.03-0.38,1.52c-0.17,0.49-0.39,0.94-0.66,1.36s-0.58,0.79-0.95,1.11
				c-0.37,0.32-0.79,0.57-1.27,0.75c-0.48,0.18-1.01,0.27-1.61,0.27c-0.59,0-1.13-0.09-1.61-0.27c-0.48-0.18-0.9-0.43-1.27-0.75
				s-0.69-0.69-0.96-1.11s-0.49-0.88-0.66-1.37c-0.18-0.49-0.31-0.99-0.4-1.51c-0.08-0.52-0.13-1.04-0.14-1.55v-1.64
				c0.01-0.51,0.05-1.03,0.13-1.56c0.08-0.52,0.21-1.03,0.39-1.52c0.17-0.49,0.39-0.94,0.66-1.37c0.27-0.42,0.58-0.8,0.95-1.12
				c0.37-0.32,0.79-0.57,1.27-0.75c0.48-0.18,1.01-0.27,1.61-0.27c0.59,0,1.13,0.09,1.61,0.27c0.48,0.18,0.91,0.43,1.27,0.75
				s0.69,0.69,0.95,1.11s0.49,0.88,0.67,1.37c0.17,0.49,0.3,1,0.38,1.52c0.08,0.53,0.13,1.05,0.13,1.56v1.64
				C667.55,202.21,667.5,202.73,667.42,203.25z M665.68,198.96c-0.04-0.37-0.11-0.74-0.2-1.11c-0.1-0.36-0.23-0.71-0.39-1.04
				c-0.16-0.33-0.36-0.63-0.59-0.88c-0.24-0.25-0.52-0.45-0.84-0.6s-0.7-0.22-1.13-0.22c-0.42,0-0.79,0.08-1.12,0.23
				c-0.32,0.15-0.6,0.35-0.84,0.6c-0.24,0.26-0.44,0.55-0.59,0.88c-0.16,0.33-0.28,0.68-0.38,1.04c-0.1,0.37-0.17,0.74-0.21,1.11
				s-0.07,0.73-0.07,1.06v1.66c0.01,0.34,0.03,0.69,0.07,1.07s0.11,0.75,0.21,1.11c0.1,0.37,0.23,0.72,0.39,1.06
				s0.36,0.63,0.59,0.88c0.24,0.26,0.52,0.46,0.84,0.61c0.32,0.15,0.7,0.23,1.13,0.23c0.43,0,0.8-0.08,1.13-0.23
				c0.33-0.15,0.61-0.36,0.85-0.61c0.23-0.25,0.42-0.54,0.58-0.88c0.15-0.33,0.28-0.68,0.38-1.05c0.09-0.36,0.16-0.73,0.19-1.11
				c0.04-0.38,0.06-0.73,0.06-1.08v-1.66C665.74,199.69,665.72,199.33,665.68,198.96z"/>
			<path class="st3" d="M672.36,201.7v6.35h-1.85v-14.39h8.83v1.56h-6.99v4.92h5.99v1.55H672.36z"/>
			<path class="st3" d="M703.86,203.25c-0.08,0.52-0.21,1.03-0.38,1.52c-0.17,0.49-0.39,0.94-0.66,1.36s-0.58,0.79-0.95,1.11
				c-0.37,0.32-0.79,0.57-1.27,0.75c-0.48,0.18-1.01,0.27-1.61,0.27c-0.59,0-1.13-0.09-1.61-0.27c-0.48-0.18-0.9-0.43-1.27-0.75
				s-0.69-0.69-0.96-1.11s-0.49-0.88-0.66-1.37c-0.18-0.49-0.31-0.99-0.4-1.51c-0.08-0.52-0.13-1.04-0.14-1.55v-1.64
				c0.01-0.51,0.05-1.03,0.13-1.56c0.08-0.52,0.21-1.03,0.39-1.52c0.17-0.49,0.39-0.94,0.66-1.37c0.27-0.42,0.58-0.8,0.95-1.12
				c0.37-0.32,0.79-0.57,1.27-0.75c0.48-0.18,1.01-0.27,1.61-0.27c0.59,0,1.13,0.09,1.61,0.27c0.48,0.18,0.91,0.43,1.27,0.75
				s0.69,0.69,0.95,1.11s0.49,0.88,0.67,1.37c0.17,0.49,0.3,1,0.38,1.52c0.08,0.53,0.13,1.05,0.13,1.56v1.64
				C703.99,202.21,703.94,202.73,703.86,203.25z M702.12,198.96c-0.04-0.37-0.11-0.74-0.2-1.11c-0.1-0.36-0.23-0.71-0.39-1.04
				c-0.16-0.33-0.36-0.63-0.59-0.88c-0.24-0.25-0.52-0.45-0.84-0.6s-0.7-0.22-1.13-0.22c-0.42,0-0.79,0.08-1.12,0.23
				c-0.32,0.15-0.6,0.35-0.84,0.6c-0.24,0.26-0.44,0.55-0.59,0.88c-0.16,0.33-0.28,0.68-0.38,1.04c-0.1,0.37-0.17,0.74-0.21,1.11
				s-0.07,0.73-0.07,1.06v1.66c0.01,0.34,0.03,0.69,0.07,1.07s0.11,0.75,0.21,1.11c0.1,0.37,0.23,0.72,0.39,1.06
				s0.36,0.63,0.59,0.88c0.24,0.26,0.52,0.46,0.84,0.61c0.32,0.15,0.7,0.23,1.13,0.23c0.43,0,0.8-0.08,1.13-0.23
				c0.33-0.15,0.61-0.36,0.85-0.61c0.23-0.25,0.42-0.54,0.58-0.88c0.15-0.33,0.28-0.68,0.38-1.05c0.09-0.36,0.16-0.73,0.19-1.11
				c0.04-0.38,0.06-0.73,0.06-1.08v-1.66C702.18,199.69,702.16,199.33,702.12,198.96z"/>
			<path class="st3" d="M712.04,195.23v12.83h-1.78v-12.83h-4.45v-1.56h10.67v1.56H712.04z"/>
			<path class="st3" d="M726.22,208.06v-6.65h-5.9v6.65h-1.72v-14.39h1.72v6.19h5.9v-6.19h1.73v14.39H726.22z"/>
			<path class="st3" d="M732.98,201.41v5.1h7.01v1.55h-8.83v-14.39h8.75v1.56h-6.92v4.62h6.01v1.55H732.98z"/>
			<path class="st3" d="M745.1,202.19v5.87h-1.82v-14.39h4.22c0.67,0.01,1.3,0.11,1.9,0.29s1.11,0.45,1.56,0.8
				c0.44,0.36,0.79,0.8,1.04,1.34c0.25,0.54,0.38,1.17,0.38,1.89c0,0.47-0.07,0.9-0.2,1.29c-0.14,0.39-0.32,0.74-0.56,1.06
				c-0.24,0.32-0.52,0.6-0.85,0.84c-0.33,0.24-0.69,0.45-1.09,0.62l3.05,6.15l-0.01,0.12h-1.93l-2.83-5.87H745.1z M747.55,200.69
				c0.41-0.01,0.79-0.07,1.16-0.19c0.36-0.12,0.68-0.3,0.96-0.53c0.27-0.23,0.48-0.51,0.64-0.84s0.24-0.72,0.24-1.15
				c0-0.46-0.08-0.87-0.23-1.21s-0.36-0.64-0.63-0.87c-0.27-0.23-0.59-0.41-0.96-0.52c-0.37-0.12-0.78-0.18-1.22-0.19h-2.4v5.51
				H747.55z"/>
			<path class="st3" d="M137.93,232.35h-1.83v-14.39h4.67c0.65,0.01,1.26,0.12,1.83,0.31c0.58,0.19,1.08,0.47,1.52,0.83
				c0.44,0.36,0.78,0.81,1.03,1.34c0.25,0.53,0.38,1.15,0.38,1.84s-0.13,1.3-0.38,1.83c-0.25,0.53-0.6,0.98-1.03,1.34
				c-0.43,0.36-0.94,0.64-1.52,0.83c-0.58,0.19-1.19,0.29-1.83,0.3h-2.84V232.35z M140.76,225.07c0.42-0.01,0.81-0.07,1.17-0.2
				c0.36-0.13,0.67-0.31,0.93-0.55s0.47-0.53,0.62-0.87c0.15-0.34,0.22-0.73,0.22-1.16s-0.07-0.83-0.22-1.18
				c-0.15-0.35-0.35-0.65-0.61-0.89c-0.26-0.24-0.58-0.43-0.93-0.56c-0.36-0.13-0.75-0.2-1.17-0.21h-2.84v5.61H140.76z"/>
			<path class="st3" d="M155.37,232.35v-6.65h-5.9v6.65h-1.72v-14.39h1.72v6.19h5.9v-6.19h1.73v14.39H155.37z"/>
			<path class="st3" d="M167.74,217.96h2.08l-4.48,9.02l-0.03,5.37h-1.7l-0.03-5.37l-4.48-9.02h2.08l3.27,7.22L167.74,217.96z"/>
			<path class="st3" d="M179.6,227.59c-0.2-0.3-0.46-0.56-0.78-0.77c-0.32-0.2-0.66-0.38-1.04-0.51c-0.38-0.14-0.74-0.26-1.09-0.38
				c-0.51-0.16-1.02-0.36-1.55-0.6c-0.52-0.23-1-0.52-1.43-0.84c-0.43-0.34-0.79-0.73-1.06-1.19c-0.27-0.46-0.41-1-0.41-1.62
				s0.14-1.17,0.41-1.66c0.27-0.49,0.63-0.9,1.07-1.24s0.94-0.59,1.5-0.77c0.56-0.17,1.12-0.26,1.69-0.26c0.63,0,1.23,0.1,1.81,0.31
				c0.58,0.21,1.09,0.5,1.54,0.88c0.45,0.38,0.81,0.83,1.08,1.36c0.27,0.53,0.41,1.13,0.43,1.79h-1.88
				c-0.05-0.42-0.16-0.79-0.31-1.13c-0.15-0.34-0.35-0.63-0.6-0.88c-0.25-0.24-0.55-0.43-0.89-0.57c-0.35-0.14-0.74-0.2-1.17-0.2
				c-0.35,0-0.69,0.05-1.02,0.15c-0.33,0.1-0.63,0.25-0.88,0.44c-0.26,0.2-0.47,0.44-0.63,0.73c-0.16,0.29-0.23,0.63-0.23,1.01
				c0.01,0.42,0.11,0.77,0.32,1.05c0.2,0.29,0.46,0.53,0.78,0.73c0.31,0.2,0.65,0.36,1.01,0.49c0.37,0.13,0.71,0.25,1.03,0.35
				c0.53,0.17,1.07,0.36,1.6,0.6c0.53,0.23,1.02,0.53,1.46,0.89c0.44,0.34,0.79,0.75,1.05,1.24c0.27,0.49,0.4,1.05,0.4,1.69
				c0,0.65-0.14,1.21-0.43,1.69c-0.29,0.48-0.66,0.88-1.11,1.2c-0.45,0.32-0.97,0.56-1.54,0.73c-0.57,0.16-1.15,0.24-1.72,0.24
				c-0.69,0-1.36-0.12-2.02-0.35s-1.24-0.56-1.72-1c-0.43-0.38-0.78-0.82-1.03-1.32c-0.25-0.5-0.39-1.07-0.41-1.68h1.87
				c0.06,0.45,0.18,0.84,0.37,1.19s0.42,0.64,0.71,0.88c0.29,0.24,0.62,0.43,1,0.55c0.38,0.12,0.79,0.18,1.24,0.18
				c0.36,0,0.71-0.04,1.05-0.13c0.35-0.09,0.65-0.23,0.92-0.42c0.27-0.18,0.49-0.42,0.66-0.71c0.17-0.29,0.26-0.63,0.26-1.02
				C179.9,228.27,179.8,227.9,179.6,227.59z"/>
			<path class="st3" d="M193.21,217.96v1.59h-3.45v11.22h3.45v1.58h-8.7v-1.58h3.37v-11.22h-3.37v-1.59H193.21z"/>
			<path class="st3" d="M205.47,229.85c-0.26,0.56-0.59,1.03-1,1.43c-0.42,0.4-0.9,0.71-1.47,0.93s-1.19,0.33-1.88,0.33
				c-0.59,0-1.13-0.08-1.62-0.25c-0.48-0.17-0.92-0.4-1.29-0.7c-0.38-0.3-0.71-0.65-0.98-1.05c-0.27-0.4-0.5-0.84-0.68-1.31
				c-0.18-0.47-0.32-0.97-0.41-1.49s-0.14-1.05-0.14-1.58v-2.01c0.01-0.53,0.05-1.06,0.14-1.58s0.23-1.02,0.41-1.49
				c0.18-0.47,0.4-0.91,0.68-1.32c0.27-0.4,0.6-0.76,0.98-1.05c0.38-0.3,0.8-0.53,1.28-0.7c0.48-0.17,1.02-0.25,1.62-0.25
				c0.72,0,1.36,0.11,1.93,0.33c0.57,0.22,1.05,0.53,1.46,0.93c0.41,0.41,0.74,0.9,0.98,1.46c0.25,0.57,0.41,1.19,0.49,1.88h-1.83
				c-0.06-0.43-0.16-0.84-0.31-1.22c-0.14-0.38-0.34-0.71-0.58-0.99s-0.54-0.5-0.89-0.67c-0.35-0.16-0.77-0.24-1.25-0.24
				c-0.43,0-0.82,0.07-1.15,0.21s-0.62,0.33-0.85,0.58c-0.24,0.24-0.45,0.53-0.61,0.85c-0.16,0.32-0.29,0.67-0.39,1.03
				s-0.17,0.73-0.21,1.11s-0.06,0.75-0.06,1.1v2.03c0,0.36,0.02,0.72,0.06,1.1s0.11,0.75,0.21,1.11c0.1,0.37,0.23,0.71,0.38,1.04
				c0.16,0.32,0.36,0.61,0.6,0.85c0.24,0.25,0.53,0.45,0.86,0.59s0.71,0.21,1.16,0.21c0.48,0,0.9-0.08,1.25-0.23
				s0.65-0.37,0.89-0.64c0.24-0.27,0.44-0.59,0.58-0.96s0.25-0.78,0.31-1.21h1.83C205.89,228.68,205.72,229.29,205.47,229.85z"/>
			<path class="st3" d="M210.87,228.62l-1.16,3.73h-1.83l4.65-14.39h1.53l4.57,14.39h-1.82l-1.14-3.73H210.87z M215.19,227.03
				l-1.9-6.25l-1.93,6.25H215.19z"/>
			<path class="st3" d="M230.05,230.79v1.55h-8.87v-14.39h1.83v12.84H230.05z"/>
			<path class="st3" d="M247.26,225.99v6.35h-1.85v-14.39h8.83v1.56h-6.99v4.92h5.99v1.55H247.26z"/>
			<path class="st3" d="M259.3,225.69v5.1h7.01v1.55h-8.83v-14.39h8.75v1.56h-6.92v4.62h6.01v1.55H259.3z"/>
			<path class="st3" d="M271.6,228.62l-1.16,3.73h-1.83l4.65-14.39h1.53l4.57,14.39h-1.82l-1.14-3.73H271.6z M275.92,227.03
				l-1.9-6.25l-1.93,6.25H275.92z"/>
			<path class="st3" d="M286.94,219.52v12.83h-1.78v-12.83h-4.45v-1.56h10.67v1.56H286.94z"/>
			<path class="st3" d="M302.88,227.7c0,0.67-0.12,1.3-0.36,1.89c-0.24,0.59-0.56,1.1-0.98,1.53c-0.42,0.44-0.91,0.79-1.48,1.04
				c-0.57,0.25-1.2,0.38-1.89,0.38c-0.7,0-1.33-0.12-1.91-0.38s-1.06-0.6-1.47-1.04c-0.41-0.43-0.73-0.95-0.96-1.54
				c-0.23-0.59-0.35-1.22-0.36-1.89l0.02-9.74h1.74l0.04,9.74c0.01,0.43,0.07,0.84,0.2,1.24c0.13,0.39,0.31,0.74,0.56,1.05
				c0.24,0.3,0.54,0.55,0.89,0.73s0.77,0.28,1.24,0.28s0.88-0.09,1.24-0.27c0.36-0.18,0.66-0.43,0.9-0.74
				c0.24-0.3,0.42-0.65,0.54-1.05c0.12-0.4,0.19-0.81,0.21-1.24l0.03-9.74h1.77L302.88,227.7z"/>
			<path class="st3" d="M307.86,226.48v5.87h-1.82v-14.39h4.22c0.67,0.01,1.3,0.11,1.9,0.29s1.11,0.44,1.56,0.8
				c0.44,0.36,0.79,0.8,1.04,1.34c0.25,0.54,0.38,1.17,0.38,1.89c0,0.47-0.07,0.9-0.2,1.29c-0.14,0.39-0.32,0.74-0.56,1.06
				s-0.52,0.6-0.85,0.84c-0.33,0.24-0.69,0.45-1.09,0.62l3.05,6.15l-0.01,0.12h-1.93l-2.83-5.87H307.86z M310.31,224.97
				c0.41-0.01,0.79-0.07,1.16-0.19c0.36-0.12,0.68-0.3,0.96-0.53c0.27-0.23,0.48-0.51,0.64-0.84c0.16-0.33,0.24-0.72,0.24-1.15
				c0-0.46-0.08-0.87-0.23-1.21s-0.36-0.64-0.63-0.88c-0.27-0.23-0.59-0.4-0.96-0.52c-0.37-0.12-0.78-0.18-1.22-0.19h-2.4v5.51
				H310.31z"/>
			<path class="st3" d="M320.02,225.69v5.1h7.01v1.55h-8.83v-14.39h8.75v1.56h-6.92v4.62h6.01v1.55H320.02z"/>
			<path class="st3" d="M337.49,227.59c-0.2-0.3-0.46-0.56-0.78-0.77c-0.32-0.2-0.66-0.38-1.04-0.51c-0.38-0.14-0.74-0.26-1.09-0.38
				c-0.51-0.16-1.02-0.36-1.55-0.6c-0.52-0.23-1-0.52-1.43-0.84c-0.43-0.34-0.79-0.73-1.06-1.19c-0.27-0.46-0.41-1-0.41-1.62
				s0.14-1.17,0.41-1.66c0.27-0.49,0.63-0.9,1.07-1.24s0.94-0.59,1.5-0.77c0.56-0.17,1.12-0.26,1.69-0.26c0.63,0,1.23,0.1,1.81,0.31
				c0.58,0.21,1.09,0.5,1.54,0.88c0.45,0.38,0.81,0.83,1.08,1.36c0.27,0.53,0.41,1.13,0.43,1.79h-1.88
				c-0.05-0.42-0.16-0.79-0.31-1.13c-0.15-0.34-0.35-0.63-0.6-0.88c-0.25-0.24-0.55-0.43-0.89-0.57c-0.35-0.14-0.74-0.2-1.17-0.2
				c-0.35,0-0.69,0.05-1.02,0.15c-0.33,0.1-0.63,0.25-0.88,0.44c-0.26,0.2-0.47,0.44-0.63,0.73c-0.16,0.29-0.23,0.63-0.23,1.01
				c0.01,0.42,0.11,0.77,0.32,1.05c0.2,0.29,0.46,0.53,0.78,0.73c0.31,0.2,0.65,0.36,1.01,0.49c0.37,0.13,0.71,0.25,1.03,0.35
				c0.53,0.17,1.07,0.36,1.6,0.6c0.53,0.23,1.02,0.53,1.46,0.89c0.44,0.34,0.79,0.75,1.05,1.24c0.27,0.49,0.4,1.05,0.4,1.69
				c0,0.65-0.14,1.21-0.43,1.69c-0.29,0.48-0.66,0.88-1.11,1.2c-0.45,0.32-0.97,0.56-1.54,0.73c-0.57,0.16-1.15,0.24-1.72,0.24
				c-0.69,0-1.36-0.12-2.02-0.35s-1.24-0.56-1.72-1c-0.43-0.38-0.78-0.82-1.03-1.32c-0.25-0.5-0.39-1.07-0.41-1.68h1.87
				c0.06,0.45,0.18,0.84,0.37,1.19s0.42,0.64,0.71,0.88c0.29,0.24,0.62,0.43,1,0.55c0.38,0.12,0.79,0.18,1.24,0.18
				c0.36,0,0.71-0.04,1.05-0.13c0.35-0.09,0.65-0.23,0.92-0.42c0.27-0.18,0.49-0.42,0.66-0.71c0.17-0.29,0.26-0.63,0.26-1.02
				C337.79,228.27,337.69,227.9,337.49,227.59z"/>
			<path class="st3" d="M345.95,230.16c0.24-0.28,0.6-0.42,1.08-0.42c0.47,0,0.83,0.14,1.08,0.41c0.25,0.27,0.37,0.61,0.37,1
				c0,0.39-0.12,0.71-0.38,0.98c-0.25,0.26-0.61,0.4-1.08,0.4c-0.47,0-0.83-0.13-1.07-0.4c-0.24-0.27-0.36-0.59-0.36-0.97
				C345.59,230.77,345.71,230.44,345.95,230.16z"/>
		</g>
	</g>
</g>
</svg>
