<?xml version="1.0" encoding="utf-8"?>
<!-- Generator: Adobe Illustrator 28.2.0, SVG Export Plug-In . SVG Version: 6.00 Build 0)  -->
<svg version="1.1" id="Layer_1" xmlns="http://www.w3.org/2000/svg" xmlns:xlink="http://www.w3.org/1999/xlink" x="0px" y="0px"
	 viewBox="0 0 900 380" style="enable-background:new 0 0 900 380;" xml:space="preserve">
<style type="text/css">
	.st0{fill:#FF1A56;}
	.st1{font-family:'SuisseWorks-RegularItalic_LD-V1Regular';}
	.st2{font-size:122.6165px;}
	.st3{fill:#1717E2;}
</style>
<g>
	<text transform="matrix(1 0 0 1 17.17 223.8116)" class="st0 st1 st2">Maschalagnia.</text>
</g>
<g>
	<g>
		<g>
			<path class="st3" d="M54.24,92.79l-3.33-13.62l-2.37,13.62h-3.96L48.2,71.9h3.89l3.29,13.56l2.38-13.56h3.95l-3.63,20.89H54.24z"
				/>
			<path class="st3" d="M77.13,86.17c-0.24,0.77-0.54,1.49-0.9,2.18c-0.37,0.69-0.81,1.33-1.3,1.92s-1.05,1.09-1.67,1.51
				s-1.31,0.75-2.05,0.98c-0.75,0.23-1.56,0.33-2.44,0.32c-0.83-0.02-1.57-0.16-2.22-0.42c-0.65-0.26-1.2-0.62-1.67-1.07
				c-0.48-0.44-0.87-0.95-1.18-1.54s-0.54-1.22-0.7-1.9c-0.16-0.67-0.26-1.37-0.29-2.1c-0.03-0.73,0-1.45,0.1-2.17l0.47-3.04
				c0.11-0.77,0.29-1.53,0.52-2.29c0.23-0.76,0.53-1.49,0.88-2.17c0.34-0.69,0.76-1.33,1.23-1.92c0.48-0.59,1.02-1.1,1.62-1.54
				c0.6-0.42,1.27-0.75,2.01-0.98c0.74-0.23,1.54-0.34,2.41-0.32c0.84,0.02,1.59,0.16,2.25,0.42c0.65,0.26,1.23,0.61,1.73,1.05
				c0.49,0.45,0.89,0.97,1.22,1.56s0.58,1.22,0.76,1.89c0.17,0.68,0.28,1.39,0.32,2.12c0.04,0.74,0.01,1.47-0.09,2.2l-0.47,3.03
				C77.55,84.64,77.37,85.41,77.13,86.17z M74.28,79.63c0.03-0.42,0.03-0.85,0.01-1.28c-0.03-0.42-0.09-0.83-0.19-1.23
				s-0.24-0.76-0.44-1.08c-0.2-0.32-0.46-0.57-0.79-0.77c-0.33-0.2-0.73-0.31-1.22-0.33c-0.53-0.02-0.99,0.06-1.39,0.22
				c-0.4,0.17-0.75,0.4-1.05,0.7c-0.31,0.31-0.57,0.66-0.79,1.06s-0.4,0.82-0.55,1.26c-0.15,0.44-0.28,0.89-0.37,1.34
				c-0.1,0.45-0.17,0.89-0.23,1.3l-0.47,3.08c-0.05,0.33-0.09,0.71-0.12,1.12c-0.03,0.41-0.05,0.83-0.04,1.26
				c0,0.43,0.04,0.85,0.11,1.26s0.21,0.78,0.39,1.1c0.18,0.33,0.43,0.59,0.74,0.8s0.71,0.32,1.2,0.34c0.52,0.02,0.98-0.05,1.39-0.22
				c0.41-0.17,0.78-0.4,1.1-0.7c0.32-0.3,0.59-0.65,0.83-1.05s0.44-0.83,0.62-1.28c0.16-0.44,0.3-0.89,0.4-1.35
				c0.1-0.46,0.19-0.89,0.26-1.31l0.47-3.09C74.21,80.44,74.25,80.05,74.28,79.63z"/>
			<path class="st3" d="M93.99,85.73c-0.16,1.08-0.45,2.08-0.88,2.98s-0.97,1.69-1.64,2.34c-0.67,0.66-1.46,1.17-2.38,1.53
				s-1.94,0.52-3.08,0.5c-1.05-0.02-1.96-0.23-2.72-0.62c-0.76-0.4-1.38-0.93-1.84-1.6c-0.47-0.66-0.79-1.43-0.98-2.31
				c-0.18-0.88-0.22-1.81-0.1-2.78l2.37-13.86h3.93l-2.32,13.86c-0.05,0.41-0.07,0.85-0.06,1.31c0,0.46,0.07,0.9,0.21,1.3
				c0.12,0.4,0.33,0.74,0.62,1.01c0.29,0.27,0.71,0.42,1.24,0.45c0.59,0.03,1.1-0.07,1.54-0.31c0.43-0.23,0.79-0.55,1.09-0.94
				c0.29-0.39,0.52-0.84,0.69-1.33s0.3-0.99,0.37-1.49l2.37-13.86h3.9L93.99,85.73z"/>
			<path class="st3" d="M105.99,92.79l-3.33-13.62l-2.37,13.62h-3.96l3.62-20.89h3.89l3.29,13.56l2.38-13.56h3.95l-3.63,20.89
				H105.99z"/>
			<path class="st3" d="M52.82,163.32v-17.51l-5.47,2.08v-2.42l7.91-3.04h0.22v20.89H52.82z"/>
			<path class="st3" d="M69.64,160.15c0.34-0.4,0.87-0.6,1.56-0.6c0.69,0,1.21,0.2,1.57,0.6c0.36,0.4,0.54,0.88,0.54,1.46
				c0,0.56-0.18,1.04-0.55,1.42c-0.36,0.38-0.88,0.57-1.56,0.57c-0.69,0-1.21-0.19-1.56-0.58c-0.35-0.39-0.52-0.86-0.52-1.41
				C69.12,161.04,69.3,160.55,69.64,160.15z"/>
			<path class="st3" d="M102.78,157.91l-1.68,5.41h-2.65l6.74-20.89h2.22l6.63,20.89h-2.64l-1.65-5.41H102.78z M109.05,155.6
				l-2.76-9.07l-2.8,9.07H109.05z"/>
			<path class="st3" d="M137.95,163.32h-2.65v-20.89h6.77c0.94,0.02,1.82,0.17,2.66,0.44c0.84,0.28,1.57,0.68,2.2,1.21
				c0.63,0.53,1.13,1.18,1.5,1.95s0.55,1.66,0.55,2.67s-0.18,1.89-0.55,2.66s-0.87,1.42-1.5,1.94c-0.63,0.53-1.37,0.93-2.2,1.21
				c-0.84,0.28-1.72,0.42-2.66,0.43h-4.12V163.32z M142.07,152.76c0.61-0.01,1.18-0.11,1.69-0.29c0.52-0.19,0.97-0.45,1.35-0.8
				c0.38-0.34,0.68-0.76,0.9-1.26s0.32-1.05,0.32-1.69s-0.11-1.2-0.32-1.71c-0.22-0.51-0.51-0.94-0.88-1.29
				c-0.38-0.35-0.83-0.63-1.36-0.82c-0.52-0.19-1.09-0.29-1.7-0.3h-4.12v8.15H142.07z"/>
			<path class="st3" d="M155.68,157.91l-1.68,5.41h-2.65l6.74-20.89h2.22l6.63,20.89h-2.64l-1.65-5.41H155.68z M161.95,155.6
				l-2.76-9.07l-2.8,9.07H161.95z"/>
			<path class="st3" d="M173.06,154.8v8.52h-2.64v-20.89h6.13c0.98,0.02,1.89,0.16,2.76,0.42s1.62,0.65,2.27,1.16
				c0.64,0.52,1.15,1.16,1.51,1.94c0.37,0.78,0.55,1.7,0.55,2.75c0,0.68-0.1,1.3-0.29,1.87c-0.2,0.56-0.47,1.08-0.81,1.54
				c-0.34,0.46-0.76,0.87-1.23,1.22c-0.48,0.35-1,0.66-1.58,0.9l4.43,8.93l-0.01,0.17h-2.8l-4.1-8.52H173.06z M176.62,152.62
				c0.59-0.01,1.15-0.1,1.68-0.28c0.53-0.18,0.99-0.43,1.39-0.77c0.39-0.33,0.7-0.74,0.93-1.23c0.23-0.48,0.34-1.04,0.34-1.67
				c0-0.67-0.11-1.26-0.33-1.76c-0.22-0.5-0.53-0.93-0.92-1.27c-0.39-0.33-0.86-0.59-1.4-0.76c-0.54-0.17-1.13-0.26-1.77-0.27h-3.49
				v8.01H176.62z"/>
			<path class="st3" d="M190.96,157.91l-1.68,5.41h-2.65l6.74-20.89h2.22l6.63,20.89h-2.64l-1.65-5.41H190.96z M197.23,155.6
				l-2.76-9.07l-2.8,9.07H197.23z"/>
			<path class="st3" d="M208.49,163.32h-2.65v-20.89h6.77c0.94,0.02,1.82,0.17,2.66,0.44c0.84,0.28,1.57,0.68,2.2,1.21
				c0.63,0.53,1.13,1.18,1.5,1.95s0.55,1.66,0.55,2.67s-0.18,1.89-0.55,2.66s-0.87,1.42-1.5,1.94c-0.63,0.53-1.37,0.93-2.2,1.21
				c-0.84,0.28-1.72,0.42-2.66,0.43h-4.12V163.32z M212.61,152.76c0.61-0.01,1.18-0.11,1.69-0.29c0.52-0.19,0.97-0.45,1.35-0.8
				c0.38-0.34,0.68-0.76,0.9-1.26s0.32-1.05,0.32-1.69s-0.11-1.2-0.32-1.71c-0.22-0.51-0.51-0.94-0.88-1.29
				c-0.38-0.35-0.83-0.63-1.36-0.82c-0.52-0.19-1.09-0.29-1.7-0.3h-4.12v8.15H212.61z"/>
			<path class="st3" d="M233.82,163.32v-9.66h-8.57v9.66h-2.5v-20.89h2.5v8.98h8.57v-8.98h2.51v20.89H233.82z"/>
			<path class="st3" d="M253.49,142.43v2.31h-5.01v16.29h5.01v2.3h-12.63v-2.3h4.89v-16.29h-4.89v-2.31H253.49z"/>
			<path class="st3" d="M271.72,161.07v2.25h-12.87v-20.89h2.65v18.64H271.72z"/>
			<path class="st3" d="M288.76,142.43v2.31h-5.01v16.29h5.01v2.3h-12.63v-2.3h4.89v-16.29h-4.89v-2.31H288.76z"/>
			<path class="st3" d="M296.77,157.91l-1.68,5.41h-2.65l6.74-20.89h2.22l6.63,20.89h-2.64l-1.65-5.41H296.77z M303.04,155.6
				l-2.76-9.07l-2.8,9.07H303.04z"/>
			<path class="st3" d="M330.16,165.12l8.72-22.69h2.37l-8.71,22.69H330.16z"/>
			<path class="st3" d="M367.22,163.32h-2.65v-20.89h6.77c0.94,0.02,1.82,0.17,2.66,0.44c0.84,0.28,1.57,0.68,2.2,1.21
				c0.63,0.53,1.13,1.18,1.5,1.95s0.55,1.66,0.55,2.67s-0.18,1.89-0.55,2.66s-0.87,1.42-1.5,1.94c-0.63,0.53-1.37,0.93-2.2,1.21
				c-0.84,0.28-1.72,0.42-2.66,0.43h-4.12V163.32z M371.33,152.76c0.61-0.01,1.18-0.11,1.69-0.29c0.52-0.19,0.97-0.45,1.35-0.8
				c0.38-0.34,0.68-0.76,0.9-1.26s0.32-1.05,0.32-1.69s-0.11-1.2-0.32-1.71c-0.22-0.51-0.51-0.94-0.88-1.29
				c-0.38-0.35-0.83-0.63-1.36-0.82c-0.52-0.19-1.09-0.29-1.7-0.3h-4.12v8.15H371.33z"/>
			<path class="st3" d="M384.95,157.91l-1.68,5.41h-2.65l6.74-20.89h2.22l6.63,20.89h-2.64l-1.65-5.41H384.95z M391.22,155.6
				l-2.75-9.07l-2.8,9.07H391.22z"/>
			<path class="st3" d="M402.33,154.8v8.52h-2.64v-20.89h6.13c0.98,0.02,1.89,0.16,2.75,0.42c0.86,0.26,1.62,0.65,2.27,1.16
				c0.64,0.52,1.15,1.16,1.51,1.94s0.55,1.7,0.55,2.75c0,0.68-0.1,1.3-0.29,1.87s-0.47,1.08-0.81,1.54
				c-0.34,0.46-0.76,0.87-1.23,1.22c-0.48,0.35-1,0.66-1.58,0.9l4.43,8.93l-0.01,0.17h-2.8l-4.1-8.52H402.33z M405.89,152.62
				c0.59-0.01,1.15-0.1,1.68-0.28c0.53-0.18,0.99-0.43,1.39-0.77c0.39-0.33,0.7-0.74,0.93-1.23c0.23-0.48,0.34-1.04,0.34-1.67
				c0-0.67-0.11-1.26-0.33-1.76c-0.22-0.5-0.53-0.93-0.92-1.27c-0.39-0.33-0.86-0.59-1.4-0.76c-0.54-0.17-1.13-0.26-1.77-0.27h-3.49
				v8.01H405.89z"/>
			<path class="st3" d="M424.86,144.7v18.63h-2.58V144.7h-6.46v-2.27h15.5v2.27H424.86z"/>
			<path class="st3" d="M447.49,142.43v2.31h-5.01v16.29h5.01v2.3h-12.63v-2.3h4.89v-16.29h-4.89v-2.31H447.49z"/>
			<path class="st3" d="M455.5,157.91l-1.68,5.41h-2.66l6.75-20.89h2.22l6.63,20.89h-2.64l-1.65-5.41H455.5z M461.77,155.6
				l-2.75-9.07l-2.8,9.07H461.77z"/>
			<path class="st3" d="M483.35,161.07v2.25h-12.87v-20.89h2.66v18.64H483.35z"/>
			<path class="st3" d="M500.4,142.43v2.31h-5.01v16.29h5.01v2.3h-12.63v-2.3h4.89v-16.29h-4.89v-2.31H500.4z"/>
			<path class="st3" d="M515.9,156.42c-0.29-0.44-0.67-0.81-1.13-1.12c-0.46-0.3-0.96-0.55-1.51-0.75c-0.55-0.2-1.08-0.38-1.59-0.55
				c-0.74-0.24-1.49-0.53-2.25-0.87c-0.76-0.34-1.45-0.75-2.07-1.23c-0.63-0.49-1.15-1.06-1.54-1.73c-0.4-0.67-0.6-1.45-0.6-2.35
				s0.2-1.7,0.6-2.41c0.4-0.71,0.92-1.31,1.56-1.79s1.37-0.86,2.18-1.11c0.81-0.25,1.63-0.38,2.45-0.38c0.91,0,1.78,0.15,2.63,0.45
				s1.59,0.72,2.24,1.27c0.65,0.55,1.17,1.21,1.56,1.98s0.6,1.64,0.62,2.6h-2.73c-0.08-0.6-0.22-1.15-0.44-1.64
				c-0.22-0.49-0.51-0.92-0.88-1.27c-0.36-0.35-0.8-0.63-1.3-0.83c-0.5-0.2-1.07-0.29-1.7-0.29c-0.51,0-1,0.07-1.49,0.22
				c-0.48,0.14-0.91,0.36-1.28,0.65c-0.38,0.29-0.69,0.64-0.91,1.06s-0.34,0.91-0.34,1.46c0.01,0.6,0.16,1.11,0.46,1.53
				c0.3,0.42,0.67,0.77,1.13,1.05c0.45,0.29,0.94,0.53,1.47,0.72s1.03,0.36,1.5,0.5c0.77,0.24,1.55,0.53,2.32,0.87
				c0.78,0.34,1.48,0.77,2.12,1.3c0.63,0.49,1.14,1.09,1.53,1.79c0.39,0.71,0.58,1.53,0.58,2.45c0,0.94-0.21,1.76-0.62,2.45
				s-0.96,1.28-1.61,1.74c-0.66,0.47-1.41,0.82-2.24,1.05c-0.83,0.23-1.66,0.35-2.5,0.35c-1,0-1.97-0.17-2.93-0.5
				c-0.96-0.33-1.8-0.82-2.5-1.45c-0.63-0.55-1.13-1.18-1.5-1.92c-0.37-0.73-0.57-1.55-0.6-2.45h2.71c0.09,0.65,0.26,1.23,0.53,1.73
				c0.27,0.5,0.61,0.93,1.03,1.27c0.42,0.35,0.91,0.62,1.46,0.8c0.55,0.18,1.15,0.27,1.8,0.27c0.52,0,1.03-0.06,1.53-0.19
				c0.5-0.13,0.95-0.33,1.34-0.61c0.39-0.27,0.71-0.61,0.96-1.03c0.25-0.42,0.37-0.91,0.37-1.49
				C516.34,157.4,516.19,156.86,515.9,156.42z"/>
			<path class="st3" d="M529.35,152.88l3.67-10.45h3.3v20.89h-2.58v-8.34l0.21-8.72l-3.86,11.25h-1.52l-3.54-10.95l0.22,8.42v8.34
				h-2.58v-20.89h3.29L529.35,152.88z"/>
			<path class="st3" d="M570.94,142.43v2.31h-5.01v16.29h5.01v2.3h-12.63v-2.3h4.89v-16.29h-4.89v-2.31H570.94z"/>
			<path class="st3" d="M586.34,163.32l-8.11-15.61l-0.04,15.61h-2.68v-20.89h2.7l8.11,15.58l0.04-15.58h2.68v20.89H586.34z"/>
			<path class="st3" d="M609.77,142.43h2.53l1.51,14.41l0.09,0.83l0.16-0.86l2.53-14.38h2.31l2.54,14.39l0.16,0.85l0.09-0.86
				l1.51-14.38h2.51l-2.54,20.89h-2.71l-2.54-14.87l-0.14-0.88l-0.16,0.89l-2.55,14.85h-2.73L609.77,142.43z"/>
			<path class="st3" d="M639.45,163.32v-9.66h-8.57v9.66h-2.5v-20.89h2.5v8.98h8.57v-8.98h2.51v20.89H639.45z"/>
			<path class="st3" d="M659.12,142.43v2.31h-5.01v16.29h5.01v2.3h-12.63v-2.3h4.89v-16.29h-4.89v-2.31H659.12z"/>
			<path class="st3" d="M676.92,159.7c-0.37,0.81-0.86,1.5-1.45,2.07c-0.6,0.58-1.31,1.04-2.13,1.36c-0.82,0.32-1.73,0.48-2.73,0.48
				c-0.86,0-1.64-0.12-2.35-0.37c-0.7-0.24-1.33-0.58-1.87-1.01c-0.55-0.43-1.03-0.94-1.43-1.52c-0.4-0.58-0.72-1.22-0.98-1.91
				c-0.27-0.69-0.47-1.41-0.6-2.17c-0.13-0.76-0.2-1.52-0.21-2.3v-2.91c0.01-0.77,0.08-1.54,0.21-2.3c0.13-0.76,0.33-1.48,0.6-2.17
				c0.26-0.69,0.59-1.33,0.98-1.92c0.4-0.59,0.87-1.1,1.43-1.53c0.54-0.43,1.17-0.77,1.87-1.01c0.7-0.24,1.48-0.37,2.35-0.37
				c1.04,0,1.98,0.16,2.8,0.48c0.82,0.32,1.53,0.77,2.12,1.36c0.59,0.59,1.07,1.3,1.43,2.12c0.36,0.82,0.6,1.73,0.71,2.73h-2.66
				c-0.09-0.63-0.23-1.22-0.44-1.77c-0.21-0.55-0.49-1.02-0.85-1.44c-0.35-0.41-0.79-0.73-1.3-0.97s-1.12-0.35-1.82-0.35
				c-0.63,0-1.19,0.1-1.67,0.31s-0.9,0.49-1.24,0.84c-0.35,0.35-0.65,0.77-0.88,1.23s-0.42,0.97-0.57,1.49
				c-0.14,0.53-0.25,1.06-0.31,1.61c-0.06,0.55-0.09,1.08-0.09,1.6v2.94c0,0.52,0.03,1.05,0.09,1.6c0.06,0.55,0.17,1.09,0.31,1.61
				c0.14,0.54,0.33,1.04,0.56,1.51s0.52,0.88,0.88,1.23c0.35,0.36,0.77,0.65,1.25,0.85c0.48,0.21,1.04,0.31,1.68,0.31
				c0.7,0,1.3-0.11,1.82-0.33c0.51-0.22,0.94-0.53,1.3-0.93c0.35-0.39,0.64-0.86,0.85-1.4c0.21-0.54,0.36-1.13,0.44-1.76h2.66
				C677.54,158,677.29,158.89,676.92,159.7z"/>
			<path class="st3" d="M692.36,163.32v-9.66h-8.57v9.66h-2.5v-20.89h2.5v8.98h8.57v-8.98h2.51v20.89H692.36z"/>
			<path class="st3" d="M720.04,157.91l-1.68,5.41h-2.66l6.75-20.89h2.22l6.63,20.89h-2.64l-1.65-5.41H720.04z M726.31,155.6
				l-2.75-9.07l-2.8,9.07H726.31z"/>
			<path class="st3" d="M102.67,198.59h-2.65V177.7h6.77c0.94,0.02,1.82,0.17,2.66,0.45s1.57,0.68,2.2,1.21s1.13,1.18,1.5,1.95
				c0.37,0.78,0.55,1.67,0.55,2.67c0,1-0.18,1.89-0.55,2.66c-0.37,0.77-0.87,1.42-1.5,1.94c-0.63,0.53-1.37,0.93-2.2,1.21
				s-1.72,0.42-2.66,0.43h-4.12V198.59z M106.79,188.03c0.61-0.01,1.18-0.11,1.69-0.29c0.52-0.19,0.97-0.45,1.35-0.8
				c0.38-0.34,0.68-0.76,0.9-1.26c0.22-0.49,0.32-1.05,0.32-1.69c0-0.63-0.11-1.2-0.32-1.71c-0.22-0.51-0.51-0.94-0.88-1.29
				c-0.38-0.35-0.83-0.63-1.36-0.82s-1.09-0.29-1.7-0.3h-4.12v8.15H106.79z"/>
			<path class="st3" d="M120.18,188.93v7.4h10.17v2.25h-12.83V177.7h12.7v2.27h-10.04v6.72h8.72v2.25H120.18z"/>
			<path class="st3" d="M137.79,190.07v8.52h-2.64V177.7h6.13c0.98,0.02,1.89,0.16,2.76,0.42c0.86,0.26,1.62,0.65,2.27,1.16
				c0.64,0.52,1.15,1.17,1.51,1.95c0.37,0.78,0.55,1.7,0.55,2.75c0,0.68-0.1,1.3-0.29,1.87c-0.2,0.56-0.47,1.08-0.81,1.54
				c-0.34,0.46-0.76,0.87-1.23,1.22c-0.48,0.35-1,0.66-1.58,0.9l4.43,8.93l-0.01,0.17h-2.8l-4.1-8.52H137.79z M141.35,187.88
				c0.59-0.01,1.15-0.1,1.68-0.28c0.53-0.18,0.99-0.43,1.39-0.77c0.39-0.33,0.7-0.74,0.93-1.23c0.23-0.48,0.34-1.04,0.34-1.67
				c0-0.67-0.11-1.26-0.33-1.76s-0.53-0.93-0.92-1.27c-0.39-0.33-0.86-0.59-1.4-0.76c-0.54-0.17-1.13-0.26-1.77-0.27h-3.49v8.01
				H141.35z"/>
			<path class="st3" d="M163.18,191.69c-0.29-0.44-0.67-0.81-1.13-1.12c-0.46-0.3-0.96-0.54-1.51-0.75
				c-0.55-0.2-1.08-0.38-1.59-0.55c-0.74-0.24-1.48-0.53-2.25-0.87c-0.76-0.34-1.45-0.75-2.07-1.23c-0.63-0.49-1.15-1.06-1.54-1.73
				c-0.4-0.66-0.6-1.45-0.6-2.35s0.2-1.7,0.6-2.41s0.92-1.31,1.56-1.79c0.64-0.49,1.37-0.86,2.18-1.11
				c0.81-0.25,1.63-0.38,2.45-0.38c0.91,0,1.78,0.15,2.63,0.45s1.59,0.72,2.24,1.27c0.65,0.54,1.17,1.21,1.56,1.98
				c0.39,0.78,0.6,1.64,0.62,2.6h-2.73c-0.08-0.6-0.22-1.15-0.44-1.64c-0.22-0.49-0.51-0.92-0.88-1.27c-0.36-0.35-0.8-0.63-1.3-0.83
				s-1.07-0.29-1.7-0.29c-0.51,0-1,0.07-1.48,0.21c-0.48,0.14-0.91,0.36-1.28,0.65c-0.38,0.29-0.69,0.64-0.91,1.06
				s-0.34,0.91-0.34,1.46c0.01,0.6,0.16,1.11,0.46,1.53c0.3,0.42,0.67,0.77,1.13,1.05c0.45,0.29,0.94,0.53,1.47,0.72
				c0.53,0.19,1.03,0.36,1.5,0.5c0.77,0.24,1.55,0.53,2.32,0.87s1.48,0.77,2.12,1.3c0.63,0.49,1.14,1.09,1.53,1.79
				c0.39,0.71,0.58,1.53,0.58,2.45c0,0.94-0.21,1.76-0.62,2.45c-0.42,0.7-0.95,1.28-1.61,1.74c-0.66,0.47-1.41,0.82-2.24,1.05
				c-0.83,0.23-1.66,0.35-2.5,0.35c-1,0-1.97-0.17-2.93-0.5c-0.96-0.33-1.8-0.82-2.5-1.45c-0.63-0.54-1.13-1.18-1.5-1.92
				c-0.37-0.73-0.57-1.55-0.6-2.45h2.71c0.09,0.65,0.26,1.23,0.53,1.73c0.27,0.5,0.61,0.93,1.03,1.27c0.42,0.35,0.91,0.62,1.46,0.8
				c0.55,0.18,1.15,0.27,1.8,0.27c0.52,0,1.03-0.06,1.53-0.19c0.5-0.13,0.95-0.33,1.34-0.61c0.39-0.27,0.71-0.61,0.96-1.03
				c0.25-0.42,0.37-0.91,0.37-1.49C163.62,192.67,163.47,192.13,163.18,191.69z"/>
			<path class="st3" d="M183.72,191.61c-0.12,0.76-0.3,1.5-0.55,2.2c-0.25,0.71-0.57,1.37-0.95,1.98c-0.39,0.61-0.85,1.15-1.38,1.61
				c-0.54,0.46-1.15,0.82-1.84,1.08c-0.69,0.26-1.47,0.39-2.33,0.39s-1.64-0.13-2.33-0.39c-0.69-0.26-1.31-0.62-1.84-1.08
				c-0.54-0.46-1-1-1.39-1.61s-0.71-1.28-0.96-1.99c-0.26-0.71-0.45-1.44-0.57-2.2c-0.12-0.76-0.19-1.51-0.2-2.25v-2.38
				c0.01-0.75,0.07-1.5,0.19-2.26s0.31-1.49,0.57-2.2c0.25-0.71,0.57-1.37,0.95-1.99c0.39-0.62,0.85-1.16,1.38-1.63
				c0.54-0.46,1.15-0.82,1.84-1.08c0.69-0.26,1.47-0.39,2.33-0.39c0.86,0,1.64,0.13,2.34,0.39c0.7,0.26,1.31,0.62,1.85,1.08
				c0.54,0.46,1,1,1.38,1.61c0.39,0.62,0.71,1.28,0.97,1.99c0.25,0.71,0.43,1.44,0.55,2.21s0.18,1.52,0.19,2.27v2.38
				C183.9,190.09,183.84,190.85,183.72,191.61z M181.18,185.38c-0.06-0.54-0.15-1.08-0.29-1.61c-0.14-0.53-0.33-1.03-0.56-1.51
				c-0.23-0.48-0.52-0.91-0.86-1.29c-0.34-0.36-0.75-0.65-1.22-0.87c-0.47-0.21-1.01-0.32-1.64-0.32c-0.61,0-1.15,0.11-1.62,0.33
				c-0.47,0.22-0.88,0.51-1.22,0.88c-0.34,0.37-0.63,0.8-0.86,1.28c-0.23,0.48-0.41,0.99-0.55,1.51c-0.14,0.54-0.25,1.07-0.31,1.62
				c-0.06,0.54-0.1,1.05-0.11,1.54v2.41c0.01,0.49,0.05,1,0.11,1.55c0.06,0.54,0.17,1.08,0.31,1.61c0.14,0.54,0.33,1.05,0.56,1.54
				c0.23,0.49,0.52,0.91,0.86,1.28c0.34,0.37,0.75,0.67,1.22,0.89c0.47,0.22,1.01,0.33,1.64,0.33c0.62,0,1.17-0.11,1.64-0.33
				s0.88-0.52,1.23-0.89c0.33-0.36,0.61-0.79,0.84-1.27c0.22-0.48,0.41-0.99,0.55-1.53c0.13-0.53,0.23-1.06,0.28-1.61
				c0.05-0.55,0.08-1.07,0.09-1.56v-2.41C181.27,186.44,181.24,185.92,181.18,185.38z"/>
			<path class="st3" d="M198.35,198.59l-8.11-15.61l-0.04,15.61h-2.68V177.7h2.7l8.11,15.58l0.04-15.58h2.68v20.89H198.35z"/>
			<path class="st3" d="M235.86,177.7v2.31h-5.01v16.29h5.01v2.3h-12.63v-2.3h4.89v-16.29h-4.89v-2.31H235.86z"/>
			<path class="st3" d="M251.36,191.69c-0.29-0.44-0.67-0.81-1.13-1.12c-0.46-0.3-0.96-0.54-1.51-0.75
				c-0.55-0.2-1.08-0.38-1.59-0.55c-0.74-0.24-1.48-0.53-2.25-0.87c-0.76-0.34-1.45-0.75-2.07-1.23c-0.63-0.49-1.15-1.06-1.54-1.73
				c-0.4-0.66-0.6-1.45-0.6-2.35s0.2-1.7,0.6-2.41s0.92-1.31,1.56-1.79c0.64-0.49,1.37-0.86,2.18-1.11
				c0.81-0.25,1.63-0.38,2.45-0.38c0.91,0,1.78,0.15,2.63,0.45s1.59,0.72,2.24,1.27c0.65,0.54,1.17,1.21,1.56,1.98
				c0.39,0.78,0.6,1.64,0.62,2.6h-2.73c-0.08-0.6-0.22-1.15-0.44-1.64c-0.22-0.49-0.51-0.92-0.88-1.27c-0.36-0.35-0.8-0.63-1.3-0.83
				s-1.07-0.29-1.7-0.29c-0.51,0-1,0.07-1.48,0.21c-0.48,0.14-0.91,0.36-1.28,0.65c-0.38,0.29-0.69,0.64-0.91,1.06
				s-0.34,0.91-0.34,1.46c0.01,0.6,0.16,1.11,0.46,1.53c0.3,0.42,0.67,0.77,1.13,1.05c0.45,0.29,0.94,0.53,1.47,0.72
				c0.53,0.19,1.03,0.36,1.5,0.5c0.77,0.24,1.55,0.53,2.32,0.87s1.48,0.77,2.12,1.3c0.63,0.49,1.14,1.09,1.53,1.79
				c0.39,0.71,0.58,1.53,0.58,2.45c0,0.94-0.21,1.76-0.62,2.45c-0.42,0.7-0.95,1.28-1.61,1.74c-0.66,0.47-1.41,0.82-2.24,1.05
				c-0.83,0.23-1.66,0.35-2.5,0.35c-1,0-1.97-0.17-2.93-0.5c-0.96-0.33-1.8-0.82-2.5-1.45c-0.63-0.54-1.13-1.18-1.5-1.92
				c-0.37-0.73-0.57-1.55-0.6-2.45h2.71c0.09,0.65,0.26,1.23,0.53,1.73c0.27,0.5,0.61,0.93,1.03,1.27c0.42,0.35,0.91,0.62,1.46,0.8
				c0.55,0.18,1.15,0.27,1.8,0.27c0.52,0,1.03-0.06,1.53-0.19c0.5-0.13,0.95-0.33,1.34-0.61c0.39-0.27,0.71-0.61,0.96-1.03
				c0.25-0.42,0.37-0.91,0.37-1.49C251.8,192.67,251.65,192.13,251.36,191.69z"/>
			<path class="st3" d="M286.63,191.69c-0.29-0.44-0.67-0.81-1.13-1.12c-0.46-0.3-0.96-0.54-1.51-0.75
				c-0.55-0.2-1.08-0.38-1.59-0.55c-0.74-0.24-1.48-0.53-2.25-0.87c-0.76-0.34-1.45-0.75-2.07-1.23c-0.63-0.49-1.15-1.06-1.54-1.73
				c-0.4-0.66-0.6-1.45-0.6-2.35s0.2-1.7,0.6-2.41s0.92-1.31,1.56-1.79c0.64-0.49,1.37-0.86,2.18-1.11
				c0.81-0.25,1.63-0.38,2.45-0.38c0.91,0,1.78,0.15,2.63,0.45s1.59,0.72,2.24,1.27c0.65,0.54,1.17,1.21,1.56,1.98
				c0.39,0.78,0.6,1.64,0.62,2.6h-2.73c-0.08-0.6-0.22-1.15-0.44-1.64c-0.22-0.49-0.51-0.92-0.88-1.27c-0.36-0.35-0.8-0.63-1.3-0.83
				s-1.07-0.29-1.7-0.29c-0.51,0-1,0.07-1.48,0.21c-0.48,0.14-0.91,0.36-1.28,0.65c-0.38,0.29-0.69,0.64-0.91,1.06
				s-0.34,0.91-0.34,1.46c0.01,0.6,0.16,1.11,0.46,1.53c0.3,0.42,0.67,0.77,1.13,1.05c0.45,0.29,0.94,0.53,1.47,0.72
				c0.53,0.19,1.03,0.36,1.5,0.5c0.77,0.24,1.55,0.53,2.32,0.87s1.48,0.77,2.12,1.3c0.63,0.49,1.14,1.09,1.53,1.79
				c0.39,0.71,0.58,1.53,0.58,2.45c0,0.94-0.21,1.76-0.62,2.45c-0.42,0.7-0.95,1.28-1.61,1.74c-0.66,0.47-1.41,0.82-2.24,1.05
				c-0.83,0.23-1.66,0.35-2.5,0.35c-1,0-1.97-0.17-2.93-0.5c-0.96-0.33-1.8-0.82-2.5-1.45c-0.63-0.54-1.13-1.18-1.5-1.92
				c-0.37-0.73-0.57-1.55-0.6-2.45h2.71c0.09,0.65,0.26,1.23,0.53,1.73c0.27,0.5,0.61,0.93,1.03,1.27c0.42,0.35,0.91,0.62,1.46,0.8
				c0.55,0.18,1.15,0.27,1.8,0.27c0.52,0,1.03-0.06,1.53-0.19c0.5-0.13,0.95-0.33,1.34-0.61c0.39-0.27,0.71-0.61,0.96-1.03
				c0.25-0.42,0.37-0.91,0.37-1.49C287.07,192.67,286.93,192.13,286.63,191.69z"/>
			<path class="st3" d="M296.54,188.93v7.4h10.17v2.25h-12.83V177.7h12.7v2.27h-10.04v6.72h8.72v2.25H296.54z"/>
			<path class="st3" d="M322.39,177.7h3.13l-6.07,10.36l6.21,10.53h-3.1l-4.62-8.35l-4.63,8.35h-3.14l6.23-10.53l-6.07-10.36h3.11
				l4.45,8.19L322.39,177.7z"/>
			<path class="st3" d="M342.19,191.84c0,0.98-0.17,1.89-0.52,2.74c-0.34,0.85-0.82,1.59-1.42,2.22c-0.6,0.64-1.32,1.15-2.15,1.51
				c-0.83,0.37-1.75,0.55-2.74,0.55c-1.01,0-1.94-0.18-2.77-0.54c-0.83-0.36-1.55-0.87-2.14-1.51c-0.59-0.63-1.06-1.38-1.39-2.23
				c-0.33-0.86-0.51-1.77-0.52-2.75l0.03-14.15h2.53l0.06,14.15c0.01,0.62,0.11,1.22,0.29,1.79c0.19,0.57,0.46,1.08,0.81,1.52
				c0.34,0.44,0.78,0.79,1.3,1.06c0.52,0.27,1.12,0.4,1.8,0.4c0.68,0,1.28-0.13,1.79-0.39c0.52-0.26,0.95-0.62,1.31-1.07
				c0.34-0.44,0.61-0.95,0.79-1.52c0.18-0.57,0.28-1.17,0.3-1.79l0.04-14.15h2.57L342.19,191.84z"/>
			<path class="st3" d="M349.68,193.18l-1.68,5.41h-2.65l6.74-20.89h2.22l6.63,20.89h-2.64l-1.65-5.41H349.68z M355.95,190.87
				l-2.76-9.07l-2.8,9.07H355.95z"/>
			<path class="st3" d="M377.53,196.34v2.25h-12.87V177.7h2.65v18.64H377.53z"/>
			<path class="st3" d="M395.17,196.34v2.25H382.3V177.7h2.66v18.64H395.17z"/>
			<path class="st3" d="M410.51,177.7h3.01l-6.5,13.1l-0.04,7.79h-2.47l-0.04-7.79l-6.5-13.1H401l4.75,10.49L410.51,177.7z"/>
			<path class="st3" d="M437.86,193.18l-1.68,5.41h-2.66l6.75-20.89h2.22l6.63,20.89h-2.64l-1.65-5.41H437.86z M444.13,190.87
				l-2.75-9.07l-2.8,9.07H444.13z"/>
			<path class="st3" d="M460.13,179.96v18.63h-2.58v-18.63h-6.46v-2.27h15.5v2.27H460.13z"/>
			<path class="st3" d="M477.77,179.96v18.63h-2.58v-18.63h-6.46v-2.27h15.5v2.27H477.77z"/>
			<path class="st3" d="M490.51,190.07v8.52h-2.64V177.7H494c0.98,0.02,1.89,0.16,2.75,0.42c0.86,0.26,1.62,0.65,2.27,1.16
				c0.64,0.52,1.15,1.17,1.51,1.95c0.37,0.78,0.55,1.7,0.55,2.75c0,0.68-0.1,1.3-0.29,1.87s-0.47,1.08-0.81,1.54
				c-0.34,0.46-0.76,0.87-1.23,1.22c-0.48,0.35-1,0.66-1.58,0.9l4.43,8.93l-0.01,0.17h-2.8l-4.1-8.52H490.51z M494.07,187.88
				c0.59-0.01,1.15-0.1,1.68-0.28c0.53-0.18,0.99-0.43,1.39-0.77c0.39-0.33,0.7-0.74,0.93-1.23s0.34-1.04,0.34-1.67
				c0-0.67-0.11-1.26-0.33-1.76s-0.53-0.93-0.92-1.27c-0.39-0.33-0.86-0.59-1.4-0.76c-0.54-0.17-1.13-0.26-1.77-0.27h-3.49v8.01
				H494.07z"/>
			<path class="st3" d="M508.4,193.18l-1.68,5.41h-2.66l6.75-20.89h2.22l6.63,20.89h-2.64l-1.65-5.41H508.4z M514.67,190.87
				l-2.75-9.07l-2.8,9.07H514.67z"/>
			<path class="st3" d="M535.83,194.97c-0.37,0.81-0.86,1.5-1.45,2.07c-0.6,0.58-1.31,1.04-2.13,1.36
				c-0.82,0.32-1.73,0.48-2.73,0.48c-0.86,0-1.64-0.12-2.35-0.37s-1.33-0.58-1.87-1.01c-0.55-0.43-1.03-0.94-1.43-1.52
				c-0.4-0.58-0.72-1.22-0.98-1.91c-0.27-0.69-0.47-1.41-0.6-2.17c-0.13-0.75-0.2-1.52-0.21-2.3v-2.91c0.01-0.77,0.08-1.54,0.21-2.3
				c0.13-0.75,0.33-1.48,0.6-2.17c0.26-0.69,0.59-1.33,0.98-1.92c0.4-0.59,0.87-1.1,1.43-1.53c0.54-0.43,1.17-0.77,1.87-1.01
				s1.48-0.37,2.35-0.37c1.04,0,1.98,0.16,2.8,0.48c0.82,0.32,1.53,0.77,2.12,1.36c0.59,0.59,1.07,1.3,1.43,2.12
				c0.36,0.82,0.6,1.73,0.71,2.73h-2.66c-0.09-0.63-0.23-1.22-0.44-1.77c-0.21-0.54-0.49-1.02-0.85-1.43
				c-0.35-0.41-0.79-0.73-1.3-0.97s-1.12-0.35-1.82-0.35c-0.63,0-1.19,0.1-1.67,0.31s-0.9,0.49-1.24,0.84
				c-0.35,0.35-0.65,0.76-0.88,1.23s-0.42,0.97-0.57,1.49c-0.14,0.53-0.25,1.06-0.31,1.61c-0.06,0.55-0.09,1.08-0.09,1.6v2.94
				c0,0.52,0.03,1.05,0.09,1.6s0.17,1.09,0.31,1.61c0.14,0.54,0.33,1.04,0.56,1.51s0.52,0.88,0.88,1.23
				c0.35,0.36,0.77,0.65,1.25,0.85c0.48,0.21,1.04,0.31,1.68,0.31c0.7,0,1.3-0.11,1.82-0.33s0.94-0.53,1.3-0.93
				c0.35-0.39,0.64-0.86,0.85-1.4c0.21-0.54,0.36-1.13,0.44-1.76h2.66C536.45,193.27,536.2,194.16,535.83,194.97z"/>
			<path class="st3" d="M548.31,179.96v18.63h-2.58v-18.63h-6.46v-2.27h15.5v2.27H548.31z"/>
			<path class="st3" d="M561.08,188.93v7.4h10.17v2.25h-12.83V177.7h12.7v2.27h-10.04v6.72h8.72v2.25H561.08z"/>
			<path class="st3" d="M575.68,177.7h4.84c0.81,0.01,1.58,0.09,2.3,0.25c0.72,0.16,1.39,0.38,2,0.67c0.85,0.39,1.6,0.91,2.26,1.54
				c0.66,0.64,1.18,1.37,1.57,2.2c0.35,0.71,0.62,1.48,0.81,2.32c0.19,0.84,0.29,1.74,0.29,2.7v1.54c0,0.92-0.09,1.79-0.27,2.61
				c-0.18,0.82-0.43,1.58-0.77,2.27c-0.34,0.72-0.78,1.37-1.31,1.95c-0.53,0.58-1.12,1.08-1.77,1.49c-0.69,0.43-1.47,0.76-2.33,0.99
				c-0.87,0.23-1.8,0.35-2.8,0.36h-4.84V177.7z M578.37,196.42h2.14c0.76-0.01,1.46-0.11,2.09-0.29c0.63-0.18,1.18-0.44,1.67-0.77
				c0.52-0.34,0.96-0.77,1.34-1.27c0.38-0.5,0.68-1.06,0.9-1.69c0.19-0.51,0.33-1.05,0.43-1.64c0.09-0.59,0.15-1.2,0.16-1.84v-1.56
				c-0.01-0.65-0.06-1.27-0.17-1.87s-0.25-1.16-0.45-1.67c-0.26-0.67-0.6-1.27-1.04-1.82c-0.44-0.54-0.97-0.98-1.6-1.31
				c-0.45-0.25-0.95-0.44-1.51-0.58c-0.55-0.14-1.16-0.21-1.82-0.22h-2.14V196.42z"/>
			<path class="st3" d="M618.86,179.96v18.63h-2.58v-18.63h-6.46v-2.27h15.5v2.27H618.86z"/>
			<path class="st3" d="M642.25,191.61c-0.12,0.76-0.3,1.5-0.55,2.2s-0.57,1.37-0.95,1.98s-0.85,1.15-1.38,1.61
				c-0.54,0.46-1.15,0.82-1.84,1.08c-0.69,0.26-1.47,0.39-2.33,0.39s-1.64-0.13-2.33-0.39c-0.69-0.26-1.31-0.62-1.84-1.08
				c-0.54-0.46-1-1-1.39-1.61c-0.39-0.62-0.71-1.28-0.96-1.99c-0.26-0.71-0.45-1.44-0.57-2.2c-0.12-0.76-0.19-1.51-0.2-2.25v-2.38
				c0.01-0.75,0.07-1.5,0.19-2.26c0.12-0.76,0.31-1.49,0.57-2.2c0.25-0.71,0.57-1.37,0.96-1.99c0.39-0.62,0.85-1.16,1.38-1.63
				c0.54-0.46,1.15-0.82,1.84-1.08c0.69-0.26,1.47-0.39,2.33-0.39c0.86,0,1.64,0.13,2.34,0.39c0.7,0.26,1.32,0.62,1.85,1.08
				c0.54,0.46,1,1,1.38,1.61c0.39,0.62,0.71,1.28,0.97,1.99c0.25,0.71,0.43,1.44,0.55,2.21c0.12,0.77,0.18,1.52,0.19,2.27v2.38
				C642.44,190.09,642.37,190.85,642.25,191.61z M639.72,185.38c-0.06-0.54-0.15-1.08-0.29-1.61c-0.14-0.53-0.33-1.03-0.56-1.51
				c-0.23-0.48-0.52-0.91-0.86-1.29c-0.34-0.36-0.75-0.65-1.22-0.87c-0.47-0.21-1.01-0.32-1.64-0.32c-0.61,0-1.15,0.11-1.62,0.33
				c-0.47,0.22-0.88,0.51-1.22,0.88c-0.34,0.37-0.63,0.8-0.86,1.28c-0.23,0.48-0.41,0.99-0.54,1.51c-0.14,0.54-0.25,1.07-0.31,1.62
				c-0.06,0.54-0.1,1.05-0.11,1.54v2.41c0.01,0.49,0.04,1,0.11,1.55c0.06,0.54,0.17,1.08,0.31,1.61c0.14,0.54,0.33,1.05,0.56,1.54
				s0.52,0.91,0.86,1.28c0.34,0.37,0.75,0.67,1.22,0.89s1.01,0.33,1.64,0.33s1.17-0.11,1.64-0.33c0.47-0.22,0.88-0.52,1.23-0.89
				c0.33-0.36,0.61-0.79,0.84-1.27c0.23-0.48,0.41-0.99,0.55-1.53c0.13-0.53,0.23-1.06,0.28-1.61c0.05-0.55,0.08-1.07,0.09-1.56
				v-2.41C639.81,186.44,639.78,185.92,639.72,185.38z"/>
			<path class="st3" d="M667.13,193.18l-1.68,5.41h-2.66l6.75-20.89h2.22l6.63,20.89h-2.64l-1.65-5.41H667.13z M673.4,190.87
				l-2.75-9.07l-2.8,9.07H673.4z"/>
			<path class="st3" d="M684.51,190.07v8.52h-2.64V177.7h6.13c0.98,0.02,1.89,0.16,2.75,0.42c0.86,0.26,1.62,0.65,2.27,1.16
				c0.64,0.52,1.15,1.17,1.51,1.95c0.37,0.78,0.55,1.7,0.55,2.75c0,0.68-0.1,1.3-0.29,1.87s-0.47,1.08-0.81,1.54
				c-0.34,0.46-0.76,0.87-1.23,1.22c-0.48,0.35-1,0.66-1.58,0.9l4.43,8.93l-0.01,0.17h-2.8l-4.1-8.52H684.51z M688.07,187.88
				c0.59-0.01,1.15-0.1,1.68-0.28c0.53-0.18,0.99-0.43,1.39-0.77c0.39-0.33,0.7-0.74,0.93-1.23s0.34-1.04,0.34-1.67
				c0-0.67-0.11-1.26-0.33-1.76s-0.53-0.93-0.92-1.27c-0.39-0.33-0.86-0.59-1.4-0.76c-0.54-0.17-1.13-0.26-1.77-0.27h-3.49v8.01
				H688.07z"/>
			<path class="st3" d="M705.71,188.14l3.67-10.45h3.3v20.89h-2.58v-8.34l0.21-8.73l-3.86,11.25h-1.52l-3.54-10.95l0.22,8.42v8.34
				h-2.58V177.7h3.29L705.71,188.14z"/>
			<path class="st3" d="M719.94,198.59h-2.65V177.7h6.77c0.94,0.02,1.83,0.17,2.66,0.45s1.57,0.68,2.2,1.21
				c0.63,0.53,1.13,1.18,1.5,1.95c0.37,0.78,0.55,1.67,0.55,2.67c0,1-0.18,1.89-0.55,2.66c-0.37,0.77-0.87,1.42-1.5,1.94
				c-0.63,0.53-1.37,0.93-2.2,1.21s-1.72,0.42-2.66,0.43h-4.12V198.59z M724.05,188.03c0.61-0.01,1.18-0.11,1.69-0.29
				s0.97-0.45,1.35-0.8c0.38-0.34,0.68-0.76,0.9-1.26c0.21-0.49,0.32-1.05,0.32-1.69c0-0.63-0.11-1.2-0.32-1.71
				c-0.22-0.51-0.51-0.94-0.88-1.29c-0.38-0.35-0.83-0.63-1.36-0.82c-0.52-0.19-1.09-0.29-1.7-0.3h-4.12v8.15H724.05z"/>
			<path class="st3" d="M747.3,177.7v2.31h-5.01v16.29h5.01v2.3h-12.63v-2.3h4.89v-16.29h-4.89v-2.31H747.3z"/>
			<path class="st3" d="M759.94,179.96v18.63h-2.58v-18.63h-6.46v-2.27h15.5v2.27H759.94z"/>
			<path class="st3" d="M780.44,191.69c-0.29-0.44-0.67-0.81-1.13-1.12c-0.46-0.3-0.96-0.54-1.51-0.75s-1.08-0.38-1.59-0.55
				c-0.74-0.24-1.49-0.53-2.25-0.87c-0.76-0.34-1.45-0.75-2.07-1.23c-0.63-0.49-1.15-1.06-1.54-1.73c-0.4-0.66-0.6-1.45-0.6-2.35
				s0.2-1.7,0.6-2.41c0.4-0.71,0.92-1.31,1.56-1.79c0.64-0.49,1.37-0.86,2.18-1.11c0.81-0.25,1.63-0.38,2.45-0.38
				c0.91,0,1.78,0.15,2.63,0.45s1.59,0.72,2.24,1.27c0.65,0.54,1.17,1.21,1.56,1.98c0.39,0.78,0.6,1.64,0.62,2.6h-2.73
				c-0.08-0.6-0.22-1.15-0.44-1.64c-0.22-0.49-0.51-0.92-0.88-1.27c-0.36-0.35-0.8-0.63-1.3-0.83c-0.5-0.2-1.07-0.29-1.7-0.29
				c-0.51,0-1,0.07-1.49,0.21c-0.48,0.14-0.91,0.36-1.28,0.65c-0.38,0.29-0.69,0.64-0.91,1.06s-0.34,0.91-0.34,1.46
				c0.01,0.6,0.16,1.11,0.46,1.53s0.67,0.77,1.13,1.05c0.45,0.29,0.94,0.53,1.47,0.72c0.53,0.19,1.03,0.36,1.5,0.5
				c0.77,0.24,1.55,0.53,2.32,0.87c0.78,0.34,1.48,0.77,2.12,1.3c0.63,0.49,1.14,1.09,1.53,1.79c0.39,0.71,0.58,1.53,0.58,2.45
				c0,0.94-0.21,1.76-0.62,2.45s-0.96,1.28-1.61,1.74c-0.66,0.47-1.41,0.82-2.24,1.05c-0.83,0.23-1.66,0.35-2.5,0.35
				c-1,0-1.97-0.17-2.93-0.5c-0.96-0.33-1.8-0.82-2.5-1.45c-0.63-0.54-1.13-1.18-1.5-1.92c-0.37-0.73-0.57-1.55-0.6-2.45h2.71
				c0.09,0.65,0.26,1.23,0.53,1.73c0.27,0.5,0.61,0.93,1.03,1.27c0.42,0.35,0.91,0.62,1.46,0.8c0.55,0.18,1.15,0.27,1.8,0.27
				c0.52,0,1.03-0.06,1.53-0.19c0.5-0.13,0.95-0.33,1.34-0.61c0.39-0.27,0.71-0.61,0.96-1.03c0.25-0.42,0.37-0.91,0.37-1.49
				C780.88,192.67,780.73,192.13,780.44,191.69z"/>
			<path class="st3" d="M793.64,200.9c-0.45,1-1.06,1.83-1.82,2.51l-1.65-0.9c0.46-0.67,0.78-1.38,0.98-2.14s0.29-1.54,0.29-2.35
				v-2.57h2.88v2.53C794.31,198.93,794.09,199.9,793.64,200.9z"/>
			<path class="st3" d="M98.33,212.96h2.53l1.51,14.41l0.09,0.83l0.16-0.86l2.53-14.38h2.31l2.54,14.39l0.16,0.85l0.09-0.86
				l1.51-14.38h2.51l-2.54,20.89h-2.71l-2.54-14.87l-0.14-0.88l-0.16,0.89l-2.55,14.85h-2.73L98.33,212.96z"/>
			<path class="st3" d="M128,233.86v-9.66h-8.57v9.66h-2.5v-20.89h2.5v8.98H128v-8.98h2.51v20.89H128z"/>
			<path class="st3" d="M147.68,212.96v2.31h-5.01v16.29h5.01v2.3h-12.63v-2.3h4.89v-16.29h-4.89v-2.31H147.68z"/>
			<path class="st3" d="M165.47,230.23c-0.37,0.81-0.86,1.5-1.45,2.07c-0.6,0.58-1.31,1.04-2.13,1.36
				c-0.82,0.32-1.73,0.48-2.73,0.48c-0.86,0-1.64-0.12-2.35-0.37s-1.33-0.58-1.87-1.01c-0.56-0.43-1.03-0.94-1.43-1.52
				c-0.4-0.58-0.72-1.22-0.98-1.91c-0.27-0.69-0.47-1.41-0.6-2.17c-0.13-0.75-0.2-1.52-0.21-2.3v-2.91c0.01-0.77,0.08-1.54,0.21-2.3
				c0.13-0.75,0.33-1.48,0.6-2.17c0.26-0.69,0.59-1.33,0.98-1.92c0.4-0.59,0.87-1.1,1.43-1.53c0.54-0.43,1.17-0.77,1.87-1.01
				s1.48-0.37,2.35-0.37c1.04,0,1.98,0.16,2.8,0.48c0.82,0.32,1.53,0.77,2.12,1.36c0.59,0.59,1.07,1.3,1.43,2.12
				c0.36,0.82,0.6,1.73,0.71,2.73h-2.65c-0.09-0.63-0.23-1.22-0.44-1.77c-0.21-0.54-0.49-1.02-0.85-1.43s-0.79-0.73-1.3-0.97
				c-0.51-0.23-1.12-0.35-1.82-0.35c-0.63,0-1.19,0.1-1.67,0.31s-0.9,0.49-1.24,0.84c-0.35,0.35-0.65,0.76-0.88,1.23
				c-0.23,0.47-0.42,0.97-0.57,1.49c-0.14,0.53-0.25,1.06-0.31,1.61c-0.06,0.55-0.09,1.08-0.09,1.6v2.94c0,0.52,0.03,1.05,0.09,1.6
				c0.06,0.55,0.17,1.09,0.31,1.61c0.14,0.54,0.33,1.04,0.56,1.51s0.52,0.88,0.88,1.23c0.35,0.36,0.77,0.65,1.25,0.85
				s1.04,0.31,1.68,0.31c0.7,0,1.3-0.11,1.82-0.33c0.51-0.22,0.94-0.53,1.3-0.93c0.35-0.39,0.64-0.86,0.85-1.4
				c0.21-0.54,0.36-1.13,0.44-1.76h2.65C166.09,228.54,165.84,229.42,165.47,230.23z"/>
			<path class="st3" d="M180.91,233.86v-9.66h-8.57v9.66h-2.5v-20.89h2.5v8.98h8.57v-8.98h2.51v20.89H180.91z"/>
			<path class="st3" d="M211.91,223.41l3.67-10.45h3.3v20.89h-2.58v-8.34l0.21-8.73l-3.86,11.25h-1.52l-3.54-10.95l0.21,8.42v8.34
				h-2.58v-20.89h3.29L211.91,223.41z"/>
			<path class="st3" d="M226.23,228.45l-1.68,5.41h-2.65l6.74-20.89h2.22l6.63,20.89h-2.64l-1.65-5.41H226.23z M232.5,226.13
				l-2.76-9.07l-2.8,9.07H232.5z"/>
			<path class="st3" d="M251.78,212.96h3.01l-6.5,13.1l-0.04,7.79h-2.47l-0.04-7.79l-6.5-13.1h3.03l4.75,10.49L251.78,212.96z"/>
			<path class="st3" d="M289.35,231.6v2.25h-12.87v-20.89h2.65v18.64H289.35z"/>
			<path class="st3" d="M296.54,224.2v7.4h10.17v2.25h-12.83v-20.89h12.7v2.27h-10.04v6.72h8.72v2.25H296.54z"/>
			<path class="st3" d="M314.41,228.45l-1.68,5.41h-2.65l6.74-20.89h2.22l6.63,20.89h-2.64l-1.65-5.41H314.41z M320.68,226.13
				l-2.76-9.07l-2.8,9.07H320.68z"/>
			<path class="st3" d="M328.77,212.96h4.84c0.81,0.01,1.58,0.09,2.3,0.25c0.72,0.16,1.39,0.38,2,0.67c0.85,0.39,1.6,0.91,2.26,1.54
				c0.66,0.64,1.18,1.37,1.57,2.2c0.35,0.71,0.62,1.48,0.81,2.32s0.28,1.74,0.29,2.7v1.54c0,0.92-0.09,1.79-0.27,2.61
				c-0.18,0.82-0.43,1.58-0.77,2.27c-0.34,0.72-0.78,1.37-1.31,1.95c-0.53,0.58-1.11,1.08-1.77,1.49c-0.69,0.43-1.47,0.76-2.33,0.99
				c-0.87,0.23-1.8,0.35-2.81,0.36h-4.84V212.96z M331.47,231.69h2.14c0.77-0.01,1.46-0.11,2.09-0.29s1.18-0.44,1.67-0.77
				c0.52-0.34,0.96-0.77,1.34-1.27c0.38-0.5,0.68-1.06,0.9-1.69c0.19-0.51,0.33-1.05,0.43-1.64c0.1-0.59,0.15-1.2,0.16-1.84v-1.56
				c-0.01-0.65-0.06-1.27-0.17-1.87c-0.1-0.6-0.25-1.16-0.45-1.67c-0.26-0.67-0.61-1.27-1.04-1.82c-0.44-0.54-0.97-0.98-1.6-1.31
				c-0.45-0.25-0.95-0.44-1.51-0.58c-0.56-0.14-1.16-0.21-1.82-0.22h-2.14V231.69z"/>
			<path class="st3" d="M371.95,215.23v18.63h-2.58v-18.63h-6.46v-2.27h15.5v2.27H371.95z"/>
			<path class="st3" d="M395.35,226.87c-0.12,0.76-0.3,1.5-0.55,2.2c-0.25,0.71-0.57,1.37-0.96,1.98c-0.39,0.61-0.85,1.15-1.38,1.61
				c-0.54,0.46-1.15,0.82-1.84,1.08c-0.69,0.26-1.47,0.39-2.33,0.39s-1.64-0.13-2.33-0.39c-0.69-0.26-1.31-0.62-1.84-1.08
				c-0.54-0.46-1-1-1.39-1.61c-0.39-0.62-0.71-1.28-0.96-1.99c-0.26-0.71-0.45-1.44-0.57-2.2c-0.12-0.76-0.19-1.51-0.2-2.25v-2.38
				c0.01-0.75,0.07-1.5,0.19-2.26s0.31-1.49,0.57-2.2c0.25-0.71,0.57-1.37,0.96-1.99c0.39-0.62,0.85-1.16,1.38-1.63
				c0.54-0.46,1.15-0.82,1.84-1.08c0.69-0.26,1.47-0.39,2.33-0.39c0.86,0,1.64,0.13,2.34,0.39c0.7,0.26,1.32,0.62,1.85,1.08
				c0.54,0.46,1,1,1.38,1.61s0.71,1.28,0.97,1.99c0.25,0.71,0.43,1.44,0.55,2.21c0.12,0.77,0.18,1.52,0.19,2.27v2.38
				C395.53,225.36,395.47,226.11,395.35,226.87z M392.82,220.65c-0.06-0.54-0.15-1.08-0.29-1.61c-0.14-0.53-0.33-1.03-0.56-1.51
				c-0.23-0.48-0.52-0.91-0.86-1.29c-0.35-0.36-0.75-0.65-1.22-0.87c-0.47-0.21-1.01-0.32-1.63-0.32c-0.61,0-1.15,0.11-1.62,0.33
				c-0.47,0.22-0.88,0.51-1.22,0.88c-0.35,0.37-0.63,0.8-0.86,1.28c-0.23,0.48-0.41,0.99-0.54,1.51c-0.14,0.54-0.25,1.07-0.31,1.62
				c-0.06,0.54-0.1,1.05-0.11,1.54v2.41c0.01,0.49,0.04,1,0.11,1.55c0.06,0.54,0.16,1.08,0.31,1.61c0.14,0.54,0.33,1.05,0.56,1.54
				c0.23,0.49,0.52,0.91,0.86,1.28c0.34,0.37,0.75,0.67,1.22,0.89s1.01,0.33,1.63,0.33c0.62,0,1.17-0.11,1.64-0.33
				c0.47-0.22,0.88-0.52,1.23-0.89c0.33-0.36,0.61-0.79,0.84-1.27c0.23-0.48,0.41-0.99,0.55-1.53c0.13-0.53,0.23-1.06,0.28-1.61
				c0.05-0.55,0.08-1.07,0.09-1.56v-2.41C392.91,221.71,392.87,221.19,392.82,220.65z"/>
			<path class="st3" d="M420.22,228.45l-1.68,5.41h-2.66l6.75-20.89h2.22l6.63,20.89h-2.64l-1.65-5.41H420.22z M426.49,226.13
				l-2.75-9.07l-2.8,9.07H426.49z"/>
			<path class="st3" d="M437.6,225.33v8.52h-2.64v-20.89h6.13c0.98,0.02,1.89,0.16,2.75,0.42c0.86,0.26,1.62,0.65,2.27,1.16
				c0.64,0.52,1.15,1.17,1.51,1.95c0.37,0.78,0.55,1.7,0.55,2.75c0,0.68-0.1,1.3-0.29,1.87s-0.47,1.08-0.81,1.54
				c-0.34,0.46-0.76,0.87-1.23,1.22c-0.48,0.35-1,0.66-1.58,0.9l4.43,8.93l-0.01,0.17h-2.8l-4.1-8.52H437.6z M441.16,223.15
				c0.59-0.01,1.15-0.1,1.68-0.28c0.53-0.18,0.99-0.43,1.39-0.77c0.39-0.33,0.7-0.74,0.93-1.23s0.34-1.04,0.34-1.67
				c0-0.67-0.11-1.26-0.33-1.76s-0.53-0.93-0.92-1.27c-0.39-0.33-0.86-0.59-1.4-0.76c-0.54-0.17-1.13-0.26-1.77-0.27h-3.49v8.01
				H441.16z"/>
			<path class="st3" d="M458.81,223.41l3.67-10.45h3.3v20.89h-2.58v-8.34l0.21-8.73l-3.86,11.25h-1.52l-3.54-10.95l0.22,8.42v8.34
				h-2.58v-20.89h3.29L458.81,223.41z"/>
			<path class="st3" d="M473.03,233.86h-2.65v-20.89h6.77c0.94,0.02,1.83,0.17,2.66,0.45s1.57,0.68,2.2,1.21
				c0.63,0.53,1.13,1.18,1.5,1.95c0.37,0.78,0.55,1.67,0.55,2.67c0,1-0.18,1.89-0.55,2.66c-0.37,0.77-0.87,1.42-1.5,1.94
				c-0.63,0.53-1.37,0.93-2.2,1.21s-1.72,0.42-2.66,0.43h-4.12V233.86z M477.15,223.29c0.61-0.01,1.18-0.11,1.69-0.29
				s0.97-0.45,1.35-0.8c0.38-0.34,0.68-0.76,0.9-1.26c0.21-0.49,0.32-1.05,0.32-1.69c0-0.63-0.11-1.2-0.32-1.71
				c-0.22-0.51-0.51-0.94-0.88-1.29c-0.38-0.35-0.83-0.63-1.36-0.82c-0.52-0.19-1.09-0.29-1.7-0.3h-4.12v8.15H477.15z"/>
			<path class="st3" d="M500.4,212.96v2.31h-5.01v16.29h5.01v2.3h-12.63v-2.3h4.89v-16.29h-4.89v-2.31H500.4z"/>
			<path class="st3" d="M513.04,215.23v18.63h-2.58v-18.63H504v-2.27h15.5v2.27H513.04z"/>
			<path class="st3" d="M553.31,212.96v2.31h-5.01v16.29h5.01v2.3h-12.63v-2.3h4.89v-16.29h-4.89v-2.31H553.31z"/>
			<path class="st3" d="M568.7,233.86l-8.11-15.61l-0.04,15.61h-2.68v-20.89h2.7l8.11,15.58l0.04-15.58h2.68v20.89H568.7z"/>
			<path class="st3" d="M583.58,215.23v18.63H581v-18.63h-6.46v-2.27h15.5v2.27H583.58z"/>
			<path class="st3" d="M596.35,224.2v7.4h10.17v2.25H593.7v-20.89h12.7v2.27h-10.04v6.72h8.72v2.25H596.35z"/>
			<path class="st3" d="M613.96,225.33v8.52h-2.64v-20.89h6.13c0.98,0.02,1.89,0.16,2.75,0.42c0.86,0.26,1.62,0.65,2.27,1.16
				c0.64,0.52,1.15,1.17,1.51,1.95c0.37,0.78,0.55,1.7,0.55,2.75c0,0.68-0.1,1.3-0.29,1.87s-0.47,1.08-0.81,1.54
				c-0.34,0.46-0.76,0.87-1.23,1.22c-0.48,0.35-1,0.66-1.58,0.9l4.43,8.93l-0.01,0.17h-2.8l-4.1-8.52H613.96z M617.52,223.15
				c0.59-0.01,1.15-0.1,1.68-0.28c0.53-0.18,0.99-0.43,1.39-0.77c0.39-0.33,0.7-0.74,0.93-1.23s0.34-1.04,0.34-1.67
				c0-0.67-0.11-1.26-0.33-1.76s-0.53-0.93-0.92-1.27c-0.39-0.33-0.86-0.59-1.4-0.76c-0.54-0.17-1.13-0.26-1.77-0.27h-3.49v8.01
				H617.52z"/>
			<path class="st3" d="M641.64,230.23c-0.37,0.81-0.86,1.5-1.45,2.07c-0.6,0.58-1.31,1.04-2.13,1.36
				c-0.82,0.32-1.73,0.48-2.73,0.48c-0.86,0-1.64-0.12-2.35-0.37s-1.33-0.58-1.87-1.01c-0.55-0.43-1.03-0.94-1.43-1.52
				c-0.4-0.58-0.72-1.22-0.98-1.91c-0.27-0.69-0.47-1.41-0.6-2.17c-0.13-0.75-0.2-1.52-0.21-2.3v-2.91c0.01-0.77,0.08-1.54,0.21-2.3
				c0.13-0.75,0.33-1.48,0.6-2.17c0.26-0.69,0.59-1.33,0.98-1.92c0.4-0.59,0.87-1.1,1.43-1.53c0.54-0.43,1.17-0.77,1.87-1.01
				s1.48-0.37,2.35-0.37c1.04,0,1.98,0.16,2.8,0.48c0.82,0.32,1.53,0.77,2.12,1.36c0.59,0.59,1.07,1.3,1.43,2.12
				c0.36,0.82,0.6,1.73,0.71,2.73h-2.66c-0.09-0.63-0.23-1.22-0.44-1.77c-0.21-0.54-0.49-1.02-0.85-1.43
				c-0.35-0.41-0.79-0.73-1.3-0.97s-1.12-0.35-1.82-0.35c-0.63,0-1.19,0.1-1.67,0.31s-0.9,0.49-1.24,0.84
				c-0.35,0.35-0.65,0.76-0.88,1.23s-0.42,0.97-0.57,1.49c-0.14,0.53-0.25,1.06-0.31,1.61c-0.06,0.55-0.09,1.08-0.09,1.6v2.94
				c0,0.52,0.03,1.05,0.09,1.6s0.17,1.09,0.31,1.61c0.14,0.54,0.33,1.04,0.56,1.51s0.52,0.88,0.88,1.23
				c0.35,0.36,0.77,0.65,1.25,0.85c0.48,0.21,1.04,0.31,1.68,0.31c0.7,0,1.3-0.11,1.82-0.33s0.94-0.53,1.3-0.93
				c0.35-0.39,0.64-0.86,0.85-1.4c0.21-0.54,0.36-1.13,0.44-1.76h2.66C642.26,228.54,642.02,229.42,641.64,230.23z"/>
			<path class="st3" d="M659.89,226.87c-0.12,0.76-0.3,1.5-0.55,2.2s-0.57,1.37-0.95,1.98s-0.85,1.15-1.38,1.61
				c-0.54,0.46-1.15,0.82-1.84,1.08c-0.69,0.26-1.47,0.39-2.33,0.39s-1.64-0.13-2.33-0.39c-0.69-0.26-1.31-0.62-1.84-1.08
				c-0.54-0.46-1-1-1.39-1.61c-0.39-0.62-0.71-1.28-0.96-1.99c-0.26-0.71-0.45-1.44-0.57-2.2c-0.12-0.76-0.19-1.51-0.2-2.25v-2.38
				c0.01-0.75,0.07-1.5,0.19-2.26c0.12-0.76,0.31-1.49,0.57-2.2c0.25-0.71,0.57-1.37,0.96-1.99c0.39-0.62,0.85-1.16,1.38-1.63
				c0.54-0.46,1.15-0.82,1.84-1.08c0.69-0.26,1.47-0.39,2.33-0.39c0.86,0,1.64,0.13,2.34,0.39c0.7,0.26,1.32,0.62,1.85,1.08
				c0.54,0.46,1,1,1.38,1.61c0.39,0.62,0.71,1.28,0.97,1.99c0.25,0.71,0.43,1.44,0.55,2.21c0.12,0.77,0.18,1.52,0.19,2.27v2.38
				C660.07,225.36,660.01,226.11,659.89,226.87z M657.36,220.65c-0.06-0.54-0.15-1.08-0.29-1.61c-0.14-0.53-0.33-1.03-0.56-1.51
				c-0.23-0.48-0.52-0.91-0.86-1.29c-0.34-0.36-0.75-0.65-1.22-0.87c-0.47-0.21-1.01-0.32-1.64-0.32c-0.61,0-1.15,0.11-1.62,0.33
				c-0.47,0.22-0.88,0.51-1.22,0.88c-0.34,0.37-0.63,0.8-0.86,1.28c-0.23,0.48-0.41,0.99-0.54,1.51c-0.14,0.54-0.25,1.07-0.31,1.62
				c-0.06,0.54-0.1,1.05-0.11,1.54v2.41c0.01,0.49,0.04,1,0.11,1.55c0.06,0.54,0.17,1.08,0.31,1.61c0.14,0.54,0.33,1.05,0.56,1.54
				s0.52,0.91,0.86,1.28c0.34,0.37,0.75,0.67,1.22,0.89s1.01,0.33,1.64,0.33s1.17-0.11,1.64-0.33c0.47-0.22,0.88-0.52,1.23-0.89
				c0.33-0.36,0.61-0.79,0.84-1.27c0.23-0.48,0.41-0.99,0.55-1.53c0.13-0.53,0.23-1.06,0.28-1.61c0.05-0.55,0.08-1.07,0.09-1.56
				v-2.41C657.45,221.71,657.41,221.19,657.36,220.65z"/>
			<path class="st3" d="M677.27,227.11c0,0.98-0.17,1.89-0.52,2.74c-0.34,0.85-0.82,1.59-1.42,2.22c-0.6,0.64-1.32,1.15-2.15,1.51
				s-1.75,0.55-2.74,0.55c-1.01,0-1.94-0.18-2.77-0.54c-0.83-0.36-1.54-0.87-2.14-1.51c-0.59-0.63-1.06-1.38-1.39-2.23
				c-0.34-0.86-0.51-1.77-0.52-2.75l0.03-14.15h2.53l0.06,14.15c0.01,0.62,0.11,1.22,0.29,1.79c0.19,0.57,0.46,1.08,0.81,1.52
				c0.34,0.44,0.78,0.79,1.3,1.06c0.52,0.27,1.12,0.4,1.8,0.4c0.68,0,1.28-0.13,1.79-0.39c0.52-0.26,0.95-0.62,1.31-1.07
				c0.34-0.44,0.61-0.95,0.79-1.52c0.18-0.57,0.28-1.17,0.3-1.79l0.04-14.15h2.57L677.27,227.11z"/>
			<path class="st3" d="M684.51,225.33v8.52h-2.64v-20.89h6.13c0.98,0.02,1.89,0.16,2.75,0.42c0.86,0.26,1.62,0.65,2.27,1.16
				c0.64,0.52,1.15,1.17,1.51,1.95c0.37,0.78,0.55,1.7,0.55,2.75c0,0.68-0.1,1.3-0.29,1.87s-0.47,1.08-0.81,1.54
				c-0.34,0.46-0.76,0.87-1.23,1.22c-0.48,0.35-1,0.66-1.58,0.9l4.43,8.93l-0.01,0.17h-2.8l-4.1-8.52H684.51z M688.07,223.15
				c0.59-0.01,1.15-0.1,1.68-0.28c0.53-0.18,0.99-0.43,1.39-0.77c0.39-0.33,0.7-0.74,0.93-1.23s0.34-1.04,0.34-1.67
				c0-0.67-0.11-1.26-0.33-1.76s-0.53-0.93-0.92-1.27c-0.39-0.33-0.86-0.59-1.4-0.76c-0.54-0.17-1.13-0.26-1.77-0.27h-3.49v8.01
				H688.07z"/>
			<path class="st3" d="M709.9,226.95c-0.29-0.44-0.67-0.81-1.13-1.12c-0.46-0.3-0.96-0.54-1.51-0.75s-1.08-0.38-1.59-0.55
				c-0.74-0.24-1.49-0.53-2.25-0.87c-0.76-0.34-1.45-0.75-2.07-1.23c-0.63-0.49-1.15-1.06-1.54-1.73c-0.4-0.66-0.6-1.45-0.6-2.35
				s0.2-1.7,0.6-2.41c0.4-0.71,0.92-1.31,1.56-1.79c0.64-0.49,1.37-0.86,2.18-1.11c0.81-0.25,1.63-0.38,2.45-0.38
				c0.91,0,1.78,0.15,2.63,0.45s1.59,0.72,2.24,1.27c0.65,0.54,1.17,1.21,1.56,1.98c0.39,0.78,0.6,1.64,0.62,2.6h-2.73
				c-0.08-0.6-0.22-1.15-0.44-1.64c-0.22-0.49-0.51-0.92-0.88-1.27c-0.36-0.35-0.8-0.63-1.3-0.83c-0.5-0.2-1.07-0.29-1.7-0.29
				c-0.51,0-1,0.07-1.49,0.21c-0.48,0.14-0.91,0.36-1.28,0.65c-0.38,0.29-0.69,0.64-0.91,1.06s-0.34,0.91-0.34,1.46
				c0.01,0.6,0.16,1.11,0.46,1.53s0.67,0.77,1.13,1.05c0.45,0.29,0.94,0.53,1.47,0.72c0.53,0.19,1.03,0.36,1.5,0.5
				c0.77,0.24,1.55,0.53,2.32,0.87c0.78,0.34,1.48,0.77,2.12,1.3c0.63,0.49,1.14,1.09,1.53,1.79c0.39,0.71,0.58,1.53,0.58,2.45
				c0,0.94-0.21,1.76-0.62,2.45s-0.96,1.28-1.61,1.74c-0.66,0.47-1.41,0.82-2.24,1.05c-0.83,0.23-1.66,0.35-2.5,0.35
				c-1,0-1.97-0.17-2.93-0.5c-0.96-0.33-1.8-0.82-2.5-1.45c-0.63-0.54-1.13-1.18-1.5-1.92c-0.37-0.73-0.57-1.55-0.6-2.45h2.71
				c0.09,0.65,0.26,1.23,0.53,1.73c0.27,0.5,0.61,0.93,1.03,1.27c0.42,0.35,0.91,0.62,1.46,0.8c0.55,0.18,1.15,0.27,1.8,0.27
				c0.52,0,1.03-0.06,1.53-0.19c0.5-0.13,0.95-0.33,1.34-0.61c0.39-0.27,0.71-0.61,0.96-1.03c0.25-0.42,0.37-0.91,0.37-1.49
				C710.34,227.93,710.19,227.39,709.9,226.95z"/>
			<path class="st3" d="M719.81,224.2v7.4h10.17v2.25h-12.83v-20.89h12.7v2.27h-10.04v6.72h8.72v2.25H719.81z"/>
			<path class="st3" d="M102.73,256.78c0.22-1.21,0.5-2.33,0.87-3.36c0.36-1.02,0.78-1.96,1.26-2.81c0.47-0.85,0.97-1.61,1.5-2.27
				c0.52-0.66,1.04-1.22,1.56-1.69c0.53-0.47,1.03-0.84,1.51-1.11l0.56,1.75c-0.31,0.23-0.61,0.51-0.93,0.83s-0.61,0.69-0.91,1.09
				c-0.44,0.62-0.86,1.35-1.26,2.19s-0.74,1.75-1,2.75c-0.26,0.9-0.46,1.89-0.6,2.97c-0.14,1.08-0.21,2.24-0.21,3.49v0.2
				c0,1.2,0.07,2.32,0.2,3.36c0.13,1.04,0.32,2,0.55,2.88c0.25,0.89,0.54,1.71,0.86,2.48s0.67,1.44,1.02,2.04
				c0.36,0.57,0.74,1.08,1.13,1.53c0.39,0.44,0.78,0.83,1.17,1.14l-0.56,1.62c-0.48-0.27-0.98-0.63-1.51-1.1
				c-0.53-0.46-1.05-1.03-1.57-1.7c-0.53-0.66-1.03-1.41-1.5-2.26s-0.89-1.79-1.24-2.82c-0.36-1.02-0.65-2.14-0.87-3.34
				c-0.22-1.21-0.32-2.49-0.32-3.86v-0.14C102.4,259.27,102.51,257.99,102.73,256.78z"/>
			<path class="st3" d="M127.91,262.22c-0.29-0.44-0.67-0.81-1.13-1.12c-0.46-0.3-0.96-0.54-1.51-0.75
				c-0.55-0.2-1.08-0.38-1.59-0.55c-0.74-0.24-1.48-0.53-2.25-0.87c-0.76-0.34-1.45-0.75-2.07-1.23c-0.63-0.49-1.15-1.06-1.54-1.73
				c-0.4-0.66-0.6-1.45-0.6-2.35s0.2-1.7,0.6-2.41s0.92-1.31,1.56-1.79c0.64-0.49,1.37-0.86,2.18-1.11
				c0.81-0.25,1.63-0.38,2.45-0.38c0.91,0,1.78,0.15,2.63,0.45s1.59,0.72,2.24,1.27c0.65,0.54,1.17,1.21,1.56,1.98
				c0.39,0.78,0.6,1.64,0.62,2.6h-2.73c-0.08-0.6-0.22-1.15-0.44-1.64c-0.22-0.49-0.51-0.92-0.88-1.27c-0.36-0.35-0.8-0.63-1.3-0.83
				s-1.07-0.29-1.7-0.29c-0.51,0-1,0.07-1.48,0.21c-0.48,0.14-0.91,0.36-1.28,0.65c-0.38,0.29-0.69,0.64-0.91,1.06
				s-0.34,0.91-0.34,1.46c0.01,0.6,0.16,1.11,0.46,1.53c0.3,0.42,0.67,0.77,1.13,1.05c0.45,0.29,0.94,0.53,1.47,0.72
				c0.53,0.19,1.03,0.36,1.5,0.5c0.77,0.24,1.55,0.53,2.32,0.87s1.48,0.77,2.12,1.3c0.63,0.49,1.14,1.09,1.53,1.79
				c0.39,0.71,0.58,1.53,0.58,2.45c0,0.94-0.21,1.76-0.62,2.45c-0.42,0.7-0.95,1.28-1.61,1.74c-0.66,0.47-1.41,0.82-2.24,1.05
				c-0.83,0.23-1.66,0.35-2.5,0.35c-1,0-1.97-0.17-2.93-0.5c-0.96-0.33-1.8-0.82-2.5-1.45c-0.63-0.54-1.13-1.18-1.5-1.92
				c-0.37-0.73-0.57-1.55-0.6-2.45h2.71c0.09,0.65,0.26,1.23,0.53,1.73c0.27,0.5,0.61,0.93,1.03,1.27c0.42,0.35,0.91,0.62,1.46,0.8
				c0.55,0.18,1.15,0.27,1.8,0.27c0.52,0,1.03-0.06,1.53-0.19c0.5-0.13,0.95-0.33,1.34-0.61c0.39-0.27,0.71-0.61,0.96-1.03
				c0.25-0.42,0.37-0.91,0.37-1.49C128.35,263.2,128.2,262.66,127.91,262.22z"/>
			<path class="st3" d="M137.82,259.46v7.4h10.17v2.25h-12.83v-20.89h12.7v2.27h-10.04v6.72h8.72v2.25H137.82z"/>
			<path class="st3" d="M163.66,248.23h3.13l-6.07,10.36l6.21,10.53h-3.1l-4.62-8.35l-4.63,8.35h-3.14l6.23-10.53l-6.07-10.36h3.11
				l4.45,8.19L163.66,248.23z"/>
			<path class="st3" d="M183.46,262.38c0,0.98-0.17,1.89-0.52,2.74c-0.34,0.85-0.82,1.59-1.42,2.22c-0.6,0.64-1.32,1.15-2.15,1.51
				c-0.83,0.37-1.75,0.55-2.74,0.55c-1.01,0-1.94-0.18-2.77-0.54c-0.83-0.36-1.55-0.87-2.14-1.51c-0.59-0.63-1.06-1.38-1.39-2.23
				c-0.33-0.86-0.51-1.77-0.52-2.75l0.03-14.15h2.53l0.06,14.15c0.01,0.62,0.11,1.22,0.29,1.79c0.19,0.57,0.46,1.08,0.81,1.52
				c0.34,0.44,0.78,0.79,1.3,1.06c0.52,0.27,1.12,0.4,1.8,0.4c0.68,0,1.28-0.13,1.79-0.39c0.52-0.26,0.95-0.62,1.31-1.07
				c0.34-0.44,0.61-0.95,0.79-1.52c0.18-0.57,0.28-1.17,0.3-1.79l0.04-14.15h2.57L183.46,262.38z"/>
			<path class="st3" d="M190.96,263.71l-1.68,5.41h-2.65l6.74-20.89h2.22l6.63,20.89h-2.64l-1.65-5.41H190.96z M197.23,261.4
				l-2.76-9.07l-2.8,9.07H197.23z"/>
			<path class="st3" d="M218.81,266.87v2.25h-12.87v-20.89h2.65v18.64H218.81z"/>
			<path class="st3" d="M243.86,263.71l-1.68,5.41h-2.65l6.74-20.89h2.22l6.63,20.89h-2.64l-1.65-5.41H243.86z M250.13,261.4
				l-2.76-9.07l-2.8,9.07H250.13z"/>
			<path class="st3" d="M271.29,265.5c-0.37,0.81-0.86,1.5-1.45,2.07c-0.6,0.58-1.31,1.04-2.13,1.36c-0.82,0.32-1.73,0.48-2.73,0.48
				c-0.86,0-1.64-0.12-2.35-0.37s-1.33-0.58-1.87-1.01c-0.56-0.43-1.03-0.94-1.43-1.52c-0.4-0.58-0.72-1.22-0.98-1.91
				c-0.27-0.69-0.47-1.41-0.6-2.17c-0.13-0.75-0.2-1.52-0.21-2.3v-2.91c0.01-0.77,0.08-1.54,0.21-2.3c0.13-0.75,0.33-1.48,0.6-2.17
				c0.26-0.69,0.59-1.33,0.98-1.92c0.4-0.59,0.87-1.1,1.43-1.53c0.54-0.43,1.17-0.77,1.87-1.01s1.48-0.37,2.35-0.37
				c1.04,0,1.98,0.16,2.8,0.48c0.82,0.32,1.53,0.77,2.12,1.36c0.59,0.59,1.07,1.3,1.43,2.12c0.36,0.82,0.6,1.73,0.71,2.73h-2.65
				c-0.09-0.63-0.23-1.22-0.44-1.77c-0.21-0.54-0.49-1.02-0.85-1.43s-0.79-0.73-1.3-0.97c-0.51-0.23-1.12-0.35-1.82-0.35
				c-0.63,0-1.19,0.1-1.67,0.31s-0.9,0.49-1.24,0.84c-0.35,0.35-0.65,0.76-0.88,1.23c-0.23,0.47-0.42,0.97-0.57,1.49
				c-0.14,0.53-0.25,1.06-0.31,1.61c-0.06,0.55-0.09,1.08-0.09,1.6v2.94c0,0.52,0.03,1.05,0.09,1.6c0.06,0.55,0.17,1.09,0.31,1.61
				c0.14,0.54,0.33,1.04,0.56,1.51s0.52,0.88,0.88,1.23c0.35,0.36,0.77,0.65,1.25,0.85s1.04,0.31,1.68,0.31
				c0.7,0,1.3-0.11,1.82-0.33c0.51-0.22,0.94-0.53,1.3-0.93c0.35-0.39,0.64-0.86,0.85-1.4c0.21-0.54,0.36-1.13,0.44-1.76h2.65
				C271.91,263.8,271.66,264.69,271.29,265.5z"/>
			<path class="st3" d="M283.77,250.5v18.63h-2.58V250.5h-6.46v-2.27h15.5v2.27H283.77z"/>
			<path class="st3" d="M306.4,248.23v2.31h-5.01v16.29h5.01v2.3h-12.63v-2.3h4.89v-16.29h-4.89v-2.31H306.4z"/>
			<path class="st3" d="M309.93,248.23h2.84l4.59,15.6l0.3,1.02l0.32-1.05l4.62-15.57h2.83l-6.59,20.89h-2.31L309.93,248.23z"/>
			<path class="st3" d="M341.67,248.23v2.31h-5.01v16.29h5.01v2.3h-12.63v-2.3h4.89v-16.29h-4.89v-2.31H341.67z"/>
			<path class="st3" d="M354.31,250.5v18.63h-2.58V250.5h-6.46v-2.27h15.5v2.27H354.31z"/>
			<path class="st3" d="M375.24,248.23h3.01l-6.5,13.1l-0.04,7.79h-2.47l-0.04-7.79l-6.5-13.1h3.03l4.75,10.49L375.24,248.23z"/>
			<path class="st3" d="M398.14,248.23h2.53l1.51,14.41l0.09,0.83l0.16-0.86l2.53-14.38h2.31l2.54,14.39l0.16,0.85l0.09-0.86
				l1.51-14.38h2.51l-2.54,20.89h-2.71l-2.54-14.87l-0.14-0.88l-0.16,0.89l-2.55,14.85h-2.73L398.14,248.23z"/>
			<path class="st3" d="M429.85,248.23v2.31h-5.01v16.29h5.01v2.3h-12.63v-2.3h4.89v-16.29h-4.89v-2.31H429.85z"/>
			<path class="st3" d="M442.5,250.5v18.63h-2.58V250.5h-6.46v-2.27h15.5v2.27H442.5z"/>
			<path class="st3" d="M463.09,269.12v-9.66h-8.57v9.66h-2.5v-20.89h2.5v8.98h8.57v-8.98h2.51v20.89H463.09z"/>
			<path class="st3" d="M501.17,262.14c-0.12,0.76-0.3,1.5-0.55,2.2s-0.57,1.37-0.95,1.98s-0.85,1.15-1.38,1.61
				c-0.54,0.46-1.15,0.82-1.84,1.08c-0.69,0.26-1.47,0.39-2.33,0.39s-1.64-0.13-2.33-0.39c-0.69-0.26-1.31-0.62-1.84-1.08
				c-0.54-0.46-1-1-1.39-1.61c-0.39-0.62-0.71-1.28-0.96-1.99c-0.26-0.71-0.45-1.44-0.57-2.2c-0.12-0.76-0.19-1.51-0.2-2.25v-2.38
				c0.01-0.75,0.07-1.5,0.19-2.26c0.12-0.76,0.31-1.49,0.57-2.2c0.25-0.71,0.57-1.37,0.96-1.99c0.39-0.62,0.85-1.16,1.38-1.63
				c0.54-0.46,1.15-0.82,1.84-1.08c0.69-0.26,1.47-0.39,2.33-0.39c0.86,0,1.64,0.13,2.34,0.39c0.7,0.26,1.32,0.62,1.85,1.08
				c0.54,0.46,1,1,1.38,1.61c0.39,0.62,0.71,1.28,0.97,1.99c0.25,0.71,0.43,1.44,0.55,2.21c0.12,0.77,0.18,1.52,0.19,2.27v2.38
				C501.35,260.63,501.28,261.38,501.17,262.14z M498.63,255.91c-0.06-0.54-0.15-1.08-0.29-1.61c-0.14-0.53-0.33-1.03-0.56-1.51
				c-0.23-0.48-0.52-0.91-0.86-1.29c-0.34-0.36-0.75-0.65-1.22-0.87c-0.47-0.21-1.01-0.32-1.64-0.32c-0.61,0-1.15,0.11-1.62,0.33
				c-0.47,0.22-0.88,0.51-1.22,0.88c-0.34,0.37-0.63,0.8-0.86,1.28c-0.23,0.48-0.41,0.99-0.54,1.51c-0.14,0.54-0.25,1.07-0.31,1.62
				c-0.06,0.54-0.1,1.05-0.11,1.54v2.41c0.01,0.49,0.04,1,0.11,1.55c0.06,0.54,0.17,1.08,0.31,1.61c0.14,0.54,0.33,1.05,0.56,1.54
				s0.52,0.91,0.86,1.28c0.34,0.37,0.75,0.67,1.22,0.89s1.01,0.33,1.64,0.33s1.17-0.11,1.64-0.33c0.47-0.22,0.88-0.52,1.23-0.89
				c0.33-0.36,0.61-0.79,0.84-1.27c0.23-0.48,0.41-0.99,0.55-1.53c0.13-0.53,0.23-1.06,0.28-1.61c0.05-0.55,0.08-1.07,0.09-1.56
				v-2.41C498.72,256.97,498.69,256.45,498.63,255.91z"/>
			<path class="st3" d="M515.79,269.12l-8.11-15.61l-0.04,15.61h-2.68v-20.89h2.7l8.11,15.58l0.04-15.58h2.68v20.89H515.79z"/>
			<path class="st3" d="M525.81,259.46v7.4h10.17v2.25h-12.83v-20.89h12.7v2.27h-10.04v6.72h8.72v2.25H525.81z"/>
			<path class="st3" d="M571.71,262.14c-0.12,0.76-0.3,1.5-0.55,2.2s-0.57,1.37-0.95,1.98s-0.85,1.15-1.38,1.61
				c-0.54,0.46-1.15,0.82-1.84,1.08c-0.69,0.26-1.47,0.39-2.33,0.39s-1.64-0.13-2.33-0.39c-0.69-0.26-1.31-0.62-1.84-1.08
				c-0.54-0.46-1-1-1.39-1.61c-0.39-0.62-0.71-1.28-0.96-1.99c-0.26-0.71-0.45-1.44-0.57-2.2c-0.12-0.76-0.19-1.51-0.2-2.25v-2.38
				c0.01-0.75,0.07-1.5,0.19-2.26c0.12-0.76,0.31-1.49,0.57-2.2c0.25-0.71,0.57-1.37,0.96-1.99c0.39-0.62,0.85-1.16,1.38-1.63
				c0.54-0.46,1.15-0.82,1.84-1.08c0.69-0.26,1.47-0.39,2.33-0.39c0.86,0,1.64,0.13,2.34,0.39c0.7,0.26,1.32,0.62,1.85,1.08
				c0.54,0.46,1,1,1.38,1.61c0.39,0.62,0.71,1.28,0.97,1.99c0.25,0.71,0.43,1.44,0.55,2.21c0.12,0.77,0.18,1.52,0.19,2.27v2.38
				C571.89,260.63,571.83,261.38,571.71,262.14z M569.18,255.91c-0.06-0.54-0.15-1.08-0.29-1.61c-0.14-0.53-0.33-1.03-0.56-1.51
				c-0.23-0.48-0.52-0.91-0.86-1.29c-0.34-0.36-0.75-0.65-1.22-0.87c-0.47-0.21-1.01-0.32-1.64-0.32c-0.61,0-1.15,0.11-1.62,0.33
				c-0.47,0.22-0.88,0.51-1.22,0.88c-0.34,0.37-0.63,0.8-0.86,1.28c-0.23,0.48-0.41,0.99-0.54,1.51c-0.14,0.54-0.25,1.07-0.31,1.62
				c-0.06,0.54-0.1,1.05-0.11,1.54v2.41c0.01,0.49,0.04,1,0.11,1.55c0.06,0.54,0.17,1.08,0.31,1.61c0.14,0.54,0.33,1.05,0.56,1.54
				s0.52,0.91,0.86,1.28c0.34,0.37,0.75,0.67,1.22,0.89s1.01,0.33,1.64,0.33s1.17-0.11,1.64-0.33c0.47-0.22,0.88-0.52,1.23-0.89
				c0.33-0.36,0.61-0.79,0.84-1.27c0.23-0.48,0.41-0.99,0.55-1.53c0.13-0.53,0.23-1.06,0.28-1.61c0.05-0.55,0.08-1.07,0.09-1.56
				v-2.41C569.27,256.97,569.23,256.45,569.18,255.91z"/>
			<path class="st3" d="M578.69,260.6v8.52h-2.64v-20.89h6.13c0.98,0.02,1.89,0.16,2.75,0.42c0.86,0.26,1.62,0.65,2.27,1.16
				c0.64,0.52,1.15,1.17,1.51,1.95c0.37,0.78,0.55,1.7,0.55,2.75c0,0.68-0.1,1.3-0.29,1.87s-0.47,1.08-0.81,1.54
				c-0.34,0.46-0.76,0.87-1.23,1.22c-0.48,0.35-1,0.66-1.58,0.9l4.43,8.93l-0.01,0.17h-2.8l-4.1-8.52H578.69z M582.25,258.42
				c0.59-0.01,1.15-0.1,1.68-0.28c0.53-0.18,0.99-0.43,1.39-0.77c0.39-0.33,0.7-0.74,0.93-1.23s0.34-1.04,0.34-1.67
				c0-0.67-0.11-1.26-0.33-1.76s-0.53-0.93-0.92-1.27c-0.39-0.33-0.86-0.59-1.4-0.76c-0.54-0.17-1.13-0.26-1.77-0.27h-3.49v8.01
				H582.25z"/>
			<path class="st3" d="M611.19,248.23h6.21c0.86,0.01,1.7,0.12,2.53,0.34c0.82,0.22,1.55,0.55,2.2,1c0.64,0.45,1.15,1.02,1.54,1.72
				c0.38,0.7,0.57,1.54,0.56,2.51c-0.01,0.55-0.1,1.04-0.27,1.49c-0.17,0.45-0.39,0.85-0.68,1.21c-0.3,0.36-0.62,0.67-0.98,0.92
				c-0.36,0.25-0.79,0.48-1.3,0.7v0.04c0.53,0.12,1.03,0.35,1.52,0.67c0.49,0.33,0.89,0.68,1.21,1.08c0.33,0.43,0.59,0.91,0.78,1.45
				c0.19,0.54,0.28,1.12,0.28,1.74c0.01,0.98-0.18,1.84-0.56,2.58s-0.89,1.37-1.54,1.87c-0.64,0.51-1.38,0.89-2.22,1.16
				s-1.7,0.41-2.59,0.42h-6.69V248.23z M617.56,257.14c0.5-0.01,0.99-0.09,1.46-0.24c0.48-0.15,0.9-0.37,1.28-0.65
				c0.37-0.28,0.67-0.62,0.9-1.03c0.23-0.41,0.34-0.89,0.34-1.43c0-0.58-0.11-1.08-0.34-1.49c-0.22-0.41-0.52-0.75-0.9-1.02
				c-0.38-0.26-0.82-0.45-1.31-0.57c-0.49-0.12-1-0.19-1.51-0.2h-3.63v6.64H617.56z M613.86,266.87h4.09
				c0.55-0.01,1.08-0.1,1.58-0.28c0.5-0.18,0.94-0.42,1.32-0.74c0.38-0.32,0.69-0.7,0.91-1.16c0.22-0.46,0.34-0.98,0.34-1.56
				c0.01-0.59-0.09-1.12-0.29-1.58c-0.21-0.46-0.49-0.85-0.85-1.18c-0.36-0.32-0.79-0.56-1.28-0.73c-0.49-0.17-1.01-0.27-1.58-0.29
				h-4.23V266.87z"/>
			<path class="st3" d="M642.25,262.14c-0.12,0.76-0.3,1.5-0.55,2.2s-0.57,1.37-0.95,1.98s-0.85,1.15-1.38,1.61
				c-0.54,0.46-1.15,0.82-1.84,1.08c-0.69,0.26-1.47,0.39-2.33,0.39s-1.64-0.13-2.33-0.39c-0.69-0.26-1.31-0.62-1.84-1.08
				c-0.54-0.46-1-1-1.39-1.61c-0.39-0.62-0.71-1.28-0.96-1.99c-0.26-0.71-0.45-1.44-0.57-2.2c-0.12-0.76-0.19-1.51-0.2-2.25v-2.38
				c0.01-0.75,0.07-1.5,0.19-2.26c0.12-0.76,0.31-1.49,0.57-2.2c0.25-0.71,0.57-1.37,0.96-1.99c0.39-0.62,0.85-1.16,1.38-1.63
				c0.54-0.46,1.15-0.82,1.84-1.08c0.69-0.26,1.47-0.39,2.33-0.39c0.86,0,1.64,0.13,2.34,0.39c0.7,0.26,1.32,0.62,1.85,1.08
				c0.54,0.46,1,1,1.38,1.61c0.39,0.62,0.71,1.28,0.97,1.99c0.25,0.71,0.43,1.44,0.55,2.21c0.12,0.77,0.18,1.52,0.19,2.27v2.38
				C642.44,260.63,642.37,261.38,642.25,262.14z M639.72,255.91c-0.06-0.54-0.15-1.08-0.29-1.61c-0.14-0.53-0.33-1.03-0.56-1.51
				c-0.23-0.48-0.52-0.91-0.86-1.29c-0.34-0.36-0.75-0.65-1.22-0.87c-0.47-0.21-1.01-0.32-1.64-0.32c-0.61,0-1.15,0.11-1.62,0.33
				c-0.47,0.22-0.88,0.51-1.22,0.88c-0.34,0.37-0.63,0.8-0.86,1.28c-0.23,0.48-0.41,0.99-0.54,1.51c-0.14,0.54-0.25,1.07-0.31,1.62
				c-0.06,0.54-0.1,1.05-0.11,1.54v2.41c0.01,0.49,0.04,1,0.11,1.55c0.06,0.54,0.17,1.08,0.31,1.61c0.14,0.54,0.33,1.05,0.56,1.54
				s0.52,0.91,0.86,1.28c0.34,0.37,0.75,0.67,1.22,0.89s1.01,0.33,1.64,0.33s1.17-0.11,1.64-0.33c0.47-0.22,0.88-0.52,1.23-0.89
				c0.33-0.36,0.61-0.79,0.84-1.27c0.23-0.48,0.41-0.99,0.55-1.53c0.13-0.53,0.23-1.06,0.28-1.61c0.05-0.55,0.08-1.07,0.09-1.56
				v-2.41C639.81,256.97,639.78,256.45,639.72,255.91z"/>
			<path class="st3" d="M654.13,250.5v18.63h-2.58V250.5h-6.46v-2.27h15.5v2.27H654.13z"/>
			<path class="st3" d="M674.72,269.12v-9.66h-8.57v9.66h-2.5v-20.89h2.5v8.98h8.57v-8.98h2.51v20.89H674.72z"/>
			<path class="st3" d="M702.4,263.71l-1.68,5.41h-2.66l6.75-20.89h2.22l6.63,20.89h-2.64l-1.65-5.41H702.4z M708.67,261.4
				l-2.75-9.07l-2.8,9.07H708.67z"/>
			<path class="st3" d="M719.78,260.6v8.52h-2.64v-20.89h6.13c0.98,0.02,1.89,0.16,2.75,0.42c0.86,0.26,1.62,0.65,2.27,1.16
				c0.64,0.52,1.15,1.17,1.51,1.95c0.37,0.78,0.55,1.7,0.55,2.75c0,0.68-0.1,1.3-0.29,1.87s-0.47,1.08-0.81,1.54
				c-0.34,0.46-0.76,0.87-1.23,1.22c-0.48,0.35-1,0.66-1.58,0.9l4.43,8.93l-0.01,0.17h-2.8l-4.1-8.52H719.78z M723.34,258.42
				c0.59-0.01,1.15-0.1,1.68-0.28c0.53-0.18,0.99-0.43,1.39-0.77c0.39-0.33,0.7-0.74,0.93-1.23s0.34-1.04,0.34-1.67
				c0-0.67-0.11-1.26-0.33-1.76s-0.53-0.93-0.92-1.27c-0.39-0.33-0.86-0.59-1.4-0.76c-0.54-0.17-1.13-0.26-1.77-0.27h-3.49v8.01
				H723.34z"/>
			<path class="st3" d="M740.99,258.68l3.67-10.45h3.3v20.89h-2.58v-8.34l0.21-8.73l-3.86,11.25h-1.52l-3.54-10.95l0.22,8.42v8.34
				h-2.58v-20.89h3.29L740.99,258.68z"/>
			<path class="st3" d="M755.21,269.12h-2.65v-20.89h6.77c0.94,0.02,1.83,0.17,2.66,0.45s1.57,0.68,2.2,1.21
				c0.63,0.53,1.13,1.18,1.5,1.95c0.37,0.78,0.55,1.67,0.55,2.67c0,1-0.18,1.89-0.55,2.66c-0.37,0.77-0.87,1.42-1.5,1.94
				c-0.63,0.53-1.37,0.93-2.2,1.21s-1.72,0.42-2.66,0.43h-4.12V269.12z M759.33,258.56c0.61-0.01,1.18-0.11,1.69-0.29
				s0.97-0.45,1.35-0.8c0.38-0.34,0.68-0.76,0.9-1.26c0.21-0.49,0.32-1.05,0.32-1.69c0-0.63-0.11-1.2-0.32-1.71
				c-0.22-0.51-0.51-0.94-0.88-1.29c-0.38-0.35-0.83-0.63-1.36-0.82c-0.52-0.19-1.09-0.29-1.7-0.3h-4.12v8.15H759.33z"/>
			<path class="st3" d="M782.57,248.23v2.31h-5.01v16.29h5.01v2.3h-12.63v-2.3h4.89v-16.29h-4.89v-2.31H782.57z"/>
			<path class="st3" d="M795.22,250.5v18.63h-2.58V250.5h-6.46v-2.27h15.5v2.27H795.22z"/>
			<path class="st3" d="M815.71,262.22c-0.29-0.44-0.67-0.81-1.13-1.12c-0.46-0.3-0.96-0.54-1.51-0.75s-1.08-0.38-1.59-0.55
				c-0.74-0.24-1.49-0.53-2.25-0.87c-0.76-0.34-1.45-0.75-2.07-1.23c-0.63-0.49-1.15-1.06-1.54-1.73c-0.4-0.66-0.6-1.45-0.6-2.35
				s0.2-1.7,0.6-2.41c0.4-0.71,0.92-1.31,1.56-1.79c0.64-0.49,1.37-0.86,2.18-1.11c0.81-0.25,1.63-0.38,2.45-0.38
				c0.91,0,1.78,0.15,2.63,0.45s1.59,0.72,2.24,1.27c0.65,0.54,1.17,1.21,1.56,1.98c0.39,0.78,0.6,1.64,0.62,2.6h-2.73
				c-0.08-0.6-0.22-1.15-0.44-1.64c-0.22-0.49-0.51-0.92-0.88-1.27c-0.36-0.35-0.8-0.63-1.3-0.83c-0.5-0.2-1.07-0.29-1.7-0.29
				c-0.51,0-1,0.07-1.49,0.21c-0.48,0.14-0.91,0.36-1.28,0.65c-0.38,0.29-0.69,0.64-0.91,1.06s-0.34,0.91-0.34,1.46
				c0.01,0.6,0.16,1.11,0.46,1.53s0.67,0.77,1.13,1.05c0.45,0.29,0.94,0.53,1.47,0.72c0.53,0.19,1.03,0.36,1.5,0.5
				c0.77,0.24,1.55,0.53,2.32,0.87c0.78,0.34,1.48,0.77,2.12,1.3c0.63,0.49,1.14,1.09,1.53,1.79c0.39,0.71,0.58,1.53,0.58,2.45
				c0,0.94-0.21,1.76-0.62,2.45s-0.96,1.28-1.61,1.74c-0.66,0.47-1.41,0.82-2.24,1.05c-0.83,0.23-1.66,0.35-2.5,0.35
				c-1,0-1.97-0.17-2.93-0.5c-0.96-0.33-1.8-0.82-2.5-1.45c-0.63-0.54-1.13-1.18-1.5-1.92c-0.37-0.73-0.57-1.55-0.6-2.45h2.71
				c0.09,0.65,0.26,1.23,0.53,1.73c0.27,0.5,0.61,0.93,1.03,1.27c0.42,0.35,0.91,0.62,1.46,0.8c0.55,0.18,1.15,0.27,1.8,0.27
				c0.52,0,1.03-0.06,1.53-0.19c0.5-0.13,0.95-0.33,1.34-0.61c0.39-0.27,0.71-0.61,0.96-1.03c0.25-0.42,0.37-0.91,0.37-1.49
				C816.15,263.2,816.01,262.66,815.71,262.22z"/>
			<path class="st3" d="M832.22,264.64c-0.22,1.21-0.5,2.32-0.87,3.34c-0.36,1.03-0.78,1.97-1.26,2.82s-0.97,1.6-1.49,2.26
				c-0.53,0.67-1.05,1.24-1.58,1.7c-0.53,0.46-1.04,0.83-1.51,1.1l-0.56-1.62c0.4-0.3,0.81-0.68,1.22-1.15s0.8-1.01,1.18-1.62
				c0.35-0.62,0.7-1.32,1.03-2.1s0.6-1.63,0.81-2.56c0.22-0.86,0.39-1.79,0.51-2.79c0.12-1,0.18-2.07,0.18-3.21v-0.2
				c0-1.29-0.08-2.46-0.24-3.52c-0.16-1.05-0.33-1.95-0.52-2.68c-0.28-1.05-0.61-2-1-2.83c-0.39-0.84-0.79-1.57-1.21-2.19
				c-0.32-0.49-0.64-0.92-0.98-1.28s-0.66-0.68-0.98-0.94l0.56-1.62c0.48,0.27,0.99,0.64,1.52,1.11c0.54,0.47,1.06,1.03,1.58,1.69
				c0.54,0.68,1.04,1.43,1.51,2.27c0.47,0.83,0.88,1.77,1.23,2.81c0.34,1,0.63,2.09,0.85,3.26c0.22,1.17,0.34,2.49,0.34,3.95v0.14
				C832.54,262.15,832.43,263.44,832.22,264.64z"/>
			<path class="st3" d="M845.63,265.95c0.34-0.4,0.87-0.6,1.56-0.6c0.69,0,1.21,0.2,1.57,0.6c0.36,0.4,0.54,0.88,0.54,1.46
				c0,0.56-0.18,1.04-0.54,1.42c-0.36,0.38-0.88,0.57-1.56,0.57c-0.69,0-1.21-0.19-1.56-0.58c-0.35-0.39-0.52-0.86-0.52-1.41
				C845.11,266.84,845.28,266.35,845.63,265.95z"/>
		</g>
	</g>
</g>
</svg>
