<?xml version="1.0" encoding="utf-8"?>
<!-- Generator: Adobe Illustrator 28.2.0, SVG Export Plug-In . SVG Version: 6.00 Build 0)  -->
<svg version="1.1" id="Layer_1" xmlns="http://www.w3.org/2000/svg" xmlns:xlink="http://www.w3.org/1999/xlink" x="0px" y="0px"
	 viewBox="0 0 900 380" style="enable-background:new 0 0 900 380;" xml:space="preserve">
<style type="text/css">
	.st0{fill:#FF1A56;}
	.st1{font-family:'SuisseWorks-RegularItalic_LD-V1Regular';}
	.st2{font-size:169.9853px;}
	.st3{letter-spacing:-1;}
	.st4{fill:#1717E2;}
</style>
<g>
	<text transform="matrix(1 0 0 1 53.0066 245.8222)" class="st0 st1 st2 st3">Auralism.</text>
</g>
<g>
	<g>
		<g>
			<path class="st4" d="M80.05,84.98L77,72.53l-2.17,12.45h-3.62l3.31-19.11h3.56l3,12.4l2.18-12.4h3.61l-3.32,19.11H80.05z"/>
			<path class="st4" d="M100.98,78.93c-0.22,0.7-0.49,1.36-0.83,1.99c-0.34,0.63-0.74,1.21-1.19,1.75c-0.45,0.54-0.96,1-1.53,1.38
				c-0.57,0.38-1.19,0.68-1.88,0.89c-0.68,0.21-1.43,0.31-2.23,0.29c-0.76-0.02-1.44-0.15-2.03-0.39c-0.59-0.24-1.1-0.57-1.53-0.98
				c-0.44-0.4-0.8-0.87-1.08-1.41c-0.28-0.54-0.49-1.12-0.64-1.74c-0.15-0.61-0.24-1.25-0.26-1.92c-0.03-0.66,0-1.33,0.09-1.98
				l0.43-2.78c0.1-0.7,0.26-1.4,0.48-2.09c0.21-0.7,0.48-1.36,0.81-1.99c0.31-0.63,0.69-1.22,1.13-1.76
				c0.44-0.54,0.93-1.01,1.48-1.4c0.55-0.38,1.16-0.68,1.84-0.9s1.41-0.31,2.2-0.3c0.77,0.02,1.45,0.14,2.05,0.38
				c0.6,0.24,1.13,0.56,1.58,0.96c0.45,0.41,0.82,0.89,1.12,1.42s0.53,1.11,0.7,1.73c0.16,0.62,0.25,1.27,0.29,1.94
				c0.03,0.67,0.01,1.34-0.08,2.01l-0.43,2.77C101.36,77.53,101.19,78.23,100.98,78.93z M98.36,72.95c0.03-0.38,0.03-0.77,0.01-1.17
				c-0.03-0.38-0.08-0.76-0.17-1.13c-0.09-0.37-0.22-0.7-0.41-0.98s-0.42-0.52-0.72-0.71s-0.67-0.28-1.12-0.3
				c-0.48-0.02-0.91,0.05-1.27,0.2c-0.37,0.15-0.69,0.37-0.96,0.64c-0.28,0.28-0.52,0.6-0.72,0.96c-0.2,0.36-0.37,0.75-0.5,1.15
				c-0.14,0.4-0.25,0.81-0.34,1.23c-0.09,0.42-0.16,0.81-0.21,1.19l-0.43,2.82c-0.04,0.31-0.08,0.65-0.11,1.02
				c-0.03,0.38-0.04,0.76-0.03,1.15c0,0.39,0.03,0.78,0.1,1.15c0.07,0.38,0.19,0.71,0.35,1.01c0.17,0.3,0.39,0.54,0.68,0.73
				s0.65,0.29,1.1,0.31c0.47,0.02,0.9-0.05,1.27-0.2c0.38-0.15,0.71-0.37,1.01-0.64c0.29-0.27,0.54-0.59,0.76-0.96
				c0.22-0.37,0.41-0.76,0.56-1.17c0.15-0.4,0.27-0.81,0.37-1.23s0.17-0.82,0.24-1.19l0.43-2.82C98.3,73.69,98.34,73.34,98.36,72.95
				z"/>
			<path class="st4" d="M116.39,78.53c-0.15,0.99-0.42,1.9-0.8,2.73c-0.39,0.83-0.88,1.54-1.5,2.14c-0.61,0.6-1.34,1.07-2.17,1.4
				s-1.77,0.48-2.81,0.45c-0.96-0.02-1.79-0.21-2.49-0.57c-0.7-0.36-1.26-0.85-1.69-1.46c-0.43-0.6-0.73-1.31-0.89-2.11
				c-0.17-0.8-0.2-1.65-0.09-2.55l2.17-12.68h3.6l-2.13,12.68c-0.04,0.38-0.06,0.78-0.06,1.2s0.07,0.82,0.19,1.19
				c0.11,0.37,0.3,0.68,0.57,0.92c0.27,0.25,0.65,0.39,1.14,0.41c0.54,0.03,1.01-0.07,1.4-0.28c0.39-0.21,0.73-0.5,1-0.86
				c0.26-0.36,0.47-0.77,0.63-1.22c0.16-0.46,0.27-0.91,0.34-1.36l2.17-12.68h3.57L116.39,78.53z"/>
			<path class="st4" d="M127.36,84.98l-3.04-12.45l-2.17,12.45h-3.62l3.31-19.11h3.56l3,12.4l2.18-12.4h3.61l-3.32,19.11H127.36z"/>
			<path class="st4" d="M78.75,149.48v-16.01l-5,1.9v-2.22l7.23-2.78h0.2v19.11H78.75z"/>
			<path class="st4" d="M94.13,146.58c0.31-0.37,0.79-0.55,1.43-0.55c0.63,0,1.11,0.18,1.44,0.54c0.33,0.36,0.49,0.81,0.49,1.33
				c0,0.52-0.17,0.95-0.5,1.3c-0.33,0.35-0.81,0.52-1.43,0.52c-0.63,0-1.1-0.18-1.42-0.53c-0.32-0.35-0.48-0.79-0.48-1.29
				C93.65,147.39,93.81,146.95,94.13,146.58z"/>
			<path class="st4" d="M124.21,140.65v6.77h9.3v2.06h-11.73v-19.11h11.61v2.07h-9.19v6.14h7.98v2.06H124.21z"/>
			<path class="st4" d="M143.58,139.93l3.36-9.55h3.02v19.11h-2.36v-7.62l0.2-7.98l-3.53,10.29h-1.39l-3.24-10.01l0.2,7.7v7.62
				h-2.36v-19.11h3L143.58,139.93z"/>
			<path class="st4" d="M156.59,149.48h-2.43v-19.11h6.19c0.86,0.02,1.67,0.15,2.43,0.41c0.77,0.25,1.44,0.62,2.01,1.1
				c0.58,0.48,1.03,1.08,1.37,1.78c0.34,0.71,0.51,1.52,0.51,2.44c0,0.92-0.17,1.73-0.51,2.43c-0.34,0.7-0.79,1.3-1.37,1.78
				c-0.58,0.48-1.25,0.85-2.01,1.1c-0.77,0.25-1.58,0.39-2.43,0.39h-3.77V149.48z M160.35,139.82c0.56-0.01,1.08-0.1,1.55-0.27
				c0.47-0.17,0.88-0.41,1.23-0.73c0.35-0.31,0.62-0.7,0.82-1.15s0.3-0.96,0.3-1.54c0-0.58-0.1-1.1-0.3-1.56
				c-0.2-0.46-0.47-0.86-0.81-1.18c-0.35-0.32-0.76-0.57-1.24-0.75c-0.48-0.17-1-0.27-1.56-0.28h-3.77v7.45H160.35z"/>
			<path class="st4" d="M179.75,149.48v-8.83h-7.83v8.83h-2.28v-19.11h2.28v8.21h7.83v-8.21h2.3v19.11H179.75z"/>
			<path class="st4" d="M188.93,144.53l-1.54,4.95h-2.43l6.17-19.11h2.03l6.06,19.11h-2.41l-1.51-4.95H188.93z M194.67,142.42
				l-2.52-8.29l-2.56,8.29H194.67z"/>
			<path class="st4" d="M211.92,143.17c-0.27-0.4-0.61-0.74-1.03-1.02c-0.42-0.27-0.88-0.5-1.38-0.68s-0.99-0.35-1.45-0.5
				c-0.67-0.22-1.36-0.48-2.05-0.79s-1.33-0.68-1.9-1.12c-0.58-0.45-1.05-0.97-1.41-1.58c-0.36-0.61-0.54-1.32-0.54-2.15
				s0.18-1.56,0.54-2.2c0.36-0.65,0.84-1.19,1.42-1.64c0.59-0.45,1.25-0.79,1.99-1.02c0.74-0.23,1.49-0.35,2.24-0.35
				c0.83,0,1.63,0.14,2.4,0.41c0.77,0.28,1.45,0.66,2.05,1.16s1.07,1.1,1.43,1.81c0.36,0.71,0.55,1.5,0.56,2.38h-2.49
				c-0.07-0.55-0.21-1.05-0.41-1.5s-0.47-0.84-0.8-1.16c-0.33-0.32-0.73-0.57-1.19-0.75c-0.46-0.18-0.98-0.27-1.56-0.27
				c-0.46,0-0.92,0.07-1.36,0.2c-0.44,0.13-0.83,0.33-1.17,0.59c-0.35,0.26-0.63,0.59-0.83,0.97c-0.21,0.39-0.31,0.83-0.31,1.34
				c0.01,0.55,0.15,1.02,0.42,1.4c0.27,0.38,0.62,0.7,1.04,0.96c0.41,0.26,0.86,0.48,1.35,0.66c0.49,0.17,0.94,0.33,1.37,0.46
				c0.71,0.22,1.42,0.48,2.13,0.79s1.36,0.71,1.94,1.19c0.58,0.45,1.04,0.99,1.4,1.64c0.35,0.65,0.53,1.4,0.53,2.24
				c0,0.86-0.19,1.61-0.57,2.24c-0.38,0.64-0.87,1.17-1.48,1.59c-0.6,0.43-1.29,0.75-2.05,0.96s-1.52,0.32-2.28,0.32
				c-0.91,0-1.8-0.15-2.68-0.46c-0.88-0.31-1.64-0.75-2.29-1.33c-0.58-0.5-1.03-1.08-1.37-1.75s-0.52-1.42-0.54-2.24h2.48
				c0.08,0.6,0.24,1.12,0.49,1.58c0.24,0.46,0.56,0.85,0.94,1.16c0.38,0.32,0.83,0.57,1.33,0.73c0.5,0.16,1.05,0.24,1.65,0.24
				c0.47,0,0.94-0.06,1.4-0.18c0.46-0.12,0.87-0.3,1.23-0.56c0.36-0.24,0.65-0.56,0.88-0.94s0.34-0.83,0.34-1.36
				C212.32,144.07,212.18,143.57,211.92,143.17z"/>
			<path class="st4" d="M229.99,130.38v2.11h-4.58v14.89h4.58v2.1h-11.55v-2.1h4.47v-14.89h-4.47v-2.11H229.99z"/>
			<path class="st4" d="M244.17,143.17c-0.27-0.4-0.61-0.74-1.03-1.02c-0.42-0.27-0.88-0.5-1.38-0.68s-0.99-0.35-1.45-0.5
				c-0.67-0.22-1.36-0.48-2.05-0.79s-1.33-0.68-1.9-1.12c-0.58-0.45-1.05-0.97-1.41-1.58c-0.36-0.61-0.54-1.32-0.54-2.15
				s0.18-1.56,0.54-2.2c0.36-0.65,0.84-1.19,1.42-1.64c0.59-0.45,1.25-0.79,1.99-1.02c0.74-0.23,1.49-0.35,2.24-0.35
				c0.83,0,1.63,0.14,2.4,0.41c0.77,0.28,1.45,0.66,2.05,1.16s1.07,1.1,1.43,1.81c0.36,0.71,0.55,1.5,0.56,2.38h-2.49
				c-0.07-0.55-0.21-1.05-0.41-1.5s-0.47-0.84-0.8-1.16c-0.33-0.32-0.73-0.57-1.19-0.75c-0.46-0.18-0.98-0.27-1.56-0.27
				c-0.46,0-0.92,0.07-1.36,0.2c-0.44,0.13-0.83,0.33-1.17,0.59c-0.35,0.26-0.63,0.59-0.83,0.97c-0.21,0.39-0.31,0.83-0.31,1.34
				c0.01,0.55,0.15,1.02,0.42,1.4c0.27,0.38,0.62,0.7,1.04,0.96c0.41,0.26,0.86,0.48,1.35,0.66c0.49,0.17,0.94,0.33,1.37,0.46
				c0.71,0.22,1.42,0.48,2.13,0.79s1.36,0.71,1.94,1.19c0.58,0.45,1.04,0.99,1.4,1.64c0.35,0.65,0.53,1.4,0.53,2.24
				c0,0.86-0.19,1.61-0.57,2.24c-0.38,0.64-0.87,1.17-1.48,1.59c-0.6,0.43-1.29,0.75-2.05,0.96s-1.52,0.32-2.28,0.32
				c-0.91,0-1.8-0.15-2.68-0.46c-0.88-0.31-1.64-0.75-2.29-1.33c-0.58-0.5-1.03-1.08-1.37-1.75s-0.52-1.42-0.54-2.24h2.48
				c0.08,0.6,0.24,1.12,0.49,1.58c0.24,0.46,0.56,0.85,0.94,1.16c0.38,0.32,0.83,0.57,1.33,0.73c0.5,0.16,1.05,0.24,1.65,0.24
				c0.47,0,0.94-0.06,1.4-0.18c0.46-0.12,0.87-0.3,1.23-0.56c0.36-0.24,0.65-0.56,0.88-0.94s0.34-0.83,0.34-1.36
				C244.57,144.07,244.44,143.57,244.17,143.17z"/>
			<path class="st4" d="M279.07,143.1c-0.11,0.7-0.28,1.37-0.51,2.01s-0.52,1.25-0.87,1.81c-0.35,0.56-0.78,1.05-1.27,1.47
				c-0.49,0.42-1.05,0.75-1.69,0.99c-0.63,0.24-1.34,0.36-2.13,0.36c-0.79,0-1.5-0.12-2.13-0.36c-0.63-0.24-1.2-0.57-1.69-0.99
				c-0.49-0.42-0.91-0.91-1.27-1.48c-0.36-0.56-0.65-1.17-0.88-1.82c-0.24-0.65-0.41-1.32-0.52-2.01c-0.11-0.69-0.18-1.38-0.18-2.06
				v-2.18c0.01-0.68,0.07-1.37,0.18-2.07c0.11-0.7,0.28-1.37,0.52-2.01c0.23-0.65,0.52-1.25,0.87-1.82
				c0.35-0.56,0.78-1.06,1.27-1.49c0.49-0.42,1.05-0.75,1.69-0.99c0.63-0.24,1.34-0.36,2.13-0.36c0.79,0,1.5,0.12,2.14,0.36
				c0.64,0.24,1.2,0.57,1.69,0.99c0.49,0.42,0.91,0.91,1.27,1.48c0.35,0.56,0.65,1.17,0.89,1.82c0.23,0.65,0.4,1.32,0.51,2.02
				c0.11,0.7,0.17,1.39,0.18,2.07v2.18C279.24,141.71,279.18,142.4,279.07,143.1z M276.76,137.4c-0.05-0.49-0.14-0.99-0.26-1.48
				c-0.13-0.48-0.3-0.94-0.51-1.38c-0.21-0.44-0.47-0.83-0.79-1.17c-0.31-0.33-0.69-0.6-1.12-0.79s-0.93-0.3-1.5-0.3
				c-0.56,0-1.05,0.1-1.48,0.3s-0.8,0.47-1.12,0.8c-0.31,0.34-0.58,0.73-0.79,1.17c-0.21,0.44-0.38,0.9-0.5,1.38
				c-0.13,0.49-0.23,0.98-0.28,1.48s-0.09,0.96-0.1,1.41v2.2c0.01,0.45,0.04,0.92,0.1,1.42c0.06,0.5,0.15,0.99,0.28,1.47
				c0.13,0.49,0.3,0.96,0.51,1.4s0.47,0.84,0.79,1.17c0.31,0.34,0.69,0.61,1.12,0.81c0.43,0.2,0.93,0.3,1.5,0.3
				c0.57,0,1.07-0.1,1.5-0.3c0.43-0.2,0.81-0.47,1.12-0.81c0.31-0.33,0.56-0.72,0.77-1.16c0.21-0.44,0.37-0.91,0.51-1.4
				c0.12-0.48,0.21-0.97,0.26-1.47c0.05-0.5,0.08-0.98,0.09-1.43v-2.2C276.84,138.37,276.81,137.9,276.76,137.4z"/>
			<path class="st4" d="M292.45,149.48l-7.41-14.28L285,149.48h-2.45v-19.11h2.47l7.41,14.25l0.04-14.25h2.45v19.11H292.45z"/>
			<path class="st4" d="M322.19,132.45v17.03h-2.36v-17.03h-5.91v-2.07h14.17v2.07H322.19z"/>
			<path class="st4" d="M341.02,149.48v-8.83h-7.83v8.83h-2.28v-19.11h2.28v8.21h7.83v-8.21h2.3v19.11H341.02z"/>
			<path class="st4" d="M349.99,140.65v6.77h9.3v2.06h-11.73v-19.11h11.61v2.07h-9.19v6.14h7.98v2.06H349.99z"/>
			<path class="st4" d="M389.31,143.17c-0.27-0.4-0.61-0.74-1.03-1.02c-0.42-0.27-0.88-0.5-1.38-0.68s-0.99-0.35-1.45-0.5
				c-0.67-0.22-1.36-0.48-2.05-0.79s-1.33-0.68-1.9-1.12c-0.58-0.45-1.05-0.97-1.41-1.58c-0.36-0.61-0.54-1.32-0.54-2.15
				s0.18-1.56,0.54-2.2c0.36-0.65,0.84-1.19,1.42-1.64c0.59-0.45,1.25-0.79,1.99-1.02c0.74-0.23,1.49-0.35,2.24-0.35
				c0.83,0,1.63,0.14,2.4,0.41c0.77,0.28,1.45,0.66,2.05,1.16s1.07,1.1,1.43,1.81c0.36,0.71,0.55,1.5,0.56,2.38h-2.49
				c-0.07-0.55-0.21-1.05-0.41-1.5s-0.47-0.84-0.8-1.16c-0.33-0.32-0.73-0.57-1.19-0.75c-0.46-0.18-0.98-0.27-1.56-0.27
				c-0.46,0-0.92,0.07-1.36,0.2c-0.44,0.13-0.83,0.33-1.17,0.59c-0.35,0.26-0.63,0.59-0.83,0.97c-0.21,0.39-0.31,0.83-0.31,1.34
				c0.01,0.55,0.15,1.02,0.42,1.4c0.27,0.38,0.62,0.7,1.04,0.96c0.41,0.26,0.86,0.48,1.35,0.66c0.49,0.17,0.94,0.33,1.37,0.46
				c0.71,0.22,1.42,0.48,2.13,0.79s1.36,0.71,1.94,1.19c0.58,0.45,1.04,0.99,1.4,1.64c0.35,0.65,0.53,1.4,0.53,2.24
				c0,0.86-0.19,1.61-0.57,2.24c-0.38,0.64-0.87,1.17-1.48,1.59c-0.6,0.43-1.29,0.75-2.05,0.96s-1.52,0.32-2.28,0.32
				c-0.91,0-1.8-0.15-2.68-0.46c-0.88-0.31-1.64-0.75-2.29-1.33c-0.58-0.5-1.03-1.08-1.37-1.75s-0.52-1.42-0.54-2.24h2.48
				c0.08,0.6,0.24,1.12,0.49,1.58c0.24,0.46,0.56,0.85,0.94,1.16c0.38,0.32,0.83,0.57,1.33,0.73c0.5,0.16,1.05,0.24,1.65,0.24
				c0.47,0,0.94-0.06,1.4-0.18c0.46-0.12,0.87-0.3,1.23-0.56c0.36-0.24,0.65-0.56,0.88-0.94s0.34-0.83,0.34-1.36
				C389.71,144.07,389.58,143.57,389.31,143.17z"/>
			<path class="st4" d="M398.37,140.65v6.77h9.3v2.06h-11.73v-19.11h11.61v2.07h-9.19v6.14h7.98v2.06H398.37z"/>
			<path class="st4" d="M421.47,149.48l-7.41-14.28l-0.04,14.28h-2.45v-19.11h2.47l7.41,14.25l0.04-14.25h2.45v19.11H421.47z"/>
			<path class="st4" d="M437.69,143.17c-0.27-0.4-0.61-0.74-1.03-1.02c-0.42-0.27-0.88-0.5-1.38-0.68s-0.99-0.35-1.45-0.5
				c-0.67-0.22-1.36-0.48-2.05-0.79s-1.33-0.68-1.9-1.12c-0.58-0.45-1.05-0.97-1.41-1.58c-0.36-0.61-0.54-1.32-0.54-2.15
				s0.18-1.56,0.54-2.2c0.36-0.65,0.84-1.19,1.42-1.64c0.59-0.45,1.25-0.79,1.99-1.02c0.74-0.23,1.49-0.35,2.24-0.35
				c0.83,0,1.63,0.14,2.4,0.41c0.77,0.28,1.45,0.66,2.05,1.16s1.07,1.1,1.43,1.81c0.36,0.71,0.55,1.5,0.56,2.38h-2.49
				c-0.07-0.55-0.21-1.05-0.41-1.5s-0.47-0.84-0.8-1.16c-0.33-0.32-0.73-0.57-1.19-0.75c-0.46-0.18-0.98-0.27-1.56-0.27
				c-0.46,0-0.92,0.07-1.36,0.2c-0.44,0.13-0.83,0.33-1.17,0.59c-0.35,0.26-0.63,0.59-0.83,0.97c-0.21,0.39-0.31,0.83-0.31,1.34
				c0.01,0.55,0.15,1.02,0.42,1.4c0.27,0.38,0.62,0.7,1.04,0.96c0.41,0.26,0.86,0.48,1.35,0.66c0.49,0.17,0.94,0.33,1.37,0.46
				c0.71,0.22,1.42,0.48,2.13,0.79s1.36,0.71,1.94,1.19c0.58,0.45,1.04,0.99,1.4,1.64c0.35,0.65,0.53,1.4,0.53,2.24
				c0,0.86-0.19,1.61-0.57,2.24c-0.38,0.64-0.87,1.17-1.48,1.59c-0.6,0.43-1.29,0.75-2.05,0.96s-1.52,0.32-2.28,0.32
				c-0.91,0-1.8-0.15-2.68-0.46c-0.88-0.31-1.64-0.75-2.29-1.33c-0.58-0.5-1.03-1.08-1.37-1.75s-0.52-1.42-0.54-2.24h2.48
				c0.08,0.6,0.24,1.12,0.49,1.58c0.24,0.46,0.56,0.85,0.94,1.16c0.38,0.32,0.83,0.57,1.33,0.73c0.5,0.16,1.05,0.24,1.65,0.24
				c0.47,0,0.94-0.06,1.4-0.18c0.46-0.12,0.87-0.3,1.23-0.56c0.36-0.24,0.65-0.56,0.88-0.94s0.34-0.83,0.34-1.36
				C438.09,144.07,437.96,143.57,437.69,143.17z"/>
			<path class="st4" d="M446.75,140.65v6.77h9.3v2.06h-11.73v-19.11h11.61v2.07h-9.18v6.14h7.98v2.06H446.75z"/>
			<path class="st4" d="M488.72,143.1c-0.11,0.7-0.28,1.37-0.5,2.01c-0.23,0.65-0.52,1.25-0.87,1.81c-0.35,0.56-0.78,1.05-1.27,1.47
				c-0.49,0.42-1.05,0.75-1.69,0.99c-0.63,0.24-1.34,0.36-2.13,0.36c-0.79,0-1.5-0.12-2.13-0.36c-0.63-0.24-1.2-0.57-1.69-0.99
				c-0.49-0.42-0.92-0.91-1.27-1.48c-0.36-0.56-0.65-1.17-0.88-1.82c-0.24-0.65-0.41-1.32-0.53-2.01c-0.11-0.69-0.18-1.38-0.18-2.06
				v-2.18c0.01-0.68,0.07-1.37,0.18-2.07c0.11-0.7,0.28-1.37,0.52-2.01c0.23-0.65,0.52-1.25,0.87-1.82
				c0.35-0.56,0.78-1.06,1.27-1.49c0.49-0.42,1.05-0.75,1.69-0.99c0.63-0.24,1.35-0.36,2.13-0.36s1.5,0.12,2.14,0.36
				c0.64,0.24,1.2,0.57,1.69,0.99s0.91,0.91,1.27,1.48c0.36,0.56,0.65,1.17,0.89,1.82c0.23,0.65,0.39,1.32,0.5,2.02
				c0.11,0.7,0.17,1.39,0.18,2.07v2.18C488.89,141.71,488.83,142.4,488.72,143.1z M486.41,137.4c-0.05-0.49-0.14-0.99-0.26-1.48
				c-0.13-0.48-0.3-0.94-0.51-1.38c-0.21-0.44-0.47-0.83-0.79-1.17c-0.31-0.33-0.69-0.6-1.12-0.79s-0.93-0.3-1.5-0.3
				c-0.56,0-1.05,0.1-1.48,0.3c-0.43,0.2-0.8,0.47-1.12,0.8c-0.31,0.34-0.58,0.73-0.79,1.17c-0.21,0.44-0.38,0.9-0.5,1.38
				c-0.13,0.49-0.23,0.98-0.28,1.48s-0.09,0.96-0.1,1.41v2.2c0.01,0.45,0.04,0.92,0.1,1.42c0.06,0.5,0.15,0.99,0.28,1.47
				c0.13,0.49,0.3,0.96,0.51,1.4c0.21,0.45,0.47,0.84,0.79,1.17c0.31,0.34,0.69,0.61,1.12,0.81c0.43,0.2,0.93,0.3,1.5,0.3
				c0.57,0,1.07-0.1,1.5-0.3s0.81-0.47,1.12-0.81c0.31-0.33,0.56-0.72,0.77-1.16c0.21-0.44,0.38-0.91,0.51-1.4
				c0.12-0.48,0.21-0.97,0.26-1.47c0.05-0.5,0.08-0.98,0.09-1.43v-2.2C486.49,138.37,486.46,137.9,486.41,137.4z"/>
			<path class="st4" d="M495.28,141.04v8.44h-2.45v-19.11h11.73v2.07h-9.28v6.53h7.95v2.06H495.28z"/>
			<path class="st4" d="M534.54,149.48v-8.83h-7.83v8.83h-2.28v-19.11h2.28v8.21h7.83v-8.21h2.3v19.11H534.54z"/>
			<path class="st4" d="M543.51,140.65v6.77h9.3v2.06h-11.73v-19.11h11.61v2.07h-9.19v6.14h7.98v2.06H543.51z"/>
			<path class="st4" d="M559.85,144.53l-1.54,4.95h-2.43l6.17-19.11h2.03l6.06,19.11h-2.41l-1.51-4.95H559.85z M565.58,142.42
				l-2.52-8.29l-2.56,8.29H565.58z"/>
			<path class="st4" d="M575.74,141.69v7.79h-2.41v-19.11h5.6c0.89,0.02,1.73,0.14,2.52,0.38s1.48,0.59,2.07,1.06
				c0.59,0.47,1.05,1.06,1.38,1.78c0.34,0.71,0.51,1.55,0.51,2.51c0,0.62-0.09,1.19-0.27,1.71s-0.43,0.98-0.74,1.4
				c-0.32,0.42-0.69,0.79-1.13,1.12s-0.92,0.6-1.44,0.83l4.05,8.16l-0.01,0.16h-2.56l-3.75-7.79H575.74z M579,139.69
				c0.54-0.01,1.05-0.09,1.54-0.26c0.48-0.16,0.9-0.4,1.27-0.7c0.36-0.31,0.64-0.68,0.85-1.12c0.21-0.44,0.31-0.95,0.31-1.53
				c0-0.61-0.1-1.15-0.3-1.61c-0.2-0.46-0.48-0.85-0.84-1.16c-0.36-0.31-0.79-0.54-1.28-0.7c-0.49-0.16-1.04-0.24-1.62-0.25h-3.19
				v7.32H579z"/>
			<path class="st4" d="M600.91,130.38v2.11h-4.58v14.89h4.58v2.1h-11.55v-2.1h4.47v-14.89h-4.47v-2.11H600.91z"/>
			<path class="st4" d="M614.99,149.48l-7.41-14.28l-0.04,14.28h-2.45v-19.11h2.47l7.41,14.25l0.04-14.25h2.45v19.11H614.99z"/>
			<path class="st4" d="M633.03,147.93c-0.33,0.28-0.68,0.53-1.04,0.74c-0.61,0.37-1.27,0.64-1.98,0.82s-1.45,0.26-2.23,0.26
				c-0.79-0.01-1.51-0.13-2.17-0.36c-0.66-0.23-1.25-0.55-1.78-0.96c-0.53-0.4-0.98-0.88-1.38-1.43c-0.39-0.55-0.72-1.15-0.98-1.8
				c-0.27-0.64-0.47-1.31-0.61-2.01c-0.14-0.7-0.21-1.42-0.22-2.13v-2.22c0.01-0.71,0.07-1.41,0.19-2.12
				c0.12-0.7,0.3-1.38,0.54-2.03c0.25-0.65,0.55-1.25,0.92-1.8c0.37-0.56,0.81-1.04,1.32-1.45c0.51-0.4,1.09-0.72,1.73-0.96
				s1.37-0.35,2.18-0.35c0.89,0,1.71,0.14,2.47,0.41c0.75,0.28,1.41,0.67,1.97,1.17c0.56,0.52,1.01,1.14,1.35,1.86
				s0.55,1.53,0.63,2.42h-2.4c-0.1-0.55-0.24-1.06-0.45-1.53c-0.2-0.47-0.46-0.87-0.79-1.2c-0.33-0.33-0.73-0.59-1.18-0.78
				c-0.46-0.19-0.98-0.28-1.59-0.28c-0.58,0-1.09,0.1-1.54,0.3s-0.84,0.46-1.17,0.79s-0.61,0.72-0.83,1.16
				c-0.22,0.44-0.4,0.91-0.54,1.4c-0.14,0.49-0.24,0.99-0.3,1.5c-0.06,0.51-0.09,1-0.09,1.47v2.24c0.01,0.48,0.05,0.98,0.12,1.49
				c0.07,0.51,0.19,1.01,0.35,1.5c0.16,0.49,0.36,0.95,0.6,1.39c0.24,0.44,0.54,0.82,0.89,1.15c0.34,0.33,0.74,0.6,1.2,0.79
				s0.97,0.3,1.55,0.31c0.33,0.01,0.68,0,1.04-0.04c0.36-0.04,0.71-0.1,1.06-0.21c0.34-0.1,0.66-0.25,0.96-0.43
				c0.3-0.18,0.55-0.41,0.75-0.7l0.03-4.29h-3.88v-2.05h6.19l0.04,7.01C633.68,147.32,633.36,147.64,633.03,147.93z"/>
			<path class="st4" d="M643.28,151.59c-0.41,0.91-0.97,1.67-1.67,2.3l-1.51-0.83c0.42-0.61,0.72-1.26,0.89-1.96
				c0.18-0.69,0.26-1.41,0.26-2.15v-2.35h2.64v2.31C643.9,149.79,643.69,150.68,643.28,151.59z"/>
			<path class="st4" d="M672.53,140.65v6.77h9.3v2.06H670.1v-19.11h11.61v2.07h-9.19v6.14h7.98v2.06H672.53z"/>
			<path class="st4" d="M695.72,143.17c-0.27-0.4-0.61-0.74-1.03-1.02c-0.42-0.27-0.88-0.5-1.38-0.68c-0.5-0.18-0.99-0.35-1.45-0.5
				c-0.67-0.22-1.36-0.48-2.05-0.79s-1.33-0.68-1.9-1.12c-0.58-0.45-1.05-0.97-1.41-1.58s-0.54-1.32-0.54-2.15s0.18-1.56,0.54-2.2
				c0.36-0.65,0.84-1.19,1.42-1.64s1.25-0.79,1.99-1.02c0.74-0.23,1.49-0.35,2.24-0.35c0.83,0,1.63,0.14,2.4,0.41
				c0.77,0.28,1.45,0.66,2.05,1.16c0.6,0.5,1.07,1.1,1.43,1.81c0.36,0.71,0.54,1.5,0.56,2.38h-2.49c-0.07-0.55-0.21-1.05-0.41-1.5
				s-0.47-0.84-0.8-1.16c-0.33-0.32-0.73-0.57-1.19-0.75c-0.46-0.18-0.98-0.27-1.55-0.27c-0.46,0-0.92,0.07-1.36,0.2
				c-0.44,0.13-0.83,0.33-1.17,0.59c-0.35,0.26-0.63,0.59-0.83,0.97c-0.21,0.39-0.31,0.83-0.31,1.34c0.01,0.55,0.15,1.02,0.42,1.4
				c0.27,0.38,0.62,0.7,1.04,0.96c0.41,0.26,0.86,0.48,1.35,0.66c0.49,0.17,0.94,0.33,1.37,0.46c0.71,0.22,1.42,0.48,2.12,0.79
				c0.71,0.31,1.36,0.71,1.94,1.19c0.58,0.45,1.04,0.99,1.4,1.64c0.36,0.65,0.53,1.4,0.53,2.24c0,0.86-0.19,1.61-0.57,2.24
				c-0.38,0.64-0.87,1.17-1.48,1.59c-0.6,0.43-1.29,0.75-2.05,0.96c-0.76,0.21-1.52,0.32-2.28,0.32c-0.91,0-1.8-0.15-2.68-0.46
				s-1.64-0.75-2.29-1.33c-0.58-0.5-1.04-1.08-1.37-1.75c-0.34-0.67-0.52-1.42-0.54-2.24h2.48c0.08,0.6,0.24,1.12,0.48,1.58
				c0.25,0.46,0.56,0.85,0.95,1.16c0.38,0.32,0.83,0.57,1.33,0.73c0.5,0.16,1.05,0.24,1.65,0.24c0.47,0,0.94-0.06,1.4-0.18
				c0.46-0.12,0.87-0.3,1.23-0.56c0.36-0.24,0.65-0.56,0.88-0.94s0.34-0.83,0.34-1.36C696.12,144.07,695.99,143.57,695.72,143.17z"
				/>
			<path class="st4" d="M704.9,149.48h-2.43v-19.11h6.2c0.86,0.02,1.67,0.15,2.43,0.41s1.44,0.62,2.01,1.1
				c0.58,0.48,1.04,1.08,1.37,1.78c0.34,0.71,0.51,1.52,0.51,2.44c0,0.92-0.17,1.73-0.51,2.43c-0.34,0.7-0.79,1.3-1.37,1.78
				c-0.58,0.48-1.25,0.85-2.01,1.1c-0.77,0.25-1.58,0.39-2.43,0.39h-3.77V149.48z M708.67,139.82c0.56-0.01,1.07-0.1,1.55-0.27
				s0.88-0.41,1.23-0.73s0.62-0.7,0.82-1.15s0.29-0.96,0.29-1.54c0-0.58-0.1-1.1-0.29-1.56c-0.2-0.46-0.47-0.86-0.81-1.18
				c-0.35-0.32-0.76-0.57-1.24-0.75s-1-0.27-1.55-0.28h-3.77v7.45H708.67z"/>
			<path class="st4" d="M720.91,140.65v6.77h9.3v2.06h-11.73v-19.11h11.61v2.07h-9.19v6.14h7.98v2.06H720.91z"/>
			<path class="st4" d="M746.2,146.17c-0.34,0.74-0.78,1.37-1.32,1.9c-0.55,0.53-1.2,0.95-1.95,1.24s-1.58,0.44-2.5,0.44
				c-0.79,0-1.5-0.11-2.14-0.33s-1.21-0.53-1.71-0.92c-0.51-0.39-0.94-0.86-1.3-1.39c-0.36-0.53-0.66-1.12-0.9-1.75
				c-0.24-0.63-0.43-1.29-0.54-1.98c-0.12-0.69-0.18-1.39-0.19-2.1v-2.66c0.01-0.71,0.07-1.41,0.19-2.1
				c0.12-0.69,0.3-1.35,0.54-1.98c0.24-0.63,0.54-1.21,0.9-1.75c0.36-0.54,0.8-1,1.3-1.4c0.5-0.39,1.07-0.7,1.71-0.92
				c0.64-0.22,1.36-0.33,2.15-0.33c0.95,0,1.81,0.15,2.56,0.44c0.75,0.29,1.4,0.71,1.94,1.24c0.54,0.54,0.98,1.19,1.3,1.94
				c0.33,0.75,0.54,1.58,0.65,2.49h-2.43c-0.08-0.58-0.21-1.12-0.41-1.61c-0.19-0.5-0.45-0.94-0.78-1.31
				c-0.32-0.38-0.72-0.67-1.19-0.89c-0.47-0.21-1.02-0.32-1.66-0.32c-0.58,0-1.09,0.09-1.53,0.28c-0.44,0.19-0.82,0.44-1.14,0.77
				c-0.32,0.32-0.59,0.7-0.81,1.13c-0.21,0.43-0.39,0.88-0.52,1.36c-0.13,0.48-0.22,0.97-0.28,1.48c-0.06,0.5-0.08,0.99-0.08,1.46
				v2.69c0,0.47,0.03,0.96,0.08,1.46c0.06,0.5,0.15,1,0.28,1.48c0.13,0.49,0.3,0.95,0.51,1.38c0.21,0.43,0.48,0.81,0.8,1.13
				c0.32,0.33,0.7,0.59,1.14,0.78s0.95,0.28,1.54,0.28c0.64,0,1.19-0.1,1.66-0.3c0.47-0.2,0.86-0.49,1.19-0.85
				c0.32-0.36,0.58-0.79,0.78-1.28c0.19-0.49,0.33-1.03,0.41-1.61h2.43C746.77,144.62,746.54,145.43,746.2,146.17z"/>
			<path class="st4" d="M762.18,130.38v2.11h-4.58v14.89h4.58v2.1h-11.55v-2.1h4.47v-14.89h-4.47v-2.11H762.18z"/>
			<path class="st4" d="M769.5,144.53l-1.54,4.95h-2.43l6.17-19.11h2.03l6.06,19.11h-2.41l-1.51-4.95H769.5z M775.23,142.42
				l-2.52-8.29l-2.56,8.29H775.23z"/>
			<path class="st4" d="M794.97,147.42v2.06H783.2v-19.11h2.43v17.05H794.97z"/>
			<path class="st4" d="M811.1,147.42v2.06h-11.77v-19.11h2.43v17.05H811.1z"/>
			<path class="st4" d="M825.12,130.38h2.75l-5.94,11.98l-0.04,7.12h-2.26l-0.04-7.12l-5.94-11.98h2.77l4.34,9.59L825.12,130.38z"/>
			<path class="st4" d="M124.42,176.78l-1.54,4.95h-2.43l6.17-19.11h2.03l6.06,19.11h-2.41l-1.51-4.95H124.42z M130.16,174.67
				l-2.52-8.29l-2.56,8.29H130.16z"/>
			<path class="st4" d="M147.41,175.42c-0.27-0.4-0.61-0.74-1.03-1.02c-0.42-0.27-0.88-0.5-1.38-0.68s-0.99-0.35-1.45-0.5
				c-0.67-0.22-1.36-0.48-2.05-0.79s-1.33-0.68-1.9-1.12c-0.58-0.45-1.05-0.97-1.41-1.58c-0.36-0.61-0.54-1.32-0.54-2.15
				s0.18-1.56,0.54-2.2c0.36-0.65,0.84-1.19,1.42-1.64c0.59-0.45,1.25-0.79,1.99-1.02c0.74-0.23,1.49-0.35,2.24-0.35
				c0.83,0,1.63,0.14,2.4,0.41c0.77,0.28,1.45,0.66,2.05,1.16s1.07,1.1,1.43,1.81c0.36,0.71,0.55,1.5,0.56,2.38h-2.49
				c-0.07-0.55-0.21-1.05-0.41-1.5s-0.47-0.84-0.8-1.16c-0.33-0.32-0.73-0.57-1.19-0.75c-0.46-0.18-0.98-0.27-1.56-0.27
				c-0.46,0-0.92,0.07-1.36,0.2c-0.44,0.13-0.83,0.33-1.17,0.59c-0.35,0.26-0.63,0.59-0.83,0.97c-0.21,0.39-0.31,0.83-0.31,1.34
				c0.01,0.55,0.15,1.02,0.42,1.4c0.27,0.38,0.62,0.7,1.04,0.96c0.41,0.26,0.86,0.48,1.35,0.66c0.49,0.17,0.94,0.33,1.37,0.46
				c0.71,0.22,1.42,0.48,2.13,0.79s1.36,0.71,1.94,1.19c0.58,0.45,1.04,0.99,1.4,1.64c0.35,0.65,0.53,1.4,0.53,2.24
				c0,0.86-0.19,1.61-0.57,2.24c-0.38,0.64-0.87,1.17-1.48,1.59c-0.6,0.43-1.29,0.75-2.05,0.96c-0.76,0.21-1.52,0.32-2.28,0.32
				c-0.91,0-1.8-0.15-2.68-0.46c-0.88-0.31-1.64-0.75-2.29-1.33c-0.58-0.5-1.03-1.08-1.37-1.75s-0.52-1.42-0.54-2.24h2.48
				c0.08,0.6,0.24,1.12,0.49,1.58c0.24,0.46,0.56,0.85,0.94,1.16c0.38,0.32,0.83,0.57,1.33,0.73c0.5,0.16,1.05,0.24,1.65,0.24
				c0.47,0,0.94-0.06,1.4-0.18s0.87-0.3,1.23-0.56c0.36-0.24,0.65-0.56,0.88-0.94s0.34-0.83,0.34-1.36
				C147.81,176.31,147.67,175.82,147.41,175.42z"/>
			<path class="st4" d="M172.81,176.78l-1.54,4.95h-2.43l6.17-19.11h2.03l6.06,19.11h-2.41l-1.51-4.95H172.81z M178.54,174.67
				l-2.52-8.29l-2.56,8.29H178.54z"/>
			<path class="st4" d="M200.99,162.62h2.31l1.38,13.17l0.08,0.76l0.14-0.79l2.31-13.15h2.11l2.32,13.16l0.14,0.77l0.08-0.79
				l1.38-13.15h2.3l-2.32,19.11h-2.48l-2.32-13.59l-0.13-0.8l-0.14,0.81l-2.34,13.58h-2.49L200.99,162.62z"/>
			<path class="st4" d="M221.19,176.78l-1.54,4.95h-2.43l6.17-19.11h2.03l6.06,19.11h-2.41l-1.51-4.95H221.19z M226.92,174.67
				l-2.52-8.29l-2.56,8.29H226.92z"/>
			<path class="st4" d="M244.56,162.62h2.76l-5.94,11.98l-0.04,7.12h-2.26l-0.04-7.12l-5.94-11.98h2.77l4.34,9.59L244.56,162.62z"/>
			<path class="st4" d="M279.07,175.35c-0.11,0.7-0.28,1.37-0.51,2.01s-0.52,1.25-0.87,1.81c-0.35,0.56-0.78,1.05-1.27,1.47
				c-0.49,0.42-1.05,0.75-1.69,0.99s-1.34,0.36-2.13,0.36c-0.79,0-1.5-0.12-2.13-0.36s-1.2-0.57-1.69-0.99s-0.91-0.91-1.27-1.48
				c-0.36-0.56-0.65-1.17-0.88-1.82c-0.24-0.65-0.41-1.32-0.52-2.01c-0.11-0.69-0.18-1.38-0.18-2.06v-2.18
				c0.01-0.68,0.07-1.37,0.18-2.07c0.11-0.7,0.28-1.37,0.52-2.01c0.23-0.65,0.52-1.25,0.87-1.82c0.35-0.56,0.78-1.06,1.27-1.49
				c0.49-0.42,1.05-0.75,1.69-0.99c0.63-0.24,1.34-0.36,2.13-0.36c0.79,0,1.5,0.12,2.14,0.36c0.64,0.24,1.2,0.57,1.69,0.99
				c0.49,0.42,0.91,0.91,1.27,1.48c0.35,0.56,0.65,1.17,0.89,1.82c0.23,0.65,0.4,1.32,0.51,2.02c0.11,0.7,0.17,1.39,0.18,2.07v2.18
				C279.24,173.96,279.18,174.65,279.07,175.35z M276.76,169.65c-0.05-0.49-0.14-0.99-0.26-1.48c-0.13-0.48-0.3-0.94-0.51-1.38
				c-0.21-0.44-0.47-0.83-0.79-1.17c-0.31-0.33-0.69-0.6-1.12-0.79s-0.93-0.3-1.5-0.3c-0.56,0-1.05,0.1-1.48,0.3s-0.8,0.47-1.12,0.8
				c-0.31,0.34-0.58,0.73-0.79,1.17c-0.21,0.44-0.38,0.9-0.5,1.38c-0.13,0.49-0.23,0.98-0.28,1.48s-0.09,0.96-0.1,1.41v2.2
				c0.01,0.45,0.04,0.92,0.1,1.42c0.06,0.5,0.15,0.99,0.28,1.47c0.13,0.49,0.3,0.96,0.51,1.4s0.47,0.84,0.79,1.17
				c0.31,0.34,0.69,0.61,1.12,0.81c0.43,0.2,0.93,0.3,1.5,0.3c0.57,0,1.07-0.1,1.5-0.3c0.43-0.2,0.81-0.47,1.12-0.81
				c0.31-0.33,0.56-0.72,0.77-1.16c0.21-0.44,0.37-0.91,0.51-1.4c0.12-0.48,0.21-0.97,0.26-1.47c0.05-0.5,0.08-0.98,0.09-1.43v-2.2
				C276.84,170.62,276.81,170.14,276.76,169.65z"/>
			<path class="st4" d="M285.63,173.29v8.44h-2.45v-19.11h11.73v2.07h-9.28v6.53h7.95v2.06H285.63z"/>
			<path class="st4" d="M327.29,179.67v2.06h-11.77v-19.11h2.43v17.05H327.29z"/>
			<path class="st4" d="M333.86,172.9v6.77h9.3v2.06h-11.73v-19.11h11.61v2.07h-9.19v6.14h7.98v2.06H333.86z"/>
			<path class="st4" d="M350.2,176.78l-1.54,4.95h-2.43l6.17-19.11h2.03l6.06,19.11h-2.41l-1.51-4.95H350.2z M355.94,174.67
				l-2.52-8.29l-2.56,8.29H355.94z"/>
			<path class="st4" d="M366.09,173.93v7.79h-2.41v-19.11h5.6c0.89,0.02,1.73,0.14,2.52,0.38s1.48,0.59,2.07,1.06
				c0.59,0.47,1.05,1.06,1.38,1.78c0.34,0.71,0.51,1.55,0.51,2.51c0,0.62-0.09,1.19-0.27,1.71s-0.43,0.98-0.74,1.4
				s-0.69,0.79-1.13,1.12c-0.44,0.32-0.92,0.6-1.44,0.83l4.05,8.16l-0.01,0.16h-2.56l-3.75-7.79H366.09z M369.35,171.94
				c0.54-0.01,1.05-0.09,1.54-0.26c0.48-0.16,0.91-0.4,1.27-0.7c0.36-0.31,0.64-0.68,0.85-1.12s0.31-0.95,0.31-1.53
				c0-0.61-0.1-1.15-0.3-1.61c-0.2-0.46-0.48-0.85-0.84-1.16c-0.36-0.31-0.79-0.54-1.28-0.7c-0.49-0.16-1.03-0.24-1.62-0.25h-3.19
				v7.32H369.35z"/>
			<path class="st4" d="M389.21,181.73l-7.41-14.28l-0.04,14.28h-2.45v-19.11h2.47l7.41,14.25l0.04-14.25h2.45v19.11H389.21z"/>
			<path class="st4" d="M407.39,162.62v2.11h-4.58v14.89h4.58v2.1h-11.55v-2.1h4.47v-14.89h-4.47v-2.11H407.39z"/>
			<path class="st4" d="M421.47,181.73l-7.41-14.28l-0.04,14.28h-2.45v-19.11h2.47l7.41,14.25l0.04-14.25h2.45v19.11H421.47z"/>
			<path class="st4" d="M439.51,180.17c-0.33,0.28-0.68,0.53-1.04,0.74c-0.61,0.37-1.27,0.64-1.98,0.82
				c-0.71,0.18-1.45,0.26-2.23,0.26c-0.79-0.01-1.51-0.13-2.17-0.36s-1.25-0.55-1.78-0.96c-0.52-0.4-0.98-0.88-1.38-1.43
				c-0.39-0.55-0.72-1.15-0.98-1.8c-0.27-0.64-0.47-1.31-0.61-2.01c-0.14-0.7-0.21-1.42-0.22-2.13v-2.22
				c0.01-0.71,0.07-1.41,0.19-2.12c0.12-0.7,0.3-1.38,0.54-2.03c0.25-0.65,0.55-1.25,0.92-1.8c0.37-0.56,0.81-1.04,1.33-1.45
				c0.51-0.4,1.08-0.72,1.73-0.96s1.37-0.35,2.18-0.35c0.89,0,1.71,0.14,2.47,0.41c0.75,0.28,1.41,0.67,1.97,1.17
				c0.56,0.52,1.01,1.14,1.35,1.86c0.34,0.72,0.55,1.53,0.63,2.42h-2.4c-0.1-0.55-0.25-1.06-0.45-1.53c-0.2-0.47-0.46-0.87-0.79-1.2
				c-0.33-0.33-0.73-0.59-1.18-0.78c-0.46-0.19-0.98-0.28-1.59-0.28c-0.58,0-1.09,0.1-1.54,0.3c-0.45,0.2-0.84,0.46-1.17,0.79
				s-0.61,0.72-0.83,1.16c-0.22,0.44-0.4,0.91-0.54,1.4c-0.14,0.49-0.24,0.99-0.3,1.5c-0.06,0.51-0.09,1-0.09,1.47v2.24
				c0.01,0.48,0.05,0.98,0.12,1.49s0.19,1.01,0.35,1.5c0.16,0.49,0.36,0.95,0.6,1.39c0.24,0.44,0.54,0.82,0.89,1.15
				c0.34,0.33,0.74,0.6,1.19,0.79c0.45,0.2,0.97,0.3,1.55,0.31c0.33,0.01,0.68,0,1.04-0.04c0.36-0.04,0.72-0.11,1.06-0.21
				c0.34-0.1,0.66-0.25,0.96-0.43c0.3-0.18,0.55-0.41,0.75-0.7l0.03-4.29h-3.88v-2.05h6.19l0.04,7.01
				C440.16,179.57,439.84,179.89,439.51,180.17z"/>
			<path class="st4" d="M472.6,175.35c-0.11,0.7-0.28,1.37-0.5,2.01c-0.23,0.65-0.52,1.25-0.87,1.81c-0.35,0.56-0.78,1.05-1.27,1.47
				c-0.49,0.42-1.05,0.75-1.69,0.99c-0.63,0.24-1.34,0.36-2.13,0.36c-0.79,0-1.5-0.12-2.13-0.36s-1.2-0.57-1.69-0.99
				c-0.49-0.42-0.92-0.91-1.27-1.48c-0.36-0.56-0.65-1.17-0.88-1.82c-0.24-0.65-0.41-1.32-0.53-2.01c-0.11-0.69-0.18-1.38-0.18-2.06
				v-2.18c0.01-0.68,0.07-1.37,0.18-2.07c0.11-0.7,0.28-1.37,0.52-2.01c0.23-0.65,0.52-1.25,0.87-1.82
				c0.35-0.56,0.78-1.06,1.27-1.49c0.49-0.42,1.05-0.75,1.69-0.99c0.63-0.24,1.35-0.36,2.13-0.36s1.5,0.12,2.14,0.36
				c0.64,0.24,1.2,0.57,1.69,0.99s0.91,0.91,1.27,1.48c0.36,0.56,0.65,1.17,0.89,1.82c0.23,0.65,0.39,1.32,0.5,2.02
				c0.11,0.7,0.17,1.39,0.18,2.07v2.18C472.77,173.96,472.71,174.65,472.6,175.35z M470.28,169.65c-0.05-0.49-0.14-0.99-0.26-1.48
				c-0.13-0.48-0.3-0.94-0.51-1.38c-0.21-0.44-0.47-0.83-0.79-1.17c-0.31-0.33-0.69-0.6-1.12-0.79s-0.93-0.3-1.5-0.3
				c-0.56,0-1.05,0.1-1.48,0.3c-0.43,0.2-0.8,0.47-1.12,0.8c-0.31,0.34-0.58,0.73-0.79,1.17c-0.21,0.44-0.38,0.9-0.5,1.38
				c-0.13,0.49-0.23,0.98-0.28,1.48s-0.09,0.96-0.1,1.41v2.2c0.01,0.45,0.04,0.92,0.1,1.42c0.06,0.5,0.15,0.99,0.28,1.47
				c0.13,0.49,0.3,0.96,0.51,1.4c0.21,0.45,0.47,0.84,0.79,1.17c0.31,0.34,0.69,0.61,1.12,0.81c0.43,0.2,0.93,0.3,1.5,0.3
				c0.57,0,1.07-0.1,1.5-0.3c0.43-0.2,0.81-0.47,1.12-0.81c0.31-0.33,0.56-0.72,0.77-1.16c0.21-0.44,0.38-0.91,0.51-1.4
				c0.12-0.48,0.21-0.97,0.26-1.47c0.05-0.5,0.08-0.98,0.09-1.43v-2.2C470.36,170.62,470.33,170.14,470.28,169.65z"/>
			<path class="st4" d="M478.98,173.93v7.79h-2.41v-19.11h5.6c0.89,0.02,1.73,0.14,2.52,0.38c0.79,0.24,1.48,0.59,2.07,1.06
				c0.59,0.47,1.05,1.06,1.38,1.78c0.34,0.71,0.5,1.55,0.5,2.51c0,0.62-0.09,1.19-0.27,1.71s-0.43,0.98-0.74,1.4
				s-0.69,0.79-1.13,1.12s-0.92,0.6-1.44,0.83l4.05,8.16l-0.01,0.16h-2.56l-3.75-7.79H478.98z M482.23,171.94
				c0.54-0.01,1.05-0.09,1.54-0.26c0.48-0.16,0.91-0.4,1.27-0.7c0.36-0.31,0.64-0.68,0.85-1.12c0.21-0.44,0.31-0.95,0.31-1.53
				c0-0.61-0.1-1.15-0.3-1.61c-0.2-0.46-0.48-0.85-0.84-1.16c-0.36-0.31-0.79-0.54-1.28-0.7c-0.49-0.16-1.03-0.24-1.62-0.25h-3.19
				v7.32H482.23z"/>
			<path class="st4" d="M511.47,176.78l-1.54,4.95h-2.43l6.17-19.11h2.03l6.06,19.11h-2.41l-1.51-4.95H511.47z M517.21,174.67
				l-2.52-8.29l-2.56,8.29H517.21z"/>
			<path class="st4" d="M534.45,175.42c-0.27-0.4-0.61-0.74-1.03-1.02c-0.42-0.27-0.88-0.5-1.38-0.68c-0.5-0.18-0.99-0.35-1.45-0.5
				c-0.67-0.22-1.36-0.48-2.05-0.79s-1.33-0.68-1.9-1.12c-0.58-0.45-1.05-0.97-1.41-1.58s-0.54-1.32-0.54-2.15s0.18-1.56,0.54-2.2
				c0.36-0.65,0.84-1.19,1.42-1.64s1.25-0.79,1.99-1.02c0.74-0.23,1.49-0.35,2.24-0.35c0.83,0,1.63,0.14,2.4,0.41
				c0.77,0.28,1.45,0.66,2.05,1.16c0.59,0.5,1.07,1.1,1.43,1.81s0.55,1.5,0.56,2.38h-2.49c-0.07-0.55-0.21-1.05-0.41-1.5
				s-0.47-0.84-0.8-1.16c-0.33-0.32-0.73-0.57-1.19-0.75c-0.46-0.18-0.98-0.27-1.55-0.27c-0.46,0-0.92,0.07-1.36,0.2
				c-0.44,0.13-0.83,0.33-1.17,0.59c-0.35,0.26-0.63,0.59-0.83,0.97c-0.21,0.39-0.31,0.83-0.31,1.34c0.01,0.55,0.15,1.02,0.42,1.4
				c0.27,0.38,0.62,0.7,1.04,0.96c0.41,0.26,0.86,0.48,1.34,0.66c0.49,0.17,0.94,0.33,1.37,0.46c0.71,0.22,1.42,0.48,2.12,0.79
				s1.36,0.71,1.94,1.19c0.58,0.45,1.04,0.99,1.4,1.64c0.35,0.65,0.53,1.4,0.53,2.24c0,0.86-0.19,1.61-0.57,2.24
				c-0.38,0.64-0.87,1.17-1.48,1.59c-0.6,0.43-1.29,0.75-2.05,0.96c-0.76,0.21-1.52,0.32-2.28,0.32c-0.91,0-1.8-0.15-2.68-0.46
				c-0.88-0.31-1.64-0.75-2.29-1.33c-0.58-0.5-1.03-1.08-1.37-1.75c-0.34-0.67-0.52-1.42-0.54-2.24h2.48
				c0.08,0.6,0.24,1.12,0.49,1.58c0.24,0.46,0.56,0.85,0.95,1.16c0.38,0.32,0.83,0.57,1.33,0.73c0.5,0.16,1.05,0.24,1.65,0.24
				c0.47,0,0.94-0.06,1.4-0.18s0.87-0.3,1.23-0.56c0.36-0.24,0.65-0.56,0.88-0.94c0.23-0.38,0.34-0.83,0.34-1.36
				C534.85,176.31,534.72,175.82,534.45,175.42z"/>
			<path class="st4" d="M559.85,176.78l-1.54,4.95h-2.43l6.17-19.11h2.03l6.06,19.11h-2.41l-1.51-4.95H559.85z M565.58,174.67
				l-2.52-8.29l-2.56,8.29H565.58z"/>
			<path class="st4" d="M592.04,173.29v8.44h-2.46v-19.11h11.73v2.07h-9.28v6.53h7.95v2.06H592.04z"/>
			<path class="st4" d="M617.74,175.35c-0.11,0.7-0.28,1.37-0.51,2.01c-0.23,0.65-0.52,1.25-0.87,1.81
				c-0.35,0.56-0.78,1.05-1.27,1.47s-1.05,0.75-1.69,0.99s-1.35,0.36-2.13,0.36s-1.5-0.12-2.13-0.36c-0.63-0.24-1.2-0.57-1.69-0.99
				s-0.91-0.91-1.27-1.48c-0.36-0.56-0.65-1.17-0.88-1.82c-0.24-0.65-0.41-1.32-0.53-2.01c-0.11-0.69-0.17-1.38-0.18-2.06v-2.18
				c0.01-0.68,0.07-1.37,0.18-2.07c0.11-0.7,0.28-1.37,0.52-2.01c0.23-0.65,0.52-1.25,0.87-1.82c0.36-0.56,0.78-1.06,1.27-1.49
				c0.49-0.42,1.05-0.75,1.69-0.99c0.63-0.24,1.35-0.36,2.13-0.36s1.5,0.12,2.14,0.36c0.64,0.24,1.2,0.57,1.69,0.99
				c0.49,0.42,0.91,0.91,1.27,1.48c0.35,0.56,0.65,1.17,0.88,1.82c0.23,0.65,0.4,1.32,0.51,2.02c0.11,0.7,0.17,1.39,0.18,2.07v2.18
				C617.91,173.96,617.85,174.65,617.74,175.35z M615.42,169.65c-0.05-0.49-0.14-0.99-0.26-1.48c-0.13-0.48-0.3-0.94-0.51-1.38
				c-0.21-0.44-0.47-0.83-0.79-1.17c-0.32-0.33-0.69-0.6-1.12-0.79c-0.43-0.2-0.93-0.3-1.5-0.3c-0.56,0-1.05,0.1-1.48,0.3
				c-0.43,0.2-0.8,0.47-1.12,0.8c-0.31,0.34-0.58,0.73-0.79,1.17c-0.21,0.44-0.38,0.9-0.5,1.38c-0.13,0.49-0.22,0.98-0.28,1.48
				c-0.06,0.49-0.09,0.96-0.1,1.41v2.2c0.01,0.45,0.04,0.92,0.1,1.42c0.06,0.5,0.15,0.99,0.28,1.47c0.13,0.49,0.3,0.96,0.51,1.4
				c0.21,0.45,0.47,0.84,0.79,1.17c0.31,0.34,0.69,0.61,1.12,0.81c0.43,0.2,0.93,0.3,1.5,0.3s1.07-0.1,1.5-0.3
				c0.43-0.2,0.81-0.47,1.12-0.81c0.31-0.33,0.56-0.72,0.77-1.16c0.21-0.44,0.37-0.91,0.5-1.4c0.12-0.48,0.21-0.97,0.26-1.47
				c0.05-0.5,0.08-0.98,0.09-1.43v-2.2C615.51,170.62,615.47,170.14,615.42,169.65z"/>
			<path class="st4" d="M624.12,173.93v7.79h-2.41v-19.11h5.6c0.89,0.02,1.73,0.14,2.52,0.38s1.48,0.59,2.07,1.06
				c0.59,0.47,1.05,1.06,1.38,1.78c0.34,0.71,0.51,1.55,0.51,2.51c0,0.62-0.09,1.19-0.27,1.71s-0.43,0.98-0.74,1.4
				c-0.32,0.42-0.69,0.79-1.13,1.12s-0.92,0.6-1.44,0.83l4.05,8.16l-0.01,0.16h-2.56l-3.75-7.79H624.12z M627.38,171.94
				c0.54-0.01,1.05-0.09,1.54-0.26c0.48-0.16,0.9-0.4,1.27-0.7c0.36-0.31,0.64-0.68,0.85-1.12c0.21-0.44,0.31-0.95,0.31-1.53
				c0-0.61-0.1-1.15-0.3-1.61c-0.2-0.46-0.48-0.85-0.84-1.16c-0.36-0.31-0.79-0.54-1.28-0.7c-0.49-0.16-1.04-0.24-1.62-0.25h-3.19
				v7.32H627.38z"/>
			<path class="st4" d="M643.52,172.18l3.36-9.55h3.02v19.11h-2.36v-7.62l0.2-7.98l-3.53,10.29h-1.39l-3.24-10.01l0.2,7.7v7.62
				h-2.36v-19.11h3L643.52,172.18z"/>
			<path class="st4" d="M682.25,175.35c-0.11,0.7-0.28,1.37-0.51,2.01c-0.23,0.65-0.52,1.25-0.87,1.81
				c-0.35,0.56-0.78,1.05-1.27,1.47s-1.05,0.75-1.69,0.99s-1.35,0.36-2.13,0.36s-1.5-0.12-2.13-0.36c-0.63-0.24-1.2-0.57-1.69-0.99
				s-0.91-0.91-1.27-1.48c-0.36-0.56-0.65-1.17-0.88-1.82c-0.24-0.65-0.41-1.32-0.53-2.01c-0.11-0.69-0.17-1.38-0.18-2.06v-2.18
				c0.01-0.68,0.07-1.37,0.18-2.07c0.11-0.7,0.28-1.37,0.52-2.01c0.23-0.65,0.52-1.25,0.87-1.82c0.36-0.56,0.78-1.06,1.27-1.49
				c0.49-0.42,1.05-0.75,1.69-0.99c0.63-0.24,1.35-0.36,2.13-0.36s1.5,0.12,2.14,0.36c0.64,0.24,1.2,0.57,1.69,0.99
				c0.49,0.42,0.91,0.91,1.27,1.48c0.35,0.56,0.65,1.17,0.88,1.82c0.23,0.65,0.4,1.32,0.51,2.02c0.11,0.7,0.17,1.39,0.18,2.07v2.18
				C682.41,173.96,682.36,174.65,682.25,175.35z M679.93,169.65c-0.05-0.49-0.14-0.99-0.26-1.48c-0.13-0.48-0.3-0.94-0.51-1.38
				c-0.21-0.44-0.47-0.83-0.79-1.17c-0.32-0.33-0.69-0.6-1.12-0.79c-0.43-0.2-0.93-0.3-1.5-0.3c-0.56,0-1.05,0.1-1.48,0.3
				c-0.43,0.2-0.8,0.47-1.12,0.8c-0.31,0.34-0.58,0.73-0.79,1.17c-0.21,0.44-0.38,0.9-0.5,1.38c-0.13,0.49-0.22,0.98-0.28,1.48
				c-0.06,0.49-0.09,0.96-0.1,1.41v2.2c0.01,0.45,0.04,0.92,0.1,1.42c0.06,0.5,0.15,0.99,0.28,1.47c0.13,0.49,0.3,0.96,0.51,1.4
				c0.21,0.45,0.47,0.84,0.79,1.17c0.31,0.34,0.69,0.61,1.12,0.81c0.43,0.2,0.93,0.3,1.5,0.3s1.07-0.1,1.5-0.3
				c0.43-0.2,0.81-0.47,1.12-0.81c0.31-0.33,0.56-0.72,0.77-1.16c0.21-0.44,0.37-0.91,0.5-1.4c0.12-0.48,0.21-0.97,0.26-1.47
				c0.05-0.5,0.08-0.98,0.09-1.43v-2.2C680.01,170.62,679.98,170.14,679.93,169.65z"/>
			<path class="st4" d="M688.8,173.29v8.44h-2.46v-19.11h11.73v2.07h-9.28v6.53h7.95v2.06H688.8z"/>
			<path class="st4" d="M133.37,210.66c-0.34,0.74-0.78,1.37-1.33,1.9c-0.55,0.53-1.2,0.95-1.95,1.24c-0.75,0.29-1.58,0.44-2.5,0.44
				c-0.79,0-1.5-0.11-2.15-0.33c-0.64-0.22-1.21-0.53-1.71-0.92c-0.51-0.39-0.94-0.86-1.31-1.39c-0.36-0.53-0.66-1.12-0.9-1.75
				c-0.24-0.63-0.43-1.29-0.54-1.98c-0.12-0.69-0.18-1.39-0.19-2.1v-2.66c0.01-0.71,0.07-1.41,0.19-2.1s0.3-1.35,0.54-1.98
				c0.24-0.63,0.54-1.21,0.9-1.75c0.36-0.54,0.8-1,1.31-1.4c0.5-0.39,1.07-0.7,1.71-0.92c0.64-0.22,1.36-0.33,2.15-0.33
				c0.95,0,1.81,0.15,2.56,0.44c0.75,0.29,1.4,0.71,1.94,1.24c0.54,0.54,0.98,1.19,1.31,1.94c0.33,0.75,0.54,1.58,0.65,2.49h-2.43
				c-0.08-0.58-0.21-1.12-0.41-1.61s-0.45-0.94-0.77-1.31c-0.32-0.38-0.72-0.67-1.19-0.89c-0.47-0.21-1.02-0.32-1.66-0.32
				c-0.58,0-1.09,0.09-1.53,0.28s-0.82,0.44-1.13,0.77c-0.32,0.32-0.59,0.7-0.81,1.13s-0.39,0.88-0.52,1.36
				c-0.13,0.48-0.23,0.97-0.28,1.48c-0.06,0.5-0.09,0.99-0.09,1.46v2.69c0,0.47,0.03,0.96,0.09,1.46c0.06,0.5,0.15,1,0.28,1.48
				c0.13,0.49,0.3,0.95,0.51,1.38s0.48,0.81,0.8,1.13c0.32,0.33,0.7,0.59,1.14,0.78c0.44,0.19,0.95,0.28,1.54,0.28
				c0.64,0,1.19-0.1,1.66-0.3c0.47-0.2,0.86-0.49,1.19-0.85c0.32-0.36,0.58-0.79,0.77-1.28s0.33-1.03,0.41-1.61h2.43
				C133.94,209.12,133.71,209.93,133.37,210.66z"/>
			<path class="st4" d="M150.06,207.59c-0.11,0.7-0.28,1.37-0.51,2.01s-0.52,1.25-0.87,1.81s-0.78,1.05-1.27,1.47
				c-0.49,0.42-1.05,0.75-1.69,0.99s-1.34,0.36-2.13,0.36c-0.79,0-1.5-0.12-2.13-0.36s-1.2-0.57-1.69-0.99s-0.91-0.91-1.27-1.48
				c-0.36-0.56-0.65-1.17-0.88-1.82c-0.24-0.65-0.41-1.32-0.52-2.01c-0.11-0.69-0.18-1.38-0.18-2.06v-2.18
				c0.01-0.68,0.07-1.37,0.18-2.07s0.28-1.37,0.52-2.01c0.23-0.65,0.52-1.25,0.87-1.82s0.78-1.06,1.27-1.49
				c0.49-0.42,1.05-0.75,1.69-0.99c0.63-0.24,1.34-0.36,2.13-0.36c0.79,0,1.5,0.12,2.14,0.36c0.64,0.24,1.2,0.57,1.69,0.99
				c0.49,0.42,0.91,0.91,1.27,1.48c0.35,0.56,0.65,1.17,0.89,1.82c0.23,0.65,0.4,1.32,0.51,2.02c0.11,0.7,0.17,1.39,0.18,2.07v2.18
				C150.23,206.21,150.17,206.9,150.06,207.59z M147.74,201.9c-0.05-0.49-0.14-0.99-0.26-1.48c-0.13-0.48-0.3-0.94-0.51-1.38
				c-0.21-0.44-0.47-0.83-0.79-1.17c-0.31-0.33-0.69-0.6-1.12-0.79c-0.43-0.2-0.93-0.3-1.5-0.3c-0.56,0-1.05,0.1-1.48,0.3
				s-0.8,0.47-1.12,0.8c-0.31,0.34-0.58,0.73-0.79,1.17c-0.21,0.44-0.38,0.9-0.5,1.38c-0.13,0.49-0.23,0.98-0.28,1.48
				s-0.09,0.96-0.1,1.41v2.21c0.01,0.45,0.04,0.92,0.1,1.42c0.06,0.5,0.15,0.99,0.28,1.47c0.13,0.49,0.3,0.96,0.51,1.4
				c0.21,0.45,0.47,0.84,0.79,1.17c0.31,0.34,0.69,0.61,1.12,0.81c0.43,0.2,0.93,0.3,1.5,0.3c0.57,0,1.07-0.1,1.5-0.3
				c0.43-0.2,0.81-0.47,1.12-0.81c0.31-0.33,0.56-0.72,0.77-1.16c0.21-0.44,0.37-0.91,0.51-1.4c0.12-0.48,0.21-0.97,0.26-1.47
				c0.05-0.5,0.08-0.97,0.09-1.43v-2.21C147.83,202.87,147.79,202.39,147.74,201.9z"/>
			<path class="st4" d="M159.71,204.43l3.36-9.55h3.02v19.11h-2.36v-7.62l0.2-7.98l-3.53,10.29H159l-3.24-10.01l0.2,7.7v7.62h-2.36
				v-19.11h3L159.71,204.43z"/>
			<path class="st4" d="M175.84,204.43l3.36-9.55h3.02v19.11h-2.36v-7.62l0.2-7.98l-3.53,10.29h-1.39l-3.24-10.01l0.2,7.7v7.62
				h-2.36v-19.11h3L175.84,204.43z"/>
			<path class="st4" d="M198.21,207.81c0,0.89-0.16,1.73-0.47,2.51s-0.75,1.46-1.3,2.03c-0.55,0.59-1.21,1.05-1.97,1.38
				c-0.76,0.34-1.6,0.51-2.51,0.51c-0.93,0-1.77-0.17-2.53-0.5s-1.41-0.79-1.96-1.38c-0.54-0.58-0.97-1.26-1.27-2.04
				s-0.46-1.62-0.47-2.51l0.03-12.94h2.31l0.05,12.94c0.01,0.57,0.1,1.12,0.27,1.64c0.17,0.53,0.42,0.99,0.74,1.39
				c0.31,0.4,0.71,0.73,1.19,0.97c0.48,0.25,1.03,0.37,1.65,0.37c0.62,0,1.17-0.12,1.64-0.36c0.47-0.24,0.87-0.57,1.19-0.98
				c0.31-0.4,0.56-0.87,0.72-1.39c0.17-0.52,0.26-1.07,0.28-1.64l0.04-12.94h2.35L198.21,207.81z"/>
			<path class="st4" d="M211.82,213.98l-7.41-14.28l-0.04,14.28h-2.45v-19.11h2.47l7.41,14.25l0.04-14.25h2.45v19.11H211.82z"/>
			<path class="st4" d="M229.99,194.87v2.11h-4.58v14.89h4.58v2.1h-11.55v-2.1h4.47v-14.89h-4.47v-2.11H229.99z"/>
			<path class="st4" d="M246.26,210.66c-0.34,0.74-0.78,1.37-1.33,1.9c-0.55,0.53-1.2,0.95-1.95,1.24c-0.75,0.29-1.58,0.44-2.5,0.44
				c-0.79,0-1.5-0.11-2.15-0.33c-0.64-0.22-1.21-0.53-1.71-0.92c-0.51-0.39-0.94-0.86-1.31-1.39c-0.36-0.53-0.66-1.12-0.9-1.75
				c-0.24-0.63-0.43-1.29-0.54-1.98c-0.12-0.69-0.18-1.39-0.19-2.1v-2.66c0.01-0.71,0.07-1.41,0.19-2.1s0.3-1.35,0.54-1.98
				c0.24-0.63,0.54-1.21,0.9-1.75c0.36-0.54,0.8-1,1.31-1.4c0.5-0.39,1.07-0.7,1.71-0.92c0.64-0.22,1.36-0.33,2.15-0.33
				c0.95,0,1.81,0.15,2.56,0.44c0.75,0.29,1.4,0.71,1.94,1.24c0.54,0.54,0.98,1.19,1.31,1.94c0.33,0.75,0.54,1.58,0.65,2.49h-2.43
				c-0.08-0.58-0.21-1.12-0.41-1.61s-0.45-0.94-0.77-1.31c-0.32-0.38-0.72-0.67-1.19-0.89c-0.47-0.21-1.02-0.32-1.66-0.32
				c-0.58,0-1.09,0.09-1.53,0.28s-0.82,0.44-1.13,0.77c-0.32,0.32-0.59,0.7-0.81,1.13s-0.39,0.88-0.52,1.36
				c-0.13,0.48-0.23,0.97-0.28,1.48c-0.06,0.5-0.09,0.99-0.09,1.46v2.69c0,0.47,0.03,0.96,0.09,1.46c0.06,0.5,0.15,1,0.28,1.48
				c0.13,0.49,0.3,0.95,0.51,1.38s0.48,0.81,0.8,1.13c0.32,0.33,0.7,0.59,1.14,0.78c0.44,0.19,0.95,0.28,1.54,0.28
				c0.64,0,1.19-0.1,1.66-0.3c0.47-0.2,0.86-0.49,1.19-0.85c0.32-0.36,0.58-0.79,0.77-1.28s0.33-1.03,0.41-1.61h2.43
				C246.83,209.12,246.6,209.93,246.26,210.66z"/>
			<path class="st4" d="M253.44,209.03l-1.54,4.95h-2.43l6.17-19.11h2.03l6.06,19.11h-2.41l-1.51-4.95H253.44z M259.17,206.92
				l-2.52-8.29l-2.56,8.29H259.17z"/>
			<path class="st4" d="M273.81,196.95v17.03h-2.36v-17.03h-5.91v-2.07h14.17v2.07H273.81z"/>
			<path class="st4" d="M294.5,194.87v2.11h-4.58v14.89h4.58v2.1h-11.55v-2.1h4.47v-14.89h-4.47v-2.11H294.5z"/>
			<path class="st4" d="M311.33,207.59c-0.11,0.7-0.28,1.37-0.51,2.01s-0.52,1.25-0.87,1.81s-0.78,1.05-1.27,1.47
				c-0.49,0.42-1.05,0.75-1.69,0.99s-1.34,0.36-2.13,0.36c-0.79,0-1.5-0.12-2.13-0.36s-1.2-0.57-1.69-0.99s-0.91-0.91-1.27-1.48
				c-0.36-0.56-0.65-1.17-0.88-1.82c-0.24-0.65-0.41-1.32-0.52-2.01c-0.11-0.69-0.18-1.38-0.18-2.06v-2.18
				c0.01-0.68,0.07-1.37,0.18-2.07s0.28-1.37,0.52-2.01c0.23-0.65,0.52-1.25,0.87-1.82s0.78-1.06,1.27-1.49
				c0.49-0.42,1.05-0.75,1.69-0.99c0.63-0.24,1.34-0.36,2.13-0.36c0.79,0,1.5,0.12,2.14,0.36c0.64,0.24,1.2,0.57,1.69,0.99
				c0.49,0.42,0.91,0.91,1.27,1.48c0.35,0.56,0.65,1.17,0.89,1.82c0.23,0.65,0.4,1.32,0.51,2.02c0.11,0.7,0.17,1.39,0.18,2.07v2.18
				C311.5,206.21,311.44,206.9,311.33,207.59z M309.01,201.9c-0.05-0.49-0.14-0.99-0.26-1.48c-0.13-0.48-0.3-0.94-0.51-1.38
				c-0.21-0.44-0.47-0.83-0.79-1.17c-0.31-0.33-0.69-0.6-1.12-0.79c-0.43-0.2-0.93-0.3-1.5-0.3c-0.56,0-1.05,0.1-1.48,0.3
				s-0.8,0.47-1.12,0.8c-0.31,0.34-0.58,0.73-0.79,1.17c-0.21,0.44-0.38,0.9-0.5,1.38c-0.13,0.49-0.23,0.98-0.28,1.48
				s-0.09,0.96-0.1,1.41v2.21c0.01,0.45,0.04,0.92,0.1,1.42c0.06,0.5,0.15,0.99,0.28,1.47c0.13,0.49,0.3,0.96,0.51,1.4
				c0.21,0.45,0.47,0.84,0.79,1.17c0.31,0.34,0.69,0.61,1.12,0.81c0.43,0.2,0.93,0.3,1.5,0.3c0.57,0,1.07-0.1,1.5-0.3
				c0.43-0.2,0.81-0.47,1.12-0.81c0.31-0.33,0.56-0.72,0.77-1.16c0.21-0.44,0.37-0.91,0.51-1.4c0.12-0.48,0.21-0.97,0.26-1.47
				c0.05-0.5,0.08-0.97,0.09-1.43v-2.21C309.09,202.87,309.06,202.39,309.01,201.9z"/>
			<path class="st4" d="M324.71,213.98l-7.41-14.28l-0.04,14.28h-2.45v-19.11h2.47l7.41,14.25l0.04-14.25h2.45v19.11H324.71z"/>
			<path class="st4" d="M336.03,211.08c0.31-0.37,0.79-0.55,1.43-0.55c0.63,0,1.11,0.18,1.44,0.54s0.49,0.81,0.49,1.33
				c0,0.52-0.17,0.95-0.5,1.3s-0.81,0.52-1.43,0.52c-0.63,0-1.1-0.18-1.42-0.53s-0.48-0.79-0.48-1.29
				C335.56,211.89,335.71,211.45,336.03,211.08z"/>
			<path class="st4" d="M359.01,194.87v2.11h-4.58v14.89h4.58v2.1h-11.55v-2.1h4.47v-14.89h-4.47v-2.11H359.01z"/>
			<path class="st4" d="M370.57,196.95v17.03h-2.36v-17.03h-5.91v-2.07h14.17v2.07H370.57z"/>
			<path class="st4" d="M407.53,210.66c-0.34,0.74-0.78,1.37-1.33,1.9c-0.55,0.53-1.2,0.95-1.95,1.24c-0.75,0.29-1.58,0.44-2.5,0.44
				c-0.79,0-1.5-0.11-2.15-0.33c-0.64-0.22-1.21-0.53-1.71-0.92c-0.51-0.39-0.94-0.86-1.31-1.39c-0.36-0.53-0.66-1.12-0.9-1.75
				c-0.24-0.63-0.43-1.29-0.54-1.98c-0.12-0.69-0.18-1.39-0.19-2.1v-2.66c0.01-0.71,0.07-1.41,0.19-2.1s0.3-1.35,0.54-1.98
				c0.24-0.63,0.54-1.21,0.9-1.75c0.36-0.54,0.8-1,1.31-1.4c0.5-0.39,1.07-0.7,1.71-0.92c0.64-0.22,1.36-0.33,2.15-0.33
				c0.95,0,1.81,0.15,2.56,0.44c0.75,0.29,1.4,0.71,1.94,1.24c0.54,0.54,0.98,1.19,1.31,1.94c0.33,0.75,0.54,1.58,0.65,2.49h-2.43
				c-0.08-0.58-0.21-1.12-0.41-1.61s-0.45-0.94-0.77-1.31c-0.32-0.38-0.72-0.67-1.19-0.89c-0.47-0.21-1.02-0.32-1.66-0.32
				c-0.58,0-1.09,0.09-1.53,0.28s-0.82,0.44-1.13,0.77c-0.32,0.32-0.59,0.7-0.81,1.13s-0.39,0.88-0.52,1.36
				c-0.13,0.48-0.23,0.97-0.28,1.48c-0.06,0.5-0.09,0.99-0.09,1.46v2.69c0,0.47,0.03,0.96,0.09,1.46c0.06,0.5,0.15,1,0.28,1.48
				c0.13,0.49,0.3,0.95,0.51,1.38s0.48,0.81,0.8,1.13c0.32,0.33,0.7,0.59,1.14,0.78c0.44,0.19,0.95,0.28,1.54,0.28
				c0.64,0,1.19-0.1,1.66-0.3c0.47-0.2,0.86-0.49,1.19-0.85c0.32-0.36,0.58-0.79,0.77-1.28s0.33-1.03,0.41-1.61h2.43
				C408.1,209.12,407.87,209.93,407.53,210.66z"/>
			<path class="st4" d="M414.71,209.03l-1.54,4.95h-2.43l6.17-19.11h2.03l6.06,19.11h-2.41l-1.51-4.95H414.71z M420.44,206.92
				l-2.52-8.29l-2.56,8.29H420.44z"/>
			<path class="st4" d="M437.59,213.98l-7.41-14.28l-0.04,14.28h-2.45v-19.11h2.47l7.41,14.25l0.04-14.25h2.45v19.11H437.59z"/>
			<path class="st4" d="M463.09,209.03l-1.54,4.95h-2.43l6.17-19.11h2.03l6.06,19.11h-2.41l-1.51-4.95H463.09z M468.82,206.92
				l-2.52-8.29l-2.56,8.29H468.82z"/>
			<path class="st4" d="M488.56,211.92v2.06h-11.77v-19.11h2.43v17.04H488.56z"/>
			<path class="st4" d="M502.2,207.67c-0.27-0.4-0.61-0.74-1.03-1.02c-0.42-0.27-0.88-0.5-1.38-0.68c-0.5-0.18-0.99-0.35-1.45-0.5
				c-0.67-0.22-1.36-0.48-2.05-0.79s-1.33-0.68-1.9-1.12c-0.58-0.45-1.05-0.97-1.41-1.58c-0.36-0.61-0.54-1.32-0.54-2.15
				s0.18-1.56,0.54-2.21s0.84-1.19,1.42-1.64c0.59-0.45,1.25-0.79,1.99-1.02c0.74-0.23,1.49-0.35,2.24-0.35
				c0.83,0,1.63,0.14,2.4,0.41c0.77,0.28,1.45,0.66,2.05,1.16c0.59,0.5,1.07,1.1,1.43,1.81c0.36,0.71,0.55,1.5,0.56,2.38h-2.49
				c-0.07-0.55-0.21-1.05-0.41-1.5c-0.2-0.45-0.47-0.84-0.8-1.16c-0.33-0.32-0.73-0.58-1.19-0.75c-0.46-0.18-0.98-0.27-1.55-0.27
				c-0.46,0-0.92,0.07-1.36,0.2c-0.44,0.13-0.83,0.33-1.17,0.59c-0.35,0.26-0.63,0.59-0.83,0.97s-0.31,0.83-0.31,1.34
				c0.01,0.55,0.15,1.02,0.42,1.4c0.27,0.38,0.62,0.7,1.04,0.96c0.41,0.26,0.86,0.48,1.34,0.66c0.49,0.17,0.94,0.33,1.37,0.46
				c0.71,0.22,1.42,0.48,2.12,0.79s1.36,0.71,1.94,1.19c0.58,0.45,1.04,0.99,1.4,1.64c0.35,0.65,0.53,1.4,0.53,2.24
				c0,0.86-0.19,1.61-0.57,2.24c-0.38,0.64-0.87,1.17-1.48,1.59c-0.6,0.43-1.29,0.75-2.05,0.96c-0.76,0.21-1.52,0.32-2.28,0.32
				c-0.91,0-1.8-0.15-2.68-0.46c-0.88-0.31-1.64-0.75-2.29-1.33c-0.58-0.5-1.03-1.08-1.37-1.75c-0.34-0.67-0.52-1.41-0.54-2.24h2.48
				c0.08,0.6,0.24,1.12,0.49,1.58c0.24,0.46,0.56,0.85,0.95,1.16c0.38,0.32,0.83,0.57,1.33,0.73c0.5,0.16,1.05,0.24,1.65,0.24
				c0.47,0,0.94-0.06,1.4-0.18s0.87-0.3,1.23-0.56c0.36-0.25,0.65-0.56,0.88-0.94c0.23-0.38,0.34-0.83,0.34-1.36
				C502.6,208.56,502.47,208.07,502.2,207.67z"/>
			<path class="st4" d="M520.98,207.59c-0.11,0.7-0.28,1.37-0.5,2.01c-0.23,0.65-0.52,1.25-0.87,1.81s-0.78,1.05-1.27,1.47
				c-0.49,0.42-1.05,0.75-1.69,0.99c-0.63,0.24-1.34,0.36-2.13,0.36c-0.79,0-1.5-0.12-2.13-0.36s-1.2-0.57-1.69-0.99
				c-0.49-0.42-0.92-0.91-1.27-1.48c-0.36-0.56-0.65-1.17-0.88-1.82c-0.24-0.65-0.41-1.32-0.53-2.01c-0.11-0.69-0.18-1.38-0.18-2.06
				v-2.18c0.01-0.68,0.07-1.37,0.18-2.07s0.28-1.37,0.52-2.01c0.23-0.65,0.52-1.25,0.87-1.82c0.35-0.56,0.78-1.06,1.27-1.49
				c0.49-0.42,1.05-0.75,1.69-0.99c0.63-0.24,1.35-0.36,2.13-0.36s1.5,0.12,2.14,0.36c0.64,0.24,1.2,0.57,1.69,0.99
				s0.91,0.91,1.27,1.48c0.36,0.56,0.65,1.17,0.89,1.82c0.23,0.65,0.39,1.32,0.5,2.02c0.11,0.7,0.17,1.39,0.18,2.07v2.18
				C521.15,206.21,521.09,206.9,520.98,207.59z M518.66,201.9c-0.05-0.49-0.14-0.99-0.26-1.48c-0.13-0.48-0.3-0.94-0.51-1.38
				c-0.21-0.44-0.47-0.83-0.79-1.17c-0.31-0.33-0.69-0.6-1.12-0.79c-0.43-0.2-0.93-0.3-1.5-0.3c-0.56,0-1.05,0.1-1.48,0.3
				c-0.43,0.2-0.8,0.47-1.12,0.8c-0.31,0.34-0.58,0.73-0.79,1.17c-0.21,0.44-0.38,0.9-0.5,1.38c-0.13,0.49-0.23,0.98-0.28,1.48
				s-0.09,0.96-0.1,1.41v2.21c0.01,0.45,0.04,0.92,0.1,1.42c0.06,0.5,0.15,0.99,0.28,1.47c0.13,0.49,0.3,0.96,0.51,1.4
				c0.21,0.45,0.47,0.84,0.79,1.17c0.31,0.34,0.69,0.61,1.12,0.81c0.43,0.2,0.93,0.3,1.5,0.3c0.57,0,1.07-0.1,1.5-0.3
				c0.43-0.2,0.81-0.47,1.12-0.81c0.31-0.33,0.56-0.72,0.77-1.16c0.21-0.44,0.38-0.91,0.51-1.4c0.12-0.48,0.21-0.97,0.26-1.47
				c0.05-0.5,0.08-0.97,0.09-1.43v-2.21C518.74,202.87,518.71,202.39,518.66,201.9z"/>
			<path class="st4" d="M540.73,194.87h4.42c0.74,0.01,1.45,0.08,2.11,0.23s1.27,0.35,1.83,0.61c0.78,0.36,1.47,0.83,2.07,1.41
				c0.6,0.58,1.08,1.25,1.44,2.01c0.32,0.65,0.57,1.36,0.74,2.13c0.17,0.77,0.26,1.59,0.27,2.47v1.4c0,0.84-0.08,1.64-0.24,2.39
				c-0.16,0.75-0.4,1.44-0.7,2.07c-0.32,0.66-0.71,1.25-1.2,1.78c-0.48,0.53-1.02,0.99-1.61,1.37c-0.63,0.39-1.34,0.7-2.13,0.91
				s-1.65,0.32-2.56,0.33h-4.42V194.87z M543.2,212h1.96c0.7-0.01,1.34-0.1,1.91-0.26c0.57-0.17,1.08-0.4,1.53-0.71
				c0.47-0.32,0.88-0.7,1.23-1.16c0.35-0.46,0.62-0.97,0.82-1.54c0.18-0.46,0.31-0.96,0.39-1.5c0.09-0.54,0.13-1.1,0.14-1.69v-1.43
				c-0.01-0.59-0.06-1.17-0.15-1.71c-0.09-0.55-0.23-1.06-0.41-1.53c-0.24-0.61-0.55-1.17-0.95-1.66c-0.4-0.49-0.89-0.89-1.46-1.2
				c-0.41-0.23-0.87-0.4-1.38-0.53s-1.06-0.2-1.67-0.2h-1.96V212z"/>
			<path class="st4" d="M559.64,205.15v6.77h9.3v2.06h-11.73v-19.11h11.61v2.07h-9.19v6.14h7.98v2.06H559.64z"/>
			<path class="st4" d="M582.83,207.67c-0.27-0.4-0.61-0.74-1.03-1.02c-0.42-0.27-0.88-0.5-1.38-0.68c-0.5-0.18-0.99-0.35-1.45-0.5
				c-0.67-0.22-1.36-0.48-2.05-0.79s-1.33-0.68-1.9-1.12c-0.58-0.45-1.05-0.97-1.41-1.58c-0.36-0.61-0.54-1.32-0.54-2.15
				s0.18-1.56,0.54-2.21s0.84-1.19,1.42-1.64c0.59-0.45,1.25-0.79,1.99-1.02c0.74-0.23,1.49-0.35,2.24-0.35
				c0.83,0,1.63,0.14,2.4,0.41c0.77,0.28,1.45,0.66,2.05,1.16c0.6,0.5,1.07,1.1,1.43,1.81c0.36,0.71,0.54,1.5,0.56,2.38h-2.49
				c-0.07-0.55-0.21-1.05-0.41-1.5c-0.2-0.45-0.47-0.84-0.8-1.16c-0.33-0.32-0.73-0.58-1.19-0.75c-0.46-0.18-0.98-0.27-1.55-0.27
				c-0.46,0-0.92,0.07-1.36,0.2c-0.44,0.13-0.83,0.33-1.17,0.59c-0.35,0.26-0.63,0.59-0.83,0.97c-0.21,0.38-0.31,0.83-0.31,1.34
				c0.01,0.55,0.15,1.02,0.42,1.4c0.27,0.38,0.62,0.7,1.04,0.96c0.41,0.26,0.86,0.48,1.35,0.66s0.94,0.33,1.37,0.46
				c0.71,0.22,1.42,0.48,2.12,0.79c0.71,0.31,1.36,0.71,1.94,1.19c0.58,0.45,1.04,0.99,1.4,1.64c0.36,0.65,0.53,1.4,0.53,2.24
				c0,0.86-0.19,1.61-0.57,2.24s-0.87,1.17-1.48,1.59c-0.6,0.43-1.29,0.75-2.05,0.96c-0.76,0.21-1.52,0.32-2.28,0.32
				c-0.91,0-1.8-0.15-2.68-0.46c-0.88-0.31-1.64-0.75-2.29-1.33c-0.58-0.5-1.04-1.08-1.37-1.75c-0.34-0.67-0.52-1.41-0.54-2.24h2.48
				c0.08,0.6,0.24,1.12,0.48,1.58c0.25,0.46,0.56,0.85,0.95,1.16c0.38,0.32,0.83,0.57,1.33,0.73c0.5,0.16,1.05,0.24,1.65,0.24
				c0.47,0,0.94-0.06,1.4-0.18s0.87-0.3,1.23-0.56c0.36-0.25,0.65-0.56,0.88-0.94s0.34-0.83,0.34-1.36
				C583.23,208.56,583.1,208.07,582.83,207.67z"/>
			<path class="st4" d="M601.05,210.66c-0.34,0.74-0.78,1.37-1.32,1.9c-0.55,0.53-1.2,0.95-1.95,1.24s-1.58,0.44-2.5,0.44
				c-0.79,0-1.5-0.11-2.14-0.33c-0.64-0.22-1.21-0.53-1.71-0.92c-0.51-0.39-0.94-0.86-1.3-1.39c-0.36-0.53-0.66-1.12-0.9-1.75
				c-0.24-0.63-0.43-1.29-0.54-1.98c-0.12-0.69-0.18-1.39-0.19-2.1v-2.66c0.01-0.71,0.07-1.41,0.19-2.1
				c0.12-0.69,0.3-1.35,0.54-1.98c0.24-0.63,0.54-1.21,0.9-1.75c0.36-0.54,0.8-1,1.3-1.4c0.5-0.39,1.07-0.7,1.71-0.92
				c0.64-0.22,1.36-0.33,2.15-0.33c0.95,0,1.81,0.15,2.56,0.44c0.75,0.29,1.4,0.71,1.94,1.24c0.54,0.54,0.98,1.19,1.3,1.94
				c0.33,0.75,0.54,1.58,0.65,2.49h-2.43c-0.08-0.58-0.21-1.12-0.41-1.61c-0.19-0.5-0.45-0.94-0.78-1.31
				c-0.32-0.38-0.72-0.67-1.19-0.89c-0.47-0.21-1.02-0.32-1.66-0.32c-0.58,0-1.09,0.09-1.53,0.28c-0.44,0.19-0.82,0.44-1.14,0.77
				c-0.32,0.32-0.59,0.7-0.81,1.13s-0.39,0.88-0.52,1.36c-0.13,0.48-0.22,0.97-0.28,1.48c-0.06,0.5-0.08,0.99-0.08,1.46v2.69
				c0,0.47,0.03,0.96,0.08,1.46c0.06,0.5,0.15,1,0.28,1.48c0.13,0.49,0.3,0.95,0.51,1.38c0.21,0.43,0.48,0.81,0.8,1.13
				c0.32,0.33,0.7,0.59,1.14,0.78c0.44,0.19,0.95,0.28,1.54,0.28c0.64,0,1.19-0.1,1.66-0.3c0.47-0.2,0.86-0.49,1.19-0.85
				c0.32-0.36,0.58-0.79,0.78-1.28c0.19-0.49,0.33-1.03,0.41-1.61h2.43C601.62,209.12,601.39,209.93,601.05,210.66z"/>
			<path class="st4" d="M607.99,206.18v7.79h-2.41v-19.11h5.6c0.89,0.02,1.73,0.14,2.52,0.38c0.79,0.24,1.48,0.59,2.07,1.06
				c0.59,0.47,1.05,1.07,1.38,1.78c0.34,0.71,0.51,1.55,0.51,2.51c0,0.62-0.09,1.19-0.27,1.71c-0.18,0.52-0.43,0.98-0.74,1.4
				c-0.32,0.42-0.69,0.79-1.13,1.12c-0.44,0.32-0.92,0.6-1.44,0.83l4.05,8.16l-0.01,0.16h-2.56l-3.75-7.79H607.99z M611.25,204.19
				c0.54-0.01,1.05-0.09,1.54-0.26c0.48-0.16,0.9-0.4,1.27-0.7c0.36-0.31,0.64-0.68,0.85-1.12c0.21-0.44,0.31-0.95,0.31-1.53
				c0-0.61-0.1-1.15-0.3-1.61s-0.48-0.85-0.84-1.16c-0.36-0.31-0.79-0.54-1.28-0.7c-0.49-0.16-1.04-0.24-1.62-0.25h-3.19v7.32
				H611.25z"/>
			<path class="st4" d="M633.16,194.87v2.11h-4.58v14.89h4.58v2.1h-11.55v-2.1h4.47v-14.89h-4.47v-2.11H633.16z"/>
			<path class="st4" d="M637.72,194.87h5.68c0.79,0.01,1.56,0.11,2.31,0.31c0.75,0.2,1.42,0.5,2.01,0.91
				c0.59,0.41,1.05,0.94,1.4,1.58s0.52,1.4,0.51,2.3c-0.01,0.5-0.09,0.95-0.24,1.37c-0.15,0.41-0.36,0.78-0.62,1.1
				c-0.27,0.33-0.57,0.61-0.9,0.84c-0.33,0.23-0.72,0.44-1.19,0.64v0.04c0.48,0.11,0.94,0.32,1.39,0.62c0.45,0.3,0.81,0.62,1.1,0.98
				c0.31,0.39,0.54,0.83,0.71,1.33c0.17,0.49,0.26,1.02,0.26,1.59c0.01,0.89-0.16,1.68-0.51,2.36s-0.82,1.25-1.4,1.71
				c-0.59,0.46-1.26,0.82-2.03,1.06c-0.77,0.25-1.55,0.37-2.37,0.38h-6.12V194.87z M643.54,203.02c0.46-0.01,0.9-0.08,1.34-0.22
				c0.44-0.13,0.83-0.33,1.17-0.6c0.34-0.25,0.62-0.57,0.83-0.94c0.21-0.38,0.32-0.81,0.32-1.31c0-0.53-0.1-0.99-0.31-1.36
				c-0.21-0.38-0.48-0.69-0.82-0.93c-0.35-0.24-0.75-0.41-1.2-0.52c-0.45-0.11-0.91-0.17-1.38-0.18h-3.32v6.08H643.54z
				 M640.16,211.92h3.74c0.51-0.01,0.99-0.09,1.44-0.26c0.46-0.16,0.86-0.39,1.21-0.68c0.35-0.29,0.63-0.64,0.83-1.06
				s0.31-0.9,0.31-1.43c0.01-0.54-0.08-1.02-0.27-1.44s-0.45-0.78-0.78-1.08c-0.33-0.29-0.72-0.51-1.17-0.67
				c-0.45-0.16-0.93-0.24-1.44-0.26h-3.87V211.92z"/>
			<path class="st4" d="M656.4,205.15v6.77h9.3v2.06h-11.73v-19.11h11.61v2.07h-9.19v6.14h7.98v2.06H656.4z"/>
			<path class="st4" d="M688.87,209.03l-1.54,4.95h-2.43l6.17-19.11h2.03l6.06,19.11h-2.41l-1.51-4.95H688.87z M694.6,206.92
				l-2.52-8.29l-2.56,8.29H694.6z"/>
			<path class="st4" d="M124.33,246.23h-2.43v-19.11h6.19c0.86,0.02,1.67,0.15,2.43,0.41c0.77,0.25,1.44,0.62,2.01,1.1
				c0.58,0.48,1.03,1.08,1.37,1.79c0.34,0.71,0.51,1.52,0.51,2.44c0,0.92-0.17,1.73-0.51,2.43c-0.34,0.71-0.79,1.3-1.37,1.78
				c-0.58,0.48-1.25,0.85-2.01,1.1c-0.77,0.25-1.58,0.38-2.43,0.39h-3.77V246.23z M128.1,236.57c0.56-0.01,1.08-0.1,1.55-0.27
				c0.47-0.17,0.88-0.41,1.23-0.73c0.35-0.31,0.62-0.7,0.82-1.15c0.2-0.45,0.3-0.96,0.3-1.54c0-0.58-0.1-1.1-0.3-1.56
				s-0.47-0.86-0.81-1.18c-0.35-0.32-0.76-0.57-1.24-0.75c-0.48-0.17-1-0.27-1.56-0.28h-3.77v7.45H128.1z"/>
			<path class="st4" d="M147.49,246.23v-8.83h-7.83v8.83h-2.28v-19.11h2.28v8.21h7.83v-8.21h2.3v19.11H147.49z"/>
			<path class="st4" d="M165.48,227.12v2.11h-4.58v14.89h4.58v2.1h-11.55v-2.1h4.47v-14.89h-4.47v-2.11H165.48z"/>
			<path class="st4" d="M182.15,244.17v2.06h-11.77v-19.11h2.43v17.04H182.15z"/>
			<path class="st4" d="M198.44,239.84c-0.11,0.7-0.28,1.37-0.51,2.01s-0.52,1.25-0.87,1.81s-0.78,1.05-1.27,1.47
				c-0.49,0.42-1.05,0.75-1.69,0.99s-1.34,0.36-2.13,0.36c-0.79,0-1.5-0.12-2.13-0.36s-1.2-0.57-1.69-0.99s-0.91-0.91-1.27-1.48
				c-0.36-0.56-0.65-1.17-0.88-1.82c-0.24-0.65-0.41-1.32-0.52-2.01c-0.11-0.69-0.18-1.38-0.18-2.06v-2.18
				c0.01-0.68,0.07-1.37,0.18-2.07s0.28-1.37,0.52-2.01c0.23-0.65,0.52-1.25,0.87-1.82s0.78-1.06,1.27-1.49
				c0.49-0.42,1.05-0.75,1.69-0.99c0.63-0.24,1.34-0.36,2.13-0.36c0.79,0,1.5,0.12,2.14,0.36c0.64,0.24,1.2,0.57,1.69,0.99
				c0.49,0.42,0.91,0.91,1.27,1.48c0.35,0.56,0.65,1.17,0.89,1.82c0.23,0.65,0.4,1.32,0.51,2.02c0.11,0.7,0.17,1.39,0.18,2.07v2.18
				C198.61,238.46,198.55,239.15,198.44,239.84z M196.12,234.15c-0.05-0.49-0.14-0.99-0.26-1.48c-0.13-0.48-0.3-0.94-0.51-1.38
				c-0.21-0.44-0.47-0.83-0.79-1.17c-0.31-0.33-0.69-0.6-1.12-0.79c-0.43-0.2-0.93-0.3-1.5-0.3c-0.56,0-1.05,0.1-1.48,0.3
				s-0.8,0.47-1.12,0.8c-0.31,0.34-0.58,0.73-0.79,1.17c-0.21,0.44-0.38,0.9-0.5,1.38c-0.13,0.49-0.23,0.98-0.28,1.48
				s-0.09,0.96-0.1,1.41v2.21c0.01,0.45,0.04,0.92,0.1,1.42c0.06,0.5,0.15,0.99,0.28,1.47c0.13,0.49,0.3,0.96,0.51,1.4
				c0.21,0.45,0.47,0.84,0.79,1.17c0.31,0.34,0.69,0.61,1.12,0.81c0.43,0.2,0.93,0.3,1.5,0.3c0.57,0,1.07-0.1,1.5-0.3
				c0.43-0.2,0.81-0.47,1.12-0.81c0.31-0.33,0.56-0.72,0.77-1.16c0.21-0.44,0.37-0.91,0.51-1.4c0.12-0.48,0.21-0.97,0.26-1.47
				c0.05-0.5,0.08-0.97,0.09-1.43v-2.21C196.21,235.12,196.18,234.64,196.12,234.15z"/>
			<path class="st4" d="M211.92,239.91c-0.27-0.4-0.61-0.74-1.03-1.02c-0.42-0.27-0.88-0.5-1.38-0.68s-0.99-0.35-1.45-0.5
				c-0.67-0.22-1.36-0.48-2.05-0.79s-1.33-0.68-1.9-1.12c-0.58-0.45-1.05-0.97-1.41-1.58c-0.36-0.61-0.54-1.32-0.54-2.15
				s0.18-1.56,0.54-2.21c0.36-0.65,0.84-1.19,1.42-1.64c0.59-0.45,1.25-0.79,1.99-1.02c0.74-0.23,1.49-0.35,2.24-0.35
				c0.83,0,1.63,0.14,2.4,0.41c0.77,0.28,1.45,0.66,2.05,1.16c0.59,0.5,1.07,1.1,1.43,1.81c0.36,0.71,0.55,1.5,0.56,2.38h-2.49
				c-0.07-0.55-0.21-1.05-0.41-1.5c-0.2-0.45-0.47-0.84-0.8-1.16c-0.33-0.32-0.73-0.58-1.19-0.75c-0.46-0.18-0.98-0.27-1.56-0.27
				c-0.46,0-0.92,0.07-1.36,0.2c-0.44,0.13-0.83,0.33-1.17,0.59c-0.35,0.26-0.63,0.59-0.83,0.97s-0.31,0.83-0.31,1.34
				c0.01,0.55,0.15,1.02,0.42,1.4c0.27,0.38,0.62,0.7,1.04,0.96c0.41,0.26,0.86,0.48,1.35,0.66s0.94,0.33,1.37,0.46
				c0.71,0.22,1.42,0.48,2.13,0.79s1.36,0.71,1.94,1.19c0.58,0.45,1.04,0.99,1.4,1.64c0.35,0.65,0.53,1.4,0.53,2.24
				c0,0.86-0.19,1.61-0.57,2.24c-0.38,0.64-0.87,1.17-1.48,1.59c-0.6,0.43-1.29,0.75-2.05,0.96c-0.76,0.21-1.52,0.32-2.28,0.32
				c-0.91,0-1.8-0.15-2.68-0.46c-0.88-0.31-1.64-0.75-2.29-1.33c-0.58-0.5-1.03-1.08-1.37-1.75c-0.34-0.67-0.52-1.41-0.54-2.24h2.48
				c0.08,0.6,0.24,1.12,0.49,1.58c0.24,0.46,0.56,0.85,0.94,1.16c0.38,0.32,0.83,0.57,1.33,0.73c0.5,0.16,1.05,0.24,1.65,0.24
				c0.47,0,0.94-0.06,1.4-0.18s0.87-0.3,1.23-0.56c0.36-0.25,0.65-0.56,0.88-0.94s0.34-0.83,0.34-1.36
				C212.32,240.81,212.18,240.32,211.92,239.91z"/>
			<path class="st4" d="M230.69,239.84c-0.11,0.7-0.28,1.37-0.51,2.01s-0.52,1.25-0.87,1.81s-0.78,1.05-1.27,1.47
				c-0.49,0.42-1.05,0.75-1.69,0.99s-1.34,0.36-2.13,0.36c-0.79,0-1.5-0.12-2.13-0.36s-1.2-0.57-1.69-0.99s-0.91-0.91-1.27-1.48
				c-0.36-0.56-0.65-1.17-0.88-1.82c-0.24-0.65-0.41-1.32-0.52-2.01c-0.11-0.69-0.18-1.38-0.18-2.06v-2.18
				c0.01-0.68,0.07-1.37,0.18-2.07s0.28-1.37,0.52-2.01c0.23-0.65,0.52-1.25,0.87-1.82s0.78-1.06,1.27-1.49
				c0.49-0.42,1.05-0.75,1.69-0.99c0.63-0.24,1.34-0.36,2.13-0.36c0.79,0,1.5,0.12,2.14,0.36c0.64,0.24,1.2,0.57,1.69,0.99
				c0.49,0.42,0.91,0.91,1.27,1.48c0.35,0.56,0.65,1.17,0.89,1.82c0.23,0.65,0.4,1.32,0.51,2.02c0.11,0.7,0.17,1.39,0.18,2.07v2.18
				C230.86,238.46,230.8,239.15,230.69,239.84z M228.38,234.15c-0.05-0.49-0.14-0.99-0.26-1.48c-0.13-0.48-0.3-0.94-0.51-1.38
				c-0.21-0.44-0.47-0.83-0.79-1.17c-0.31-0.33-0.69-0.6-1.12-0.79c-0.43-0.2-0.93-0.3-1.5-0.3c-0.56,0-1.05,0.1-1.48,0.3
				s-0.8,0.47-1.12,0.8c-0.31,0.34-0.58,0.73-0.79,1.17c-0.21,0.44-0.38,0.9-0.5,1.38c-0.13,0.49-0.23,0.98-0.28,1.48
				s-0.09,0.96-0.1,1.41v2.21c0.01,0.45,0.04,0.92,0.1,1.42c0.06,0.5,0.15,0.99,0.28,1.47c0.13,0.49,0.3,0.96,0.51,1.4
				c0.21,0.45,0.47,0.84,0.79,1.17c0.31,0.34,0.69,0.61,1.12,0.81c0.43,0.2,0.93,0.3,1.5,0.3c0.57,0,1.07-0.1,1.5-0.3
				c0.43-0.2,0.81-0.47,1.12-0.81c0.31-0.33,0.56-0.72,0.77-1.16c0.21-0.44,0.37-0.91,0.51-1.4c0.12-0.48,0.21-0.97,0.26-1.47
				c0.05-0.5,0.08-0.97,0.09-1.43v-2.21C228.46,235.12,228.43,234.64,228.38,234.15z"/>
			<path class="st4" d="M237.22,246.23h-2.43v-19.11h6.19c0.86,0.02,1.67,0.15,2.43,0.41c0.77,0.25,1.44,0.62,2.01,1.1
				c0.58,0.48,1.03,1.08,1.37,1.79c0.34,0.71,0.51,1.52,0.51,2.44c0,0.92-0.17,1.73-0.51,2.43c-0.34,0.71-0.79,1.3-1.37,1.78
				c-0.58,0.48-1.25,0.85-2.01,1.1c-0.77,0.25-1.58,0.38-2.43,0.39h-3.77V246.23z M240.99,236.57c0.56-0.01,1.08-0.1,1.55-0.27
				c0.47-0.17,0.88-0.41,1.23-0.73c0.35-0.31,0.62-0.7,0.82-1.15c0.2-0.45,0.3-0.96,0.3-1.54c0-0.58-0.1-1.1-0.3-1.56
				s-0.47-0.86-0.81-1.18c-0.35-0.32-0.76-0.57-1.24-0.75c-0.48-0.17-1-0.27-1.56-0.28h-3.77v7.45H240.99z"/>
			<path class="st4" d="M260.38,246.23v-8.83h-7.83v8.83h-2.28v-19.11h2.28v8.21h7.83v-8.21h2.3v19.11H260.38z"/>
			<path class="st4" d="M276.81,227.12h2.76l-5.94,11.98l-0.04,7.12h-2.26l-0.04-7.12l-5.94-11.98h2.77l4.34,9.59L276.81,227.12z"/>
			<path class="st4" d="M311.33,239.84c-0.11,0.7-0.28,1.37-0.51,2.01s-0.52,1.25-0.87,1.81s-0.78,1.05-1.27,1.47
				c-0.49,0.42-1.05,0.75-1.69,0.99s-1.34,0.36-2.13,0.36c-0.79,0-1.5-0.12-2.13-0.36s-1.2-0.57-1.69-0.99s-0.91-0.91-1.27-1.48
				c-0.36-0.56-0.65-1.17-0.88-1.82c-0.24-0.65-0.41-1.32-0.52-2.01c-0.11-0.69-0.18-1.38-0.18-2.06v-2.18
				c0.01-0.68,0.07-1.37,0.18-2.07s0.28-1.37,0.52-2.01c0.23-0.65,0.52-1.25,0.87-1.82s0.78-1.06,1.27-1.49
				c0.49-0.42,1.05-0.75,1.69-0.99c0.63-0.24,1.34-0.36,2.13-0.36c0.79,0,1.5,0.12,2.14,0.36c0.64,0.24,1.2,0.57,1.69,0.99
				c0.49,0.42,0.91,0.91,1.27,1.48c0.35,0.56,0.65,1.17,0.89,1.82c0.23,0.65,0.4,1.32,0.51,2.02c0.11,0.7,0.17,1.39,0.18,2.07v2.18
				C311.5,238.46,311.44,239.15,311.33,239.84z M309.01,234.15c-0.05-0.49-0.14-0.99-0.26-1.48c-0.13-0.48-0.3-0.94-0.51-1.38
				c-0.21-0.44-0.47-0.83-0.79-1.17c-0.31-0.33-0.69-0.6-1.12-0.79c-0.43-0.2-0.93-0.3-1.5-0.3c-0.56,0-1.05,0.1-1.48,0.3
				s-0.8,0.47-1.12,0.8c-0.31,0.34-0.58,0.73-0.79,1.17c-0.21,0.44-0.38,0.9-0.5,1.38c-0.13,0.49-0.23,0.98-0.28,1.48
				s-0.09,0.96-0.1,1.41v2.21c0.01,0.45,0.04,0.92,0.1,1.42c0.06,0.5,0.15,0.99,0.28,1.47c0.13,0.49,0.3,0.96,0.51,1.4
				c0.21,0.45,0.47,0.84,0.79,1.17c0.31,0.34,0.69,0.61,1.12,0.81c0.43,0.2,0.93,0.3,1.5,0.3c0.57,0,1.07-0.1,1.5-0.3
				c0.43-0.2,0.81-0.47,1.12-0.81c0.31-0.33,0.56-0.72,0.77-1.16c0.21-0.44,0.37-0.91,0.51-1.4c0.12-0.48,0.21-0.97,0.26-1.47
				c0.05-0.5,0.08-0.97,0.09-1.43v-2.21C309.09,235.12,309.06,234.64,309.01,234.15z"/>
			<path class="st4" d="M317.71,238.43v7.79h-2.41v-19.11h5.6c0.89,0.02,1.73,0.14,2.52,0.38c0.79,0.24,1.48,0.59,2.07,1.06
				c0.59,0.47,1.05,1.07,1.38,1.78s0.51,1.55,0.51,2.51c0,0.62-0.09,1.19-0.27,1.71c-0.18,0.52-0.43,0.98-0.74,1.4
				s-0.69,0.79-1.13,1.12c-0.44,0.32-0.92,0.6-1.44,0.83l4.05,8.16l-0.01,0.16h-2.56l-3.75-7.79H317.71z M320.97,236.44
				c0.54-0.01,1.05-0.09,1.54-0.26c0.48-0.16,0.91-0.4,1.27-0.7c0.36-0.31,0.64-0.68,0.85-1.12c0.21-0.44,0.31-0.95,0.31-1.53
				c0-0.61-0.1-1.15-0.3-1.61s-0.48-0.85-0.84-1.16c-0.36-0.31-0.79-0.54-1.28-0.7c-0.49-0.16-1.03-0.24-1.62-0.25h-3.19v7.32
				H320.97z"/>
			<path class="st4" d="M350.2,241.28l-1.54,4.95h-2.43l6.17-19.11h2.03l6.06,19.11h-2.41l-1.51-4.95H350.2z M355.94,239.17
				l-2.52-8.29l-2.56,8.29H355.94z"/>
			<path class="st4" d="M366.24,246.23h-2.43v-19.11H370c0.86,0.02,1.67,0.15,2.43,0.41c0.77,0.25,1.44,0.62,2.01,1.1
				c0.58,0.48,1.03,1.08,1.37,1.79c0.34,0.71,0.51,1.52,0.51,2.44c0,0.92-0.17,1.73-0.51,2.43c-0.34,0.71-0.79,1.3-1.37,1.78
				c-0.58,0.48-1.25,0.85-2.01,1.1c-0.77,0.25-1.58,0.38-2.43,0.39h-3.77V246.23z M370,236.57c0.56-0.01,1.08-0.1,1.55-0.27
				c0.47-0.17,0.88-0.41,1.23-0.73c0.35-0.31,0.62-0.7,0.82-1.15c0.2-0.45,0.3-0.96,0.3-1.54c0-0.58-0.1-1.1-0.3-1.56
				s-0.47-0.86-0.81-1.18c-0.35-0.32-0.76-0.57-1.24-0.75c-0.48-0.17-1-0.27-1.56-0.28h-3.77v7.45H370z"/>
			<path class="st4" d="M382.36,246.23h-2.43v-19.11h6.19c0.86,0.02,1.67,0.15,2.43,0.41c0.77,0.25,1.44,0.62,2.01,1.1
				c0.58,0.48,1.03,1.08,1.37,1.79c0.34,0.71,0.51,1.52,0.51,2.44c0,0.92-0.17,1.73-0.51,2.43c-0.34,0.71-0.79,1.3-1.37,1.78
				c-0.58,0.48-1.25,0.85-2.01,1.1c-0.77,0.25-1.58,0.38-2.43,0.39h-3.77V246.23z M386.13,236.57c0.56-0.01,1.08-0.1,1.55-0.27
				c0.47-0.17,0.88-0.41,1.23-0.73c0.35-0.31,0.62-0.7,0.82-1.15c0.2-0.45,0.3-0.96,0.3-1.54c0-0.58-0.1-1.1-0.3-1.56
				s-0.47-0.86-0.81-1.18c-0.35-0.32-0.76-0.57-1.24-0.75c-0.48-0.17-1-0.27-1.56-0.28h-3.77v7.45H386.13z"/>
			<path class="st4" d="M398.35,238.43v7.79h-2.41v-19.11h5.6c0.89,0.02,1.73,0.14,2.52,0.38c0.79,0.24,1.48,0.59,2.07,1.06
				c0.59,0.47,1.05,1.07,1.38,1.78s0.51,1.55,0.51,2.51c0,0.62-0.09,1.19-0.27,1.71c-0.18,0.52-0.43,0.98-0.74,1.4
				s-0.69,0.79-1.13,1.12c-0.44,0.32-0.92,0.6-1.44,0.83l4.05,8.16l-0.01,0.16h-2.56l-3.75-7.79H398.35z M401.6,236.44
				c0.54-0.01,1.05-0.09,1.54-0.26c0.48-0.16,0.91-0.4,1.27-0.7c0.36-0.31,0.64-0.68,0.85-1.12c0.21-0.44,0.31-0.95,0.31-1.53
				c0-0.61-0.1-1.15-0.3-1.61s-0.48-0.85-0.84-1.16c-0.36-0.31-0.79-0.54-1.28-0.7c-0.49-0.16-1.03-0.24-1.62-0.25h-3.19v7.32H401.6
				z"/>
			<path class="st4" d="M424.22,239.84c-0.11,0.7-0.28,1.37-0.51,2.01s-0.52,1.25-0.87,1.81s-0.78,1.05-1.27,1.47
				c-0.49,0.42-1.05,0.75-1.69,0.99s-1.34,0.36-2.13,0.36c-0.79,0-1.5-0.12-2.13-0.36s-1.2-0.57-1.69-0.99s-0.91-0.91-1.27-1.48
				c-0.36-0.56-0.65-1.17-0.88-1.82c-0.24-0.65-0.41-1.32-0.52-2.01c-0.11-0.69-0.18-1.38-0.18-2.06v-2.18
				c0.01-0.68,0.07-1.37,0.18-2.07s0.28-1.37,0.52-2.01c0.23-0.65,0.52-1.25,0.87-1.82s0.78-1.06,1.27-1.49
				c0.49-0.42,1.05-0.75,1.69-0.99c0.63-0.24,1.34-0.36,2.13-0.36c0.79,0,1.5,0.12,2.14,0.36c0.64,0.24,1.2,0.57,1.69,0.99
				c0.49,0.42,0.91,0.91,1.27,1.48c0.35,0.56,0.65,1.17,0.89,1.82c0.23,0.65,0.4,1.32,0.51,2.02c0.11,0.7,0.17,1.39,0.18,2.07v2.18
				C424.38,238.46,424.33,239.15,424.22,239.84z M421.9,234.15c-0.05-0.49-0.14-0.99-0.26-1.48c-0.13-0.48-0.3-0.94-0.51-1.38
				c-0.21-0.44-0.47-0.83-0.79-1.17c-0.31-0.33-0.69-0.6-1.12-0.79c-0.43-0.2-0.93-0.3-1.5-0.3c-0.56,0-1.05,0.1-1.48,0.3
				s-0.8,0.47-1.12,0.8c-0.31,0.34-0.58,0.73-0.79,1.17c-0.21,0.44-0.38,0.9-0.5,1.38c-0.13,0.49-0.23,0.98-0.28,1.48
				s-0.09,0.96-0.1,1.41v2.21c0.01,0.45,0.04,0.92,0.1,1.42c0.06,0.5,0.15,0.99,0.28,1.47c0.13,0.49,0.3,0.96,0.51,1.4
				c0.21,0.45,0.47,0.84,0.79,1.17c0.31,0.34,0.69,0.61,1.12,0.81c0.43,0.2,0.93,0.3,1.5,0.3c0.57,0,1.07-0.1,1.5-0.3
				c0.43-0.2,0.81-0.47,1.12-0.81c0.31-0.33,0.56-0.72,0.77-1.16c0.21-0.44,0.37-0.91,0.51-1.4c0.12-0.48,0.21-0.97,0.26-1.47
				c0.05-0.5,0.08-0.97,0.09-1.43v-2.21C421.98,235.12,421.95,234.64,421.9,234.15z"/>
			<path class="st4" d="M430.84,241.28l-1.54,4.95h-2.43l6.17-19.11h2.03l6.06,19.11h-2.41l-1.51-4.95H430.84z M436.57,239.17
				l-2.52-8.29l-2.56,8.29H436.57z"/>
			<path class="st4" d="M455.91,242.91c-0.34,0.74-0.78,1.37-1.33,1.9c-0.55,0.53-1.2,0.95-1.95,1.24c-0.75,0.29-1.58,0.44-2.5,0.44
				c-0.79,0-1.5-0.11-2.15-0.33c-0.64-0.22-1.21-0.53-1.71-0.92c-0.51-0.39-0.94-0.86-1.31-1.39c-0.36-0.53-0.66-1.12-0.9-1.75
				c-0.24-0.63-0.43-1.29-0.54-1.98c-0.12-0.69-0.18-1.39-0.19-2.1v-2.66c0.01-0.71,0.07-1.41,0.19-2.1s0.3-1.35,0.54-1.98
				c0.24-0.63,0.54-1.21,0.9-1.75c0.36-0.54,0.8-1,1.31-1.4c0.5-0.39,1.07-0.7,1.71-0.92c0.64-0.22,1.36-0.33,2.15-0.33
				c0.95,0,1.81,0.15,2.56,0.44c0.75,0.29,1.4,0.71,1.94,1.24c0.54,0.54,0.98,1.19,1.31,1.94c0.33,0.75,0.54,1.58,0.65,2.49h-2.43
				c-0.08-0.58-0.21-1.12-0.41-1.61s-0.45-0.94-0.77-1.31c-0.32-0.38-0.72-0.67-1.19-0.89c-0.47-0.21-1.02-0.32-1.66-0.32
				c-0.58,0-1.09,0.09-1.53,0.28s-0.82,0.44-1.13,0.77c-0.32,0.32-0.59,0.7-0.81,1.13s-0.39,0.88-0.52,1.36
				c-0.13,0.48-0.23,0.97-0.28,1.48c-0.06,0.5-0.09,0.99-0.09,1.46v2.69c0,0.47,0.03,0.96,0.09,1.46c0.06,0.5,0.15,1,0.28,1.48
				c0.13,0.49,0.3,0.95,0.51,1.38s0.48,0.81,0.8,1.13c0.32,0.33,0.7,0.59,1.14,0.78c0.44,0.19,0.95,0.28,1.54,0.28
				c0.64,0,1.19-0.1,1.66-0.3c0.47-0.2,0.86-0.49,1.19-0.85c0.32-0.36,0.58-0.79,0.77-1.28s0.33-1.03,0.41-1.61h2.43
				C456.48,241.36,456.25,242.17,455.91,242.91z"/>
			<path class="st4" d="M470.03,246.23v-8.83h-7.83v8.83h-2.28v-19.11h2.28v8.21h7.83v-8.21h2.3v19.11H470.03z"/>
			<path class="st4" d="M499.58,229.19v17.03h-2.36v-17.03h-5.91v-2.07h14.17v2.07H499.58z"/>
			<path class="st4" d="M518.41,246.23v-8.83h-7.83v8.83h-2.28v-19.11h2.28v8.21h7.83v-8.21h2.3v19.11H518.41z"/>
			<path class="st4" d="M527.6,241.28l-1.54,4.95h-2.43l6.17-19.11h2.03l6.06,19.11h-2.41l-1.51-4.95H527.6z M533.33,239.17
				l-2.52-8.29l-2.56,8.29H533.33z"/>
			<path class="st4" d="M547.96,229.19v17.03h-2.36v-17.03h-5.9v-2.07h14.17v2.07H547.96z"/>
			<path class="st4" d="M571.88,227.12h2.6l4.2,14.26l0.28,0.93l0.29-0.96l4.23-14.24h2.58l-6.02,19.11h-2.11L571.88,227.12z"/>
			<path class="st4" d="M592.1,241.28l-1.54,4.95h-2.43l6.17-19.11h2.03l6.06,19.11h-2.41l-1.51-4.95H592.1z M597.84,239.17
				l-2.52-8.29l-2.56,8.29H597.84z"/>
			<path class="st4" d="M617.57,244.17v2.06H605.8v-19.11h2.43v17.04H617.57z"/>
			<path class="st4" d="M633.63,240.06c0,0.89-0.16,1.73-0.47,2.51c-0.32,0.78-0.75,1.46-1.3,2.03c-0.55,0.59-1.21,1.05-1.97,1.38
				c-0.76,0.34-1.6,0.51-2.51,0.51c-0.93,0-1.77-0.17-2.53-0.5c-0.76-0.33-1.41-0.79-1.96-1.38c-0.54-0.58-0.97-1.26-1.27-2.04
				s-0.46-1.62-0.47-2.51l0.03-12.94h2.31l0.05,12.94c0.01,0.57,0.1,1.12,0.27,1.64c0.17,0.53,0.42,0.99,0.74,1.39
				c0.31,0.4,0.71,0.73,1.19,0.97s1.03,0.37,1.65,0.37s1.17-0.12,1.64-0.36c0.47-0.24,0.87-0.57,1.2-0.98
				c0.31-0.4,0.55-0.87,0.72-1.39c0.17-0.52,0.26-1.07,0.28-1.64l0.04-12.94h2.35L633.63,240.06z"/>
			<path class="st4" d="M640.28,237.4v6.77h9.3v2.06h-11.73v-19.11h11.61v2.07h-9.19v6.14h7.98v2.06H640.28z"/>
			<path class="st4" d="M663.47,239.91c-0.27-0.4-0.61-0.74-1.03-1.02c-0.42-0.27-0.88-0.5-1.38-0.68c-0.5-0.18-0.99-0.35-1.45-0.5
				c-0.67-0.22-1.36-0.48-2.05-0.79s-1.33-0.68-1.9-1.12c-0.58-0.45-1.05-0.97-1.41-1.58c-0.36-0.61-0.54-1.32-0.54-2.15
				s0.18-1.56,0.54-2.21s0.84-1.19,1.42-1.64c0.59-0.45,1.25-0.79,1.99-1.02c0.74-0.23,1.49-0.35,2.24-0.35
				c0.83,0,1.63,0.14,2.4,0.41c0.77,0.28,1.45,0.66,2.05,1.16c0.6,0.5,1.07,1.1,1.43,1.81c0.36,0.71,0.54,1.5,0.56,2.38h-2.49
				c-0.07-0.55-0.21-1.05-0.41-1.5c-0.2-0.45-0.47-0.84-0.8-1.16c-0.33-0.32-0.73-0.58-1.19-0.75c-0.46-0.18-0.98-0.27-1.55-0.27
				c-0.46,0-0.92,0.07-1.36,0.2c-0.44,0.13-0.83,0.33-1.17,0.59c-0.35,0.26-0.63,0.59-0.83,0.97c-0.21,0.38-0.31,0.83-0.31,1.34
				c0.01,0.55,0.15,1.02,0.42,1.4c0.27,0.38,0.62,0.7,1.04,0.96c0.41,0.26,0.86,0.48,1.35,0.66s0.94,0.33,1.37,0.46
				c0.71,0.22,1.42,0.48,2.12,0.79c0.71,0.31,1.36,0.71,1.94,1.19c0.58,0.45,1.04,0.99,1.4,1.64c0.36,0.65,0.53,1.4,0.53,2.24
				c0,0.86-0.19,1.61-0.57,2.24s-0.87,1.17-1.48,1.59c-0.6,0.43-1.29,0.75-2.05,0.96c-0.76,0.21-1.52,0.32-2.28,0.32
				c-0.91,0-1.8-0.15-2.68-0.46c-0.88-0.31-1.64-0.75-2.29-1.33c-0.58-0.5-1.04-1.08-1.37-1.75c-0.34-0.67-0.52-1.41-0.54-2.24h2.48
				c0.08,0.6,0.24,1.12,0.48,1.58c0.25,0.46,0.56,0.85,0.95,1.16c0.38,0.32,0.83,0.57,1.33,0.73c0.5,0.16,1.05,0.24,1.65,0.24
				c0.47,0,0.94-0.06,1.4-0.18s0.87-0.3,1.23-0.56c0.36-0.25,0.65-0.56,0.88-0.94s0.34-0.83,0.34-1.36
				C663.87,240.81,663.73,240.32,663.47,239.91z"/>
			<path class="st4" d="M688.87,241.28l-1.54,4.95h-2.43l6.17-19.11h2.03l6.06,19.11h-2.41l-1.51-4.95H688.87z M694.6,239.17
				l-2.52-8.29l-2.56,8.29H694.6z"/>
			<path class="st4" d="M714.27,240.06c0,0.89-0.16,1.73-0.47,2.51c-0.32,0.78-0.75,1.46-1.3,2.03c-0.55,0.59-1.21,1.05-1.97,1.38
				c-0.76,0.34-1.6,0.51-2.51,0.51c-0.93,0-1.77-0.17-2.53-0.5c-0.76-0.33-1.41-0.79-1.96-1.38c-0.54-0.58-0.97-1.26-1.27-2.04
				s-0.46-1.62-0.47-2.51l0.03-12.94h2.31l0.05,12.94c0.01,0.57,0.1,1.12,0.27,1.64c0.17,0.53,0.42,0.99,0.74,1.39
				c0.31,0.4,0.71,0.73,1.19,0.97s1.03,0.37,1.65,0.37s1.17-0.12,1.64-0.36c0.47-0.24,0.87-0.57,1.2-0.98
				c0.31-0.4,0.55-0.87,0.72-1.39c0.17-0.52,0.26-1.07,0.28-1.64l0.04-12.94h2.35L714.27,240.06z"/>
			<path class="st4" d="M718.13,227.12h4.42c0.74,0.01,1.45,0.08,2.11,0.23s1.27,0.35,1.83,0.61c0.78,0.36,1.47,0.83,2.07,1.41
				c0.6,0.58,1.08,1.25,1.44,2.01c0.32,0.65,0.57,1.36,0.74,2.13c0.17,0.77,0.26,1.59,0.27,2.47v1.4c0,0.84-0.08,1.64-0.24,2.39
				c-0.16,0.75-0.4,1.44-0.7,2.07c-0.32,0.66-0.71,1.25-1.2,1.78c-0.48,0.53-1.02,0.99-1.61,1.37c-0.63,0.39-1.34,0.7-2.13,0.91
				s-1.65,0.32-2.56,0.33h-4.42V227.12z M720.6,244.25h1.96c0.7-0.01,1.34-0.1,1.91-0.26c0.57-0.17,1.08-0.4,1.53-0.71
				c0.47-0.32,0.88-0.7,1.23-1.16c0.35-0.46,0.62-0.97,0.82-1.54c0.18-0.46,0.31-0.96,0.39-1.5c0.09-0.54,0.13-1.1,0.14-1.69v-1.43
				c-0.01-0.59-0.06-1.17-0.15-1.71c-0.09-0.55-0.23-1.06-0.41-1.53c-0.24-0.61-0.55-1.17-0.95-1.66c-0.4-0.49-0.89-0.89-1.46-1.2
				c-0.41-0.23-0.87-0.4-1.38-0.53s-1.06-0.2-1.67-0.2h-1.96V244.25z"/>
			<path class="st4" d="M746.05,227.12v2.11h-4.58v14.89h4.58v2.1H734.5v-2.1h4.47v-14.89h-4.47v-2.11H746.05z"/>
			<path class="st4" d="M757.61,229.19v17.03h-2.36v-17.03h-5.9v-2.07h14.17v2.07H757.61z"/>
			<path class="st4" d="M779.01,239.84c-0.11,0.7-0.28,1.37-0.51,2.01c-0.23,0.65-0.52,1.25-0.87,1.81
				c-0.35,0.56-0.78,1.05-1.27,1.47s-1.05,0.75-1.69,0.99s-1.35,0.36-2.13,0.36s-1.5-0.12-2.13-0.36c-0.63-0.24-1.2-0.57-1.69-0.99
				s-0.91-0.91-1.27-1.48c-0.36-0.56-0.65-1.17-0.88-1.82c-0.24-0.65-0.41-1.32-0.53-2.01c-0.11-0.69-0.17-1.38-0.18-2.06v-2.18
				c0.01-0.68,0.07-1.37,0.18-2.07s0.28-1.37,0.52-2.01c0.23-0.65,0.52-1.25,0.87-1.82c0.36-0.56,0.78-1.06,1.27-1.49
				c0.49-0.42,1.05-0.75,1.69-0.99c0.63-0.24,1.35-0.36,2.13-0.36s1.5,0.12,2.14,0.36c0.64,0.24,1.2,0.57,1.69,0.99
				c0.49,0.42,0.91,0.91,1.27,1.48c0.35,0.56,0.65,1.17,0.88,1.82c0.23,0.65,0.4,1.32,0.51,2.02c0.11,0.7,0.17,1.39,0.18,2.07v2.18
				C779.18,238.46,779.12,239.15,779.01,239.84z M776.69,234.15c-0.05-0.49-0.14-0.99-0.26-1.48c-0.13-0.48-0.3-0.94-0.51-1.38
				c-0.21-0.44-0.47-0.83-0.79-1.17c-0.32-0.33-0.69-0.6-1.12-0.79c-0.43-0.2-0.93-0.3-1.5-0.3c-0.56,0-1.05,0.1-1.48,0.3
				c-0.43,0.2-0.8,0.47-1.12,0.8c-0.31,0.34-0.58,0.73-0.79,1.17c-0.21,0.44-0.38,0.9-0.5,1.38c-0.13,0.49-0.22,0.98-0.28,1.48
				c-0.06,0.49-0.09,0.96-0.1,1.41v2.21c0.01,0.45,0.04,0.92,0.1,1.42c0.06,0.5,0.15,0.99,0.28,1.47c0.13,0.49,0.3,0.96,0.51,1.4
				c0.21,0.45,0.47,0.84,0.79,1.17c0.31,0.34,0.69,0.61,1.12,0.81c0.43,0.2,0.93,0.3,1.5,0.3s1.07-0.1,1.5-0.3
				c0.43-0.2,0.81-0.47,1.12-0.81c0.31-0.33,0.56-0.72,0.77-1.16c0.21-0.44,0.37-0.91,0.5-1.4c0.12-0.48,0.21-0.97,0.26-1.47
				c0.05-0.5,0.08-0.97,0.09-1.43v-2.21C776.78,235.12,776.74,234.64,776.69,234.15z"/>
			<path class="st4" d="M785.39,238.43v7.79h-2.41v-19.11h5.6c0.89,0.02,1.73,0.14,2.52,0.38c0.79,0.24,1.48,0.59,2.07,1.06
				c0.59,0.47,1.05,1.07,1.38,1.78c0.34,0.71,0.5,1.55,0.5,2.51c0,0.62-0.09,1.19-0.27,1.71c-0.18,0.52-0.43,0.98-0.74,1.4
				s-0.69,0.79-1.13,1.12c-0.44,0.32-0.92,0.6-1.44,0.83l4.05,8.16l-0.01,0.16h-2.56l-3.75-7.79H785.39z M788.64,236.44
				c0.54-0.01,1.05-0.09,1.54-0.26s0.91-0.4,1.27-0.7c0.36-0.31,0.64-0.68,0.85-1.12c0.21-0.44,0.31-0.95,0.31-1.53
				c0-0.61-0.1-1.15-0.3-1.61s-0.48-0.85-0.84-1.16c-0.36-0.31-0.79-0.54-1.28-0.7c-0.49-0.16-1.03-0.24-1.62-0.25h-3.19v7.32
				H788.64z"/>
			<path class="st4" d="M809,227.12h2.75l-5.94,11.98l-0.04,7.12h-2.26l-0.04-7.12l-5.94-11.98h2.77l4.34,9.59L809,227.12z"/>
			<path class="st4" d="M124.21,269.64v6.77h9.3v2.06h-11.73v-19.11h11.61v2.07h-9.19v6.14h7.98v2.06H124.21z"/>
			<path class="st4" d="M147.85,259.37h2.86l-5.55,9.47l5.68,9.63H148l-4.23-7.64l-4.24,7.64h-2.87l5.69-9.63l-5.55-9.47h2.85
				l4.07,7.49L147.85,259.37z"/>
			<path class="st4" d="M156.59,278.48h-2.43v-19.11h6.19c0.86,0.02,1.67,0.15,2.43,0.41c0.77,0.25,1.44,0.62,2.01,1.1
				c0.58,0.48,1.03,1.08,1.37,1.79c0.34,0.71,0.51,1.52,0.51,2.44c0,0.92-0.17,1.73-0.51,2.43c-0.34,0.71-0.79,1.3-1.37,1.78
				c-0.58,0.48-1.25,0.85-2.01,1.1c-0.77,0.25-1.58,0.38-2.43,0.39h-3.77V278.48z M160.35,268.82c0.56-0.01,1.08-0.1,1.55-0.27
				c0.47-0.17,0.88-0.41,1.23-0.73c0.35-0.31,0.62-0.7,0.82-1.15c0.2-0.45,0.3-0.96,0.3-1.54c0-0.58-0.1-1.1-0.3-1.56
				s-0.47-0.86-0.81-1.18c-0.35-0.32-0.76-0.57-1.24-0.75c-0.48-0.17-1-0.27-1.56-0.28h-3.77v7.45H160.35z"/>
			<path class="st4" d="M172.6,269.64v6.77h9.3v2.06h-11.73v-19.11h11.61v2.07h-9.19v6.14h7.98v2.06H172.6z"/>
			<path class="st4" d="M188.7,270.68v7.79h-2.41v-19.11h5.6c0.89,0.02,1.73,0.14,2.52,0.38c0.79,0.24,1.48,0.59,2.07,1.06
				c0.59,0.47,1.05,1.07,1.38,1.78s0.51,1.55,0.51,2.51c0,0.62-0.09,1.19-0.27,1.71c-0.18,0.52-0.43,0.98-0.74,1.4
				s-0.69,0.79-1.13,1.12c-0.44,0.32-0.92,0.6-1.44,0.83l4.05,8.16l-0.01,0.16h-2.56l-3.75-7.79H188.7z M191.95,268.69
				c0.54-0.01,1.05-0.09,1.54-0.26c0.48-0.16,0.91-0.4,1.27-0.7c0.36-0.31,0.64-0.68,0.85-1.12c0.21-0.44,0.31-0.95,0.31-1.53
				c0-0.61-0.1-1.15-0.3-1.61s-0.48-0.85-0.84-1.16c-0.36-0.31-0.79-0.54-1.28-0.7c-0.49-0.16-1.03-0.24-1.62-0.25h-3.19v7.32
				H191.95z"/>
			<path class="st4" d="M213.86,259.37v2.11h-4.58v14.89h4.58v2.1h-11.55v-2.1h4.47v-14.89h-4.47v-2.11H213.86z"/>
			<path class="st4" d="M220.98,269.64v6.77h9.3v2.06h-11.73v-19.11h11.61v2.07h-9.19v6.14h7.98v2.06H220.98z"/>
			<path class="st4" d="M244.07,278.48l-7.41-14.28l-0.04,14.28h-2.45v-19.11h2.47l7.41,14.25l0.04-14.25h2.45v19.11H244.07z"/>
			<path class="st4" d="M262.39,275.16c-0.34,0.74-0.78,1.37-1.33,1.9c-0.55,0.53-1.2,0.95-1.95,1.24c-0.75,0.29-1.58,0.44-2.5,0.44
				c-0.79,0-1.5-0.11-2.15-0.33c-0.64-0.22-1.21-0.53-1.71-0.92c-0.51-0.39-0.94-0.86-1.31-1.39c-0.36-0.53-0.66-1.12-0.9-1.75
				c-0.24-0.63-0.43-1.29-0.54-1.98c-0.12-0.69-0.18-1.39-0.19-2.1v-2.66c0.01-0.71,0.07-1.41,0.19-2.1s0.3-1.35,0.54-1.98
				c0.24-0.63,0.54-1.21,0.9-1.75c0.36-0.54,0.8-1,1.31-1.4c0.5-0.39,1.07-0.7,1.71-0.92c0.64-0.22,1.36-0.33,2.15-0.33
				c0.95,0,1.81,0.15,2.56,0.44c0.75,0.29,1.4,0.71,1.94,1.24c0.54,0.54,0.98,1.19,1.31,1.94c0.33,0.75,0.54,1.58,0.65,2.49h-2.43
				c-0.08-0.58-0.21-1.12-0.41-1.61s-0.45-0.94-0.77-1.31c-0.32-0.38-0.72-0.67-1.19-0.89c-0.47-0.21-1.02-0.32-1.66-0.32
				c-0.58,0-1.09,0.09-1.53,0.28s-0.82,0.44-1.13,0.77c-0.32,0.32-0.59,0.7-0.81,1.13s-0.39,0.88-0.52,1.36
				c-0.13,0.48-0.23,0.97-0.28,1.48c-0.06,0.5-0.09,0.99-0.09,1.46v2.69c0,0.47,0.03,0.96,0.09,1.46c0.06,0.5,0.15,1,0.28,1.48
				c0.13,0.49,0.3,0.95,0.51,1.38s0.48,0.81,0.8,1.13c0.32,0.33,0.7,0.59,1.14,0.78c0.44,0.19,0.95,0.28,1.54,0.28
				c0.64,0,1.19-0.1,1.66-0.3c0.47-0.2,0.86-0.49,1.19-0.85c0.32-0.36,0.58-0.79,0.77-1.28s0.33-1.03,0.41-1.61h2.43
				C262.96,273.61,262.73,274.42,262.39,275.16z"/>
			<path class="st4" d="M269.36,269.64v6.77h9.3v2.06h-11.73v-19.11h11.61v2.07h-9.19v6.14h7.98v2.06H269.36z"/>
			<path class="st4" d="M292.55,272.16c-0.27-0.4-0.61-0.74-1.03-1.02c-0.42-0.27-0.88-0.5-1.38-0.68s-0.99-0.35-1.45-0.5
				c-0.67-0.22-1.36-0.48-2.05-0.79s-1.33-0.68-1.9-1.12c-0.58-0.45-1.05-0.97-1.41-1.58c-0.36-0.61-0.54-1.32-0.54-2.15
				s0.18-1.56,0.54-2.21c0.36-0.65,0.84-1.19,1.42-1.64c0.59-0.45,1.25-0.79,1.99-1.02c0.74-0.23,1.49-0.35,2.24-0.35
				c0.83,0,1.63,0.14,2.4,0.41c0.77,0.28,1.45,0.66,2.05,1.16c0.59,0.5,1.07,1.1,1.43,1.81c0.36,0.71,0.55,1.5,0.56,2.38h-2.49
				c-0.07-0.55-0.21-1.05-0.41-1.5c-0.2-0.45-0.47-0.84-0.8-1.16c-0.33-0.32-0.73-0.58-1.19-0.75c-0.46-0.18-0.98-0.27-1.56-0.27
				c-0.46,0-0.92,0.07-1.36,0.2c-0.44,0.13-0.83,0.33-1.17,0.59c-0.35,0.26-0.63,0.59-0.83,0.97s-0.31,0.83-0.31,1.34
				c0.01,0.55,0.15,1.02,0.42,1.4c0.27,0.38,0.62,0.7,1.04,0.96c0.41,0.26,0.86,0.48,1.35,0.66s0.94,0.33,1.37,0.46
				c0.71,0.22,1.42,0.48,2.13,0.79s1.36,0.71,1.94,1.19c0.58,0.45,1.04,0.99,1.4,1.64c0.35,0.65,0.53,1.4,0.53,2.24
				c0,0.86-0.19,1.61-0.57,2.24c-0.38,0.64-0.87,1.17-1.48,1.59c-0.6,0.43-1.29,0.75-2.05,0.96c-0.76,0.21-1.52,0.32-2.28,0.32
				c-0.91,0-1.8-0.15-2.68-0.46c-0.88-0.31-1.64-0.75-2.29-1.33c-0.58-0.5-1.03-1.08-1.37-1.75c-0.34-0.67-0.52-1.41-0.54-2.24h2.48
				c0.08,0.6,0.24,1.12,0.49,1.58c0.24,0.46,0.56,0.85,0.94,1.16c0.38,0.32,0.83,0.57,1.33,0.73c0.5,0.16,1.05,0.24,1.65,0.24
				c0.47,0,0.94-0.06,1.4-0.18s0.87-0.3,1.23-0.56c0.36-0.25,0.65-0.56,0.88-0.94s0.34-0.83,0.34-1.36
				C292.95,273.06,292.82,272.57,292.55,272.16z"/>
			<path class="st4" d="M317.95,273.53l-1.54,4.95h-2.43l6.17-19.11h2.03l6.06,19.11h-2.41l-1.51-4.95H317.95z M323.68,271.42
				l-2.52-8.29l-2.56,8.29H323.68z"/>
			<path class="st4" d="M340.83,278.48l-7.41-14.28l-0.04,14.28h-2.45v-19.11h2.47l7.41,14.25l0.04-14.25h2.45v19.11H340.83z"/>
			<path class="st4" d="M347.21,259.37h4.42c0.74,0.01,1.45,0.08,2.11,0.23s1.27,0.35,1.83,0.61c0.78,0.36,1.47,0.83,2.07,1.41
				c0.6,0.58,1.08,1.25,1.44,2.01c0.32,0.65,0.57,1.36,0.74,2.13c0.17,0.77,0.26,1.59,0.27,2.47v1.4c0,0.84-0.08,1.64-0.24,2.39
				c-0.16,0.75-0.4,1.44-0.7,2.07c-0.31,0.66-0.71,1.25-1.19,1.78c-0.48,0.53-1.02,0.99-1.61,1.37c-0.63,0.39-1.34,0.7-2.13,0.91
				c-0.79,0.21-1.65,0.32-2.57,0.33h-4.42V259.37z M349.68,276.49h1.96c0.7-0.01,1.34-0.1,1.91-0.26c0.57-0.17,1.08-0.4,1.53-0.71
				c0.47-0.32,0.88-0.7,1.23-1.16c0.35-0.46,0.62-0.97,0.82-1.54c0.17-0.46,0.31-0.96,0.39-1.5s0.14-1.1,0.14-1.69v-1.43
				c-0.01-0.59-0.06-1.17-0.15-1.71c-0.09-0.55-0.23-1.06-0.41-1.53c-0.24-0.61-0.55-1.17-0.95-1.66s-0.89-0.89-1.46-1.2
				c-0.41-0.23-0.87-0.4-1.38-0.53s-1.06-0.2-1.67-0.2h-1.96V276.49z"/>
			<path class="st4" d="M391.8,276.41v2.06h-11.77v-19.11h2.43v17.04H391.8z"/>
			<path class="st4" d="M398.37,269.64v6.77h9.3v2.06h-11.73v-19.11h11.61v2.07h-9.19v6.14h7.98v2.06H398.37z"/>
			<path class="st4" d="M414.71,273.53l-1.54,4.95h-2.43l6.17-19.11h2.03l6.06,19.11h-2.41l-1.51-4.95H414.71z M420.44,271.42
				l-2.52-8.29l-2.56,8.29H420.44z"/>
			<path class="st4" d="M430.6,270.68v7.79h-2.41v-19.11h5.6c0.89,0.02,1.73,0.14,2.52,0.38c0.79,0.24,1.48,0.59,2.07,1.06
				c0.59,0.47,1.05,1.07,1.38,1.78s0.51,1.55,0.51,2.51c0,0.62-0.09,1.19-0.27,1.71c-0.18,0.52-0.43,0.98-0.74,1.4
				s-0.69,0.79-1.13,1.12c-0.44,0.32-0.92,0.6-1.44,0.83l4.05,8.16l-0.01,0.16h-2.56l-3.75-7.79H430.6z M433.85,268.69
				c0.54-0.01,1.05-0.09,1.54-0.26c0.48-0.16,0.91-0.4,1.27-0.7c0.36-0.31,0.64-0.68,0.85-1.12c0.21-0.44,0.31-0.95,0.31-1.53
				c0-0.61-0.1-1.15-0.3-1.61s-0.48-0.85-0.84-1.16c-0.36-0.31-0.79-0.54-1.28-0.7c-0.49-0.16-1.03-0.24-1.62-0.25h-3.19v7.32
				H433.85z"/>
			<path class="st4" d="M453.72,278.48l-7.41-14.28l-0.04,14.28h-2.45v-19.11h2.47l7.41,14.25l0.04-14.25h2.45v19.11H453.72z"/>
			<path class="st4" d="M471.89,259.37v2.11h-4.58v14.89h4.58v2.1h-11.55v-2.1h4.47v-14.89h-4.47v-2.11H471.89z"/>
			<path class="st4" d="M485.97,278.48l-7.41-14.28l-0.04,14.28h-2.46v-19.11h2.47l7.41,14.25l0.04-14.25h2.45v19.11H485.97z"/>
			<path class="st4" d="M504.02,276.92c-0.33,0.28-0.68,0.53-1.04,0.74c-0.61,0.37-1.27,0.64-1.98,0.82
				c-0.71,0.18-1.45,0.26-2.23,0.26c-0.79-0.01-1.51-0.13-2.17-0.36c-0.66-0.23-1.25-0.55-1.78-0.96c-0.53-0.4-0.98-0.88-1.38-1.43
				c-0.39-0.55-0.72-1.15-0.98-1.8c-0.27-0.64-0.47-1.31-0.61-2.01c-0.13-0.7-0.21-1.42-0.21-2.13v-2.22
				c0.01-0.71,0.07-1.42,0.19-2.12s0.3-1.38,0.54-2.03c0.24-0.65,0.55-1.25,0.92-1.8s0.81-1.04,1.33-1.45
				c0.51-0.4,1.08-0.72,1.73-0.96c0.65-0.24,1.37-0.35,2.18-0.35c0.89,0,1.71,0.14,2.47,0.41c0.75,0.28,1.41,0.67,1.97,1.17
				c0.56,0.52,1.01,1.13,1.35,1.86c0.34,0.72,0.55,1.53,0.63,2.42h-2.4c-0.1-0.55-0.25-1.06-0.45-1.53s-0.46-0.87-0.79-1.2
				c-0.33-0.33-0.73-0.59-1.18-0.78c-0.46-0.19-0.98-0.28-1.59-0.28c-0.58,0-1.09,0.1-1.54,0.29c-0.45,0.2-0.83,0.46-1.17,0.79
				c-0.33,0.33-0.61,0.72-0.83,1.16c-0.22,0.44-0.4,0.91-0.54,1.4c-0.14,0.49-0.24,0.99-0.3,1.5c-0.06,0.51-0.09,1-0.09,1.47v2.24
				c0.01,0.48,0.05,0.98,0.12,1.49s0.19,1.01,0.35,1.5c0.16,0.49,0.36,0.95,0.6,1.39s0.54,0.82,0.89,1.15
				c0.34,0.33,0.74,0.6,1.19,0.79c0.46,0.2,0.97,0.3,1.55,0.31c0.33,0.01,0.68,0,1.04-0.04s0.71-0.11,1.06-0.21
				c0.34-0.11,0.66-0.25,0.96-0.43c0.3-0.18,0.54-0.41,0.75-0.7l0.03-4.29h-3.88v-2.05h6.19l0.04,7.01
				C504.66,276.32,504.35,276.64,504.02,276.92z"/>
			<path class="st4" d="M531.84,261.44v17.03h-2.36v-17.03h-5.91v-2.07h14.17v2.07H531.84z"/>
			<path class="st4" d="M550.66,278.48v-8.83h-7.83v8.83h-2.28v-19.11h2.28v8.21h7.83v-8.21h2.3v19.11H550.66z"/>
			<path class="st4" d="M559.61,270.68v7.79h-2.41v-19.11h5.6c0.89,0.02,1.73,0.14,2.52,0.38c0.79,0.24,1.48,0.59,2.07,1.06
				c0.59,0.47,1.05,1.07,1.38,1.78c0.34,0.71,0.51,1.55,0.51,2.51c0,0.62-0.09,1.19-0.27,1.71c-0.18,0.52-0.43,0.98-0.74,1.4
				c-0.32,0.42-0.69,0.79-1.13,1.12c-0.44,0.32-0.92,0.6-1.44,0.83l4.05,8.16l-0.01,0.16h-2.56l-3.75-7.79H559.61z M562.87,268.69
				c0.54-0.01,1.05-0.09,1.54-0.26c0.48-0.16,0.9-0.4,1.27-0.7c0.36-0.31,0.64-0.68,0.85-1.12c0.21-0.44,0.31-0.95,0.31-1.53
				c0-0.61-0.1-1.15-0.3-1.61s-0.48-0.85-0.84-1.16c-0.36-0.31-0.79-0.54-1.28-0.7c-0.49-0.16-1.04-0.24-1.62-0.25h-3.19v7.32
				H562.87z"/>
			<path class="st4" d="M585.48,272.09c-0.11,0.7-0.28,1.37-0.51,2.01c-0.23,0.65-0.52,1.25-0.87,1.81
				c-0.35,0.56-0.78,1.05-1.27,1.47s-1.05,0.75-1.69,0.99s-1.35,0.36-2.13,0.36s-1.5-0.12-2.13-0.36c-0.63-0.24-1.2-0.57-1.69-0.99
				s-0.91-0.91-1.27-1.48c-0.36-0.56-0.65-1.17-0.88-1.82c-0.24-0.65-0.41-1.32-0.53-2.01c-0.11-0.69-0.17-1.38-0.18-2.06v-2.18
				c0.01-0.68,0.07-1.37,0.18-2.07s0.28-1.37,0.52-2.01c0.23-0.65,0.52-1.25,0.87-1.82c0.36-0.56,0.78-1.06,1.27-1.49
				c0.49-0.42,1.05-0.75,1.69-0.99c0.63-0.24,1.35-0.36,2.13-0.36s1.5,0.12,2.14,0.36c0.64,0.24,1.2,0.57,1.69,0.99
				c0.49,0.42,0.91,0.91,1.27,1.48c0.35,0.56,0.65,1.17,0.88,1.82c0.23,0.65,0.4,1.32,0.51,2.02c0.11,0.7,0.17,1.39,0.18,2.07v2.18
				C585.65,270.71,585.59,271.4,585.48,272.09z M583.17,266.4c-0.05-0.49-0.14-0.99-0.26-1.48c-0.13-0.48-0.3-0.94-0.51-1.38
				c-0.21-0.44-0.47-0.83-0.79-1.17c-0.32-0.33-0.69-0.6-1.12-0.79c-0.43-0.2-0.93-0.3-1.5-0.3c-0.56,0-1.05,0.1-1.48,0.3
				c-0.43,0.2-0.8,0.47-1.12,0.8c-0.31,0.34-0.58,0.73-0.79,1.17c-0.21,0.44-0.38,0.9-0.5,1.38c-0.13,0.49-0.22,0.98-0.28,1.48
				c-0.06,0.49-0.09,0.96-0.1,1.41v2.21c0.01,0.45,0.04,0.92,0.1,1.42c0.06,0.5,0.15,0.99,0.28,1.47c0.13,0.49,0.3,0.96,0.51,1.4
				c0.21,0.45,0.47,0.84,0.79,1.17c0.31,0.34,0.69,0.61,1.12,0.81c0.43,0.2,0.93,0.3,1.5,0.3s1.07-0.1,1.5-0.3
				c0.43-0.2,0.81-0.47,1.12-0.81c0.31-0.33,0.56-0.72,0.77-1.16c0.21-0.44,0.37-0.91,0.5-1.4c0.12-0.48,0.21-0.97,0.26-1.47
				c0.05-0.5,0.08-0.97,0.09-1.43v-2.21C583.25,267.37,583.22,266.89,583.17,266.4z"/>
			<path class="st4" d="M601.38,272.31c0,0.89-0.16,1.73-0.47,2.51c-0.32,0.78-0.75,1.46-1.3,2.03c-0.55,0.59-1.21,1.05-1.97,1.38
				c-0.76,0.34-1.6,0.51-2.51,0.51c-0.93,0-1.77-0.17-2.53-0.5c-0.76-0.33-1.41-0.79-1.96-1.38c-0.54-0.58-0.97-1.26-1.27-2.04
				s-0.46-1.62-0.47-2.51l0.03-12.94h2.31l0.05,12.94c0.01,0.57,0.1,1.12,0.27,1.64c0.17,0.53,0.42,0.99,0.74,1.39
				c0.31,0.4,0.71,0.73,1.19,0.97s1.03,0.37,1.65,0.37s1.17-0.12,1.64-0.36c0.47-0.24,0.87-0.57,1.2-0.98
				c0.31-0.4,0.55-0.87,0.72-1.39c0.17-0.52,0.26-1.07,0.28-1.64l0.04-12.94h2.35L601.38,272.31z"/>
			<path class="st4" d="M616.9,276.92c-0.33,0.28-0.68,0.53-1.04,0.74c-0.61,0.37-1.27,0.64-1.98,0.82
				c-0.71,0.18-1.45,0.26-2.23,0.26c-0.79-0.01-1.51-0.13-2.17-0.36s-1.25-0.55-1.78-0.96c-0.53-0.4-0.98-0.88-1.38-1.43
				c-0.39-0.55-0.72-1.15-0.98-1.8c-0.27-0.64-0.47-1.31-0.61-2.01c-0.14-0.7-0.21-1.42-0.22-2.13v-2.22
				c0.01-0.71,0.07-1.42,0.19-2.12c0.12-0.7,0.3-1.38,0.54-2.03c0.25-0.65,0.55-1.25,0.92-1.8s0.81-1.04,1.32-1.45
				c0.51-0.4,1.09-0.72,1.73-0.96s1.37-0.35,2.18-0.35c0.89,0,1.71,0.14,2.47,0.41c0.75,0.28,1.41,0.67,1.97,1.17
				c0.56,0.52,1.01,1.13,1.35,1.86s0.55,1.53,0.63,2.42h-2.4c-0.1-0.55-0.24-1.06-0.45-1.53s-0.46-0.87-0.79-1.2
				c-0.33-0.33-0.73-0.59-1.18-0.78c-0.46-0.19-0.98-0.28-1.59-0.28c-0.58,0-1.09,0.1-1.54,0.29c-0.45,0.2-0.84,0.46-1.17,0.79
				c-0.33,0.33-0.61,0.72-0.83,1.16c-0.22,0.44-0.4,0.91-0.54,1.4c-0.14,0.49-0.24,0.99-0.3,1.5c-0.06,0.51-0.09,1-0.09,1.47v2.24
				c0.01,0.48,0.05,0.98,0.12,1.49c0.07,0.51,0.19,1.01,0.35,1.5c0.16,0.49,0.36,0.95,0.6,1.39c0.24,0.44,0.54,0.82,0.89,1.15
				c0.34,0.33,0.74,0.6,1.2,0.79c0.46,0.2,0.97,0.3,1.55,0.31c0.33,0.01,0.68,0,1.04-0.04s0.71-0.11,1.06-0.21
				c0.34-0.11,0.66-0.25,0.96-0.43c0.3-0.18,0.55-0.41,0.75-0.7l0.03-4.29h-3.88v-2.05h6.19l0.04,7.01
				C617.55,276.32,617.24,276.64,616.9,276.92z"/>
			<path class="st4" d="M631.3,278.48v-8.83h-7.83v8.83h-2.28v-19.11h2.28v8.21h7.83v-8.21h2.3v19.11H631.3z"/>
			<path class="st4" d="M665.96,276.41v2.06h-11.77v-19.11h2.43v17.04H665.96z"/>
			<path class="st4" d="M681.54,259.37v2.11h-4.58v14.89h4.58v2.1H670v-2.1h4.47v-14.89H670v-2.11H681.54z"/>
			<path class="st4" d="M695.72,272.16c-0.27-0.4-0.61-0.74-1.03-1.02c-0.42-0.27-0.88-0.5-1.38-0.68c-0.5-0.18-0.99-0.35-1.45-0.5
				c-0.67-0.22-1.36-0.48-2.05-0.79s-1.33-0.68-1.9-1.12c-0.58-0.45-1.05-0.97-1.41-1.58c-0.36-0.61-0.54-1.32-0.54-2.15
				s0.18-1.56,0.54-2.21s0.84-1.19,1.42-1.64c0.59-0.45,1.25-0.79,1.99-1.02c0.74-0.23,1.49-0.35,2.24-0.35
				c0.83,0,1.63,0.14,2.4,0.41c0.77,0.28,1.45,0.66,2.05,1.16c0.6,0.5,1.07,1.1,1.43,1.81c0.36,0.71,0.54,1.5,0.56,2.38h-2.49
				c-0.07-0.55-0.21-1.05-0.41-1.5c-0.2-0.45-0.47-0.84-0.8-1.16c-0.33-0.32-0.73-0.58-1.19-0.75c-0.46-0.18-0.98-0.27-1.55-0.27
				c-0.46,0-0.92,0.07-1.36,0.2c-0.44,0.13-0.83,0.33-1.17,0.59c-0.35,0.26-0.63,0.59-0.83,0.97c-0.21,0.38-0.31,0.83-0.31,1.34
				c0.01,0.55,0.15,1.02,0.42,1.4c0.27,0.38,0.62,0.7,1.04,0.96c0.41,0.26,0.86,0.48,1.35,0.66s0.94,0.33,1.37,0.46
				c0.71,0.22,1.42,0.48,2.12,0.79c0.71,0.31,1.36,0.71,1.94,1.19c0.58,0.45,1.04,0.99,1.4,1.64c0.36,0.65,0.53,1.4,0.53,2.24
				c0,0.86-0.19,1.61-0.57,2.24s-0.87,1.17-1.48,1.59c-0.6,0.43-1.29,0.75-2.05,0.96c-0.76,0.21-1.52,0.32-2.28,0.32
				c-0.91,0-1.8-0.15-2.68-0.46c-0.88-0.31-1.64-0.75-2.29-1.33c-0.58-0.5-1.04-1.08-1.37-1.75c-0.34-0.67-0.52-1.41-0.54-2.24h2.48
				c0.08,0.6,0.24,1.12,0.48,1.58c0.25,0.46,0.56,0.85,0.95,1.16c0.38,0.32,0.83,0.57,1.33,0.73c0.5,0.16,1.05,0.24,1.65,0.24
				c0.47,0,0.94-0.06,1.4-0.18s0.87-0.3,1.23-0.56c0.36-0.25,0.65-0.56,0.88-0.94s0.34-0.83,0.34-1.36
				C696.12,273.06,695.99,272.57,695.72,272.16z"/>
			<path class="st4" d="M709.23,261.44v17.03h-2.36v-17.03h-5.9v-2.07h14.17v2.07H709.23z"/>
			<path class="st4" d="M720.91,269.64v6.77h9.3v2.06h-11.73v-19.11h11.61v2.07h-9.19v6.14h7.98v2.06H720.91z"/>
			<path class="st4" d="M744,278.48l-7.41-14.28l-0.04,14.28h-2.45v-19.11h2.47l7.41,14.25l0.04-14.25h2.45v19.11H744z"/>
			<path class="st4" d="M762.18,259.37v2.11h-4.58v14.89h4.58v2.1h-11.55v-2.1h4.47v-14.89h-4.47v-2.11H762.18z"/>
			<path class="st4" d="M776.26,278.48l-7.41-14.28l-0.04,14.28h-2.45v-19.11h2.47l7.41,14.25l0.04-14.25h2.45v19.11H776.26z"/>
			<path class="st4" d="M794.3,276.92c-0.33,0.28-0.68,0.53-1.04,0.74c-0.61,0.37-1.27,0.64-1.98,0.82
				c-0.71,0.18-1.45,0.26-2.23,0.26c-0.79-0.01-1.51-0.13-2.17-0.36c-0.66-0.23-1.25-0.55-1.78-0.96c-0.53-0.4-0.98-0.88-1.38-1.43
				c-0.39-0.55-0.72-1.15-0.98-1.8c-0.27-0.64-0.47-1.31-0.61-2.01c-0.13-0.7-0.21-1.42-0.21-2.13v-2.22
				c0.01-0.71,0.07-1.42,0.19-2.12s0.3-1.38,0.54-2.03c0.24-0.65,0.55-1.25,0.92-1.8s0.81-1.04,1.33-1.45
				c0.51-0.4,1.08-0.72,1.73-0.96c0.65-0.24,1.37-0.35,2.18-0.35c0.89,0,1.71,0.14,2.47,0.41c0.75,0.28,1.41,0.67,1.97,1.17
				c0.56,0.52,1.01,1.13,1.35,1.86c0.34,0.72,0.55,1.53,0.63,2.42h-2.4c-0.1-0.55-0.25-1.06-0.45-1.53s-0.46-0.87-0.79-1.2
				c-0.33-0.33-0.73-0.59-1.18-0.78c-0.46-0.19-0.98-0.28-1.59-0.28c-0.58,0-1.09,0.1-1.54,0.29c-0.45,0.2-0.83,0.46-1.17,0.79
				c-0.33,0.33-0.61,0.72-0.83,1.16c-0.22,0.44-0.4,0.91-0.54,1.4c-0.14,0.49-0.24,0.99-0.3,1.5c-0.06,0.51-0.09,1-0.09,1.47v2.24
				c0.01,0.48,0.05,0.98,0.12,1.49s0.19,1.01,0.35,1.5c0.16,0.49,0.36,0.95,0.6,1.39s0.54,0.82,0.89,1.15
				c0.34,0.33,0.74,0.6,1.19,0.79c0.46,0.2,0.97,0.3,1.55,0.31c0.33,0.01,0.68,0,1.04-0.04s0.71-0.11,1.06-0.21
				c0.34-0.11,0.66-0.25,0.96-0.43c0.3-0.18,0.54-0.41,0.75-0.7l0.03-4.29h-3.88v-2.05h6.19l0.04,7.01
				C794.95,276.32,794.63,276.64,794.3,276.92z"/>
			<path class="st4" d="M803.71,275.58c0.31-0.37,0.79-0.55,1.43-0.55c0.63,0,1.11,0.18,1.44,0.54s0.49,0.81,0.49,1.33
				c0,0.52-0.17,0.95-0.5,1.3c-0.33,0.35-0.81,0.52-1.43,0.52c-0.63,0-1.1-0.18-1.42-0.53c-0.32-0.35-0.48-0.79-0.48-1.29
				C803.24,276.38,803.39,275.94,803.71,275.58z"/>
		</g>
	</g>
</g>
</svg>
