<?xml version="1.0" encoding="utf-8"?>
<!-- Generator: Adobe Illustrator 28.2.0, SVG Export Plug-In . SVG Version: 6.00 Build 0)  -->
<svg version="1.1" id="Layer_1" xmlns="http://www.w3.org/2000/svg" xmlns:xlink="http://www.w3.org/1999/xlink" x="0px" y="0px"
	 viewBox="0 0 900 380" style="enable-background:new 0 0 900 380;" xml:space="preserve">
<style type="text/css">
	.st0{fill:#FF1A56;}
	.st1{font-family:'SuisseWorks-RegularItalic_LD-V1Regular';}
	.st2{font-size:148.547px;}
	.st3{fill:#1717E2;}
</style>
<g>
	<text transform="matrix(1 0 0 1 25.5336 237.3638)" class="st0 st1 st2">Mazophilia.</text>
</g>
<g>
	<g>
		<g>
			<path class="st3" d="M142.9,144.76l-3.88-15.87l-2.76,15.87h-4.62l4.21-24.35h4.53l3.83,15.81l2.78-15.81h4.6l-4.23,24.35H142.9z
				"/>
			<path class="st3" d="M169.58,137.05c-0.28,0.89-0.63,1.74-1.05,2.54c-0.44,0.8-0.94,1.55-1.51,2.23
				c-0.57,0.69-1.22,1.27-1.95,1.76c-0.72,0.49-1.52,0.87-2.39,1.14c-0.87,0.27-1.82,0.39-2.84,0.37c-0.97-0.02-1.83-0.19-2.58-0.49
				c-0.75-0.31-1.4-0.72-1.95-1.25c-0.56-0.51-1.01-1.11-1.37-1.8c-0.36-0.69-0.63-1.42-0.82-2.22c-0.19-0.78-0.3-1.59-0.33-2.44
				c-0.03-0.85,0.01-1.69,0.12-2.53l0.55-3.55c0.13-0.89,0.34-1.78,0.61-2.67c0.27-0.89,0.62-1.73,1.03-2.53
				c0.4-0.8,0.88-1.55,1.44-2.24c0.56-0.69,1.19-1.29,1.89-1.79c0.7-0.49,1.48-0.87,2.34-1.15c0.86-0.27,1.79-0.4,2.81-0.38
				c0.98,0.02,1.85,0.18,2.62,0.49c0.76,0.3,1.44,0.71,2.02,1.22c0.57,0.52,1.04,1.13,1.42,1.81c0.38,0.69,0.67,1.42,0.89,2.2
				c0.2,0.79,0.32,1.62,0.37,2.48c0.04,0.86,0.01,1.71-0.1,2.56l-0.55,3.53C170.07,135.26,169.86,136.16,169.58,137.05z
				 M166.25,129.42c0.03-0.49,0.04-0.99,0.02-1.49c-0.03-0.49-0.11-0.97-0.22-1.44c-0.11-0.47-0.28-0.89-0.52-1.25
				c-0.23-0.37-0.54-0.67-0.92-0.9c-0.38-0.23-0.85-0.36-1.42-0.38c-0.61-0.02-1.15,0.06-1.62,0.26c-0.47,0.2-0.88,0.47-1.22,0.81
				c-0.36,0.36-0.66,0.77-0.92,1.23c-0.26,0.46-0.47,0.95-0.64,1.46c-0.18,0.51-0.32,1.03-0.43,1.56c-0.11,0.53-0.2,1.03-0.27,1.51
				l-0.55,3.6c-0.06,0.39-0.1,0.83-0.14,1.3s-0.05,0.97-0.04,1.47c0,0.5,0.04,0.99,0.13,1.47c0.09,0.48,0.24,0.91,0.45,1.29
				s0.5,0.69,0.86,0.93c0.36,0.24,0.83,0.37,1.4,0.39c0.6,0.02,1.14-0.06,1.62-0.26c0.48-0.19,0.91-0.47,1.29-0.81
				c0.37-0.35,0.69-0.75,0.97-1.22s0.52-0.96,0.72-1.49c0.19-0.51,0.35-1.04,0.47-1.57s0.22-1.04,0.3-1.52l0.55-3.6
				C166.17,130.36,166.22,129.91,166.25,129.42z"/>
			<path class="st3" d="M189.23,136.53c-0.19,1.26-0.53,2.42-1.02,3.48c-0.49,1.06-1.13,1.97-1.91,2.73
				c-0.78,0.77-1.7,1.36-2.77,1.78c-1.06,0.42-2.26,0.61-3.59,0.58c-1.23-0.02-2.28-0.27-3.17-0.73c-0.89-0.46-1.6-1.08-2.15-1.86
				c-0.55-0.77-0.93-1.67-1.14-2.69c-0.21-1.03-0.25-2.11-0.12-3.24l2.76-16.16h4.58l-2.71,16.16c-0.06,0.48-0.08,0.99-0.08,1.53
				c0.01,0.54,0.09,1.05,0.24,1.51c0.15,0.47,0.39,0.86,0.73,1.18c0.34,0.32,0.82,0.49,1.45,0.53c0.69,0.03,1.29-0.09,1.79-0.36
				c0.5-0.27,0.93-0.64,1.27-1.1c0.33-0.46,0.6-0.98,0.8-1.56c0.2-0.58,0.35-1.16,0.43-1.74l2.76-16.16h4.55L189.23,136.53z"/>
			<path class="st3" d="M203.21,144.76l-3.88-15.87l-2.76,15.87h-4.62l4.21-24.35h4.53l3.83,15.81l2.78-15.81h4.6l-4.23,24.35
				H203.21z"/>
			<path class="st3" d="M141.25,226.96v-20.4l-6.37,2.42v-2.83l9.22-3.55h0.25v24.35H141.25z"/>
			<path class="st3" d="M160.85,223.27c0.4-0.47,1.01-0.7,1.82-0.7c0.8,0,1.41,0.23,1.83,0.69c0.42,0.46,0.63,1.03,0.63,1.7
				c0,0.66-0.21,1.21-0.64,1.66c-0.42,0.45-1.03,0.67-1.82,0.67c-0.8,0-1.41-0.23-1.81-0.68c-0.41-0.45-0.61-1-0.61-1.65
				C160.25,224.3,160.45,223.74,160.85,223.27z"/>
			<path class="st3" d="M199.47,220.66l-1.96,6.31h-3.09l7.86-24.35h2.59l7.73,24.35h-3.08l-1.92-6.31H199.47z M206.77,217.97
				l-3.21-10.57l-3.26,10.57H206.77z"/>
			<path class="st3" d="M240.46,226.96h-3.09v-24.35h7.89c1.09,0.02,2.13,0.2,3.1,0.52c0.98,0.32,1.83,0.79,2.57,1.4
				s1.32,1.37,1.75,2.27c0.43,0.9,0.64,1.94,0.64,3.11s-0.21,2.21-0.64,3.1s-1.01,1.65-1.75,2.27s-1.59,1.08-2.57,1.4
				c-0.98,0.32-2.01,0.49-3.1,0.5h-4.8V226.96z M245.26,214.66c0.71-0.01,1.37-0.13,1.97-0.34c0.6-0.22,1.13-0.53,1.57-0.93
				c0.45-0.4,0.79-0.89,1.04-1.46c0.25-0.57,0.38-1.23,0.38-1.97c0-0.74-0.13-1.4-0.38-1.99c-0.25-0.59-0.59-1.09-1.03-1.5
				c-0.45-0.41-0.97-0.73-1.58-0.95c-0.61-0.22-1.27-0.34-1.98-0.35h-4.8v9.5H245.26z"/>
			<path class="st3" d="M261.13,220.66l-1.96,6.31h-3.09l7.86-24.35h2.59l7.73,24.35h-3.08l-1.92-6.31H261.13z M268.44,217.97
				l-3.21-10.57l-3.26,10.57H268.44z"/>
			<path class="st3" d="M281.39,217.03v9.93h-3.08v-24.35h7.14c1.14,0.02,2.21,0.18,3.21,0.48c1,0.3,1.88,0.75,2.64,1.36
				c0.75,0.6,1.33,1.36,1.76,2.27c0.43,0.91,0.64,1.98,0.64,3.2c0,0.79-0.11,1.52-0.34,2.17c-0.23,0.66-0.54,1.25-0.94,1.79
				c-0.4,0.54-0.88,1.01-1.44,1.42c-0.56,0.41-1.17,0.76-1.84,1.05l5.17,10.4l-0.02,0.2h-3.26l-4.78-9.93H281.39z M285.53,214.49
				c0.69-0.01,1.34-0.12,1.96-0.33c0.61-0.21,1.15-0.5,1.62-0.9c0.46-0.39,0.82-0.87,1.09-1.43c0.27-0.56,0.4-1.21,0.4-1.95
				c0-0.78-0.13-1.46-0.38-2.05c-0.26-0.59-0.61-1.08-1.07-1.48c-0.46-0.39-1-0.69-1.63-0.89c-0.63-0.2-1.32-0.31-2.07-0.32h-4.06
				v9.33H285.53z"/>
			<path class="st3" d="M302.24,220.66l-1.96,6.31h-3.09l7.86-24.35h2.59l7.73,24.35h-3.08l-1.92-6.31H302.24z M309.55,217.97
				l-3.21-10.57l-3.26,10.57H309.55z"/>
			<path class="st3" d="M322.68,226.96h-3.09v-24.35h7.89c1.09,0.02,2.13,0.2,3.1,0.52c0.98,0.32,1.83,0.79,2.57,1.4
				s1.32,1.37,1.75,2.27c0.43,0.9,0.64,1.94,0.64,3.11s-0.21,2.21-0.64,3.1s-1.01,1.65-1.75,2.27s-1.59,1.08-2.57,1.4
				c-0.98,0.32-2.01,0.49-3.1,0.5h-4.8V226.96z M327.48,214.66c0.71-0.01,1.37-0.13,1.97-0.34c0.6-0.22,1.13-0.53,1.57-0.93
				c0.45-0.4,0.79-0.89,1.04-1.46c0.25-0.57,0.38-1.23,0.38-1.97c0-0.74-0.13-1.4-0.38-1.99c-0.25-0.59-0.59-1.09-1.03-1.5
				c-0.45-0.41-0.97-0.73-1.58-0.95c-0.61-0.22-1.27-0.34-1.98-0.35h-4.8v9.5H327.48z"/>
			<path class="st3" d="M352.2,226.96v-11.26h-9.98v11.26h-2.91v-24.35h2.91v10.47h9.98v-10.47h2.93v24.35H352.2z"/>
			<path class="st3" d="M375.13,202.61v2.69h-5.84v18.98h5.84v2.68h-14.72v-2.68h5.7v-18.98h-5.7v-2.69H375.13z"/>
			<path class="st3" d="M396.37,224.34v2.63h-15v-24.35h3.09v21.73H396.37z"/>
			<path class="st3" d="M416.24,202.61v2.69h-5.84v18.98h5.84v2.68h-14.72v-2.68h5.7v-18.98h-5.7v-2.69H416.24z"/>
			<path class="st3" d="M425.57,220.66l-1.96,6.31h-3.09l7.86-24.35h2.59l7.73,24.35h-3.08l-1.92-6.31H425.57z M432.88,217.97
				l-3.21-10.57l-3.26,10.57H432.88z"/>
			<path class="st3" d="M478.8,218.83c-0.14,0.89-0.35,1.74-0.64,2.57c-0.29,0.83-0.66,1.59-1.11,2.31
				c-0.45,0.71-0.99,1.34-1.61,1.87c-0.62,0.54-1.34,0.96-2.15,1.26c-0.81,0.31-1.71,0.46-2.72,0.46c-1,0-1.91-0.15-2.72-0.46
				c-0.81-0.31-1.52-0.73-2.15-1.26c-0.62-0.54-1.17-1.16-1.62-1.88c-0.46-0.72-0.83-1.49-1.12-2.32c-0.3-0.83-0.52-1.68-0.67-2.56
				c-0.14-0.88-0.22-1.76-0.23-2.63v-2.78c0.01-0.87,0.09-1.75,0.23-2.63s0.36-1.74,0.66-2.57c0.29-0.83,0.66-1.6,1.11-2.32
				c0.45-0.72,0.99-1.35,1.61-1.9c0.62-0.54,1.34-0.96,2.15-1.26c0.81-0.31,1.71-0.46,2.72-0.46c1,0,1.91,0.15,2.73,0.46
				c0.81,0.31,1.53,0.73,2.16,1.26c0.62,0.54,1.16,1.16,1.61,1.88c0.45,0.72,0.83,1.49,1.13,2.32c0.29,0.83,0.5,1.68,0.64,2.58
				c0.14,0.89,0.21,1.77,0.23,2.64v2.78C479.02,217.06,478.94,217.94,478.8,218.83z M475.85,211.57c-0.07-0.63-0.18-1.26-0.33-1.88
				c-0.17-0.61-0.38-1.2-0.65-1.76c-0.27-0.56-0.6-1.06-1-1.5c-0.4-0.42-0.88-0.76-1.42-1.01c-0.55-0.25-1.18-0.38-1.91-0.38
				c-0.71,0-1.34,0.13-1.89,0.38c-0.55,0.26-1.02,0.6-1.42,1.02c-0.4,0.43-0.74,0.93-1,1.5c-0.27,0.56-0.48,1.15-0.64,1.76
				c-0.17,0.62-0.29,1.25-0.36,1.88s-0.11,1.23-0.12,1.8v2.81c0.01,0.57,0.05,1.17,0.12,1.81s0.19,1.26,0.36,1.87
				c0.17,0.62,0.38,1.22,0.65,1.79s0.6,1.06,1,1.49c0.4,0.43,0.88,0.78,1.42,1.04c0.55,0.26,1.18,0.38,1.91,0.38
				s1.36-0.13,1.92-0.38s1.03-0.6,1.43-1.04c0.39-0.42,0.72-0.92,0.98-1.48c0.26-0.56,0.48-1.16,0.64-1.78
				c0.16-0.61,0.26-1.24,0.33-1.87c0.06-0.64,0.1-1.24,0.11-1.82v-2.81C475.95,212.8,475.92,212.2,475.85,211.57z"/>
			<path class="st3" d="M487.16,216.21v10.75h-3.13v-24.35h14.95v2.64h-11.82v8.33h10.13v2.63H487.16z"/>
			<path class="st3" d="M533.75,205.26v21.71h-3.01v-21.71h-7.53v-2.64h18.06v2.64H533.75z"/>
			<path class="st3" d="M557.75,226.96v-11.26h-9.98v11.26h-2.91v-24.35h2.91v10.47h9.98v-10.47h2.93v24.35H557.75z"/>
			<path class="st3" d="M569.19,215.71v8.63h11.86v2.63H566.1v-24.35h14.8v2.64h-11.71v7.83h10.17v2.63H569.19z"/>
			<path class="st3" d="M607.04,202.61h7.24c1,0.01,1.98,0.14,2.94,0.39s1.81,0.64,2.56,1.16c0.75,0.52,1.34,1.19,1.79,2.01
				c0.45,0.81,0.66,1.79,0.65,2.93c-0.01,0.64-0.11,1.21-0.31,1.74s-0.46,0.99-0.79,1.41c-0.35,0.42-0.73,0.78-1.15,1.07
				s-0.92,0.56-1.51,0.82v0.05c0.61,0.15,1.2,0.41,1.77,0.79c0.57,0.38,1.04,0.8,1.4,1.25c0.39,0.5,0.69,1.06,0.91,1.69
				c0.22,0.62,0.33,1.3,0.33,2.02c0.01,1.14-0.21,2.14-0.65,3.01c-0.45,0.87-1.04,1.59-1.79,2.17c-0.75,0.59-1.61,1.04-2.58,1.35
				c-0.98,0.31-1.98,0.47-3.02,0.49h-7.79V202.61z M614.47,213c0.58-0.01,1.15-0.1,1.71-0.28s1.05-0.43,1.49-0.76
				c0.43-0.32,0.79-0.72,1.05-1.2c0.27-0.48,0.4-1.04,0.4-1.67c0-0.68-0.13-1.26-0.39-1.74c-0.26-0.48-0.61-0.88-1.05-1.19
				c-0.45-0.3-0.96-0.52-1.53-0.67c-0.57-0.14-1.16-0.22-1.76-0.23h-4.23V213H614.47z M610.15,224.34h4.77
				c0.65-0.01,1.26-0.12,1.84-0.33c0.58-0.21,1.09-0.49,1.54-0.86c0.45-0.37,0.8-0.82,1.06-1.35c0.26-0.54,0.39-1.14,0.39-1.82
				c0.01-0.69-0.1-1.3-0.34-1.84c-0.24-0.54-0.57-0.99-1-1.37c-0.42-0.37-0.92-0.65-1.49-0.85c-0.57-0.2-1.18-0.31-1.84-0.33h-4.93
				V224.34z"/>
			<path class="st3" d="M630.82,217.03v9.93h-3.08v-24.35h7.14c1.14,0.02,2.21,0.18,3.21,0.48c1,0.3,1.88,0.75,2.64,1.36
				c0.75,0.6,1.33,1.36,1.76,2.27c0.43,0.91,0.64,1.98,0.64,3.2c0,0.79-0.12,1.52-0.34,2.17c-0.23,0.66-0.54,1.25-0.94,1.79
				s-0.88,1.01-1.44,1.42c-0.56,0.41-1.17,0.76-1.84,1.05l5.17,10.4l-0.02,0.2h-3.26l-4.78-9.93H630.82z M634.97,214.49
				c0.69-0.01,1.34-0.12,1.96-0.33c0.61-0.21,1.15-0.5,1.62-0.9c0.46-0.39,0.82-0.87,1.09-1.43c0.27-0.56,0.4-1.21,0.4-1.95
				c0-0.78-0.13-1.46-0.38-2.05c-0.26-0.59-0.61-1.08-1.07-1.48c-0.46-0.39-1-0.69-1.63-0.89c-0.63-0.2-1.32-0.31-2.07-0.32h-4.06
				v9.33H634.97z"/>
			<path class="st3" d="M651.41,215.71v8.63h11.86v2.63h-14.95v-24.35h14.8v2.64h-11.71v7.83h10.17v2.63H651.41z"/>
			<path class="st3" d="M672.24,220.66l-1.96,6.31h-3.09l7.86-24.35h2.59l7.73,24.35h-3.08l-1.92-6.31H672.24z M679.54,217.97
				l-3.21-10.57l-3.26,10.57H679.54z"/>
			<path class="st3" d="M701.53,218.92c-0.34-0.51-0.78-0.95-1.31-1.3c-0.54-0.35-1.12-0.64-1.76-0.87
				c-0.64-0.23-1.26-0.45-1.85-0.64c-0.86-0.28-1.73-0.62-2.62-1.01s-1.69-0.87-2.42-1.43c-0.74-0.57-1.33-1.24-1.8-2.01
				c-0.46-0.78-0.69-1.69-0.69-2.74c0-1.05,0.23-1.98,0.69-2.81s1.07-1.52,1.81-2.09c0.75-0.57,1.59-1,2.54-1.3
				c0.95-0.29,1.9-0.44,2.86-0.44c1.06,0,2.08,0.18,3.06,0.53c0.98,0.35,1.85,0.84,2.61,1.48c0.76,0.64,1.37,1.41,1.82,2.31
				s0.7,1.91,0.72,3.03h-3.18c-0.09-0.7-0.26-1.34-0.52-1.92c-0.26-0.57-0.6-1.07-1.02-1.48c-0.42-0.41-0.93-0.73-1.51-0.96
				c-0.59-0.23-1.25-0.34-1.98-0.34c-0.59,0-1.17,0.08-1.73,0.25c-0.56,0.17-1.06,0.42-1.5,0.75c-0.45,0.33-0.8,0.75-1.06,1.24
				c-0.26,0.49-0.39,1.06-0.39,1.71c0.01,0.7,0.19,1.3,0.54,1.78s0.79,0.89,1.32,1.23c0.52,0.33,1.1,0.61,1.71,0.84
				c0.62,0.22,1.2,0.42,1.75,0.59c0.9,0.28,1.81,0.62,2.71,1.01c0.9,0.4,1.73,0.9,2.47,1.51c0.74,0.57,1.33,1.27,1.78,2.09
				c0.45,0.83,0.68,1.78,0.68,2.86c0,1.09-0.24,2.05-0.73,2.86c-0.49,0.81-1.11,1.49-1.88,2.02c-0.77,0.55-1.64,0.96-2.61,1.23
				c-0.97,0.27-1.94,0.41-2.91,0.41c-1.16,0-2.3-0.2-3.42-0.59c-1.12-0.39-2.09-0.95-2.92-1.69c-0.74-0.63-1.32-1.38-1.75-2.23
				c-0.43-0.85-0.66-1.8-0.69-2.85h3.16c0.1,0.76,0.31,1.43,0.62,2.02c0.31,0.58,0.71,1.08,1.2,1.48c0.49,0.41,1.06,0.72,1.7,0.93
				c0.64,0.21,1.34,0.31,2.1,0.31c0.6,0,1.2-0.08,1.78-0.23c0.59-0.15,1.11-0.39,1.56-0.71c0.46-0.31,0.83-0.71,1.12-1.2
				s0.43-1.06,0.43-1.73C702.04,220.06,701.87,219.43,701.53,218.92z"/>
			<path class="st3" d="M718.75,205.26v21.71h-3.01v-21.71h-7.53v-2.64h18.06v2.64H718.75z"/>
			<path class="st3" d="M742.64,218.92c-0.34-0.51-0.78-0.95-1.31-1.3c-0.54-0.35-1.12-0.64-1.76-0.87
				c-0.64-0.23-1.26-0.45-1.85-0.64c-0.86-0.28-1.73-0.62-2.62-1.01s-1.69-0.87-2.42-1.43c-0.74-0.57-1.33-1.24-1.8-2.01
				c-0.46-0.78-0.69-1.69-0.69-2.74c0-1.05,0.23-1.98,0.69-2.81s1.07-1.52,1.81-2.09c0.75-0.57,1.59-1,2.54-1.3
				c0.95-0.29,1.9-0.44,2.86-0.44c1.06,0,2.08,0.18,3.06,0.53c0.98,0.35,1.85,0.84,2.61,1.48c0.76,0.64,1.37,1.41,1.82,2.31
				s0.7,1.91,0.72,3.03h-3.18c-0.09-0.7-0.26-1.34-0.52-1.92c-0.26-0.57-0.6-1.07-1.02-1.48c-0.42-0.41-0.93-0.73-1.51-0.96
				c-0.59-0.23-1.25-0.34-1.98-0.34c-0.59,0-1.17,0.08-1.73,0.25c-0.56,0.17-1.06,0.42-1.5,0.75c-0.45,0.33-0.8,0.75-1.06,1.24
				c-0.26,0.49-0.39,1.06-0.39,1.71c0.01,0.7,0.19,1.3,0.54,1.78s0.79,0.89,1.32,1.23c0.52,0.33,1.1,0.61,1.71,0.84
				c0.62,0.22,1.2,0.42,1.75,0.59c0.9,0.28,1.81,0.62,2.71,1.01c0.9,0.4,1.73,0.9,2.47,1.51c0.74,0.57,1.33,1.27,1.78,2.09
				c0.45,0.83,0.68,1.78,0.68,2.86c0,1.09-0.24,2.05-0.73,2.86c-0.49,0.81-1.11,1.49-1.88,2.02c-0.77,0.55-1.64,0.96-2.61,1.23
				c-0.97,0.27-1.94,0.41-2.91,0.41c-1.16,0-2.3-0.2-3.42-0.59c-1.12-0.39-2.09-0.95-2.92-1.69c-0.74-0.63-1.32-1.38-1.75-2.23
				c-0.43-0.85-0.66-1.8-0.69-2.85h3.16c0.1,0.76,0.31,1.43,0.62,2.02c0.31,0.58,0.71,1.08,1.2,1.48c0.49,0.41,1.06,0.72,1.7,0.93
				c0.64,0.21,1.34,0.31,2.1,0.31c0.6,0,1.2-0.08,1.78-0.23c0.59-0.15,1.11-0.39,1.56-0.71c0.46-0.31,0.83-0.71,1.12-1.2
				s0.43-1.06,0.43-1.73C743.15,220.06,742.98,219.43,742.64,218.92z"/>
			<path class="st3" d="M756.95,223.27c0.4-0.47,1.01-0.7,1.82-0.7c0.8,0,1.41,0.23,1.83,0.69c0.42,0.46,0.63,1.03,0.63,1.7
				c0,0.66-0.21,1.21-0.64,1.66c-0.42,0.45-1.03,0.67-1.82,0.67c-0.8,0-1.41-0.23-1.81-0.68c-0.41-0.45-0.61-1-0.61-1.65
				C756.35,224.3,756.55,223.74,756.95,223.27z"/>
		</g>
	</g>
</g>
</svg>
