<?xml version="1.0" encoding="utf-8"?>
<!-- Generator: Adobe Illustrator 28.2.0, SVG Export Plug-In . SVG Version: 6.00 Build 0)  -->
<svg version="1.1" id="Layer_1" xmlns="http://www.w3.org/2000/svg" xmlns:xlink="http://www.w3.org/1999/xlink" x="0px" y="0px"
	 viewBox="0 0 900 380" style="enable-background:new 0 0 900 380;" xml:space="preserve">
<style type="text/css">
	.st0{fill:#FF1A56;}
	.st1{font-family:'SuisseWorks-RegularItalic_LD-V1Regular';}
	.st2{font-size:153.607px;}
	.st3{fill:#1717E2;}
</style>
<g>
	<text transform="matrix(1 0 0 1 35.4214 232.3569)" class="st0 st1 st2">Podophilia.</text>
</g>
<g>
	<text transform="matrix(1 0 0 1 946.6414 245.8222)" class="st0 st1" style="font-size:169.9853px; letter-spacing:-1;">Auralism.</text>
</g>
<g>
	<g>
		<g>
			<path class="st3" d="M96.17-204.36l-3.04-12.45l-2.17,12.45h-3.62l3.31-19.11h3.56l3,12.4l2.18-12.4H103l-3.32,19.11H96.17z"/>
			<path class="st3" d="M117.1-210.41c-0.22,0.7-0.49,1.36-0.83,1.99c-0.34,0.63-0.74,1.21-1.19,1.75c-0.45,0.54-0.96,1-1.53,1.38
				c-0.57,0.38-1.19,0.68-1.88,0.89c-0.68,0.21-1.43,0.31-2.23,0.29c-0.76-0.02-1.44-0.15-2.03-0.39c-0.59-0.24-1.1-0.57-1.53-0.98
				c-0.44-0.4-0.8-0.87-1.08-1.41c-0.28-0.54-0.49-1.12-0.64-1.74c-0.15-0.61-0.24-1.25-0.26-1.92c-0.03-0.66,0-1.33,0.09-1.98
				l0.43-2.78c0.1-0.7,0.26-1.4,0.48-2.09c0.21-0.7,0.48-1.36,0.81-1.99c0.31-0.63,0.69-1.22,1.13-1.76
				c0.44-0.54,0.93-1.01,1.48-1.4c0.55-0.38,1.16-0.68,1.84-0.9s1.41-0.31,2.2-0.3c0.77,0.02,1.45,0.14,2.05,0.38
				c0.6,0.24,1.13,0.56,1.58,0.96c0.45,0.41,0.82,0.89,1.12,1.42s0.53,1.11,0.7,1.73c0.16,0.62,0.25,1.27,0.29,1.94
				c0.03,0.67,0.01,1.34-0.08,2.01l-0.43,2.77C117.49-211.81,117.32-211.11,117.1-210.41z M114.49-216.39
				c0.03-0.38,0.03-0.77,0.01-1.17c-0.03-0.38-0.08-0.76-0.17-1.13c-0.09-0.37-0.22-0.7-0.41-0.98s-0.42-0.52-0.72-0.71
				s-0.67-0.28-1.12-0.3c-0.48-0.02-0.91,0.05-1.27,0.2c-0.37,0.15-0.69,0.37-0.96,0.64c-0.28,0.28-0.52,0.6-0.72,0.96
				c-0.2,0.36-0.37,0.75-0.5,1.15c-0.14,0.4-0.25,0.81-0.34,1.23c-0.09,0.42-0.16,0.81-0.21,1.19l-0.43,2.82
				c-0.04,0.31-0.08,0.65-0.11,1.02c-0.03,0.38-0.04,0.76-0.03,1.15c0,0.39,0.03,0.78,0.1,1.15c0.07,0.38,0.19,0.71,0.35,1.01
				c0.17,0.3,0.39,0.54,0.68,0.73s0.65,0.29,1.1,0.31c0.47,0.02,0.9-0.05,1.27-0.2c0.38-0.15,0.71-0.37,1.01-0.64
				c0.29-0.27,0.54-0.59,0.76-0.96c0.22-0.37,0.41-0.76,0.56-1.17c0.15-0.4,0.27-0.81,0.37-1.23s0.17-0.82,0.24-1.19l0.43-2.82
				C114.43-215.65,114.46-216.01,114.49-216.39z"/>
			<path class="st3" d="M132.52-210.82c-0.15,0.99-0.42,1.9-0.8,2.73c-0.39,0.83-0.88,1.54-1.5,2.14c-0.61,0.6-1.34,1.07-2.17,1.4
				s-1.77,0.48-2.81,0.45c-0.96-0.02-1.79-0.21-2.49-0.57c-0.7-0.36-1.26-0.85-1.69-1.46c-0.43-0.6-0.73-1.31-0.89-2.11
				c-0.17-0.8-0.2-1.65-0.09-2.55l2.17-12.68h3.6l-2.13,12.68c-0.04,0.38-0.06,0.78-0.06,1.2s0.07,0.82,0.19,1.19
				c0.11,0.37,0.3,0.68,0.57,0.92c0.27,0.25,0.65,0.39,1.14,0.41c0.54,0.03,1.01-0.07,1.4-0.28c0.39-0.21,0.73-0.5,1-0.86
				c0.26-0.36,0.47-0.77,0.63-1.22c0.16-0.46,0.27-0.91,0.34-1.36l2.17-12.68h3.57L132.52-210.82z"/>
			<path class="st3" d="M143.49-204.36l-3.04-12.45l-2.17,12.45h-3.62l3.31-19.11h3.56l3,12.4l2.18-12.4h3.61l-3.32,19.11H143.49z"
				/>
			<path class="st3" d="M94.87-139.86v-16.01l-5,1.9v-2.22l7.23-2.78h0.2v19.11H94.87z"/>
			<path class="st3" d="M110.25-142.76c0.31-0.37,0.79-0.55,1.43-0.55c0.63,0,1.11,0.18,1.44,0.54c0.33,0.36,0.49,0.81,0.49,1.33
				c0,0.52-0.17,0.95-0.5,1.3c-0.33,0.35-0.81,0.52-1.43,0.52c-0.63,0-1.1-0.18-1.42-0.53c-0.32-0.35-0.48-0.79-0.48-1.29
				C109.78-141.95,109.94-142.4,110.25-142.76z"/>
			<path class="st3" d="M140.55-144.81l-1.54,4.95h-2.43l6.17-19.11h2.03l6.06,19.11h-2.41l-1.51-4.95H140.55z M146.29-146.92
				l-2.52-8.29l-2.56,8.29H146.29z"/>
			<path class="st3" d="M179.66-146.18c-0.27-0.4-0.61-0.74-1.03-1.02c-0.42-0.27-0.88-0.5-1.38-0.68s-0.99-0.35-1.45-0.5
				c-0.67-0.22-1.36-0.48-2.05-0.79s-1.33-0.68-1.9-1.12c-0.58-0.45-1.05-0.97-1.41-1.58c-0.36-0.61-0.54-1.32-0.54-2.15
				s0.18-1.56,0.54-2.2c0.36-0.65,0.84-1.19,1.42-1.64c0.59-0.45,1.25-0.79,1.99-1.02c0.74-0.23,1.49-0.35,2.24-0.35
				c0.83,0,1.63,0.14,2.4,0.41c0.77,0.28,1.45,0.66,2.05,1.16s1.07,1.1,1.43,1.81c0.36,0.71,0.55,1.5,0.56,2.38h-2.49
				c-0.07-0.55-0.21-1.05-0.41-1.5s-0.47-0.84-0.8-1.16c-0.33-0.32-0.73-0.57-1.19-0.75c-0.46-0.18-0.98-0.27-1.56-0.27
				c-0.46,0-0.92,0.07-1.36,0.2c-0.44,0.13-0.83,0.33-1.17,0.59c-0.35,0.26-0.63,0.59-0.83,0.97c-0.21,0.39-0.31,0.83-0.31,1.34
				c0.01,0.55,0.15,1.02,0.42,1.4c0.27,0.38,0.62,0.7,1.04,0.96c0.41,0.26,0.86,0.48,1.35,0.66c0.49,0.17,0.94,0.33,1.37,0.46
				c0.71,0.22,1.42,0.48,2.13,0.79s1.36,0.71,1.94,1.19c0.58,0.45,1.04,0.99,1.4,1.64c0.35,0.65,0.53,1.4,0.53,2.24
				c0,0.86-0.19,1.61-0.57,2.24c-0.38,0.64-0.87,1.17-1.48,1.59c-0.6,0.43-1.29,0.75-2.05,0.96s-1.52,0.32-2.28,0.32
				c-0.91,0-1.8-0.15-2.68-0.46c-0.88-0.31-1.64-0.75-2.29-1.33c-0.58-0.5-1.03-1.08-1.37-1.75s-0.52-1.42-0.54-2.24h2.48
				c0.08,0.6,0.24,1.12,0.49,1.58c0.24,0.46,0.56,0.85,0.94,1.16c0.38,0.32,0.83,0.57,1.33,0.73c0.5,0.16,1.05,0.24,1.65,0.24
				c0.47,0,0.94-0.06,1.4-0.18c0.46-0.12,0.87-0.3,1.23-0.56c0.36-0.24,0.65-0.56,0.88-0.94s0.34-0.83,0.34-1.36
				C180.06-145.28,179.93-145.77,179.66-146.18z"/>
			<path class="st3" d="M188.72-148.69v6.77h9.3v2.06h-11.73v-19.11h11.61v2.07h-9.19v6.14h7.98v2.06H188.72z"/>
			<path class="st3" d="M212.35-158.97h2.86l-5.55,9.47l5.68,9.63h-2.83l-4.23-7.64l-4.24,7.64h-2.87l5.69-9.63l-5.55-9.47h2.85
				l4.07,7.49L212.35-158.97z"/>
			<path class="st3" d="M230.46-146.03c0,0.89-0.16,1.73-0.47,2.51c-0.31,0.78-0.75,1.46-1.3,2.03c-0.55,0.59-1.21,1.05-1.97,1.38
				c-0.76,0.34-1.6,0.5-2.51,0.5c-0.93,0-1.77-0.17-2.53-0.5c-0.76-0.33-1.41-0.79-1.96-1.38c-0.54-0.58-0.97-1.26-1.27-2.04
				c-0.31-0.78-0.46-1.62-0.47-2.51l0.03-12.94h2.31l0.05,12.94c0.01,0.57,0.1,1.12,0.27,1.64c0.17,0.52,0.42,0.99,0.74,1.39
				c0.31,0.4,0.71,0.73,1.19,0.97c0.48,0.25,1.03,0.37,1.65,0.37c0.62,0,1.17-0.12,1.64-0.36c0.47-0.24,0.87-0.57,1.19-0.98
				c0.31-0.4,0.56-0.87,0.72-1.39c0.17-0.52,0.26-1.07,0.28-1.64l0.04-12.94h2.35L230.46-146.03z"/>
			<path class="st3" d="M237.31-144.81l-1.54,4.95h-2.43l6.17-19.11h2.03l6.06,19.11h-2.41l-1.51-4.95H237.31z M243.05-146.92
				l-2.52-8.29l-2.56,8.29H243.05z"/>
			<path class="st3" d="M262.78-141.92v2.06h-11.77v-19.11h2.43v17.05H262.78z"/>
			<path class="st3" d="M285.63-148.3v8.44h-2.45v-19.11h11.73v2.07h-9.28v6.53h7.95v2.06H285.63z"/>
			<path class="st3" d="M301.61-148.69v6.77h9.3v2.06h-11.73v-19.11h11.61v2.07h-9.19v6.14h7.98v2.06H301.61z"/>
			<path class="st3" d="M322.19-156.9v17.03h-2.36v-17.03h-5.91v-2.07h14.17v2.07H322.19z"/>
			<path class="st3" d="M342.88-158.97v2.11h-4.58v14.89h4.58v2.1h-11.55v-2.1h4.47v-14.89h-4.47v-2.11H342.88z"/>
			<path class="st3" d="M357.06-146.18c-0.27-0.4-0.61-0.74-1.03-1.02c-0.42-0.27-0.88-0.5-1.38-0.68s-0.99-0.35-1.45-0.5
				c-0.67-0.22-1.36-0.48-2.05-0.79s-1.33-0.68-1.9-1.12c-0.58-0.45-1.05-0.97-1.41-1.58c-0.36-0.61-0.54-1.32-0.54-2.15
				s0.18-1.56,0.54-2.2c0.36-0.65,0.84-1.19,1.42-1.64c0.59-0.45,1.25-0.79,1.99-1.02c0.74-0.23,1.49-0.35,2.24-0.35
				c0.83,0,1.63,0.14,2.4,0.41c0.77,0.28,1.45,0.66,2.05,1.16s1.07,1.1,1.43,1.81c0.36,0.71,0.55,1.5,0.56,2.38h-2.49
				c-0.07-0.55-0.21-1.05-0.41-1.5s-0.47-0.84-0.8-1.16c-0.33-0.32-0.73-0.57-1.19-0.75c-0.46-0.18-0.98-0.27-1.56-0.27
				c-0.46,0-0.92,0.07-1.36,0.2c-0.44,0.13-0.83,0.33-1.17,0.59c-0.35,0.26-0.63,0.59-0.83,0.97c-0.21,0.39-0.31,0.83-0.31,1.34
				c0.01,0.55,0.15,1.02,0.42,1.4c0.27,0.38,0.62,0.7,1.04,0.96c0.41,0.26,0.86,0.48,1.35,0.66c0.49,0.17,0.94,0.33,1.37,0.46
				c0.71,0.22,1.42,0.48,2.13,0.79s1.36,0.71,1.94,1.19c0.58,0.45,1.04,0.99,1.4,1.64c0.35,0.65,0.53,1.4,0.53,2.24
				c0,0.86-0.19,1.61-0.57,2.24c-0.38,0.64-0.87,1.17-1.48,1.59c-0.6,0.43-1.29,0.75-2.05,0.96s-1.52,0.32-2.28,0.32
				c-0.91,0-1.8-0.15-2.68-0.46c-0.88-0.31-1.64-0.75-2.29-1.33c-0.58-0.5-1.03-1.08-1.37-1.75s-0.52-1.42-0.54-2.24h2.48
				c0.08,0.6,0.24,1.12,0.49,1.58c0.24,0.46,0.56,0.85,0.94,1.16c0.38,0.32,0.83,0.57,1.33,0.73c0.5,0.16,1.05,0.24,1.65,0.24
				c0.47,0,0.94-0.06,1.4-0.18c0.46-0.12,0.87-0.3,1.23-0.56c0.36-0.24,0.65-0.56,0.88-0.94s0.34-0.83,0.34-1.36
				C357.46-145.28,357.32-145.77,357.06-146.18z"/>
			<path class="st3" d="M373.27-139.86v-8.83h-7.83v8.83h-2.28v-19.11h2.28v8.21h7.83v-8.21h2.3v19.11H373.27z"/>
			<path class="st3" d="M394.51-158.97h2.31l1.38,13.17l0.08,0.76l0.14-0.79l2.31-13.15h2.11l2.32,13.16l0.14,0.77l0.08-0.79
				l1.38-13.15h2.3l-2.32,19.11h-2.48l-2.32-13.59l-0.13-0.8l-0.14,0.81l-2.34,13.58h-2.49L394.51-158.97z"/>
			<path class="st3" d="M423.51-158.97v2.11h-4.58v14.89h4.58v2.1h-11.55v-2.1h4.47v-14.89h-4.47v-2.11H423.51z"/>
			<path class="st3" d="M435.07-156.9v17.03h-2.36v-17.03h-5.91v-2.07h14.17v2.07H435.07z"/>
			<path class="st3" d="M453.9-139.86v-8.83h-7.83v8.83h-2.28v-19.11h2.28v8.21h7.83v-8.21h2.3v19.11H453.9z"/>
			<path class="st3" d="M479.22-144.81l-1.54,4.95h-2.43l6.17-19.11h2.03l6.06,19.11h-2.41l-1.51-4.95H479.22z M484.95-146.92
				l-2.52-8.29l-2.56,8.29H484.95z"/>
			<path class="st3" d="M502.1-139.86l-7.41-14.28l-0.04,14.28h-2.45v-19.11h2.47l7.41,14.25l0.04-14.25h2.45v19.11H502.1z"/>
			<path class="st3" d="M527.39-148.69v6.77h9.3v2.06h-11.73v-19.11h11.61v2.07h-9.19v6.14h7.98v2.06H527.39z"/>
			<path class="st3" d="M551.02-158.97h2.86l-5.55,9.47l5.68,9.63h-2.83l-4.22-7.64l-4.24,7.64h-2.87l5.7-9.63l-5.55-9.47h2.85
				l4.07,7.49L551.02-158.97z"/>
			<path class="st3" d="M568.8-143.18c-0.34,0.74-0.78,1.37-1.33,1.9c-0.55,0.53-1.2,0.95-1.95,1.24s-1.58,0.44-2.5,0.44
				c-0.79,0-1.5-0.11-2.15-0.33c-0.64-0.22-1.21-0.53-1.71-0.92c-0.51-0.39-0.94-0.86-1.31-1.39c-0.36-0.53-0.66-1.12-0.9-1.75
				c-0.25-0.63-0.43-1.29-0.54-1.98s-0.18-1.39-0.19-2.1v-2.66c0.01-0.71,0.07-1.41,0.19-2.1s0.3-1.35,0.54-1.98
				c0.24-0.63,0.54-1.21,0.9-1.75c0.36-0.54,0.8-1,1.31-1.4c0.5-0.39,1.07-0.7,1.71-0.92c0.64-0.22,1.36-0.33,2.15-0.33
				c0.95,0,1.81,0.15,2.56,0.44c0.75,0.29,1.4,0.71,1.94,1.24c0.54,0.54,0.98,1.19,1.31,1.94c0.33,0.75,0.54,1.58,0.65,2.49h-2.43
				c-0.08-0.58-0.21-1.12-0.41-1.61s-0.45-0.94-0.77-1.31c-0.32-0.38-0.72-0.67-1.19-0.89s-1.02-0.32-1.66-0.32
				c-0.58,0-1.09,0.09-1.53,0.28c-0.44,0.19-0.82,0.44-1.14,0.77c-0.32,0.32-0.59,0.7-0.81,1.13c-0.21,0.43-0.39,0.88-0.52,1.36
				c-0.13,0.48-0.22,0.97-0.28,1.48c-0.06,0.5-0.08,0.99-0.08,1.46v2.69c0,0.47,0.03,0.96,0.08,1.46c0.06,0.5,0.15,1,0.28,1.48
				c0.13,0.49,0.3,0.95,0.51,1.38c0.21,0.43,0.48,0.81,0.8,1.13c0.32,0.33,0.7,0.59,1.14,0.78s0.95,0.28,1.54,0.28
				c0.64,0,1.19-0.1,1.66-0.3c0.47-0.2,0.86-0.49,1.19-0.85c0.32-0.36,0.58-0.79,0.77-1.28c0.19-0.49,0.33-1.03,0.41-1.61h2.43
				C569.37-144.73,569.14-143.92,568.8-143.18z"/>
			<path class="st3" d="M585.32-141.92v2.06h-11.77v-19.11h2.43v17.05H585.32z"/>
			<path class="st3" d="M601.38-146.03c0,0.89-0.16,1.73-0.47,2.51c-0.32,0.78-0.75,1.46-1.3,2.03c-0.55,0.59-1.21,1.05-1.97,1.38
				c-0.76,0.34-1.6,0.5-2.51,0.5c-0.93,0-1.77-0.17-2.53-0.5c-0.76-0.33-1.41-0.79-1.96-1.38c-0.54-0.58-0.97-1.26-1.27-2.04
				c-0.31-0.78-0.46-1.62-0.47-2.51l0.03-12.94h2.31l0.05,12.94c0.01,0.57,0.1,1.12,0.27,1.64c0.17,0.52,0.42,0.99,0.74,1.39
				c0.31,0.4,0.71,0.73,1.19,0.97s1.03,0.37,1.65,0.37s1.17-0.12,1.64-0.36c0.47-0.24,0.87-0.57,1.19-0.98
				c0.31-0.4,0.55-0.87,0.72-1.39c0.17-0.52,0.26-1.07,0.28-1.64l0.04-12.94h2.35L601.38-146.03z"/>
			<path class="st3" d="M615.09-146.18c-0.27-0.4-0.61-0.74-1.03-1.02c-0.42-0.27-0.88-0.5-1.38-0.68s-0.99-0.35-1.45-0.5
				c-0.67-0.22-1.36-0.48-2.05-0.79s-1.33-0.68-1.9-1.12c-0.58-0.45-1.05-0.97-1.41-1.58s-0.54-1.32-0.54-2.15s0.18-1.56,0.54-2.2
				c0.36-0.65,0.84-1.19,1.42-1.64s1.25-0.79,1.99-1.02c0.74-0.23,1.49-0.35,2.24-0.35c0.83,0,1.63,0.14,2.4,0.41
				c0.77,0.28,1.45,0.66,2.05,1.16s1.07,1.1,1.43,1.81c0.36,0.71,0.55,1.5,0.56,2.38h-2.49c-0.07-0.55-0.21-1.05-0.41-1.5
				s-0.47-0.84-0.8-1.16c-0.33-0.32-0.73-0.57-1.19-0.75c-0.46-0.18-0.98-0.27-1.55-0.27c-0.46,0-0.92,0.07-1.36,0.2
				c-0.44,0.13-0.83,0.33-1.17,0.59c-0.35,0.26-0.63,0.59-0.83,0.97c-0.21,0.39-0.31,0.83-0.31,1.34c0.01,0.55,0.15,1.02,0.42,1.4
				c0.27,0.38,0.62,0.7,1.04,0.96c0.41,0.26,0.86,0.48,1.34,0.66c0.49,0.17,0.94,0.33,1.37,0.46c0.71,0.22,1.42,0.48,2.12,0.79
				c0.71,0.31,1.36,0.71,1.94,1.19c0.58,0.45,1.04,0.99,1.4,1.64c0.35,0.65,0.53,1.4,0.53,2.24c0,0.86-0.19,1.61-0.57,2.24
				c-0.38,0.64-0.87,1.17-1.48,1.59c-0.6,0.43-1.29,0.75-2.05,0.96s-1.52,0.32-2.28,0.32c-0.91,0-1.8-0.15-2.68-0.46
				s-1.64-0.75-2.29-1.33c-0.58-0.5-1.03-1.08-1.37-1.75s-0.52-1.42-0.54-2.24h2.48c0.08,0.6,0.24,1.12,0.49,1.58
				c0.25,0.46,0.56,0.85,0.95,1.16c0.38,0.32,0.83,0.57,1.33,0.73c0.5,0.16,1.05,0.24,1.65,0.24c0.47,0,0.94-0.06,1.4-0.18
				c0.46-0.12,0.87-0.3,1.23-0.56c0.36-0.24,0.65-0.56,0.88-0.94c0.23-0.38,0.34-0.83,0.34-1.36
				C615.49-145.28,615.35-145.77,615.09-146.18z"/>
			<path class="st3" d="M633.16-158.97v2.11h-4.58v14.89h4.58v2.1h-11.55v-2.1h4.47v-14.89h-4.47v-2.11H633.16z"/>
			<path class="st3" d="M636.39-158.97h2.6l4.2,14.26l0.28,0.93l0.29-0.96l4.23-14.24h2.58l-6.02,19.11h-2.11L636.39-158.97z"/>
			<path class="st3" d="M656.4-148.69v6.77h9.3v2.06h-11.73v-19.11h11.61v2.07h-9.19v6.14h7.98v2.06H656.4z"/>
			<path class="st3" d="M688.8-148.3v8.44h-2.45v-19.11h11.73v2.07h-9.28v6.53h7.95v2.06H688.8z"/>
			<path class="st3" d="M714.5-146.25c-0.11,0.7-0.28,1.37-0.5,2.01s-0.52,1.25-0.87,1.81c-0.35,0.56-0.78,1.05-1.27,1.47
				c-0.49,0.42-1.05,0.75-1.69,0.99c-0.63,0.24-1.34,0.36-2.13,0.36c-0.79,0-1.5-0.12-2.13-0.36c-0.63-0.24-1.2-0.57-1.69-0.99
				c-0.49-0.42-0.92-0.91-1.27-1.48c-0.36-0.56-0.65-1.17-0.88-1.82c-0.24-0.65-0.41-1.32-0.53-2.01c-0.11-0.69-0.17-1.38-0.18-2.06
				v-2.18c0.01-0.68,0.07-1.37,0.18-2.07c0.11-0.7,0.28-1.37,0.52-2.01c0.23-0.65,0.52-1.25,0.87-1.82
				c0.35-0.56,0.78-1.06,1.27-1.49c0.49-0.42,1.05-0.75,1.69-0.99c0.63-0.24,1.35-0.36,2.13-0.36s1.5,0.12,2.14,0.36
				c0.64,0.24,1.2,0.57,1.69,0.99c0.49,0.42,0.91,0.91,1.27,1.48c0.35,0.56,0.65,1.17,0.89,1.82c0.23,0.65,0.4,1.32,0.5,2.02
				c0.11,0.7,0.17,1.39,0.18,2.07v2.18C714.67-147.63,714.61-146.94,714.5-146.25z M712.18-151.94c-0.05-0.49-0.14-0.99-0.26-1.48
				c-0.13-0.48-0.3-0.94-0.51-1.38c-0.21-0.44-0.47-0.83-0.79-1.17c-0.32-0.33-0.69-0.6-1.12-0.79c-0.43-0.2-0.93-0.3-1.5-0.3
				c-0.56,0-1.05,0.1-1.48,0.3s-0.8,0.47-1.12,0.8c-0.31,0.34-0.58,0.73-0.79,1.17c-0.21,0.44-0.38,0.9-0.5,1.38
				c-0.13,0.49-0.23,0.98-0.28,1.48c-0.06,0.49-0.09,0.96-0.1,1.41v2.2c0.01,0.45,0.04,0.92,0.1,1.42c0.06,0.5,0.15,0.99,0.28,1.47
				c0.13,0.49,0.3,0.96,0.51,1.4s0.47,0.84,0.79,1.17c0.31,0.34,0.69,0.61,1.12,0.81s0.93,0.3,1.5,0.3c0.57,0,1.07-0.1,1.5-0.3
				c0.43-0.2,0.81-0.47,1.12-0.81c0.31-0.33,0.56-0.72,0.77-1.16c0.21-0.44,0.37-0.91,0.5-1.4c0.12-0.48,0.21-0.97,0.26-1.47
				c0.05-0.5,0.08-0.98,0.09-1.43v-2.2C712.27-150.97,712.24-151.45,712.18-151.94z"/>
			<path class="st3" d="M730.07-143.18c-0.34,0.74-0.78,1.37-1.33,1.9c-0.55,0.53-1.2,0.95-1.95,1.24s-1.58,0.44-2.5,0.44
				c-0.79,0-1.5-0.11-2.15-0.33c-0.64-0.22-1.21-0.53-1.71-0.92c-0.51-0.39-0.94-0.86-1.31-1.39c-0.36-0.53-0.66-1.12-0.9-1.75
				c-0.25-0.63-0.43-1.29-0.54-1.98s-0.18-1.39-0.19-2.1v-2.66c0.01-0.71,0.07-1.41,0.19-2.1s0.3-1.35,0.54-1.98
				c0.24-0.63,0.54-1.21,0.9-1.75c0.36-0.54,0.8-1,1.31-1.4c0.5-0.39,1.07-0.7,1.71-0.92c0.64-0.22,1.36-0.33,2.15-0.33
				c0.95,0,1.81,0.15,2.56,0.44c0.75,0.29,1.4,0.71,1.94,1.24c0.54,0.54,0.98,1.19,1.31,1.94c0.33,0.75,0.54,1.58,0.65,2.49h-2.43
				c-0.08-0.58-0.21-1.12-0.41-1.61s-0.45-0.94-0.77-1.31c-0.32-0.38-0.72-0.67-1.19-0.89s-1.02-0.32-1.66-0.32
				c-0.58,0-1.09,0.09-1.53,0.28c-0.44,0.19-0.82,0.44-1.14,0.77c-0.32,0.32-0.59,0.7-0.81,1.13c-0.21,0.43-0.39,0.88-0.52,1.36
				c-0.13,0.48-0.22,0.97-0.28,1.48c-0.06,0.5-0.08,0.99-0.08,1.46v2.69c0,0.47,0.03,0.96,0.08,1.46c0.06,0.5,0.15,1,0.28,1.48
				c0.13,0.49,0.3,0.95,0.51,1.38c0.21,0.43,0.48,0.81,0.8,1.13c0.32,0.33,0.7,0.59,1.14,0.78s0.95,0.28,1.54,0.28
				c0.64,0,1.19-0.1,1.66-0.3c0.47-0.2,0.86-0.49,1.19-0.85c0.32-0.36,0.58-0.79,0.77-1.28c0.19-0.49,0.33-1.03,0.41-1.61h2.43
				C730.64-144.73,730.41-143.92,730.07-143.18z"/>
			<path class="st3" d="M746.52-146.03c0,0.89-0.16,1.73-0.47,2.51c-0.32,0.78-0.75,1.46-1.3,2.03c-0.55,0.59-1.21,1.05-1.97,1.38
				c-0.76,0.34-1.6,0.5-2.51,0.5c-0.93,0-1.77-0.17-2.53-0.5c-0.76-0.33-1.41-0.79-1.96-1.38c-0.54-0.58-0.97-1.26-1.27-2.04
				c-0.31-0.78-0.46-1.62-0.47-2.51l0.03-12.94h2.31l0.05,12.94c0.01,0.57,0.1,1.12,0.27,1.64c0.17,0.52,0.42,0.99,0.74,1.39
				c0.31,0.4,0.71,0.73,1.19,0.97s1.03,0.37,1.65,0.37s1.17-0.12,1.64-0.36c0.47-0.24,0.87-0.57,1.19-0.98
				c0.31-0.4,0.55-0.87,0.72-1.39c0.17-0.52,0.26-1.07,0.28-1.64l0.04-12.94h2.35L746.52-146.03z"/>
			<path class="st3" d="M760.23-146.18c-0.27-0.4-0.61-0.74-1.03-1.02c-0.42-0.27-0.88-0.5-1.38-0.68s-0.99-0.35-1.45-0.5
				c-0.67-0.22-1.36-0.48-2.05-0.79s-1.33-0.68-1.9-1.12c-0.58-0.45-1.05-0.97-1.41-1.58s-0.54-1.32-0.54-2.15s0.18-1.56,0.54-2.2
				c0.36-0.65,0.84-1.19,1.42-1.64s1.25-0.79,1.99-1.02c0.74-0.23,1.49-0.35,2.24-0.35c0.83,0,1.63,0.14,2.4,0.41
				c0.77,0.28,1.45,0.66,2.05,1.16s1.07,1.1,1.43,1.81c0.36,0.71,0.55,1.5,0.56,2.38h-2.49c-0.07-0.55-0.21-1.05-0.41-1.5
				s-0.47-0.84-0.8-1.16c-0.33-0.32-0.73-0.57-1.19-0.75c-0.46-0.18-0.98-0.27-1.55-0.27c-0.46,0-0.92,0.07-1.36,0.2
				c-0.44,0.13-0.83,0.33-1.17,0.59c-0.35,0.26-0.63,0.59-0.83,0.97c-0.21,0.39-0.31,0.83-0.31,1.34c0.01,0.55,0.15,1.02,0.42,1.4
				c0.27,0.38,0.62,0.7,1.04,0.96c0.41,0.26,0.86,0.48,1.34,0.66c0.49,0.17,0.94,0.33,1.37,0.46c0.71,0.22,1.42,0.48,2.12,0.79
				c0.71,0.31,1.36,0.71,1.94,1.19c0.58,0.45,1.04,0.99,1.4,1.64c0.35,0.65,0.53,1.4,0.53,2.24c0,0.86-0.19,1.61-0.57,2.24
				c-0.38,0.64-0.87,1.17-1.48,1.59c-0.6,0.43-1.29,0.75-2.05,0.96s-1.52,0.32-2.28,0.32c-0.91,0-1.8-0.15-2.68-0.46
				s-1.64-0.75-2.29-1.33c-0.58-0.5-1.03-1.08-1.37-1.75s-0.52-1.42-0.54-2.24h2.48c0.08,0.6,0.24,1.12,0.49,1.58
				c0.25,0.46,0.56,0.85,0.95,1.16c0.38,0.32,0.83,0.57,1.33,0.73c0.5,0.16,1.05,0.24,1.65,0.24c0.47,0,0.94-0.06,1.4-0.18
				c0.46-0.12,0.87-0.3,1.23-0.56c0.36-0.24,0.65-0.56,0.88-0.94c0.23-0.38,0.34-0.83,0.34-1.36
				C760.63-145.28,760.5-145.77,760.23-146.18z"/>
			<path class="st3" d="M795.13-146.25c-0.11,0.7-0.28,1.37-0.5,2.01s-0.52,1.25-0.87,1.81c-0.35,0.56-0.78,1.05-1.27,1.47
				c-0.49,0.42-1.05,0.75-1.69,0.99c-0.63,0.24-1.34,0.36-2.13,0.36c-0.79,0-1.5-0.12-2.13-0.36c-0.63-0.24-1.2-0.57-1.69-0.99
				c-0.49-0.42-0.92-0.91-1.27-1.48c-0.36-0.56-0.65-1.17-0.88-1.82c-0.24-0.65-0.41-1.32-0.53-2.01c-0.11-0.69-0.17-1.38-0.18-2.06
				v-2.18c0.01-0.68,0.07-1.37,0.18-2.07c0.11-0.7,0.28-1.37,0.52-2.01c0.23-0.65,0.52-1.25,0.87-1.82
				c0.35-0.56,0.78-1.06,1.27-1.49c0.49-0.42,1.05-0.75,1.69-0.99c0.63-0.24,1.35-0.36,2.13-0.36s1.5,0.12,2.14,0.36
				c0.64,0.24,1.2,0.57,1.69,0.99c0.49,0.42,0.91,0.91,1.27,1.48c0.35,0.56,0.65,1.17,0.89,1.82c0.23,0.65,0.4,1.32,0.5,2.02
				c0.11,0.7,0.17,1.39,0.18,2.07v2.18C795.3-147.63,795.24-146.94,795.13-146.25z M792.82-151.94c-0.05-0.49-0.14-0.99-0.26-1.48
				c-0.13-0.48-0.3-0.94-0.51-1.38c-0.21-0.44-0.47-0.83-0.79-1.17c-0.32-0.33-0.69-0.6-1.12-0.79c-0.43-0.2-0.93-0.3-1.5-0.3
				c-0.56,0-1.05,0.1-1.48,0.3s-0.8,0.47-1.12,0.8c-0.31,0.34-0.58,0.73-0.79,1.17c-0.21,0.44-0.38,0.9-0.5,1.38
				c-0.13,0.49-0.23,0.98-0.28,1.48c-0.06,0.49-0.09,0.96-0.1,1.41v2.2c0.01,0.45,0.04,0.92,0.1,1.42c0.06,0.5,0.15,0.99,0.28,1.47
				c0.13,0.49,0.3,0.96,0.51,1.4s0.47,0.84,0.79,1.17c0.31,0.34,0.69,0.61,1.12,0.81s0.93,0.3,1.5,0.3c0.57,0,1.07-0.1,1.5-0.3
				c0.43-0.2,0.81-0.47,1.12-0.81c0.31-0.33,0.56-0.72,0.77-1.16c0.21-0.44,0.37-0.91,0.5-1.4c0.12-0.48,0.21-0.97,0.26-1.47
				c0.05-0.5,0.08-0.98,0.09-1.43v-2.2C792.9-150.97,792.87-151.45,792.82-151.94z"/>
			<path class="st3" d="M808.51-139.86l-7.41-14.28l-0.04,14.28h-2.45v-19.11h2.47l7.41,14.25l0.04-14.25h2.45v19.11H808.51z"/>
			<path class="st3" d="M144.79-124.65v17.03h-2.36v-17.03h-5.91v-2.07h14.17v2.07H144.79z"/>
			<path class="st3" d="M163.62-107.62v-8.83h-7.83v8.83h-2.28v-19.11h2.28v8.21h7.83v-8.21h2.3v19.11H163.62z"/>
			<path class="st3" d="M172.6-116.45v6.77h9.3v2.06h-11.73v-19.11h11.61v2.07h-9.19v6.14h7.98v2.06H172.6z"/>
			<path class="st3" d="M202.29-126.72h5.68c0.79,0.01,1.56,0.11,2.31,0.31s1.42,0.5,2.01,0.91s1.05,0.94,1.4,1.57
				c0.35,0.64,0.52,1.4,0.51,2.3c-0.01,0.5-0.09,0.95-0.24,1.36c-0.15,0.41-0.36,0.78-0.62,1.1c-0.27,0.33-0.57,0.61-0.9,0.84
				s-0.72,0.44-1.19,0.64v0.04c0.48,0.11,0.94,0.32,1.39,0.62c0.45,0.3,0.81,0.63,1.1,0.98c0.31,0.39,0.54,0.84,0.72,1.33
				c0.17,0.49,0.26,1.02,0.26,1.59c0.01,0.89-0.16,1.68-0.51,2.36c-0.35,0.68-0.82,1.25-1.4,1.71c-0.59,0.46-1.26,0.82-2.03,1.06
				c-0.77,0.25-1.55,0.37-2.37,0.38h-6.11V-126.72z M208.12-118.57c0.46-0.01,0.9-0.08,1.34-0.22s0.83-0.33,1.17-0.6
				c0.34-0.25,0.62-0.57,0.83-0.94c0.21-0.38,0.31-0.81,0.31-1.31c0-0.53-0.1-0.99-0.31-1.36c-0.21-0.38-0.48-0.69-0.82-0.93
				c-0.35-0.24-0.75-0.41-1.2-0.52s-0.91-0.17-1.38-0.18h-3.32v6.08H208.12z M204.73-109.67h3.74c0.51-0.01,0.99-0.09,1.44-0.26
				c0.45-0.16,0.86-0.39,1.21-0.68c0.35-0.29,0.63-0.64,0.83-1.06s0.31-0.9,0.31-1.43c0.01-0.54-0.08-1.02-0.27-1.44
				c-0.19-0.42-0.45-0.78-0.78-1.08c-0.33-0.29-0.72-0.51-1.17-0.67c-0.45-0.16-0.93-0.24-1.44-0.26h-3.87V-109.67z"/>
			<path class="st3" d="M220.98-116.45v6.77h9.3v2.06h-11.73v-19.11h11.61v2.07h-9.19v6.14h7.98v2.06H220.98z"/>
			<path class="st3" d="M246.66-109.67v2.06h-11.77v-19.11h2.43v17.05H246.66z"/>
			<path class="st3" d="M262.78-109.67v2.06h-11.77v-19.11h2.43v17.05H262.78z"/>
			<path class="st3" d="M276.81-126.72h2.76l-5.94,11.98l-0.04,7.12h-2.26l-0.04-7.12l-5.94-11.98h2.77l4.34,9.59L276.81-126.72z"/>
			<path class="st3" d="M282.92-126.72h5.68c0.79,0.01,1.56,0.11,2.31,0.31s1.42,0.5,2.01,0.91s1.05,0.94,1.4,1.57
				c0.35,0.64,0.52,1.4,0.51,2.3c-0.01,0.5-0.09,0.95-0.24,1.36c-0.15,0.41-0.36,0.78-0.62,1.1c-0.27,0.33-0.57,0.61-0.9,0.84
				s-0.72,0.44-1.19,0.64v0.04c0.48,0.11,0.94,0.32,1.39,0.62c0.45,0.3,0.81,0.63,1.1,0.98c0.31,0.39,0.54,0.84,0.72,1.33
				c0.17,0.49,0.26,1.02,0.26,1.59c0.01,0.89-0.16,1.68-0.51,2.36c-0.35,0.68-0.82,1.25-1.4,1.71c-0.59,0.46-1.26,0.82-2.03,1.06
				c-0.77,0.25-1.55,0.37-2.37,0.38h-6.11V-126.72z M288.75-118.57c0.46-0.01,0.9-0.08,1.34-0.22s0.83-0.33,1.17-0.6
				c0.34-0.25,0.62-0.57,0.83-0.94c0.21-0.38,0.31-0.81,0.31-1.31c0-0.53-0.1-0.99-0.31-1.36c-0.21-0.38-0.48-0.69-0.82-0.93
				c-0.35-0.24-0.75-0.41-1.2-0.52s-0.91-0.17-1.38-0.18h-3.32v6.08H288.75z M285.37-109.67h3.74c0.51-0.01,0.99-0.09,1.44-0.26
				c0.45-0.16,0.86-0.39,1.21-0.68c0.35-0.29,0.63-0.64,0.83-1.06s0.31-0.9,0.31-1.43c0.01-0.54-0.08-1.02-0.27-1.44
				c-0.19-0.42-0.45-0.78-0.78-1.08c-0.33-0.29-0.72-0.51-1.17-0.67c-0.45-0.16-0.93-0.24-1.44-0.26h-3.87V-109.67z"/>
			<path class="st3" d="M311.1-113.78c0,0.89-0.16,1.73-0.47,2.51c-0.31,0.78-0.75,1.46-1.3,2.03c-0.55,0.59-1.21,1.05-1.97,1.38
				c-0.76,0.34-1.6,0.51-2.51,0.51c-0.93,0-1.77-0.17-2.53-0.5s-1.41-0.79-1.96-1.38c-0.54-0.58-0.97-1.26-1.27-2.04
				c-0.31-0.78-0.46-1.62-0.47-2.51l0.03-12.94h2.31l0.05,12.94c0.01,0.57,0.1,1.12,0.27,1.64c0.17,0.52,0.42,0.99,0.74,1.39
				c0.31,0.4,0.71,0.73,1.19,0.97c0.48,0.25,1.03,0.37,1.65,0.37c0.62,0,1.17-0.12,1.64-0.36c0.47-0.24,0.87-0.57,1.19-0.98
				c0.31-0.4,0.56-0.87,0.72-1.39c0.17-0.52,0.26-1.07,0.28-1.64l0.04-12.94h2.35L311.1-113.78z"/>
			<path class="st3" d="M322.19-124.65v17.03h-2.36v-17.03h-5.91v-2.07h14.17v2.07H322.19z"/>
			<path class="st3" d="M338.31-124.65v17.03h-2.36v-17.03h-5.91v-2.07h14.17v2.07H338.31z"/>
			<path class="st3" d="M359.71-114c-0.11,0.7-0.28,1.37-0.51,2.01s-0.52,1.25-0.87,1.81c-0.35,0.56-0.78,1.05-1.27,1.47
				c-0.49,0.42-1.05,0.75-1.69,0.99s-1.34,0.36-2.13,0.36c-0.79,0-1.5-0.12-2.13-0.36s-1.2-0.57-1.69-0.99s-0.91-0.91-1.27-1.48
				c-0.36-0.56-0.65-1.17-0.88-1.82c-0.24-0.65-0.41-1.32-0.52-2.01c-0.11-0.69-0.18-1.38-0.18-2.06v-2.18
				c0.01-0.68,0.07-1.37,0.18-2.07c0.11-0.7,0.28-1.37,0.52-2.01c0.23-0.65,0.52-1.25,0.87-1.82c0.35-0.56,0.78-1.06,1.27-1.49
				c0.49-0.42,1.05-0.75,1.69-0.99c0.63-0.24,1.34-0.36,2.13-0.36c0.79,0,1.5,0.12,2.14,0.36c0.64,0.24,1.2,0.57,1.69,0.99
				c0.49,0.42,0.91,0.91,1.27,1.48c0.35,0.56,0.65,1.17,0.89,1.82c0.23,0.65,0.4,1.32,0.51,2.02c0.11,0.7,0.17,1.39,0.18,2.07v2.18
				C359.88-115.38,359.82-114.69,359.71-114z M357.39-119.69c-0.05-0.49-0.14-0.99-0.26-1.48c-0.13-0.48-0.3-0.94-0.51-1.38
				c-0.21-0.44-0.47-0.83-0.79-1.17c-0.31-0.33-0.69-0.6-1.12-0.79s-0.93-0.3-1.5-0.3c-0.56,0-1.05,0.1-1.48,0.3s-0.8,0.47-1.12,0.8
				c-0.31,0.34-0.58,0.73-0.79,1.17c-0.21,0.44-0.38,0.9-0.5,1.38c-0.13,0.49-0.23,0.98-0.28,1.48s-0.09,0.96-0.1,1.41v2.2
				c0.01,0.45,0.04,0.92,0.1,1.42c0.06,0.5,0.15,0.99,0.28,1.47c0.13,0.49,0.3,0.96,0.51,1.4s0.47,0.84,0.79,1.17
				c0.31,0.34,0.69,0.61,1.12,0.81c0.43,0.2,0.93,0.3,1.5,0.3c0.57,0,1.07-0.1,1.5-0.3c0.43-0.2,0.81-0.47,1.12-0.81
				c0.31-0.33,0.56-0.72,0.77-1.16c0.21-0.44,0.37-0.91,0.51-1.4c0.12-0.48,0.21-0.97,0.26-1.47c0.05-0.5,0.08-0.98,0.09-1.43v-2.2
				C357.48-118.73,357.44-119.2,357.39-119.69z"/>
			<path class="st3" d="M373.09-107.62l-7.41-14.28l-0.04,14.28h-2.45v-19.11h2.47l7.41,14.25l0.04-14.25h2.45v19.11H373.09z"/>
			<path class="st3" d="M380.74-105.97l7.98-20.75h2.17l-7.97,20.75H380.74z"/>
			<path class="st3" d="M405.34-107.62l-7.41-14.28l-0.04,14.28h-2.45v-19.11h2.47l7.41,14.25l0.04-14.25h2.45v19.11H405.34z"/>
			<path class="st3" d="M414.71-112.56l-1.54,4.95h-2.43l6.17-19.11h2.03l6.06,19.11h-2.41l-1.51-4.95H414.71z M420.44-114.67
				l-2.52-8.29l-2.56,8.29H420.44z"/>
			<path class="st3" d="M426.74-126.72h2.6l4.2,14.26l0.28,0.93l0.29-0.96l4.23-14.24h2.58l-6.02,19.11h-2.11L426.74-126.72z"/>
			<path class="st3" d="M446.75-116.45v6.77h9.3v2.06h-11.73v-19.11h11.61v2.07h-9.18v6.14h7.98v2.06H446.75z"/>
			<path class="st3" d="M472.43-109.67v2.06h-11.77v-19.11h2.43v17.05H472.43z"/>
			<path class="st3" d="M481.17-110.52c0.32-0.37,0.79-0.55,1.43-0.55c0.63,0,1.11,0.18,1.44,0.54c0.33,0.36,0.49,0.81,0.49,1.33
				c0,0.52-0.17,0.95-0.5,1.3c-0.33,0.35-0.81,0.52-1.43,0.52c-0.63,0-1.1-0.18-1.42-0.53s-0.48-0.79-0.48-1.29
				C480.7-109.71,480.86-110.15,481.17-110.52z"/>
		</g>
	</g>
</g>
</svg>
