<?xml version="1.0" encoding="utf-8"?>
<!-- Generator: Adobe Illustrator 28.2.0, SVG Export Plug-In . SVG Version: 6.00 Build 0)  -->
<svg version="1.1" id="Layer_1" xmlns="http://www.w3.org/2000/svg" xmlns:xlink="http://www.w3.org/1999/xlink" x="0px" y="0px"
	 viewBox="0 0 900 380" style="enable-background:new 0 0 900 380;" xml:space="preserve">
<style type="text/css">
	.st0{fill:#FF1A56;}
	.st1{font-family:'SuisseWorks-RegularItalic_LD-V1Regular';}
	.st2{font-size:142.2721px;}
	.st3{fill:#1717E2;}
</style>
<g>
	<text transform="matrix(1 0 0 1 56.554 229.2315)" class="st0 st1 st2">Genuphilia.</text>
</g>
<g>
	<text transform="matrix(1 0 0 1 946.6414 245.8222)" class="st0 st1" style="font-size:169.9853px; letter-spacing:-1;">Auralism.</text>
</g>
<g>
	<g>
		<g>
			<path class="st3" d="M209.06,154.84l-3.04-12.45l-2.17,12.45h-3.62l3.31-19.11h3.56l3,12.4l2.18-12.4h3.61l-3.32,19.11H209.06z"
				/>
			<path class="st3" d="M229.99,148.79c-0.22,0.7-0.49,1.36-0.83,1.99c-0.34,0.63-0.74,1.21-1.19,1.75c-0.45,0.54-0.96,1-1.53,1.38
				c-0.57,0.38-1.19,0.68-1.88,0.89c-0.68,0.21-1.43,0.31-2.23,0.29c-0.76-0.02-1.44-0.15-2.03-0.39c-0.59-0.24-1.1-0.57-1.53-0.98
				c-0.44-0.4-0.8-0.87-1.08-1.41c-0.28-0.54-0.49-1.12-0.64-1.74c-0.15-0.61-0.24-1.25-0.26-1.92c-0.03-0.66,0-1.33,0.09-1.98
				l0.43-2.78c0.1-0.7,0.26-1.4,0.48-2.09c0.21-0.7,0.48-1.36,0.81-1.99c0.31-0.63,0.69-1.22,1.13-1.76
				c0.44-0.54,0.93-1.01,1.48-1.4c0.55-0.38,1.16-0.68,1.84-0.9s1.41-0.31,2.2-0.3c0.77,0.02,1.45,0.14,2.05,0.38
				c0.6,0.24,1.13,0.56,1.58,0.96c0.45,0.41,0.82,0.89,1.12,1.42s0.53,1.11,0.7,1.73c0.16,0.62,0.25,1.27,0.29,1.94
				c0.03,0.67,0.01,1.34-0.08,2.01l-0.43,2.77C230.38,147.39,230.21,148.09,229.99,148.79z M227.38,142.81
				c0.03-0.38,0.03-0.77,0.01-1.17c-0.03-0.38-0.08-0.76-0.17-1.13c-0.09-0.37-0.22-0.7-0.41-0.98s-0.42-0.52-0.72-0.71
				s-0.67-0.28-1.12-0.3c-0.48-0.02-0.91,0.05-1.27,0.2c-0.37,0.15-0.69,0.37-0.96,0.64c-0.28,0.28-0.52,0.6-0.72,0.96
				c-0.2,0.36-0.37,0.75-0.5,1.15c-0.14,0.4-0.25,0.81-0.34,1.23c-0.09,0.42-0.16,0.81-0.21,1.19l-0.43,2.82
				c-0.04,0.31-0.08,0.65-0.11,1.02c-0.03,0.38-0.04,0.76-0.03,1.15c0,0.39,0.03,0.78,0.1,1.15c0.07,0.38,0.19,0.71,0.35,1.01
				c0.17,0.3,0.39,0.54,0.68,0.73s0.65,0.29,1.1,0.31c0.47,0.02,0.9-0.05,1.27-0.2c0.38-0.15,0.71-0.37,1.01-0.64
				c0.29-0.27,0.54-0.59,0.76-0.96c0.22-0.37,0.41-0.76,0.56-1.17c0.15-0.4,0.27-0.81,0.37-1.23s0.17-0.82,0.24-1.19l0.43-2.82
				C227.32,143.55,227.35,143.19,227.38,142.81z"/>
			<path class="st3" d="M245.41,148.38c-0.15,0.99-0.42,1.9-0.8,2.73c-0.39,0.83-0.88,1.54-1.5,2.14c-0.61,0.6-1.34,1.07-2.17,1.4
				s-1.77,0.48-2.81,0.45c-0.96-0.02-1.79-0.21-2.49-0.57c-0.7-0.36-1.26-0.85-1.69-1.46c-0.43-0.6-0.73-1.31-0.89-2.11
				c-0.17-0.8-0.2-1.65-0.09-2.55l2.17-12.68h3.6l-2.13,12.68c-0.04,0.38-0.06,0.78-0.06,1.2s0.07,0.82,0.19,1.19
				c0.11,0.37,0.3,0.68,0.57,0.92c0.27,0.25,0.65,0.39,1.14,0.41c0.54,0.03,1.01-0.07,1.4-0.28c0.39-0.21,0.73-0.5,1-0.86
				c0.26-0.36,0.47-0.77,0.63-1.22c0.16-0.46,0.27-0.91,0.34-1.36l2.17-12.68h3.57L245.41,148.38z"/>
			<path class="st3" d="M256.38,154.84l-3.04-12.45l-2.17,12.45h-3.62l3.31-19.11h3.56l3,12.4l2.18-12.4h3.61l-3.32,19.11H256.38z"
				/>
			<path class="st3" d="M207.76,219.34v-16.01l-5,1.9v-2.22l7.23-2.78h0.2v19.11H207.76z"/>
			<path class="st3" d="M223.14,216.44c0.31-0.37,0.79-0.55,1.43-0.55c0.63,0,1.11,0.18,1.44,0.54s0.49,0.81,0.49,1.33
				c0,0.52-0.17,0.95-0.5,1.3s-0.81,0.53-1.43,0.53c-0.63,0-1.1-0.18-1.42-0.53c-0.32-0.35-0.48-0.79-0.48-1.29
				C222.67,217.25,222.83,216.8,223.14,216.44z"/>
			<path class="st3" d="M253.44,214.39l-1.54,4.95h-2.43l6.17-19.11h2.03l6.06,19.11h-2.41l-1.51-4.95H253.44z M259.17,212.28
				l-2.52-8.29l-2.56,8.29H259.17z"/>
			<path class="st3" d="M285.6,219.34h-2.43v-19.11h6.19c0.86,0.02,1.67,0.15,2.43,0.41c0.77,0.25,1.44,0.62,2.01,1.1
				c0.58,0.48,1.03,1.08,1.37,1.79c0.34,0.71,0.51,1.52,0.51,2.44s-0.17,1.73-0.51,2.43c-0.34,0.7-0.79,1.3-1.37,1.78
				c-0.58,0.48-1.25,0.85-2.01,1.1c-0.77,0.25-1.58,0.38-2.43,0.39h-3.77V219.34z M289.37,209.68c0.56-0.01,1.08-0.1,1.55-0.27
				c0.47-0.17,0.88-0.41,1.23-0.73c0.35-0.31,0.62-0.7,0.82-1.15c0.2-0.45,0.3-0.96,0.3-1.54s-0.1-1.1-0.3-1.56
				s-0.47-0.86-0.81-1.18c-0.35-0.32-0.76-0.57-1.24-0.75c-0.48-0.17-1-0.27-1.56-0.28h-3.77v7.45H289.37z"/>
			<path class="st3" d="M301.82,214.39l-1.54,4.95h-2.43l6.17-19.11h2.03l6.06,19.11h-2.41l-1.51-4.95H301.82z M307.55,212.28
				l-2.52-8.29l-2.56,8.29H307.55z"/>
			<path class="st3" d="M317.71,211.54v7.79h-2.41v-19.11h5.6c0.89,0.02,1.73,0.14,2.52,0.38s1.48,0.59,2.07,1.06
				c0.59,0.47,1.05,1.07,1.38,1.78s0.51,1.55,0.51,2.51c0,0.62-0.09,1.19-0.27,1.71c-0.18,0.52-0.43,0.98-0.74,1.4
				s-0.69,0.79-1.13,1.12c-0.44,0.32-0.92,0.6-1.44,0.83l4.05,8.16l-0.01,0.16h-2.56l-3.75-7.79H317.71z M320.97,209.55
				c0.54-0.01,1.05-0.09,1.54-0.26c0.48-0.16,0.91-0.4,1.27-0.7c0.36-0.31,0.64-0.68,0.85-1.12c0.21-0.44,0.31-0.95,0.31-1.53
				c0-0.61-0.1-1.15-0.3-1.61s-0.48-0.85-0.84-1.16c-0.36-0.31-0.79-0.54-1.28-0.7s-1.03-0.24-1.62-0.25h-3.19v7.32H320.97z"/>
			<path class="st3" d="M334.07,214.39l-1.54,4.95h-2.43l6.17-19.11h2.03l6.06,19.11h-2.41l-1.51-4.95H334.07z M339.81,212.28
				l-2.52-8.29l-2.56,8.29H339.81z"/>
			<path class="st3" d="M350.11,219.34h-2.43v-19.11h6.19c0.86,0.02,1.67,0.15,2.43,0.41c0.77,0.25,1.44,0.62,2.01,1.1
				c0.58,0.48,1.03,1.08,1.37,1.79c0.34,0.71,0.51,1.52,0.51,2.44s-0.17,1.73-0.51,2.43c-0.34,0.7-0.79,1.3-1.37,1.78
				c-0.58,0.48-1.25,0.85-2.01,1.1c-0.77,0.25-1.58,0.38-2.43,0.39h-3.77V219.34z M353.88,209.68c0.56-0.01,1.08-0.1,1.55-0.27
				c0.47-0.17,0.88-0.41,1.23-0.73c0.35-0.31,0.62-0.7,0.82-1.15c0.2-0.45,0.3-0.96,0.3-1.54s-0.1-1.1-0.3-1.56
				s-0.47-0.86-0.81-1.18c-0.35-0.32-0.76-0.57-1.24-0.75c-0.48-0.17-1-0.27-1.56-0.28h-3.77v7.45H353.88z"/>
			<path class="st3" d="M373.27,219.34v-8.83h-7.83v8.83h-2.28v-19.11h2.28v8.21h7.83v-8.21h2.3v19.11H373.27z"/>
			<path class="st3" d="M391.26,200.23v2.11h-4.58v14.89h4.58v2.1h-11.55v-2.1h4.47v-14.89h-4.47v-2.11H391.26z"/>
			<path class="st3" d="M407.92,217.28v2.06h-11.77v-19.11h2.43v17.05H407.92z"/>
			<path class="st3" d="M423.51,200.23v2.11h-4.58v14.89h4.58v2.1h-11.55v-2.1h4.47v-14.89h-4.47v-2.11H423.51z"/>
			<path class="st3" d="M430.84,214.39l-1.54,4.95h-2.43l6.17-19.11h2.03l6.06,19.11h-2.41l-1.51-4.95H430.84z M436.57,212.28
				l-2.52-8.29l-2.56,8.29H436.57z"/>
			<path class="st3" d="M472.6,212.95c-0.11,0.7-0.28,1.37-0.5,2.01s-0.52,1.25-0.87,1.81s-0.78,1.05-1.27,1.47
				c-0.49,0.42-1.05,0.75-1.69,0.99c-0.63,0.24-1.34,0.36-2.13,0.36c-0.79,0-1.5-0.12-2.13-0.36c-0.63-0.24-1.2-0.57-1.69-0.99
				c-0.49-0.42-0.91-0.91-1.27-1.48c-0.36-0.56-0.65-1.17-0.88-1.82c-0.24-0.65-0.41-1.32-0.53-2.01c-0.11-0.69-0.17-1.38-0.18-2.06
				v-2.18c0.01-0.68,0.07-1.37,0.18-2.07s0.28-1.37,0.52-2.01c0.23-0.65,0.52-1.25,0.87-1.82c0.35-0.56,0.78-1.06,1.27-1.49
				c0.49-0.42,1.05-0.75,1.69-0.99c0.63-0.24,1.34-0.36,2.13-0.36c0.79,0,1.5,0.12,2.14,0.36s1.2,0.57,1.69,0.99
				s0.91,0.91,1.27,1.48s0.65,1.17,0.89,1.82c0.23,0.65,0.4,1.32,0.5,2.02c0.11,0.7,0.17,1.39,0.18,2.07v2.18
				C472.76,211.57,472.71,212.26,472.6,212.95z M470.28,207.26c-0.05-0.49-0.14-0.99-0.26-1.48c-0.13-0.48-0.3-0.94-0.51-1.38
				c-0.21-0.44-0.47-0.83-0.79-1.17c-0.32-0.33-0.69-0.6-1.12-0.79c-0.43-0.2-0.93-0.3-1.5-0.3c-0.56,0-1.05,0.1-1.48,0.3
				s-0.8,0.47-1.12,0.8c-0.31,0.34-0.58,0.73-0.79,1.17s-0.38,0.9-0.5,1.38c-0.13,0.49-0.22,0.98-0.28,1.48
				c-0.06,0.49-0.09,0.96-0.1,1.41v2.21c0.01,0.45,0.04,0.92,0.1,1.42c0.06,0.5,0.15,0.99,0.28,1.47c0.13,0.49,0.3,0.96,0.51,1.4
				s0.47,0.83,0.79,1.17c0.31,0.34,0.69,0.61,1.12,0.81c0.43,0.2,0.93,0.3,1.5,0.3c0.57,0,1.07-0.1,1.5-0.3s0.81-0.47,1.12-0.81
				c0.31-0.33,0.56-0.72,0.77-1.16c0.21-0.44,0.37-0.91,0.5-1.4c0.12-0.48,0.21-0.97,0.26-1.47c0.05-0.5,0.08-0.98,0.09-1.43v-2.21
				C470.36,208.23,470.33,207.75,470.28,207.26z"/>
			<path class="st3" d="M479.15,210.9v8.44h-2.45v-19.11h11.73v2.07h-9.28v6.54h7.95v2.06H479.15z"/>
			<path class="st3" d="M515.71,202.3v17.03h-2.36V202.3h-5.91v-2.07h14.17v2.07H515.71z"/>
			<path class="st3" d="M534.54,219.34v-8.83h-7.83v8.83h-2.28v-19.11h2.28v8.21h7.83v-8.21h2.3v19.11H534.54z"/>
			<path class="st3" d="M543.51,210.5v6.77h9.3v2.06h-11.73v-19.11h11.61v2.07h-9.19v6.14h7.98v2.06H543.51z"/>
			<path class="st3" d="M575.69,212.88v6.46h-2.48v-19.11h2.48v9.33l1.85-2.31l5.6-7.02h2.95l-6.68,8.36l7.12,10.75h-2.95
				l-5.77-8.87L575.69,212.88z"/>
			<path class="st3" d="M598.86,219.34l-7.41-14.28l-0.04,14.28h-2.45v-19.11h2.47l7.41,14.25l0.04-14.25h2.45v19.11H598.86z"/>
			<path class="st3" d="M608.02,210.5v6.77h9.3v2.06h-11.73v-19.11h11.61v2.07h-9.19v6.14H616v2.06H608.02z"/>
			<path class="st3" d="M624.15,210.5v6.77h9.3v2.06h-11.73v-19.11h11.61v2.07h-9.19v6.14h7.98v2.06H624.15z"/>
			<path class="st3" d="M640.44,208.05c0.2-1.1,0.46-2.13,0.79-3.07c0.33-0.94,0.72-1.79,1.15-2.57c0.43-0.78,0.89-1.47,1.37-2.07
				c0.47-0.6,0.95-1.12,1.43-1.55c0.48-0.43,0.94-0.77,1.38-1.01l0.51,1.6c-0.28,0.21-0.56,0.46-0.85,0.76
				c-0.28,0.3-0.56,0.63-0.83,1c-0.4,0.57-0.79,1.24-1.16,2c-0.37,0.77-0.67,1.6-0.92,2.51c-0.24,0.82-0.42,1.73-0.55,2.72
				c-0.13,0.99-0.2,2.05-0.2,3.19v0.18c0,1.09,0.06,2.12,0.18,3.07c0.12,0.95,0.29,1.83,0.5,2.64c0.23,0.81,0.49,1.57,0.79,2.26
				c0.3,0.7,0.61,1.32,0.93,1.87c0.33,0.52,0.68,0.99,1.03,1.4c0.35,0.41,0.71,0.75,1.07,1.04l-0.51,1.48
				c-0.44-0.25-0.9-0.58-1.38-1c-0.49-0.42-0.96-0.94-1.44-1.56c-0.48-0.6-0.94-1.29-1.37-2.07c-0.43-0.77-0.81-1.63-1.14-2.58
				c-0.33-0.94-0.6-1.96-0.79-3.06c-0.2-1.1-0.29-2.28-0.29-3.53v-0.13C640.14,210.33,640.24,209.15,640.44,208.05z"/>
			<path class="st3" d="M663.47,213.02c-0.27-0.4-0.61-0.74-1.03-1.02c-0.42-0.27-0.88-0.5-1.38-0.68s-0.99-0.35-1.45-0.5
				c-0.67-0.22-1.36-0.48-2.05-0.79s-1.33-0.68-1.9-1.12c-0.58-0.45-1.05-0.97-1.41-1.58c-0.36-0.61-0.54-1.32-0.54-2.15
				s0.18-1.56,0.54-2.21c0.36-0.65,0.84-1.19,1.42-1.64s1.25-0.79,1.99-1.02c0.74-0.23,1.49-0.35,2.24-0.35
				c0.83,0,1.63,0.14,2.4,0.41c0.77,0.28,1.45,0.66,2.05,1.16c0.59,0.5,1.07,1.1,1.43,1.81c0.36,0.71,0.55,1.5,0.56,2.38h-2.49
				c-0.07-0.55-0.21-1.05-0.41-1.5c-0.2-0.45-0.47-0.84-0.8-1.16c-0.33-0.32-0.73-0.57-1.19-0.75c-0.46-0.18-0.98-0.27-1.55-0.27
				c-0.46,0-0.92,0.07-1.36,0.2c-0.44,0.13-0.83,0.33-1.17,0.59c-0.35,0.26-0.63,0.59-0.83,0.97c-0.21,0.38-0.31,0.83-0.31,1.34
				c0.01,0.55,0.15,1.02,0.42,1.4c0.27,0.38,0.62,0.7,1.04,0.96c0.41,0.26,0.86,0.48,1.34,0.66c0.49,0.17,0.94,0.33,1.37,0.46
				c0.71,0.22,1.42,0.48,2.12,0.79c0.71,0.31,1.36,0.71,1.94,1.19c0.58,0.45,1.04,0.99,1.4,1.64s0.53,1.4,0.53,2.24
				c0,0.86-0.19,1.61-0.57,2.24c-0.38,0.64-0.87,1.17-1.48,1.59c-0.6,0.43-1.29,0.75-2.05,0.96c-0.76,0.21-1.52,0.32-2.28,0.32
				c-0.91,0-1.8-0.15-2.68-0.46c-0.88-0.31-1.64-0.75-2.29-1.33c-0.58-0.5-1.03-1.08-1.37-1.75c-0.34-0.67-0.52-1.42-0.54-2.24h2.48
				c0.08,0.59,0.24,1.12,0.49,1.58s0.56,0.85,0.95,1.16c0.38,0.32,0.83,0.57,1.33,0.73c0.5,0.16,1.05,0.24,1.65,0.24
				c0.47,0,0.94-0.06,1.4-0.18s0.87-0.3,1.23-0.56c0.36-0.25,0.65-0.56,0.88-0.94c0.23-0.38,0.34-0.83,0.34-1.36
				C663.87,213.92,663.74,213.43,663.47,213.02z"/>
			<path class="st3" d="M678.56,215.24c-0.2,1.1-0.46,2.12-0.79,3.06c-0.33,0.94-0.72,1.8-1.15,2.58s-0.89,1.46-1.36,2.07
				c-0.48,0.61-0.96,1.13-1.45,1.56c-0.49,0.42-0.95,0.76-1.38,1l-0.51-1.48c0.37-0.27,0.74-0.62,1.12-1.05s0.73-0.92,1.08-1.48
				c0.32-0.57,0.64-1.21,0.94-1.92c0.3-0.71,0.55-1.49,0.74-2.34c0.2-0.79,0.36-1.64,0.47-2.55c0.11-0.91,0.16-1.89,0.16-2.93v-0.18
				c0-1.18-0.07-2.25-0.22-3.21c-0.14-0.96-0.3-1.78-0.48-2.45c-0.25-0.96-0.56-1.83-0.92-2.59s-0.73-1.43-1.1-2
				c-0.29-0.45-0.59-0.84-0.89-1.17c-0.31-0.34-0.6-0.62-0.89-0.86l0.51-1.48c0.44,0.25,0.9,0.58,1.39,1.01s0.97,0.95,1.44,1.55
				c0.49,0.62,0.95,1.31,1.38,2.07c0.43,0.76,0.8,1.62,1.13,2.57c0.31,0.92,0.58,1.91,0.78,2.99c0.21,1.07,0.31,2.28,0.31,3.62v0.13
				C678.85,212.96,678.75,214.14,678.56,215.24z"/>
			<path class="st3" d="M690.82,216.44c0.32-0.37,0.79-0.55,1.43-0.55c0.63,0,1.11,0.18,1.44,0.54s0.49,0.81,0.49,1.33
				c0,0.52-0.17,0.95-0.5,1.3c-0.33,0.35-0.81,0.53-1.43,0.53c-0.63,0-1.1-0.18-1.42-0.53c-0.32-0.35-0.48-0.79-0.48-1.29
				C690.35,217.25,690.51,216.8,690.82,216.44z"/>
		</g>
	</g>
</g>
</svg>
