<?xml version="1.0" encoding="utf-8"?>
<!-- Generator: Adobe Illustrator 28.2.0, SVG Export Plug-In . SVG Version: 6.00 Build 0)  -->
<svg version="1.1" id="Layer_1" xmlns="http://www.w3.org/2000/svg" xmlns:xlink="http://www.w3.org/1999/xlink" x="0px" y="0px"
	 viewBox="0 0 900 380" style="enable-background:new 0 0 900 380;" xml:space="preserve">
<style type="text/css">
	.st0{fill:#FF1A56;}
	.st1{font-family:'SuisseWorks-RegularItalic_LD-V1Regular';}
	.st2{font-size:142.2721px;}
	.st3{fill:#1717E2;}
</style>
<g>
	<text transform="matrix(1 0 0 1 56.554 229.2315)" class="st0 st1 st2">Genuphilia.</text>
</g>
<g>
	<text transform="matrix(1 0 0 1 946.6414 245.8222)" class="st0 st1" style="font-size:169.9853px; letter-spacing:-1;">Auralism.</text>
</g>
<g>
	<g>
		<g>
			<path class="st3" d="M217.12-179.5l-3.04-12.45l-2.17,12.45h-3.62l3.31-19.11h3.56l3,12.4l2.18-12.4h3.61l-3.32,19.11H217.12z"/>
			<path class="st3" d="M238.05-185.55c-0.22,0.7-0.49,1.36-0.83,1.99c-0.34,0.63-0.74,1.21-1.19,1.75c-0.45,0.54-0.96,1-1.53,1.38
				c-0.57,0.38-1.19,0.68-1.88,0.89c-0.68,0.21-1.43,0.31-2.23,0.29c-0.76-0.02-1.44-0.15-2.03-0.39c-0.59-0.24-1.1-0.57-1.53-0.98
				c-0.44-0.4-0.8-0.87-1.08-1.41c-0.28-0.54-0.49-1.12-0.64-1.74c-0.15-0.61-0.24-1.25-0.26-1.92c-0.03-0.66,0-1.33,0.09-1.98
				l0.43-2.78c0.1-0.7,0.26-1.4,0.48-2.09c0.21-0.7,0.48-1.36,0.81-1.99c0.31-0.63,0.69-1.22,1.13-1.76
				c0.44-0.54,0.93-1.01,1.48-1.4c0.55-0.38,1.16-0.68,1.84-0.9s1.41-0.31,2.2-0.3c0.77,0.02,1.45,0.14,2.05,0.38
				c0.6,0.24,1.13,0.56,1.58,0.96c0.45,0.41,0.82,0.89,1.12,1.42s0.53,1.11,0.7,1.73c0.16,0.62,0.25,1.27,0.29,1.94
				c0.03,0.67,0.01,1.34-0.08,2.01l-0.43,2.77C238.44-186.95,238.27-186.25,238.05-185.55z M235.44-191.53
				c0.03-0.38,0.03-0.77,0.01-1.17c-0.03-0.38-0.08-0.76-0.17-1.13c-0.09-0.37-0.22-0.7-0.41-0.98s-0.42-0.52-0.72-0.71
				s-0.67-0.28-1.12-0.3c-0.48-0.02-0.91,0.05-1.27,0.2c-0.37,0.15-0.69,0.37-0.96,0.64c-0.28,0.28-0.52,0.6-0.72,0.96
				c-0.2,0.36-0.37,0.75-0.5,1.15c-0.14,0.4-0.25,0.81-0.34,1.23c-0.09,0.42-0.16,0.81-0.21,1.19l-0.43,2.82
				c-0.04,0.31-0.08,0.65-0.11,1.02c-0.03,0.38-0.04,0.76-0.03,1.15c0,0.39,0.03,0.78,0.1,1.15c0.07,0.38,0.19,0.71,0.35,1.01
				c0.17,0.3,0.39,0.54,0.68,0.73s0.65,0.29,1.1,0.31c0.47,0.02,0.9-0.05,1.27-0.2c0.38-0.15,0.71-0.37,1.01-0.64
				c0.29-0.27,0.54-0.59,0.76-0.96c0.22-0.37,0.41-0.76,0.56-1.17c0.15-0.4,0.27-0.81,0.37-1.23s0.17-0.82,0.24-1.19l0.43-2.82
				C235.38-190.79,235.42-191.15,235.44-191.53z"/>
			<path class="st3" d="M253.47-185.96c-0.15,0.99-0.42,1.9-0.8,2.73c-0.39,0.83-0.88,1.54-1.5,2.14c-0.61,0.6-1.34,1.07-2.17,1.4
				s-1.77,0.48-2.81,0.45c-0.96-0.02-1.79-0.21-2.49-0.57c-0.7-0.36-1.26-0.85-1.69-1.46c-0.43-0.6-0.73-1.31-0.89-2.11
				c-0.17-0.8-0.2-1.65-0.09-2.55l2.17-12.68h3.6l-2.13,12.68c-0.04,0.38-0.06,0.78-0.06,1.2s0.07,0.82,0.19,1.19
				c0.11,0.37,0.3,0.68,0.57,0.92c0.27,0.25,0.65,0.39,1.14,0.41c0.54,0.03,1.01-0.07,1.4-0.28c0.39-0.21,0.73-0.5,1-0.86
				c0.26-0.36,0.47-0.77,0.63-1.22c0.16-0.46,0.27-0.91,0.34-1.36l2.17-12.68h3.57L253.47-185.96z"/>
			<path class="st3" d="M264.44-179.5l-3.04-12.45l-2.17,12.45h-3.62l3.31-19.11h3.56l3,12.4l2.18-12.4h3.61l-3.32,19.11H264.44z"/>
			<path class="st3" d="M215.83-115v-16.01l-5,1.9v-2.22l7.23-2.78h0.2V-115H215.83z"/>
			<path class="st3" d="M231.2-117.9c0.31-0.37,0.79-0.55,1.43-0.55c0.63,0,1.11,0.18,1.44,0.54c0.33,0.36,0.49,0.81,0.49,1.33
				c0,0.52-0.17,0.95-0.5,1.3c-0.33,0.35-0.81,0.52-1.43,0.52c-0.63,0-1.1-0.18-1.42-0.53c-0.32-0.35-0.48-0.79-0.48-1.29
				C230.73-117.09,230.89-117.54,231.2-117.9z"/>
			<path class="st3" d="M261.5-119.95l-1.54,4.95h-2.43l6.17-19.11h2.03L271.8-115h-2.41l-1.51-4.95H261.5z M267.24-122.06
				l-2.52-8.29l-2.56,8.29H267.24z"/>
			<path class="st3" d="M293.67-115h-2.43v-19.11h6.19c0.86,0.02,1.67,0.15,2.43,0.41c0.77,0.25,1.44,0.62,2.01,1.1
				c0.58,0.48,1.03,1.08,1.37,1.78c0.34,0.71,0.51,1.52,0.51,2.44c0,0.92-0.17,1.73-0.51,2.43c-0.34,0.7-0.79,1.3-1.37,1.78
				c-0.58,0.48-1.25,0.85-2.01,1.1c-0.77,0.25-1.58,0.39-2.43,0.39h-3.77V-115z M297.43-124.66c0.56-0.01,1.08-0.1,1.55-0.27
				c0.47-0.17,0.88-0.41,1.23-0.73c0.35-0.31,0.62-0.7,0.82-1.15s0.3-0.96,0.3-1.54c0-0.58-0.1-1.1-0.3-1.56
				c-0.2-0.46-0.47-0.86-0.81-1.18c-0.35-0.32-0.76-0.57-1.24-0.75c-0.48-0.17-1-0.27-1.56-0.28h-3.77v7.45H297.43z"/>
			<path class="st3" d="M309.88-119.95l-1.54,4.95h-2.43l6.17-19.11h2.03l6.06,19.11h-2.41l-1.51-4.95H309.88z M315.62-122.06
				l-2.52-8.29l-2.56,8.29H315.62z"/>
			<path class="st3" d="M325.77-122.8v7.79h-2.41v-19.11h5.6c0.89,0.02,1.73,0.14,2.52,0.38s1.48,0.59,2.07,1.06
				c0.59,0.47,1.05,1.06,1.38,1.78c0.34,0.71,0.51,1.55,0.51,2.51c0,0.62-0.09,1.19-0.27,1.71s-0.43,0.98-0.74,1.4
				s-0.69,0.79-1.13,1.12c-0.44,0.32-0.92,0.6-1.44,0.83l4.05,8.16L335.9-115h-2.56l-3.75-7.79H325.77z M329.03-124.79
				c0.54-0.01,1.05-0.09,1.54-0.26c0.48-0.16,0.91-0.4,1.27-0.7c0.36-0.31,0.64-0.68,0.85-1.12s0.31-0.95,0.31-1.53
				c0-0.61-0.1-1.15-0.3-1.61c-0.2-0.46-0.48-0.85-0.84-1.16c-0.36-0.31-0.79-0.54-1.28-0.7c-0.49-0.16-1.03-0.24-1.62-0.25h-3.19
				v7.32H329.03z"/>
			<path class="st3" d="M342.14-119.95L340.6-115h-2.43l6.17-19.11h2.03l6.06,19.11h-2.41l-1.51-4.95H342.14z M347.87-122.06
				l-2.52-8.29l-2.56,8.29H347.87z"/>
			<path class="st3" d="M358.17-115h-2.43v-19.11h6.19c0.86,0.02,1.67,0.15,2.43,0.41c0.77,0.25,1.44,0.62,2.01,1.1
				c0.58,0.48,1.03,1.08,1.37,1.78c0.34,0.71,0.51,1.52,0.51,2.44c0,0.92-0.17,1.73-0.51,2.43c-0.34,0.7-0.79,1.3-1.37,1.78
				c-0.58,0.48-1.25,0.85-2.01,1.1c-0.77,0.25-1.58,0.39-2.43,0.39h-3.77V-115z M361.94-124.66c0.56-0.01,1.08-0.1,1.55-0.27
				c0.47-0.17,0.88-0.41,1.23-0.73c0.35-0.31,0.62-0.7,0.82-1.15s0.3-0.96,0.3-1.54c0-0.58-0.1-1.1-0.3-1.56
				c-0.2-0.46-0.47-0.86-0.81-1.18c-0.35-0.32-0.76-0.57-1.24-0.75c-0.48-0.17-1-0.27-1.56-0.28h-3.77v7.45H361.94z"/>
			<path class="st3" d="M381.33-115v-8.83h-7.83v8.83h-2.28v-19.11h2.28v8.21h7.83v-8.21h2.3V-115H381.33z"/>
			<path class="st3" d="M399.32-134.11v2.11h-4.58v14.89h4.58v2.1h-11.55v-2.1h4.47V-132h-4.47v-2.11H399.32z"/>
			<path class="st3" d="M415.99-117.06v2.06h-11.77v-19.11h2.43v17.05H415.99z"/>
			<path class="st3" d="M431.58-134.11v2.11H427v14.89h4.58v2.1h-11.55v-2.1h4.47V-132h-4.47v-2.11H431.58z"/>
			<path class="st3" d="M438.9-119.95l-1.54,4.95h-2.43l6.17-19.11h2.03L449.2-115h-2.41l-1.51-4.95H438.9z M444.63-122.06
				l-2.52-8.29l-2.56,8.29H444.63z"/>
			<path class="st3" d="M480.66-121.39c-0.11,0.7-0.28,1.37-0.5,2.01s-0.52,1.25-0.87,1.81c-0.35,0.56-0.78,1.05-1.27,1.47
				c-0.49,0.42-1.05,0.75-1.69,0.99c-0.63,0.24-1.34,0.36-2.13,0.36c-0.79,0-1.5-0.12-2.13-0.36c-0.63-0.24-1.2-0.57-1.69-0.99
				c-0.49-0.42-0.91-0.91-1.27-1.48c-0.36-0.56-0.65-1.17-0.88-1.82c-0.24-0.65-0.41-1.32-0.53-2.01c-0.11-0.69-0.17-1.38-0.18-2.06
				v-2.18c0.01-0.68,0.07-1.37,0.18-2.07c0.11-0.7,0.28-1.37,0.52-2.01c0.23-0.65,0.52-1.25,0.87-1.82
				c0.35-0.56,0.78-1.06,1.27-1.49c0.49-0.42,1.05-0.75,1.69-0.99c0.63-0.24,1.34-0.36,2.13-0.36c0.79,0,1.5,0.12,2.14,0.36
				c0.64,0.24,1.2,0.57,1.69,0.99s0.91,0.91,1.27,1.48c0.35,0.56,0.65,1.17,0.89,1.82c0.23,0.65,0.4,1.32,0.5,2.02
				c0.11,0.7,0.17,1.39,0.18,2.07v2.18C480.83-122.77,480.77-122.08,480.66-121.39z M478.34-127.08c-0.05-0.49-0.14-0.99-0.26-1.48
				c-0.13-0.48-0.3-0.94-0.51-1.38c-0.21-0.44-0.47-0.83-0.79-1.17c-0.32-0.33-0.69-0.6-1.12-0.79s-0.93-0.3-1.5-0.3
				c-0.56,0-1.05,0.1-1.48,0.3s-0.8,0.47-1.12,0.8c-0.31,0.34-0.58,0.73-0.79,1.17c-0.21,0.44-0.38,0.9-0.5,1.38
				c-0.13,0.49-0.22,0.98-0.28,1.48c-0.06,0.49-0.09,0.96-0.1,1.41v2.2c0.01,0.45,0.04,0.92,0.1,1.42c0.06,0.5,0.15,0.99,0.28,1.47
				c0.13,0.49,0.3,0.96,0.51,1.4s0.47,0.84,0.79,1.17c0.31,0.34,0.69,0.61,1.12,0.81c0.43,0.2,0.93,0.3,1.5,0.3
				c0.57,0,1.07-0.1,1.5-0.3s0.81-0.47,1.12-0.81c0.31-0.33,0.56-0.72,0.77-1.16c0.21-0.44,0.37-0.91,0.5-1.4
				c0.12-0.48,0.21-0.97,0.26-1.47c0.05-0.5,0.08-0.98,0.09-1.43v-2.2C478.43-126.11,478.4-126.59,478.34-127.08z"/>
			<path class="st3" d="M487.21-123.44v8.44h-2.45v-19.11h11.73v2.07h-9.28v6.53h7.95v2.06H487.21z"/>
			<path class="st3" d="M523.77-132.03V-115h-2.36v-17.03h-5.91v-2.07h14.17v2.07H523.77z"/>
			<path class="st3" d="M542.6-115v-8.83h-7.83v8.83h-2.28v-19.11h2.28v8.21h7.83v-8.21h2.3V-115H542.6z"/>
			<path class="st3" d="M551.58-123.83v6.77h9.3v2.06h-11.73v-19.11h11.61v2.07h-9.19v6.14h7.98v2.06H551.58z"/>
			<path class="st3" d="M593.38-117.06v2.06h-11.77v-19.11h2.43v17.05H593.38z"/>
			<path class="st3" d="M599.96-123.83v6.77h9.3v2.06h-11.73v-19.11h11.61v2.07h-9.19v6.14h7.98v2.06H599.96z"/>
			<path class="st3" d="M624.97-116.56c-0.33,0.28-0.68,0.53-1.04,0.74c-0.61,0.37-1.27,0.64-1.98,0.82
				c-0.71,0.18-1.45,0.26-2.23,0.26c-0.79-0.01-1.51-0.13-2.17-0.36c-0.66-0.23-1.25-0.55-1.78-0.96c-0.53-0.4-0.98-0.88-1.38-1.43
				s-0.72-1.15-0.98-1.8c-0.27-0.64-0.47-1.31-0.61-2.01c-0.14-0.7-0.21-1.42-0.22-2.13v-2.22c0.01-0.71,0.07-1.41,0.19-2.12
				c0.12-0.7,0.3-1.38,0.54-2.03c0.25-0.65,0.55-1.25,0.92-1.8c0.37-0.56,0.81-1.04,1.33-1.45c0.51-0.4,1.08-0.72,1.73-0.96
				c0.65-0.24,1.37-0.35,2.18-0.35c0.89,0,1.71,0.14,2.47,0.41c0.75,0.28,1.41,0.67,1.97,1.17c0.56,0.52,1.01,1.14,1.35,1.86
				c0.34,0.72,0.55,1.53,0.63,2.42h-2.4c-0.1-0.55-0.25-1.06-0.45-1.53c-0.2-0.47-0.46-0.87-0.79-1.2
				c-0.33-0.33-0.73-0.59-1.18-0.78c-0.46-0.19-0.98-0.28-1.59-0.28c-0.58,0-1.09,0.1-1.54,0.3c-0.45,0.2-0.83,0.46-1.17,0.79
				c-0.33,0.33-0.61,0.72-0.83,1.16c-0.22,0.44-0.4,0.91-0.54,1.4c-0.14,0.49-0.24,0.99-0.3,1.5s-0.09,1-0.09,1.47v2.24
				c0.01,0.48,0.05,0.98,0.12,1.49c0.07,0.51,0.19,1.01,0.35,1.5c0.16,0.49,0.36,0.95,0.6,1.39c0.24,0.44,0.54,0.82,0.89,1.15
				c0.34,0.33,0.74,0.6,1.19,0.79s0.97,0.3,1.55,0.31c0.33,0.01,0.68,0,1.04-0.04c0.36-0.04,0.71-0.1,1.06-0.21
				c0.34-0.1,0.66-0.25,0.96-0.43c0.3-0.18,0.55-0.41,0.75-0.7l0.03-4.29h-3.88v-2.05h6.19l0.04,7.01
				C625.62-117.16,625.3-116.84,624.97-116.56z"/>
			<path class="st3" d="M632.38-126.29c0.2-1.1,0.46-2.13,0.79-3.07c0.33-0.94,0.72-1.79,1.15-2.57s0.89-1.47,1.37-2.07
				c0.47-0.6,0.95-1.12,1.43-1.55c0.48-0.43,0.94-0.77,1.38-1.01l0.51,1.6c-0.28,0.21-0.56,0.46-0.85,0.76s-0.56,0.63-0.83,1
				c-0.4,0.57-0.79,1.24-1.16,2c-0.37,0.77-0.67,1.6-0.92,2.51c-0.24,0.82-0.42,1.73-0.55,2.72c-0.13,0.99-0.2,2.05-0.2,3.19v0.18
				c0,1.09,0.06,2.12,0.18,3.07c0.12,0.95,0.29,1.83,0.5,2.64c0.23,0.81,0.49,1.57,0.79,2.26c0.3,0.7,0.61,1.32,0.93,1.87
				c0.33,0.52,0.68,0.99,1.03,1.4c0.35,0.41,0.71,0.75,1.07,1.04l-0.51,1.48c-0.44-0.25-0.9-0.58-1.38-1s-0.96-0.94-1.44-1.56
				c-0.48-0.6-0.94-1.29-1.37-2.07c-0.43-0.77-0.81-1.63-1.14-2.58c-0.33-0.94-0.6-1.96-0.79-3.06c-0.2-1.1-0.29-2.28-0.29-3.53
				v-0.13C632.08-124.01,632.18-125.19,632.38-126.29z"/>
			<path class="st3" d="M655.41-121.31c-0.27-0.4-0.61-0.74-1.03-1.02c-0.42-0.27-0.88-0.5-1.38-0.68s-0.99-0.35-1.45-0.5
				c-0.67-0.22-1.36-0.48-2.05-0.79s-1.33-0.68-1.9-1.12c-0.58-0.45-1.05-0.97-1.41-1.58s-0.54-1.32-0.54-2.15s0.18-1.56,0.54-2.2
				c0.36-0.65,0.84-1.19,1.42-1.64s1.25-0.79,1.99-1.02c0.74-0.23,1.49-0.35,2.24-0.35c0.83,0,1.63,0.14,2.4,0.41
				c0.77,0.28,1.45,0.66,2.05,1.16s1.07,1.1,1.43,1.81c0.36,0.71,0.55,1.5,0.56,2.38h-2.49c-0.07-0.55-0.21-1.05-0.41-1.5
				s-0.47-0.84-0.8-1.16c-0.33-0.32-0.73-0.57-1.19-0.75c-0.46-0.18-0.98-0.27-1.55-0.27c-0.46,0-0.92,0.07-1.36,0.2
				c-0.44,0.13-0.83,0.33-1.17,0.59c-0.35,0.26-0.63,0.59-0.83,0.97c-0.21,0.39-0.31,0.83-0.31,1.34c0.01,0.55,0.15,1.02,0.42,1.4
				c0.27,0.38,0.62,0.7,1.04,0.96c0.41,0.26,0.86,0.48,1.34,0.66c0.49,0.17,0.94,0.33,1.37,0.46c0.71,0.22,1.42,0.48,2.12,0.79
				c0.71,0.31,1.36,0.71,1.94,1.19c0.58,0.45,1.04,0.99,1.4,1.64c0.35,0.65,0.53,1.4,0.53,2.24c0,0.86-0.19,1.61-0.57,2.24
				c-0.38,0.64-0.87,1.17-1.48,1.59c-0.6,0.43-1.29,0.75-2.05,0.96s-1.52,0.32-2.28,0.32c-0.91,0-1.8-0.15-2.68-0.46
				s-1.64-0.75-2.29-1.33c-0.58-0.5-1.03-1.08-1.37-1.75s-0.52-1.42-0.54-2.24h2.48c0.08,0.6,0.24,1.12,0.49,1.58
				c0.25,0.46,0.56,0.85,0.95,1.16c0.38,0.32,0.83,0.57,1.33,0.73c0.5,0.16,1.05,0.24,1.65,0.24c0.47,0,0.94-0.06,1.4-0.18
				c0.46-0.12,0.87-0.3,1.23-0.56c0.36-0.24,0.65-0.56,0.88-0.94c0.23-0.38,0.34-0.83,0.34-1.36
				C655.81-120.42,655.67-120.91,655.41-121.31z"/>
			<path class="st3" d="M670.5-119.1c-0.2,1.1-0.46,2.12-0.79,3.06c-0.33,0.94-0.72,1.8-1.15,2.58c-0.43,0.77-0.89,1.46-1.36,2.07
				c-0.48,0.61-0.96,1.13-1.45,1.56c-0.49,0.42-0.95,0.76-1.38,1l-0.51-1.48c0.37-0.27,0.74-0.62,1.12-1.05s0.73-0.92,1.08-1.48
				c0.32-0.57,0.64-1.21,0.94-1.92c0.3-0.71,0.55-1.49,0.74-2.34c0.2-0.79,0.36-1.64,0.47-2.55c0.11-0.91,0.16-1.89,0.16-2.93v-0.18
				c0-1.18-0.07-2.25-0.22-3.21s-0.3-1.78-0.48-2.45c-0.25-0.96-0.56-1.83-0.92-2.59s-0.73-1.43-1.1-2
				c-0.29-0.45-0.59-0.84-0.89-1.17c-0.31-0.34-0.6-0.62-0.89-0.86l0.51-1.48c0.44,0.25,0.9,0.58,1.39,1.01s0.97,0.94,1.44,1.55
				c0.49,0.62,0.95,1.31,1.38,2.07c0.43,0.76,0.8,1.62,1.13,2.57c0.31,0.92,0.58,1.91,0.78,2.99c0.21,1.07,0.31,2.28,0.31,3.62v0.13
				C670.79-121.38,670.69-120.2,670.5-119.1z"/>
			<path class="st3" d="M682.76-117.9c0.32-0.37,0.79-0.55,1.43-0.55c0.63,0,1.11,0.18,1.44,0.54c0.33,0.36,0.49,0.81,0.49,1.33
				c0,0.52-0.17,0.95-0.5,1.3c-0.33,0.35-0.81,0.52-1.43,0.52c-0.63,0-1.1-0.18-1.42-0.53c-0.32-0.35-0.48-0.79-0.48-1.29
				C682.29-117.09,682.44-117.54,682.76-117.9z"/>
		</g>
	</g>
</g>
</svg>
