<?xml version="1.0" encoding="utf-8"?>
<!-- Generator: Adobe Illustrator 28.2.0, SVG Export Plug-In . SVG Version: 6.00 Build 0)  -->
<svg version="1.1" id="Layer_1" xmlns="http://www.w3.org/2000/svg" xmlns:xlink="http://www.w3.org/1999/xlink" x="0px" y="0px"
	 viewBox="0 0 900 380" style="enable-background:new 0 0 900 380;" xml:space="preserve">
<style type="text/css">
	.st0{fill:#FF1A56;}
	.st1{font-family:'SuisseWorks-RegularItalic_LD-V1Regular';}
	.st2{font-size:142.2721px;}
	.st3{fill:#1717E2;}
</style>
<g>
	<text transform="matrix(1 0 0 1 39.4812 229.2314)" class="st0 st1 st2">Crurophilia.</text>
</g>
<g>
	<text transform="matrix(1 0 0 1 946.6414 245.8222)" class="st0 st1" style="font-size:169.9853px; letter-spacing:-1;">Auralism.</text>
</g>
<g>
	<g>
		<g>
			<path class="st3" d="M63.92-328.62l-3.04-12.45l-2.17,12.45h-3.62l3.31-19.11h3.56l3,12.4l2.18-12.4h3.61l-3.32,19.11H63.92z"/>
			<path class="st3" d="M84.85-334.67c-0.22,0.7-0.49,1.36-0.83,1.99c-0.34,0.63-0.74,1.21-1.19,1.75c-0.45,0.54-0.96,1-1.53,1.38
				c-0.57,0.38-1.19,0.68-1.88,0.89c-0.68,0.21-1.43,0.31-2.23,0.29c-0.76-0.02-1.44-0.15-2.03-0.39c-0.59-0.24-1.1-0.57-1.53-0.98
				c-0.44-0.4-0.8-0.87-1.08-1.41c-0.28-0.54-0.49-1.12-0.64-1.74c-0.15-0.61-0.24-1.25-0.26-1.92c-0.03-0.66,0-1.33,0.09-1.98
				l0.43-2.78c0.1-0.7,0.26-1.4,0.48-2.09c0.21-0.7,0.48-1.36,0.81-1.99c0.31-0.63,0.69-1.22,1.13-1.76
				c0.44-0.54,0.93-1.01,1.48-1.4c0.55-0.38,1.16-0.68,1.84-0.9s1.41-0.31,2.2-0.3c0.77,0.02,1.45,0.14,2.05,0.38
				c0.6,0.24,1.13,0.56,1.58,0.96c0.45,0.41,0.82,0.89,1.12,1.42s0.53,1.11,0.7,1.73c0.16,0.62,0.25,1.27,0.29,1.94
				c0.03,0.67,0.01,1.34-0.08,2.01l-0.43,2.77C85.23-336.07,85.07-335.37,84.85-334.67z M82.24-340.65
				c0.03-0.38,0.03-0.77,0.01-1.17c-0.03-0.38-0.08-0.76-0.17-1.13c-0.09-0.37-0.22-0.7-0.41-0.98s-0.42-0.52-0.72-0.71
				s-0.67-0.28-1.12-0.3c-0.48-0.02-0.91,0.05-1.27,0.2c-0.37,0.15-0.69,0.37-0.96,0.64c-0.28,0.28-0.52,0.6-0.72,0.96
				c-0.2,0.36-0.37,0.75-0.5,1.15c-0.14,0.4-0.25,0.81-0.34,1.23c-0.09,0.42-0.16,0.81-0.21,1.19l-0.43,2.82
				c-0.04,0.31-0.08,0.65-0.11,1.02c-0.03,0.38-0.04,0.76-0.03,1.15c0,0.39,0.03,0.78,0.1,1.15c0.07,0.38,0.19,0.71,0.35,1.01
				c0.17,0.3,0.39,0.54,0.68,0.73s0.65,0.29,1.1,0.31c0.47,0.02,0.9-0.05,1.27-0.2c0.38-0.15,0.71-0.37,1.01-0.64
				c0.29-0.27,0.54-0.59,0.76-0.96c0.22-0.37,0.41-0.76,0.56-1.17c0.15-0.4,0.27-0.81,0.37-1.23s0.17-0.82,0.24-1.19l0.43-2.82
				C82.18-339.91,82.21-340.27,82.24-340.65z"/>
			<path class="st3" d="M100.27-335.07c-0.15,0.99-0.42,1.9-0.8,2.73c-0.39,0.83-0.88,1.54-1.5,2.14c-0.61,0.6-1.34,1.07-2.17,1.4
				s-1.77,0.48-2.81,0.45c-0.96-0.02-1.79-0.21-2.49-0.57c-0.7-0.36-1.26-0.85-1.69-1.46c-0.43-0.6-0.73-1.31-0.89-2.11
				c-0.17-0.8-0.2-1.65-0.09-2.55l2.17-12.68h3.6l-2.13,12.68c-0.04,0.38-0.06,0.78-0.06,1.2s0.07,0.82,0.19,1.19
				c0.11,0.37,0.3,0.68,0.57,0.92c0.27,0.25,0.65,0.39,1.14,0.41c0.54,0.03,1.01-0.07,1.4-0.28c0.39-0.21,0.73-0.5,1-0.86
				c0.26-0.36,0.47-0.77,0.63-1.22c0.16-0.46,0.27-0.91,0.34-1.36l2.17-12.68h3.57L100.27-335.07z"/>
			<path class="st3" d="M111.24-328.62l-3.04-12.45l-2.17,12.45h-3.62l3.31-19.11h3.56l3,12.4l2.18-12.4h3.61l-3.32,19.11H111.24z"
				/>
			<path class="st3" d="M62.62-264.12v-16.01l-5,1.9v-2.22l7.23-2.78h0.2v19.11H62.62z"/>
			<path class="st3" d="M78-267.02c0.31-0.37,0.79-0.55,1.43-0.55c0.63,0,1.11,0.18,1.44,0.54c0.33,0.36,0.49,0.81,0.49,1.33
				c0,0.52-0.17,0.95-0.5,1.3c-0.33,0.35-0.81,0.52-1.43,0.52c-0.63,0-1.1-0.18-1.42-0.53c-0.32-0.35-0.48-0.79-0.48-1.29
				C77.53-266.21,77.68-266.65,78-267.02z"/>
			<path class="st3" d="M108.23-272.56v8.44h-2.45v-19.11h11.73v2.07h-9.28v6.53h7.95v2.06H108.23z"/>
			<path class="st3" d="M133.93-270.51c-0.11,0.7-0.28,1.37-0.51,2.01s-0.52,1.25-0.87,1.81c-0.35,0.56-0.78,1.05-1.27,1.47
				c-0.49,0.42-1.05,0.75-1.69,0.99c-0.63,0.24-1.34,0.36-2.13,0.36c-0.79,0-1.5-0.12-2.13-0.36c-0.63-0.24-1.2-0.57-1.69-0.99
				c-0.49-0.42-0.91-0.91-1.27-1.48c-0.36-0.56-0.65-1.17-0.88-1.82c-0.24-0.65-0.41-1.32-0.52-2.01c-0.11-0.69-0.18-1.38-0.18-2.06
				v-2.18c0.01-0.68,0.07-1.37,0.18-2.07c0.11-0.7,0.28-1.37,0.52-2.01c0.23-0.65,0.52-1.25,0.87-1.82
				c0.35-0.56,0.78-1.06,1.27-1.49c0.49-0.42,1.05-0.75,1.69-0.99c0.63-0.24,1.34-0.36,2.13-0.36c0.79,0,1.5,0.12,2.14,0.36
				c0.64,0.24,1.2,0.57,1.69,0.99c0.49,0.42,0.91,0.91,1.27,1.48c0.35,0.56,0.65,1.17,0.89,1.82c0.23,0.65,0.4,1.32,0.51,2.02
				c0.11,0.7,0.17,1.39,0.18,2.07v2.18C134.1-271.89,134.04-271.2,133.93-270.51z M131.62-276.2c-0.05-0.49-0.14-0.99-0.26-1.48
				c-0.13-0.48-0.3-0.94-0.51-1.38c-0.21-0.44-0.47-0.83-0.79-1.17c-0.31-0.33-0.69-0.6-1.12-0.79s-0.93-0.3-1.5-0.3
				c-0.56,0-1.05,0.1-1.48,0.3s-0.8,0.47-1.12,0.8c-0.31,0.34-0.58,0.73-0.79,1.17c-0.21,0.44-0.38,0.9-0.5,1.38
				c-0.13,0.49-0.23,0.98-0.28,1.48s-0.09,0.96-0.1,1.41v2.2c0.01,0.45,0.04,0.92,0.1,1.42c0.06,0.5,0.15,0.99,0.28,1.47
				c0.13,0.49,0.3,0.96,0.51,1.4s0.47,0.84,0.79,1.17c0.31,0.34,0.69,0.61,1.12,0.81c0.43,0.2,0.93,0.3,1.5,0.3
				c0.57,0,1.07-0.1,1.5-0.3c0.43-0.2,0.81-0.47,1.12-0.81c0.31-0.33,0.56-0.72,0.77-1.16c0.21-0.44,0.37-0.91,0.51-1.4
				c0.12-0.48,0.21-0.97,0.26-1.47c0.05-0.5,0.08-0.98,0.09-1.43v-2.2C131.7-275.23,131.67-275.71,131.62-276.2z"/>
			<path class="st3" d="M150.06-270.51c-0.11,0.7-0.28,1.37-0.51,2.01s-0.52,1.25-0.87,1.81c-0.35,0.56-0.78,1.05-1.27,1.47
				c-0.49,0.42-1.05,0.75-1.69,0.99c-0.63,0.24-1.34,0.36-2.13,0.36c-0.79,0-1.5-0.12-2.13-0.36c-0.63-0.24-1.2-0.57-1.69-0.99
				c-0.49-0.42-0.91-0.91-1.27-1.48c-0.36-0.56-0.65-1.17-0.88-1.82c-0.24-0.65-0.41-1.32-0.52-2.01c-0.11-0.69-0.18-1.38-0.18-2.06
				v-2.18c0.01-0.68,0.07-1.37,0.18-2.07c0.11-0.7,0.28-1.37,0.52-2.01c0.23-0.65,0.52-1.25,0.87-1.82
				c0.35-0.56,0.78-1.06,1.27-1.49c0.49-0.42,1.05-0.75,1.69-0.99c0.63-0.24,1.34-0.36,2.13-0.36c0.79,0,1.5,0.12,2.14,0.36
				c0.64,0.24,1.2,0.57,1.69,0.99c0.49,0.42,0.91,0.91,1.27,1.48c0.35,0.56,0.65,1.17,0.89,1.82c0.23,0.65,0.4,1.32,0.51,2.02
				c0.11,0.7,0.17,1.39,0.18,2.07v2.18C150.23-271.89,150.17-271.2,150.06-270.51z M147.74-276.2c-0.05-0.49-0.14-0.99-0.26-1.48
				c-0.13-0.48-0.3-0.94-0.51-1.38c-0.21-0.44-0.47-0.83-0.79-1.17c-0.31-0.33-0.69-0.6-1.12-0.79s-0.93-0.3-1.5-0.3
				c-0.56,0-1.05,0.1-1.48,0.3s-0.8,0.47-1.12,0.8c-0.31,0.34-0.58,0.73-0.79,1.17c-0.21,0.44-0.38,0.9-0.5,1.38
				c-0.13,0.49-0.23,0.98-0.28,1.48s-0.09,0.96-0.1,1.41v2.2c0.01,0.45,0.04,0.92,0.1,1.42c0.06,0.5,0.15,0.99,0.28,1.47
				c0.13,0.49,0.3,0.96,0.51,1.4s0.47,0.84,0.79,1.17c0.31,0.34,0.69,0.61,1.12,0.81c0.43,0.2,0.93,0.3,1.5,0.3
				c0.57,0,1.07-0.1,1.5-0.3c0.43-0.2,0.81-0.47,1.12-0.81c0.31-0.33,0.56-0.72,0.77-1.16c0.21-0.44,0.37-0.91,0.51-1.4
				c0.12-0.48,0.21-0.97,0.26-1.47c0.05-0.5,0.08-0.98,0.09-1.43v-2.2C147.83-275.23,147.79-275.71,147.74-276.2z"/>
			<path class="st3" d="M160.92-281.15v17.03h-2.36v-17.03h-5.91v-2.07h14.17v2.07H160.92z"/>
			<path class="st3" d="M188.87-272.56v8.44h-2.45v-19.11h11.73v2.07h-9.28v6.53h7.95v2.06H188.87z"/>
			<path class="st3" d="M204.85-272.95v6.77h9.3v2.06h-11.73v-19.11h11.61v2.07h-9.19v6.14h7.98v2.06H204.85z"/>
			<path class="st3" d="M225.42-281.15v17.03h-2.36v-17.03h-5.91v-2.07h14.17v2.07H225.42z"/>
			<path class="st3" d="M246.12-283.23v2.11h-4.58v14.89h4.58v2.1h-11.55v-2.1h4.47v-14.89h-4.47v-2.11H246.12z"/>
			<path class="st3" d="M260.3-270.43c-0.27-0.4-0.61-0.74-1.03-1.02c-0.42-0.27-0.88-0.5-1.38-0.68s-0.99-0.35-1.45-0.5
				c-0.67-0.22-1.36-0.48-2.05-0.79s-1.33-0.68-1.9-1.12c-0.58-0.45-1.05-0.97-1.41-1.58c-0.36-0.61-0.54-1.32-0.54-2.15
				s0.18-1.56,0.54-2.2c0.36-0.65,0.84-1.19,1.42-1.64c0.59-0.45,1.25-0.79,1.99-1.02c0.74-0.23,1.49-0.35,2.24-0.35
				c0.83,0,1.63,0.14,2.4,0.41c0.77,0.28,1.45,0.66,2.05,1.16s1.07,1.1,1.43,1.81c0.36,0.71,0.55,1.5,0.56,2.38h-2.49
				c-0.07-0.55-0.21-1.05-0.41-1.5s-0.47-0.84-0.8-1.16c-0.33-0.32-0.73-0.57-1.19-0.75c-0.46-0.18-0.98-0.27-1.56-0.27
				c-0.46,0-0.92,0.07-1.36,0.2c-0.44,0.13-0.83,0.33-1.17,0.59c-0.35,0.26-0.63,0.59-0.83,0.97c-0.21,0.39-0.31,0.83-0.31,1.34
				c0.01,0.55,0.15,1.02,0.42,1.4c0.27,0.38,0.62,0.7,1.04,0.96c0.41,0.26,0.86,0.48,1.35,0.66c0.49,0.17,0.94,0.33,1.37,0.46
				c0.71,0.22,1.42,0.48,2.13,0.79s1.36,0.71,1.94,1.19c0.58,0.45,1.04,0.99,1.4,1.64c0.35,0.65,0.53,1.4,0.53,2.24
				c0,0.86-0.19,1.61-0.57,2.24c-0.38,0.64-0.87,1.17-1.48,1.59c-0.6,0.43-1.29,0.75-2.05,0.96s-1.52,0.32-2.28,0.32
				c-0.91,0-1.8-0.15-2.68-0.46c-0.88-0.31-1.64-0.75-2.29-1.33c-0.58-0.5-1.03-1.08-1.37-1.75s-0.52-1.42-0.54-2.24h2.48
				c0.08,0.6,0.24,1.12,0.49,1.58c0.24,0.46,0.56,0.85,0.94,1.16c0.38,0.32,0.83,0.57,1.33,0.73c0.5,0.16,1.05,0.24,1.65,0.24
				c0.47,0,0.94-0.06,1.4-0.18c0.46-0.12,0.87-0.3,1.23-0.56c0.36-0.24,0.65-0.56,0.88-0.94s0.34-0.83,0.34-1.36
				C260.7-269.54,260.56-270.03,260.3-270.43z"/>
			<path class="st3" d="M276.51-264.12v-8.83h-7.83v8.83h-2.28v-19.11h2.28v8.21h7.83v-8.21h2.3v19.11H276.51z"/>
			<path class="st3" d="M294.5-283.23v2.11h-4.58v14.89h4.58v2.1h-11.55v-2.1h4.47v-14.89h-4.47v-2.11H294.5z"/>
			<path class="st3" d="M308.68-270.43c-0.27-0.4-0.61-0.74-1.03-1.02c-0.42-0.27-0.88-0.5-1.38-0.68s-0.99-0.35-1.45-0.5
				c-0.67-0.22-1.36-0.48-2.05-0.79s-1.33-0.68-1.9-1.12c-0.58-0.45-1.05-0.97-1.41-1.58c-0.36-0.61-0.54-1.32-0.54-2.15
				s0.18-1.56,0.54-2.2c0.36-0.65,0.84-1.19,1.42-1.64c0.59-0.45,1.25-0.79,1.99-1.02c0.74-0.23,1.49-0.35,2.24-0.35
				c0.83,0,1.63,0.14,2.4,0.41c0.77,0.28,1.45,0.66,2.05,1.16s1.07,1.1,1.43,1.81c0.36,0.71,0.55,1.5,0.56,2.38h-2.49
				c-0.07-0.55-0.21-1.05-0.41-1.5s-0.47-0.84-0.8-1.16c-0.33-0.32-0.73-0.57-1.19-0.75c-0.46-0.18-0.98-0.27-1.56-0.27
				c-0.46,0-0.92,0.07-1.36,0.2c-0.44,0.13-0.83,0.33-1.17,0.59c-0.35,0.26-0.63,0.59-0.83,0.97c-0.21,0.39-0.31,0.83-0.31,1.34
				c0.01,0.55,0.15,1.02,0.42,1.4c0.27,0.38,0.62,0.7,1.04,0.96c0.41,0.26,0.86,0.48,1.35,0.66c0.49,0.17,0.94,0.33,1.37,0.46
				c0.71,0.22,1.42,0.48,2.13,0.79s1.36,0.71,1.94,1.19c0.58,0.45,1.04,0.99,1.4,1.64c0.35,0.65,0.53,1.4,0.53,2.24
				c0,0.86-0.19,1.61-0.57,2.24c-0.38,0.64-0.87,1.17-1.48,1.59c-0.6,0.43-1.29,0.75-2.05,0.96s-1.52,0.32-2.28,0.32
				c-0.91,0-1.8-0.15-2.68-0.46c-0.88-0.31-1.64-0.75-2.29-1.33c-0.58-0.5-1.03-1.08-1.37-1.75s-0.52-1.42-0.54-2.24h2.48
				c0.08,0.6,0.24,1.12,0.49,1.58c0.24,0.46,0.56,0.85,0.94,1.16c0.38,0.32,0.83,0.57,1.33,0.73c0.5,0.16,1.05,0.24,1.65,0.24
				c0.47,0,0.94-0.06,1.4-0.18c0.46-0.12,0.87-0.3,1.23-0.56c0.36-0.24,0.65-0.56,0.88-0.94s0.34-0.83,0.34-1.36
				C309.08-269.54,308.94-270.03,308.68-270.43z"/>
			<path class="st3" d="M320.98-273.67l3.36-9.55h3.02v19.11h-2.36v-7.62l0.2-7.98l-3.53,10.29h-1.39l-3.24-10.01l0.2,7.7v7.62
				h-2.36v-19.11h3L320.98-273.67z"/>
			<path class="st3" d="M336.87-262.01c-0.41,0.91-0.97,1.67-1.67,2.3l-1.51-0.83c0.42-0.61,0.72-1.26,0.89-1.96
				c0.17-0.69,0.26-1.41,0.26-2.15V-267h2.64v2.31C337.49-263.81,337.28-262.92,336.87-262.01z"/>
			<path class="st3" d="M366.33-269.07l-1.54,4.95h-2.43l6.17-19.11h2.03l6.06,19.11h-2.41l-1.51-4.95H366.33z M372.06-271.18
				l-2.52-8.29l-2.56,8.29H372.06z"/>
			<path class="st3" d="M391.8-266.18v2.06h-11.77v-19.11h2.43v17.05H391.8z"/>
			<path class="st3" d="M405.44-270.43c-0.27-0.4-0.61-0.74-1.03-1.02c-0.42-0.27-0.88-0.5-1.38-0.68s-0.99-0.35-1.45-0.5
				c-0.67-0.22-1.36-0.48-2.05-0.79s-1.33-0.68-1.9-1.12c-0.58-0.45-1.05-0.97-1.41-1.58c-0.36-0.61-0.54-1.32-0.54-2.15
				s0.18-1.56,0.54-2.2c0.36-0.65,0.84-1.19,1.42-1.64c0.59-0.45,1.25-0.79,1.99-1.02c0.74-0.23,1.49-0.35,2.24-0.35
				c0.83,0,1.63,0.14,2.4,0.41c0.77,0.28,1.45,0.66,2.05,1.16s1.07,1.1,1.43,1.81c0.36,0.71,0.55,1.5,0.56,2.38h-2.49
				c-0.07-0.55-0.21-1.05-0.41-1.5s-0.47-0.84-0.8-1.16c-0.33-0.32-0.73-0.57-1.19-0.75c-0.46-0.18-0.98-0.27-1.56-0.27
				c-0.46,0-0.92,0.07-1.36,0.2c-0.44,0.13-0.83,0.33-1.17,0.59c-0.35,0.26-0.63,0.59-0.83,0.97c-0.21,0.39-0.31,0.83-0.31,1.34
				c0.01,0.55,0.15,1.02,0.42,1.4c0.27,0.38,0.62,0.7,1.04,0.96c0.41,0.26,0.86,0.48,1.35,0.66c0.49,0.17,0.94,0.33,1.37,0.46
				c0.71,0.22,1.42,0.48,2.13,0.79s1.36,0.71,1.94,1.19c0.58,0.45,1.04,0.99,1.4,1.64c0.35,0.65,0.53,1.4,0.53,2.24
				c0,0.86-0.19,1.61-0.57,2.24c-0.38,0.64-0.87,1.17-1.48,1.59c-0.6,0.43-1.29,0.75-2.05,0.96s-1.52,0.32-2.28,0.32
				c-0.91,0-1.8-0.15-2.68-0.46c-0.88-0.31-1.64-0.75-2.29-1.33c-0.58-0.5-1.03-1.08-1.37-1.75s-0.52-1.42-0.54-2.24h2.48
				c0.08,0.6,0.24,1.12,0.49,1.58c0.24,0.46,0.56,0.85,0.94,1.16c0.38,0.32,0.83,0.57,1.33,0.73c0.5,0.16,1.05,0.24,1.65,0.24
				c0.47,0,0.94-0.06,1.4-0.18c0.46-0.12,0.87-0.3,1.23-0.56c0.36-0.24,0.65-0.56,0.88-0.94s0.34-0.83,0.34-1.36
				C405.84-269.54,405.71-270.03,405.44-270.43z"/>
			<path class="st3" d="M424.22-270.51c-0.11,0.7-0.28,1.37-0.51,2.01s-0.52,1.25-0.87,1.81c-0.35,0.56-0.78,1.05-1.27,1.47
				c-0.49,0.42-1.05,0.75-1.69,0.99c-0.63,0.24-1.34,0.36-2.13,0.36c-0.79,0-1.5-0.12-2.13-0.36c-0.63-0.24-1.2-0.57-1.69-0.99
				c-0.49-0.42-0.91-0.91-1.27-1.48c-0.36-0.56-0.65-1.17-0.88-1.82c-0.24-0.65-0.41-1.32-0.52-2.01c-0.11-0.69-0.18-1.38-0.18-2.06
				v-2.18c0.01-0.68,0.07-1.37,0.18-2.07c0.11-0.7,0.28-1.37,0.52-2.01c0.23-0.65,0.52-1.25,0.87-1.82
				c0.35-0.56,0.78-1.06,1.27-1.49c0.49-0.42,1.05-0.75,1.69-0.99c0.63-0.24,1.34-0.36,2.13-0.36c0.79,0,1.5,0.12,2.14,0.36
				c0.64,0.24,1.2,0.57,1.69,0.99c0.49,0.42,0.91,0.91,1.27,1.48c0.35,0.56,0.65,1.17,0.89,1.82c0.23,0.65,0.4,1.32,0.51,2.02
				c0.11,0.7,0.17,1.39,0.18,2.07v2.18C424.38-271.89,424.33-271.2,424.22-270.51z M421.9-276.2c-0.05-0.49-0.14-0.99-0.26-1.48
				c-0.13-0.48-0.3-0.94-0.51-1.38c-0.21-0.44-0.47-0.83-0.79-1.17c-0.31-0.33-0.69-0.6-1.12-0.79s-0.93-0.3-1.5-0.3
				c-0.56,0-1.05,0.1-1.48,0.3s-0.8,0.47-1.12,0.8c-0.31,0.34-0.58,0.73-0.79,1.17c-0.21,0.44-0.38,0.9-0.5,1.38
				c-0.13,0.49-0.23,0.98-0.28,1.48s-0.09,0.96-0.1,1.41v2.2c0.01,0.45,0.04,0.92,0.1,1.42c0.06,0.5,0.15,0.99,0.28,1.47
				c0.13,0.49,0.3,0.96,0.51,1.4s0.47,0.84,0.79,1.17c0.31,0.34,0.69,0.61,1.12,0.81c0.43,0.2,0.93,0.3,1.5,0.3
				c0.57,0,1.07-0.1,1.5-0.3c0.43-0.2,0.81-0.47,1.12-0.81c0.31-0.33,0.56-0.72,0.77-1.16c0.21-0.44,0.37-0.91,0.51-1.4
				c0.12-0.48,0.21-0.97,0.26-1.47c0.05-0.5,0.08-0.98,0.09-1.43v-2.2C421.98-275.23,421.95-275.71,421.9-276.2z"/>
			<path class="st3" d="M446.67-270.58v6.46h-2.48v-19.11h2.48v9.33l1.85-2.31l5.6-7.02h2.95l-6.68,8.36l7.12,10.75h-2.95
				l-5.77-8.87L446.67-270.58z"/>
			<path class="st3" d="M469.85-264.12l-7.41-14.28l-0.04,14.28h-2.45v-19.11h2.47l7.41,14.25l0.04-14.25h2.45v19.11H469.85z"/>
			<path class="st3" d="M488.72-270.51c-0.11,0.7-0.28,1.37-0.5,2.01s-0.52,1.25-0.87,1.81c-0.35,0.56-0.78,1.05-1.27,1.47
				c-0.49,0.42-1.05,0.75-1.69,0.99c-0.63,0.24-1.34,0.36-2.13,0.36c-0.79,0-1.5-0.12-2.13-0.36c-0.63-0.24-1.2-0.57-1.69-0.99
				c-0.49-0.42-0.92-0.91-1.27-1.48c-0.36-0.56-0.65-1.17-0.88-1.82c-0.24-0.65-0.41-1.32-0.53-2.01c-0.11-0.69-0.17-1.38-0.18-2.06
				v-2.18c0.01-0.68,0.07-1.37,0.18-2.07c0.11-0.7,0.28-1.37,0.52-2.01c0.23-0.65,0.52-1.25,0.87-1.82
				c0.35-0.56,0.78-1.06,1.27-1.49c0.49-0.42,1.05-0.75,1.69-0.99c0.63-0.24,1.35-0.36,2.13-0.36s1.5,0.12,2.14,0.36
				c0.64,0.24,1.2,0.57,1.69,0.99c0.49,0.42,0.91,0.91,1.27,1.48c0.35,0.56,0.65,1.17,0.89,1.82c0.23,0.65,0.4,1.32,0.5,2.02
				c0.11,0.7,0.17,1.39,0.18,2.07v2.18C488.89-271.89,488.83-271.2,488.72-270.51z M486.41-276.2c-0.05-0.49-0.14-0.99-0.26-1.48
				c-0.13-0.48-0.3-0.94-0.51-1.38c-0.21-0.44-0.47-0.83-0.79-1.17c-0.32-0.33-0.69-0.6-1.12-0.79c-0.43-0.2-0.93-0.3-1.5-0.3
				c-0.56,0-1.05,0.1-1.48,0.3s-0.8,0.47-1.12,0.8c-0.31,0.34-0.58,0.73-0.79,1.17c-0.21,0.44-0.38,0.9-0.5,1.38
				c-0.13,0.49-0.23,0.98-0.28,1.48c-0.06,0.49-0.09,0.96-0.1,1.41v2.2c0.01,0.45,0.04,0.92,0.1,1.42c0.06,0.5,0.15,0.99,0.28,1.47
				c0.13,0.49,0.3,0.96,0.51,1.4s0.47,0.84,0.79,1.17c0.31,0.34,0.69,0.61,1.12,0.81s0.93,0.3,1.5,0.3c0.57,0,1.07-0.1,1.5-0.3
				c0.43-0.2,0.81-0.47,1.12-0.81c0.31-0.33,0.56-0.72,0.77-1.16c0.21-0.44,0.37-0.91,0.5-1.4c0.12-0.48,0.21-0.97,0.26-1.47
				c0.05-0.5,0.08-0.98,0.09-1.43v-2.2C486.49-275.23,486.46-275.71,486.41-276.2z"/>
			<path class="st3" d="M491.28-283.23h2.31l1.38,13.17l0.08,0.76l0.14-0.79l2.31-13.15h2.11l2.32,13.16l0.14,0.77l0.08-0.79
				l1.38-13.15h2.3l-2.32,19.11h-2.48l-2.32-13.59l-0.13-0.8l-0.14,0.81l-2.34,13.58h-2.49L491.28-283.23z"/>
			<path class="st3" d="M518.23-264.12l-7.41-14.28l-0.04,14.28h-2.45v-19.11h2.47l7.41,14.25l0.04-14.25h2.45v19.11H518.23z"/>
			<path class="st3" d="M543.72-269.07l-1.54,4.95h-2.43l6.17-19.11h2.03l6.06,19.11h-2.41l-1.51-4.95H543.72z M549.46-271.18
				l-2.52-8.29l-2.56,8.29H549.46z"/>
			<path class="st3" d="M566.71-270.43c-0.27-0.4-0.61-0.74-1.03-1.02c-0.42-0.27-0.88-0.5-1.38-0.68s-0.99-0.35-1.45-0.5
				c-0.67-0.22-1.36-0.48-2.05-0.79s-1.33-0.68-1.9-1.12c-0.58-0.45-1.05-0.97-1.41-1.58s-0.54-1.32-0.54-2.15s0.18-1.56,0.54-2.2
				c0.36-0.65,0.84-1.19,1.42-1.64s1.25-0.79,1.99-1.02c0.74-0.23,1.49-0.35,2.24-0.35c0.83,0,1.63,0.14,2.4,0.41
				c0.77,0.28,1.45,0.66,2.05,1.16s1.07,1.1,1.43,1.81c0.36,0.71,0.55,1.5,0.56,2.38h-2.49c-0.07-0.55-0.21-1.05-0.41-1.5
				s-0.47-0.84-0.8-1.16c-0.33-0.32-0.73-0.57-1.19-0.75c-0.46-0.18-0.98-0.27-1.55-0.27c-0.46,0-0.92,0.07-1.36,0.2
				c-0.44,0.13-0.83,0.33-1.17,0.59c-0.35,0.26-0.63,0.59-0.83,0.97c-0.21,0.39-0.31,0.83-0.31,1.34c0.01,0.55,0.15,1.02,0.42,1.4
				c0.27,0.38,0.62,0.7,1.04,0.96c0.41,0.26,0.86,0.48,1.34,0.66c0.49,0.17,0.94,0.33,1.37,0.46c0.71,0.22,1.42,0.48,2.12,0.79
				c0.71,0.31,1.36,0.71,1.94,1.19c0.58,0.45,1.04,0.99,1.4,1.64c0.35,0.65,0.53,1.4,0.53,2.24c0,0.86-0.19,1.61-0.57,2.24
				c-0.38,0.64-0.87,1.17-1.48,1.59c-0.6,0.43-1.29,0.75-2.05,0.96s-1.52,0.32-2.28,0.32c-0.91,0-1.8-0.15-2.68-0.46
				s-1.64-0.75-2.29-1.33c-0.58-0.5-1.03-1.08-1.37-1.75s-0.52-1.42-0.54-2.24h2.48c0.08,0.6,0.24,1.12,0.49,1.58
				c0.25,0.46,0.56,0.85,0.95,1.16c0.38,0.32,0.83,0.57,1.33,0.73c0.5,0.16,1.05,0.24,1.65,0.24c0.47,0,0.94-0.06,1.4-0.18
				c0.46-0.12,0.87-0.3,1.23-0.56c0.36-0.24,0.65-0.56,0.88-0.94c0.23-0.38,0.34-0.83,0.34-1.36
				C567.11-269.54,566.97-270.03,566.71-270.43z"/>
			<path class="st3" d="M592.04-272.56v8.44h-2.45v-19.11h11.73v2.07h-9.28v6.53h7.95v2.06H592.04z"/>
			<path class="st3" d="M617.74-270.51c-0.11,0.7-0.28,1.37-0.5,2.01s-0.52,1.25-0.87,1.81c-0.35,0.56-0.78,1.05-1.27,1.47
				c-0.49,0.42-1.05,0.75-1.69,0.99c-0.63,0.24-1.34,0.36-2.13,0.36c-0.79,0-1.5-0.12-2.13-0.36c-0.63-0.24-1.2-0.57-1.69-0.99
				c-0.49-0.42-0.92-0.91-1.27-1.48c-0.36-0.56-0.65-1.17-0.88-1.82c-0.24-0.65-0.41-1.32-0.53-2.01c-0.11-0.69-0.17-1.38-0.18-2.06
				v-2.18c0.01-0.68,0.07-1.37,0.18-2.07c0.11-0.7,0.28-1.37,0.52-2.01c0.23-0.65,0.52-1.25,0.87-1.82
				c0.35-0.56,0.78-1.06,1.27-1.49c0.49-0.42,1.05-0.75,1.69-0.99c0.63-0.24,1.35-0.36,2.13-0.36s1.5,0.12,2.14,0.36
				c0.64,0.24,1.2,0.57,1.69,0.99c0.49,0.42,0.91,0.91,1.27,1.48c0.35,0.56,0.65,1.17,0.89,1.82c0.23,0.65,0.4,1.32,0.5,2.02
				c0.11,0.7,0.17,1.39,0.18,2.07v2.18C617.91-271.89,617.85-271.2,617.74-270.51z M615.42-276.2c-0.05-0.49-0.14-0.99-0.26-1.48
				c-0.13-0.48-0.3-0.94-0.51-1.38c-0.21-0.44-0.47-0.83-0.79-1.17c-0.32-0.33-0.69-0.6-1.12-0.79c-0.43-0.2-0.93-0.3-1.5-0.3
				c-0.56,0-1.05,0.1-1.48,0.3s-0.8,0.47-1.12,0.8c-0.31,0.34-0.58,0.73-0.79,1.17c-0.21,0.44-0.38,0.9-0.5,1.38
				c-0.13,0.49-0.23,0.98-0.28,1.48c-0.06,0.49-0.09,0.96-0.1,1.41v2.2c0.01,0.45,0.04,0.92,0.1,1.42c0.06,0.5,0.15,0.99,0.28,1.47
				c0.13,0.49,0.3,0.96,0.51,1.4s0.47,0.84,0.79,1.17c0.31,0.34,0.69,0.61,1.12,0.81s0.93,0.3,1.5,0.3c0.57,0,1.07-0.1,1.5-0.3
				c0.43-0.2,0.81-0.47,1.12-0.81c0.31-0.33,0.56-0.72,0.77-1.16c0.21-0.44,0.37-0.91,0.5-1.4c0.12-0.48,0.21-0.97,0.26-1.47
				c0.05-0.5,0.08-0.98,0.09-1.43v-2.2C615.51-275.23,615.48-275.71,615.42-276.2z"/>
			<path class="st3" d="M633.87-270.51c-0.11,0.7-0.28,1.37-0.5,2.01s-0.52,1.25-0.87,1.81c-0.35,0.56-0.78,1.05-1.27,1.47
				c-0.49,0.42-1.05,0.75-1.69,0.99c-0.63,0.24-1.34,0.36-2.13,0.36c-0.79,0-1.5-0.12-2.13-0.36c-0.63-0.24-1.2-0.57-1.69-0.99
				c-0.49-0.42-0.92-0.91-1.27-1.48c-0.36-0.56-0.65-1.17-0.88-1.82c-0.24-0.65-0.41-1.32-0.53-2.01c-0.11-0.69-0.17-1.38-0.18-2.06
				v-2.18c0.01-0.68,0.07-1.37,0.18-2.07c0.11-0.7,0.28-1.37,0.52-2.01c0.23-0.65,0.52-1.25,0.87-1.82
				c0.35-0.56,0.78-1.06,1.27-1.49c0.49-0.42,1.05-0.75,1.69-0.99c0.63-0.24,1.35-0.36,2.13-0.36s1.5,0.12,2.14,0.36
				c0.64,0.24,1.2,0.57,1.69,0.99c0.49,0.42,0.91,0.91,1.27,1.48c0.35,0.56,0.65,1.17,0.89,1.82c0.23,0.65,0.4,1.32,0.5,2.02
				c0.11,0.7,0.17,1.39,0.18,2.07v2.18C634.03-271.89,633.97-271.2,633.87-270.51z M631.55-276.2c-0.05-0.49-0.14-0.99-0.26-1.48
				c-0.13-0.48-0.3-0.94-0.51-1.38c-0.21-0.44-0.47-0.83-0.79-1.17c-0.32-0.33-0.69-0.6-1.12-0.79c-0.43-0.2-0.93-0.3-1.5-0.3
				c-0.56,0-1.05,0.1-1.48,0.3s-0.8,0.47-1.12,0.8c-0.31,0.34-0.58,0.73-0.79,1.17c-0.21,0.44-0.38,0.9-0.5,1.38
				c-0.13,0.49-0.23,0.98-0.28,1.48c-0.06,0.49-0.09,0.96-0.1,1.41v2.2c0.01,0.45,0.04,0.92,0.1,1.42c0.06,0.5,0.15,0.99,0.28,1.47
				c0.13,0.49,0.3,0.96,0.51,1.4s0.47,0.84,0.79,1.17c0.31,0.34,0.69,0.61,1.12,0.81s0.93,0.3,1.5,0.3c0.57,0,1.07-0.1,1.5-0.3
				c0.43-0.2,0.81-0.47,1.12-0.81c0.31-0.33,0.56-0.72,0.77-1.16c0.21-0.44,0.37-0.91,0.5-1.4c0.12-0.48,0.21-0.97,0.26-1.47
				c0.05-0.5,0.08-0.98,0.09-1.43v-2.2C631.63-275.23,631.6-275.71,631.55-276.2z"/>
			<path class="st3" d="M644.72-281.15v17.03h-2.36v-17.03h-5.91v-2.07h14.17v2.07H644.72z"/>
			<path class="st3" d="M672.65-264.12h-2.43v-19.11h6.19c0.86,0.02,1.67,0.15,2.43,0.41s1.44,0.62,2.01,1.1
				c0.58,0.48,1.03,1.08,1.37,1.78s0.5,1.52,0.5,2.44c0,0.92-0.17,1.73-0.5,2.43s-0.79,1.3-1.37,1.78c-0.58,0.48-1.25,0.85-2.01,1.1
				c-0.77,0.25-1.58,0.39-2.43,0.39h-3.77V-264.12z M676.41-273.78c0.56-0.01,1.08-0.1,1.55-0.27s0.88-0.41,1.23-0.73
				s0.62-0.7,0.82-1.15c0.2-0.45,0.29-0.96,0.29-1.54c0-0.58-0.1-1.1-0.29-1.56c-0.2-0.46-0.47-0.86-0.81-1.18
				c-0.35-0.32-0.76-0.57-1.24-0.75s-1-0.27-1.55-0.28h-3.77v7.45H676.41z"/>
			<path class="st3" d="M688.87-269.07l-1.54,4.95h-2.43l6.17-19.11h2.03l6.06,19.11h-2.41l-1.51-4.95H688.87z M694.6-271.18
				l-2.52-8.29l-2.56,8.29H694.6z"/>
			<path class="st3" d="M704.76-271.92v7.79h-2.41v-19.11h5.6c0.89,0.02,1.73,0.14,2.52,0.38c0.79,0.24,1.48,0.59,2.07,1.06
				c0.59,0.47,1.05,1.06,1.38,1.78c0.34,0.71,0.5,1.55,0.5,2.51c0,0.62-0.09,1.19-0.27,1.71s-0.43,0.98-0.74,1.4
				c-0.32,0.42-0.69,0.79-1.13,1.12s-0.92,0.6-1.44,0.83l4.05,8.16l-0.01,0.16h-2.56l-3.75-7.79H704.76z M708.01-273.91
				c0.54-0.01,1.05-0.09,1.54-0.26c0.48-0.16,0.91-0.4,1.27-0.7c0.36-0.31,0.64-0.68,0.85-1.12s0.31-0.95,0.31-1.53
				c0-0.61-0.1-1.15-0.3-1.61c-0.2-0.46-0.48-0.85-0.84-1.16c-0.36-0.31-0.79-0.54-1.28-0.7c-0.49-0.16-1.03-0.24-1.62-0.25h-3.19
				v7.32H708.01z"/>
			<path class="st3" d="M725.36-281.15v17.03H723v-17.03h-5.91v-2.07h14.17v2.07H725.36z"/>
			<path class="st3" d="M746.05-283.23v2.11h-4.58v14.89h4.58v2.1H734.5v-2.1h4.47v-14.89h-4.47v-2.11H746.05z"/>
			<path class="st3" d="M753.37-269.07l-1.54,4.95h-2.43l6.17-19.11h2.03l6.06,19.11h-2.41l-1.51-4.95H753.37z M759.11-271.18
				l-2.52-8.29l-2.56,8.29H759.11z"/>
			<path class="st3" d="M778.84-266.18v2.06h-11.77v-19.11h2.43v17.05H778.84z"/>
			<path class="st3" d="M794.43-283.23v2.11h-4.58v14.89h4.58v2.1h-11.55v-2.1h4.47v-14.89h-4.47v-2.11H794.43z"/>
			<path class="st3" d="M808.61-270.43c-0.27-0.4-0.61-0.74-1.03-1.02c-0.42-0.27-0.88-0.5-1.38-0.68s-0.99-0.35-1.45-0.5
				c-0.67-0.22-1.36-0.48-2.05-0.79s-1.33-0.68-1.9-1.12c-0.58-0.45-1.05-0.97-1.41-1.58s-0.54-1.32-0.54-2.15s0.18-1.56,0.54-2.2
				c0.36-0.65,0.84-1.19,1.42-1.64s1.25-0.79,1.99-1.02c0.74-0.23,1.49-0.35,2.24-0.35c0.83,0,1.63,0.14,2.4,0.41
				c0.77,0.28,1.45,0.66,2.05,1.16s1.07,1.1,1.43,1.81c0.36,0.71,0.55,1.5,0.56,2.38H809c-0.07-0.55-0.21-1.05-0.41-1.5
				s-0.47-0.84-0.8-1.16c-0.33-0.32-0.73-0.57-1.19-0.75c-0.46-0.18-0.98-0.27-1.55-0.27c-0.46,0-0.92,0.07-1.36,0.2
				c-0.44,0.13-0.83,0.33-1.17,0.59c-0.35,0.26-0.63,0.59-0.83,0.97c-0.21,0.39-0.31,0.83-0.31,1.34c0.01,0.55,0.15,1.02,0.42,1.4
				c0.27,0.38,0.62,0.7,1.04,0.96c0.41,0.26,0.86,0.48,1.34,0.66c0.49,0.17,0.94,0.33,1.37,0.46c0.71,0.22,1.42,0.48,2.12,0.79
				c0.71,0.31,1.36,0.71,1.94,1.19c0.58,0.45,1.04,0.99,1.4,1.64c0.35,0.65,0.53,1.4,0.53,2.24c0,0.86-0.19,1.61-0.57,2.24
				c-0.38,0.64-0.87,1.17-1.48,1.59c-0.6,0.43-1.29,0.75-2.05,0.96s-1.52,0.32-2.28,0.32c-0.91,0-1.8-0.15-2.68-0.46
				s-1.64-0.75-2.29-1.33c-0.58-0.5-1.03-1.08-1.37-1.75s-0.52-1.42-0.54-2.24h2.48c0.08,0.6,0.24,1.12,0.49,1.58
				c0.25,0.46,0.56,0.85,0.95,1.16c0.38,0.32,0.83,0.57,1.33,0.73c0.5,0.16,1.05,0.24,1.65,0.24c0.47,0,0.94-0.06,1.4-0.18
				c0.46-0.12,0.87-0.3,1.23-0.56c0.36-0.24,0.65-0.56,0.88-0.94c0.23-0.38,0.34-0.83,0.34-1.36
				C809.01-269.54,808.88-270.03,808.61-270.43z"/>
			<path class="st3" d="M820.91-273.67l3.36-9.55h3.02v19.11h-2.36v-7.62l0.2-7.98l-3.53,10.29h-1.39l-3.24-10.01l0.2,7.7v7.62
				h-2.36v-19.11h3L820.91-273.67z"/>
			<path class="st3" d="M117.8-238.26c-0.11,0.7-0.28,1.37-0.51,2.01s-0.52,1.25-0.87,1.81c-0.35,0.56-0.78,1.05-1.27,1.47
				c-0.49,0.42-1.05,0.75-1.69,0.99s-1.34,0.36-2.13,0.36c-0.79,0-1.5-0.12-2.13-0.36s-1.2-0.57-1.69-0.99s-0.91-0.91-1.27-1.48
				c-0.36-0.56-0.65-1.17-0.88-1.82c-0.24-0.65-0.41-1.32-0.52-2.01c-0.11-0.69-0.18-1.38-0.18-2.06v-2.18
				c0.01-0.68,0.07-1.37,0.18-2.07c0.11-0.7,0.28-1.37,0.52-2.01c0.23-0.65,0.52-1.25,0.87-1.82c0.35-0.56,0.78-1.06,1.27-1.49
				c0.49-0.42,1.05-0.75,1.69-0.99c0.63-0.24,1.34-0.36,2.13-0.36c0.79,0,1.5,0.12,2.14,0.36c0.64,0.24,1.2,0.57,1.69,0.99
				c0.49,0.42,0.91,0.91,1.27,1.48c0.35,0.56,0.65,1.17,0.89,1.82c0.23,0.65,0.4,1.32,0.51,2.02c0.11,0.7,0.17,1.39,0.18,2.07v2.18
				C117.97-239.64,117.91-238.95,117.8-238.26z M115.49-243.95c-0.05-0.49-0.14-0.99-0.26-1.48c-0.13-0.48-0.3-0.94-0.51-1.38
				c-0.21-0.44-0.47-0.83-0.79-1.17c-0.31-0.33-0.69-0.6-1.12-0.79s-0.93-0.3-1.5-0.3c-0.56,0-1.05,0.1-1.48,0.3s-0.8,0.47-1.12,0.8
				c-0.31,0.34-0.58,0.73-0.79,1.17c-0.21,0.44-0.38,0.9-0.5,1.38c-0.13,0.49-0.23,0.98-0.28,1.48s-0.09,0.96-0.1,1.41v2.2
				c0.01,0.45,0.04,0.92,0.1,1.42c0.06,0.5,0.15,0.99,0.28,1.47c0.13,0.49,0.3,0.96,0.51,1.4s0.47,0.84,0.79,1.17
				c0.31,0.34,0.69,0.61,1.12,0.81c0.43,0.2,0.93,0.3,1.5,0.3c0.57,0,1.07-0.1,1.5-0.3c0.43-0.2,0.81-0.47,1.12-0.81
				c0.31-0.33,0.56-0.72,0.77-1.16c0.21-0.44,0.37-0.91,0.51-1.4c0.12-0.48,0.21-0.97,0.26-1.47c0.05-0.5,0.08-0.98,0.09-1.43v-2.2
				C115.57-242.98,115.54-243.46,115.49-243.95z"/>
			<path class="st3" d="M124.19-239.67v7.79h-2.41v-19.11h5.6c0.89,0.02,1.73,0.14,2.52,0.38s1.48,0.59,2.07,1.06
				c0.59,0.47,1.05,1.06,1.38,1.78c0.34,0.71,0.51,1.55,0.51,2.51c0,0.62-0.09,1.19-0.27,1.71s-0.43,0.98-0.74,1.4
				s-0.69,0.79-1.13,1.12c-0.44,0.32-0.92,0.6-1.44,0.83l4.05,8.16l-0.01,0.16h-2.56l-3.75-7.79H124.19z M127.44-241.66
				c0.54-0.01,1.05-0.09,1.54-0.26c0.48-0.16,0.91-0.4,1.27-0.7c0.36-0.31,0.64-0.68,0.85-1.12s0.31-0.95,0.31-1.53
				c0-0.61-0.1-1.15-0.3-1.61c-0.2-0.46-0.48-0.85-0.84-1.16c-0.36-0.31-0.79-0.54-1.28-0.7c-0.49-0.16-1.03-0.24-1.62-0.25h-3.19
				v7.32H127.44z"/>
			<path class="st3" d="M156.59-231.87h-2.43v-19.11h6.19c0.86,0.02,1.67,0.15,2.43,0.41c0.77,0.25,1.44,0.62,2.01,1.1
				c0.58,0.48,1.03,1.08,1.37,1.78c0.34,0.71,0.51,1.52,0.51,2.44c0,0.92-0.17,1.73-0.51,2.43c-0.34,0.7-0.79,1.3-1.37,1.78
				c-0.58,0.48-1.25,0.85-2.01,1.1c-0.77,0.25-1.58,0.39-2.43,0.39h-3.77V-231.87z M160.35-241.53c0.56-0.01,1.08-0.1,1.55-0.27
				c0.47-0.17,0.88-0.41,1.23-0.73c0.35-0.31,0.62-0.7,0.82-1.15s0.3-0.96,0.3-1.54c0-0.58-0.1-1.1-0.3-1.56
				c-0.2-0.46-0.47-0.86-0.81-1.18c-0.35-0.32-0.76-0.57-1.24-0.75c-0.48-0.17-1-0.27-1.56-0.28h-3.77v7.45H160.35z"/>
			<path class="st3" d="M182.31-238.26c-0.11,0.7-0.28,1.37-0.51,2.01s-0.52,1.25-0.87,1.81c-0.35,0.56-0.78,1.05-1.27,1.47
				c-0.49,0.42-1.05,0.75-1.69,0.99s-1.34,0.36-2.13,0.36c-0.79,0-1.5-0.12-2.13-0.36s-1.2-0.57-1.69-0.99s-0.91-0.91-1.27-1.48
				c-0.36-0.56-0.65-1.17-0.88-1.82c-0.24-0.65-0.41-1.32-0.52-2.01c-0.11-0.69-0.18-1.38-0.18-2.06v-2.18
				c0.01-0.68,0.07-1.37,0.18-2.07c0.11-0.7,0.28-1.37,0.52-2.01c0.23-0.65,0.52-1.25,0.87-1.82c0.35-0.56,0.78-1.06,1.27-1.49
				c0.49-0.42,1.05-0.75,1.69-0.99c0.63-0.24,1.34-0.36,2.13-0.36c0.79,0,1.5,0.12,2.14,0.36c0.64,0.24,1.2,0.57,1.69,0.99
				c0.49,0.42,0.91,0.91,1.27,1.48c0.35,0.56,0.65,1.17,0.89,1.82c0.23,0.65,0.4,1.32,0.51,2.02c0.11,0.7,0.17,1.39,0.18,2.07v2.18
				C182.48-239.64,182.42-238.95,182.31-238.26z M180-243.95c-0.05-0.49-0.14-0.99-0.26-1.48c-0.13-0.48-0.3-0.94-0.51-1.38
				c-0.21-0.44-0.47-0.83-0.79-1.17c-0.31-0.33-0.69-0.6-1.12-0.79s-0.93-0.3-1.5-0.3c-0.56,0-1.05,0.1-1.48,0.3s-0.8,0.47-1.12,0.8
				c-0.31,0.34-0.58,0.73-0.79,1.17c-0.21,0.44-0.38,0.9-0.5,1.38c-0.13,0.49-0.23,0.98-0.28,1.48s-0.09,0.96-0.1,1.41v2.2
				c0.01,0.45,0.04,0.92,0.1,1.42c0.06,0.5,0.15,0.99,0.28,1.47c0.13,0.49,0.3,0.96,0.51,1.4s0.47,0.84,0.79,1.17
				c0.31,0.34,0.69,0.61,1.12,0.81c0.43,0.2,0.93,0.3,1.5,0.3c0.57,0,1.07-0.1,1.5-0.3c0.43-0.2,0.81-0.47,1.12-0.81
				c0.31-0.33,0.56-0.72,0.77-1.16c0.21-0.44,0.37-0.91,0.51-1.4c0.12-0.48,0.21-0.97,0.26-1.47c0.05-0.5,0.08-0.98,0.09-1.43v-2.2
				C180.08-242.98,180.05-243.46,180-243.95z"/>
			<path class="st3" d="M185.94-250.98h4.42c0.74,0.01,1.45,0.08,2.11,0.23s1.27,0.35,1.83,0.61c0.78,0.36,1.47,0.83,2.07,1.41
				c0.6,0.58,1.08,1.25,1.44,2.01c0.32,0.65,0.57,1.36,0.74,2.13c0.17,0.77,0.26,1.59,0.27,2.47v1.4c0,0.84-0.08,1.64-0.24,2.39
				c-0.16,0.75-0.4,1.44-0.7,2.07c-0.31,0.66-0.71,1.25-1.19,1.78s-1.02,0.99-1.61,1.36c-0.63,0.39-1.34,0.7-2.13,0.91
				c-0.79,0.21-1.65,0.32-2.57,0.33h-4.42V-250.98z M188.41-233.85h1.96c0.7-0.01,1.34-0.1,1.91-0.26c0.57-0.17,1.08-0.4,1.53-0.71
				c0.47-0.31,0.88-0.7,1.23-1.16c0.35-0.46,0.62-0.97,0.82-1.54c0.17-0.46,0.31-0.96,0.39-1.5c0.09-0.54,0.14-1.1,0.14-1.69v-1.43
				c-0.01-0.59-0.06-1.17-0.15-1.71s-0.23-1.06-0.41-1.53c-0.24-0.61-0.55-1.17-0.95-1.66c-0.4-0.49-0.89-0.89-1.46-1.2
				c-0.41-0.23-0.87-0.4-1.38-0.53c-0.51-0.13-1.06-0.19-1.67-0.2h-1.96V-233.85z"/>
			<path class="st3" d="M214.57-238.26c-0.11,0.7-0.28,1.37-0.51,2.01s-0.52,1.25-0.87,1.81c-0.35,0.56-0.78,1.05-1.27,1.47
				c-0.49,0.42-1.05,0.75-1.69,0.99s-1.34,0.36-2.13,0.36c-0.79,0-1.5-0.12-2.13-0.36s-1.2-0.57-1.69-0.99s-0.91-0.91-1.27-1.48
				c-0.36-0.56-0.65-1.17-0.88-1.82c-0.24-0.65-0.41-1.32-0.52-2.01c-0.11-0.69-0.18-1.38-0.18-2.06v-2.18
				c0.01-0.68,0.07-1.37,0.18-2.07c0.11-0.7,0.28-1.37,0.52-2.01c0.23-0.65,0.52-1.25,0.87-1.82c0.35-0.56,0.78-1.06,1.27-1.49
				c0.49-0.42,1.05-0.75,1.69-0.99c0.63-0.24,1.34-0.36,2.13-0.36c0.79,0,1.5,0.12,2.14,0.36c0.64,0.24,1.2,0.57,1.69,0.99
				c0.49,0.42,0.91,0.91,1.27,1.48c0.35,0.56,0.65,1.17,0.89,1.82c0.23,0.65,0.4,1.32,0.51,2.02c0.11,0.7,0.17,1.39,0.18,2.07v2.18
				C214.73-239.64,214.68-238.95,214.57-238.26z M212.25-243.95c-0.05-0.49-0.14-0.99-0.26-1.48c-0.13-0.48-0.3-0.94-0.51-1.38
				c-0.21-0.44-0.47-0.83-0.79-1.17c-0.31-0.33-0.69-0.6-1.12-0.79s-0.93-0.3-1.5-0.3c-0.56,0-1.05,0.1-1.48,0.3s-0.8,0.47-1.12,0.8
				c-0.31,0.34-0.58,0.73-0.79,1.17c-0.21,0.44-0.38,0.9-0.5,1.38c-0.13,0.49-0.23,0.98-0.28,1.48s-0.09,0.96-0.1,1.41v2.2
				c0.01,0.45,0.04,0.92,0.1,1.42c0.06,0.5,0.15,0.99,0.28,1.47c0.13,0.49,0.3,0.96,0.51,1.4s0.47,0.84,0.79,1.17
				c0.31,0.34,0.69,0.61,1.12,0.81c0.43,0.2,0.93,0.3,1.5,0.3c0.57,0,1.07-0.1,1.5-0.3c0.43-0.2,0.81-0.47,1.12-0.81
				c0.31-0.33,0.56-0.72,0.77-1.16c0.21-0.44,0.37-0.91,0.51-1.4c0.12-0.48,0.21-0.97,0.26-1.47c0.05-0.5,0.08-0.98,0.09-1.43v-2.2
				C212.33-242.98,212.3-243.46,212.25-243.95z"/>
			<path class="st3" d="M221.09-231.87h-2.43v-19.11h6.19c0.86,0.02,1.67,0.15,2.43,0.41c0.77,0.25,1.44,0.62,2.01,1.1
				c0.58,0.48,1.03,1.08,1.37,1.78c0.34,0.71,0.51,1.52,0.51,2.44c0,0.92-0.17,1.73-0.51,2.43c-0.34,0.7-0.79,1.3-1.37,1.78
				c-0.58,0.48-1.25,0.85-2.01,1.1c-0.77,0.25-1.58,0.39-2.43,0.39h-3.77V-231.87z M224.86-241.53c0.56-0.01,1.08-0.1,1.55-0.27
				c0.47-0.17,0.88-0.41,1.23-0.73c0.35-0.31,0.62-0.7,0.82-1.15s0.3-0.96,0.3-1.54c0-0.58-0.1-1.1-0.3-1.56
				c-0.2-0.46-0.47-0.86-0.81-1.18c-0.35-0.32-0.76-0.57-1.24-0.75c-0.48-0.17-1-0.27-1.56-0.28h-3.77v7.45H224.86z"/>
			<path class="st3" d="M244.25-231.87v-8.83h-7.83v8.83h-2.28v-19.11h2.28v8.21h7.83v-8.21h2.3v19.11H244.25z"/>
			<path class="st3" d="M262.24-250.98v2.11h-4.58v14.89h4.58v2.1H250.7v-2.1h4.47v-14.89h-4.47v-2.11H262.24z"/>
			<path class="st3" d="M278.91-233.93v2.06h-11.77v-19.11h2.43v17.05H278.91z"/>
			<path class="st3" d="M294.5-250.98v2.11h-4.58v14.89h4.58v2.1h-11.55v-2.1h4.47v-14.89h-4.47v-2.11H294.5z"/>
			<path class="st3" d="M301.82-236.82l-1.54,4.95h-2.43l6.17-19.11h2.03l6.06,19.11h-2.41l-1.51-4.95H301.82z M307.56-238.93
				l-2.52-8.29l-2.56,8.29H307.56z"/>
			<path class="st3" d="M320.74-229.76c-0.41,0.91-0.97,1.68-1.67,2.3l-1.51-0.83c0.42-0.61,0.72-1.26,0.89-1.96
				c0.17-0.69,0.26-1.41,0.26-2.15v-2.35h2.64v2.31C321.36-231.56,321.15-230.67,320.74-229.76z"/>
			<path class="st3" d="M359.01-250.98v2.11h-4.58v14.89h4.58v2.1h-11.55v-2.1h4.47v-14.89h-4.47v-2.11H359.01z"/>
			<path class="st3" d="M373.18-238.18c-0.27-0.4-0.61-0.74-1.03-1.02c-0.42-0.27-0.88-0.5-1.38-0.68s-0.99-0.35-1.45-0.5
				c-0.67-0.22-1.36-0.48-2.05-0.79s-1.33-0.68-1.9-1.12c-0.58-0.45-1.05-0.97-1.41-1.58c-0.36-0.61-0.54-1.32-0.54-2.15
				s0.18-1.56,0.54-2.2c0.36-0.65,0.84-1.19,1.42-1.64c0.59-0.45,1.25-0.79,1.99-1.02c0.74-0.23,1.49-0.35,2.24-0.35
				c0.83,0,1.63,0.14,2.4,0.41c0.77,0.28,1.45,0.66,2.05,1.16s1.07,1.1,1.43,1.81c0.36,0.71,0.55,1.5,0.56,2.38h-2.49
				c-0.07-0.55-0.21-1.05-0.41-1.5s-0.47-0.84-0.8-1.16c-0.33-0.32-0.73-0.57-1.19-0.75c-0.46-0.18-0.98-0.27-1.56-0.27
				c-0.46,0-0.92,0.07-1.36,0.2c-0.44,0.13-0.83,0.33-1.17,0.59c-0.35,0.26-0.63,0.59-0.83,0.97c-0.21,0.39-0.31,0.83-0.31,1.34
				c0.01,0.55,0.15,1.02,0.42,1.4c0.27,0.38,0.62,0.7,1.04,0.96c0.41,0.26,0.86,0.48,1.35,0.66c0.49,0.17,0.94,0.33,1.37,0.46
				c0.71,0.22,1.42,0.48,2.13,0.79s1.36,0.71,1.94,1.19c0.58,0.45,1.04,0.99,1.4,1.64c0.35,0.65,0.53,1.4,0.53,2.24
				c0,0.86-0.19,1.61-0.57,2.24c-0.38,0.64-0.87,1.17-1.48,1.59c-0.6,0.43-1.29,0.75-2.05,0.96c-0.76,0.21-1.52,0.32-2.28,0.32
				c-0.91,0-1.8-0.15-2.68-0.46c-0.88-0.31-1.64-0.75-2.29-1.33c-0.58-0.5-1.03-1.08-1.37-1.75s-0.52-1.42-0.54-2.24h2.48
				c0.08,0.6,0.24,1.12,0.49,1.58c0.24,0.46,0.56,0.85,0.94,1.16c0.38,0.32,0.83,0.57,1.33,0.73c0.5,0.16,1.05,0.24,1.65,0.24
				c0.47,0,0.94-0.06,1.4-0.18s0.87-0.3,1.23-0.56c0.36-0.24,0.65-0.56,0.88-0.94s0.34-0.83,0.34-1.36
				C373.58-237.29,373.45-237.78,373.18-238.18z"/>
			<path class="st3" d="M398.58-236.82l-1.54,4.95h-2.43l6.17-19.11h2.03l6.06,19.11h-2.41l-1.51-4.95H398.58z M404.32-238.93
				l-2.52-8.29l-2.56,8.29H404.32z"/>
			<path class="st3" d="M430.74-231.87h-2.43v-19.11h6.19c0.86,0.02,1.67,0.15,2.43,0.41c0.77,0.25,1.44,0.62,2.01,1.1
				c0.58,0.48,1.03,1.08,1.37,1.78c0.34,0.71,0.51,1.52,0.51,2.44c0,0.92-0.17,1.73-0.51,2.43c-0.34,0.7-0.79,1.3-1.37,1.78
				c-0.58,0.48-1.25,0.85-2.01,1.1c-0.77,0.25-1.58,0.39-2.43,0.39h-3.77V-231.87z M434.51-241.53c0.56-0.01,1.08-0.1,1.55-0.27
				c0.47-0.17,0.88-0.41,1.23-0.73c0.35-0.31,0.62-0.7,0.82-1.15s0.3-0.96,0.3-1.54c0-0.58-0.1-1.1-0.3-1.56
				c-0.2-0.46-0.47-0.86-0.81-1.18c-0.35-0.32-0.76-0.57-1.24-0.75c-0.48-0.17-1-0.27-1.56-0.28h-3.77v7.45H434.51z"/>
			<path class="st3" d="M446.73-239.67v7.79h-2.41v-19.11h5.6c0.89,0.02,1.73,0.14,2.52,0.38c0.79,0.24,1.48,0.59,2.07,1.06
				c0.59,0.47,1.05,1.06,1.38,1.78c0.34,0.71,0.5,1.55,0.5,2.51c0,0.62-0.09,1.19-0.27,1.71s-0.43,0.98-0.74,1.4
				c-0.32,0.42-0.69,0.79-1.13,1.12s-0.92,0.6-1.44,0.83l4.05,8.16l-0.01,0.16h-2.56l-3.75-7.79H446.73z M449.98-241.66
				c0.54-0.01,1.05-0.09,1.54-0.26c0.48-0.16,0.91-0.4,1.27-0.7c0.36-0.31,0.64-0.68,0.85-1.12s0.31-0.95,0.31-1.53
				c0-0.61-0.1-1.15-0.3-1.61c-0.2-0.46-0.48-0.85-0.84-1.16c-0.36-0.31-0.79-0.54-1.28-0.7c-0.49-0.16-1.03-0.24-1.62-0.25h-3.19
				v7.32H449.98z"/>
			<path class="st3" d="M472.6-238.26c-0.11,0.7-0.28,1.37-0.5,2.01s-0.52,1.25-0.87,1.81c-0.35,0.56-0.78,1.05-1.27,1.47
				c-0.49,0.42-1.05,0.75-1.69,0.99c-0.63,0.24-1.34,0.36-2.13,0.36c-0.79,0-1.5-0.12-2.13-0.36c-0.63-0.24-1.2-0.57-1.69-0.99
				c-0.49-0.42-0.92-0.91-1.27-1.48c-0.36-0.56-0.65-1.17-0.88-1.82c-0.24-0.65-0.41-1.32-0.53-2.01c-0.11-0.69-0.17-1.38-0.18-2.06
				v-2.18c0.01-0.68,0.07-1.37,0.18-2.07c0.11-0.7,0.28-1.37,0.52-2.01c0.23-0.65,0.52-1.25,0.87-1.82
				c0.35-0.56,0.78-1.06,1.27-1.49c0.49-0.42,1.05-0.75,1.69-0.99c0.63-0.24,1.35-0.36,2.13-0.36s1.5,0.12,2.14,0.36
				c0.64,0.24,1.2,0.57,1.69,0.99c0.49,0.42,0.91,0.91,1.27,1.48c0.35,0.56,0.65,1.17,0.89,1.82c0.23,0.65,0.4,1.32,0.5,2.02
				c0.11,0.7,0.17,1.39,0.18,2.07v2.18C472.77-239.64,472.71-238.95,472.6-238.26z M470.28-243.95c-0.05-0.49-0.14-0.99-0.26-1.48
				c-0.13-0.48-0.3-0.94-0.51-1.38c-0.21-0.44-0.47-0.83-0.79-1.17c-0.32-0.33-0.69-0.6-1.12-0.79c-0.43-0.2-0.93-0.3-1.5-0.3
				c-0.56,0-1.05,0.1-1.48,0.3s-0.8,0.47-1.12,0.8c-0.31,0.34-0.58,0.73-0.79,1.17c-0.21,0.44-0.38,0.9-0.5,1.38
				c-0.13,0.49-0.23,0.98-0.28,1.48c-0.06,0.49-0.09,0.96-0.1,1.41v2.2c0.01,0.45,0.04,0.92,0.1,1.42c0.06,0.5,0.15,0.99,0.28,1.47
				c0.13,0.49,0.3,0.96,0.51,1.4s0.47,0.84,0.79,1.17c0.31,0.34,0.69,0.61,1.12,0.81c0.43,0.2,0.93,0.3,1.5,0.3
				c0.57,0,1.07-0.1,1.5-0.3c0.43-0.2,0.81-0.47,1.12-0.81c0.31-0.33,0.56-0.72,0.77-1.16c0.21-0.44,0.37-0.91,0.5-1.4
				c0.12-0.48,0.21-0.97,0.26-1.47c0.05-0.5,0.08-0.98,0.09-1.43v-2.2C470.36-242.98,470.33-243.46,470.28-243.95z"/>
			<path class="st3" d="M485.97-231.87l-7.41-14.28l-0.04,14.28h-2.45v-19.11h2.47l7.41,14.25l0.04-14.25h2.45v19.11H485.97z"/>
			<path class="st3" d="M504.85-238.26c-0.11,0.7-0.28,1.37-0.5,2.01s-0.52,1.25-0.87,1.81c-0.35,0.56-0.78,1.05-1.27,1.47
				c-0.49,0.42-1.05,0.75-1.69,0.99c-0.63,0.24-1.34,0.36-2.13,0.36c-0.79,0-1.5-0.12-2.13-0.36c-0.63-0.24-1.2-0.57-1.69-0.99
				c-0.49-0.42-0.92-0.91-1.27-1.48c-0.36-0.56-0.65-1.17-0.88-1.82c-0.24-0.65-0.41-1.32-0.53-2.01c-0.11-0.69-0.17-1.38-0.18-2.06
				v-2.18c0.01-0.68,0.07-1.37,0.18-2.07c0.11-0.7,0.28-1.37,0.52-2.01c0.23-0.65,0.52-1.25,0.87-1.82
				c0.35-0.56,0.78-1.06,1.27-1.49c0.49-0.42,1.05-0.75,1.69-0.99c0.63-0.24,1.35-0.36,2.13-0.36s1.5,0.12,2.14,0.36
				c0.64,0.24,1.2,0.57,1.69,0.99c0.49,0.42,0.91,0.91,1.27,1.48c0.35,0.56,0.65,1.17,0.89,1.82c0.23,0.65,0.4,1.32,0.5,2.02
				c0.11,0.7,0.17,1.39,0.18,2.07v2.18C505.02-239.64,504.96-238.95,504.85-238.26z M502.54-243.95c-0.05-0.49-0.14-0.99-0.26-1.48
				c-0.13-0.48-0.3-0.94-0.51-1.38c-0.21-0.44-0.47-0.83-0.79-1.17c-0.32-0.33-0.69-0.6-1.12-0.79c-0.43-0.2-0.93-0.3-1.5-0.3
				c-0.56,0-1.05,0.1-1.48,0.3s-0.8,0.47-1.12,0.8c-0.31,0.34-0.58,0.73-0.79,1.17c-0.21,0.44-0.38,0.9-0.5,1.38
				c-0.13,0.49-0.23,0.98-0.28,1.48c-0.06,0.49-0.09,0.96-0.1,1.41v2.2c0.01,0.45,0.04,0.92,0.1,1.42c0.06,0.5,0.15,0.99,0.28,1.47
				c0.13,0.49,0.3,0.96,0.51,1.4s0.47,0.84,0.79,1.17c0.31,0.34,0.69,0.61,1.12,0.81c0.43,0.2,0.93,0.3,1.5,0.3
				c0.57,0,1.07-0.1,1.5-0.3c0.43-0.2,0.81-0.47,1.12-0.81c0.31-0.33,0.56-0.72,0.77-1.16c0.21-0.44,0.37-0.91,0.5-1.4
				c0.12-0.48,0.21-0.97,0.26-1.47c0.05-0.5,0.08-0.98,0.09-1.43v-2.2C502.62-242.98,502.59-243.46,502.54-243.95z"/>
			<path class="st3" d="M520.75-238.04c0,0.89-0.16,1.73-0.47,2.51c-0.32,0.78-0.75,1.46-1.3,2.03c-0.55,0.59-1.21,1.05-1.97,1.38
				c-0.76,0.34-1.6,0.51-2.51,0.51c-0.93,0-1.77-0.17-2.53-0.5s-1.41-0.79-1.96-1.38c-0.54-0.58-0.97-1.26-1.27-2.04
				c-0.31-0.78-0.46-1.62-0.47-2.51l0.03-12.94h2.31l0.05,12.94c0.01,0.57,0.1,1.12,0.27,1.64c0.17,0.52,0.42,0.99,0.74,1.39
				c0.31,0.4,0.71,0.73,1.19,0.97s1.03,0.37,1.65,0.37s1.17-0.12,1.64-0.36c0.47-0.24,0.87-0.57,1.19-0.98
				c0.31-0.4,0.55-0.87,0.72-1.39c0.17-0.52,0.26-1.07,0.28-1.64l0.04-12.94h2.35L520.75-238.04z"/>
			<path class="st3" d="M534.35-231.87l-7.41-14.28l-0.04,14.28h-2.45v-19.11h2.47l7.41,14.25l0.04-14.25h2.45v19.11H534.35z"/>
			<path class="st3" d="M552.67-235.19c-0.34,0.74-0.78,1.37-1.33,1.9c-0.55,0.53-1.2,0.95-1.95,1.24s-1.58,0.44-2.5,0.44
				c-0.79,0-1.5-0.11-2.15-0.33c-0.64-0.22-1.21-0.53-1.71-0.92c-0.51-0.39-0.94-0.86-1.31-1.39c-0.36-0.53-0.66-1.12-0.9-1.75
				c-0.25-0.63-0.43-1.29-0.54-1.98s-0.18-1.39-0.19-2.1v-2.66c0.01-0.71,0.07-1.41,0.19-2.1s0.3-1.35,0.54-1.98
				c0.24-0.63,0.54-1.21,0.9-1.75c0.36-0.54,0.8-1,1.31-1.4c0.5-0.39,1.07-0.7,1.71-0.92c0.64-0.22,1.36-0.33,2.15-0.33
				c0.95,0,1.81,0.15,2.56,0.44c0.75,0.29,1.4,0.71,1.94,1.24c0.54,0.54,0.98,1.19,1.31,1.94c0.33,0.75,0.54,1.58,0.65,2.49h-2.43
				c-0.08-0.58-0.21-1.12-0.41-1.61s-0.45-0.94-0.77-1.31c-0.32-0.38-0.72-0.67-1.19-0.89s-1.02-0.32-1.66-0.32
				c-0.58,0-1.09,0.09-1.53,0.28c-0.44,0.19-0.82,0.44-1.14,0.77c-0.32,0.32-0.59,0.7-0.81,1.13c-0.21,0.43-0.39,0.88-0.52,1.36
				c-0.13,0.48-0.22,0.97-0.28,1.48c-0.06,0.5-0.08,0.99-0.08,1.46v2.69c0,0.47,0.03,0.96,0.08,1.46c0.06,0.5,0.15,1,0.28,1.48
				c0.13,0.49,0.3,0.95,0.51,1.38c0.21,0.43,0.48,0.81,0.8,1.13c0.32,0.33,0.7,0.59,1.14,0.78c0.44,0.19,0.95,0.28,1.54,0.28
				c0.64,0,1.19-0.1,1.66-0.3s0.86-0.49,1.19-0.85c0.32-0.36,0.58-0.79,0.77-1.28c0.19-0.49,0.33-1.03,0.41-1.61h2.43
				C553.24-236.74,553.01-235.93,552.67-235.19z"/>
			<path class="st3" d="M559.64-240.7v6.77h9.3v2.06h-11.73v-19.11h11.61v2.07h-9.19v6.14h7.98v2.06H559.64z"/>
			<path class="st3" d="M572.99-250.98h4.42c0.74,0.01,1.45,0.08,2.11,0.23c0.66,0.14,1.27,0.35,1.83,0.61
				c0.78,0.36,1.47,0.83,2.07,1.41c0.6,0.58,1.08,1.25,1.44,2.01c0.32,0.65,0.57,1.36,0.74,2.13c0.17,0.77,0.26,1.59,0.27,2.47v1.4
				c0,0.84-0.08,1.64-0.24,2.39c-0.16,0.75-0.4,1.44-0.7,2.07c-0.32,0.66-0.71,1.25-1.19,1.78s-1.02,0.99-1.61,1.36
				c-0.63,0.39-1.34,0.7-2.13,0.91c-0.79,0.21-1.65,0.32-2.57,0.33h-4.42V-250.98z M575.45-233.85h1.96c0.7-0.01,1.34-0.1,1.91-0.26
				c0.57-0.17,1.08-0.4,1.53-0.71c0.47-0.31,0.88-0.7,1.23-1.16s0.62-0.97,0.82-1.54c0.17-0.46,0.31-0.96,0.39-1.5
				c0.09-0.54,0.13-1.1,0.14-1.69v-1.43c-0.01-0.59-0.06-1.17-0.15-1.71s-0.23-1.06-0.41-1.53c-0.24-0.61-0.55-1.17-0.95-1.66
				c-0.4-0.49-0.89-0.89-1.46-1.2c-0.41-0.23-0.87-0.4-1.38-0.53c-0.51-0.13-1.06-0.19-1.67-0.2h-1.96V-233.85z"/>
			<path class="st3" d="M615.09-238.18c-0.27-0.4-0.61-0.74-1.03-1.02c-0.42-0.27-0.88-0.5-1.38-0.68s-0.99-0.35-1.45-0.5
				c-0.67-0.22-1.36-0.48-2.05-0.79s-1.33-0.68-1.9-1.12c-0.58-0.45-1.05-0.97-1.41-1.58s-0.54-1.32-0.54-2.15s0.18-1.56,0.54-2.2
				c0.36-0.65,0.84-1.19,1.42-1.64s1.25-0.79,1.99-1.02c0.74-0.23,1.49-0.35,2.24-0.35c0.83,0,1.63,0.14,2.4,0.41
				c0.77,0.28,1.45,0.66,2.05,1.16s1.07,1.1,1.43,1.81c0.36,0.71,0.55,1.5,0.56,2.38h-2.49c-0.07-0.55-0.21-1.05-0.41-1.5
				s-0.47-0.84-0.8-1.16c-0.33-0.32-0.73-0.57-1.19-0.75c-0.46-0.18-0.98-0.27-1.55-0.27c-0.46,0-0.92,0.07-1.36,0.2
				c-0.44,0.13-0.83,0.33-1.17,0.59c-0.35,0.26-0.63,0.59-0.83,0.97c-0.21,0.39-0.31,0.83-0.31,1.34c0.01,0.55,0.15,1.02,0.42,1.4
				c0.27,0.38,0.62,0.7,1.04,0.96c0.41,0.26,0.86,0.48,1.34,0.66c0.49,0.17,0.94,0.33,1.37,0.46c0.71,0.22,1.42,0.48,2.12,0.79
				c0.71,0.31,1.36,0.71,1.94,1.19c0.58,0.45,1.04,0.99,1.4,1.64c0.35,0.65,0.53,1.4,0.53,2.24c0,0.86-0.19,1.61-0.57,2.24
				c-0.38,0.64-0.87,1.17-1.48,1.59c-0.6,0.43-1.29,0.75-2.05,0.96c-0.76,0.21-1.52,0.32-2.28,0.32c-0.91,0-1.8-0.15-2.68-0.46
				c-0.88-0.31-1.64-0.75-2.29-1.33c-0.58-0.5-1.03-1.08-1.37-1.75s-0.52-1.42-0.54-2.24h2.48c0.08,0.6,0.24,1.12,0.49,1.58
				c0.25,0.46,0.56,0.85,0.95,1.16c0.38,0.32,0.83,0.57,1.33,0.73c0.5,0.16,1.05,0.24,1.65,0.24c0.47,0,0.94-0.06,1.4-0.18
				s0.87-0.3,1.23-0.56c0.36-0.24,0.65-0.56,0.88-0.94c0.23-0.38,0.34-0.83,0.34-1.36C615.49-237.29,615.35-237.78,615.09-238.18z"
				/>
			<path class="st3" d="M624.15-240.7v6.77h9.3v2.06h-11.73v-19.11h11.61v2.07h-9.19v6.14h7.98v2.06H624.15z"/>
			<path class="st3" d="M647.78-250.98h2.86l-5.55,9.47l5.68,9.63h-2.83l-4.22-7.64l-4.24,7.64h-2.87l5.7-9.63l-5.55-9.47h2.85
				l4.07,7.49L647.78-250.98z"/>
			<path class="st3" d="M665.89-238.04c0,0.89-0.16,1.73-0.47,2.51c-0.32,0.78-0.75,1.46-1.3,2.03c-0.55,0.59-1.21,1.05-1.97,1.38
				c-0.76,0.34-1.6,0.51-2.51,0.51c-0.93,0-1.77-0.17-2.53-0.5s-1.41-0.79-1.96-1.38c-0.54-0.58-0.97-1.26-1.27-2.04
				c-0.31-0.78-0.46-1.62-0.47-2.51l0.03-12.94h2.31l0.05,12.94c0.01,0.57,0.1,1.12,0.27,1.64c0.17,0.52,0.42,0.99,0.74,1.39
				c0.31,0.4,0.71,0.73,1.19,0.97s1.03,0.37,1.65,0.37s1.17-0.12,1.64-0.36c0.47-0.24,0.87-0.57,1.19-0.98
				c0.31-0.4,0.55-0.87,0.72-1.39c0.17-0.52,0.26-1.07,0.28-1.64l0.04-12.94h2.35L665.89-238.04z"/>
			<path class="st3" d="M672.74-236.82l-1.54,4.95h-2.43l6.17-19.11h2.03l6.06,19.11h-2.41l-1.51-4.95H672.74z M678.47-238.93
				l-2.52-8.29l-2.56,8.29H678.47z"/>
			<path class="st3" d="M698.21-233.93v2.06h-11.77v-19.11h2.43v17.05H698.21z"/>
			<path class="st3" d="M729.93-250.98v2.11h-4.58v14.89h4.58v2.1h-11.55v-2.1h4.47v-14.89h-4.47v-2.11H729.93z"/>
			<path class="st3" d="M744-231.87l-7.41-14.28l-0.04,14.28h-2.45v-19.11h2.47l7.41,14.25l0.04-14.25h2.45v19.11H744z"/>
			<path class="st3" d="M757.61-248.91v17.03h-2.36v-17.03h-5.91v-2.07h14.17v2.07H757.61z"/>
			<path class="st3" d="M769.29-240.7v6.77h9.3v2.06h-11.73v-19.11h11.61v2.07h-9.19v6.14h7.98v2.06H769.29z"/>
			<path class="st3" d="M785.39-239.67v7.79h-2.41v-19.11h5.6c0.89,0.02,1.73,0.14,2.52,0.38c0.79,0.24,1.48,0.59,2.07,1.06
				c0.59,0.47,1.05,1.06,1.38,1.78c0.34,0.71,0.5,1.55,0.5,2.51c0,0.62-0.09,1.19-0.27,1.71s-0.43,0.98-0.74,1.4
				c-0.32,0.42-0.69,0.79-1.13,1.12s-0.92,0.6-1.44,0.83l4.05,8.16l-0.01,0.16h-2.56l-3.75-7.79H785.39z M788.65-241.66
				c0.54-0.01,1.05-0.09,1.54-0.26c0.48-0.16,0.91-0.4,1.27-0.7c0.36-0.31,0.64-0.68,0.85-1.12s0.31-0.95,0.31-1.53
				c0-0.61-0.1-1.15-0.3-1.61c-0.2-0.46-0.48-0.85-0.84-1.16c-0.36-0.31-0.79-0.54-1.28-0.7c-0.49-0.16-1.03-0.24-1.62-0.25h-3.19
				v7.32H788.65z"/>
			<path class="st3" d="M801.54-240.7v6.77h9.3v2.06h-11.73v-19.11h11.61v2.07h-9.19v6.14h7.98v2.06H801.54z"/>
			<path class="st3" d="M824.74-238.18c-0.27-0.4-0.61-0.74-1.03-1.02c-0.42-0.27-0.88-0.5-1.38-0.68s-0.99-0.35-1.45-0.5
				c-0.67-0.22-1.36-0.48-2.05-0.79s-1.33-0.68-1.9-1.12c-0.58-0.45-1.05-0.97-1.41-1.58s-0.54-1.32-0.54-2.15s0.18-1.56,0.54-2.2
				c0.36-0.65,0.84-1.19,1.42-1.64s1.25-0.79,1.99-1.02c0.74-0.23,1.49-0.35,2.24-0.35c0.83,0,1.63,0.14,2.4,0.41
				c0.77,0.28,1.45,0.66,2.05,1.16s1.07,1.1,1.43,1.81c0.36,0.71,0.55,1.5,0.56,2.38h-2.49c-0.07-0.55-0.21-1.05-0.41-1.5
				s-0.47-0.84-0.8-1.16c-0.33-0.32-0.73-0.57-1.19-0.75c-0.46-0.18-0.98-0.27-1.55-0.27c-0.46,0-0.92,0.07-1.36,0.2
				c-0.44,0.13-0.83,0.33-1.17,0.59c-0.35,0.26-0.63,0.59-0.83,0.97c-0.21,0.39-0.31,0.83-0.31,1.34c0.01,0.55,0.15,1.02,0.42,1.4
				c0.27,0.38,0.62,0.7,1.04,0.96c0.41,0.26,0.86,0.48,1.34,0.66c0.49,0.17,0.94,0.33,1.37,0.46c0.71,0.22,1.42,0.48,2.12,0.79
				c0.71,0.31,1.36,0.71,1.94,1.19c0.58,0.45,1.04,0.99,1.4,1.64c0.35,0.65,0.53,1.4,0.53,2.24c0,0.86-0.19,1.61-0.57,2.24
				c-0.38,0.64-0.87,1.17-1.48,1.59c-0.6,0.43-1.29,0.75-2.05,0.96c-0.76,0.21-1.52,0.32-2.28,0.32c-0.91,0-1.8-0.15-2.68-0.46
				c-0.88-0.31-1.64-0.75-2.29-1.33c-0.58-0.5-1.03-1.08-1.37-1.75s-0.52-1.42-0.54-2.24h2.48c0.08,0.6,0.24,1.12,0.49,1.58
				c0.25,0.46,0.56,0.85,0.95,1.16c0.38,0.32,0.83,0.57,1.33,0.73c0.5,0.16,1.05,0.24,1.65,0.24c0.47,0,0.94-0.06,1.4-0.18
				s0.87-0.3,1.23-0.56c0.36-0.24,0.65-0.56,0.88-0.94c0.23-0.38,0.34-0.83,0.34-1.36C825.14-237.29,825-237.78,824.74-238.18z"/>
			<path class="st3" d="M838.25-248.91v17.03h-2.36v-17.03h-5.91v-2.07h14.17v2.07H838.25z"/>
			<path class="st3" d="M117.1-218.73v2.11h-4.58v14.89h4.58v2.1h-11.55v-2.1h4.47v-14.89h-4.47v-2.11H117.1z"/>
			<path class="st3" d="M131.18-199.62l-7.41-14.28l-0.04,14.28h-2.45v-19.11h2.47l7.41,14.25l0.04-14.25h2.45v19.11H131.18z"/>
			<path class="st3" d="M156.61-208.06v8.44h-2.45v-19.11h11.73v2.07h-9.28v6.53h7.95v2.06H156.61z"/>
			<path class="st3" d="M172.6-208.46v6.77h9.3v2.06h-11.73v-19.11h11.61v2.07h-9.19v6.14h7.98v2.06H172.6z"/>
			<path class="st3" d="M188.72-208.46v6.77h9.3v2.06h-11.73v-19.11h11.61v2.07h-9.19v6.14h7.98v2.06H188.72z"/>
			<path class="st3" d="M209.3-216.66v17.03h-2.36v-17.03h-5.91v-2.07h14.17v2.07H209.3z"/>
			<path class="st3" d="M223.14-202.52c0.31-0.37,0.79-0.55,1.43-0.55c0.63,0,1.11,0.18,1.44,0.54s0.49,0.81,0.49,1.33
				c0,0.52-0.17,0.95-0.5,1.3s-0.81,0.52-1.43,0.52c-0.63,0-1.1-0.18-1.42-0.53s-0.48-0.79-0.48-1.29
				C222.67-201.71,222.83-202.16,223.14-202.52z"/>
			<path class="st3" d="M262.24-218.73v2.11h-4.58v14.89h4.58v2.1H250.7v-2.1h4.47v-14.89h-4.47v-2.11H262.24z"/>
			<path class="st3" d="M273.81-216.66v17.03h-2.36v-17.03h-5.91v-2.07h14.17v2.07H273.81z"/>
			<path class="st3" d="M310.63-218.73v2.11h-4.58v14.89h4.58v2.1h-11.55v-2.1h4.47v-14.89h-4.47v-2.11H310.63z"/>
			<path class="st3" d="M324.8-205.94c-0.27-0.4-0.61-0.74-1.03-1.02c-0.42-0.27-0.88-0.5-1.38-0.68s-0.99-0.35-1.45-0.5
				c-0.67-0.22-1.36-0.48-2.05-0.79s-1.33-0.68-1.9-1.12c-0.58-0.45-1.05-0.97-1.41-1.58c-0.36-0.61-0.54-1.32-0.54-2.15
				s0.18-1.56,0.54-2.21c0.36-0.65,0.84-1.19,1.42-1.64c0.59-0.45,1.25-0.79,1.99-1.02c0.74-0.23,1.49-0.35,2.24-0.35
				c0.83,0,1.63,0.14,2.4,0.41c0.77,0.28,1.45,0.66,2.05,1.16c0.59,0.5,1.07,1.1,1.43,1.81c0.36,0.71,0.55,1.5,0.56,2.38h-2.49
				c-0.07-0.55-0.21-1.05-0.41-1.5c-0.2-0.45-0.47-0.84-0.8-1.16c-0.33-0.32-0.73-0.58-1.19-0.75c-0.46-0.18-0.98-0.27-1.56-0.27
				c-0.46,0-0.92,0.07-1.36,0.2c-0.44,0.13-0.83,0.33-1.17,0.59c-0.35,0.26-0.63,0.59-0.83,0.97s-0.31,0.83-0.31,1.34
				c0.01,0.55,0.15,1.02,0.42,1.4c0.27,0.38,0.62,0.7,1.04,0.96c0.41,0.26,0.86,0.48,1.35,0.66s0.94,0.33,1.37,0.46
				c0.71,0.22,1.42,0.48,2.13,0.79s1.36,0.71,1.94,1.19c0.58,0.45,1.04,0.99,1.4,1.64c0.35,0.65,0.53,1.4,0.53,2.24
				c0,0.86-0.19,1.61-0.57,2.24c-0.38,0.64-0.87,1.17-1.48,1.59c-0.6,0.43-1.29,0.75-2.05,0.96c-0.76,0.21-1.52,0.32-2.28,0.32
				c-0.91,0-1.8-0.15-2.68-0.46c-0.88-0.31-1.64-0.75-2.29-1.33c-0.58-0.5-1.03-1.08-1.37-1.75c-0.34-0.67-0.52-1.41-0.54-2.24h2.48
				c0.08,0.6,0.24,1.12,0.49,1.58c0.24,0.46,0.56,0.85,0.94,1.16c0.38,0.32,0.83,0.57,1.33,0.73c0.5,0.16,1.05,0.24,1.65,0.24
				c0.47,0,0.94-0.06,1.4-0.18s0.87-0.3,1.23-0.56c0.36-0.25,0.65-0.56,0.88-0.94s0.34-0.83,0.34-1.36
				C325.2-205.04,325.07-205.53,324.8-205.94z"/>
			<path class="st3" d="M354.44-216.66v17.03h-2.36v-17.03h-5.91v-2.07h14.17v2.07H354.44z"/>
			<path class="st3" d="M373.27-199.62v-8.83h-7.83v8.83h-2.28v-19.11h2.28v8.21h7.83v-8.21h2.3v19.11H373.27z"/>
			<path class="st3" d="M382.25-208.46v6.77h9.3v2.06h-11.73v-19.11h11.61v2.07h-9.19v6.14h7.98v2.06H382.25z"/>
			<path class="st3" d="M417.74-209.18l3.36-9.55h3.02v19.11h-2.36v-7.62l0.2-7.98l-3.53,10.29h-1.39l-3.24-10.01l0.2,7.7v7.62
				h-2.36v-19.11h3L417.74-209.18z"/>
			<path class="st3" d="M440.34-206.01c-0.11,0.7-0.28,1.37-0.51,2.01s-0.52,1.25-0.87,1.81s-0.78,1.05-1.27,1.47
				c-0.49,0.42-1.05,0.75-1.69,0.99s-1.34,0.36-2.13,0.36c-0.79,0-1.5-0.12-2.13-0.36s-1.2-0.57-1.69-0.99s-0.91-0.91-1.27-1.48
				c-0.36-0.56-0.65-1.17-0.88-1.82c-0.24-0.65-0.41-1.32-0.52-2.01c-0.11-0.69-0.18-1.38-0.18-2.06v-2.18
				c0.01-0.68,0.07-1.37,0.18-2.07s0.28-1.37,0.52-2.01c0.23-0.65,0.52-1.25,0.87-1.82s0.78-1.06,1.27-1.49
				c0.49-0.42,1.05-0.75,1.69-0.99c0.63-0.24,1.34-0.36,2.13-0.36c0.79,0,1.5,0.12,2.14,0.36c0.64,0.24,1.2,0.57,1.69,0.99
				c0.49,0.42,0.91,0.91,1.27,1.48c0.35,0.56,0.65,1.17,0.89,1.82c0.23,0.65,0.4,1.32,0.51,2.02c0.11,0.7,0.17,1.39,0.18,2.07v2.18
				C440.51-207.39,440.45-206.7,440.34-206.01z M438.03-211.7c-0.05-0.49-0.14-0.99-0.26-1.48c-0.13-0.48-0.3-0.94-0.51-1.38
				c-0.21-0.44-0.47-0.83-0.79-1.17c-0.31-0.33-0.69-0.6-1.12-0.79c-0.43-0.2-0.93-0.3-1.5-0.3c-0.56,0-1.05,0.1-1.48,0.3
				s-0.8,0.47-1.12,0.8c-0.31,0.34-0.58,0.73-0.79,1.17c-0.21,0.44-0.38,0.9-0.5,1.38c-0.13,0.49-0.23,0.98-0.28,1.48
				s-0.09,0.96-0.1,1.41v2.21c0.01,0.45,0.04,0.92,0.1,1.42c0.06,0.5,0.15,0.99,0.28,1.47c0.13,0.49,0.3,0.96,0.51,1.4
				c0.21,0.45,0.47,0.84,0.79,1.17c0.31,0.34,0.69,0.61,1.12,0.81c0.43,0.2,0.93,0.3,1.5,0.3c0.57,0,1.07-0.1,1.5-0.3
				c0.43-0.2,0.81-0.47,1.12-0.81c0.31-0.33,0.56-0.72,0.77-1.16c0.21-0.44,0.37-0.91,0.51-1.4c0.12-0.48,0.21-0.97,0.26-1.47
				c0.05-0.5,0.08-0.97,0.09-1.43v-2.21C438.11-210.73,438.08-211.21,438.03-211.7z"/>
			<path class="st3" d="M453.82-205.94c-0.27-0.4-0.61-0.74-1.03-1.02c-0.42-0.27-0.88-0.5-1.38-0.68s-0.99-0.35-1.45-0.5
				c-0.67-0.22-1.36-0.48-2.05-0.79s-1.33-0.68-1.9-1.12c-0.58-0.45-1.05-0.97-1.41-1.58c-0.36-0.61-0.54-1.32-0.54-2.15
				s0.18-1.56,0.54-2.21s0.84-1.19,1.42-1.64c0.59-0.45,1.25-0.79,1.99-1.02c0.74-0.23,1.49-0.35,2.24-0.35
				c0.83,0,1.63,0.14,2.4,0.41c0.77,0.28,1.45,0.66,2.05,1.16c0.59,0.5,1.07,1.1,1.43,1.81c0.36,0.71,0.55,1.5,0.56,2.38h-2.49
				c-0.07-0.55-0.21-1.05-0.41-1.5c-0.2-0.45-0.47-0.84-0.8-1.16c-0.33-0.32-0.73-0.58-1.19-0.75c-0.46-0.18-0.98-0.27-1.55-0.27
				c-0.46,0-0.92,0.07-1.36,0.2c-0.44,0.13-0.83,0.33-1.17,0.59c-0.35,0.26-0.63,0.59-0.83,0.97c-0.21,0.38-0.31,0.83-0.31,1.34
				c0.01,0.55,0.15,1.02,0.42,1.4c0.27,0.38,0.62,0.7,1.04,0.96c0.41,0.26,0.86,0.48,1.34,0.66c0.49,0.17,0.94,0.33,1.37,0.46
				c0.71,0.22,1.42,0.48,2.12,0.79c0.71,0.31,1.36,0.71,1.94,1.19c0.58,0.45,1.04,0.99,1.4,1.64s0.53,1.4,0.53,2.24
				c0,0.86-0.19,1.61-0.57,2.24c-0.38,0.64-0.87,1.17-1.48,1.59c-0.6,0.43-1.29,0.75-2.05,0.96c-0.76,0.21-1.52,0.32-2.28,0.32
				c-0.91,0-1.81-0.15-2.68-0.46c-0.88-0.31-1.64-0.75-2.29-1.33c-0.58-0.5-1.03-1.08-1.37-1.75c-0.34-0.67-0.52-1.41-0.54-2.24
				h2.48c0.08,0.6,0.24,1.12,0.49,1.58c0.25,0.46,0.56,0.85,0.95,1.16c0.38,0.32,0.83,0.57,1.33,0.73c0.5,0.16,1.05,0.24,1.65,0.24
				c0.47,0,0.94-0.06,1.4-0.18s0.87-0.3,1.23-0.56c0.36-0.25,0.65-0.56,0.88-0.94c0.23-0.38,0.34-0.83,0.34-1.36
				C454.22-205.04,454.09-205.53,453.82-205.94z"/>
			<path class="st3" d="M467.33-216.66v17.03h-2.36v-17.03h-5.91v-2.07h14.17v2.07H467.33z"/>
			<path class="st3" d="M504.29-202.94c-0.34,0.74-0.78,1.37-1.33,1.9c-0.55,0.53-1.2,0.95-1.95,1.24s-1.58,0.44-2.5,0.44
				c-0.79,0-1.5-0.11-2.15-0.33c-0.64-0.22-1.21-0.53-1.71-0.92c-0.51-0.39-0.94-0.86-1.31-1.39c-0.36-0.53-0.66-1.12-0.9-1.75
				c-0.25-0.63-0.43-1.29-0.54-1.98c-0.12-0.69-0.18-1.39-0.19-2.1v-2.66c0.01-0.71,0.07-1.41,0.19-2.1s0.3-1.35,0.54-1.98
				c0.24-0.63,0.54-1.21,0.9-1.75c0.36-0.54,0.8-1,1.31-1.4c0.5-0.39,1.07-0.7,1.71-0.92c0.64-0.22,1.36-0.33,2.15-0.33
				c0.95,0,1.81,0.15,2.56,0.44c0.75,0.29,1.4,0.71,1.94,1.24c0.54,0.54,0.98,1.19,1.31,1.94c0.33,0.75,0.54,1.58,0.65,2.49h-2.43
				c-0.08-0.58-0.21-1.12-0.41-1.61s-0.45-0.94-0.77-1.31c-0.32-0.38-0.72-0.67-1.19-0.89c-0.47-0.21-1.02-0.32-1.66-0.32
				c-0.58,0-1.09,0.09-1.53,0.28c-0.44,0.19-0.82,0.44-1.14,0.77c-0.32,0.32-0.59,0.7-0.81,1.13c-0.21,0.43-0.39,0.88-0.52,1.36
				c-0.13,0.48-0.22,0.97-0.28,1.48c-0.06,0.5-0.08,0.99-0.08,1.46v2.69c0,0.47,0.03,0.96,0.08,1.46c0.06,0.5,0.15,1,0.28,1.48
				c0.13,0.49,0.3,0.95,0.51,1.38s0.48,0.81,0.8,1.13c0.32,0.33,0.7,0.59,1.14,0.78c0.44,0.19,0.95,0.28,1.54,0.28
				c0.64,0,1.19-0.1,1.66-0.3s0.86-0.49,1.19-0.85c0.32-0.36,0.58-0.79,0.77-1.28s0.33-1.03,0.41-1.61h2.43
				C504.86-204.49,504.63-203.68,504.29-202.94z"/>
			<path class="st3" d="M520.98-206.01c-0.11,0.7-0.28,1.37-0.5,2.01s-0.52,1.25-0.87,1.81c-0.35,0.56-0.78,1.05-1.27,1.47
				c-0.49,0.42-1.05,0.75-1.69,0.99c-0.63,0.24-1.34,0.36-2.13,0.36c-0.79,0-1.5-0.12-2.13-0.36c-0.63-0.24-1.2-0.57-1.69-0.99
				c-0.49-0.42-0.92-0.91-1.27-1.48s-0.65-1.17-0.88-1.82c-0.24-0.65-0.41-1.32-0.53-2.01c-0.11-0.69-0.17-1.38-0.18-2.06v-2.18
				c0.01-0.68,0.07-1.37,0.18-2.07s0.28-1.37,0.52-2.01c0.23-0.65,0.52-1.25,0.87-1.82s0.78-1.06,1.27-1.49
				c0.49-0.42,1.05-0.75,1.69-0.99c0.63-0.24,1.35-0.36,2.13-0.36s1.5,0.12,2.14,0.36c0.64,0.24,1.2,0.57,1.69,0.99
				c0.49,0.42,0.91,0.91,1.27,1.48s0.65,1.17,0.89,1.82c0.23,0.65,0.4,1.32,0.5,2.02c0.11,0.7,0.17,1.39,0.18,2.07v2.18
				C521.15-207.39,521.09-206.7,520.98-206.01z M518.66-211.7c-0.05-0.49-0.14-0.99-0.26-1.48c-0.13-0.48-0.3-0.94-0.51-1.38
				c-0.21-0.44-0.47-0.83-0.79-1.17c-0.32-0.33-0.69-0.6-1.12-0.79c-0.43-0.2-0.93-0.3-1.5-0.3c-0.56,0-1.05,0.1-1.48,0.3
				s-0.8,0.47-1.12,0.8c-0.31,0.34-0.58,0.73-0.79,1.17c-0.21,0.44-0.38,0.9-0.5,1.38c-0.13,0.49-0.23,0.98-0.28,1.48
				c-0.06,0.49-0.09,0.96-0.1,1.41v2.21c0.01,0.45,0.04,0.92,0.1,1.42c0.06,0.5,0.15,0.99,0.28,1.47c0.13,0.49,0.3,0.96,0.51,1.4
				c0.21,0.45,0.47,0.84,0.79,1.17c0.31,0.34,0.69,0.61,1.12,0.81c0.43,0.2,0.93,0.3,1.5,0.3c0.57,0,1.07-0.1,1.5-0.3
				c0.43-0.2,0.81-0.47,1.12-0.81c0.31-0.33,0.56-0.72,0.77-1.16c0.21-0.44,0.37-0.91,0.5-1.4c0.12-0.48,0.21-0.97,0.26-1.47
				c0.05-0.5,0.08-0.97,0.09-1.43v-2.21C518.75-210.73,518.71-211.21,518.66-211.7z"/>
			<path class="st3" d="M530.63-209.18l3.36-9.55h3.02v19.11h-2.36v-7.62l0.2-7.98l-3.53,10.29h-1.39l-3.24-10.01l0.2,7.7v7.62
				h-2.36v-19.11h3L530.63-209.18z"/>
			<path class="st3" d="M546.75-209.18l3.36-9.55h3.02v19.11h-2.36v-7.62l0.2-7.98l-3.53,10.29h-1.39l-3.24-10.01l0.2,7.7v7.62
				h-2.36v-19.11h3L546.75-209.18z"/>
			<path class="st3" d="M569.36-206.01c-0.11,0.7-0.28,1.37-0.5,2.01s-0.52,1.25-0.87,1.81c-0.35,0.56-0.78,1.05-1.27,1.47
				c-0.49,0.42-1.05,0.75-1.69,0.99c-0.63,0.24-1.34,0.36-2.13,0.36c-0.79,0-1.5-0.12-2.13-0.36c-0.63-0.24-1.2-0.57-1.69-0.99
				c-0.49-0.42-0.92-0.91-1.27-1.48s-0.65-1.17-0.88-1.82c-0.24-0.65-0.41-1.32-0.53-2.01c-0.11-0.69-0.17-1.38-0.18-2.06v-2.18
				c0.01-0.68,0.07-1.37,0.18-2.07s0.28-1.37,0.52-2.01c0.23-0.65,0.52-1.25,0.87-1.82s0.78-1.06,1.27-1.49
				c0.49-0.42,1.05-0.75,1.69-0.99c0.63-0.24,1.35-0.36,2.13-0.36s1.5,0.12,2.14,0.36c0.64,0.24,1.2,0.57,1.69,0.99
				c0.49,0.42,0.91,0.91,1.27,1.48s0.65,1.17,0.89,1.82c0.23,0.65,0.4,1.32,0.5,2.02c0.11,0.7,0.17,1.39,0.18,2.07v2.18
				C569.53-207.39,569.47-206.7,569.36-206.01z M567.04-211.7c-0.05-0.49-0.14-0.99-0.26-1.48c-0.13-0.48-0.3-0.94-0.51-1.38
				c-0.21-0.44-0.47-0.83-0.79-1.17c-0.32-0.33-0.69-0.6-1.12-0.79c-0.43-0.2-0.93-0.3-1.5-0.3c-0.56,0-1.05,0.1-1.48,0.3
				s-0.8,0.47-1.12,0.8c-0.31,0.34-0.58,0.73-0.79,1.17c-0.21,0.44-0.38,0.9-0.5,1.38c-0.13,0.49-0.23,0.98-0.28,1.48
				c-0.06,0.49-0.09,0.96-0.1,1.41v2.21c0.01,0.45,0.04,0.92,0.1,1.42c0.06,0.5,0.15,0.99,0.28,1.47c0.13,0.49,0.3,0.96,0.51,1.4
				c0.21,0.45,0.47,0.84,0.79,1.17c0.31,0.34,0.69,0.61,1.12,0.81c0.43,0.2,0.93,0.3,1.5,0.3c0.57,0,1.07-0.1,1.5-0.3
				c0.43-0.2,0.81-0.47,1.12-0.81c0.31-0.33,0.56-0.72,0.77-1.16c0.21-0.44,0.37-0.91,0.5-1.4c0.12-0.48,0.21-0.97,0.26-1.47
				c0.05-0.5,0.08-0.97,0.09-1.43v-2.21C567.12-210.73,567.09-211.21,567.04-211.7z"/>
			<path class="st3" d="M582.74-199.62l-7.41-14.28l-0.04,14.28h-2.45v-19.11h2.47l7.41,14.25l0.04-14.25h2.45v19.11H582.74z"/>
			<path class="st3" d="M608.17-208.06v8.44h-2.45v-19.11h11.73v2.07h-9.28v6.53h7.95v2.06H608.17z"/>
			<path class="st3" d="M633.87-206.01c-0.11,0.7-0.28,1.37-0.5,2.01s-0.52,1.25-0.87,1.81c-0.35,0.56-0.78,1.05-1.27,1.47
				c-0.49,0.42-1.05,0.75-1.69,0.99c-0.63,0.24-1.34,0.36-2.13,0.36c-0.79,0-1.5-0.12-2.13-0.36c-0.63-0.24-1.2-0.57-1.69-0.99
				c-0.49-0.42-0.92-0.91-1.27-1.48s-0.65-1.17-0.88-1.82c-0.24-0.65-0.41-1.32-0.53-2.01c-0.11-0.69-0.17-1.38-0.18-2.06v-2.18
				c0.01-0.68,0.07-1.37,0.18-2.07s0.28-1.37,0.52-2.01c0.23-0.65,0.52-1.25,0.87-1.82s0.78-1.06,1.27-1.49
				c0.49-0.42,1.05-0.75,1.69-0.99c0.63-0.24,1.35-0.36,2.13-0.36s1.5,0.12,2.14,0.36c0.64,0.24,1.2,0.57,1.69,0.99
				c0.49,0.42,0.91,0.91,1.27,1.48s0.65,1.17,0.89,1.82c0.23,0.65,0.4,1.32,0.5,2.02c0.11,0.7,0.17,1.39,0.18,2.07v2.18
				C634.03-207.39,633.97-206.7,633.87-206.01z M631.55-211.7c-0.05-0.49-0.14-0.99-0.26-1.48c-0.13-0.48-0.3-0.94-0.51-1.38
				c-0.21-0.44-0.47-0.83-0.79-1.17c-0.32-0.33-0.69-0.6-1.12-0.79c-0.43-0.2-0.93-0.3-1.5-0.3c-0.56,0-1.05,0.1-1.48,0.3
				s-0.8,0.47-1.12,0.8c-0.31,0.34-0.58,0.73-0.79,1.17c-0.21,0.44-0.38,0.9-0.5,1.38c-0.13,0.49-0.23,0.98-0.28,1.48
				c-0.06,0.49-0.09,0.96-0.1,1.41v2.21c0.01,0.45,0.04,0.92,0.1,1.42c0.06,0.5,0.15,0.99,0.28,1.47c0.13,0.49,0.3,0.96,0.51,1.4
				c0.21,0.45,0.47,0.84,0.79,1.17c0.31,0.34,0.69,0.61,1.12,0.81c0.43,0.2,0.93,0.3,1.5,0.3c0.57,0,1.07-0.1,1.5-0.3
				c0.43-0.2,0.81-0.47,1.12-0.81c0.31-0.33,0.56-0.72,0.77-1.16c0.21-0.44,0.37-0.91,0.5-1.4c0.12-0.48,0.21-0.97,0.26-1.47
				c0.05-0.5,0.08-0.97,0.09-1.43v-2.21C631.63-210.73,631.6-211.21,631.55-211.7z"/>
			<path class="st3" d="M640.25-207.42v7.79h-2.41v-19.11h5.6c0.89,0.02,1.73,0.14,2.52,0.38c0.79,0.24,1.48,0.59,2.07,1.06
				c0.59,0.47,1.05,1.07,1.38,1.78s0.5,1.55,0.5,2.51c0,0.62-0.09,1.19-0.27,1.71c-0.18,0.52-0.43,0.98-0.74,1.4
				c-0.32,0.42-0.69,0.79-1.13,1.12c-0.44,0.32-0.92,0.6-1.44,0.83l4.05,8.16l-0.01,0.16h-2.56l-3.75-7.79H640.25z M643.5-209.41
				c0.54-0.01,1.05-0.09,1.54-0.26c0.48-0.16,0.91-0.4,1.27-0.7c0.36-0.31,0.64-0.68,0.85-1.12c0.21-0.44,0.31-0.95,0.31-1.53
				c0-0.61-0.1-1.15-0.3-1.61s-0.48-0.85-0.84-1.16c-0.36-0.31-0.79-0.54-1.28-0.7c-0.49-0.16-1.03-0.24-1.62-0.25h-3.19v7.32H643.5
				z"/>
			<path class="st3" d="M659.64-209.18l3.36-9.55h3.02v19.11h-2.36v-7.62l0.2-7.98l-3.53,10.29h-1.39l-3.24-10.01l0.2,7.7v7.62
				h-2.36v-19.11h3L659.64-209.18z"/>
			<path class="st3" d="M698.37-206.01c-0.11,0.7-0.28,1.37-0.5,2.01s-0.52,1.25-0.87,1.81c-0.35,0.56-0.78,1.05-1.27,1.47
				c-0.49,0.42-1.05,0.75-1.69,0.99c-0.63,0.24-1.34,0.36-2.13,0.36c-0.79,0-1.5-0.12-2.13-0.36c-0.63-0.24-1.2-0.57-1.69-0.99
				c-0.49-0.42-0.92-0.91-1.27-1.48s-0.65-1.17-0.88-1.82c-0.24-0.65-0.41-1.32-0.53-2.01c-0.11-0.69-0.17-1.38-0.18-2.06v-2.18
				c0.01-0.68,0.07-1.37,0.18-2.07s0.28-1.37,0.52-2.01c0.23-0.65,0.52-1.25,0.87-1.82s0.78-1.06,1.27-1.49
				c0.49-0.42,1.05-0.75,1.69-0.99c0.63-0.24,1.35-0.36,2.13-0.36s1.5,0.12,2.14,0.36c0.64,0.24,1.2,0.57,1.69,0.99
				c0.49,0.42,0.91,0.91,1.27,1.48s0.65,1.17,0.89,1.82c0.23,0.65,0.4,1.32,0.5,2.02c0.11,0.7,0.17,1.39,0.18,2.07v2.18
				C698.54-207.39,698.48-206.7,698.37-206.01z M696.06-211.7c-0.05-0.49-0.14-0.99-0.26-1.48c-0.13-0.48-0.3-0.94-0.51-1.38
				c-0.21-0.44-0.47-0.83-0.79-1.17c-0.32-0.33-0.69-0.6-1.12-0.79c-0.43-0.2-0.93-0.3-1.5-0.3c-0.56,0-1.05,0.1-1.48,0.3
				s-0.8,0.47-1.12,0.8c-0.31,0.34-0.58,0.73-0.79,1.17c-0.21,0.44-0.38,0.9-0.5,1.38c-0.13,0.49-0.23,0.98-0.28,1.48
				c-0.06,0.49-0.09,0.96-0.1,1.41v2.21c0.01,0.45,0.04,0.92,0.1,1.42c0.06,0.5,0.15,0.99,0.28,1.47c0.13,0.49,0.3,0.96,0.51,1.4
				c0.21,0.45,0.47,0.84,0.79,1.17c0.31,0.34,0.69,0.61,1.12,0.81c0.43,0.2,0.93,0.3,1.5,0.3c0.57,0,1.07-0.1,1.5-0.3
				c0.43-0.2,0.81-0.47,1.12-0.81c0.31-0.33,0.56-0.72,0.77-1.16c0.21-0.44,0.37-0.91,0.5-1.4c0.12-0.48,0.21-0.97,0.26-1.47
				c0.05-0.5,0.08-0.97,0.09-1.43v-2.21C696.14-210.73,696.11-211.21,696.06-211.7z"/>
			<path class="st3" d="M704.93-208.06v8.44h-2.45v-19.11h11.73v2.07h-9.28v6.53h7.95v2.06H704.93z"/>
			<path class="st3" d="M744.1-205.94c-0.27-0.4-0.61-0.74-1.03-1.02c-0.42-0.27-0.88-0.5-1.38-0.68s-0.99-0.35-1.45-0.5
				c-0.67-0.22-1.36-0.48-2.05-0.79s-1.33-0.68-1.9-1.12c-0.58-0.45-1.05-0.97-1.41-1.58c-0.36-0.61-0.54-1.32-0.54-2.15
				s0.18-1.56,0.54-2.21s0.84-1.19,1.42-1.64c0.59-0.45,1.25-0.79,1.99-1.02c0.74-0.23,1.49-0.35,2.24-0.35
				c0.83,0,1.63,0.14,2.4,0.41c0.77,0.28,1.45,0.66,2.05,1.16c0.59,0.5,1.07,1.1,1.43,1.81c0.36,0.71,0.55,1.5,0.56,2.38h-2.49
				c-0.07-0.55-0.21-1.05-0.41-1.5c-0.2-0.45-0.47-0.84-0.8-1.16c-0.33-0.32-0.73-0.58-1.19-0.75c-0.46-0.18-0.98-0.27-1.55-0.27
				c-0.46,0-0.92,0.07-1.36,0.2c-0.44,0.13-0.83,0.33-1.17,0.59c-0.35,0.26-0.63,0.59-0.83,0.97c-0.21,0.38-0.31,0.83-0.31,1.34
				c0.01,0.55,0.15,1.02,0.42,1.4c0.27,0.38,0.62,0.7,1.04,0.96c0.41,0.26,0.86,0.48,1.34,0.66c0.49,0.17,0.94,0.33,1.37,0.46
				c0.71,0.22,1.42,0.48,2.12,0.79c0.71,0.31,1.36,0.71,1.94,1.19c0.58,0.45,1.04,0.99,1.4,1.64s0.53,1.4,0.53,2.24
				c0,0.86-0.19,1.61-0.57,2.24c-0.38,0.64-0.87,1.17-1.48,1.59c-0.6,0.43-1.29,0.75-2.05,0.96c-0.76,0.21-1.52,0.32-2.28,0.32
				c-0.91,0-1.8-0.15-2.68-0.46c-0.88-0.31-1.64-0.75-2.29-1.33c-0.58-0.5-1.03-1.08-1.37-1.75c-0.34-0.67-0.52-1.41-0.54-2.24h2.48
				c0.08,0.6,0.24,1.12,0.49,1.58c0.25,0.46,0.56,0.85,0.95,1.16c0.38,0.32,0.83,0.57,1.33,0.73c0.5,0.16,1.05,0.24,1.65,0.24
				c0.47,0,0.94-0.06,1.4-0.18s0.87-0.3,1.23-0.56c0.36-0.25,0.65-0.56,0.88-0.94c0.23-0.38,0.34-0.83,0.34-1.36
				C744.5-205.04,744.37-205.53,744.1-205.94z"/>
			<path class="st3" d="M753.16-208.46v6.77h9.3v2.06h-11.73v-19.11h11.61v2.07h-9.19v6.14h7.98v2.06H753.16z"/>
			<path class="st3" d="M776.8-218.73h2.86l-5.55,9.47l5.68,9.63h-2.83l-4.22-7.64l-4.24,7.64h-2.87l5.7-9.63l-5.55-9.47h2.85
				l4.07,7.49L776.8-218.73z"/>
			<path class="st3" d="M794.9-205.79c0,0.89-0.16,1.73-0.47,2.51c-0.32,0.78-0.75,1.46-1.3,2.03c-0.55,0.59-1.21,1.05-1.97,1.38
				c-0.76,0.34-1.6,0.51-2.51,0.51c-0.93,0-1.77-0.17-2.53-0.5s-1.41-0.79-1.96-1.38c-0.54-0.58-0.97-1.26-1.27-2.04
				c-0.31-0.78-0.46-1.62-0.47-2.51l0.03-12.94h2.31l0.05,12.94c0.01,0.57,0.1,1.12,0.27,1.64c0.17,0.53,0.42,0.99,0.74,1.39
				c0.31,0.4,0.71,0.73,1.19,0.97s1.03,0.37,1.65,0.37s1.17-0.12,1.64-0.36c0.47-0.24,0.87-0.57,1.19-0.98
				c0.31-0.4,0.55-0.87,0.72-1.39c0.17-0.52,0.26-1.07,0.28-1.64l0.04-12.94h2.35L794.9-205.79z"/>
			<path class="st3" d="M801.75-204.57l-1.54,4.95h-2.43l6.17-19.11h2.03l6.06,19.11h-2.41l-1.51-4.95H801.75z M807.49-206.68
				l-2.52-8.29l-2.56,8.29H807.49z"/>
			<path class="st3" d="M827.22-201.68v2.06h-11.77v-19.11h2.43v17.04H827.22z"/>
			<path class="st3" d="M108.23-175.81v8.44h-2.45v-19.11h11.73v2.07h-9.28v6.53h7.95v2.06H108.23z"/>
			<path class="st3" d="M124.21-176.21v6.77h9.3v2.06h-11.73v-19.11h11.61v2.07h-9.19v6.14h7.98v2.06H124.21z"/>
			<path class="st3" d="M144.79-184.41v17.03h-2.36v-17.03h-5.91v-2.07h14.17v2.07H144.79z"/>
			<path class="st3" d="M165.48-186.48v2.11h-4.58v14.89h4.58v2.1h-11.55v-2.1h4.47v-14.89h-4.47v-2.11H165.48z"/>
			<path class="st3" d="M179.66-173.69c-0.27-0.4-0.61-0.74-1.03-1.02c-0.42-0.27-0.88-0.5-1.38-0.68s-0.99-0.35-1.45-0.5
				c-0.67-0.22-1.36-0.48-2.05-0.79s-1.33-0.68-1.9-1.12c-0.58-0.45-1.05-0.97-1.41-1.58c-0.36-0.61-0.54-1.32-0.54-2.15
				s0.18-1.56,0.54-2.21c0.36-0.65,0.84-1.19,1.42-1.64c0.59-0.45,1.25-0.79,1.99-1.02c0.74-0.23,1.49-0.35,2.24-0.35
				c0.83,0,1.63,0.14,2.4,0.41c0.77,0.28,1.45,0.66,2.05,1.16c0.59,0.5,1.07,1.1,1.43,1.81c0.36,0.71,0.55,1.5,0.56,2.38h-2.49
				c-0.07-0.55-0.21-1.05-0.41-1.5c-0.2-0.45-0.47-0.84-0.8-1.16c-0.33-0.32-0.73-0.58-1.19-0.75c-0.46-0.18-0.98-0.27-1.56-0.27
				c-0.46,0-0.92,0.07-1.36,0.2c-0.44,0.13-0.83,0.33-1.17,0.59c-0.35,0.26-0.63,0.59-0.83,0.97s-0.31,0.83-0.31,1.34
				c0.01,0.55,0.15,1.02,0.42,1.4c0.27,0.38,0.62,0.7,1.04,0.96c0.41,0.26,0.86,0.48,1.35,0.66s0.94,0.33,1.37,0.46
				c0.71,0.22,1.42,0.48,2.13,0.79s1.36,0.71,1.94,1.19c0.58,0.45,1.04,0.99,1.4,1.64c0.35,0.65,0.53,1.4,0.53,2.24
				c0,0.86-0.19,1.61-0.57,2.24c-0.38,0.64-0.87,1.17-1.48,1.59c-0.6,0.43-1.29,0.75-2.05,0.96c-0.76,0.21-1.52,0.32-2.28,0.32
				c-0.91,0-1.8-0.15-2.68-0.46c-0.88-0.31-1.64-0.75-2.29-1.33c-0.58-0.5-1.03-1.08-1.37-1.75c-0.34-0.67-0.52-1.41-0.54-2.24h2.48
				c0.08,0.6,0.24,1.12,0.49,1.58c0.24,0.46,0.56,0.85,0.94,1.16c0.38,0.32,0.83,0.57,1.33,0.73c0.5,0.16,1.05,0.24,1.65,0.24
				c0.47,0,0.94-0.06,1.4-0.18s0.87-0.3,1.23-0.56c0.36-0.25,0.65-0.56,0.88-0.94s0.34-0.83,0.34-1.36
				C180.06-172.79,179.93-173.29,179.66-173.69z"/>
			<path class="st3" d="M195.87-167.38v-8.83h-7.83v8.83h-2.28v-19.11h2.28v8.21h7.83v-8.21h2.3v19.11H195.87z"/>
			<path class="st3" d="M213.86-186.48v2.11h-4.58v14.89h4.58v2.1h-11.55v-2.1h4.47v-14.89h-4.47v-2.11H213.86z"/>
			<path class="st3" d="M228.04-173.69c-0.27-0.4-0.61-0.74-1.03-1.02c-0.42-0.27-0.88-0.5-1.38-0.68s-0.99-0.35-1.45-0.5
				c-0.67-0.22-1.36-0.48-2.05-0.79s-1.33-0.68-1.9-1.12c-0.58-0.45-1.05-0.97-1.41-1.58c-0.36-0.61-0.54-1.32-0.54-2.15
				s0.18-1.56,0.54-2.21c0.36-0.65,0.84-1.19,1.42-1.64c0.59-0.45,1.25-0.79,1.99-1.02c0.74-0.23,1.49-0.35,2.24-0.35
				c0.83,0,1.63,0.14,2.4,0.41c0.77,0.28,1.45,0.66,2.05,1.16c0.59,0.5,1.07,1.1,1.43,1.81c0.36,0.71,0.55,1.5,0.56,2.38h-2.49
				c-0.07-0.55-0.21-1.05-0.41-1.5c-0.2-0.45-0.47-0.84-0.8-1.16c-0.33-0.32-0.73-0.58-1.19-0.75c-0.46-0.18-0.98-0.27-1.56-0.27
				c-0.46,0-0.92,0.07-1.36,0.2c-0.44,0.13-0.83,0.33-1.17,0.59c-0.35,0.26-0.63,0.59-0.83,0.97s-0.31,0.83-0.31,1.34
				c0.01,0.55,0.15,1.02,0.42,1.4c0.27,0.38,0.62,0.7,1.04,0.96c0.41,0.26,0.86,0.48,1.35,0.66s0.94,0.33,1.37,0.46
				c0.71,0.22,1.42,0.48,2.13,0.79s1.36,0.71,1.94,1.19c0.58,0.45,1.04,0.99,1.4,1.64c0.35,0.65,0.53,1.4,0.53,2.24
				c0,0.86-0.19,1.61-0.57,2.24c-0.38,0.64-0.87,1.17-1.48,1.59c-0.6,0.43-1.29,0.75-2.05,0.96c-0.76,0.21-1.52,0.32-2.28,0.32
				c-0.91,0-1.8-0.15-2.68-0.46c-0.88-0.31-1.64-0.75-2.29-1.33c-0.58-0.5-1.03-1.08-1.37-1.75c-0.34-0.67-0.52-1.41-0.54-2.24h2.48
				c0.08,0.6,0.24,1.12,0.49,1.58c0.24,0.46,0.56,0.85,0.94,1.16c0.38,0.32,0.83,0.57,1.33,0.73c0.5,0.16,1.05,0.24,1.65,0.24
				c0.47,0,0.94-0.06,1.4-0.18s0.87-0.3,1.23-0.56c0.36-0.25,0.65-0.56,0.88-0.94s0.34-0.83,0.34-1.36
				C228.44-172.79,228.31-173.29,228.04-173.69z"/>
			<path class="st3" d="M240.34-176.93l3.36-9.55h3.02v19.11h-2.36V-175l0.2-7.98l-3.53,10.29h-1.39l-3.24-10.01l0.2,7.7v7.62h-2.36
				v-19.11h3L240.34-176.93z"/>
			<path class="st3" d="M269.5-175.81v8.44h-2.45v-19.11h11.73v2.07h-9.28v6.53h7.95v2.06H269.5z"/>
			<path class="st3" d="M295.2-173.76c-0.11,0.7-0.28,1.37-0.51,2.01s-0.52,1.25-0.87,1.81s-0.78,1.05-1.27,1.47
				c-0.49,0.42-1.05,0.75-1.69,0.99s-1.34,0.36-2.13,0.36c-0.79,0-1.5-0.12-2.13-0.36s-1.2-0.57-1.69-0.99s-0.91-0.91-1.27-1.48
				c-0.36-0.56-0.65-1.17-0.88-1.82c-0.24-0.65-0.41-1.32-0.52-2.01c-0.11-0.69-0.18-1.38-0.18-2.06V-178
				c0.01-0.68,0.07-1.37,0.18-2.07s0.28-1.37,0.52-2.01c0.23-0.65,0.52-1.25,0.87-1.82s0.78-1.06,1.27-1.49
				c0.49-0.42,1.05-0.75,1.69-0.99c0.63-0.24,1.34-0.36,2.13-0.36c0.79,0,1.5,0.12,2.14,0.36c0.64,0.24,1.2,0.57,1.69,0.99
				c0.49,0.42,0.91,0.91,1.27,1.48c0.35,0.56,0.65,1.17,0.89,1.82c0.23,0.65,0.4,1.32,0.51,2.02c0.11,0.7,0.17,1.39,0.18,2.07v2.18
				C295.37-175.14,295.31-174.46,295.2-173.76z M292.88-179.46c-0.05-0.49-0.14-0.99-0.26-1.48c-0.13-0.48-0.3-0.94-0.51-1.38
				c-0.21-0.44-0.47-0.83-0.79-1.17c-0.31-0.33-0.69-0.6-1.12-0.79c-0.43-0.2-0.93-0.3-1.5-0.3c-0.56,0-1.05,0.1-1.48,0.3
				s-0.8,0.47-1.12,0.8c-0.31,0.34-0.58,0.73-0.79,1.17c-0.21,0.44-0.38,0.9-0.5,1.38c-0.13,0.49-0.23,0.98-0.28,1.48
				s-0.09,0.96-0.1,1.41v2.21c0.01,0.45,0.04,0.92,0.1,1.42c0.06,0.5,0.15,0.99,0.28,1.47c0.13,0.49,0.3,0.96,0.51,1.4
				c0.21,0.45,0.47,0.84,0.79,1.17c0.31,0.34,0.69,0.61,1.12,0.81c0.43,0.2,0.93,0.3,1.5,0.3c0.57,0,1.07-0.1,1.5-0.3
				c0.43-0.2,0.81-0.47,1.12-0.81c0.31-0.33,0.56-0.72,0.77-1.16c0.21-0.44,0.37-0.91,0.51-1.4c0.12-0.48,0.21-0.97,0.26-1.47
				c0.05-0.5,0.08-0.97,0.09-1.43v-2.21C292.97-178.49,292.94-178.96,292.88-179.46z"/>
			<path class="st3" d="M301.58-175.17v7.79h-2.41v-19.11h5.6c0.89,0.02,1.73,0.14,2.52,0.38c0.79,0.24,1.48,0.59,2.07,1.06
				c0.59,0.47,1.05,1.07,1.38,1.78s0.51,1.55,0.51,2.51c0,0.62-0.09,1.19-0.27,1.71c-0.18,0.52-0.43,0.98-0.74,1.4
				s-0.69,0.79-1.13,1.12c-0.44,0.32-0.92,0.6-1.44,0.83l4.05,8.16l-0.01,0.16h-2.56l-3.75-7.79H301.58z M304.84-177.17
				c0.54-0.01,1.05-0.09,1.54-0.26c0.48-0.16,0.91-0.4,1.27-0.7c0.36-0.31,0.64-0.68,0.85-1.12c0.21-0.44,0.31-0.95,0.31-1.53
				c0-0.61-0.1-1.15-0.3-1.61s-0.48-0.85-0.84-1.16c-0.36-0.31-0.79-0.54-1.28-0.7c-0.49-0.16-1.03-0.24-1.62-0.25h-3.19v7.32
				H304.84z"/>
			<path class="st3" d="M343.58-173.76c-0.11,0.7-0.28,1.37-0.51,2.01s-0.52,1.25-0.87,1.81s-0.78,1.05-1.27,1.47
				c-0.49,0.42-1.05,0.75-1.69,0.99s-1.34,0.36-2.13,0.36c-0.79,0-1.5-0.12-2.13-0.36s-1.2-0.57-1.69-0.99s-0.91-0.91-1.27-1.48
				c-0.36-0.56-0.65-1.17-0.88-1.82c-0.24-0.65-0.41-1.32-0.52-2.01c-0.11-0.69-0.18-1.38-0.18-2.06V-178
				c0.01-0.68,0.07-1.37,0.18-2.07s0.28-1.37,0.52-2.01c0.23-0.65,0.52-1.25,0.87-1.82s0.78-1.06,1.27-1.49
				c0.49-0.42,1.05-0.75,1.69-0.99c0.63-0.24,1.34-0.36,2.13-0.36c0.79,0,1.5,0.12,2.14,0.36c0.64,0.24,1.2,0.57,1.69,0.99
				c0.49,0.42,0.91,0.91,1.27,1.48c0.35,0.56,0.65,1.17,0.89,1.82c0.23,0.65,0.4,1.32,0.51,2.02c0.11,0.7,0.17,1.39,0.18,2.07v2.18
				C343.75-175.14,343.69-174.46,343.58-173.76z M341.27-179.46c-0.05-0.49-0.14-0.99-0.26-1.48c-0.13-0.48-0.3-0.94-0.51-1.38
				c-0.21-0.44-0.47-0.83-0.79-1.17c-0.31-0.33-0.69-0.6-1.12-0.79c-0.43-0.2-0.93-0.3-1.5-0.3c-0.56,0-1.05,0.1-1.48,0.3
				s-0.8,0.47-1.12,0.8c-0.31,0.34-0.58,0.73-0.79,1.17c-0.21,0.44-0.38,0.9-0.5,1.38c-0.13,0.49-0.23,0.98-0.28,1.48
				s-0.09,0.96-0.1,1.41v2.21c0.01,0.45,0.04,0.92,0.1,1.42c0.06,0.5,0.15,0.99,0.28,1.47c0.13,0.49,0.3,0.96,0.51,1.4
				c0.21,0.45,0.47,0.84,0.79,1.17c0.31,0.34,0.69,0.61,1.12,0.81c0.43,0.2,0.93,0.3,1.5,0.3c0.57,0,1.07-0.1,1.5-0.3
				c0.43-0.2,0.81-0.47,1.12-0.81c0.31-0.33,0.56-0.72,0.77-1.16c0.21-0.44,0.37-0.91,0.51-1.4c0.12-0.48,0.21-0.97,0.26-1.47
				c0.05-0.5,0.08-0.97,0.09-1.43v-2.21C341.35-178.49,341.32-178.96,341.27-179.46z"/>
			<path class="st3" d="M354.44-184.41v17.03h-2.36v-17.03h-5.91v-2.07h14.17v2.07H354.44z"/>
			<path class="st3" d="M373.27-167.38v-8.83h-7.83v8.83h-2.28v-19.11h2.28v8.21h7.83v-8.21h2.3v19.11H373.27z"/>
			<path class="st3" d="M382.25-176.21v6.77h9.3v2.06h-11.73v-19.11h11.61v2.07h-9.19v6.14h7.98v2.06H382.25z"/>
			<path class="st3" d="M398.35-175.17v7.79h-2.41v-19.11h5.6c0.89,0.02,1.73,0.14,2.52,0.38c0.79,0.24,1.48,0.59,2.07,1.06
				c0.59,0.47,1.05,1.07,1.38,1.78s0.51,1.55,0.51,2.51c0,0.62-0.09,1.19-0.27,1.71c-0.18,0.52-0.43,0.98-0.74,1.4
				s-0.69,0.79-1.13,1.12c-0.44,0.32-0.92,0.6-1.44,0.83l4.05,8.16l-0.01,0.16h-2.56l-3.75-7.79H398.35z M401.6-177.17
				c0.54-0.01,1.05-0.09,1.54-0.26c0.48-0.16,0.91-0.4,1.27-0.7c0.36-0.31,0.64-0.68,0.85-1.12c0.21-0.44,0.31-0.95,0.31-1.53
				c0-0.61-0.1-1.15-0.3-1.61s-0.48-0.85-0.84-1.16c-0.36-0.31-0.79-0.54-1.28-0.7c-0.49-0.16-1.03-0.24-1.62-0.25h-3.19v7.32H401.6
				z"/>
			<path class="st3" d="M410.64-186.48h2.31l1.38,13.17l0.08,0.76l0.14-0.79l2.31-13.15h2.11l2.32,13.16l0.14,0.77l0.08-0.79
				l1.38-13.15h2.3l-2.32,19.11h-2.48l-2.32-13.59l-0.13-0.8l-0.14,0.81l-2.34,13.58h-2.49L410.64-186.48z"/>
			<path class="st3" d="M439.64-186.48v2.11h-4.58v14.89h4.58v2.1h-11.55v-2.1h4.47v-14.89h-4.47v-2.11H439.64z"/>
			<path class="st3" d="M453.82-173.69c-0.27-0.4-0.61-0.74-1.03-1.02c-0.42-0.27-0.88-0.5-1.38-0.68s-0.99-0.35-1.45-0.5
				c-0.67-0.22-1.36-0.48-2.05-0.79s-1.33-0.68-1.9-1.12c-0.58-0.45-1.05-0.97-1.41-1.58c-0.36-0.61-0.54-1.32-0.54-2.15
				s0.18-1.56,0.54-2.21s0.84-1.19,1.42-1.64c0.59-0.45,1.25-0.79,1.99-1.02c0.74-0.23,1.49-0.35,2.24-0.35
				c0.83,0,1.63,0.14,2.4,0.41c0.77,0.28,1.45,0.66,2.05,1.16c0.59,0.5,1.07,1.1,1.43,1.81c0.36,0.71,0.55,1.5,0.56,2.38h-2.49
				c-0.07-0.55-0.21-1.05-0.41-1.5c-0.2-0.45-0.47-0.84-0.8-1.16c-0.33-0.32-0.73-0.58-1.19-0.75c-0.46-0.18-0.98-0.27-1.55-0.27
				c-0.46,0-0.92,0.07-1.36,0.2c-0.44,0.13-0.83,0.33-1.17,0.59c-0.35,0.26-0.63,0.59-0.83,0.97c-0.21,0.38-0.31,0.83-0.31,1.34
				c0.01,0.55,0.15,1.02,0.42,1.4c0.27,0.38,0.62,0.7,1.04,0.96c0.41,0.26,0.86,0.48,1.34,0.66c0.49,0.17,0.94,0.33,1.37,0.46
				c0.71,0.22,1.42,0.48,2.12,0.79c0.71,0.31,1.36,0.71,1.94,1.19c0.58,0.45,1.04,0.99,1.4,1.64s0.53,1.4,0.53,2.24
				c0,0.86-0.19,1.61-0.57,2.24c-0.38,0.64-0.87,1.17-1.48,1.59c-0.6,0.43-1.29,0.75-2.05,0.96c-0.76,0.21-1.52,0.32-2.28,0.32
				c-0.91,0-1.81-0.15-2.68-0.46c-0.88-0.31-1.64-0.75-2.29-1.33c-0.58-0.5-1.03-1.08-1.37-1.75c-0.34-0.67-0.52-1.41-0.54-2.24
				h2.48c0.08,0.6,0.24,1.12,0.49,1.58c0.25,0.46,0.56,0.85,0.95,1.16c0.38,0.32,0.83,0.57,1.33,0.73c0.5,0.16,1.05,0.24,1.65,0.24
				c0.47,0,0.94-0.06,1.4-0.18s0.87-0.3,1.23-0.56c0.36-0.25,0.65-0.56,0.88-0.94c0.23-0.38,0.34-0.83,0.34-1.36
				C454.22-172.79,454.09-173.29,453.82-173.69z"/>
			<path class="st3" d="M462.88-176.21v6.77h9.3v2.06h-11.73v-19.11h11.61v2.07h-9.19v6.14h7.98v2.06H462.88z"/>
			<path class="st3" d="M502.1-167.38l-7.41-14.28l-0.04,14.28h-2.45v-19.11h2.47l7.41,14.25l0.04-14.25h2.45v19.11H502.1z"/>
			<path class="st3" d="M520.98-173.76c-0.11,0.7-0.28,1.37-0.5,2.01s-0.52,1.25-0.87,1.81c-0.35,0.56-0.78,1.05-1.27,1.47
				c-0.49,0.42-1.05,0.75-1.69,0.99c-0.63,0.24-1.34,0.36-2.13,0.36c-0.79,0-1.5-0.12-2.13-0.36c-0.63-0.24-1.2-0.57-1.69-0.99
				c-0.49-0.42-0.92-0.91-1.27-1.48s-0.65-1.17-0.88-1.82c-0.24-0.65-0.41-1.32-0.53-2.01c-0.11-0.69-0.17-1.38-0.18-2.06V-178
				c0.01-0.68,0.07-1.37,0.18-2.07s0.28-1.37,0.52-2.01c0.23-0.65,0.52-1.25,0.87-1.82s0.78-1.06,1.27-1.49
				c0.49-0.42,1.05-0.75,1.69-0.99c0.63-0.24,1.35-0.36,2.13-0.36s1.5,0.12,2.14,0.36c0.64,0.24,1.2,0.57,1.69,0.99
				c0.49,0.42,0.91,0.91,1.27,1.48s0.65,1.17,0.89,1.82c0.23,0.65,0.4,1.32,0.5,2.02c0.11,0.7,0.17,1.39,0.18,2.07v2.18
				C521.15-175.14,521.09-174.46,520.98-173.76z M518.66-179.46c-0.05-0.49-0.14-0.99-0.26-1.48c-0.13-0.48-0.3-0.94-0.51-1.38
				c-0.21-0.44-0.47-0.83-0.79-1.17c-0.32-0.33-0.69-0.6-1.12-0.79c-0.43-0.2-0.93-0.3-1.5-0.3c-0.56,0-1.05,0.1-1.48,0.3
				s-0.8,0.47-1.12,0.8c-0.31,0.34-0.58,0.73-0.79,1.17c-0.21,0.44-0.38,0.9-0.5,1.38c-0.13,0.49-0.23,0.98-0.28,1.48
				c-0.06,0.49-0.09,0.96-0.1,1.41v2.21c0.01,0.45,0.04,0.92,0.1,1.42c0.06,0.5,0.15,0.99,0.28,1.47c0.13,0.49,0.3,0.96,0.51,1.4
				c0.21,0.45,0.47,0.84,0.79,1.17c0.31,0.34,0.69,0.61,1.12,0.81c0.43,0.2,0.93,0.3,1.5,0.3c0.57,0,1.07-0.1,1.5-0.3
				c0.43-0.2,0.81-0.47,1.12-0.81c0.31-0.33,0.56-0.72,0.77-1.16c0.21-0.44,0.37-0.91,0.5-1.4c0.12-0.48,0.21-0.97,0.26-1.47
				c0.05-0.5,0.08-0.97,0.09-1.43v-2.21C518.75-178.49,518.71-178.96,518.66-179.46z"/>
			<path class="st3" d="M534.35-167.38l-7.41-14.28l-0.04,14.28h-2.45v-19.11h2.47l7.41,14.25l0.04-14.25h2.45v19.11H534.35z"/>
			<path class="st3" d="M541.56-174.74v-2h10.04v2H541.56z"/>
			<path class="st3" d="M566.71-173.69c-0.27-0.4-0.61-0.74-1.03-1.02c-0.42-0.27-0.88-0.5-1.38-0.68s-0.99-0.35-1.45-0.5
				c-0.67-0.22-1.36-0.48-2.05-0.79s-1.33-0.68-1.9-1.12c-0.58-0.45-1.05-0.97-1.41-1.58c-0.36-0.61-0.54-1.32-0.54-2.15
				s0.18-1.56,0.54-2.21s0.84-1.19,1.42-1.64c0.59-0.45,1.25-0.79,1.99-1.02c0.74-0.23,1.49-0.35,2.24-0.35
				c0.83,0,1.63,0.14,2.4,0.41c0.77,0.28,1.45,0.66,2.05,1.16c0.59,0.5,1.07,1.1,1.43,1.81c0.36,0.71,0.55,1.5,0.56,2.38h-2.49
				c-0.07-0.55-0.21-1.05-0.41-1.5c-0.2-0.45-0.47-0.84-0.8-1.16c-0.33-0.32-0.73-0.58-1.19-0.75c-0.46-0.18-0.98-0.27-1.55-0.27
				c-0.46,0-0.92,0.07-1.36,0.2c-0.44,0.13-0.83,0.33-1.17,0.59c-0.35,0.26-0.63,0.59-0.83,0.97c-0.21,0.38-0.31,0.83-0.31,1.34
				c0.01,0.55,0.15,1.02,0.42,1.4c0.27,0.38,0.62,0.7,1.04,0.96c0.41,0.26,0.86,0.48,1.34,0.66c0.49,0.17,0.94,0.33,1.37,0.46
				c0.71,0.22,1.42,0.48,2.12,0.79c0.71,0.31,1.36,0.71,1.94,1.19c0.58,0.45,1.04,0.99,1.4,1.64s0.53,1.4,0.53,2.24
				c0,0.86-0.19,1.61-0.57,2.24c-0.38,0.64-0.87,1.17-1.48,1.59c-0.6,0.43-1.29,0.75-2.05,0.96c-0.76,0.21-1.52,0.32-2.28,0.32
				c-0.91,0-1.8-0.15-2.68-0.46c-0.88-0.31-1.64-0.75-2.29-1.33c-0.58-0.5-1.03-1.08-1.37-1.75c-0.34-0.67-0.52-1.41-0.54-2.24h2.48
				c0.08,0.6,0.24,1.12,0.49,1.58c0.25,0.46,0.56,0.85,0.95,1.16c0.38,0.32,0.83,0.57,1.33,0.73c0.5,0.16,1.05,0.24,1.65,0.24
				c0.47,0,0.94-0.06,1.4-0.18s0.87-0.3,1.23-0.56c0.36-0.25,0.65-0.56,0.88-0.94c0.23-0.38,0.34-0.83,0.34-1.36
				C567.11-172.79,566.97-173.29,566.71-173.69z"/>
			<path class="st3" d="M575.77-176.21v6.77h9.3v2.06h-11.73v-19.11h11.61v2.07h-9.19v6.14h7.98v2.06H575.77z"/>
			<path class="st3" d="M599.4-186.48h2.86l-5.55,9.47l5.68,9.63h-2.83l-4.22-7.64l-4.24,7.64h-2.87l5.7-9.63l-5.55-9.47h2.85
				l4.07,7.49L599.4-186.48z"/>
			<path class="st3" d="M617.51-173.54c0,0.89-0.16,1.73-0.47,2.51c-0.32,0.78-0.75,1.46-1.3,2.03c-0.55,0.59-1.21,1.05-1.97,1.38
				c-0.76,0.34-1.6,0.51-2.51,0.51c-0.93,0-1.77-0.17-2.53-0.5s-1.41-0.79-1.96-1.38c-0.54-0.58-0.97-1.26-1.27-2.04
				c-0.31-0.78-0.46-1.62-0.47-2.51l0.03-12.94h2.31l0.05,12.94c0.01,0.57,0.1,1.12,0.27,1.64c0.17,0.53,0.42,0.99,0.74,1.39
				c0.31,0.4,0.71,0.73,1.19,0.97s1.03,0.37,1.65,0.37s1.17-0.12,1.64-0.36c0.47-0.24,0.87-0.57,1.19-0.98
				c0.31-0.4,0.55-0.87,0.72-1.39c0.17-0.52,0.26-1.07,0.28-1.64l0.04-12.94h2.35L617.51-173.54z"/>
			<path class="st3" d="M624.36-172.32l-1.54,4.95h-2.43l6.17-19.11h2.03l6.06,19.11h-2.41l-1.51-4.95H624.36z M630.09-174.44
				l-2.52-8.29l-2.56,8.29H630.09z"/>
			<path class="st3" d="M649.83-169.44v2.06h-11.77v-19.11h2.43v17.04H649.83z"/>
			<path class="st3" d="M682.25-173.76c-0.11,0.7-0.28,1.37-0.5,2.01s-0.52,1.25-0.87,1.81c-0.35,0.56-0.78,1.05-1.27,1.47
				c-0.49,0.42-1.05,0.75-1.69,0.99c-0.63,0.24-1.34,0.36-2.13,0.36c-0.79,0-1.5-0.12-2.13-0.36c-0.63-0.24-1.2-0.57-1.69-0.99
				c-0.49-0.42-0.92-0.91-1.27-1.48s-0.65-1.17-0.88-1.82c-0.24-0.65-0.41-1.32-0.53-2.01c-0.11-0.69-0.17-1.38-0.18-2.06V-178
				c0.01-0.68,0.07-1.37,0.18-2.07s0.28-1.37,0.52-2.01c0.23-0.65,0.52-1.25,0.87-1.82s0.78-1.06,1.27-1.49
				c0.49-0.42,1.05-0.75,1.69-0.99c0.63-0.24,1.35-0.36,2.13-0.36s1.5,0.12,2.14,0.36c0.64,0.24,1.2,0.57,1.69,0.99
				c0.49,0.42,0.91,0.91,1.27,1.48s0.65,1.17,0.89,1.82c0.23,0.65,0.4,1.32,0.5,2.02c0.11,0.7,0.17,1.39,0.18,2.07v2.18
				C682.42-175.14,682.36-174.46,682.25-173.76z M679.93-179.46c-0.05-0.49-0.14-0.99-0.26-1.48c-0.13-0.48-0.3-0.94-0.51-1.38
				c-0.21-0.44-0.47-0.83-0.79-1.17c-0.32-0.33-0.69-0.6-1.12-0.79c-0.43-0.2-0.93-0.3-1.5-0.3c-0.56,0-1.05,0.1-1.48,0.3
				s-0.8,0.47-1.12,0.8c-0.31,0.34-0.58,0.73-0.79,1.17c-0.21,0.44-0.38,0.9-0.5,1.38c-0.13,0.49-0.23,0.98-0.28,1.48
				c-0.06,0.49-0.09,0.96-0.1,1.41v2.21c0.01,0.45,0.04,0.92,0.1,1.42c0.06,0.5,0.15,0.99,0.28,1.47c0.13,0.49,0.3,0.96,0.51,1.4
				c0.21,0.45,0.47,0.84,0.79,1.17c0.31,0.34,0.69,0.61,1.12,0.81c0.43,0.2,0.93,0.3,1.5,0.3c0.57,0,1.07-0.1,1.5-0.3
				c0.43-0.2,0.81-0.47,1.12-0.81c0.31-0.33,0.56-0.72,0.77-1.16c0.21-0.44,0.37-0.91,0.5-1.4c0.12-0.48,0.21-0.97,0.26-1.47
				c0.05-0.5,0.08-0.97,0.09-1.43v-2.21C680.01-178.49,679.98-178.96,679.93-179.46z"/>
			<path class="st3" d="M686.1-186.48h5.68c0.79,0.01,1.56,0.11,2.31,0.31c0.75,0.2,1.42,0.5,2.01,0.91
				c0.59,0.41,1.05,0.94,1.4,1.58c0.35,0.64,0.52,1.4,0.51,2.3c-0.01,0.5-0.09,0.95-0.24,1.37s-0.36,0.78-0.62,1.1
				c-0.27,0.33-0.57,0.61-0.9,0.84c-0.33,0.23-0.72,0.44-1.19,0.64v0.04c0.48,0.11,0.94,0.32,1.39,0.62c0.45,0.3,0.81,0.62,1.1,0.98
				c0.31,0.39,0.54,0.83,0.71,1.33c0.17,0.49,0.26,1.02,0.26,1.59c0.01,0.89-0.16,1.68-0.51,2.36c-0.35,0.68-0.82,1.25-1.4,1.71
				c-0.59,0.46-1.26,0.82-2.03,1.06c-0.77,0.25-1.55,0.37-2.37,0.38h-6.12V-186.48z M691.92-178.33c0.46-0.01,0.9-0.08,1.34-0.22
				c0.44-0.13,0.83-0.33,1.17-0.6c0.34-0.25,0.62-0.57,0.83-0.94s0.32-0.81,0.32-1.31c0-0.53-0.1-0.99-0.31-1.36
				c-0.21-0.38-0.48-0.69-0.82-0.93c-0.35-0.24-0.75-0.41-1.2-0.52c-0.45-0.11-0.91-0.17-1.38-0.18h-3.32v6.08H691.92z
				 M688.54-169.44h3.74c0.51-0.01,0.99-0.09,1.44-0.26c0.46-0.16,0.86-0.39,1.21-0.68c0.35-0.29,0.63-0.64,0.83-1.06
				c0.21-0.42,0.31-0.9,0.31-1.43c0.01-0.54-0.08-1.02-0.27-1.44c-0.19-0.42-0.45-0.78-0.78-1.08c-0.33-0.29-0.72-0.51-1.17-0.67
				c-0.45-0.16-0.93-0.24-1.44-0.26h-3.87V-169.44z"/>
			<path class="st3" d="M713.69-186.48v13.29c-0.02,0.88-0.19,1.7-0.5,2.44c-0.32,0.74-0.75,1.38-1.31,1.92
				c-0.55,0.54-1.2,0.96-1.95,1.27s-1.56,0.45-2.45,0.45c-0.89,0-1.7-0.14-2.43-0.41c-0.73-0.27-1.36-0.66-1.9-1.17
				c-0.54-0.5-0.98-1.1-1.3-1.82c-0.32-0.71-0.53-1.51-0.6-2.39h2.47c0.03,0.53,0.13,1.03,0.32,1.48c0.19,0.46,0.44,0.85,0.77,1.18
				c0.32,0.34,0.71,0.6,1.16,0.79c0.45,0.18,0.96,0.28,1.52,0.28c0.58,0,1.09-0.11,1.55-0.32c0.46-0.21,0.84-0.5,1.17-0.87
				c0.31-0.37,0.56-0.79,0.73-1.28c0.17-0.49,0.26-1,0.28-1.54v-13.29H713.69z"/>
			<path class="st3" d="M720.91-176.21v6.77h9.3v2.06h-11.73v-19.11h11.61v2.07h-9.19v6.14h7.98v2.06H720.91z"/>
			<path class="st3" d="M746.2-170.69c-0.34,0.74-0.78,1.37-1.33,1.9c-0.55,0.53-1.2,0.95-1.95,1.24s-1.58,0.44-2.5,0.44
				c-0.79,0-1.5-0.11-2.15-0.33c-0.64-0.22-1.21-0.53-1.71-0.92c-0.51-0.39-0.94-0.86-1.31-1.39c-0.36-0.53-0.66-1.12-0.9-1.75
				c-0.25-0.63-0.43-1.29-0.54-1.98c-0.12-0.69-0.18-1.39-0.19-2.1v-2.66c0.01-0.71,0.07-1.41,0.19-2.1s0.3-1.35,0.54-1.98
				c0.24-0.63,0.54-1.21,0.9-1.75c0.36-0.54,0.8-1,1.31-1.4c0.5-0.39,1.07-0.7,1.71-0.92c0.64-0.22,1.36-0.33,2.15-0.33
				c0.95,0,1.81,0.15,2.56,0.44c0.75,0.29,1.4,0.71,1.94,1.24c0.54,0.54,0.98,1.19,1.31,1.94c0.33,0.75,0.54,1.58,0.65,2.49h-2.43
				c-0.08-0.58-0.21-1.12-0.41-1.61s-0.45-0.94-0.77-1.31c-0.32-0.38-0.72-0.67-1.19-0.89c-0.47-0.21-1.02-0.32-1.66-0.32
				c-0.58,0-1.09,0.09-1.53,0.28c-0.44,0.19-0.82,0.44-1.14,0.77c-0.32,0.32-0.59,0.7-0.81,1.13c-0.21,0.43-0.39,0.88-0.52,1.36
				c-0.13,0.48-0.22,0.97-0.28,1.48c-0.06,0.5-0.08,0.99-0.08,1.46v2.69c0,0.47,0.03,0.96,0.08,1.46c0.06,0.5,0.15,1,0.28,1.48
				c0.13,0.49,0.3,0.95,0.51,1.38s0.48,0.81,0.8,1.13c0.32,0.33,0.7,0.59,1.14,0.78c0.44,0.19,0.95,0.28,1.54,0.28
				c0.64,0,1.19-0.1,1.66-0.3s0.86-0.49,1.19-0.85c0.32-0.36,0.58-0.79,0.77-1.28s0.33-1.03,0.41-1.61h2.43
				C746.77-172.24,746.54-171.43,746.2-170.69z"/>
			<path class="st3" d="M757.61-184.41v17.03h-2.36v-17.03h-5.91v-2.07h14.17v2.07H757.61z"/>
			<path class="st3" d="M776.36-173.69c-0.27-0.4-0.61-0.74-1.03-1.02c-0.42-0.27-0.88-0.5-1.38-0.68s-0.99-0.35-1.45-0.5
				c-0.67-0.22-1.36-0.48-2.05-0.79s-1.33-0.68-1.9-1.12c-0.58-0.45-1.05-0.97-1.41-1.58c-0.36-0.61-0.54-1.32-0.54-2.15
				s0.18-1.56,0.54-2.21s0.84-1.19,1.42-1.64c0.59-0.45,1.25-0.79,1.99-1.02c0.74-0.23,1.49-0.35,2.24-0.35
				c0.83,0,1.63,0.14,2.4,0.41c0.77,0.28,1.45,0.66,2.05,1.16c0.59,0.5,1.07,1.1,1.43,1.81c0.36,0.71,0.55,1.5,0.56,2.38h-2.49
				c-0.07-0.55-0.21-1.05-0.41-1.5c-0.2-0.45-0.47-0.84-0.8-1.16c-0.33-0.32-0.73-0.58-1.19-0.75c-0.46-0.18-0.98-0.27-1.55-0.27
				c-0.46,0-0.92,0.07-1.36,0.2c-0.44,0.13-0.83,0.33-1.17,0.59c-0.35,0.26-0.63,0.59-0.83,0.97c-0.21,0.38-0.31,0.83-0.31,1.34
				c0.01,0.55,0.15,1.02,0.42,1.4c0.27,0.38,0.62,0.7,1.04,0.96c0.41,0.26,0.86,0.48,1.34,0.66c0.49,0.17,0.94,0.33,1.37,0.46
				c0.71,0.22,1.42,0.48,2.12,0.79c0.71,0.31,1.36,0.71,1.94,1.19c0.58,0.45,1.04,0.99,1.4,1.64s0.53,1.4,0.53,2.24
				c0,0.86-0.19,1.61-0.57,2.24c-0.38,0.64-0.87,1.17-1.48,1.59c-0.6,0.43-1.29,0.75-2.05,0.96c-0.76,0.21-1.52,0.32-2.28,0.32
				c-0.91,0-1.8-0.15-2.68-0.46c-0.88-0.31-1.64-0.75-2.29-1.33c-0.58-0.5-1.03-1.08-1.37-1.75c-0.34-0.67-0.52-1.41-0.54-2.24h2.48
				c0.08,0.6,0.24,1.12,0.49,1.58c0.25,0.46,0.56,0.85,0.95,1.16c0.38,0.32,0.83,0.57,1.33,0.73c0.5,0.16,1.05,0.24,1.65,0.24
				c0.47,0,0.94-0.06,1.4-0.18s0.87-0.3,1.23-0.56c0.36-0.25,0.65-0.56,0.88-0.94c0.23-0.38,0.34-0.83,0.34-1.36
				C776.76-172.79,776.62-173.29,776.36-173.69z"/>
			<path class="st3" d="M117.8-141.51c-0.11,0.7-0.28,1.37-0.51,2.01s-0.52,1.25-0.87,1.81s-0.78,1.05-1.27,1.47
				c-0.49,0.42-1.05,0.75-1.69,0.99s-1.34,0.36-2.13,0.36c-0.79,0-1.5-0.12-2.13-0.36s-1.2-0.57-1.69-0.99s-0.91-0.91-1.27-1.48
				c-0.36-0.56-0.65-1.17-0.88-1.82c-0.24-0.65-0.41-1.32-0.52-2.01c-0.11-0.69-0.18-1.38-0.18-2.06v-2.18
				c0.01-0.68,0.07-1.37,0.18-2.07s0.28-1.37,0.52-2.01c0.23-0.65,0.52-1.25,0.87-1.82s0.78-1.06,1.27-1.49
				c0.49-0.42,1.05-0.75,1.69-0.99c0.63-0.24,1.34-0.36,2.13-0.36c0.79,0,1.5,0.12,2.14,0.36c0.64,0.24,1.2,0.57,1.69,0.99
				c0.49,0.42,0.91,0.91,1.27,1.48c0.35,0.56,0.65,1.17,0.89,1.82c0.23,0.65,0.4,1.32,0.51,2.02c0.11,0.7,0.17,1.39,0.18,2.07v2.18
				C117.97-142.9,117.91-142.21,117.8-141.51z M115.49-147.21c-0.05-0.49-0.14-0.99-0.26-1.48c-0.13-0.48-0.3-0.94-0.51-1.38
				c-0.21-0.44-0.47-0.83-0.79-1.17c-0.31-0.33-0.69-0.6-1.12-0.79c-0.43-0.2-0.93-0.3-1.5-0.3c-0.56,0-1.05,0.1-1.48,0.3
				s-0.8,0.47-1.12,0.8c-0.31,0.34-0.58,0.73-0.79,1.17c-0.21,0.44-0.38,0.9-0.5,1.38c-0.13,0.49-0.23,0.98-0.28,1.48
				s-0.09,0.96-0.1,1.41v2.21c0.01,0.45,0.04,0.92,0.1,1.42c0.06,0.5,0.15,0.99,0.28,1.47c0.13,0.49,0.3,0.96,0.51,1.4
				c0.21,0.45,0.47,0.84,0.79,1.17c0.31,0.34,0.69,0.61,1.12,0.81c0.43,0.2,0.93,0.3,1.5,0.3c0.57,0,1.07-0.1,1.5-0.3
				c0.43-0.2,0.81-0.47,1.12-0.81c0.31-0.33,0.56-0.72,0.77-1.16c0.21-0.44,0.37-0.91,0.51-1.4c0.12-0.48,0.21-0.97,0.26-1.47
				c0.05-0.5,0.08-0.97,0.09-1.43v-2.21C115.57-146.24,115.54-146.71,115.49-147.21z"/>
			<path class="st3" d="M124.19-142.92v7.79h-2.41v-19.11h5.6c0.89,0.02,1.73,0.14,2.52,0.38c0.79,0.24,1.48,0.59,2.07,1.06
				c0.59,0.47,1.05,1.07,1.38,1.78s0.51,1.55,0.51,2.51c0,0.62-0.09,1.19-0.27,1.71c-0.18,0.52-0.43,0.98-0.74,1.4
				s-0.69,0.79-1.13,1.12c-0.44,0.32-0.92,0.6-1.44,0.83l4.05,8.16l-0.01,0.16h-2.56l-3.75-7.79H124.19z M127.44-144.92
				c0.54-0.01,1.05-0.09,1.54-0.26c0.48-0.16,0.91-0.4,1.27-0.7c0.36-0.31,0.64-0.68,0.85-1.12c0.21-0.44,0.31-0.95,0.31-1.53
				c0-0.61-0.1-1.15-0.3-1.61s-0.48-0.85-0.84-1.16c-0.36-0.31-0.79-0.54-1.28-0.7c-0.49-0.16-1.03-0.24-1.62-0.25h-3.19v7.32
				H127.44z"/>
			<path class="st3" d="M153.91-154.23h5.68c0.79,0.01,1.56,0.11,2.31,0.31c0.75,0.2,1.42,0.5,2.01,0.91
				c0.59,0.41,1.05,0.94,1.4,1.58c0.35,0.64,0.52,1.4,0.51,2.3c-0.01,0.5-0.09,0.95-0.24,1.37c-0.15,0.41-0.36,0.78-0.62,1.1
				c-0.27,0.33-0.57,0.61-0.9,0.84c-0.33,0.23-0.72,0.44-1.19,0.64v0.04c0.48,0.11,0.94,0.32,1.39,0.62c0.45,0.3,0.81,0.62,1.1,0.98
				c0.31,0.39,0.54,0.83,0.72,1.33c0.17,0.49,0.26,1.02,0.26,1.59c0.01,0.89-0.16,1.68-0.51,2.36c-0.35,0.68-0.82,1.25-1.4,1.71
				c-0.59,0.46-1.26,0.82-2.03,1.06c-0.77,0.25-1.55,0.37-2.37,0.38h-6.11V-154.23z M159.74-146.08c0.46-0.01,0.9-0.08,1.34-0.22
				c0.44-0.13,0.83-0.33,1.17-0.6c0.34-0.25,0.62-0.57,0.83-0.94s0.31-0.81,0.31-1.31c0-0.53-0.1-0.99-0.31-1.36
				c-0.21-0.38-0.48-0.69-0.82-0.93c-0.35-0.24-0.75-0.41-1.2-0.52c-0.45-0.11-0.91-0.17-1.38-0.18h-3.32v6.08H159.74z
				 M156.35-137.19h3.74c0.51-0.01,0.99-0.09,1.44-0.26c0.45-0.16,0.86-0.39,1.21-0.68c0.35-0.29,0.63-0.64,0.83-1.06
				s0.31-0.9,0.31-1.43c0.01-0.54-0.08-1.02-0.27-1.44c-0.19-0.42-0.45-0.78-0.78-1.08c-0.33-0.29-0.72-0.51-1.17-0.67
				c-0.45-0.16-0.93-0.24-1.44-0.26h-3.87V-137.19z"/>
			<path class="st3" d="M182.31-141.51c-0.11,0.7-0.28,1.37-0.51,2.01s-0.52,1.25-0.87,1.81s-0.78,1.05-1.27,1.47
				c-0.49,0.42-1.05,0.75-1.69,0.99s-1.34,0.36-2.13,0.36c-0.79,0-1.5-0.12-2.13-0.36s-1.2-0.57-1.69-0.99s-0.91-0.91-1.27-1.48
				c-0.36-0.56-0.65-1.17-0.88-1.82c-0.24-0.65-0.41-1.32-0.52-2.01c-0.11-0.69-0.18-1.38-0.18-2.06v-2.18
				c0.01-0.68,0.07-1.37,0.18-2.07s0.28-1.37,0.52-2.01c0.23-0.65,0.52-1.25,0.87-1.82s0.78-1.06,1.27-1.49
				c0.49-0.42,1.05-0.75,1.69-0.99c0.63-0.24,1.34-0.36,2.13-0.36c0.79,0,1.5,0.12,2.14,0.36c0.64,0.24,1.2,0.57,1.69,0.99
				c0.49,0.42,0.91,0.91,1.27,1.48c0.35,0.56,0.65,1.17,0.89,1.82c0.23,0.65,0.4,1.32,0.51,2.02c0.11,0.7,0.17,1.39,0.18,2.07v2.18
				C182.48-142.9,182.42-142.21,182.31-141.51z M180-147.21c-0.05-0.49-0.14-0.99-0.26-1.48c-0.13-0.48-0.3-0.94-0.51-1.38
				c-0.21-0.44-0.47-0.83-0.79-1.17c-0.31-0.33-0.69-0.6-1.12-0.79c-0.43-0.2-0.93-0.3-1.5-0.3c-0.56,0-1.05,0.1-1.48,0.3
				s-0.8,0.47-1.12,0.8c-0.31,0.34-0.58,0.73-0.79,1.17c-0.21,0.44-0.38,0.9-0.5,1.38c-0.13,0.49-0.23,0.98-0.28,1.48
				s-0.09,0.96-0.1,1.41v2.21c0.01,0.45,0.04,0.92,0.1,1.42c0.06,0.5,0.15,0.99,0.28,1.47c0.13,0.49,0.3,0.96,0.51,1.4
				c0.21,0.45,0.47,0.84,0.79,1.17c0.31,0.34,0.69,0.61,1.12,0.81c0.43,0.2,0.93,0.3,1.5,0.3c0.57,0,1.07-0.1,1.5-0.3
				c0.43-0.2,0.81-0.47,1.12-0.81c0.31-0.33,0.56-0.72,0.77-1.16c0.21-0.44,0.37-0.91,0.51-1.4c0.12-0.48,0.21-0.97,0.26-1.47
				c0.05-0.5,0.08-0.97,0.09-1.43v-2.21C180.08-146.24,180.05-146.71,180-147.21z"/>
			<path class="st3" d="M185.94-154.23h4.42c0.74,0.01,1.45,0.08,2.11,0.23s1.27,0.35,1.83,0.61c0.78,0.36,1.47,0.83,2.07,1.41
				c0.6,0.58,1.08,1.25,1.44,2.01c0.32,0.65,0.57,1.36,0.74,2.13c0.17,0.77,0.26,1.59,0.27,2.47v1.4c0,0.84-0.08,1.64-0.24,2.39
				c-0.16,0.75-0.4,1.44-0.7,2.07c-0.31,0.66-0.71,1.25-1.19,1.78c-0.48,0.53-1.02,0.99-1.61,1.37c-0.63,0.39-1.34,0.7-2.13,0.91
				c-0.79,0.21-1.65,0.32-2.57,0.33h-4.42V-154.23z M188.41-137.11h1.96c0.7-0.01,1.34-0.1,1.91-0.26c0.57-0.17,1.08-0.4,1.53-0.71
				c0.47-0.32,0.88-0.7,1.23-1.16c0.35-0.46,0.62-0.97,0.82-1.54c0.17-0.46,0.31-0.96,0.39-1.5s0.14-1.1,0.14-1.69v-1.43
				c-0.01-0.59-0.06-1.17-0.15-1.71c-0.09-0.55-0.23-1.06-0.41-1.53c-0.24-0.61-0.55-1.17-0.95-1.66s-0.89-0.89-1.46-1.2
				c-0.41-0.23-0.87-0.4-1.38-0.53s-1.06-0.2-1.67-0.2h-1.96V-137.11z"/>
			<path class="st3" d="M212.3-154.23h2.76l-5.94,11.98l-0.04,7.12h-2.26l-0.04-7.12l-5.94-11.98h2.77l4.34,9.59L212.3-154.23z"/>
			<path class="st3" d="M237.22-135.13h-2.43v-19.11h6.19c0.86,0.02,1.67,0.15,2.43,0.41c0.77,0.25,1.44,0.62,2.01,1.1
				c0.58,0.48,1.03,1.08,1.37,1.79c0.34,0.71,0.51,1.52,0.51,2.44c0,0.92-0.17,1.73-0.51,2.43c-0.34,0.71-0.79,1.3-1.37,1.78
				c-0.58,0.48-1.25,0.85-2.01,1.1c-0.77,0.25-1.58,0.38-2.43,0.39h-3.77V-135.13z M240.99-144.79c0.56-0.01,1.08-0.1,1.55-0.27
				c0.47-0.17,0.88-0.41,1.23-0.73c0.35-0.31,0.62-0.7,0.82-1.15c0.2-0.45,0.3-0.96,0.3-1.54c0-0.58-0.1-1.1-0.3-1.56
				s-0.47-0.86-0.81-1.18c-0.35-0.32-0.76-0.57-1.24-0.75c-0.48-0.17-1-0.27-1.56-0.28h-3.77v7.45H240.99z"/>
			<path class="st3" d="M253.44-140.07l-1.54,4.95h-2.43l6.17-19.11h2.03l6.06,19.11h-2.41l-1.51-4.95H253.44z M259.17-142.19
				l-2.52-8.29l-2.56,8.29H259.17z"/>
			<path class="st3" d="M269.33-142.92v7.79h-2.41v-19.11h5.6c0.89,0.02,1.73,0.14,2.52,0.38c0.79,0.24,1.48,0.59,2.07,1.06
				c0.59,0.47,1.05,1.07,1.38,1.78s0.51,1.55,0.51,2.51c0,0.62-0.09,1.19-0.27,1.71c-0.18,0.52-0.43,0.98-0.74,1.4
				s-0.69,0.79-1.13,1.12c-0.44,0.32-0.92,0.6-1.44,0.83l4.05,8.16l-0.01,0.16h-2.56l-3.75-7.79H269.33z M272.58-144.92
				c0.54-0.01,1.05-0.09,1.54-0.26c0.48-0.16,0.91-0.4,1.27-0.7c0.36-0.31,0.64-0.68,0.85-1.12c0.21-0.44,0.31-0.95,0.31-1.53
				c0-0.61-0.1-1.15-0.3-1.61s-0.48-0.85-0.84-1.16c-0.36-0.31-0.79-0.54-1.28-0.7c-0.49-0.16-1.03-0.24-1.62-0.25h-3.19v7.32
				H272.58z"/>
			<path class="st3" d="M289.93-152.16v17.03h-2.36v-17.03h-5.91v-2.07h14.17v2.07H289.93z"/>
			<path class="st3" d="M308.68-141.44c-0.27-0.4-0.61-0.74-1.03-1.02c-0.42-0.27-0.88-0.5-1.38-0.68s-0.99-0.35-1.45-0.5
				c-0.67-0.22-1.36-0.48-2.05-0.79s-1.33-0.68-1.9-1.12c-0.58-0.45-1.05-0.97-1.41-1.58c-0.36-0.61-0.54-1.32-0.54-2.15
				s0.18-1.56,0.54-2.21c0.36-0.65,0.84-1.19,1.42-1.64c0.59-0.45,1.25-0.79,1.99-1.02c0.74-0.23,1.49-0.35,2.24-0.35
				c0.83,0,1.63,0.14,2.4,0.41c0.77,0.28,1.45,0.66,2.05,1.16c0.59,0.5,1.07,1.1,1.43,1.81c0.36,0.71,0.55,1.5,0.56,2.38h-2.49
				c-0.07-0.55-0.21-1.05-0.41-1.5c-0.2-0.45-0.47-0.84-0.8-1.16c-0.33-0.32-0.73-0.58-1.19-0.75c-0.46-0.18-0.98-0.27-1.56-0.27
				c-0.46,0-0.92,0.07-1.36,0.2c-0.44,0.13-0.83,0.33-1.17,0.59c-0.35,0.26-0.63,0.59-0.83,0.97s-0.31,0.83-0.31,1.34
				c0.01,0.55,0.15,1.02,0.42,1.4c0.27,0.38,0.62,0.7,1.04,0.96c0.41,0.26,0.86,0.48,1.35,0.66s0.94,0.33,1.37,0.46
				c0.71,0.22,1.42,0.48,2.13,0.79s1.36,0.71,1.94,1.19c0.58,0.45,1.04,0.99,1.4,1.64c0.35,0.65,0.53,1.4,0.53,2.24
				c0,0.86-0.19,1.61-0.57,2.24c-0.38,0.64-0.87,1.17-1.48,1.59c-0.6,0.43-1.29,0.75-2.05,0.96c-0.76,0.21-1.52,0.32-2.28,0.32
				c-0.91,0-1.8-0.15-2.68-0.46c-0.88-0.31-1.64-0.75-2.29-1.33c-0.58-0.5-1.03-1.08-1.37-1.75c-0.34-0.67-0.52-1.41-0.54-2.24h2.48
				c0.08,0.6,0.24,1.12,0.49,1.58c0.24,0.46,0.56,0.85,0.94,1.16c0.38,0.32,0.83,0.57,1.33,0.73c0.5,0.16,1.05,0.24,1.65,0.24
				c0.47,0,0.94-0.06,1.4-0.18s0.87-0.3,1.23-0.56c0.36-0.25,0.65-0.56,0.88-0.94s0.34-0.83,0.34-1.36
				C309.08-140.54,308.94-141.04,308.68-141.44z"/>
			<path class="st3" d="M319.9-138.03c0.31-0.37,0.79-0.55,1.43-0.55c0.63,0,1.11,0.18,1.44,0.54s0.49,0.81,0.49,1.33
				c0,0.52-0.17,0.95-0.5,1.3s-0.81,0.52-1.43,0.52c-0.63,0-1.1-0.18-1.42-0.53s-0.48-0.79-0.48-1.29
				C319.43-137.22,319.59-137.66,319.9-138.03z"/>
		</g>
	</g>
</g>
</svg>
