<?xml version="1.0" encoding="utf-8"?>
<!-- Generator: Adobe Illustrator 28.2.0, SVG Export Plug-In . SVG Version: 6.00 Build 0)  -->
<svg version="1.1" id="Layer_1" xmlns="http://www.w3.org/2000/svg" xmlns:xlink="http://www.w3.org/1999/xlink" x="0px" y="0px"
	 viewBox="0 0 900 380" style="enable-background:new 0 0 900 380;" xml:space="preserve">
<style type="text/css">
	.st0{opacity:0.3;}
	.st1{fill:#FF1A56;}
	.st2{fill:#1717E2;}
</style>
<text transform="matrix(1 0 0 1 88.478 -372.6642)" style="font-family:'MyriadPro-Regular'; font-size:12px;">A paraphilia involving licking the eyeballs.</text>
<g class="st0">
	<path class="st1" d="M73.39,588.78l0.62-2.8c11.68-0.93,13.55-3.58,27.73-26.48l51.72-83.19c3.27-0.31,6.7-2.03,8.88-4.83h0.62
		l14.64,100.64c1.71,11.68,2.34,12.93,12.46,13.87l-0.62,2.8H146.3l0.78-2.8c11.06-1.25,15.27-2.03,14.18-10.44l-3.27-23.52h-43.62
		l-1.25,2.18c-17.92,29.13-16.67,30.54-3.74,31.78l-0.62,2.8H73.39z M150.04,494.52l-29.91,48.3h36.61L150.04,494.52z"/>
	<path class="st1" d="M219.21,533.63c4.36-15.27,4.36-17.76-8.1-17.76l0.78-2.8l30.85-9.5l-15.42,55.77
		c-4.52,16.05-4.05,20.25,1.09,20.25c11.06,0,30.69-38.01,36.14-59.82l3.74-14.8h15.89l-17.14,66.37
		c-1.56,5.76-2.34,10.13,2.34,10.13c3.74,0,12.46-5.14,19.32-16.51l2.49,1.56c-8.72,15.89-20.56,24.3-29.6,24.3
		c-10.75,0-12.46-7.79-8.88-22.75l4.36-18.38c-13.55,27.89-24.15,41.13-35.36,41.13c-10.91,0-15.89-10.91-11.06-27.73L219.21,533.63
		z"/>
	<path class="st1" d="M337.29,503.71l-3.74,15.27c9.19-9.5,19.16-15.42,30.54-15.42c0.78,0,1.71,0.16,2.49,0.16l-4.99,19.63h-1.56
		c-3.12-2.8-8.26-4.83-13.87-4.83c-4.99,0-9.81,0.93-13.55,3.9l-16.05,66.37h-15.89l13.71-55.15c3.89-15.42,4.36-17.76-8.1-17.76
		l0.78-2.8L337.29,503.71z"/>
	<path class="st1" d="M384.34,590.8c-11.37,0-18.23-8.88-18.23-24.15c0-28.51,27.42-63.1,51.88-63.1c3.58,0,9.04,0.93,12,3.12
		l16.36-3.12l-8.72,34.12l-8.41,33.65c-1.4,5.76-2.34,10.13,2.34,10.13c3.74,0,12.46-5.14,19.32-16.51l2.49,1.56
		c-8.72,15.89-20.56,24.3-29.6,24.3c-10.44,0-13.4-8.1-9.35-22.75l4.05-14.49C410.05,574.6,397.43,590.8,384.34,590.8z
		 M392.6,579.43c12,0,27.11-32.56,33.81-59.51l1.4-5.76c-1.71-2.65-5.76-4.99-9.97-4.99c-21.5,0-33.65,33.34-33.65,54.06
		C384.18,573.51,386.68,579.43,392.6,579.43z"/>
	<path class="st1" d="M485.6,493.74c3.9-15.42,4.36-17.76-8.1-17.76l0.78-2.8l30.69-9.5l-8.72,34.12l-18.23,73.53
		c-1.4,5.76-2.34,10.13,2.34,10.13c3.74,0,12.46-5.14,19.32-16.51l2.49,1.56c-8.72,15.89-20.56,24.3-29.6,24.3
		c-10.75,0-13.09-7.95-9.35-22.75L485.6,493.74z"/>
	<path class="st1" d="M527.35,533.63c3.74-15.42,4.36-17.76-8.1-17.76l0.78-2.8l30.85-9.5c-2.18,8.26-4.99,18.07-8.88,34.12
		l-8.26,33.65c-1.4,5.76-2.34,10.13,2.34,10.13c3.74,0,12.46-5.14,19.32-16.51l2.49,1.56c-8.72,15.89-20.56,24.3-29.6,24.3
		c-10.75,0-12.93-7.95-9.35-22.75L527.35,533.63z M557.88,478.32c0,6.08-4.83,10.59-10.91,10.59s-11.06-4.52-11.06-10.59
		c0-5.92,4.99-10.59,11.06-10.59S557.88,472.4,557.88,478.32z"/>
	<path class="st1" d="M618.33,566.19c0,16.2-16.83,24.62-32.87,24.62c-10.28,0-18.85-2.49-23.68-5.61l8.88-29.45h2.96
		c-3.12,19.79-0.62,29.45,13.24,29.45c7.01,0,16.05-4.36,16.05-14.33c0-4.67-2.03-9.35-4.83-13.09l-7.48-9.81
		c-4.83-6.23-10.28-13.55-10.28-21.81c0-14.96,17.29-22.59,31.31-22.59c9.04,0,16.36,2.8,20.25,5.14l-8.26,26.02h-3.12
		c4.05-19.32-0.47-25.55-11.84-25.55c-6.23,0-13.55,3.43-13.55,12c0,4.52,2.96,8.88,5.92,13.09l7.17,9.81
		C614.75,553.1,618.33,559.02,618.33,566.19z"/>
	<path class="st1" d="M737.97,590.8c-10.44,0-13.71-8.1-9.35-22.75l9.66-32.87c4.83-16.05,4.21-20.41-0.62-20.41
		c-10.59,0-29.13,32.56-36.46,59.67l-3.89,14.33h-15.27l14.18-53.59c4.36-16.2,4.21-20.41-0.62-20.41
		c-11.37,0-31.16,38.17-36.61,59.82l-3.58,14.18h-15.42l13.87-55.15c3.89-15.42,4.36-17.76-8.1-17.76l0.78-2.8l30.22-9.35
		l-10.28,40.66c13.71-27.89,24.15-40.82,35.99-40.82c10.28,0,15.27,9.97,10.44,27.89l-2.49,9.19
		c12.77-25.24,22.75-37.08,34.12-37.08c10.28,0,15.58,9.97,10.44,27.89l-11.53,39.88c-1.71,5.61-2.34,10.13,2.34,10.13
		c3.74,0,12.46-5.14,19.32-16.51l2.49,1.56C758.85,582.39,747.01,590.8,737.97,590.8z"/>
	<path class="st1" d="M795.3,590.8c-6.08,0-11.22-5.14-11.22-11.22c0-6.08,5.14-11.22,11.22-11.22c6.08,0,11.22,5.14,11.22,11.22
		C806.51,585.66,801.37,590.8,795.3,590.8z"/>
</g>
<g>
	<g>
		<g>
			<path class="st2" d="M146.22,500.3l-2.45-10.01l-1.74,10.01h-2.91l2.66-15.35h2.86l2.41,9.96l1.75-9.96h2.9l-2.67,15.35H146.22z"
				/>
			<path class="st2" d="M163.04,495.44c-0.18,0.56-0.4,1.1-0.66,1.6c-0.27,0.51-0.59,0.98-0.95,1.41c-0.36,0.43-0.77,0.8-1.23,1.11
				c-0.46,0.31-0.96,0.55-1.51,0.72c-0.55,0.17-1.15,0.25-1.79,0.23c-0.61-0.01-1.15-0.12-1.63-0.31s-0.88-0.46-1.23-0.79
				c-0.35-0.32-0.64-0.7-0.86-1.13c-0.22-0.43-0.4-0.9-0.52-1.4c-0.12-0.49-0.19-1-0.21-1.54c-0.02-0.53,0-1.07,0.07-1.59l0.35-2.24
				c0.08-0.56,0.21-1.12,0.38-1.68c0.17-0.56,0.39-1.09,0.65-1.6c0.25-0.51,0.56-0.98,0.91-1.41s0.75-0.81,1.19-1.13
				c0.44-0.31,0.94-0.55,1.48-0.72c0.54-0.17,1.13-0.25,1.77-0.24c0.62,0.01,1.17,0.12,1.65,0.31c0.48,0.19,0.9,0.45,1.27,0.77
				c0.36,0.33,0.66,0.71,0.9,1.14c0.24,0.43,0.43,0.89,0.56,1.39c0.13,0.5,0.2,1.02,0.23,1.56c0.03,0.54,0.01,1.08-0.06,1.61
				l-0.35,2.22C163.35,494.31,163.21,494.87,163.04,495.44z M160.94,490.63c0.02-0.31,0.02-0.62,0.01-0.94
				c-0.02-0.31-0.07-0.61-0.14-0.91c-0.07-0.29-0.18-0.56-0.33-0.79c-0.15-0.23-0.34-0.42-0.58-0.57c-0.24-0.15-0.54-0.23-0.9-0.24
				c-0.39-0.01-0.73,0.04-1.02,0.16s-0.55,0.29-0.77,0.51c-0.23,0.22-0.42,0.48-0.58,0.78c-0.16,0.29-0.3,0.6-0.4,0.92
				c-0.11,0.32-0.2,0.65-0.27,0.99s-0.13,0.65-0.17,0.95l-0.35,2.27c-0.04,0.25-0.06,0.52-0.09,0.82c-0.02,0.3-0.03,0.61-0.03,0.93
				c0,0.32,0.03,0.62,0.08,0.93c0.06,0.3,0.15,0.57,0.29,0.81c0.13,0.24,0.31,0.43,0.54,0.58c0.23,0.15,0.52,0.23,0.88,0.25
				c0.38,0.01,0.72-0.04,1.02-0.16s0.57-0.29,0.81-0.51c0.23-0.22,0.44-0.47,0.61-0.77c0.18-0.3,0.33-0.61,0.45-0.94
				c0.12-0.32,0.22-0.65,0.3-0.99c0.08-0.34,0.14-0.66,0.19-0.96l0.35-2.27C160.89,491.22,160.92,490.94,160.94,490.63z"/>
			<path class="st2" d="M175.43,495.11c-0.12,0.79-0.33,1.53-0.64,2.19c-0.31,0.67-0.71,1.24-1.2,1.72
				c-0.49,0.49-1.07,0.86-1.75,1.12s-1.43,0.38-2.26,0.36c-0.77-0.01-1.44-0.17-2-0.46s-1.01-0.68-1.35-1.18
				c-0.34-0.49-0.58-1.05-0.72-1.7c-0.13-0.65-0.16-1.33-0.07-2.05l1.74-10.19h2.89l-1.71,10.19c-0.04,0.3-0.05,0.62-0.05,0.96
				s0.05,0.66,0.15,0.95c0.09,0.29,0.24,0.54,0.46,0.74c0.21,0.2,0.52,0.31,0.91,0.33c0.44,0.02,0.81-0.05,1.13-0.23
				c0.32-0.17,0.58-0.4,0.8-0.69c0.21-0.29,0.38-0.62,0.51-0.98c0.13-0.37,0.22-0.73,0.27-1.1l1.74-10.19h2.87L175.43,495.11z"/>
			<path class="st2" d="M184.24,500.3l-2.45-10.01l-1.74,10.01h-2.91l2.66-15.35h2.86l2.41,9.96l1.75-9.96h2.9l-2.67,15.35H184.24z"
				/>
			<path class="st2" d="M144.67,552.13v-11.78l-3.88,1.39v-2.55l6.69-2.42h0.16v15.35H144.67z"/>
			<path class="st2" d="M156.91,549.06c0.36-0.38,0.86-0.56,1.5-0.56c0.63,0,1.13,0.19,1.49,0.56c0.36,0.37,0.54,0.83,0.54,1.38
				c0,0.55-0.18,1-0.55,1.37c-0.37,0.36-0.86,0.54-1.48,0.54c-0.63,0-1.12-0.18-1.49-0.55c-0.37-0.37-0.55-0.82-0.55-1.36
				C156.37,549.89,156.55,549.43,156.91,549.06z"/>
			<path class="st2" d="M178.17,536.78h3.27l2.6,10.03l0.26,1.03l0.29-1.04l2.61-10.02h3.27l-4.65,15.35h-3.02L178.17,536.78z"/>
			<path class="st2" d="M195.33,545.4v4.33h7.37v2.39h-10.34v-15.35h10.31v2.42h-7.34v3.87h6.31v2.34H195.33z"/>
			<path class="st2" d="M208.11,546.39v5.74h-2.96v-15.35h5.15c0.85,0,1.62,0.1,2.31,0.3c0.69,0.2,1.28,0.49,1.77,0.88
				c0.48,0.39,0.86,0.87,1.12,1.45c0.26,0.58,0.4,1.24,0.4,2c0,0.55-0.07,1.04-0.2,1.48s-0.31,0.83-0.55,1.18
				c-0.25,0.35-0.54,0.66-0.88,0.92s-0.72,0.48-1.14,0.67l3.3,6.34v0.14h-3.17l-2.89-5.74H208.11z M210.3,543.99
				c0.46,0,0.86-0.06,1.21-0.19c0.35-0.13,0.63-0.32,0.85-0.56c0.18-0.2,0.32-0.43,0.42-0.71c0.09-0.27,0.14-0.58,0.14-0.92
				c0-0.41-0.06-0.77-0.18-1.08c-0.12-0.31-0.31-0.57-0.55-0.78c-0.22-0.18-0.49-0.32-0.8-0.42c-0.32-0.1-0.68-0.15-1.09-0.15h-2.18
				v4.81H210.3z"/>
			<path class="st2" d="M218.04,536.78h3.98c0.71,0,1.37,0.09,1.99,0.26c0.62,0.17,1.18,0.42,1.69,0.73
				c0.44,0.26,0.84,0.58,1.19,0.95s0.65,0.79,0.91,1.23c0.3,0.54,0.54,1.14,0.7,1.79c0.17,0.65,0.25,1.35,0.25,2.09v1.26
				c0,0.71-0.08,1.38-0.23,2.01c-0.15,0.63-0.37,1.21-0.65,1.74c-0.27,0.47-0.58,0.91-0.94,1.3c-0.36,0.4-0.75,0.73-1.18,1
				c-0.5,0.32-1.05,0.56-1.65,0.73c-0.6,0.17-1.24,0.25-1.92,0.25h-4.12V536.78z M221.03,549.75h1.14c0.37,0,0.71-0.04,1.02-0.14
				c0.32-0.09,0.6-0.22,0.86-0.4c0.27-0.18,0.51-0.42,0.72-0.7c0.21-0.29,0.4-0.62,0.55-1c0.13-0.33,0.22-0.7,0.29-1.1
				s0.1-0.84,0.1-1.31v-1.29c0-0.44-0.03-0.86-0.1-1.26s-0.16-0.76-0.29-1.09c-0.15-0.39-0.36-0.75-0.61-1.05s-0.54-0.56-0.87-0.76
				c-0.25-0.15-0.53-0.26-0.84-0.34s-0.64-0.12-1-0.12h-0.99V549.75z"/>
			<path class="st2" d="M185.29,564.36v13.69h-1.9v-13.69h-4.75v-1.67h11.39v1.67H185.29z"/>
			<path class="st2" d="M200.42,578.04v-7.1h-6.3v7.1h-1.83v-15.35h1.83v6.6h6.3v-6.6h1.85v15.35H200.42z"/>
			<path class="st2" d="M207.63,570.95v5.44h7.48v1.66h-9.43v-15.35h9.33v1.67h-7.38v4.94h6.41v1.66H207.63z"/>
			<path class="st2" d="M233.72,574.07l-1.23,3.98h-1.95l4.96-15.35h1.63l4.87,15.35h-1.94l-1.21-3.98H233.72z M238.33,572.37
				l-2.02-6.67l-2.06,6.67H238.33z"/>
			<path class="st2" d="M253.87,575.38c-0.27,0.59-0.63,1.1-1.06,1.52c-0.44,0.43-0.96,0.76-1.57,1c-0.6,0.24-1.27,0.35-2.01,0.35
				c-0.63,0-1.21-0.09-1.72-0.27c-0.52-0.18-0.98-0.43-1.38-0.74c-0.41-0.32-0.76-0.69-1.05-1.12c-0.29-0.43-0.53-0.9-0.72-1.4
				c-0.2-0.51-0.34-1.04-0.44-1.59c-0.09-0.55-0.15-1.12-0.15-1.69v-2.14c0.01-0.57,0.06-1.13,0.15-1.69s0.24-1.09,0.44-1.59
				c0.19-0.51,0.43-0.97,0.72-1.41c0.29-0.43,0.64-0.81,1.05-1.12c0.4-0.32,0.86-0.56,1.37-0.74c0.51-0.18,1.09-0.27,1.73-0.27
				c0.77,0,1.45,0.12,2.06,0.35s1.12,0.57,1.56,1c0.44,0.44,0.79,0.96,1.05,1.56c0.26,0.61,0.44,1.27,0.52,2h-1.95
				c-0.06-0.46-0.17-0.9-0.33-1.3s-0.36-0.75-0.62-1.05c-0.26-0.3-0.58-0.54-0.95-0.71c-0.38-0.17-0.82-0.26-1.33-0.26
				c-0.46,0-0.87,0.08-1.23,0.23s-0.66,0.36-0.91,0.62c-0.26,0.26-0.48,0.56-0.65,0.91s-0.31,0.71-0.42,1.1s-0.18,0.78-0.23,1.19
				s-0.07,0.8-0.07,1.18v2.16c0,0.38,0.02,0.77,0.07,1.17c0.05,0.41,0.12,0.8,0.23,1.19c0.11,0.39,0.24,0.76,0.41,1.11
				c0.17,0.34,0.38,0.65,0.64,0.91c0.26,0.27,0.57,0.48,0.92,0.63c0.35,0.15,0.76,0.23,1.23,0.23c0.51,0,0.96-0.08,1.33-0.24
				c0.38-0.16,0.69-0.39,0.95-0.69c0.26-0.29,0.47-0.63,0.62-1.03c0.15-0.4,0.26-0.83,0.33-1.29h1.95
				C254.33,574.14,254.15,574.79,253.87,575.38z"/>
			<path class="st2" d="M263.05,564.36v13.69h-1.9v-13.69h-4.75v-1.67h11.39v1.67H263.05z"/>
			<path class="st2" d="M293.2,572.91c-0.09,0.56-0.22,1.1-0.41,1.62c-0.18,0.52-0.42,1.01-0.7,1.46c-0.28,0.45-0.62,0.84-1.02,1.18
				s-0.85,0.6-1.35,0.8s-1.08,0.29-1.71,0.29c-0.63,0-1.2-0.1-1.71-0.29s-0.96-0.46-1.35-0.8s-0.73-0.73-1.02-1.19
				c-0.29-0.45-0.52-0.94-0.71-1.46c-0.19-0.52-0.33-1.06-0.42-1.61c-0.09-0.56-0.14-1.11-0.15-1.66v-1.75
				c0.01-0.55,0.05-1.1,0.14-1.66s0.23-1.1,0.42-1.62c0.18-0.52,0.42-1.01,0.7-1.46s0.62-0.85,1.02-1.2c0.39-0.34,0.85-0.6,1.35-0.8
				s1.08-0.29,1.71-0.29c0.63,0,1.21,0.1,1.72,0.29c0.51,0.19,0.97,0.46,1.36,0.8c0.39,0.34,0.73,0.73,1.02,1.19
				c0.28,0.45,0.52,0.94,0.71,1.46c0.18,0.52,0.32,1.06,0.41,1.62s0.14,1.12,0.14,1.67v1.75
				C293.34,571.8,293.29,572.36,293.2,572.91z M291.34,568.34c-0.04-0.4-0.11-0.79-0.21-1.19c-0.11-0.39-0.24-0.76-0.41-1.11
				c-0.17-0.35-0.38-0.67-0.63-0.94c-0.25-0.27-0.55-0.48-0.9-0.64c-0.34-0.16-0.75-0.24-1.2-0.24c-0.45,0-0.85,0.08-1.19,0.24
				c-0.34,0.16-0.64,0.38-0.9,0.64c-0.25,0.27-0.46,0.59-0.63,0.94c-0.17,0.35-0.3,0.73-0.4,1.11c-0.11,0.39-0.18,0.79-0.23,1.19
				c-0.05,0.4-0.07,0.77-0.08,1.13v1.77c0.01,0.36,0.03,0.74,0.08,1.14c0.05,0.4,0.12,0.79,0.23,1.18c0.11,0.39,0.24,0.77,0.41,1.13
				c0.17,0.36,0.38,0.67,0.63,0.94c0.25,0.27,0.55,0.49,0.9,0.65c0.34,0.16,0.75,0.24,1.2,0.24c0.46,0,0.86-0.08,1.21-0.24
				c0.35-0.16,0.65-0.38,0.9-0.65c0.25-0.27,0.45-0.58,0.62-0.93c0.17-0.36,0.3-0.73,0.41-1.12c0.1-0.39,0.17-0.78,0.21-1.18
				c0.04-0.4,0.06-0.78,0.07-1.15v-1.77C291.41,569.12,291.38,568.74,291.34,568.34z"/>
			<path class="st2" d="M298.47,571.26v6.78h-1.97v-15.35h9.43v1.67h-7.46v5.25h6.39v1.66H298.47z"/>
			<path class="st2" d="M331.95,576.39v1.66h-9.46v-15.35h1.95v13.7H331.95z"/>
			<path class="st2" d="M344.48,562.69v1.7h-3.68v11.97h3.68v1.69h-9.28v-1.69h3.6v-11.97h-3.6v-1.7H344.48z"/>
			<path class="st2" d="M357.55,575.38c-0.27,0.59-0.63,1.1-1.06,1.52c-0.44,0.43-0.96,0.76-1.57,1c-0.6,0.24-1.27,0.35-2.01,0.35
				c-0.63,0-1.21-0.09-1.72-0.27c-0.52-0.18-0.98-0.43-1.38-0.74c-0.41-0.32-0.76-0.69-1.05-1.12c-0.29-0.43-0.53-0.9-0.72-1.4
				c-0.2-0.51-0.34-1.04-0.44-1.59c-0.09-0.55-0.15-1.12-0.15-1.69v-2.14c0.01-0.57,0.06-1.13,0.15-1.69s0.24-1.09,0.44-1.59
				c0.19-0.51,0.43-0.97,0.72-1.41c0.29-0.43,0.64-0.81,1.05-1.12c0.4-0.32,0.86-0.56,1.37-0.74c0.51-0.18,1.09-0.27,1.73-0.27
				c0.77,0,1.45,0.12,2.06,0.35s1.12,0.57,1.56,1c0.44,0.44,0.79,0.96,1.05,1.56c0.26,0.61,0.44,1.27,0.52,2h-1.95
				c-0.06-0.46-0.17-0.9-0.33-1.3s-0.36-0.75-0.62-1.05c-0.26-0.3-0.58-0.54-0.95-0.71c-0.38-0.17-0.82-0.26-1.33-0.26
				c-0.46,0-0.87,0.08-1.23,0.23s-0.66,0.36-0.91,0.62c-0.26,0.26-0.48,0.56-0.65,0.91s-0.31,0.71-0.42,1.1s-0.18,0.78-0.23,1.19
				s-0.07,0.8-0.07,1.18v2.16c0,0.38,0.02,0.77,0.07,1.17c0.05,0.41,0.12,0.8,0.23,1.19c0.11,0.39,0.24,0.76,0.41,1.11
				c0.17,0.34,0.38,0.65,0.64,0.91c0.26,0.27,0.57,0.48,0.92,0.63c0.35,0.15,0.76,0.23,1.23,0.23c0.51,0,0.96-0.08,1.33-0.24
				c0.38-0.16,0.69-0.39,0.95-0.69c0.26-0.29,0.47-0.63,0.62-1.03c0.15-0.4,0.26-0.83,0.33-1.29h1.95
				C358.01,574.14,357.83,574.79,357.55,575.38z"/>
			<path class="st2" d="M363.09,572.86v5.19h-1.99v-15.35h1.99v7.5l1.49-1.86l4.5-5.64h2.37l-5.37,6.72l5.73,8.64h-2.37l-4.64-7.13
				L363.09,572.86z"/>
			<path class="st2" d="M383.36,562.69v1.7h-3.68v11.97h3.68v1.69h-9.28v-1.69h3.6v-11.97h-3.6v-1.7H383.36z"/>
			<path class="st2" d="M394.67,578.04l-5.96-11.47l-0.03,11.47h-1.97v-15.35h1.98l5.96,11.45l0.03-11.45h1.97v15.35H394.67z"/>
			<path class="st2" d="M409.17,576.8c-0.27,0.23-0.54,0.43-0.83,0.6c-0.49,0.29-1.02,0.51-1.59,0.66
				c-0.57,0.14-1.17,0.21-1.79,0.21c-0.63-0.01-1.21-0.1-1.75-0.29s-1.01-0.44-1.43-0.77c-0.42-0.32-0.79-0.71-1.11-1.15
				c-0.32-0.44-0.58-0.92-0.79-1.44c-0.22-0.51-0.38-1.05-0.49-1.62c-0.11-0.57-0.17-1.14-0.17-1.71v-1.78
				c0.01-0.57,0.06-1.14,0.15-1.7c0.09-0.57,0.24-1.11,0.44-1.63s0.44-1,0.74-1.45c0.29-0.45,0.65-0.83,1.06-1.17
				c0.41-0.32,0.87-0.58,1.39-0.77c0.52-0.19,1.1-0.29,1.75-0.29c0.72,0,1.38,0.11,1.98,0.33c0.6,0.22,1.13,0.54,1.58,0.94
				c0.45,0.42,0.81,0.91,1.09,1.49c0.27,0.58,0.44,1.23,0.51,1.95h-1.93c-0.08-0.44-0.2-0.85-0.36-1.23
				c-0.16-0.38-0.37-0.7-0.63-0.96c-0.27-0.27-0.58-0.48-0.95-0.63c-0.37-0.15-0.79-0.23-1.28-0.23c-0.46,0-0.88,0.08-1.23,0.24
				c-0.36,0.16-0.67,0.37-0.94,0.64c-0.27,0.27-0.49,0.58-0.66,0.93c-0.18,0.36-0.32,0.73-0.43,1.12c-0.11,0.39-0.19,0.79-0.24,1.2
				c-0.05,0.41-0.07,0.8-0.07,1.18v1.8c0.01,0.39,0.04,0.79,0.1,1.2c0.06,0.41,0.15,0.81,0.28,1.21s0.29,0.77,0.48,1.12
				s0.44,0.66,0.72,0.93c0.27,0.27,0.59,0.48,0.96,0.64s0.78,0.24,1.24,0.25c0.27,0.01,0.55,0,0.84-0.03
				c0.29-0.03,0.57-0.08,0.85-0.17c0.27-0.08,0.53-0.2,0.77-0.34c0.24-0.14,0.44-0.33,0.6-0.56l0.02-3.45h-3.12v-1.64h4.98
				l0.03,5.63C409.69,576.31,409.44,576.57,409.17,576.8z"/>
			<path class="st2" d="M433.94,562.69h2.21l-4.78,9.63l-0.03,5.73h-1.81l-0.03-5.73l-4.78-9.63h2.23l3.49,7.71L433.94,562.69z"/>
			<path class="st2" d="M448.72,572.91c-0.09,0.56-0.22,1.1-0.41,1.62c-0.18,0.52-0.42,1.01-0.7,1.46
				c-0.28,0.45-0.62,0.84-1.02,1.18s-0.85,0.6-1.35,0.8s-1.08,0.29-1.71,0.29c-0.63,0-1.2-0.1-1.71-0.29s-0.96-0.46-1.35-0.8
				s-0.73-0.73-1.02-1.19c-0.29-0.45-0.52-0.94-0.71-1.46c-0.19-0.52-0.33-1.06-0.42-1.61c-0.09-0.56-0.14-1.11-0.15-1.66v-1.75
				c0.01-0.55,0.05-1.1,0.14-1.66s0.23-1.1,0.42-1.62c0.18-0.52,0.42-1.01,0.7-1.46s0.62-0.85,1.02-1.2c0.39-0.34,0.85-0.6,1.35-0.8
				s1.08-0.29,1.71-0.29c0.63,0,1.21,0.1,1.72,0.29c0.51,0.19,0.97,0.46,1.36,0.8c0.39,0.34,0.73,0.73,1.02,1.19
				c0.28,0.45,0.52,0.94,0.71,1.46c0.18,0.52,0.32,1.06,0.41,1.62s0.14,1.12,0.14,1.67v1.75
				C448.85,571.8,448.81,572.36,448.72,572.91z M446.86,568.34c-0.04-0.4-0.11-0.79-0.21-1.19c-0.11-0.39-0.24-0.76-0.41-1.11
				c-0.17-0.35-0.38-0.67-0.63-0.94c-0.25-0.27-0.55-0.48-0.9-0.64c-0.34-0.16-0.75-0.24-1.2-0.24c-0.45,0-0.85,0.08-1.19,0.24
				c-0.34,0.16-0.64,0.38-0.9,0.64c-0.25,0.27-0.46,0.59-0.63,0.94c-0.17,0.35-0.3,0.73-0.4,1.11c-0.11,0.39-0.18,0.79-0.23,1.19
				c-0.05,0.4-0.07,0.77-0.08,1.13v1.77c0.01,0.36,0.03,0.74,0.08,1.14c0.05,0.4,0.12,0.79,0.23,1.18c0.11,0.39,0.24,0.77,0.41,1.13
				c0.17,0.36,0.38,0.67,0.63,0.94c0.25,0.27,0.55,0.49,0.9,0.65c0.34,0.16,0.75,0.24,1.2,0.24c0.46,0,0.86-0.08,1.21-0.24
				c0.35-0.16,0.65-0.38,0.9-0.65c0.25-0.27,0.45-0.58,0.62-0.93c0.17-0.36,0.3-0.73,0.41-1.12c0.1-0.39,0.17-0.78,0.21-1.18
				c0.04-0.4,0.06-0.78,0.07-1.15v-1.77C446.92,569.12,446.9,568.74,446.86,568.34z"/>
			<path class="st2" d="M461.49,573.09c0,0.72-0.13,1.39-0.38,2.01c-0.25,0.62-0.6,1.17-1.04,1.63c-0.44,0.47-0.97,0.84-1.58,1.11
				c-0.61,0.27-1.28,0.41-2.01,0.41c-0.75,0-1.42-0.13-2.04-0.4c-0.61-0.27-1.13-0.64-1.57-1.11c-0.44-0.46-0.78-1.01-1.02-1.64
				s-0.37-1.3-0.38-2.02l0.02-10.4h1.86l0.04,10.4c0.01,0.46,0.08,0.9,0.22,1.32c0.14,0.42,0.33,0.79,0.6,1.12
				c0.25,0.32,0.57,0.58,0.95,0.78c0.38,0.2,0.82,0.3,1.32,0.3s0.94-0.1,1.32-0.29s0.7-0.46,0.96-0.79c0.25-0.32,0.45-0.7,0.58-1.12
				c0.13-0.42,0.21-0.86,0.22-1.32l0.03-10.4h1.89L461.49,573.09z"/>
			<path class="st2" d="M466.81,571.78v6.26h-1.94v-15.35h4.5c0.72,0.01,1.39,0.12,2.02,0.31c0.63,0.19,1.19,0.47,1.67,0.85
				c0.47,0.38,0.84,0.86,1.11,1.43s0.41,1.25,0.41,2.02c0,0.5-0.07,0.96-0.22,1.37c-0.14,0.42-0.34,0.79-0.6,1.13
				s-0.55,0.64-0.91,0.9s-0.74,0.48-1.16,0.66l3.26,6.56l-0.01,0.13h-2.06l-3.02-6.26H466.81z M469.42,570.18
				c0.44-0.01,0.85-0.08,1.23-0.21c0.39-0.13,0.73-0.32,1.02-0.56c0.29-0.25,0.52-0.55,0.69-0.9c0.17-0.35,0.25-0.76,0.25-1.23
				c0-0.49-0.08-0.92-0.24-1.29c-0.16-0.37-0.39-0.68-0.67-0.93c-0.29-0.25-0.63-0.43-1.03-0.56c-0.4-0.13-0.83-0.19-1.3-0.2h-2.56
				v5.88H469.42z"/>
			<path class="st2" d="M492.84,578.04h-1.95v-15.35h4.98c0.69,0.01,1.34,0.12,1.96,0.33s1.16,0.5,1.62,0.89s0.83,0.87,1.1,1.43
				c0.27,0.57,0.41,1.22,0.41,1.96s-0.14,1.39-0.41,1.96c-0.27,0.57-0.64,1.04-1.1,1.43s-1,0.68-1.62,0.89
				c-0.62,0.2-1.27,0.31-1.96,0.32h-3.03V578.04z M495.87,570.28c0.45-0.01,0.86-0.08,1.24-0.22c0.38-0.14,0.71-0.33,0.99-0.59
				s0.5-0.56,0.66-0.92c0.16-0.36,0.24-0.77,0.24-1.24c0-0.46-0.08-0.88-0.24-1.25c-0.16-0.37-0.37-0.69-0.65-0.95
				c-0.28-0.26-0.61-0.46-1-0.6c-0.38-0.14-0.8-0.21-1.25-0.22h-3.03v5.99H495.87z"/>
			<path class="st2" d="M505.88,574.07l-1.23,3.98h-1.95l4.96-15.35h1.63l4.87,15.35h-1.94l-1.21-3.98H505.88z M510.49,572.37
				l-2.02-6.67l-2.06,6.67H510.49z"/>
			<path class="st2" d="M518.65,571.78v6.26h-1.94v-15.35h4.5c0.72,0.01,1.39,0.12,2.02,0.31c0.63,0.19,1.19,0.47,1.67,0.85
				c0.47,0.38,0.84,0.86,1.11,1.43s0.41,1.25,0.41,2.02c0,0.5-0.07,0.96-0.22,1.37c-0.14,0.42-0.34,0.79-0.6,1.13
				s-0.56,0.64-0.91,0.9s-0.74,0.48-1.16,0.66l3.26,6.56l-0.01,0.13h-2.06l-3.02-6.26H518.65z M521.26,570.18
				c0.44-0.01,0.85-0.08,1.23-0.21c0.39-0.13,0.73-0.32,1.02-0.56c0.29-0.25,0.52-0.55,0.69-0.9c0.17-0.35,0.25-0.76,0.25-1.23
				c0-0.49-0.08-0.92-0.24-1.29c-0.16-0.37-0.39-0.68-0.67-0.93c-0.29-0.25-0.63-0.43-1.03-0.56c-0.4-0.13-0.83-0.19-1.3-0.2h-2.56
				v5.88H521.26z"/>
			<path class="st2" d="M535.2,564.36v13.69h-1.9v-13.69h-4.75v-1.67h11.39v1.67H535.2z"/>
			<path class="st2" d="M550.19,578.04l-5.96-11.47l-0.03,11.47h-1.97v-15.35h1.98l5.96,11.45l0.03-11.45h1.97v15.35H550.19z"/>
			<path class="st2" d="M557.55,570.95v5.44h7.48v1.66h-9.43v-15.35h9.33v1.67h-7.38v4.94h6.41v1.66H557.55z"/>
			<path class="st2" d="M570.49,571.78v6.26h-1.94v-15.35h4.5c0.72,0.01,1.39,0.12,2.02,0.31c0.63,0.19,1.19,0.47,1.67,0.85
				c0.47,0.38,0.84,0.86,1.11,1.43s0.41,1.25,0.41,2.02c0,0.5-0.07,0.96-0.22,1.37c-0.14,0.42-0.34,0.79-0.6,1.13
				s-0.56,0.64-0.91,0.9s-0.74,0.48-1.16,0.66l3.26,6.56l-0.01,0.13h-2.06l-3.02-6.26H570.49z M573.1,570.18
				c0.44-0.01,0.85-0.08,1.23-0.21c0.39-0.13,0.73-0.32,1.02-0.56c0.29-0.25,0.52-0.55,0.69-0.9c0.17-0.35,0.25-0.76,0.25-1.23
				c0-0.49-0.08-0.92-0.24-1.29c-0.16-0.37-0.39-0.68-0.67-0.93c-0.29-0.25-0.63-0.43-1.03-0.56c-0.4-0.13-0.83-0.19-1.3-0.2h-2.56
				v5.88H573.1z"/>
			<path class="st2" d="M586.26,566.9h-1.46l0.01-3.71v-1.34h1.67v1.17L586.26,566.9z"/>
			<path class="st2" d="M602.11,572.97c-0.21-0.32-0.49-0.6-0.83-0.82c-0.34-0.22-0.71-0.4-1.11-0.55c-0.4-0.15-0.79-0.28-1.17-0.4
				c-0.54-0.18-1.09-0.39-1.65-0.64c-0.56-0.25-1.07-0.55-1.52-0.9c-0.46-0.36-0.84-0.78-1.13-1.27c-0.29-0.49-0.44-1.06-0.44-1.72
				s0.15-1.25,0.44-1.77c0.29-0.52,0.67-0.96,1.14-1.32s1.01-0.63,1.6-0.82c0.6-0.19,1.2-0.28,1.8-0.28c0.67,0,1.31,0.11,1.93,0.33
				c0.62,0.22,1.17,0.53,1.65,0.93c0.48,0.4,0.86,0.89,1.15,1.46c0.29,0.57,0.44,1.21,0.45,1.91h-2c-0.06-0.44-0.17-0.84-0.33-1.21
				c-0.16-0.36-0.38-0.67-0.64-0.93c-0.27-0.26-0.58-0.46-0.95-0.61c-0.37-0.14-0.79-0.22-1.25-0.22c-0.37,0-0.74,0.05-1.09,0.16
				c-0.35,0.11-0.67,0.26-0.94,0.47c-0.28,0.21-0.5,0.47-0.67,0.78s-0.25,0.67-0.25,1.08c0.01,0.44,0.12,0.82,0.34,1.12
				s0.5,0.56,0.83,0.77c0.33,0.21,0.69,0.39,1.08,0.53c0.39,0.14,0.76,0.26,1.1,0.37c0.57,0.18,1.14,0.39,1.71,0.64
				c0.57,0.25,1.09,0.57,1.56,0.95c0.46,0.36,0.84,0.8,1.12,1.32c0.28,0.52,0.43,1.12,0.43,1.8c0,0.69-0.15,1.29-0.46,1.8
				c-0.31,0.51-0.7,0.94-1.19,1.28c-0.49,0.34-1.03,0.6-1.65,0.78c-0.61,0.17-1.22,0.26-1.83,0.26c-0.73,0-1.45-0.12-2.16-0.37
				s-1.32-0.6-1.84-1.06c-0.46-0.4-0.83-0.87-1.1-1.41c-0.27-0.54-0.42-1.14-0.44-1.8h1.99c0.06,0.48,0.19,0.9,0.39,1.27
				c0.2,0.37,0.45,0.68,0.76,0.93c0.31,0.26,0.67,0.46,1.07,0.58s0.85,0.2,1.32,0.2c0.38,0,0.75-0.05,1.12-0.14s0.7-0.24,0.99-0.45
				c0.29-0.2,0.52-0.45,0.71-0.75s0.27-0.67,0.27-1.09C602.43,573.69,602.32,573.3,602.11,572.97z"/>
			<path class="st2" d="M622.35,570.95v5.44h7.48v1.66h-9.43v-15.35h9.33v1.67h-7.38v4.94h6.41v1.66H622.35z"/>
			<path class="st2" d="M641.3,562.69h2.21l-4.78,9.63l-0.03,5.73h-1.81l-0.03-5.73l-4.78-9.63h2.22l3.49,7.71L641.3,562.69z"/>
			<path class="st2" d="M648.27,570.95v5.44h7.48v1.66h-9.43v-15.35h9.33v1.67h-7.38v4.94h6.41v1.66H648.27z"/>
			<path class="st2" d="M659.17,562.69h4.57c0.63,0.01,1.25,0.09,1.86,0.25s1.14,0.4,1.61,0.73c0.47,0.33,0.85,0.75,1.13,1.27
				c0.28,0.51,0.42,1.13,0.41,1.85c-0.01,0.4-0.07,0.77-0.2,1.1c-0.12,0.33-0.29,0.63-0.5,0.89c-0.22,0.27-0.46,0.49-0.72,0.67
				s-0.58,0.35-0.96,0.52v0.03c0.39,0.09,0.76,0.26,1.12,0.5s0.65,0.5,0.89,0.79c0.25,0.32,0.44,0.67,0.58,1.06
				c0.14,0.39,0.21,0.82,0.21,1.28c0.01,0.72-0.13,1.35-0.41,1.9c-0.28,0.55-0.66,1-1.13,1.37c-0.47,0.37-1.01,0.66-1.63,0.85
				c-0.62,0.2-1.25,0.3-1.9,0.31h-4.91V562.69z M663.85,569.24c0.37-0.01,0.72-0.07,1.08-0.17c0.35-0.11,0.66-0.27,0.94-0.48
				c0.27-0.2,0.5-0.46,0.66-0.76c0.17-0.3,0.25-0.65,0.25-1.05c0-0.43-0.08-0.79-0.25-1.1s-0.38-0.55-0.66-0.75
				c-0.28-0.19-0.6-0.33-0.96-0.42c-0.36-0.09-0.73-0.14-1.11-0.15h-2.67v4.88H663.85z M661.13,576.39h3
				c0.41-0.01,0.79-0.08,1.16-0.21c0.37-0.13,0.69-0.31,0.97-0.54c0.28-0.23,0.5-0.52,0.67-0.85c0.17-0.34,0.25-0.72,0.25-1.15
				c0.01-0.44-0.07-0.82-0.22-1.16c-0.15-0.34-0.36-0.63-0.63-0.86c-0.27-0.23-0.58-0.41-0.94-0.54c-0.36-0.13-0.75-0.2-1.16-0.21
				h-3.11V576.39z"/>
			<path class="st2" d="M674.36,574.07l-1.23,3.98h-1.95l4.96-15.35h1.63l4.87,15.35h-1.94l-1.21-3.98H674.36z M678.96,572.37
				l-2.02-6.67l-2.06,6.67H678.96z"/>
			<path class="st2" d="M694.82,576.39v1.66h-9.46v-15.35h1.95v13.7H694.82z"/>
			<path class="st2" d="M707.78,576.39v1.66h-9.46v-15.35h1.95v13.7H707.78z"/>
			<path class="st2" d="M713.2,568.98c0.16-0.89,0.37-1.71,0.64-2.47c0.27-0.75,0.58-1.44,0.92-2.07s0.71-1.18,1.1-1.67
				c0.38-0.48,0.76-0.9,1.15-1.24c0.39-0.34,0.76-0.62,1.11-0.81l0.41,1.29c-0.22,0.17-0.45,0.37-0.68,0.61
				c-0.23,0.24-0.45,0.51-0.67,0.8c-0.32,0.46-0.63,0.99-0.93,1.61s-0.54,1.29-0.74,2.02c-0.19,0.66-0.34,1.39-0.44,2.18
				s-0.16,1.65-0.16,2.56v0.15c0,0.88,0.05,1.7,0.15,2.47c0.1,0.77,0.23,1.47,0.4,2.12c0.18,0.65,0.39,1.26,0.63,1.82
				s0.49,1.06,0.75,1.5c0.27,0.42,0.54,0.8,0.83,1.12c0.29,0.33,0.57,0.61,0.86,0.84l-0.41,1.19c-0.35-0.2-0.72-0.47-1.11-0.81
				s-0.78-0.76-1.15-1.25c-0.39-0.49-0.75-1.04-1.1-1.66c-0.35-0.62-0.65-1.31-0.91-2.07c-0.27-0.75-0.48-1.57-0.64-2.46
				s-0.24-1.83-0.24-2.84v-0.11C712.96,570.81,713.04,569.86,713.2,568.98z"/>
			<path class="st2" d="M731.71,572.97c-0.21-0.32-0.49-0.6-0.83-0.82c-0.34-0.22-0.71-0.4-1.11-0.55c-0.4-0.15-0.79-0.28-1.17-0.4
				c-0.54-0.18-1.09-0.39-1.65-0.64c-0.56-0.25-1.07-0.55-1.52-0.9c-0.46-0.36-0.84-0.78-1.13-1.27c-0.29-0.49-0.44-1.06-0.44-1.72
				s0.15-1.25,0.44-1.77c0.29-0.52,0.67-0.96,1.14-1.32s1.01-0.63,1.6-0.82c0.6-0.19,1.2-0.28,1.8-0.28c0.67,0,1.31,0.11,1.93,0.33
				c0.62,0.22,1.17,0.53,1.65,0.93c0.48,0.4,0.86,0.89,1.15,1.46c0.29,0.57,0.44,1.21,0.45,1.91h-2c-0.06-0.44-0.17-0.84-0.33-1.21
				c-0.16-0.36-0.38-0.67-0.64-0.93c-0.27-0.26-0.58-0.46-0.95-0.61c-0.37-0.14-0.79-0.22-1.25-0.22c-0.37,0-0.74,0.05-1.09,0.16
				c-0.35,0.11-0.67,0.26-0.94,0.47c-0.28,0.21-0.5,0.47-0.67,0.78s-0.25,0.67-0.25,1.08c0.01,0.44,0.12,0.82,0.34,1.12
				s0.5,0.56,0.83,0.77c0.33,0.21,0.69,0.39,1.08,0.53c0.39,0.14,0.76,0.26,1.1,0.37c0.57,0.18,1.14,0.39,1.71,0.64
				c0.57,0.25,1.09,0.57,1.56,0.95c0.46,0.36,0.84,0.8,1.12,1.32c0.28,0.52,0.43,1.12,0.43,1.8c0,0.69-0.15,1.29-0.46,1.8
				c-0.31,0.51-0.7,0.94-1.19,1.28c-0.49,0.34-1.03,0.6-1.65,0.78c-0.61,0.17-1.22,0.26-1.83,0.26c-0.73,0-1.45-0.12-2.16-0.37
				s-1.32-0.6-1.84-1.06c-0.46-0.4-0.83-0.87-1.1-1.41c-0.27-0.54-0.42-1.14-0.44-1.8h1.99c0.06,0.48,0.19,0.9,0.39,1.27
				c0.2,0.37,0.45,0.68,0.76,0.93c0.31,0.26,0.67,0.46,1.07,0.58s0.85,0.2,1.32,0.2c0.38,0,0.75-0.05,1.12-0.14s0.7-0.24,0.99-0.45
				c0.29-0.2,0.52-0.45,0.71-0.75s0.27-0.67,0.27-1.09C732.03,573.69,731.92,573.3,731.71,572.97z"/>
			<path class="st2" d="M743.83,574.75c-0.16,0.89-0.37,1.71-0.64,2.46c-0.27,0.76-0.57,1.45-0.92,2.07
				c-0.35,0.62-0.71,1.18-1.09,1.66c-0.39,0.49-0.78,0.91-1.17,1.25c-0.39,0.34-0.76,0.61-1.11,0.81l-0.41-1.19
				c0.3-0.22,0.59-0.5,0.9-0.84c0.3-0.34,0.59-0.74,0.87-1.19c0.26-0.46,0.51-0.97,0.75-1.54c0.24-0.57,0.44-1.2,0.6-1.88
				c0.16-0.63,0.29-1.32,0.37-2.05c0.09-0.74,0.13-1.52,0.13-2.36v-0.15c0-0.95-0.06-1.81-0.17-2.58s-0.24-1.43-0.38-1.97
				c-0.2-0.77-0.45-1.47-0.74-2.08s-0.58-1.15-0.89-1.61c-0.23-0.36-0.47-0.67-0.72-0.94c-0.25-0.27-0.49-0.5-0.72-0.69l0.41-1.19
				c0.35,0.2,0.72,0.47,1.12,0.81c0.39,0.34,0.78,0.76,1.16,1.24c0.39,0.5,0.76,1.05,1.11,1.67c0.34,0.61,0.65,1.3,0.91,2.07
				c0.25,0.74,0.46,1.54,0.63,2.4s0.25,1.83,0.25,2.9v0.11C744.07,572.92,743.99,573.87,743.83,574.75z"/>
			<path class="st2" d="M753.69,575.71c0.25-0.29,0.64-0.44,1.15-0.44c0.51,0,0.89,0.15,1.15,0.44c0.26,0.29,0.4,0.65,0.4,1.07
				c0,0.42-0.13,0.76-0.4,1.04c-0.27,0.28-0.65,0.42-1.15,0.42c-0.51,0-0.89-0.14-1.14-0.43s-0.38-0.63-0.38-1.04
				C753.31,576.37,753.43,576.01,753.69,575.71z"/>
		</g>
	</g>
</g>
<g class="st0">
	<path class="st1" d="M56.15,190.34c0-29.35,21.54-59.08,54.42-59.08c20.66,0,36.4,12.6,36.4,36.02c0,29.22-21.67,59.08-54.54,59.08
		C71.77,226.37,56.15,213.77,56.15,190.34z M71.39,192.61c0,16.75,6.17,29.22,22.67,29.22c25.44,0,37.54-34.14,37.54-56.81
		c0-16.75-6.17-29.22-22.67-29.22C83.48,135.8,71.39,169.81,71.39,192.61z"/>
	<path class="st1" d="M153.76,206.59c0-23.56,21.29-50.76,41.57-50.76c10.58,0,15.87,6.05,13.98,19.65l-12.22,0.76
		c1.51-6.93,3.15-15.87-4.66-15.87c-13.86,0-24.56,26.45-24.56,43.33c0,8.31,3.02,13.6,9.57,13.6c8.44,0,17.63-6.8,23.55-19.4
		l2.14,1.39c-7.81,17.51-18.77,27.08-31.62,27.08C160.56,226.37,153.76,219.32,153.76,206.59z"/>
	<path class="st1" d="M224.8,180.14c3.53-12.34,3.53-14.36-6.55-14.36l0.63-2.27l24.94-7.68l-12.47,45.09
		c-3.65,12.97-3.27,16.38,0.88,16.38c8.94,0,24.81-30.73,29.22-48.37l3.02-11.97h12.85l-13.86,53.66c-1.26,4.66-1.89,8.19,1.89,8.19
		c3.02,0,10.08-4.16,15.62-13.35l2.02,1.26c-7.05,12.85-16.63,19.65-23.93,19.65c-8.69,0-10.08-6.3-7.18-18.39l3.53-14.86
		c-10.96,22.55-19.52,33.25-28.59,33.25c-8.82,0-12.85-8.82-8.94-22.42L224.8,180.14z"/>
	<path class="st1" d="M309.82,147.89c3.15-12.47,3.53-14.36-6.55-14.36l0.63-2.27l24.81-7.68l-7.05,27.59l-14.74,59.45
		c-1.13,4.66-1.89,8.19,1.89,8.19c3.02,0,10.08-4.16,15.62-13.35l2.02,1.26c-7.05,12.85-16.63,19.65-23.93,19.65
		c-8.69,0-10.58-6.42-7.56-18.39L309.82,147.89z"/>
	<path class="st1" d="M333.24,197.9c0-25.57,19.65-42.07,36.02-42.07c14.23,0,25.19,12.09,25.19,28.34
		c0,25.57-19.65,42.2-36.02,42.2C344.2,226.37,333.24,214.15,333.24,197.9z M380.1,179.89c0-9.45-2.39-19.52-11.34-19.52
		c-15.75,0-21.16,28.85-21.16,41.82c0,9.45,2.39,19.65,11.34,19.65C374.69,221.83,380.1,192.86,380.1,179.89z"/>
	<path class="st1" d="M421.92,147.89c3.15-12.47,3.53-14.36-6.55-14.36l0.63-2.27l24.81-7.68l-7.05,27.59l-14.74,59.45
		c-1.13,4.66-1.89,8.19,1.89,8.19c3.02,0,10.08-4.16,15.62-13.35l2.02,1.26c-7.05,12.85-16.63,19.65-23.93,19.65
		c-8.69,0-10.58-6.42-7.56-18.39L421.92,147.89z"/>
	<path class="st1" d="M455.67,180.14c3.02-12.47,3.53-14.36-6.55-14.36l0.63-2.27l24.94-7.68c-1.76,6.68-4.03,14.61-7.18,27.58
		l-6.68,27.21c-1.13,4.66-1.89,8.19,1.89,8.19c3.02,0,10.08-4.16,15.62-13.35l2.02,1.26c-7.05,12.85-16.63,19.65-23.93,19.65
		c-8.69,0-10.46-6.42-7.56-18.39L455.67,180.14z M480.36,135.42c0,4.91-3.9,8.57-8.82,8.57c-4.91,0-8.94-3.65-8.94-8.57
		c0-4.79,4.03-8.57,8.94-8.57C476.45,126.86,480.36,130.64,480.36,135.42z"/>
	<path class="st1" d="M517.01,155.96l-8.31,32.88c11.08-22.55,19.52-33,29.1-33c8.31,0,12.6,8.06,8.44,22.55l-9.32,32.25
		c-1.39,4.53-1.89,8.19,1.89,8.19c3.02,0,10.08-4.16,15.62-13.35l2.02,1.26c-7.05,12.85-16.63,19.65-23.93,19.65
		c-8.44,0-11.08-6.55-7.56-18.39l7.81-26.58c3.9-12.97,3.4-16.5-0.5-16.5c-9.2,0-25.19,30.86-29.6,48.37l-2.9,11.46h-12.47
		l11.21-44.59c3.15-12.47,3.53-14.36-6.55-14.36l0.63-2.27L517.01,155.96z"/>
	<path class="st1" d="M562.6,206.59c0-23.56,21.29-50.76,41.57-50.76c10.58,0,15.87,6.05,13.98,19.65l-12.22,0.76
		c1.51-6.93,3.15-15.87-4.66-15.87c-13.86,0-24.56,26.45-24.56,43.33c0,8.31,3.02,13.6,9.57,13.6c8.44,0,17.63-6.8,23.55-19.4
		l2.14,1.39c-7.81,17.51-18.77,27.08-31.62,27.08C569.41,226.37,562.6,219.32,562.6,206.59z"/>
	<path class="st1" d="M627.97,207.98l11.21-46.1H628.1l1.26-4.91h11.08l3.15-12.22l14.74-8.44l-5.16,20.66h19.02l-1.13,4.91H651.9
		l-11.97,48.75c-1.13,4.66-1.89,8.19,1.89,8.19c3.53,0,11.34-4.16,16.88-13.35l2.02,1.26c-6.93,12.85-17.38,19.65-25.19,19.65
		C626.84,226.37,625.07,219.95,627.97,207.98z"/>
	<path class="st1" d="M683.89,180.14c3.53-12.34,3.53-14.36-6.55-14.36l0.63-2.27l24.94-7.68l-12.47,45.09
		c-3.65,12.97-3.27,16.38,0.88,16.38c8.94,0,24.81-30.73,29.22-48.37l3.02-11.97h12.85l-13.86,53.66c-1.26,4.66-1.89,8.19,1.89,8.19
		c3.02,0,10.08-4.16,15.62-13.35l2.02,1.26c-7.05,12.85-16.63,19.65-23.93,19.65c-8.69,0-10.08-6.3-7.18-18.39l3.53-14.86
		c-10.96,22.55-19.52,33.25-28.59,33.25c-8.82,0-12.85-8.82-8.94-22.42L683.89,180.14z"/>
	<path class="st1" d="M791.71,206.47c0,13.1-13.6,19.9-26.58,19.9c-8.31,0-15.24-2.02-19.15-4.54l7.18-23.81h2.39
		c-2.52,16-0.5,23.81,10.71,23.81c5.67,0,12.97-3.53,12.97-11.59c0-3.78-1.64-7.56-3.91-10.58l-6.05-7.94
		c-3.9-5.04-8.31-10.96-8.31-17.64c0-12.09,13.98-18.26,25.32-18.26c7.31,0,13.23,2.27,16.38,4.16l-6.68,21.04h-2.52
		c3.28-15.62-0.38-20.66-9.57-20.66c-5.04,0-10.96,2.77-10.96,9.7c0,3.65,2.39,7.18,4.79,10.58l5.79,7.94
		C788.81,195.89,791.71,200.67,791.71,206.47z"/>
	<path class="st1" d="M824.83,226.37c-4.91,0-9.07-4.16-9.07-9.07s4.16-9.07,9.07-9.07c4.91,0,9.07,4.16,9.07,9.07
		S829.75,226.37,824.83,226.37z"/>
</g>
<g>
	<g>
		<g>
			<path class="st2" d="M146.22,144.48l-2.45-10.01l-1.74,10.01h-2.91l2.66-15.35h2.86l2.41,9.96l1.75-9.96h2.9l-2.67,15.35H146.22z
				"/>
			<path class="st2" d="M163.04,139.62c-0.18,0.56-0.4,1.1-0.66,1.6c-0.27,0.51-0.59,0.98-0.95,1.41c-0.36,0.43-0.77,0.8-1.23,1.11
				c-0.46,0.31-0.96,0.55-1.51,0.72c-0.55,0.17-1.15,0.25-1.79,0.23c-0.61-0.01-1.15-0.12-1.63-0.31s-0.88-0.46-1.23-0.79
				c-0.35-0.32-0.64-0.7-0.86-1.13c-0.22-0.43-0.4-0.9-0.52-1.4c-0.12-0.49-0.19-1-0.21-1.54c-0.02-0.53,0-1.07,0.07-1.59l0.35-2.24
				c0.08-0.56,0.21-1.12,0.38-1.68s0.39-1.09,0.65-1.6c0.25-0.51,0.56-0.98,0.91-1.41c0.35-0.44,0.75-0.81,1.19-1.13
				c0.44-0.31,0.94-0.55,1.48-0.72c0.54-0.17,1.13-0.25,1.77-0.24c0.62,0.01,1.17,0.12,1.65,0.31c0.48,0.19,0.9,0.45,1.27,0.77
				c0.36,0.33,0.66,0.71,0.9,1.14c0.24,0.43,0.43,0.89,0.56,1.39c0.13,0.5,0.2,1.02,0.23,1.56c0.03,0.54,0.01,1.08-0.06,1.61
				l-0.35,2.22C163.35,138.49,163.21,139.06,163.04,139.62z M160.94,134.81c0.02-0.31,0.02-0.62,0.01-0.94
				c-0.02-0.31-0.07-0.61-0.14-0.91c-0.07-0.29-0.18-0.56-0.33-0.79c-0.15-0.23-0.34-0.42-0.58-0.57c-0.24-0.15-0.54-0.23-0.9-0.24
				c-0.39-0.01-0.73,0.04-1.02,0.16c-0.3,0.12-0.55,0.29-0.77,0.51c-0.23,0.23-0.42,0.48-0.58,0.78c-0.16,0.29-0.3,0.6-0.4,0.92
				c-0.11,0.32-0.2,0.65-0.27,0.99s-0.13,0.65-0.17,0.95l-0.35,2.27c-0.04,0.25-0.06,0.52-0.09,0.82c-0.02,0.3-0.03,0.61-0.03,0.93
				c0,0.32,0.03,0.63,0.08,0.93c0.06,0.3,0.15,0.57,0.29,0.81c0.13,0.24,0.31,0.43,0.54,0.59c0.23,0.15,0.52,0.23,0.88,0.25
				c0.38,0.01,0.72-0.04,1.02-0.16s0.57-0.29,0.81-0.51c0.23-0.22,0.44-0.47,0.61-0.77c0.18-0.3,0.33-0.61,0.45-0.94
				c0.12-0.32,0.22-0.65,0.3-0.99c0.08-0.34,0.14-0.66,0.19-0.96l0.35-2.27C160.89,135.4,160.92,135.12,160.94,134.81z"/>
			<path class="st2" d="M175.43,139.29c-0.12,0.79-0.33,1.53-0.64,2.19c-0.31,0.67-0.71,1.24-1.2,1.72
				c-0.49,0.49-1.07,0.86-1.75,1.12s-1.43,0.38-2.26,0.36c-0.77-0.01-1.44-0.17-2-0.46s-1.01-0.68-1.35-1.18
				c-0.34-0.49-0.58-1.05-0.72-1.7c-0.13-0.65-0.16-1.33-0.07-2.05l1.74-10.19h2.89l-1.71,10.19c-0.04,0.3-0.05,0.62-0.05,0.96
				c0,0.34,0.05,0.66,0.15,0.95c0.09,0.29,0.24,0.54,0.46,0.74c0.21,0.2,0.52,0.31,0.91,0.33c0.44,0.02,0.81-0.05,1.13-0.23
				c0.32-0.17,0.58-0.4,0.8-0.69c0.21-0.29,0.38-0.62,0.51-0.98c0.13-0.37,0.22-0.73,0.27-1.1l1.74-10.19h2.87L175.43,139.29z"/>
			<path class="st2" d="M184.24,144.48l-2.45-10.01l-1.74,10.01h-2.91l2.66-15.35h2.86l2.41,9.96l1.75-9.96h2.9l-2.67,15.35H184.24z
				"/>
			<path class="st2" d="M144.67,196.31v-11.78l-3.88,1.39v-2.55l6.69-2.41h0.16v15.35H144.67z"/>
			<path class="st2" d="M156.91,193.24c0.36-0.38,0.86-0.56,1.5-0.56c0.63,0,1.13,0.19,1.49,0.56c0.36,0.37,0.54,0.83,0.54,1.38
				c0,0.55-0.18,1-0.55,1.37c-0.37,0.36-0.86,0.54-1.48,0.54c-0.63,0-1.12-0.18-1.49-0.55c-0.37-0.37-0.55-0.82-0.55-1.36
				C156.37,194.07,156.55,193.61,156.91,193.24z"/>
			<path class="st2" d="M178.17,180.96h3.27l2.6,10.03l0.26,1.03l0.29-1.04l2.61-10.02h3.27l-4.65,15.35h-3.02L178.17,180.96z"/>
			<path class="st2" d="M195.33,189.58v4.33h7.37v2.39h-10.34v-15.35h10.31v2.41h-7.34v3.87h6.31v2.34H195.33z"/>
			<path class="st2" d="M208.11,190.57v5.74h-2.96v-15.35h5.15c0.85,0,1.62,0.1,2.31,0.3c0.69,0.2,1.28,0.49,1.77,0.88
				c0.48,0.39,0.86,0.87,1.12,1.44s0.4,1.24,0.4,2c0,0.55-0.07,1.04-0.2,1.48c-0.13,0.44-0.31,0.83-0.55,1.18
				c-0.25,0.35-0.54,0.66-0.88,0.92c-0.34,0.26-0.72,0.48-1.14,0.67l3.3,6.34v0.14h-3.17l-2.89-5.74H208.11z M210.3,188.17
				c0.46,0,0.86-0.06,1.21-0.19c0.35-0.13,0.63-0.32,0.85-0.56c0.18-0.2,0.32-0.43,0.42-0.71c0.09-0.27,0.14-0.58,0.14-0.92
				c0-0.41-0.06-0.77-0.18-1.08c-0.12-0.31-0.31-0.57-0.55-0.77c-0.22-0.18-0.49-0.32-0.8-0.42c-0.32-0.1-0.68-0.15-1.09-0.15h-2.18
				v4.81H210.3z"/>
			<path class="st2" d="M218.08,180.96h5.16c0.84,0,1.6,0.08,2.28,0.25c0.69,0.17,1.27,0.43,1.76,0.77
				c0.48,0.34,0.86,0.78,1.12,1.31s0.4,1.15,0.4,1.87c-0.01,0.46-0.09,0.9-0.25,1.31c-0.16,0.41-0.39,0.77-0.7,1.08
				c-0.17,0.17-0.36,0.32-0.57,0.46s-0.45,0.26-0.71,0.36v0.01c0.51,0.14,0.91,0.32,1.21,0.54s0.55,0.47,0.75,0.76
				c0.21,0.31,0.37,0.64,0.47,1.01s0.15,0.74,0.15,1.12c0,0.74-0.13,1.39-0.38,1.95s-0.62,1.03-1.09,1.41
				c-0.47,0.38-1.04,0.67-1.72,0.85c-0.67,0.19-1.43,0.29-2.28,0.29h-5.6V180.96z M223.26,187.4c0.45-0.01,0.85-0.06,1.19-0.16
				c0.34-0.1,0.62-0.25,0.83-0.46c0.18-0.16,0.31-0.36,0.41-0.59c0.09-0.23,0.14-0.5,0.14-0.79c0-0.31-0.04-0.58-0.12-0.81
				c-0.08-0.23-0.2-0.42-0.36-0.58c-0.21-0.22-0.49-0.38-0.85-0.47s-0.77-0.15-1.25-0.16h-2.19v4.03H223.26z M221.06,193.92h2.64
				c0.39,0,0.73-0.05,1.04-0.15c0.31-0.1,0.56-0.23,0.76-0.4c0.23-0.19,0.4-0.42,0.51-0.69c0.12-0.27,0.17-0.57,0.17-0.9
				c0-0.34-0.04-0.65-0.13-0.93s-0.23-0.51-0.42-0.7c-0.19-0.2-0.44-0.35-0.74-0.45s-0.66-0.16-1.08-0.17h-2.76V193.92z"/>
			<path class="st2" d="M185.29,208.54v13.69h-1.9v-13.69h-4.75v-1.67h11.39v1.67H185.29z"/>
			<path class="st2" d="M200.42,222.23v-7.1h-6.3v7.1h-1.83v-15.35h1.83v6.6h6.3v-6.6h1.85v15.35H200.42z"/>
			<path class="st2" d="M207.63,215.13v5.44h7.48v1.66h-9.43v-15.35h9.33v1.67h-7.38v4.94h6.41v1.66H207.63z"/>
			<path class="st2" d="M233.72,218.25l-1.23,3.98h-1.95l4.96-15.35h1.63l4.87,15.35h-1.94l-1.21-3.98H233.72z M238.33,216.55
				l-2.02-6.67l-2.06,6.67H238.33z"/>
			<path class="st2" d="M253.87,219.56c-0.27,0.59-0.63,1.1-1.06,1.52c-0.44,0.43-0.96,0.76-1.57,1c-0.6,0.24-1.27,0.35-2.01,0.35
				c-0.63,0-1.21-0.09-1.72-0.27c-0.52-0.18-0.98-0.43-1.38-0.74c-0.41-0.32-0.76-0.69-1.05-1.12c-0.29-0.43-0.53-0.9-0.72-1.4
				c-0.2-0.51-0.34-1.04-0.44-1.59c-0.09-0.55-0.15-1.12-0.15-1.69v-2.14c0.01-0.57,0.06-1.13,0.15-1.69s0.24-1.09,0.44-1.59
				c0.19-0.51,0.43-0.97,0.72-1.41c0.29-0.43,0.64-0.81,1.05-1.12c0.4-0.32,0.86-0.56,1.37-0.74c0.51-0.18,1.09-0.27,1.73-0.27
				c0.77,0,1.45,0.12,2.06,0.35s1.12,0.57,1.56,1c0.44,0.44,0.79,0.96,1.05,1.56c0.26,0.61,0.44,1.27,0.52,2h-1.95
				c-0.06-0.46-0.17-0.9-0.33-1.3s-0.36-0.75-0.62-1.05c-0.26-0.3-0.58-0.54-0.95-0.71c-0.38-0.17-0.82-0.26-1.33-0.26
				c-0.46,0-0.87,0.08-1.23,0.23s-0.66,0.36-0.91,0.62c-0.26,0.26-0.48,0.56-0.65,0.91s-0.31,0.71-0.42,1.1s-0.18,0.78-0.23,1.19
				s-0.07,0.8-0.07,1.18v2.16c0,0.38,0.02,0.77,0.07,1.17c0.05,0.41,0.12,0.8,0.23,1.19c0.11,0.39,0.24,0.76,0.41,1.11
				c0.17,0.34,0.38,0.65,0.64,0.91c0.26,0.27,0.57,0.48,0.92,0.63c0.35,0.15,0.76,0.23,1.23,0.23c0.51,0,0.96-0.08,1.33-0.24
				c0.38-0.16,0.69-0.39,0.95-0.69c0.26-0.29,0.47-0.63,0.62-1.03c0.15-0.4,0.26-0.83,0.33-1.29h1.95
				C254.33,218.32,254.15,218.97,253.87,219.56z"/>
			<path class="st2" d="M263.05,208.54v13.69h-1.9v-13.69h-4.75v-1.67h11.39v1.67H263.05z"/>
			<path class="st2" d="M293.2,217.1c-0.09,0.56-0.22,1.1-0.41,1.62c-0.18,0.52-0.42,1.01-0.7,1.46c-0.28,0.45-0.62,0.84-1.02,1.18
				s-0.85,0.6-1.35,0.8s-1.08,0.29-1.71,0.29c-0.63,0-1.2-0.1-1.71-0.29s-0.96-0.46-1.35-0.8s-0.73-0.73-1.02-1.19
				c-0.29-0.45-0.52-0.94-0.71-1.46c-0.19-0.52-0.33-1.06-0.42-1.61c-0.09-0.56-0.14-1.11-0.15-1.66v-1.75
				c0.01-0.55,0.05-1.1,0.14-1.66s0.23-1.1,0.42-1.62c0.18-0.52,0.42-1.01,0.7-1.46s0.62-0.85,1.02-1.2c0.39-0.34,0.85-0.6,1.35-0.8
				s1.08-0.29,1.71-0.29c0.63,0,1.21,0.1,1.72,0.29c0.51,0.19,0.97,0.46,1.36,0.8c0.39,0.34,0.73,0.73,1.02,1.19
				c0.28,0.45,0.52,0.94,0.71,1.46c0.18,0.52,0.32,1.06,0.41,1.62s0.14,1.12,0.14,1.67v1.75
				C293.34,215.98,293.29,216.54,293.2,217.1z M291.34,212.52c-0.04-0.4-0.11-0.79-0.21-1.19c-0.11-0.39-0.24-0.76-0.41-1.11
				c-0.17-0.35-0.38-0.67-0.63-0.94c-0.25-0.27-0.55-0.48-0.9-0.64c-0.34-0.16-0.75-0.24-1.2-0.24c-0.45,0-0.85,0.08-1.19,0.24
				c-0.34,0.16-0.64,0.38-0.9,0.64c-0.25,0.27-0.46,0.59-0.63,0.94c-0.17,0.35-0.3,0.73-0.4,1.11c-0.11,0.39-0.18,0.79-0.23,1.19
				c-0.05,0.4-0.07,0.77-0.08,1.13v1.77c0.01,0.36,0.03,0.74,0.08,1.14c0.05,0.4,0.12,0.79,0.23,1.18c0.11,0.39,0.24,0.77,0.41,1.13
				c0.17,0.36,0.38,0.67,0.63,0.94c0.25,0.27,0.55,0.49,0.9,0.65c0.34,0.16,0.75,0.24,1.2,0.24c0.46,0,0.86-0.08,1.21-0.24
				c0.35-0.16,0.65-0.38,0.9-0.65c0.25-0.27,0.45-0.58,0.62-0.93c0.17-0.36,0.3-0.73,0.41-1.12c0.1-0.39,0.17-0.78,0.21-1.18
				c0.04-0.4,0.06-0.78,0.07-1.15v-1.77C291.41,213.3,291.38,212.92,291.34,212.52z"/>
			<path class="st2" d="M298.47,215.45v6.78h-1.97v-15.35h9.43v1.67h-7.46v5.25h6.39v1.66H298.47z"/>
			<path class="st2" d="M331.95,220.57v1.66h-9.46v-15.35h1.95v13.7H331.95z"/>
			<path class="st2" d="M344.48,206.87v1.7h-3.68v11.97h3.68v1.69h-9.28v-1.69h3.6v-11.97h-3.6v-1.7H344.48z"/>
			<path class="st2" d="M357.55,219.56c-0.27,0.59-0.63,1.1-1.06,1.52c-0.44,0.43-0.96,0.76-1.57,1c-0.6,0.24-1.27,0.35-2.01,0.35
				c-0.63,0-1.21-0.09-1.72-0.27c-0.52-0.18-0.98-0.43-1.38-0.74c-0.41-0.32-0.76-0.69-1.05-1.12c-0.29-0.43-0.53-0.9-0.72-1.4
				c-0.2-0.51-0.34-1.04-0.44-1.59c-0.09-0.55-0.15-1.12-0.15-1.69v-2.14c0.01-0.57,0.06-1.13,0.15-1.69s0.24-1.09,0.44-1.59
				c0.19-0.51,0.43-0.97,0.72-1.41c0.29-0.43,0.64-0.81,1.05-1.12c0.4-0.32,0.86-0.56,1.37-0.74c0.51-0.18,1.09-0.27,1.73-0.27
				c0.77,0,1.45,0.12,2.06,0.35s1.12,0.57,1.56,1c0.44,0.44,0.79,0.96,1.05,1.56c0.26,0.61,0.44,1.27,0.52,2h-1.95
				c-0.06-0.46-0.17-0.9-0.33-1.3s-0.36-0.75-0.62-1.05c-0.26-0.3-0.58-0.54-0.95-0.71c-0.38-0.17-0.82-0.26-1.33-0.26
				c-0.46,0-0.87,0.08-1.23,0.23s-0.66,0.36-0.91,0.62c-0.26,0.26-0.48,0.56-0.65,0.91s-0.31,0.71-0.42,1.1s-0.18,0.78-0.23,1.19
				s-0.07,0.8-0.07,1.18v2.16c0,0.38,0.02,0.77,0.07,1.17c0.05,0.41,0.12,0.8,0.23,1.19c0.11,0.39,0.24,0.76,0.41,1.11
				c0.17,0.34,0.38,0.65,0.64,0.91c0.26,0.27,0.57,0.48,0.92,0.63c0.35,0.15,0.76,0.23,1.23,0.23c0.51,0,0.96-0.08,1.33-0.24
				c0.38-0.16,0.69-0.39,0.95-0.69c0.26-0.29,0.47-0.63,0.62-1.03c0.15-0.4,0.26-0.83,0.33-1.29h1.95
				C358.01,218.32,357.83,218.97,357.55,219.56z"/>
			<path class="st2" d="M363.09,217.04v5.19h-1.99v-15.35h1.99v7.5l1.49-1.86l4.5-5.64h2.37l-5.37,6.72l5.73,8.64h-2.37l-4.64-7.13
				L363.09,217.04z"/>
			<path class="st2" d="M383.35,206.87v1.7h-3.68v11.97h3.68v1.69h-9.28v-1.69h3.6v-11.97h-3.6v-1.7H383.35z"/>
			<path class="st2" d="M394.67,222.23l-5.96-11.47l-0.03,11.47h-1.97v-15.35h1.98l5.96,11.45l0.03-11.45h1.97v15.35H394.67z"/>
			<path class="st2" d="M409.17,220.98c-0.27,0.23-0.54,0.43-0.83,0.6c-0.49,0.29-1.02,0.51-1.59,0.66
				c-0.57,0.14-1.17,0.21-1.79,0.21c-0.63-0.01-1.21-0.1-1.75-0.29s-1.01-0.44-1.43-0.77c-0.42-0.32-0.79-0.71-1.11-1.15
				c-0.32-0.44-0.58-0.92-0.79-1.44c-0.22-0.51-0.38-1.05-0.49-1.62c-0.11-0.57-0.17-1.14-0.17-1.71v-1.78
				c0.01-0.57,0.06-1.14,0.15-1.7c0.09-0.57,0.24-1.11,0.44-1.63s0.44-1,0.74-1.45c0.29-0.45,0.65-0.83,1.06-1.17
				c0.41-0.32,0.87-0.58,1.39-0.77c0.52-0.19,1.1-0.29,1.75-0.29c0.72,0,1.38,0.11,1.98,0.33c0.6,0.22,1.13,0.54,1.58,0.94
				c0.45,0.42,0.81,0.91,1.09,1.49c0.27,0.58,0.44,1.23,0.51,1.95h-1.93c-0.08-0.44-0.2-0.85-0.36-1.23
				c-0.16-0.38-0.37-0.7-0.63-0.96c-0.27-0.27-0.58-0.48-0.95-0.63c-0.37-0.15-0.79-0.23-1.28-0.23c-0.46,0-0.88,0.08-1.23,0.24
				c-0.36,0.16-0.67,0.37-0.94,0.64c-0.27,0.27-0.49,0.58-0.66,0.93c-0.18,0.36-0.32,0.73-0.43,1.12c-0.11,0.39-0.19,0.79-0.24,1.2
				c-0.05,0.41-0.07,0.8-0.07,1.18v1.8c0.01,0.39,0.04,0.79,0.1,1.2c0.06,0.41,0.15,0.81,0.28,1.21s0.29,0.77,0.48,1.12
				s0.44,0.66,0.72,0.93c0.27,0.27,0.59,0.48,0.96,0.64s0.78,0.24,1.24,0.25c0.27,0.01,0.55,0,0.84-0.03
				c0.29-0.03,0.57-0.08,0.85-0.17c0.27-0.08,0.53-0.2,0.77-0.34c0.24-0.14,0.44-0.33,0.6-0.56l0.02-3.45h-3.12v-1.64h4.98
				l0.03,5.63C409.69,220.49,409.44,220.75,409.17,220.98z"/>
			<path class="st2" d="M433.94,206.87h2.21l-4.78,9.63l-0.03,5.73h-1.81l-0.03-5.73l-4.78-9.63h2.23l3.49,7.71L433.94,206.87z"/>
			<path class="st2" d="M448.72,217.1c-0.09,0.56-0.22,1.1-0.41,1.62c-0.18,0.52-0.42,1.01-0.7,1.46c-0.28,0.45-0.62,0.84-1.02,1.18
				s-0.85,0.6-1.35,0.8s-1.08,0.29-1.71,0.29c-0.63,0-1.2-0.1-1.71-0.29s-0.96-0.46-1.35-0.8s-0.73-0.73-1.02-1.19
				c-0.29-0.45-0.52-0.94-0.71-1.46c-0.19-0.52-0.33-1.06-0.42-1.61c-0.09-0.56-0.14-1.11-0.15-1.66v-1.75
				c0.01-0.55,0.05-1.1,0.14-1.66s0.23-1.1,0.42-1.62c0.18-0.52,0.42-1.01,0.7-1.46s0.62-0.85,1.02-1.2c0.39-0.34,0.85-0.6,1.35-0.8
				s1.08-0.29,1.71-0.29c0.63,0,1.21,0.1,1.72,0.29c0.51,0.19,0.97,0.46,1.36,0.8c0.39,0.34,0.73,0.73,1.02,1.19
				c0.28,0.45,0.52,0.94,0.71,1.46c0.18,0.52,0.32,1.06,0.41,1.62s0.14,1.12,0.14,1.67v1.75
				C448.85,215.98,448.81,216.54,448.72,217.1z M446.86,212.52c-0.04-0.4-0.11-0.79-0.21-1.19c-0.11-0.39-0.24-0.76-0.41-1.11
				c-0.17-0.35-0.38-0.67-0.63-0.94c-0.25-0.27-0.55-0.48-0.9-0.64c-0.34-0.16-0.75-0.24-1.2-0.24c-0.45,0-0.85,0.08-1.19,0.24
				c-0.34,0.16-0.64,0.38-0.9,0.64c-0.25,0.27-0.46,0.59-0.63,0.94c-0.17,0.35-0.3,0.73-0.4,1.11c-0.11,0.39-0.18,0.79-0.23,1.19
				c-0.05,0.4-0.07,0.77-0.08,1.13v1.77c0.01,0.36,0.03,0.74,0.08,1.14c0.05,0.4,0.12,0.79,0.23,1.18c0.11,0.39,0.24,0.77,0.41,1.13
				c0.17,0.36,0.38,0.67,0.63,0.94c0.25,0.27,0.55,0.49,0.9,0.65c0.34,0.16,0.75,0.24,1.2,0.24c0.46,0,0.86-0.08,1.21-0.24
				c0.35-0.16,0.65-0.38,0.9-0.65c0.25-0.27,0.45-0.58,0.62-0.93c0.17-0.36,0.3-0.73,0.41-1.12c0.1-0.39,0.17-0.78,0.21-1.18
				c0.04-0.4,0.06-0.78,0.07-1.15v-1.77C446.92,213.3,446.9,212.92,446.86,212.52z"/>
			<path class="st2" d="M461.49,217.27c0,0.72-0.13,1.39-0.38,2.01c-0.25,0.62-0.6,1.17-1.04,1.63c-0.44,0.47-0.97,0.84-1.58,1.11
				c-0.61,0.27-1.28,0.41-2.01,0.41c-0.75,0-1.42-0.13-2.04-0.4c-0.61-0.27-1.13-0.64-1.57-1.11c-0.44-0.46-0.78-1.01-1.02-1.64
				s-0.37-1.3-0.38-2.02l0.02-10.4h1.86l0.04,10.4c0.01,0.46,0.08,0.9,0.22,1.32c0.14,0.42,0.33,0.79,0.6,1.12
				c0.25,0.32,0.57,0.58,0.95,0.78c0.38,0.2,0.82,0.3,1.32,0.3s0.94-0.1,1.32-0.29s0.7-0.46,0.96-0.79c0.25-0.32,0.45-0.7,0.58-1.12
				c0.13-0.42,0.21-0.86,0.22-1.32l0.03-10.4h1.89L461.49,217.27z"/>
			<path class="st2" d="M466.81,215.96v6.26h-1.94v-15.35h4.5c0.72,0.01,1.39,0.12,2.02,0.31c0.63,0.19,1.19,0.47,1.67,0.85
				c0.47,0.38,0.84,0.86,1.11,1.43s0.41,1.25,0.41,2.02c0,0.5-0.07,0.96-0.22,1.37c-0.14,0.42-0.34,0.79-0.6,1.13
				s-0.55,0.64-0.91,0.9s-0.74,0.48-1.16,0.66l3.26,6.56l-0.01,0.13h-2.06l-3.02-6.26H466.81z M469.42,214.36
				c0.44-0.01,0.85-0.08,1.23-0.21c0.39-0.13,0.73-0.32,1.02-0.56c0.29-0.25,0.52-0.55,0.69-0.9c0.17-0.35,0.25-0.76,0.25-1.23
				c0-0.49-0.08-0.92-0.24-1.29c-0.16-0.37-0.39-0.68-0.67-0.93c-0.29-0.25-0.63-0.43-1.03-0.56c-0.4-0.13-0.83-0.19-1.3-0.2h-2.56
				v5.88H469.42z"/>
			<path class="st2" d="M492.84,222.23h-1.95v-15.35h4.98c0.69,0.01,1.34,0.12,1.96,0.33s1.16,0.5,1.62,0.89s0.83,0.87,1.1,1.43
				c0.27,0.57,0.41,1.22,0.41,1.96s-0.14,1.39-0.41,1.96c-0.27,0.57-0.64,1.04-1.1,1.43s-1,0.68-1.62,0.89
				c-0.62,0.2-1.27,0.31-1.96,0.32h-3.03V222.23z M495.87,214.47c0.45-0.01,0.86-0.08,1.24-0.22c0.38-0.14,0.71-0.33,0.99-0.59
				s0.5-0.56,0.66-0.92c0.16-0.36,0.24-0.77,0.24-1.24c0-0.46-0.08-0.88-0.24-1.25c-0.16-0.37-0.37-0.69-0.65-0.95
				c-0.28-0.26-0.61-0.46-1-0.6c-0.38-0.14-0.8-0.21-1.25-0.22h-3.03v5.99H495.87z"/>
			<path class="st2" d="M505.88,218.25l-1.23,3.98h-1.95l4.96-15.35h1.63l4.87,15.35h-1.94l-1.21-3.98H505.88z M510.49,216.55
				l-2.02-6.67l-2.06,6.67H510.49z"/>
			<path class="st2" d="M518.65,215.96v6.26h-1.94v-15.35h4.5c0.72,0.01,1.39,0.12,2.02,0.31c0.63,0.19,1.19,0.47,1.67,0.85
				c0.47,0.38,0.84,0.86,1.11,1.43s0.41,1.25,0.41,2.02c0,0.5-0.07,0.96-0.22,1.37c-0.14,0.42-0.34,0.79-0.6,1.13
				s-0.56,0.64-0.91,0.9s-0.74,0.48-1.16,0.66l3.26,6.56l-0.01,0.13h-2.06l-3.02-6.26H518.65z M521.26,214.36
				c0.44-0.01,0.85-0.08,1.23-0.21c0.39-0.13,0.73-0.32,1.02-0.56c0.29-0.25,0.52-0.55,0.69-0.9c0.17-0.35,0.25-0.76,0.25-1.23
				c0-0.49-0.08-0.92-0.24-1.29c-0.16-0.37-0.39-0.68-0.67-0.93c-0.29-0.25-0.63-0.43-1.03-0.56c-0.4-0.13-0.83-0.19-1.3-0.2h-2.56
				v5.88H521.26z"/>
			<path class="st2" d="M535.2,208.54v13.69h-1.9v-13.69h-4.75v-1.67h11.39v1.67H535.2z"/>
			<path class="st2" d="M550.19,222.23l-5.96-11.47l-0.03,11.47h-1.97v-15.35h1.98l5.96,11.45l0.03-11.45h1.97v15.35H550.19z"/>
			<path class="st2" d="M557.55,215.13v5.44h7.48v1.66h-9.43v-15.35h9.33v1.67h-7.38v4.94h6.41v1.66H557.55z"/>
			<path class="st2" d="M570.49,215.96v6.26h-1.94v-15.35h4.5c0.72,0.01,1.39,0.12,2.02,0.31c0.63,0.19,1.19,0.47,1.67,0.85
				c0.47,0.38,0.84,0.86,1.11,1.43s0.41,1.25,0.41,2.02c0,0.5-0.07,0.96-0.22,1.37c-0.14,0.42-0.34,0.79-0.6,1.13
				s-0.56,0.64-0.91,0.9s-0.74,0.48-1.16,0.66l3.26,6.56l-0.01,0.13h-2.06l-3.02-6.26H570.49z M573.1,214.36
				c0.44-0.01,0.85-0.08,1.23-0.21c0.39-0.13,0.73-0.32,1.02-0.56c0.29-0.25,0.52-0.55,0.69-0.9c0.17-0.35,0.25-0.76,0.25-1.23
				c0-0.49-0.08-0.92-0.24-1.29c-0.16-0.37-0.39-0.68-0.67-0.93c-0.29-0.25-0.63-0.43-1.03-0.56c-0.4-0.13-0.83-0.19-1.3-0.2h-2.56
				v5.88H573.1z"/>
			<path class="st2" d="M586.26,211.08h-1.46l0.01-3.71v-1.34h1.67v1.17L586.26,211.08z"/>
			<path class="st2" d="M602.11,217.15c-0.21-0.32-0.49-0.6-0.83-0.82c-0.34-0.22-0.71-0.4-1.11-0.55c-0.4-0.15-0.79-0.28-1.17-0.4
				c-0.54-0.18-1.09-0.39-1.65-0.64c-0.56-0.25-1.07-0.55-1.52-0.9c-0.46-0.36-0.84-0.78-1.13-1.27c-0.29-0.49-0.44-1.06-0.44-1.72
				s0.15-1.25,0.44-1.77c0.29-0.52,0.67-0.96,1.14-1.32s1.01-0.63,1.6-0.82c0.6-0.19,1.2-0.28,1.8-0.28c0.67,0,1.31,0.11,1.93,0.33
				c0.62,0.22,1.17,0.53,1.65,0.93c0.48,0.4,0.86,0.89,1.15,1.46c0.29,0.57,0.44,1.21,0.45,1.91h-2c-0.06-0.44-0.17-0.84-0.33-1.21
				c-0.16-0.36-0.38-0.67-0.64-0.93c-0.27-0.26-0.58-0.46-0.95-0.61c-0.37-0.14-0.79-0.22-1.25-0.22c-0.37,0-0.74,0.05-1.09,0.16
				c-0.35,0.11-0.67,0.26-0.94,0.47c-0.28,0.21-0.5,0.47-0.67,0.78s-0.25,0.67-0.25,1.08c0.01,0.44,0.12,0.82,0.34,1.12
				s0.5,0.56,0.83,0.77c0.33,0.21,0.69,0.39,1.08,0.53c0.39,0.14,0.76,0.26,1.1,0.37c0.57,0.18,1.14,0.39,1.71,0.64
				c0.57,0.25,1.09,0.57,1.56,0.95c0.46,0.36,0.84,0.8,1.12,1.32c0.28,0.52,0.43,1.12,0.43,1.8c0,0.69-0.15,1.29-0.46,1.8
				c-0.31,0.51-0.7,0.94-1.19,1.28c-0.49,0.34-1.03,0.6-1.65,0.78c-0.61,0.17-1.22,0.26-1.83,0.26c-0.73,0-1.45-0.12-2.16-0.37
				s-1.32-0.6-1.84-1.06c-0.46-0.4-0.83-0.87-1.1-1.41c-0.27-0.54-0.42-1.14-0.44-1.8h1.99c0.06,0.48,0.19,0.9,0.39,1.27
				c0.2,0.37,0.45,0.68,0.76,0.93c0.31,0.26,0.67,0.46,1.07,0.58s0.85,0.2,1.32,0.2c0.38,0,0.75-0.05,1.12-0.14s0.7-0.24,0.99-0.45
				c0.29-0.2,0.52-0.45,0.71-0.75s0.27-0.67,0.27-1.09C602.43,217.87,602.32,217.48,602.11,217.15z"/>
			<path class="st2" d="M622.35,215.13v5.44h7.48v1.66h-9.43v-15.35h9.33v1.67h-7.38v4.94h6.41v1.66H622.35z"/>
			<path class="st2" d="M641.3,206.87h2.21l-4.78,9.63l-0.03,5.73h-1.81l-0.03-5.73l-4.78-9.63h2.22l3.49,7.71L641.3,206.87z"/>
			<path class="st2" d="M648.27,215.13v5.44h7.48v1.66h-9.43v-15.35h9.33v1.67h-7.38v4.94h6.41v1.66H648.27z"/>
			<path class="st2" d="M659.17,206.87h4.57c0.63,0.01,1.25,0.09,1.86,0.25s1.14,0.4,1.61,0.73c0.47,0.33,0.85,0.75,1.13,1.27
				c0.28,0.51,0.42,1.13,0.41,1.85c-0.01,0.4-0.07,0.77-0.2,1.1c-0.12,0.33-0.29,0.63-0.5,0.89c-0.22,0.27-0.46,0.49-0.72,0.67
				s-0.58,0.35-0.96,0.52v0.03c0.39,0.09,0.76,0.26,1.12,0.5s0.65,0.5,0.89,0.79c0.25,0.32,0.44,0.67,0.58,1.06
				c0.14,0.39,0.21,0.82,0.21,1.28c0.01,0.72-0.13,1.35-0.41,1.9c-0.28,0.55-0.66,1-1.13,1.37c-0.47,0.37-1.01,0.66-1.63,0.85
				c-0.62,0.2-1.25,0.3-1.9,0.31h-4.91V206.87z M663.85,213.42c0.37-0.01,0.72-0.07,1.08-0.17c0.35-0.11,0.66-0.27,0.94-0.48
				c0.27-0.2,0.5-0.46,0.66-0.76c0.17-0.3,0.25-0.65,0.25-1.05c0-0.43-0.08-0.79-0.25-1.1s-0.38-0.55-0.66-0.75
				c-0.28-0.19-0.6-0.33-0.96-0.42c-0.36-0.09-0.73-0.14-1.11-0.15h-2.67v4.88H663.85z M661.13,220.57h3
				c0.41-0.01,0.79-0.08,1.16-0.21c0.37-0.13,0.69-0.31,0.97-0.54c0.28-0.23,0.5-0.52,0.67-0.85c0.17-0.34,0.25-0.72,0.25-1.15
				c0.01-0.44-0.07-0.82-0.22-1.16c-0.15-0.34-0.36-0.63-0.63-0.86c-0.27-0.23-0.58-0.41-0.94-0.54c-0.36-0.13-0.75-0.2-1.16-0.21
				h-3.11V220.57z"/>
			<path class="st2" d="M674.36,218.25l-1.23,3.98h-1.95l4.96-15.35h1.63l4.87,15.35h-1.94l-1.21-3.98H674.36z M678.96,216.55
				l-2.02-6.67l-2.06,6.67H678.96z"/>
			<path class="st2" d="M694.82,220.57v1.66h-9.46v-15.35h1.95v13.7H694.82z"/>
			<path class="st2" d="M707.78,220.57v1.66h-9.46v-15.35h1.95v13.7H707.78z"/>
			<path class="st2" d="M713.2,213.16c0.16-0.89,0.37-1.71,0.64-2.47c0.27-0.75,0.58-1.44,0.92-2.07s0.71-1.18,1.1-1.67
				c0.38-0.48,0.76-0.9,1.15-1.24c0.39-0.34,0.76-0.62,1.11-0.81l0.41,1.29c-0.22,0.17-0.45,0.37-0.68,0.61
				c-0.23,0.24-0.45,0.51-0.67,0.8c-0.32,0.46-0.63,0.99-0.93,1.61s-0.54,1.29-0.74,2.02c-0.19,0.66-0.34,1.39-0.44,2.18
				s-0.16,1.65-0.16,2.56v0.15c0,0.88,0.05,1.7,0.15,2.47c0.1,0.77,0.23,1.47,0.4,2.12c0.18,0.65,0.39,1.26,0.63,1.82
				s0.49,1.06,0.75,1.5c0.27,0.42,0.54,0.8,0.83,1.12c0.29,0.33,0.57,0.61,0.86,0.84l-0.41,1.19c-0.35-0.2-0.72-0.47-1.11-0.81
				s-0.78-0.76-1.15-1.25c-0.39-0.49-0.75-1.04-1.1-1.66c-0.35-0.62-0.65-1.31-0.91-2.07c-0.27-0.75-0.48-1.57-0.64-2.46
				s-0.24-1.83-0.24-2.84v-0.11C712.96,214.99,713.04,214.04,713.2,213.16z"/>
			<path class="st2" d="M731.71,217.15c-0.21-0.32-0.49-0.6-0.83-0.82c-0.34-0.22-0.71-0.4-1.11-0.55c-0.4-0.15-0.79-0.28-1.17-0.4
				c-0.54-0.18-1.09-0.39-1.65-0.64c-0.56-0.25-1.07-0.55-1.52-0.9c-0.46-0.36-0.84-0.78-1.13-1.27c-0.29-0.49-0.44-1.06-0.44-1.72
				s0.15-1.25,0.44-1.77c0.29-0.52,0.67-0.96,1.14-1.32s1.01-0.63,1.6-0.82c0.6-0.19,1.2-0.28,1.8-0.28c0.67,0,1.31,0.11,1.93,0.33
				c0.62,0.22,1.17,0.53,1.65,0.93c0.48,0.4,0.86,0.89,1.15,1.46c0.29,0.57,0.44,1.21,0.45,1.91h-2c-0.06-0.44-0.17-0.84-0.33-1.21
				c-0.16-0.36-0.38-0.67-0.64-0.93c-0.27-0.26-0.58-0.46-0.95-0.61c-0.37-0.14-0.79-0.22-1.25-0.22c-0.37,0-0.74,0.05-1.09,0.16
				c-0.35,0.11-0.67,0.26-0.94,0.47c-0.28,0.21-0.5,0.47-0.67,0.78s-0.25,0.67-0.25,1.08c0.01,0.44,0.12,0.82,0.34,1.12
				s0.5,0.56,0.83,0.77c0.33,0.21,0.69,0.39,1.08,0.53c0.39,0.14,0.76,0.26,1.1,0.37c0.57,0.18,1.14,0.39,1.71,0.64
				c0.57,0.25,1.09,0.57,1.56,0.95c0.46,0.36,0.84,0.8,1.12,1.32c0.28,0.52,0.43,1.12,0.43,1.8c0,0.69-0.15,1.29-0.46,1.8
				c-0.31,0.51-0.7,0.94-1.19,1.28c-0.49,0.34-1.03,0.6-1.65,0.78c-0.61,0.17-1.22,0.26-1.83,0.26c-0.73,0-1.45-0.12-2.16-0.37
				s-1.32-0.6-1.84-1.06c-0.46-0.4-0.83-0.87-1.1-1.41c-0.27-0.54-0.42-1.14-0.44-1.8h1.99c0.06,0.48,0.19,0.9,0.39,1.27
				c0.2,0.37,0.45,0.68,0.76,0.93c0.31,0.26,0.67,0.46,1.07,0.58s0.85,0.2,1.32,0.2c0.38,0,0.75-0.05,1.12-0.14s0.7-0.24,0.99-0.45
				c0.29-0.2,0.52-0.45,0.71-0.75s0.27-0.67,0.27-1.09C732.03,217.87,731.92,217.48,731.71,217.15z"/>
			<path class="st2" d="M743.83,218.94c-0.16,0.89-0.37,1.71-0.64,2.46c-0.27,0.76-0.57,1.45-0.92,2.07
				c-0.35,0.62-0.71,1.18-1.09,1.66c-0.39,0.49-0.78,0.91-1.17,1.25c-0.39,0.34-0.76,0.61-1.11,0.81l-0.41-1.19
				c0.3-0.22,0.59-0.5,0.9-0.84c0.3-0.34,0.59-0.74,0.87-1.19c0.26-0.46,0.51-0.97,0.75-1.54c0.24-0.57,0.44-1.2,0.6-1.88
				c0.16-0.63,0.29-1.32,0.37-2.05c0.09-0.74,0.13-1.52,0.13-2.36v-0.15c0-0.95-0.06-1.81-0.17-2.58s-0.24-1.43-0.38-1.97
				c-0.2-0.77-0.45-1.47-0.74-2.08s-0.58-1.15-0.89-1.61c-0.23-0.36-0.47-0.67-0.72-0.94c-0.25-0.27-0.49-0.5-0.72-0.69l0.41-1.19
				c0.35,0.2,0.72,0.47,1.12,0.81c0.39,0.34,0.78,0.76,1.16,1.24c0.39,0.5,0.76,1.05,1.11,1.67c0.34,0.61,0.65,1.3,0.91,2.07
				c0.25,0.74,0.46,1.54,0.63,2.4s0.25,1.83,0.25,2.9v0.11C744.07,217.11,743.99,218.05,743.83,218.94z"/>
			<path class="st2" d="M753.69,219.9c0.25-0.29,0.64-0.44,1.15-0.44c0.51,0,0.89,0.15,1.15,0.44c0.26,0.29,0.4,0.65,0.4,1.07
				c0,0.42-0.13,0.76-0.4,1.04c-0.27,0.28-0.65,0.42-1.15,0.42c-0.51,0-0.89-0.14-1.14-0.43s-0.38-0.63-0.38-1.04
				C753.31,220.55,753.43,220.19,753.69,219.9z"/>
		</g>
	</g>
</g>
</svg>
