<?xml version="1.0" encoding="utf-8"?>
<!-- Generator: Adobe Illustrator 28.2.0, SVG Export Plug-In . SVG Version: 6.00 Build 0)  -->
<svg version="1.1" id="Layer_1" xmlns="http://www.w3.org/2000/svg" xmlns:xlink="http://www.w3.org/1999/xlink" x="0px" y="0px"
	 viewBox="0 0 900 229.1" style="enable-background:new 0 0 900 229.1;" xml:space="preserve">
<style type="text/css">
	.st0{fill:#1717E2;}
	.st1{fill:#FF1A56;}
</style>
<g>
	<g>
		<g>
			<path class="st0" d="M42.04,116.38l-1.54,8.81h-4.02l3.68-21.28h13.99l-0.6,3.35h-9.94l-1.01,5.79h8.86l-0.58,3.33H42.04z"/>
			<path class="st0" d="M55.67,114.08c0.44-1,1.02-1.87,1.73-2.62c0.71-0.75,1.55-1.34,2.52-1.77c0.97-0.43,2.05-0.63,3.24-0.6
				c0.83,0.01,1.57,0.14,2.23,0.38c0.66,0.24,1.23,0.58,1.72,0.99c0.39,0.35,0.73,0.74,1.02,1.16c0.29,0.42,0.53,0.88,0.72,1.37
				c0.22,0.61,0.37,1.27,0.45,1.97c0.07,0.7,0.07,1.41-0.01,2.14l-0.04,0.32c-0.14,1.11-0.43,2.16-0.87,3.15
				c-0.44,0.99-1.02,1.85-1.73,2.59c-0.71,0.74-1.55,1.32-2.52,1.75s-2.04,0.62-3.22,0.59c-0.86-0.02-1.64-0.17-2.35-0.44
				c-0.71-0.27-1.27-0.62-1.7-1.04c-0.38-0.38-0.7-0.76-0.96-1.15c-0.26-0.39-0.49-0.82-0.67-1.3c-0.22-0.59-0.37-1.23-0.45-1.91
				c-0.07-0.68-0.07-1.38,0.01-2.1l0.03-0.31C54.93,116.13,55.22,115.07,55.67,114.08z M58.67,119.09c0.01,0.54,0.1,1.04,0.26,1.5
				c0.16,0.47,0.41,0.86,0.77,1.18c0.36,0.32,0.85,0.48,1.48,0.5c0.66,0.02,1.23-0.12,1.72-0.42s0.89-0.68,1.22-1.16
				c0.32-0.47,0.57-0.99,0.75-1.57c0.18-0.58,0.31-1.15,0.39-1.7l0.03-0.31c0.05-0.53,0.07-1.09,0.05-1.68s-0.14-1.16-0.37-1.7
				c-0.18-0.4-0.43-0.72-0.77-0.96c-0.34-0.24-0.78-0.38-1.33-0.41c-0.67-0.02-1.25,0.12-1.73,0.41c-0.48,0.29-0.88,0.68-1.21,1.15
				c-0.33,0.48-0.59,1.01-0.78,1.59c-0.19,0.58-0.32,1.16-0.39,1.72l-0.03,0.31C58.68,118.03,58.66,118.55,58.67,119.09z"/>
			<path class="st0" d="M86.6,109.18c0.49,0.07,0.99,0.17,1.48,0.3L87,113.53c-0.51-0.13-1.01-0.23-1.52-0.3
				c-0.51-0.07-1.02-0.11-1.55-0.12c-0.56-0.01-1.09,0.05-1.58,0.18c-0.49,0.13-0.94,0.32-1.36,0.57c-0.35,0.2-0.68,0.46-0.97,0.77
				c-0.3,0.31-0.57,0.66-0.83,1.06l-1.65,9.52h-3.96l2.75-15.81h3.68l-0.31,1.96l-0.1,0.64c0.35-0.43,0.73-0.82,1.13-1.18
				c0.4-0.36,0.83-0.67,1.29-0.94c0.46-0.25,0.94-0.45,1.45-0.59c0.51-0.14,1.05-0.21,1.63-0.21
				C85.6,109.06,86.1,109.11,86.6,109.18z"/>
			<path class="st0" d="M93.91,111.31c0.35-0.64,0.8-1.18,1.34-1.6c0.54-0.42,1.2-0.64,1.97-0.64c0.35,0,0.67,0.05,0.95,0.15
				c0.28,0.1,0.53,0.25,0.75,0.45c0.14,0.13,0.25,0.28,0.34,0.47c0.09,0.19,0.16,0.39,0.21,0.63c0.39-0.5,0.83-0.9,1.31-1.22
				c0.48-0.32,1.05-0.47,1.72-0.46c0.53,0.01,0.97,0.13,1.33,0.35c0.36,0.22,0.63,0.51,0.82,0.86c0.34,0.64,0.53,1.31,0.58,2.01
				s0.02,1.33-0.08,1.91l-1.81,10.98h-3.61l1.92-11.33c0.02-0.16,0.03-0.32,0.03-0.49s-0.02-0.33-0.07-0.48s-0.13-0.27-0.24-0.37
				c-0.11-0.1-0.27-0.15-0.48-0.15c-0.17,0-0.31,0.02-0.45,0.07c-0.13,0.05-0.26,0.12-0.37,0.2c-0.08,0.06-0.15,0.13-0.23,0.2
				c-0.07,0.08-0.15,0.16-0.23,0.23l-2.12,12.09h-3.49l1.91-11.34c0.01-0.16,0.02-0.32,0.02-0.5s-0.01-0.34-0.05-0.48
				c-0.05-0.14-0.13-0.25-0.24-0.34c-0.11-0.09-0.28-0.14-0.49-0.14c-0.18,0-0.33,0.03-0.48,0.1c-0.14,0.06-0.27,0.14-0.37,0.24
				c-0.1,0.09-0.19,0.18-0.26,0.28c-0.08,0.1-0.15,0.21-0.22,0.33l-2.06,11.85h-3.61l2.75-15.81l3.39-0.01L93.91,111.31z"/>
			<path class="st0" d="M116.27,124.45c-0.01-0.24-0.02-0.48-0.01-0.74c-0.21,0.19-0.43,0.38-0.66,0.55
				c-0.22,0.17-0.45,0.32-0.69,0.46c-0.45,0.25-0.93,0.45-1.43,0.58c-0.51,0.13-1.04,0.19-1.61,0.18c-0.66-0.01-1.29-0.12-1.89-0.34
				s-1.12-0.53-1.56-0.93c-0.45-0.39-0.79-0.87-1.04-1.43c-0.24-0.56-0.35-1.2-0.32-1.9s0.16-1.32,0.4-1.86
				c0.24-0.54,0.55-1,0.94-1.4s0.84-0.73,1.34-1c0.51-0.27,1.05-0.48,1.62-0.65c0.57-0.17,1.17-0.28,1.78-0.35
				c0.61-0.07,1.21-0.1,1.81-0.1l2.28,0.03l0.19-0.98c0.06-0.38,0.05-0.72-0.04-1.02c-0.08-0.3-0.22-0.56-0.42-0.77
				c-0.2-0.2-0.46-0.36-0.76-0.47c-0.3-0.11-0.64-0.17-1.02-0.18c-0.35-0.01-0.67,0.03-0.97,0.11c-0.3,0.08-0.56,0.21-0.78,0.39
				c-0.21,0.16-0.39,0.36-0.53,0.61c-0.14,0.25-0.25,0.53-0.31,0.86l-3.96,0.03c0.06-0.88,0.31-1.63,0.75-2.27s0.99-1.17,1.65-1.59
				c0.66-0.41,1.4-0.71,2.2-0.9c0.8-0.19,1.6-0.28,2.39-0.27c0.83,0.02,1.61,0.15,2.35,0.39c0.74,0.24,1.38,0.59,1.93,1.05
				c0.54,0.47,0.94,1.04,1.22,1.72c0.28,0.68,0.37,1.48,0.29,2.38l-1.1,6.8c-0.09,0.58-0.15,1.16-0.2,1.76s0.04,1.18,0.24,1.75
				l-0.01,0.26h-3.93C116.33,124.94,116.28,124.69,116.27,124.45z M114.08,122.22c0.38-0.1,0.74-0.24,1.07-0.44
				c0.23-0.14,0.46-0.3,0.68-0.48c0.22-0.19,0.42-0.39,0.61-0.61l0.5-2.73l-1.8-0.01c-0.39,0-0.78,0.03-1.18,0.1
				c-0.4,0.07-0.77,0.18-1.13,0.32c-0.22,0.12-0.44,0.25-0.66,0.39s-0.4,0.31-0.56,0.52c-0.13,0.17-0.23,0.36-0.32,0.57
				c-0.09,0.21-0.15,0.45-0.19,0.72c-0.04,0.3-0.02,0.56,0.06,0.79c0.08,0.22,0.2,0.41,0.37,0.56c0.17,0.15,0.37,0.26,0.61,0.34
				c0.24,0.08,0.5,0.12,0.78,0.12C113.31,122.37,113.7,122.32,114.08,122.22z"/>
			<path class="st0" d="M137.53,102.74l-3.32,19.15h4.4l-0.58,3.3h-12.99l0.58-3.3h4.59l2.75-15.83h-4.6l0.58-3.32H137.53z"/>
			<path class="st0" d="M162.1,109.38l3.57-0.01l-0.26,2.22c0.25-0.3,0.52-0.58,0.8-0.85c0.28-0.26,0.57-0.5,0.88-0.7
				c0.46-0.31,0.96-0.55,1.5-0.72c0.54-0.17,1.12-0.24,1.73-0.23c0.92,0.02,1.67,0.21,2.27,0.57c0.6,0.36,1.07,0.84,1.41,1.43
				c0.34,0.59,0.56,1.27,0.67,2.02c0.11,0.76,0.12,1.54,0.03,2.35l-1.62,9.73h-3.96l1.61-9.69c0.05-0.46,0.05-0.87,0.01-1.25
				s-0.15-0.7-0.31-0.97c-0.18-0.27-0.42-0.49-0.74-0.64c-0.32-0.16-0.72-0.24-1.22-0.25c-0.33-0.01-0.65,0.02-0.95,0.1
				c-0.3,0.07-0.58,0.18-0.85,0.33c-0.25,0.13-0.49,0.29-0.72,0.48c-0.22,0.2-0.44,0.41-0.64,0.64l-1.97,11.25h-3.98L162.1,109.38z"
				/>
			<path class="st0" d="M186.54,124.45c-0.01-0.24-0.02-0.48-0.01-0.74c-0.21,0.19-0.43,0.38-0.66,0.55
				c-0.22,0.17-0.45,0.32-0.69,0.46c-0.45,0.25-0.93,0.45-1.43,0.58c-0.51,0.13-1.04,0.19-1.61,0.18c-0.66-0.01-1.29-0.12-1.89-0.34
				s-1.12-0.53-1.56-0.93c-0.45-0.39-0.79-0.87-1.04-1.43c-0.24-0.56-0.35-1.2-0.32-1.9s0.16-1.32,0.4-1.86
				c0.24-0.54,0.55-1,0.94-1.4s0.84-0.73,1.34-1c0.51-0.27,1.05-0.48,1.62-0.65c0.57-0.17,1.17-0.28,1.78-0.35
				c0.61-0.07,1.21-0.1,1.81-0.1l2.28,0.03l0.19-0.98c0.06-0.38,0.05-0.72-0.04-1.02c-0.08-0.3-0.22-0.56-0.42-0.77
				c-0.2-0.2-0.46-0.36-0.76-0.47c-0.3-0.11-0.64-0.17-1.02-0.18c-0.35-0.01-0.67,0.03-0.97,0.11c-0.3,0.08-0.56,0.21-0.78,0.39
				c-0.21,0.16-0.39,0.36-0.53,0.61c-0.14,0.25-0.25,0.53-0.31,0.86l-3.96,0.03c0.06-0.88,0.31-1.63,0.75-2.27s0.99-1.17,1.65-1.59
				c0.66-0.41,1.4-0.71,2.2-0.9c0.8-0.19,1.6-0.28,2.39-0.27c0.83,0.02,1.61,0.15,2.35,0.39c0.74,0.24,1.38,0.59,1.93,1.05
				c0.54,0.47,0.94,1.04,1.22,1.72c0.28,0.68,0.37,1.48,0.29,2.38l-1.1,6.8c-0.09,0.58-0.15,1.16-0.2,1.76s0.04,1.18,0.24,1.75
				l-0.01,0.26h-3.93C186.61,124.94,186.56,124.69,186.54,124.45z M184.36,122.22c0.38-0.1,0.74-0.24,1.07-0.44
				c0.23-0.14,0.46-0.3,0.68-0.48c0.22-0.19,0.42-0.39,0.61-0.61l0.5-2.73l-1.8-0.01c-0.39,0-0.78,0.03-1.18,0.1
				c-0.4,0.07-0.77,0.18-1.13,0.32c-0.22,0.12-0.44,0.25-0.66,0.39s-0.4,0.31-0.56,0.52c-0.13,0.17-0.23,0.36-0.32,0.57
				c-0.09,0.21-0.15,0.45-0.19,0.72c-0.04,0.3-0.02,0.56,0.06,0.79c0.08,0.22,0.2,0.41,0.37,0.56c0.17,0.15,0.37,0.26,0.61,0.34
				c0.24,0.08,0.5,0.12,0.78,0.12C183.59,122.37,183.98,122.32,184.36,122.22z"/>
			<path class="st0" d="M199.33,111.31c0.35-0.64,0.8-1.18,1.34-1.6c0.54-0.42,1.2-0.64,1.97-0.64c0.35,0,0.67,0.05,0.95,0.15
				c0.28,0.1,0.53,0.25,0.75,0.45c0.14,0.13,0.25,0.28,0.34,0.47c0.09,0.19,0.16,0.39,0.21,0.63c0.39-0.5,0.83-0.9,1.31-1.22
				c0.48-0.32,1.05-0.47,1.72-0.46c0.53,0.01,0.97,0.13,1.33,0.35c0.36,0.22,0.63,0.51,0.82,0.86c0.34,0.64,0.53,1.31,0.58,2.01
				s0.02,1.33-0.08,1.91l-1.81,10.98h-3.61l1.92-11.33c0.02-0.16,0.03-0.32,0.03-0.49s-0.02-0.33-0.07-0.48s-0.13-0.27-0.24-0.37
				c-0.11-0.1-0.27-0.15-0.48-0.15c-0.17,0-0.31,0.02-0.45,0.07c-0.13,0.05-0.26,0.12-0.37,0.2c-0.08,0.06-0.15,0.13-0.23,0.2
				c-0.07,0.08-0.15,0.16-0.23,0.23l-2.12,12.09h-3.49l1.91-11.34c0.01-0.16,0.02-0.32,0.02-0.5s-0.01-0.34-0.05-0.48
				c-0.05-0.14-0.13-0.25-0.24-0.34c-0.11-0.09-0.28-0.14-0.49-0.14c-0.18,0-0.33,0.03-0.48,0.1c-0.14,0.06-0.27,0.14-0.37,0.24
				c-0.1,0.09-0.19,0.18-0.26,0.28c-0.08,0.1-0.15,0.21-0.22,0.33l-2.06,11.85h-3.61l2.75-15.81l3.39-0.01L199.33,111.31z"/>
			<path class="st0" d="M216.79,124.87c-0.87-0.4-1.61-0.94-2.2-1.62c-0.6-0.67-1.05-1.47-1.33-2.38c-0.28-0.92-0.38-1.91-0.28-2.98
				l0.06-0.6c0.1-0.88,0.3-1.72,0.62-2.54c0.32-0.82,0.72-1.57,1.22-2.25c0.35-0.45,0.74-0.87,1.15-1.26
				c0.42-0.39,0.87-0.74,1.34-1.03c0.6-0.36,1.26-0.64,1.97-0.84s1.46-0.29,2.25-0.27c1.1,0.03,2.05,0.26,2.85,0.69
				c0.8,0.43,1.45,1,1.94,1.71c0.49,0.72,0.82,1.54,1,2.47s0.21,1.9,0.08,2.92l-0.26,1.72h-10.33c-0.02,0.51,0.04,0.98,0.19,1.41
				c0.15,0.43,0.36,0.81,0.64,1.13c0.27,0.32,0.61,0.58,1.02,0.77c0.41,0.19,0.88,0.29,1.4,0.3c0.83,0.03,1.61-0.11,2.35-0.43
				c0.74-0.32,1.39-0.77,1.95-1.35l1.8,2.21c-0.7,0.97-1.65,1.7-2.84,2.16s-2.42,0.7-3.68,0.69
				C218.64,125.47,217.66,125.27,216.79,124.87z M219.89,112.62c-0.42,0.2-0.79,0.46-1.11,0.79c-0.33,0.33-0.62,0.71-0.86,1.13
				c-0.24,0.42-0.46,0.84-0.64,1.27h6.45l0.07-0.37c0.07-0.43,0.06-0.83-0.03-1.2c-0.09-0.37-0.24-0.69-0.45-0.96
				c-0.22-0.27-0.5-0.49-0.84-0.65c-0.34-0.16-0.72-0.25-1.16-0.27C220.78,112.34,220.31,112.43,219.89,112.62z"/>
			<path class="st0" d="M320.09,121.42c-0.48,0.87-1.08,1.61-1.81,2.22s-1.57,1.08-2.51,1.41c-0.95,0.33-1.95,0.47-3.03,0.45
				c-0.87-0.02-1.64-0.16-2.31-0.43c-0.67-0.27-1.25-0.63-1.74-1.09c-0.5-0.45-0.91-0.98-1.23-1.59c-0.32-0.61-0.56-1.26-0.73-1.97
				c-0.18-0.69-0.28-1.42-0.3-2.17c-0.02-0.75,0.01-1.51,0.11-2.26l0.42-2.86c0.12-0.79,0.3-1.58,0.55-2.37
				c0.25-0.79,0.56-1.54,0.93-2.25c0.37-0.71,0.81-1.37,1.31-1.98c0.5-0.61,1.07-1.13,1.7-1.57c0.63-0.44,1.33-0.78,2.1-1.02
				s1.6-0.36,2.49-0.34c1.09,0.02,2.04,0.21,2.85,0.58c0.81,0.37,1.48,0.86,2.02,1.5c0.53,0.63,0.93,1.38,1.2,2.25
				c0.27,0.87,0.42,1.82,0.45,2.85l-3.98-0.01c0-0.52-0.04-1-0.11-1.46c-0.07-0.46-0.21-0.86-0.42-1.2
				c-0.21-0.34-0.51-0.62-0.88-0.83c-0.37-0.21-0.85-0.32-1.43-0.34c-0.56-0.02-1.05,0.06-1.48,0.24c-0.43,0.18-0.8,0.42-1.13,0.72
				c-0.33,0.31-0.62,0.68-0.85,1.1c-0.24,0.42-0.44,0.86-0.61,1.32c-0.17,0.47-0.3,0.94-0.41,1.42c-0.11,0.48-0.19,0.94-0.25,1.37
				l-0.41,2.91c-0.05,0.36-0.09,0.76-0.13,1.2c-0.04,0.44-0.05,0.88-0.04,1.33c0,0.45,0.04,0.89,0.12,1.32
				c0.08,0.43,0.21,0.81,0.41,1.14c0.19,0.34,0.46,0.62,0.79,0.83s0.76,0.32,1.27,0.34c0.58,0.03,1.11-0.04,1.56-0.22
				c0.46-0.18,0.85-0.42,1.18-0.75c0.33-0.32,0.6-0.71,0.82-1.16c0.21-0.45,0.38-0.95,0.48-1.5l3.95-0.03
				C320.88,119.58,320.57,120.55,320.09,121.42z"/>
			<path class="st0" d="M325.08,114.08c0.44-1,1.02-1.87,1.73-2.62c0.71-0.75,1.55-1.34,2.52-1.77c0.97-0.43,2.05-0.63,3.24-0.6
				c0.83,0.01,1.57,0.14,2.23,0.38c0.66,0.24,1.23,0.58,1.72,0.99c0.39,0.35,0.73,0.74,1.02,1.16c0.29,0.42,0.53,0.88,0.72,1.37
				c0.22,0.61,0.37,1.27,0.45,1.97c0.07,0.7,0.07,1.41-0.01,2.14l-0.04,0.32c-0.14,1.11-0.43,2.16-0.87,3.15
				c-0.44,0.99-1.02,1.85-1.73,2.59c-0.71,0.74-1.55,1.32-2.52,1.75s-2.04,0.62-3.22,0.59c-0.86-0.02-1.64-0.17-2.35-0.44
				c-0.71-0.27-1.27-0.62-1.7-1.04c-0.38-0.38-0.7-0.76-0.96-1.15c-0.26-0.39-0.49-0.82-0.67-1.3c-0.22-0.59-0.37-1.23-0.45-1.91
				c-0.07-0.68-0.07-1.38,0.01-2.1l0.03-0.31C324.35,116.13,324.64,115.07,325.08,114.08z M328.09,119.09
				c0.01,0.54,0.1,1.04,0.26,1.5c0.16,0.47,0.41,0.86,0.77,1.18c0.36,0.32,0.85,0.48,1.48,0.5c0.66,0.02,1.23-0.12,1.72-0.42
				s0.89-0.68,1.22-1.16c0.32-0.47,0.57-0.99,0.75-1.57c0.18-0.58,0.31-1.15,0.39-1.7l0.03-0.31c0.05-0.53,0.07-1.09,0.05-1.68
				s-0.14-1.16-0.37-1.7c-0.18-0.4-0.43-0.72-0.77-0.96c-0.34-0.24-0.78-0.38-1.33-0.41c-0.67-0.02-1.25,0.12-1.73,0.41
				c-0.48,0.29-0.88,0.68-1.21,1.15c-0.33,0.48-0.59,1.01-0.78,1.59c-0.19,0.58-0.32,1.16-0.39,1.72l-0.03,0.31
				C328.09,118.03,328.08,118.55,328.09,119.09z"/>
			<path class="st0" d="M345.76,111.31c0.35-0.64,0.8-1.18,1.34-1.6c0.54-0.42,1.2-0.64,1.97-0.64c0.35,0,0.67,0.05,0.95,0.15
				c0.28,0.1,0.53,0.25,0.75,0.45c0.14,0.13,0.25,0.28,0.34,0.47c0.09,0.19,0.16,0.39,0.21,0.63c0.39-0.5,0.83-0.9,1.31-1.22
				c0.48-0.32,1.05-0.47,1.72-0.46c0.53,0.01,0.97,0.13,1.33,0.35c0.36,0.22,0.63,0.51,0.82,0.86c0.34,0.64,0.53,1.31,0.58,2.01
				s0.02,1.33-0.08,1.91l-1.81,10.98h-3.61l1.92-11.33c0.02-0.16,0.03-0.32,0.03-0.49s-0.02-0.33-0.07-0.48s-0.13-0.27-0.24-0.37
				c-0.11-0.1-0.27-0.15-0.48-0.15c-0.17,0-0.31,0.02-0.45,0.07c-0.13,0.05-0.26,0.12-0.37,0.2c-0.08,0.06-0.15,0.13-0.23,0.2
				c-0.07,0.08-0.15,0.16-0.23,0.23l-2.12,12.09h-3.49l1.91-11.34c0.01-0.16,0.02-0.32,0.02-0.5s-0.01-0.34-0.05-0.48
				c-0.05-0.14-0.13-0.25-0.24-0.34c-0.11-0.09-0.28-0.14-0.49-0.14c-0.18,0-0.33,0.03-0.48,0.1c-0.14,0.06-0.27,0.14-0.37,0.24
				c-0.1,0.09-0.19,0.18-0.26,0.28c-0.08,0.1-0.15,0.21-0.22,0.33l-2.06,11.85h-3.61l2.75-15.81l3.39-0.01L345.76,111.31z"/>
			<path class="st0" d="M363.33,111.31c0.35-0.64,0.8-1.18,1.34-1.6c0.54-0.42,1.2-0.64,1.97-0.64c0.35,0,0.67,0.05,0.95,0.15
				c0.28,0.1,0.53,0.25,0.75,0.45c0.14,0.13,0.25,0.28,0.34,0.47c0.09,0.19,0.16,0.39,0.21,0.63c0.39-0.5,0.83-0.9,1.31-1.22
				c0.48-0.32,1.05-0.47,1.72-0.46c0.53,0.01,0.97,0.13,1.33,0.35c0.36,0.22,0.63,0.51,0.82,0.86c0.34,0.64,0.53,1.31,0.58,2.01
				s0.02,1.33-0.08,1.91l-1.81,10.98h-3.61l1.92-11.33c0.02-0.16,0.03-0.32,0.03-0.49s-0.02-0.33-0.07-0.48s-0.13-0.27-0.24-0.37
				c-0.11-0.1-0.27-0.15-0.48-0.15c-0.17,0-0.31,0.02-0.45,0.07c-0.13,0.05-0.26,0.12-0.37,0.2c-0.08,0.06-0.15,0.13-0.23,0.2
				c-0.07,0.08-0.15,0.16-0.23,0.23l-2.12,12.09h-3.49l1.91-11.34c0.01-0.16,0.02-0.32,0.02-0.5s-0.01-0.34-0.05-0.48
				c-0.05-0.14-0.13-0.25-0.24-0.34c-0.11-0.09-0.28-0.14-0.49-0.14c-0.18,0-0.33,0.03-0.48,0.1c-0.14,0.06-0.27,0.14-0.37,0.24
				c-0.1,0.09-0.19,0.18-0.26,0.28c-0.08,0.1-0.15,0.21-0.22,0.33l-2.06,11.85h-3.61l2.75-15.81l3.39-0.01L363.33,111.31z"/>
			<path class="st0" d="M377.79,114.08c0.44-1,1.02-1.87,1.73-2.62c0.71-0.75,1.55-1.34,2.52-1.77c0.97-0.43,2.05-0.63,3.24-0.6
				c0.83,0.01,1.57,0.14,2.23,0.38c0.66,0.24,1.23,0.58,1.72,0.99c0.39,0.35,0.73,0.74,1.02,1.16c0.29,0.42,0.53,0.88,0.72,1.37
				c0.22,0.61,0.37,1.27,0.45,1.97c0.07,0.7,0.07,1.41-0.01,2.14l-0.04,0.32c-0.14,1.11-0.43,2.16-0.87,3.15
				c-0.44,0.99-1.02,1.85-1.73,2.59c-0.71,0.74-1.55,1.32-2.52,1.75s-2.04,0.62-3.22,0.59c-0.86-0.02-1.64-0.17-2.35-0.44
				c-0.71-0.27-1.27-0.62-1.7-1.04c-0.38-0.38-0.7-0.76-0.96-1.15c-0.26-0.39-0.49-0.82-0.67-1.3c-0.22-0.59-0.37-1.23-0.45-1.91
				c-0.07-0.68-0.07-1.38,0.01-2.1l0.03-0.31C377.06,116.13,377.35,115.07,377.79,114.08z M380.79,119.09
				c0.01,0.54,0.1,1.04,0.26,1.5c0.16,0.47,0.41,0.86,0.77,1.18c0.36,0.32,0.85,0.48,1.48,0.5c0.66,0.02,1.23-0.12,1.72-0.42
				s0.89-0.68,1.22-1.16c0.32-0.47,0.57-0.99,0.75-1.57c0.18-0.58,0.31-1.15,0.39-1.7l0.03-0.31c0.05-0.53,0.07-1.09,0.05-1.68
				s-0.14-1.16-0.37-1.7c-0.18-0.4-0.43-0.72-0.77-0.96c-0.34-0.24-0.78-0.38-1.33-0.41c-0.67-0.02-1.25,0.12-1.73,0.41
				c-0.48,0.29-0.88,0.68-1.21,1.15c-0.33,0.48-0.59,1.01-0.78,1.59c-0.19,0.58-0.32,1.16-0.39,1.72l-0.03,0.31
				C380.8,118.03,380.78,118.55,380.79,119.09z"/>
			<path class="st0" d="M396.38,109.38l3.57-0.01l-0.26,2.22c0.25-0.3,0.52-0.58,0.8-0.85c0.28-0.26,0.57-0.5,0.88-0.7
				c0.46-0.31,0.96-0.55,1.5-0.72c0.54-0.17,1.12-0.24,1.73-0.23c0.92,0.02,1.67,0.21,2.27,0.57c0.6,0.36,1.07,0.84,1.41,1.43
				c0.34,0.59,0.56,1.27,0.67,2.02c0.11,0.76,0.12,1.54,0.03,2.35l-1.62,9.73h-3.96l1.61-9.69c0.05-0.46,0.05-0.87,0.01-1.25
				s-0.15-0.7-0.31-0.97c-0.18-0.27-0.42-0.49-0.74-0.64c-0.32-0.16-0.72-0.24-1.22-0.25c-0.33-0.01-0.65,0.02-0.95,0.1
				c-0.3,0.07-0.58,0.18-0.85,0.33c-0.25,0.13-0.49,0.29-0.72,0.48c-0.22,0.2-0.44,0.41-0.64,0.64l-1.97,11.25h-3.98L396.38,109.38z
				"/>
			<path class="st0" d="M431.51,109.38l3.57-0.01l-0.26,2.22c0.25-0.3,0.52-0.58,0.8-0.85c0.28-0.26,0.57-0.5,0.88-0.7
				c0.46-0.31,0.96-0.55,1.5-0.72c0.54-0.17,1.12-0.24,1.73-0.23c0.92,0.02,1.67,0.21,2.27,0.57c0.6,0.36,1.07,0.84,1.41,1.43
				c0.34,0.59,0.56,1.27,0.67,2.02c0.11,0.76,0.12,1.54,0.03,2.35l-1.62,9.73h-3.96l1.61-9.69c0.05-0.46,0.05-0.87,0.01-1.25
				s-0.15-0.7-0.31-0.97c-0.18-0.27-0.42-0.49-0.74-0.64c-0.32-0.16-0.72-0.24-1.22-0.25c-0.33-0.01-0.65,0.02-0.95,0.1
				c-0.3,0.07-0.58,0.18-0.85,0.33c-0.25,0.13-0.49,0.29-0.72,0.48c-0.22,0.2-0.44,0.41-0.64,0.64l-1.97,11.25h-3.98L431.51,109.38z
				"/>
			<path class="st0" d="M455.96,124.45c-0.01-0.24-0.02-0.48-0.01-0.74c-0.21,0.19-0.43,0.38-0.66,0.55
				c-0.22,0.17-0.45,0.32-0.69,0.46c-0.45,0.25-0.93,0.45-1.43,0.58c-0.51,0.13-1.04,0.19-1.61,0.18c-0.66-0.01-1.29-0.12-1.89-0.34
				s-1.12-0.53-1.56-0.93c-0.45-0.39-0.79-0.87-1.04-1.43c-0.24-0.56-0.35-1.2-0.32-1.9s0.16-1.32,0.4-1.86
				c0.24-0.54,0.55-1,0.94-1.4s0.84-0.73,1.34-1c0.51-0.27,1.05-0.48,1.62-0.65c0.58-0.17,1.17-0.28,1.78-0.35
				c0.61-0.07,1.21-0.1,1.8-0.1l2.28,0.03l0.19-0.98c0.06-0.38,0.05-0.72-0.04-1.02c-0.08-0.3-0.22-0.56-0.42-0.77
				c-0.21-0.2-0.46-0.36-0.76-0.47c-0.3-0.11-0.64-0.17-1.02-0.18c-0.35-0.01-0.67,0.03-0.97,0.11c-0.3,0.08-0.56,0.21-0.78,0.39
				c-0.21,0.16-0.39,0.36-0.53,0.61c-0.14,0.25-0.25,0.53-0.31,0.86l-3.96,0.03c0.06-0.88,0.31-1.63,0.75-2.27s0.99-1.17,1.65-1.59
				c0.66-0.41,1.4-0.71,2.2-0.9s1.6-0.28,2.39-0.27c0.83,0.02,1.61,0.15,2.35,0.39c0.74,0.24,1.38,0.59,1.93,1.05
				c0.54,0.47,0.94,1.04,1.22,1.72c0.28,0.68,0.37,1.48,0.29,2.38l-1.1,6.8c-0.09,0.58-0.15,1.16-0.2,1.76s0.04,1.18,0.24,1.75
				l-0.01,0.26h-3.93C456.02,124.94,455.97,124.69,455.96,124.45z M453.77,122.22c0.38-0.1,0.74-0.24,1.07-0.44
				c0.23-0.14,0.46-0.3,0.68-0.48c0.22-0.19,0.42-0.39,0.61-0.61l0.5-2.73l-1.8-0.01c-0.39,0-0.78,0.03-1.18,0.1
				c-0.4,0.07-0.78,0.18-1.13,0.32c-0.22,0.12-0.44,0.25-0.66,0.39c-0.21,0.14-0.4,0.31-0.56,0.52c-0.13,0.17-0.23,0.36-0.32,0.57
				c-0.09,0.21-0.15,0.45-0.19,0.72c-0.04,0.3-0.02,0.56,0.06,0.79s0.2,0.41,0.37,0.56c0.17,0.15,0.37,0.26,0.61,0.34
				c0.24,0.08,0.5,0.12,0.78,0.12C453,122.37,453.39,122.32,453.77,122.22z"/>
			<path class="st0" d="M468.74,111.31c0.35-0.64,0.8-1.18,1.34-1.6c0.54-0.42,1.2-0.64,1.97-0.64c0.35,0,0.67,0.05,0.95,0.15
				c0.28,0.1,0.53,0.25,0.75,0.45c0.14,0.13,0.25,0.28,0.34,0.47c0.09,0.19,0.16,0.39,0.21,0.63c0.39-0.5,0.83-0.9,1.31-1.22
				c0.48-0.32,1.05-0.47,1.72-0.46c0.53,0.01,0.97,0.13,1.33,0.35c0.36,0.22,0.63,0.51,0.82,0.86c0.34,0.64,0.53,1.31,0.58,2.01
				c0.04,0.7,0.02,1.33-0.08,1.91l-1.81,10.98h-3.61l1.92-11.33c0.02-0.16,0.03-0.32,0.03-0.49s-0.02-0.33-0.07-0.48
				s-0.13-0.27-0.24-0.37c-0.11-0.1-0.27-0.15-0.47-0.15c-0.17,0-0.31,0.02-0.45,0.07s-0.26,0.12-0.37,0.2
				c-0.08,0.06-0.15,0.13-0.23,0.2c-0.07,0.08-0.15,0.16-0.23,0.23l-2.12,12.09h-3.49l1.92-11.34c0.01-0.16,0.02-0.32,0.02-0.5
				s-0.01-0.34-0.05-0.48c-0.05-0.14-0.13-0.25-0.24-0.34c-0.11-0.09-0.28-0.14-0.49-0.14c-0.17,0-0.33,0.03-0.47,0.1
				s-0.27,0.14-0.37,0.24c-0.1,0.09-0.18,0.18-0.26,0.28c-0.08,0.1-0.15,0.21-0.22,0.33l-2.06,11.85h-3.61l2.75-15.81l3.39-0.01
				L468.74,111.31z"/>
			<path class="st0" d="M486.2,124.87c-0.87-0.4-1.61-0.94-2.2-1.62c-0.6-0.67-1.05-1.47-1.33-2.38c-0.28-0.92-0.38-1.91-0.28-2.98
				l0.06-0.6c0.1-0.88,0.3-1.72,0.62-2.54c0.32-0.82,0.72-1.57,1.22-2.25c0.35-0.45,0.74-0.87,1.15-1.26
				c0.42-0.39,0.87-0.74,1.34-1.03c0.6-0.36,1.26-0.64,1.97-0.84c0.71-0.2,1.46-0.29,2.25-0.27c1.1,0.03,2.05,0.26,2.85,0.69
				s1.45,1,1.94,1.71c0.49,0.72,0.82,1.54,1,2.47s0.21,1.9,0.08,2.92l-0.26,1.72H486.3c-0.02,0.51,0.04,0.98,0.19,1.41
				c0.15,0.43,0.36,0.81,0.64,1.13c0.27,0.32,0.61,0.58,1.02,0.77c0.41,0.19,0.88,0.29,1.4,0.3c0.83,0.03,1.61-0.11,2.35-0.43
				c0.74-0.32,1.39-0.77,1.95-1.35l1.8,2.21c-0.7,0.97-1.65,1.7-2.84,2.16s-2.42,0.7-3.68,0.69
				C488.05,125.47,487.07,125.27,486.2,124.87z M489.31,112.62c-0.42,0.2-0.79,0.46-1.11,0.79c-0.33,0.33-0.62,0.71-0.86,1.13
				c-0.24,0.42-0.46,0.84-0.64,1.27h6.45l0.07-0.37c0.07-0.43,0.06-0.83-0.03-1.2c-0.09-0.37-0.24-0.69-0.45-0.96
				c-0.22-0.27-0.5-0.49-0.84-0.65s-0.72-0.25-1.16-0.27C490.2,112.34,489.73,112.43,489.31,112.62z"/>
			<path class="st0" d="M586.66,118.23c-0.17-0.36-0.41-0.67-0.72-0.94c-0.32-0.25-0.69-0.47-1.1-0.64
				c-0.41-0.18-0.81-0.33-1.21-0.47c-0.76-0.24-1.51-0.55-2.24-0.93c-0.74-0.38-1.39-0.83-1.95-1.35c-0.56-0.53-1.01-1.14-1.34-1.85
				s-0.46-1.51-0.4-2.42c0.06-1.01,0.34-1.9,0.83-2.66c0.5-0.76,1.12-1.39,1.87-1.9c0.75-0.51,1.59-0.88,2.51-1.13
				s1.84-0.36,2.77-0.34c0.96,0.02,1.86,0.19,2.67,0.5c0.82,0.31,1.52,0.75,2.1,1.32c0.58,0.57,1.04,1.25,1.35,2.05
				c0.32,0.8,0.46,1.7,0.43,2.69l-3.89-0.01c0.01-0.48-0.05-0.92-0.17-1.32c-0.12-0.4-0.3-0.74-0.55-1.02
				c-0.25-0.28-0.57-0.5-0.94-0.66s-0.82-0.24-1.32-0.25c-0.43-0.01-0.85,0.04-1.28,0.15c-0.42,0.11-0.81,0.28-1.16,0.5
				c-0.35,0.23-0.65,0.52-0.89,0.87c-0.24,0.35-0.39,0.75-0.45,1.22c-0.06,0.5,0.02,0.92,0.25,1.26s0.53,0.64,0.91,0.87
				c0.37,0.24,0.77,0.45,1.21,0.61s0.84,0.3,1.2,0.42c0.77,0.26,1.5,0.59,2.21,0.99c0.7,0.39,1.32,0.86,1.84,1.41
				c0.52,0.55,0.92,1.18,1.21,1.89c0.29,0.72,0.4,1.52,0.34,2.4c-0.07,1.02-0.34,1.9-0.82,2.62s-1.07,1.35-1.77,1.86
				c-0.73,0.55-1.57,0.93-2.52,1.16s-1.9,0.33-2.86,0.31c-1.02-0.02-1.98-0.19-2.87-0.5s-1.66-0.77-2.31-1.37
				c-0.65-0.59-1.16-1.31-1.51-2.16c-0.36-0.84-0.52-1.8-0.49-2.87l3.92,0.01c-0.02,0.58,0.04,1.09,0.19,1.54s0.37,0.83,0.66,1.14
				c0.28,0.3,0.65,0.53,1.1,0.69c0.45,0.16,0.96,0.25,1.55,0.26c0.43,0,0.85-0.05,1.28-0.15s0.81-0.27,1.16-0.49
				c0.35-0.21,0.65-0.49,0.89-0.83c0.24-0.34,0.4-0.74,0.47-1.21C586.88,119.03,586.83,118.6,586.66,118.23z"/>
			<path class="st0" d="M594.5,114.08c0.44-1,1.02-1.87,1.73-2.62c0.71-0.75,1.55-1.34,2.52-1.77c0.97-0.43,2.05-0.63,3.24-0.6
				c0.83,0.01,1.57,0.14,2.23,0.38c0.66,0.24,1.23,0.58,1.72,0.99c0.39,0.35,0.73,0.74,1.02,1.16c0.29,0.42,0.53,0.88,0.72,1.37
				c0.22,0.61,0.37,1.27,0.45,1.97s0.07,1.41-0.01,2.14l-0.04,0.32c-0.14,1.11-0.43,2.16-0.87,3.15c-0.44,0.99-1.02,1.85-1.73,2.59
				c-0.71,0.74-1.55,1.32-2.52,1.75c-0.97,0.42-2.04,0.62-3.22,0.59c-0.86-0.02-1.64-0.17-2.35-0.44c-0.71-0.27-1.27-0.62-1.7-1.04
				c-0.38-0.38-0.7-0.76-0.96-1.15c-0.26-0.39-0.49-0.82-0.67-1.3c-0.22-0.59-0.37-1.23-0.45-1.91c-0.07-0.68-0.07-1.38,0.01-2.1
				l0.03-0.31C593.76,116.13,594.05,115.07,594.5,114.08z M597.5,119.09c0.01,0.54,0.1,1.04,0.26,1.5c0.16,0.47,0.41,0.86,0.77,1.18
				c0.36,0.32,0.85,0.48,1.48,0.5c0.66,0.02,1.24-0.12,1.72-0.42c0.48-0.3,0.89-0.68,1.22-1.16c0.32-0.47,0.57-0.99,0.75-1.57
				c0.18-0.58,0.31-1.15,0.39-1.7l0.03-0.31c0.05-0.53,0.07-1.09,0.05-1.68s-0.14-1.16-0.37-1.7c-0.17-0.4-0.43-0.72-0.77-0.96
				c-0.34-0.24-0.78-0.38-1.33-0.41c-0.67-0.02-1.25,0.12-1.73,0.41c-0.48,0.29-0.88,0.68-1.21,1.15c-0.33,0.48-0.59,1.01-0.78,1.59
				c-0.19,0.58-0.32,1.16-0.39,1.72l-0.03,0.31C597.51,118.03,597.49,118.55,597.5,119.09z"/>
			<path class="st0" d="M613.73,124.88c-0.61-0.4-1.08-0.91-1.42-1.52c-0.37-0.67-0.59-1.41-0.67-2.2
				c-0.08-0.79-0.07-1.61,0.01-2.43l1.56-9.35h3.96l-1.56,9.4c-0.05,0.41-0.08,0.82-0.08,1.22c0,0.4,0.05,0.77,0.17,1.09
				c0.11,0.32,0.3,0.58,0.57,0.79c0.27,0.2,0.66,0.31,1.17,0.32c0.4,0.01,0.77-0.03,1.12-0.12s0.67-0.22,0.96-0.39
				c0.23-0.15,0.46-0.32,0.67-0.52c0.21-0.2,0.41-0.43,0.59-0.68l1.94-11.11h3.98l-2.75,15.81h-3.58l0.31-2.24
				c-0.58,0.74-1.26,1.35-2.02,1.84c-0.77,0.49-1.62,0.72-2.57,0.7C615.12,125.49,614.34,125.28,613.73,124.88z"/>
			<path class="st0" d="M643,109.18c0.49,0.07,0.99,0.17,1.48,0.3l-1.08,4.05c-0.51-0.13-1.01-0.23-1.52-0.3
				c-0.51-0.07-1.02-0.11-1.55-0.12c-0.57-0.01-1.09,0.05-1.58,0.18c-0.49,0.13-0.94,0.32-1.36,0.57c-0.35,0.2-0.67,0.46-0.97,0.77
				c-0.3,0.31-0.57,0.66-0.83,1.06l-1.65,9.52h-3.96l2.75-15.81h3.68l-0.31,1.96l-0.1,0.64c0.35-0.43,0.73-0.82,1.12-1.18
				c0.4-0.36,0.83-0.67,1.29-0.94c0.46-0.25,0.94-0.45,1.46-0.59c0.51-0.14,1.05-0.21,1.63-0.21C642,109.06,642.5,109.11,643,109.18
				z"/>
			<path class="st0" d="M653.88,122.11c0.36-0.11,0.68-0.27,0.97-0.48c0.28-0.2,0.52-0.46,0.72-0.77c0.2-0.31,0.33-0.66,0.39-1.05
				l3.71-0.03c-0.05,0.9-0.29,1.7-0.72,2.42c-0.43,0.72-0.97,1.32-1.64,1.82c-0.67,0.5-1.42,0.88-2.24,1.13
				c-0.82,0.26-1.66,0.38-2.51,0.36c-0.72-0.01-1.38-0.11-1.97-0.29s-1.11-0.43-1.56-0.75c-0.6-0.44-1.11-0.98-1.51-1.62
				c-0.4-0.64-0.69-1.34-0.87-2.1c-0.12-0.49-0.19-1-0.22-1.54c-0.03-0.54-0.01-1.09,0.04-1.64l0.04-0.45
				c0.14-1.14,0.44-2.2,0.91-3.19c0.47-0.99,1.09-1.88,1.87-2.68c0.69-0.7,1.5-1.24,2.43-1.62c0.93-0.38,1.96-0.56,3.08-0.53
				c0.91,0.02,1.72,0.18,2.46,0.48c0.73,0.3,1.35,0.72,1.87,1.26c0.51,0.55,0.89,1.19,1.15,1.94c0.26,0.75,0.36,1.57,0.31,2.48
				l-3.73-0.01c0.03-0.39,0-0.76-0.09-1.1c-0.09-0.35-0.23-0.65-0.44-0.9c-0.21-0.25-0.46-0.46-0.78-0.61
				c-0.31-0.15-0.68-0.24-1.1-0.26c-0.44-0.01-0.83,0.04-1.18,0.16c-0.35,0.12-0.66,0.28-0.93,0.5c-0.21,0.18-0.42,0.38-0.6,0.61
				c-0.19,0.23-0.34,0.47-0.45,0.7c-0.22,0.42-0.4,0.87-0.53,1.35c-0.13,0.48-0.23,0.96-0.29,1.43l-0.06,0.44
				c-0.03,0.31-0.05,0.65-0.07,1c-0.01,0.36-0.01,0.7,0.02,1.04c0.05,0.39,0.13,0.77,0.25,1.13c0.12,0.37,0.3,0.67,0.56,0.93
				c0.18,0.18,0.39,0.32,0.65,0.42c0.26,0.11,0.56,0.17,0.91,0.18C653.16,122.26,653.53,122.22,653.88,122.11z"/>
			<path class="st0" d="M667.77,124.87c-0.87-0.4-1.61-0.94-2.2-1.62c-0.6-0.67-1.05-1.47-1.33-2.38c-0.28-0.92-0.38-1.91-0.28-2.98
				l0.06-0.6c0.1-0.88,0.3-1.72,0.62-2.54c0.32-0.82,0.72-1.57,1.22-2.25c0.35-0.45,0.74-0.87,1.15-1.26
				c0.42-0.39,0.87-0.74,1.34-1.03c0.6-0.36,1.26-0.64,1.97-0.84c0.71-0.2,1.46-0.29,2.25-0.27c1.1,0.03,2.05,0.26,2.85,0.69
				s1.45,1,1.94,1.71c0.49,0.72,0.82,1.54,1,2.47s0.21,1.9,0.08,2.92l-0.26,1.72h-10.33c-0.02,0.51,0.04,0.98,0.19,1.41
				c0.15,0.43,0.36,0.81,0.64,1.13c0.27,0.32,0.61,0.58,1.02,0.77c0.41,0.19,0.88,0.29,1.4,0.3c0.83,0.03,1.61-0.11,2.35-0.43
				c0.74-0.32,1.39-0.77,1.95-1.35l1.8,2.21c-0.7,0.97-1.65,1.7-2.84,2.16s-2.42,0.7-3.68,0.69
				C669.62,125.47,668.64,125.27,667.77,124.87z M670.88,112.62c-0.42,0.2-0.79,0.46-1.11,0.79c-0.33,0.33-0.62,0.71-0.86,1.13
				c-0.24,0.42-0.46,0.84-0.64,1.27h6.45l0.07-0.37c0.07-0.43,0.06-0.83-0.03-1.2c-0.09-0.37-0.24-0.69-0.45-0.96
				c-0.22-0.27-0.5-0.49-0.84-0.65s-0.72-0.25-1.16-0.27C671.77,112.34,671.29,112.43,670.88,112.62z"/>
			<path class="st0" d="M699.91,114.08c0.44-1,1.02-1.87,1.73-2.62c0.71-0.75,1.55-1.34,2.52-1.77c0.97-0.43,2.05-0.63,3.24-0.6
				c0.83,0.01,1.57,0.14,2.23,0.38c0.66,0.24,1.23,0.58,1.72,0.99c0.39,0.35,0.73,0.74,1.02,1.16c0.29,0.42,0.53,0.88,0.72,1.37
				c0.22,0.61,0.37,1.27,0.45,1.97s0.07,1.41-0.01,2.14l-0.04,0.32c-0.14,1.11-0.43,2.16-0.87,3.15c-0.44,0.99-1.02,1.85-1.73,2.59
				c-0.71,0.74-1.55,1.32-2.52,1.75c-0.97,0.42-2.04,0.62-3.22,0.59c-0.86-0.02-1.64-0.17-2.35-0.44c-0.71-0.27-1.27-0.62-1.7-1.04
				c-0.38-0.38-0.7-0.76-0.96-1.15c-0.26-0.39-0.49-0.82-0.67-1.3c-0.22-0.59-0.37-1.23-0.45-1.91c-0.07-0.68-0.07-1.38,0.01-2.1
				l0.03-0.31C699.18,116.13,699.47,115.07,699.91,114.08z M702.92,119.09c0.01,0.54,0.1,1.04,0.26,1.5
				c0.16,0.47,0.41,0.86,0.77,1.18c0.36,0.32,0.85,0.48,1.48,0.5c0.66,0.02,1.24-0.12,1.72-0.42c0.48-0.3,0.89-0.68,1.22-1.16
				c0.32-0.47,0.57-0.99,0.75-1.57c0.18-0.58,0.31-1.15,0.39-1.7l0.03-0.31c0.05-0.53,0.07-1.09,0.05-1.68s-0.14-1.16-0.37-1.7
				c-0.17-0.4-0.43-0.72-0.77-0.96c-0.34-0.24-0.78-0.38-1.33-0.41c-0.67-0.02-1.25,0.12-1.73,0.41c-0.48,0.29-0.88,0.68-1.21,1.15
				c-0.33,0.48-0.59,1.01-0.78,1.59c-0.19,0.58-0.32,1.16-0.39,1.72l-0.03,0.31C702.93,118.03,702.91,118.55,702.92,119.09z"/>
			<path class="st0" d="M721.79,112.37h-4.03l0.54-3l3.92,0.01l0.16-0.89c0.18-1.03,0.49-1.95,0.94-2.76
				c0.45-0.8,1.01-1.48,1.7-2.02c0.67-0.55,1.45-0.96,2.33-1.24c0.88-0.28,1.85-0.42,2.9-0.41c0.63,0.01,1.26,0.06,1.88,0.15
				c0.62,0.09,1.25,0.19,1.87,0.29l-0.61,3.19c-0.46-0.11-0.92-0.19-1.38-0.24c-0.46-0.05-0.93-0.08-1.4-0.08
				c-0.61-0.01-1.18,0.06-1.69,0.22s-0.96,0.4-1.34,0.73c-0.29,0.25-0.54,0.56-0.75,0.92c-0.21,0.36-0.36,0.78-0.46,1.26l-0.19,0.89
				l5.66-0.01l-0.54,3h-5.51l-2.24,12.82h-3.98L721.79,112.37z"/>
			<path class="st0" d="M760.51,124.45c-0.01-0.24-0.02-0.48-0.01-0.74c-0.21,0.19-0.43,0.38-0.66,0.55
				c-0.22,0.17-0.45,0.32-0.69,0.46c-0.45,0.25-0.93,0.45-1.43,0.58c-0.51,0.13-1.04,0.19-1.61,0.18c-0.66-0.01-1.29-0.12-1.89-0.34
				s-1.12-0.53-1.56-0.93c-0.45-0.39-0.79-0.87-1.04-1.43c-0.24-0.56-0.35-1.2-0.32-1.9s0.16-1.32,0.4-1.86
				c0.24-0.54,0.55-1,0.94-1.4s0.84-0.73,1.34-1c0.51-0.27,1.05-0.48,1.62-0.65c0.58-0.17,1.17-0.28,1.78-0.35
				c0.61-0.07,1.21-0.1,1.8-0.1l2.28,0.03l0.19-0.98c0.06-0.38,0.05-0.72-0.04-1.02c-0.08-0.3-0.22-0.56-0.42-0.77
				c-0.21-0.2-0.46-0.36-0.76-0.47c-0.3-0.11-0.64-0.17-1.02-0.18c-0.35-0.01-0.67,0.03-0.97,0.11c-0.3,0.08-0.56,0.21-0.78,0.39
				c-0.21,0.16-0.39,0.36-0.53,0.61c-0.14,0.25-0.25,0.53-0.31,0.86l-3.96,0.03c0.06-0.88,0.31-1.63,0.75-2.27s0.99-1.17,1.65-1.59
				c0.66-0.41,1.4-0.71,2.2-0.9s1.6-0.28,2.39-0.27c0.83,0.02,1.61,0.15,2.35,0.39c0.74,0.24,1.38,0.59,1.93,1.05
				c0.54,0.47,0.94,1.04,1.22,1.72c0.28,0.68,0.37,1.48,0.29,2.38l-1.1,6.8c-0.09,0.58-0.15,1.16-0.2,1.76s0.04,1.18,0.24,1.75
				l-0.01,0.26h-3.93C760.57,124.94,760.53,124.69,760.51,124.45z M758.33,122.22c0.38-0.1,0.74-0.24,1.07-0.44
				c0.23-0.14,0.46-0.3,0.68-0.48c0.22-0.19,0.42-0.39,0.61-0.61l0.5-2.73l-1.8-0.01c-0.39,0-0.78,0.03-1.18,0.1
				c-0.4,0.07-0.78,0.18-1.13,0.32c-0.22,0.12-0.44,0.25-0.66,0.39c-0.21,0.14-0.4,0.31-0.56,0.52c-0.13,0.17-0.23,0.36-0.32,0.57
				c-0.09,0.21-0.15,0.45-0.19,0.72c-0.04,0.3-0.02,0.56,0.06,0.79s0.2,0.41,0.37,0.56c0.17,0.15,0.37,0.26,0.61,0.34
				c0.24,0.08,0.5,0.12,0.78,0.12C757.56,122.37,757.95,122.32,758.33,122.22z"/>
			<path class="st0" d="M783.55,109.18c0.49,0.07,0.99,0.17,1.48,0.3l-1.08,4.05c-0.51-0.13-1.01-0.23-1.52-0.3
				c-0.51-0.07-1.02-0.11-1.55-0.12c-0.57-0.01-1.09,0.05-1.58,0.18c-0.49,0.13-0.94,0.32-1.36,0.57c-0.35,0.2-0.67,0.46-0.97,0.77
				c-0.3,0.31-0.57,0.66-0.83,1.06l-1.65,9.52h-3.96l2.75-15.81h3.68l-0.31,1.96l-0.1,0.64c0.35-0.43,0.73-0.82,1.12-1.18
				c0.4-0.36,0.83-0.67,1.29-0.94c0.46-0.25,0.94-0.45,1.46-0.59c0.51-0.14,1.05-0.21,1.63-0.21
				C782.56,109.06,783.06,109.11,783.55,109.18z"/>
			<path class="st0" d="M787.76,114.08c0.44-1,1.02-1.87,1.73-2.62c0.71-0.75,1.55-1.34,2.52-1.77c0.97-0.43,2.05-0.63,3.24-0.6
				c0.83,0.01,1.57,0.14,2.23,0.38c0.66,0.24,1.23,0.58,1.72,0.99c0.39,0.35,0.73,0.74,1.02,1.16c0.29,0.42,0.53,0.88,0.72,1.37
				c0.22,0.61,0.37,1.27,0.45,1.97s0.07,1.41-0.01,2.14l-0.04,0.32c-0.14,1.11-0.43,2.16-0.87,3.15c-0.44,0.99-1.02,1.85-1.73,2.59
				c-0.71,0.74-1.55,1.32-2.52,1.75c-0.97,0.42-2.04,0.62-3.22,0.59c-0.86-0.02-1.64-0.17-2.35-0.44c-0.71-0.27-1.27-0.62-1.7-1.04
				c-0.38-0.38-0.7-0.76-0.96-1.15c-0.26-0.39-0.49-0.82-0.67-1.3c-0.22-0.59-0.37-1.23-0.45-1.91c-0.07-0.68-0.07-1.38,0.01-2.1
				l0.03-0.31C787.03,116.13,787.32,115.07,787.76,114.08z M790.76,119.09c0.01,0.54,0.1,1.04,0.26,1.5
				c0.16,0.47,0.41,0.86,0.77,1.18c0.36,0.32,0.85,0.48,1.48,0.5c0.66,0.02,1.24-0.12,1.72-0.42c0.48-0.3,0.89-0.68,1.22-1.16
				c0.32-0.47,0.57-0.99,0.75-1.57c0.18-0.58,0.31-1.15,0.39-1.7l0.03-0.31c0.05-0.53,0.07-1.09,0.05-1.68s-0.14-1.16-0.37-1.7
				c-0.17-0.4-0.43-0.72-0.77-0.96c-0.34-0.24-0.78-0.38-1.33-0.41c-0.67-0.02-1.25,0.12-1.73,0.41c-0.48,0.29-0.88,0.68-1.21,1.15
				c-0.33,0.48-0.59,1.01-0.78,1.59c-0.19,0.58-0.32,1.16-0.39,1.72l-0.03,0.31C790.77,118.03,790.75,118.55,790.76,119.09z"/>
			<path class="st0" d="M807,124.88c-0.61-0.4-1.08-0.91-1.42-1.52c-0.37-0.67-0.59-1.41-0.67-2.2c-0.08-0.79-0.07-1.61,0.01-2.43
				l1.56-9.35h3.96l-1.56,9.4c-0.05,0.41-0.08,0.82-0.08,1.22c0,0.4,0.05,0.77,0.17,1.09c0.11,0.32,0.3,0.58,0.57,0.79
				c0.27,0.2,0.66,0.31,1.17,0.32c0.4,0.01,0.77-0.03,1.12-0.12s0.67-0.22,0.96-0.39c0.23-0.15,0.46-0.32,0.67-0.52
				c0.21-0.2,0.41-0.43,0.59-0.68l1.94-11.11h3.98l-2.75,15.81h-3.58l0.31-2.24c-0.58,0.74-1.26,1.35-2.02,1.84
				c-0.77,0.49-1.62,0.72-2.57,0.7C808.39,125.49,807.6,125.28,807,124.88z"/>
			<path class="st0" d="M831.84,120.13c-0.1-0.18-0.23-0.34-0.41-0.48c-0.15-0.11-0.32-0.2-0.53-0.29c-0.2-0.09-0.41-0.16-0.61-0.2
				c-0.41-0.09-0.79-0.17-1.15-0.26c-0.36-0.08-0.69-0.16-1-0.24c-0.6-0.16-1.14-0.33-1.62-0.53s-0.95-0.46-1.4-0.77
				c-0.55-0.36-0.99-0.81-1.33-1.34c-0.34-0.54-0.5-1.18-0.47-1.93c0.03-0.98,0.33-1.82,0.9-2.51c0.57-0.69,1.27-1.23,2.11-1.62
				c0.59-0.28,1.25-0.5,1.98-0.65c0.73-0.15,1.42-0.22,2.1-0.21c0.8,0.01,1.58,0.11,2.34,0.31s1.44,0.51,2.05,0.93
				c0.59,0.42,1.07,0.95,1.44,1.59c0.37,0.64,0.55,1.4,0.55,2.29l-3.95-0.01c0.01-0.38-0.05-0.71-0.18-0.98
				c-0.13-0.27-0.31-0.5-0.55-0.67c-0.23-0.17-0.51-0.29-0.83-0.37c-0.32-0.08-0.66-0.12-1.02-0.12c-0.3,0-0.62,0.03-0.96,0.09
				c-0.34,0.06-0.66,0.16-0.96,0.29c-0.3,0.15-0.56,0.34-0.78,0.58c-0.22,0.24-0.36,0.53-0.42,0.88c-0.07,0.37-0.01,0.67,0.17,0.89
				c0.19,0.22,0.42,0.4,0.72,0.53c0.29,0.14,0.61,0.24,0.95,0.31c0.34,0.07,0.64,0.13,0.89,0.18c0.39,0.08,0.79,0.17,1.21,0.27
				c0.42,0.1,0.83,0.23,1.23,0.37c0.27,0.1,0.54,0.2,0.8,0.32c0.26,0.12,0.51,0.25,0.75,0.39c0.57,0.36,1.04,0.82,1.41,1.37
				c0.37,0.56,0.53,1.24,0.49,2.06c-0.05,0.99-0.35,1.82-0.91,2.48c-0.55,0.66-1.23,1.18-2.02,1.56c-0.69,0.31-1.44,0.54-2.24,0.69
				c-0.8,0.15-1.55,0.21-2.25,0.2c-0.81-0.01-1.6-0.13-2.38-0.35s-1.48-0.56-2.09-1.01c-0.62-0.44-1.13-0.99-1.51-1.64
				s-0.58-1.43-0.58-2.33l3.76,0.01c0.02,0.43,0.11,0.79,0.28,1.1c0.17,0.3,0.39,0.55,0.67,0.73c0.27,0.2,0.59,0.34,0.94,0.42
				c0.36,0.09,0.73,0.13,1.13,0.13c0.3,0,0.64-0.02,1-0.07s0.71-0.14,1.04-0.28c0.32-0.13,0.6-0.31,0.84-0.54
				c0.24-0.23,0.39-0.54,0.46-0.91C831.96,120.52,831.93,120.31,831.84,120.13z"/>
			<path class="st0" d="M848.36,124.45c-0.01-0.24-0.02-0.48-0.01-0.74c-0.21,0.19-0.43,0.38-0.66,0.55
				c-0.22,0.17-0.45,0.32-0.69,0.46c-0.45,0.25-0.93,0.45-1.43,0.58c-0.51,0.13-1.04,0.19-1.61,0.18c-0.66-0.01-1.29-0.12-1.89-0.34
				s-1.12-0.53-1.56-0.93c-0.45-0.39-0.79-0.87-1.04-1.43c-0.24-0.56-0.35-1.2-0.32-1.9s0.16-1.32,0.4-1.86
				c0.24-0.54,0.55-1,0.94-1.4s0.84-0.73,1.34-1c0.51-0.27,1.05-0.48,1.62-0.65c0.58-0.17,1.17-0.28,1.78-0.35
				c0.61-0.07,1.21-0.1,1.8-0.1l2.28,0.03l0.19-0.98c0.06-0.38,0.05-0.72-0.04-1.02c-0.08-0.3-0.22-0.56-0.42-0.77
				c-0.21-0.2-0.46-0.36-0.76-0.47c-0.3-0.11-0.64-0.17-1.02-0.18c-0.35-0.01-0.67,0.03-0.97,0.11c-0.3,0.08-0.56,0.21-0.78,0.39
				c-0.21,0.16-0.39,0.36-0.53,0.61c-0.14,0.25-0.25,0.53-0.31,0.86l-3.96,0.03c0.06-0.88,0.31-1.63,0.75-2.27s0.99-1.17,1.65-1.59
				c0.66-0.41,1.4-0.71,2.2-0.9s1.6-0.28,2.39-0.27c0.83,0.02,1.61,0.15,2.35,0.39c0.74,0.24,1.38,0.59,1.93,1.05
				c0.54,0.47,0.94,1.04,1.22,1.72c0.28,0.68,0.37,1.48,0.29,2.38l-1.1,6.8c-0.09,0.58-0.15,1.16-0.2,1.76s0.04,1.18,0.24,1.75
				l-0.01,0.26h-3.93C848.42,124.94,848.38,124.69,848.36,124.45z M846.17,122.22c0.38-0.1,0.74-0.24,1.07-0.44
				c0.23-0.14,0.46-0.3,0.68-0.48c0.22-0.19,0.42-0.39,0.61-0.61l0.5-2.73l-1.8-0.01c-0.39,0-0.78,0.03-1.18,0.1
				c-0.4,0.07-0.78,0.18-1.13,0.32c-0.22,0.12-0.44,0.25-0.66,0.39c-0.21,0.14-0.4,0.31-0.56,0.52c-0.13,0.17-0.23,0.36-0.32,0.57
				c-0.09,0.21-0.15,0.45-0.19,0.72c-0.04,0.3-0.02,0.56,0.06,0.79s0.2,0.41,0.37,0.56c0.17,0.15,0.37,0.26,0.61,0.34
				c0.24,0.08,0.5,0.12,0.78,0.12C845.41,122.37,845.79,122.32,846.17,122.22z"/>
			<path class="st0" d="M869.62,102.74l-3.32,19.15h4.4l-0.58,3.3h-12.99l0.58-3.3h4.59l2.75-15.83h-4.6l0.58-3.32H869.62z"/>
			<path class="st0" d="M52.09,154c-0.12,0.77-0.31,1.52-0.56,2.24s-0.58,1.39-0.97,2.02c-0.4,0.62-0.87,1.17-1.41,1.64
				c-0.55,0.47-1.17,0.84-1.88,1.1c-0.71,0.27-1.5,0.4-2.38,0.4s-1.67-0.13-2.38-0.4c-0.71-0.27-1.33-0.64-1.88-1.1
				c-0.55-0.47-1.02-1.02-1.42-1.64s-0.73-1.3-0.98-2.02c-0.26-0.72-0.46-1.47-0.58-2.24s-0.19-1.53-0.2-2.29v-2.43
				c0.01-0.76,0.08-1.53,0.2-2.3c0.12-0.77,0.31-1.52,0.58-2.24c0.25-0.72,0.58-1.4,0.97-2.02c0.4-0.63,0.86-1.18,1.41-1.66
				c0.55-0.47,1.17-0.84,1.88-1.1c0.71-0.27,1.5-0.4,2.38-0.4s1.67,0.13,2.38,0.4s1.34,0.64,1.89,1.1c0.55,0.47,1.02,1.02,1.41,1.64
				c0.39,0.63,0.72,1.3,0.99,2.02c0.25,0.72,0.44,1.47,0.56,2.25c0.12,0.78,0.19,1.55,0.2,2.31v2.43
				C52.27,152.46,52.21,153.23,52.09,154z M49.51,147.66c-0.06-0.55-0.16-1.1-0.29-1.64c-0.15-0.54-0.34-1.05-0.57-1.54
				c-0.23-0.49-0.53-0.93-0.88-1.31c-0.35-0.37-0.77-0.67-1.24-0.88c-0.48-0.22-1.03-0.33-1.67-0.33c-0.62,0-1.17,0.11-1.65,0.34
				s-0.89,0.52-1.24,0.89c-0.35,0.38-0.64,0.82-0.88,1.31c-0.23,0.49-0.42,1.01-0.56,1.54c-0.15,0.55-0.25,1.09-0.31,1.64
				c-0.06,0.55-0.1,1.07-0.11,1.57v2.46c0.01,0.5,0.05,1.02,0.11,1.58c0.06,0.56,0.17,1.1,0.31,1.64c0.15,0.55,0.34,1.07,0.57,1.56
				c0.23,0.5,0.53,0.93,0.88,1.3c0.35,0.38,0.76,0.68,1.24,0.91s1.03,0.34,1.67,0.34c0.63,0,1.19-0.11,1.67-0.34
				c0.48-0.22,0.9-0.53,1.25-0.91c0.34-0.37,0.63-0.8,0.85-1.29s0.42-1.01,0.56-1.56c0.14-0.54,0.23-1.08,0.29-1.64
				c0.05-0.56,0.09-1.09,0.1-1.59v-2.46C49.6,148.74,49.56,148.21,49.51,147.66z"/>
			<path class="st0" d="M64.57,158.98c0.46-0.16,0.87-0.38,1.24-0.66c0.36-0.27,0.65-0.6,0.87-0.97s0.33-0.78,0.34-1.22h2.56
				c-0.01,0.7-0.19,1.37-0.55,2.01c-0.36,0.64-0.83,1.2-1.42,1.67c-0.59,0.49-1.28,0.87-2.05,1.16c-0.77,0.29-1.57,0.43-2.41,0.43
				c-1.2,0-2.25-0.21-3.14-0.64c-0.9-0.43-1.64-1.01-2.24-1.74c-0.6-0.72-1.06-1.56-1.36-2.51c-0.3-0.95-0.45-1.95-0.45-3v-0.61
				c0-1.04,0.15-2.04,0.45-3c0.3-0.96,0.75-1.8,1.36-2.53c0.59-0.72,1.34-1.3,2.24-1.72c0.9-0.43,1.94-0.64,3.14-0.64
				c0.94,0,1.79,0.15,2.58,0.45c0.78,0.3,1.46,0.7,2.04,1.21c0.56,0.52,1.01,1.13,1.33,1.83c0.32,0.7,0.48,1.45,0.48,2.25h-2.56
				c-0.01-0.48-0.11-0.93-0.31-1.35c-0.2-0.42-0.47-0.8-0.81-1.12c-0.34-0.32-0.75-0.57-1.22-0.76c-0.47-0.19-0.98-0.28-1.53-0.28
				c-0.84,0-1.54,0.17-2.11,0.5c-0.57,0.34-1.03,0.77-1.38,1.31c-0.35,0.55-0.6,1.15-0.75,1.83c-0.15,0.67-0.23,1.35-0.23,2.03v0.61
				c0,0.69,0.08,1.38,0.23,2.05c0.15,0.68,0.4,1.28,0.75,1.82c0.34,0.55,0.8,0.99,1.37,1.32c0.57,0.34,1.28,0.5,2.13,0.5
				C63.63,159.21,64.1,159.14,64.57,158.98z"/>
			<path class="st0" d="M84.63,158.94c-0.53,0.78-1.18,1.39-1.97,1.82c-0.79,0.43-1.7,0.65-2.73,0.65c-0.83,0-1.58-0.13-2.25-0.39
				c-0.67-0.26-1.25-0.66-1.72-1.21c-0.48-0.55-0.85-1.24-1.1-2.08c-0.26-0.84-0.39-1.85-0.39-3.03v-9.4h2.7v9.43
				c0,0.86,0.07,1.57,0.2,2.13c0.14,0.57,0.34,1.01,0.61,1.34c0.27,0.34,0.61,0.58,1,0.72s0.85,0.2,1.37,0.2
				c0.6,0,1.15-0.07,1.62-0.21c0.48-0.14,0.89-0.34,1.24-0.59c0.29-0.2,0.55-0.45,0.77-0.74s0.4-0.6,0.55-0.94V145.3h2.72v15.81
				h-2.46L84.63,158.94z"/>
			<path class="st0" d="M100.84,138.66v20.11H106v2.34H92.76v-2.34h5.38v-17.76h-5.38v-2.35H100.84z"/>
			<path class="st0" d="M110.03,149.88c0.33-0.98,0.81-1.83,1.43-2.55c0.61-0.72,1.36-1.29,2.25-1.7c0.89-0.41,1.89-0.62,3-0.62
				c1.12,0,2.13,0.21,3.02,0.62c0.89,0.41,1.65,0.98,2.27,1.7c0.61,0.72,1.09,1.57,1.42,2.55c0.33,0.98,0.5,2.04,0.5,3.18v0.32
				c0,1.14-0.17,2.2-0.5,3.17c-0.33,0.97-0.8,1.82-1.42,2.54c-0.62,0.72-1.38,1.29-2.27,1.7c-0.89,0.41-1.89,0.61-3,0.61
				c-1.12,0-2.13-0.2-3.02-0.61c-0.89-0.41-1.64-0.97-2.26-1.7c-0.62-0.72-1.1-1.57-1.43-2.54c-0.33-0.97-0.5-2.03-0.5-3.17v-0.32
				C109.54,151.92,109.7,150.86,110.03,149.88z M112.52,155.61c0.19,0.71,0.47,1.33,0.85,1.86c0.37,0.54,0.84,0.96,1.4,1.27
				c0.56,0.31,1.22,0.47,1.97,0.47c0.74,0,1.39-0.16,1.95-0.47c0.56-0.31,1.03-0.74,1.41-1.27c0.37-0.54,0.65-1.16,0.83-1.86
				s0.28-1.45,0.28-2.23v-0.32c0-0.77-0.1-1.51-0.29-2.21s-0.47-1.33-0.84-1.86c-0.38-0.54-0.85-0.96-1.41-1.28
				c-0.56-0.32-1.22-0.48-1.97-0.48c-0.75,0-1.4,0.16-1.96,0.48c-0.56,0.32-1.02,0.74-1.39,1.28c-0.38,0.54-0.66,1.16-0.85,1.86
				c-0.19,0.71-0.28,1.44-0.28,2.21v0.32C112.24,154.16,112.33,154.9,112.52,155.61z"/>
			<path class="st0" d="M128.25,145.3h2.47l0.13,1.72c0.21-0.27,0.45-0.52,0.7-0.74s0.53-0.41,0.82-0.56
				c0.41-0.23,0.86-0.41,1.37-0.53c0.5-0.12,1.04-0.18,1.62-0.18c1.01,0,1.91,0.2,2.69,0.6c0.78,0.4,1.43,0.96,1.96,1.67
				c0.53,0.71,0.93,1.56,1.2,2.55c0.27,0.99,0.41,2.07,0.41,3.25v0.31c0,1.13-0.14,2.19-0.41,3.16c-0.27,0.98-0.67,1.83-1.2,2.55
				c-0.53,0.72-1.18,1.29-1.95,1.7c-0.77,0.41-1.66,0.61-2.65,0.61c-0.6,0-1.17-0.06-1.69-0.19c-0.52-0.13-0.99-0.31-1.41-0.54
				c-0.25-0.15-0.49-0.31-0.72-0.49c-0.22-0.18-0.43-0.38-0.63-0.59v7.6h-2.7V145.3z M138.65,150.87c-0.17-0.7-0.43-1.31-0.78-1.85
				c-0.36-0.53-0.81-0.95-1.36-1.26c-0.55-0.31-1.2-0.47-1.96-0.47c-0.42,0-0.81,0.05-1.16,0.15c-0.36,0.1-0.67,0.24-0.96,0.42
				c-0.31,0.19-0.59,0.41-0.83,0.69c-0.24,0.27-0.46,0.58-0.64,0.91v7.62c0.17,0.29,0.36,0.57,0.57,0.82
				c0.21,0.25,0.46,0.47,0.73,0.64c0.31,0.21,0.66,0.37,1.04,0.48c0.38,0.12,0.81,0.18,1.28,0.18c0.75,0,1.4-0.16,1.94-0.48
				c0.55-0.32,0.99-0.74,1.34-1.28c0.35-0.54,0.61-1.15,0.78-1.86s0.26-1.44,0.26-2.21v-0.31
				C138.9,152.31,138.82,151.57,138.65,150.87z"/>
			<path class="st0" d="M149.64,146.77c0.26-0.27,0.54-0.5,0.83-0.71c0.47-0.34,0.98-0.6,1.54-0.77c0.56-0.18,1.16-0.27,1.79-0.28
				c0.83,0,1.58,0.12,2.26,0.36c0.68,0.24,1.25,0.61,1.73,1.12c0.48,0.51,0.85,1.15,1.1,1.92c0.26,0.77,0.39,1.69,0.39,2.75v9.95
				h-2.7v-9.98c0-0.62-0.07-1.17-0.22-1.64c-0.15-0.47-0.36-0.86-0.64-1.18c-0.3-0.34-0.68-0.6-1.14-0.77s-0.98-0.25-1.58-0.24
				c-0.49,0-0.95,0.07-1.39,0.2s-0.84,0.33-1.21,0.58c-0.29,0.2-0.56,0.42-0.81,0.68c-0.25,0.26-0.47,0.54-0.67,0.85v11.49h-2.7
				v-22.45h2.7v8.99C149.14,147.33,149.38,147.04,149.64,146.77z"/>
			<path class="st0" d="M172.69,145.3v13.48h5.16v2.34h-13.24v-2.34h5.38v-11.12h-5.38v-2.35H172.69z M169.75,140.49
				c0.07-0.2,0.19-0.38,0.34-0.53c0.13-0.13,0.29-0.23,0.49-0.3c0.2-0.07,0.43-0.11,0.68-0.11s0.48,0.04,0.67,0.11
				c0.19,0.07,0.36,0.17,0.48,0.3c0.16,0.14,0.27,0.31,0.35,0.51s0.12,0.43,0.12,0.67c0,0.44-0.14,0.8-0.41,1.1
				c-0.27,0.29-0.68,0.44-1.21,0.44c-0.55,0-0.95-0.15-1.22-0.44c-0.27-0.29-0.4-0.66-0.4-1.1
				C169.64,140.91,169.68,140.69,169.75,140.49z"/>
			<path class="st0" d="M190.66,138.66v20.11h5.16v2.34h-13.24v-2.34h5.38v-17.76h-5.38v-2.35H190.66z"/>
			<path class="st0" d="M208.62,145.3v13.48h5.16v2.34h-13.24v-2.34h5.38v-11.12h-5.38v-2.35H208.62z M205.68,140.49
				c0.07-0.2,0.19-0.38,0.34-0.53c0.13-0.13,0.29-0.23,0.49-0.3c0.2-0.07,0.43-0.11,0.68-0.11s0.48,0.04,0.67,0.11
				c0.19,0.07,0.36,0.17,0.48,0.3c0.16,0.14,0.27,0.31,0.35,0.51s0.12,0.43,0.12,0.67c0,0.44-0.14,0.8-0.41,1.1
				c-0.27,0.29-0.68,0.44-1.21,0.44c-0.55,0-0.95-0.15-1.22-0.44c-0.27-0.29-0.4-0.66-0.4-1.1
				C205.57,140.91,205.6,140.69,205.68,140.49z"/>
			<path class="st0" d="M228.22,160.35c-0.06-0.31-0.11-0.63-0.14-0.96c-0.27,0.27-0.58,0.53-0.91,0.77
				c-0.34,0.24-0.7,0.46-1.1,0.64c-0.41,0.19-0.84,0.33-1.3,0.44c-0.46,0.11-0.95,0.16-1.46,0.16c-0.84,0-1.6-0.12-2.27-0.37
				c-0.68-0.24-1.25-0.57-1.72-0.99c-0.48-0.41-0.85-0.9-1.1-1.47c-0.26-0.57-0.39-1.19-0.39-1.85c0-0.87,0.17-1.63,0.52-2.28
				c0.35-0.65,0.83-1.2,1.47-1.64c0.63-0.43,1.4-0.75,2.29-0.96c0.89-0.21,1.89-0.32,2.99-0.32h2.95v-1.24
				c0-0.48-0.09-0.91-0.26-1.29c-0.18-0.38-0.42-0.71-0.75-0.98c-0.32-0.26-0.71-0.47-1.18-0.61c-0.46-0.15-0.98-0.22-1.56-0.22
				c-0.54,0-1.02,0.07-1.44,0.2c-0.42,0.14-0.78,0.32-1.07,0.54s-0.52,0.49-0.68,0.8c-0.16,0.31-0.24,0.63-0.24,0.96h-2.72
				c0.01-0.57,0.16-1.14,0.45-1.7c0.29-0.56,0.7-1.06,1.25-1.51c0.54-0.44,1.19-0.79,1.97-1.07c0.77-0.27,1.65-0.41,2.64-0.41
				c0.9,0,1.73,0.11,2.5,0.33c0.77,0.22,1.44,0.55,2,0.99c0.56,0.45,0.99,1,1.32,1.67c0.32,0.66,0.48,1.44,0.48,2.32v7.35
				c0,0.53,0.05,1.08,0.15,1.67c0.1,0.59,0.23,1.1,0.41,1.54v0.23h-2.82C228.36,160.91,228.28,160.65,228.22,160.35z M225.17,158.85
				c0.46-0.14,0.88-0.32,1.26-0.54c0.37-0.22,0.69-0.48,0.96-0.77c0.27-0.29,0.49-0.59,0.64-0.9v-3.2h-2.51
				c-0.94,0-1.75,0.08-2.45,0.24s-1.25,0.41-1.66,0.74c-0.29,0.23-0.51,0.51-0.67,0.83c-0.15,0.32-0.23,0.69-0.23,1.1
				c0,0.39,0.07,0.75,0.2,1.08c0.13,0.33,0.33,0.61,0.59,0.85c0.26,0.24,0.59,0.43,0.99,0.57c0.4,0.14,0.86,0.2,1.39,0.2
				C224.22,159.05,224.71,158.98,225.17,158.85z"/>
			<path class="st0" d="M310.68,151.28v7.54h10.36v2.29h-13.07v-21.28h12.94v2.31h-10.23v6.84h8.89v2.29H310.68z"/>
			<path class="st0" d="M326.2,167.41c-0.34-0.06-0.6-0.11-0.77-0.15l0.44-2.21c0.24,0.02,0.48,0.04,0.72,0.05s0.43,0.02,0.56,0.02
				c0.37,0,0.71-0.1,1.02-0.31c0.31-0.2,0.58-0.45,0.83-0.73c0.23-0.28,0.44-0.58,0.61-0.88c0.17-0.3,0.3-0.55,0.4-0.75l1.08-2.1
				l-6.81-15.07h3.03l4.34,10.2l0.7,1.92l0.75-1.86l4.08-10.26h3.03l-8.02,18.26c-0.19,0.41-0.42,0.84-0.71,1.3
				c-0.29,0.46-0.64,0.88-1.04,1.27c-0.41,0.39-0.89,0.72-1.43,0.98c-0.55,0.26-1.17,0.39-1.89,0.39
				C326.84,167.5,326.54,167.47,326.2,167.41z"/>
			<path class="st0" d="M347.71,160.84c-0.93-0.38-1.73-0.91-2.39-1.59c-0.66-0.68-1.18-1.49-1.55-2.43
				c-0.37-0.94-0.56-1.95-0.56-3.05v-0.61c0-1.28,0.2-2.42,0.61-3.43c0.41-1.01,0.96-1.86,1.64-2.57c0.67-0.69,1.44-1.22,2.3-1.59
				c0.86-0.37,1.75-0.56,2.65-0.56c1.14,0,2.14,0.2,2.99,0.59c0.85,0.4,1.56,0.94,2.13,1.63c0.56,0.7,0.99,1.52,1.26,2.47
				c0.28,0.95,0.42,1.97,0.42,3.07v1.21h-11.3v0.1c0.07,0.77,0.22,1.45,0.46,2.03c0.24,0.58,0.57,1.1,0.99,1.55
				c0.43,0.48,0.94,0.85,1.55,1.13c0.6,0.27,1.27,0.41,2,0.41c0.96,0,1.82-0.19,2.57-0.58c0.75-0.39,1.37-0.91,1.87-1.55l1.65,1.29
				c-0.53,0.8-1.31,1.51-2.36,2.13s-2.34,0.93-3.88,0.93C349.66,161.41,348.64,161.22,347.71,160.84z M348.87,147.53
				c-0.49,0.2-0.93,0.49-1.32,0.87c-0.39,0.39-0.72,0.86-0.99,1.42c-0.27,0.56-0.46,1.21-0.56,1.94h8.51v-0.13
				c0-0.49-0.09-1.01-0.28-1.57c-0.19-0.56-0.44-1.04-0.77-1.45c-0.33-0.41-0.75-0.74-1.25-0.99c-0.5-0.25-1.1-0.38-1.79-0.38
				C349.87,147.23,349.36,147.33,348.87,147.53z"/>
			<path class="st0" d="M383.74,147.39h-4.36v-2.09h4.36v-1.11c0-1.01,0.15-1.9,0.45-2.67c0.3-0.76,0.72-1.41,1.26-1.92
				c0.54-0.52,1.18-0.91,1.94-1.17c0.76-0.26,1.61-0.39,2.54-0.39c0.39,0,0.77,0.02,1.15,0.07s0.75,0.1,1.13,0.17
				c0.24,0.05,0.49,0.1,0.73,0.15c0.24,0.05,0.49,0.11,0.75,0.18l-0.32,2.24c-0.4-0.14-0.87-0.26-1.4-0.36
				c-0.53-0.1-1.1-0.15-1.7-0.15c-0.61,0-1.16,0.08-1.63,0.23c-0.47,0.15-0.87,0.38-1.18,0.68c-0.33,0.31-0.58,0.72-0.75,1.21
				c-0.17,0.5-0.26,1.08-0.26,1.74v1.11h6.1v2.09h-6.1v13.73h-2.72V147.39z"/>
			<path class="st0" d="M401.6,160.84c-0.93-0.38-1.73-0.91-2.39-1.59c-0.66-0.68-1.18-1.49-1.55-2.43
				c-0.37-0.94-0.56-1.95-0.56-3.05v-0.61c0-1.28,0.2-2.42,0.61-3.43c0.41-1.01,0.96-1.86,1.64-2.57c0.67-0.69,1.44-1.22,2.3-1.59
				c0.86-0.37,1.75-0.56,2.65-0.56c1.14,0,2.14,0.2,2.99,0.59c0.85,0.4,1.56,0.94,2.13,1.63c0.56,0.7,0.99,1.52,1.26,2.47
				c0.28,0.95,0.42,1.97,0.42,3.07v1.21h-11.3v0.1c0.07,0.77,0.22,1.45,0.46,2.03c0.24,0.58,0.57,1.1,0.99,1.55
				c0.43,0.48,0.94,0.85,1.55,1.13c0.6,0.27,1.27,0.41,2,0.41c0.96,0,1.82-0.19,2.57-0.58c0.75-0.39,1.37-0.91,1.87-1.55l1.65,1.29
				c-0.53,0.8-1.31,1.51-2.36,2.13s-2.34,0.93-3.88,0.93C403.55,161.41,402.53,161.22,401.6,160.84z M402.76,147.53
				c-0.49,0.2-0.93,0.49-1.32,0.87c-0.39,0.39-0.72,0.86-0.99,1.42c-0.27,0.56-0.46,1.21-0.56,1.94h8.51v-0.13
				c0-0.49-0.09-1.01-0.28-1.57c-0.19-0.56-0.44-1.04-0.77-1.45c-0.33-0.41-0.75-0.74-1.25-0.99c-0.5-0.25-1.1-0.38-1.79-0.38
				C403.76,147.23,403.25,147.33,402.76,147.53z"/>
			<path class="st0" d="M422.04,145.3h6.02v2.09h-6.02v8.59c0,0.61,0.08,1.12,0.23,1.52c0.16,0.4,0.37,0.72,0.64,0.95
				c0.27,0.24,0.59,0.41,0.94,0.51c0.36,0.1,0.73,0.15,1.13,0.15c0.29,0,0.59-0.02,0.91-0.05c0.31-0.03,0.62-0.08,0.92-0.12
				c0.29-0.05,0.57-0.1,0.83-0.15c0.26-0.05,0.47-0.1,0.64-0.14l0.38,1.91c-0.22,0.14-0.5,0.26-0.82,0.36
				c-0.32,0.1-0.67,0.19-1.05,0.26c-0.38,0.08-0.78,0.14-1.21,0.18c-0.42,0.04-0.85,0.06-1.26,0.06c-0.7,0-1.36-0.1-1.97-0.3
				c-0.61-0.2-1.14-0.52-1.59-0.96c-0.45-0.43-0.8-0.99-1.06-1.67s-0.39-1.52-0.39-2.49v-8.59h-4.15v-2.09h4.15v-3.83h2.72V145.3z"
				/>
			<path class="st0" d="M442.11,145.3v13.48h5.16v2.34h-13.24v-2.34h5.38v-11.12h-5.38v-2.35H442.11z M439.16,140.49
				c0.07-0.2,0.19-0.38,0.34-0.53c0.13-0.13,0.29-0.23,0.49-0.3c0.2-0.07,0.43-0.11,0.68-0.11s0.48,0.04,0.67,0.11
				c0.19,0.07,0.36,0.17,0.48,0.3c0.16,0.14,0.27,0.31,0.35,0.51s0.12,0.43,0.12,0.67c0,0.44-0.14,0.8-0.41,1.1
				c-0.27,0.29-0.68,0.44-1.21,0.44c-0.55,0-0.95-0.15-1.22-0.44c-0.27-0.29-0.4-0.66-0.4-1.1
				C439.05,140.91,439.09,140.69,439.16,140.49z"/>
			<path class="st0" d="M461.88,156.05c-0.13-0.26-0.34-0.49-0.64-0.71s-0.7-0.41-1.2-0.59c-0.5-0.18-1.12-0.34-1.86-0.49
				c-0.91-0.19-1.73-0.41-2.48-0.67c-0.75-0.26-1.38-0.58-1.91-0.95c-0.54-0.36-0.95-0.79-1.24-1.28c-0.29-0.49-0.44-1.06-0.44-1.72
				c0-0.64,0.15-1.24,0.45-1.81c0.3-0.56,0.73-1.05,1.27-1.47c0.55-0.42,1.2-0.75,1.95-0.99c0.76-0.24,1.59-0.37,2.49-0.37
				c0.97,0,1.85,0.13,2.63,0.38c0.78,0.25,1.44,0.6,1.99,1.05c0.55,0.45,0.97,0.97,1.27,1.57c0.3,0.6,0.45,1.25,0.45,1.94h-2.71
				c0-0.34-0.09-0.67-0.26-1c-0.18-0.33-0.42-0.62-0.73-0.87c-0.31-0.25-0.69-0.46-1.13-0.61s-0.94-0.23-1.5-0.23
				c-0.57,0-1.08,0.06-1.51,0.19c-0.43,0.13-0.79,0.3-1.07,0.51c-0.29,0.21-0.51,0.46-0.66,0.75s-0.22,0.57-0.22,0.88
				c0,0.31,0.06,0.59,0.18,0.83c0.12,0.24,0.32,0.46,0.61,0.66c0.28,0.19,0.66,0.37,1.15,0.53s1.09,0.31,1.84,0.45
				c0.97,0.2,1.85,0.44,2.62,0.71c0.77,0.27,1.42,0.59,1.94,0.96c0.53,0.38,0.93,0.82,1.21,1.32s0.42,1.07,0.42,1.73
				c0,0.7-0.16,1.34-0.47,1.91c-0.32,0.58-0.76,1.07-1.32,1.48c-0.57,0.41-1.24,0.73-2.03,0.95c-0.79,0.22-1.65,0.34-2.59,0.34
				c-1.07,0-2.03-0.14-2.87-0.43c-0.84-0.29-1.54-0.67-2.12-1.15c-0.58-0.47-1.03-1.01-1.34-1.64s-0.46-1.27-0.46-1.94h2.71
				c0.04,0.56,0.19,1.02,0.45,1.4c0.26,0.38,0.58,0.69,0.97,0.92c0.38,0.23,0.8,0.4,1.27,0.5c0.47,0.1,0.93,0.15,1.39,0.15
				c0.72,0,1.35-0.08,1.88-0.26c0.54-0.17,0.96-0.41,1.26-0.71c0.19-0.19,0.33-0.39,0.42-0.61s0.15-0.46,0.15-0.72
				C462.08,156.6,462.01,156.31,461.88,156.05z"/>
			<path class="st0" d="M472.95,146.77c0.26-0.27,0.54-0.5,0.83-0.71c0.47-0.34,0.98-0.6,1.54-0.77c0.56-0.18,1.16-0.27,1.79-0.28
				c0.83,0,1.58,0.12,2.26,0.36c0.68,0.24,1.25,0.61,1.73,1.12c0.48,0.51,0.85,1.15,1.1,1.92c0.26,0.77,0.39,1.69,0.39,2.75v9.95
				h-2.7v-9.98c0-0.62-0.07-1.17-0.22-1.64c-0.15-0.47-0.36-0.86-0.64-1.18c-0.3-0.34-0.68-0.6-1.14-0.77s-0.98-0.25-1.58-0.24
				c-0.49,0-0.95,0.07-1.39,0.2s-0.84,0.33-1.21,0.58c-0.29,0.2-0.56,0.42-0.81,0.68c-0.25,0.26-0.47,0.54-0.67,0.85v11.49h-2.7
				v-22.45h2.7v8.99C472.45,147.33,472.69,147.04,472.95,146.77z"/>
			<path class="st0" d="M580.09,151.28v7.54h10.36v2.29h-13.07v-21.28h12.94v2.31h-10.23v6.84h8.89v2.29H580.09z"/>
			<path class="st0" d="M595.61,167.41c-0.34-0.06-0.6-0.11-0.77-0.15l0.44-2.21c0.24,0.02,0.48,0.04,0.72,0.05
				c0.24,0.01,0.43,0.02,0.56,0.02c0.37,0,0.71-0.1,1.02-0.31c0.31-0.2,0.58-0.45,0.83-0.73c0.23-0.28,0.44-0.58,0.61-0.88
				c0.17-0.3,0.3-0.55,0.4-0.75l1.08-2.1l-6.81-15.07h3.03l4.34,10.2l0.7,1.92l0.75-1.86l4.08-10.26h3.03l-8.02,18.26
				c-0.19,0.41-0.42,0.84-0.71,1.3s-0.64,0.88-1.04,1.27c-0.41,0.39-0.89,0.72-1.43,0.98s-1.17,0.39-1.89,0.39
				C596.25,167.5,595.95,167.47,595.61,167.41z"/>
			<path class="st0" d="M617.12,160.84c-0.93-0.38-1.73-0.91-2.39-1.59c-0.66-0.68-1.18-1.49-1.55-2.43s-0.55-1.95-0.55-3.05v-0.61
				c0-1.28,0.2-2.42,0.61-3.43c0.41-1.01,0.96-1.86,1.64-2.57c0.67-0.69,1.44-1.22,2.3-1.59c0.86-0.37,1.75-0.56,2.65-0.56
				c1.14,0,2.14,0.2,2.99,0.59c0.85,0.4,1.56,0.94,2.13,1.63c0.57,0.7,0.99,1.52,1.26,2.47c0.28,0.95,0.42,1.97,0.42,3.07v1.21
				h-11.3v0.1c0.07,0.77,0.22,1.45,0.46,2.03c0.24,0.58,0.57,1.1,0.99,1.55c0.43,0.48,0.95,0.85,1.55,1.13
				c0.6,0.27,1.27,0.41,2,0.41c0.96,0,1.82-0.19,2.57-0.58c0.75-0.39,1.37-0.91,1.87-1.55l1.65,1.29c-0.53,0.8-1.31,1.51-2.36,2.13
				c-1.05,0.62-2.34,0.93-3.88,0.93C619.07,161.41,618.05,161.22,617.12,160.84z M618.28,147.53c-0.49,0.2-0.93,0.49-1.32,0.87
				c-0.39,0.39-0.72,0.86-0.99,1.42c-0.27,0.56-0.46,1.21-0.56,1.94h8.51v-0.13c0-0.49-0.09-1.01-0.28-1.57
				c-0.19-0.56-0.44-1.04-0.77-1.45c-0.33-0.41-0.75-0.74-1.25-0.99c-0.5-0.25-1.1-0.38-1.79-0.38
				C619.29,147.23,618.77,147.33,618.28,147.53z"/>
		</g>
	</g>
</g>
<g>
	<g>
		<g>
			<path class="st1" d="M39.81,75.54h-2.29V47.48h8.83c1.22,0.03,2.37,0.23,3.45,0.62s2.02,0.93,2.81,1.64
				c0.8,0.71,1.43,1.57,1.89,2.58c0.46,1.02,0.69,2.17,0.69,3.47c0,1.28-0.23,2.43-0.69,3.44s-1.1,1.86-1.91,2.55
				c-0.8,0.71-1.73,1.25-2.8,1.62c-1.07,0.37-2.22,0.57-3.44,0.58h-6.53V75.54z M46.34,62.01c0.91-0.01,1.77-0.16,2.56-0.45
				c0.8-0.29,1.49-0.7,2.08-1.24c0.59-0.53,1.06-1.17,1.4-1.92s0.51-1.61,0.51-2.57c0-0.96-0.17-1.83-0.5-2.61
				c-0.33-0.78-0.79-1.44-1.37-1.99c-0.59-0.55-1.29-0.98-2.09-1.28s-1.67-0.46-2.59-0.47h-6.53v12.54H46.34z"/>
			<path class="st1" d="M63.78,67.72l-2.49,7.82h-2.31l9.11-28.06h2.08l9.06,28.06h-2.31l-2.49-7.82H63.78z M73.8,65.65l-4.66-14.7
				l-4.7,14.7H73.8z"/>
			<path class="st1" d="M86.9,63.8v11.73h-2.27V47.48h7.92c1.23,0.03,2.4,0.23,3.49,0.6c1.09,0.37,2.05,0.91,2.87,1.6
				c0.81,0.71,1.45,1.56,1.92,2.57c0.47,1.01,0.7,2.17,0.7,3.48c0,0.95-0.14,1.81-0.41,2.58c-0.28,0.77-0.66,1.47-1.15,2.1
				c-0.49,0.62-1.07,1.16-1.75,1.64c-0.68,0.48-1.43,0.88-2.24,1.21l6.42,12.02v0.25h-2.41L93.84,63.8H86.9z M93.03,61.84
				c0.87-0.03,1.69-0.19,2.44-0.49s1.41-0.72,1.98-1.26c0.55-0.54,0.99-1.18,1.3-1.92c0.31-0.74,0.47-1.56,0.47-2.46
				c0-0.98-0.17-1.85-0.51-2.62c-0.34-0.77-0.81-1.43-1.42-1.97c-0.59-0.53-1.29-0.93-2.11-1.21c-0.82-0.28-1.69-0.43-2.63-0.44
				H86.9v12.37H93.03z"/>
			<path class="st1" d="M117.38,49.53v26.01h-2.25l0.02-26.01h-8.96v-2.04h20.14v2.04H117.38z"/>
			<path class="st1" d="M148.02,47.48v2.08h-7.03v23.91h7.03v2.06h-16.24v-2.06h6.82V49.56h-6.82v-2.08H148.02z"/>
			<path class="st1" d="M158.5,67.72l-2.49,7.82h-2.31l9.11-28.06h2.08l9.06,28.06h-2.31l-2.49-7.82H158.5z M168.52,65.65
				l-4.66-14.7l-4.7,14.7H168.52z"/>
			<path class="st1" d="M196.25,73.52v2.02h-16.59V47.48h2.31v26.03H196.25z"/>
			<path class="st1" d="M219.07,47.48v2.08h-7.03v23.91h7.03v2.06h-16.24v-2.06h6.82V49.56h-6.82v-2.08H219.07z"/>
			<path class="st1" d="M241.22,66.13c-0.44-0.69-1.01-1.27-1.69-1.74c-0.69-0.46-1.46-0.85-2.29-1.18s-1.64-0.6-2.43-0.85
				c-0.94-0.3-1.9-0.65-2.89-1.06s-1.88-0.91-2.68-1.48c-0.87-0.63-1.59-1.38-2.14-2.25c-0.55-0.87-0.84-1.95-0.85-3.22
				c0-1.17,0.26-2.21,0.78-3.11c0.52-0.91,1.2-1.67,2.03-2.28c0.83-0.6,1.78-1.06,2.83-1.38c1.05-0.31,2.11-0.47,3.18-0.47
				c1.19,0,2.33,0.2,3.4,0.59c1.07,0.39,2.01,0.94,2.82,1.65c0.82,0.71,1.48,1.56,1.97,2.57s0.75,2.13,0.79,3.36h-2.33
				c-0.1-0.91-0.33-1.74-0.67-2.5s-0.81-1.4-1.39-1.94c-0.57-0.54-1.24-0.96-2.01-1.25c-0.78-0.29-1.64-0.44-2.57-0.44
				c-0.78,0-1.56,0.11-2.33,0.32c-0.77,0.21-1.46,0.53-2.06,0.95c-0.62,0.44-1.11,0.98-1.49,1.62c-0.38,0.64-0.57,1.4-0.57,2.27
				c0,0.94,0.22,1.73,0.66,2.38c0.44,0.65,1,1.2,1.68,1.65c0.67,0.45,1.41,0.83,2.24,1.13c0.82,0.3,1.61,0.57,2.35,0.8
				c1.01,0.31,2.04,0.68,3.07,1.13c1.03,0.44,1.98,0.99,2.84,1.65c0.82,0.64,1.49,1.42,2.01,2.34c0.52,0.92,0.78,1.99,0.78,3.23
				c0,1.23-0.27,2.31-0.8,3.22c-0.53,0.91-1.22,1.67-2.07,2.27c-0.85,0.62-1.81,1.08-2.89,1.38s-2.17,0.45-3.28,0.45
				c-1.31,0-2.59-0.21-3.83-0.63c-1.24-0.42-2.32-1.03-3.23-1.84c-0.82-0.69-1.47-1.52-1.95-2.49s-0.74-2.04-0.79-3.24h2.33
				c0.12,1,0.38,1.89,0.8,2.65s0.96,1.41,1.63,1.94c0.65,0.53,1.41,0.92,2.26,1.19c0.85,0.26,1.78,0.4,2.77,0.4
				c0.82,0,1.63-0.1,2.43-0.31c0.8-0.21,1.5-0.53,2.12-0.96c0.63-0.42,1.14-0.97,1.52-1.63c0.39-0.66,0.58-1.45,0.58-2.36
				C241.87,67.65,241.66,66.81,241.22,66.13z"/>
			<path class="st1" d="M258.3,63.32l6.03-15.84h3.01v28.06h-2.23V63.11l0.15-12.35l-6.22,16.34h-1.5l-5.74-16.05l0.15,12.06v12.43
				h-2.25V47.48h2.97L258.3,63.32z"/>
			<path class="st1" d="M282.17,55.62c0.35-0.38,0.82-0.57,1.43-0.57c0.6,0,1.09,0.19,1.45,0.57c0.36,0.38,0.54,0.84,0.54,1.38
				s-0.18,0.99-0.54,1.35c-0.36,0.36-0.84,0.54-1.45,0.54c-0.6,0-1.08-0.18-1.43-0.55c-0.35-0.37-0.52-0.81-0.52-1.34
				C281.65,56.46,281.83,56,282.17,55.62z M282.17,72.5c0.35-0.38,0.82-0.57,1.43-0.57c0.6,0,1.09,0.19,1.45,0.57
				c0.36,0.38,0.54,0.84,0.54,1.38s-0.18,0.99-0.54,1.35c-0.36,0.36-0.84,0.54-1.45,0.54c-0.6,0-1.08-0.18-1.43-0.55
				s-0.52-0.81-0.52-1.34C281.65,73.34,281.83,72.88,282.17,72.5z"/>
		</g>
	</g>
</g>
</svg>
