<?xml version="1.0" encoding="utf-8"?>
<!-- Generator: Adobe Illustrator 28.2.0, SVG Export Plug-In . SVG Version: 6.00 Build 0)  -->
<svg version="1.1" id="Layer_1" xmlns="http://www.w3.org/2000/svg" xmlns:xlink="http://www.w3.org/1999/xlink" x="0px" y="0px"
	 viewBox="0 0 900 380" style="enable-background:new 0 0 900 380;" xml:space="preserve">
<style type="text/css">
	.st0{fill:#FF1A56;}
	.st1{font-family:'SuisseWorks-RegularItalic_LD-V1Regular';}
	.st2{font-size:133.473px;}
	.st3{fill:#1717E2;}
</style>
<g>
	<text transform="matrix(1 0 0 1 30.7727 226.805)" class="st0 st1 st2">Oculolinctus.</text>
</g>
<g>
	<g>
		<g>
			<path class="st3" d="M53.06,146.52l-3.27-13.36l-2.32,13.36h-3.89l3.55-20.5h3.82l3.22,13.31l2.34-13.31h3.87l-3.56,20.5H53.06z"
				/>
			<path class="st3" d="M75.51,140.03c-0.24,0.75-0.53,1.46-0.89,2.14c-0.37,0.68-0.79,1.3-1.27,1.88
				c-0.48,0.58-1.03,1.07-1.64,1.49s-1.28,0.73-2.01,0.96c-0.73,0.23-1.53,0.33-2.39,0.31c-0.82-0.02-1.54-0.16-2.18-0.42
				c-0.63-0.26-1.18-0.61-1.64-1.05c-0.47-0.43-0.85-0.94-1.15-1.51c-0.3-0.58-0.53-1.2-0.69-1.87c-0.16-0.66-0.25-1.34-0.28-2.06
				c-0.03-0.71,0-1.42,0.1-2.13l0.46-2.98c0.11-0.75,0.28-1.5,0.51-2.25c0.23-0.75,0.52-1.46,0.87-2.13
				c0.34-0.68,0.74-1.3,1.21-1.89c0.47-0.58,1-1.08,1.59-1.51c0.59-0.41,1.25-0.73,1.97-0.96s1.51-0.34,2.37-0.32
				c0.83,0.02,1.56,0.15,2.2,0.41c0.64,0.25,1.21,0.6,1.7,1.03c0.48,0.44,0.88,0.95,1.2,1.53c0.32,0.58,0.57,1.19,0.75,1.85
				c0.17,0.67,0.27,1.36,0.31,2.08c0.04,0.72,0.01,1.44-0.08,2.15l-0.46,2.97C75.93,138.53,75.75,139.28,75.51,140.03z
				 M72.71,133.61c0.03-0.41,0.03-0.83,0.01-1.25c-0.03-0.41-0.09-0.82-0.18-1.21c-0.09-0.39-0.24-0.75-0.44-1.06
				c-0.2-0.31-0.46-0.56-0.77-0.76s-0.72-0.3-1.2-0.32c-0.52-0.02-0.97,0.05-1.37,0.22s-0.74,0.39-1.03,0.68
				c-0.3,0.3-0.56,0.65-0.77,1.04c-0.22,0.39-0.39,0.8-0.54,1.23c-0.15,0.43-0.27,0.87-0.37,1.32s-0.17,0.87-0.23,1.27l-0.46,3.03
				c-0.05,0.33-0.09,0.69-0.12,1.1c-0.03,0.4-0.04,0.82-0.04,1.24c0,0.42,0.04,0.84,0.11,1.24c0.08,0.4,0.2,0.77,0.38,1.08
				c0.18,0.32,0.42,0.58,0.73,0.78c0.3,0.2,0.7,0.31,1.18,0.33c0.51,0.02,0.96-0.05,1.37-0.22s0.76-0.39,1.08-0.68
				c0.31-0.29,0.58-0.63,0.82-1.03c0.23-0.39,0.44-0.81,0.6-1.25c0.16-0.43,0.29-0.87,0.39-1.32c0.1-0.45,0.19-0.88,0.25-1.28
				l0.46-3.03C72.65,134.41,72.68,134.03,72.71,133.61z"/>
			<path class="st3" d="M92.06,139.6c-0.16,1.06-0.45,2.04-0.86,2.93c-0.41,0.89-0.95,1.66-1.61,2.29c-0.66,0.65-1.43,1.15-2.33,1.5
				s-1.9,0.51-3.02,0.49c-1.03-0.02-1.92-0.22-2.67-0.61c-0.75-0.39-1.35-0.91-1.81-1.57c-0.46-0.65-0.78-1.4-0.96-2.27
				c-0.18-0.86-0.21-1.77-0.1-2.73l2.32-13.6h3.86l-2.28,13.6c-0.05,0.4-0.07,0.83-0.06,1.29c0,0.46,0.07,0.88,0.2,1.27
				c0.12,0.39,0.33,0.73,0.61,0.99s0.69,0.42,1.22,0.44c0.58,0.03,1.08-0.07,1.51-0.3c0.42-0.23,0.78-0.54,1.07-0.92
				c0.28-0.38,0.51-0.82,0.68-1.31c0.17-0.49,0.29-0.98,0.37-1.46l2.32-13.6h3.83L92.06,139.6z"/>
			<path class="st3" d="M103.83,146.52l-3.27-13.36l-2.32,13.36h-3.89l3.55-20.5h3.82l3.22,13.31l2.34-13.31h3.87l-3.56,20.5H103.83
				z"/>
			<path class="st3" d="M51.66,215.73v-17.18l-5.36,2.04v-2.38l7.76-2.99h0.21v20.5H51.66z"/>
			<path class="st3" d="M68.16,212.62c0.34-0.39,0.85-0.59,1.54-0.59c0.68,0,1.19,0.2,1.54,0.58c0.35,0.39,0.53,0.87,0.53,1.43
				c0,0.55-0.18,1.02-0.54,1.39c-0.36,0.38-0.87,0.56-1.53,0.56c-0.68,0-1.19-0.19-1.53-0.57s-0.51-0.84-0.51-1.39
				C67.66,213.48,67.83,213.01,68.16,212.62z"/>
			<path class="st3" d="M100.67,210.42l-1.65,5.31h-2.6l6.62-20.5h2.18l6.5,20.5h-2.59l-1.62-5.31H100.67z M106.83,208.15l-2.7-8.9
				l-2.75,8.9H106.83z"/>
			<path class="st3" d="M135.18,215.73h-2.6v-20.5h6.65c0.92,0.02,1.79,0.17,2.61,0.44c0.82,0.27,1.54,0.67,2.16,1.18
				c0.62,0.52,1.11,1.16,1.47,1.92c0.36,0.76,0.54,1.63,0.54,2.62s-0.18,1.86-0.54,2.61c-0.36,0.76-0.85,1.39-1.47,1.91
				c-0.62,0.52-1.34,0.91-2.16,1.18s-1.69,0.41-2.61,0.42h-4.04V215.73z M139.22,205.37c0.6-0.01,1.15-0.11,1.66-0.29
				c0.51-0.18,0.95-0.44,1.32-0.78c0.38-0.34,0.67-0.75,0.88-1.23c0.21-0.48,0.32-1.04,0.32-1.65c0-0.62-0.11-1.18-0.32-1.68
				c-0.21-0.5-0.5-0.92-0.87-1.27c-0.38-0.35-0.82-0.61-1.33-0.8s-1.07-0.29-1.67-0.3h-4.04v8H139.22z"/>
			<path class="st3" d="M152.58,210.42l-1.65,5.31h-2.6l6.62-20.5h2.18l6.5,20.5h-2.59l-1.62-5.31H152.58z M158.74,208.15l-2.7-8.9
				l-2.75,8.9H158.74z"/>
			<path class="st3" d="M169.63,207.36v8.36h-2.59v-20.5h6.01c0.96,0.02,1.86,0.16,2.7,0.41c0.84,0.25,1.59,0.63,2.22,1.14
				c0.63,0.51,1.12,1.14,1.49,1.91s0.54,1.66,0.54,2.7c0,0.67-0.1,1.28-0.29,1.83s-0.46,1.06-0.8,1.51
				c-0.34,0.45-0.74,0.85-1.21,1.2c-0.47,0.35-0.99,0.64-1.55,0.89l4.35,8.76l-0.01,0.17h-2.75l-4.03-8.36H169.63z M173.13,205.22
				c0.58-0.01,1.13-0.1,1.65-0.27c0.52-0.17,0.97-0.42,1.37-0.75c0.38-0.33,0.69-0.73,0.92-1.2c0.23-0.47,0.34-1.02,0.34-1.64
				c0-0.66-0.11-1.23-0.32-1.72c-0.22-0.49-0.52-0.91-0.9-1.25c-0.39-0.33-0.84-0.58-1.37-0.75s-1.11-0.26-1.74-0.27h-3.42v7.86
				H173.13z"/>
			<path class="st3" d="M187.19,210.42l-1.65,5.31h-2.6l6.62-20.5h2.18l6.5,20.5h-2.59l-1.62-5.31H187.19z M193.34,208.15l-2.7-8.9
				l-2.75,8.9H193.34z"/>
			<path class="st3" d="M204.4,215.73h-2.6v-20.5h6.65c0.92,0.02,1.79,0.17,2.61,0.44c0.82,0.27,1.54,0.67,2.16,1.18
				c0.62,0.52,1.11,1.16,1.47,1.92c0.36,0.76,0.54,1.63,0.54,2.62s-0.18,1.86-0.54,2.61c-0.36,0.76-0.85,1.39-1.47,1.91
				c-0.62,0.52-1.34,0.91-2.16,1.18s-1.69,0.41-2.61,0.42h-4.04V215.73z M208.44,205.37c0.6-0.01,1.15-0.11,1.66-0.29
				c0.51-0.18,0.95-0.44,1.32-0.78c0.38-0.34,0.67-0.75,0.88-1.23c0.21-0.48,0.32-1.04,0.32-1.65c0-0.62-0.11-1.18-0.32-1.68
				c-0.21-0.5-0.5-0.92-0.87-1.27c-0.38-0.35-0.82-0.61-1.33-0.8s-1.07-0.29-1.67-0.3h-4.04v8H208.44z"/>
			<path class="st3" d="M229.25,215.73v-9.48h-8.41v9.48h-2.45v-20.5h2.45v8.81h8.41v-8.81h2.46v20.5H229.25z"/>
			<path class="st3" d="M248.55,195.23v2.27h-4.91v15.98h4.91v2.25h-12.39v-2.25h4.8V197.5h-4.8v-2.27H248.55z"/>
			<path class="st3" d="M266.43,213.52v2.21H253.8v-20.5h2.61v18.29H266.43z"/>
			<path class="st3" d="M283.16,195.23v2.27h-4.91v15.98h4.91v2.25h-12.39v-2.25h4.8V197.5h-4.8v-2.27H283.16z"/>
			<path class="st3" d="M291.01,210.42l-1.65,5.31h-2.6l6.62-20.5h2.18l6.5,20.5h-2.59l-1.62-5.31H291.01z M297.16,208.15l-2.7-8.9
				l-2.75,8.9H297.16z"/>
			<path class="st3" d="M335.07,195.23v2.27h-4.91v15.98h4.91v2.25h-12.39v-2.25h4.8V197.5h-4.8v-2.27H335.07z"/>
			<path class="st3" d="M350.17,215.73l-7.95-15.32l-0.04,15.32h-2.63v-20.5h2.65l7.96,15.29l0.04-15.29h2.63v20.5H350.17z"/>
			<path class="st3" d="M355.83,195.23h2.79l4.51,15.3l0.3,1l0.31-1.03l4.53-15.28h2.77l-6.46,20.5h-2.27L355.83,195.23z"/>
			<path class="st3" d="M387.73,208.88c-0.12,0.75-0.3,1.47-0.54,2.16s-0.56,1.34-0.94,1.94c-0.38,0.6-0.83,1.13-1.36,1.58
				c-0.53,0.45-1.13,0.81-1.81,1.06c-0.68,0.26-1.44,0.39-2.29,0.39s-1.61-0.13-2.29-0.39s-1.28-0.61-1.81-1.06
				c-0.53-0.45-0.98-0.98-1.37-1.58s-0.7-1.25-0.94-1.95c-0.25-0.7-0.44-1.41-0.56-2.15s-0.19-1.48-0.2-2.21v-2.34
				c0.01-0.73,0.07-1.47,0.19-2.22s0.3-1.47,0.56-2.16c0.24-0.69,0.56-1.34,0.94-1.95c0.38-0.6,0.83-1.14,1.36-1.6
				c0.53-0.45,1.13-0.8,1.81-1.06c0.68-0.26,1.44-0.39,2.29-0.39s1.61,0.13,2.29,0.39c0.69,0.26,1.29,0.61,1.82,1.06
				c0.53,0.45,0.98,0.98,1.36,1.58s0.7,1.26,0.95,1.95c0.24,0.69,0.42,1.42,0.54,2.17s0.18,1.49,0.19,2.22v2.34
				C387.91,207.39,387.85,208.13,387.73,208.88z M385.25,202.77c-0.06-0.53-0.15-1.06-0.28-1.58c-0.14-0.52-0.32-1.01-0.55-1.49
				s-0.51-0.89-0.84-1.26c-0.34-0.36-0.74-0.64-1.2-0.85c-0.46-0.21-1-0.32-1.61-0.32c-0.6,0-1.13,0.11-1.59,0.32
				s-0.86,0.5-1.2,0.86c-0.34,0.37-0.62,0.79-0.84,1.26c-0.22,0.47-0.4,0.97-0.53,1.49c-0.14,0.53-0.24,1.05-0.3,1.58
				c-0.06,0.53-0.1,1.04-0.11,1.51v2.37c0.01,0.48,0.04,0.99,0.11,1.52c0.06,0.54,0.16,1.06,0.3,1.58c0.14,0.53,0.32,1.03,0.55,1.51
				c0.22,0.48,0.51,0.9,0.84,1.25c0.34,0.37,0.74,0.66,1.2,0.87s1,0.32,1.61,0.32s1.15-0.11,1.61-0.32c0.46-0.22,0.87-0.51,1.2-0.87
				c0.33-0.36,0.6-0.77,0.82-1.25c0.22-0.47,0.4-0.97,0.54-1.5c0.13-0.52,0.22-1.04,0.27-1.58s0.08-1.05,0.09-1.54v-2.37
				C385.33,203.81,385.3,203.3,385.25,202.77z"/>
			<path class="st3" d="M404.86,213.52v2.21h-12.63v-20.5h2.61v18.29H404.86z"/>
			<path class="st3" d="M407.74,195.23h2.79l4.51,15.3l0.29,1l0.31-1.03l4.53-15.28h2.77l-6.46,20.5h-2.27L407.74,195.23z"/>
			<path class="st3" d="M438.89,195.23v2.27h-4.91v15.98h4.91v2.25H426.5v-2.25h4.8V197.5h-4.8v-2.27H438.89z"/>
			<path class="st3" d="M453.99,215.73l-7.96-15.32L446,215.73h-2.63v-20.5h2.65l7.96,15.29l0.04-15.29h2.63v20.5H453.99z"/>
			<path class="st3" d="M473.35,214.06c-0.36,0.3-0.73,0.57-1.11,0.79c-0.66,0.39-1.37,0.69-2.13,0.88
				c-0.76,0.19-1.56,0.28-2.39,0.27c-0.84-0.01-1.62-0.14-2.33-0.39c-0.71-0.25-1.34-0.59-1.91-1.04c-0.56-0.43-1.06-0.94-1.48-1.53
				c-0.42-0.59-0.77-1.23-1.06-1.93c-0.29-0.69-0.51-1.41-0.65-2.16c-0.15-0.76-0.22-1.52-0.23-2.29v-2.38
				c0.01-0.76,0.08-1.52,0.2-2.27s0.32-1.48,0.58-2.18c0.26-0.69,0.59-1.34,0.99-1.94c0.39-0.6,0.87-1.11,1.42-1.56
				c0.54-0.43,1.16-0.77,1.86-1.03c0.69-0.25,1.47-0.38,2.34-0.38c0.96,0,1.84,0.15,2.65,0.44c0.81,0.3,1.51,0.72,2.11,1.26
				c0.6,0.55,1.08,1.22,1.45,1.99s0.59,1.64,0.68,2.6h-2.58c-0.1-0.59-0.26-1.14-0.48-1.64s-0.5-0.93-0.84-1.29
				c-0.36-0.36-0.78-0.64-1.27-0.84c-0.49-0.2-1.06-0.3-1.7-0.3c-0.62,0-1.17,0.11-1.65,0.32c-0.48,0.21-0.9,0.5-1.25,0.85
				s-0.65,0.77-0.89,1.25c-0.23,0.47-0.43,0.97-0.58,1.5c-0.15,0.53-0.26,1.06-0.32,1.61c-0.07,0.54-0.1,1.07-0.1,1.58v2.41
				c0.01,0.52,0.05,1.05,0.13,1.6c0.08,0.55,0.2,1.09,0.37,1.61s0.38,1.02,0.65,1.49c0.26,0.47,0.58,0.88,0.96,1.24
				c0.37,0.36,0.79,0.64,1.28,0.85s1.04,0.32,1.66,0.33c0.36,0.01,0.73,0,1.12-0.04c0.39-0.04,0.77-0.11,1.13-0.23
				s0.71-0.27,1.03-0.46s0.59-0.44,0.8-0.75l0.03-4.6h-4.17v-2.2h6.65l0.04,7.52C474.05,213.41,473.71,213.75,473.35,214.06z"/>
			<path class="st3" d="M508.68,213.52v2.21h-12.63v-20.5h2.6v18.29H508.68z"/>
			<path class="st3" d="M525.41,195.23v2.27h-4.91v15.98h4.91v2.25h-12.39v-2.25h4.8V197.5h-4.8v-2.27H525.41z"/>
			<path class="st3" d="M542.86,212.17c-0.37,0.79-0.84,1.47-1.42,2.03c-0.59,0.57-1.29,1.02-2.09,1.33s-1.7,0.47-2.68,0.47
				c-0.84,0-1.61-0.12-2.3-0.36c-0.69-0.24-1.3-0.57-1.84-0.99c-0.54-0.42-1.01-0.92-1.4-1.49c-0.39-0.57-0.71-1.2-0.96-1.87
				c-0.26-0.68-0.46-1.38-0.58-2.13c-0.13-0.74-0.2-1.49-0.2-2.25v-2.86c0.01-0.76,0.08-1.51,0.2-2.25
				c0.13-0.74,0.32-1.45,0.58-2.13c0.25-0.68,0.58-1.3,0.96-1.88c0.39-0.58,0.86-1.08,1.4-1.5c0.54-0.42,1.15-0.75,1.83-0.99
				c0.69-0.24,1.46-0.36,2.31-0.36c1.02,0,1.94,0.16,2.75,0.47s1.5,0.76,2.08,1.33c0.58,0.58,1.05,1.28,1.4,2.08
				c0.35,0.81,0.58,1.7,0.7,2.68h-2.6c-0.08-0.62-0.23-1.2-0.44-1.73c-0.21-0.54-0.48-1-0.83-1.41c-0.35-0.4-0.77-0.72-1.27-0.95
				c-0.5-0.23-1.1-0.34-1.78-0.34c-0.62,0-1.17,0.1-1.64,0.3c-0.47,0.2-0.88,0.48-1.22,0.82c-0.35,0.35-0.64,0.75-0.87,1.21
				c-0.23,0.46-0.42,0.95-0.56,1.46s-0.24,1.04-0.3,1.58c-0.06,0.54-0.09,1.06-0.09,1.57v2.89c0,0.51,0.03,1.03,0.09,1.57
				c0.06,0.54,0.16,1.07,0.3,1.58c0.14,0.53,0.32,1.02,0.55,1.48c0.23,0.46,0.51,0.86,0.86,1.21c0.35,0.36,0.75,0.64,1.22,0.84
				c0.47,0.2,1.02,0.3,1.65,0.3c0.68,0,1.28-0.11,1.78-0.32c0.5-0.22,0.93-0.52,1.27-0.92c0.35-0.38,0.62-0.84,0.83-1.37
				c0.21-0.53,0.35-1.1,0.44-1.72h2.6C543.47,210.51,543.23,211.38,542.86,212.17z"/>
			<path class="st3" d="M550.25,208.8v6.93h-2.66v-20.5h2.66v10.01l1.98-2.48l6.01-7.53h3.17l-7.17,8.97l7.65,11.53h-3.17l-6.2-9.52
				L550.25,208.8z"/>
			<path class="st3" d="M577.32,195.23v2.27h-4.91v15.98h4.91v2.25h-12.39v-2.25h4.8V197.5h-4.8v-2.27H577.32z"/>
			<path class="st3" d="M592.42,215.73l-7.96-15.32l-0.04,15.32h-2.63v-20.5h2.65l7.96,15.29l0.04-15.29h2.63v20.5H592.42z"/>
			<path class="st3" d="M611.78,214.06c-0.36,0.3-0.73,0.57-1.11,0.79c-0.66,0.39-1.37,0.69-2.13,0.88
				c-0.76,0.19-1.56,0.28-2.39,0.27c-0.84-0.01-1.62-0.14-2.33-0.39c-0.71-0.25-1.34-0.59-1.91-1.04c-0.56-0.43-1.06-0.94-1.48-1.53
				c-0.42-0.59-0.77-1.23-1.06-1.93c-0.29-0.69-0.51-1.41-0.65-2.16c-0.15-0.76-0.22-1.52-0.23-2.29v-2.38
				c0.01-0.76,0.08-1.52,0.2-2.27s0.32-1.48,0.58-2.18c0.26-0.69,0.59-1.34,0.99-1.94c0.39-0.6,0.87-1.11,1.42-1.56
				c0.54-0.43,1.16-0.77,1.86-1.03c0.69-0.25,1.47-0.38,2.34-0.38c0.96,0,1.84,0.15,2.65,0.44c0.81,0.3,1.51,0.72,2.11,1.26
				c0.6,0.55,1.08,1.22,1.45,1.99s0.59,1.64,0.68,2.6h-2.58c-0.1-0.59-0.26-1.14-0.48-1.64s-0.5-0.93-0.84-1.29
				c-0.36-0.36-0.78-0.64-1.27-0.84c-0.49-0.2-1.06-0.3-1.7-0.3c-0.62,0-1.17,0.11-1.65,0.32c-0.48,0.21-0.9,0.5-1.25,0.85
				s-0.65,0.77-0.89,1.25c-0.23,0.47-0.43,0.97-0.58,1.5c-0.15,0.53-0.26,1.06-0.32,1.61c-0.07,0.54-0.1,1.07-0.1,1.58v2.41
				c0.01,0.52,0.05,1.05,0.13,1.6c0.08,0.55,0.2,1.09,0.37,1.61s0.38,1.02,0.65,1.49c0.26,0.47,0.58,0.88,0.96,1.24
				c0.37,0.36,0.79,0.64,1.28,0.85s1.04,0.32,1.66,0.33c0.36,0.01,0.73,0,1.12-0.04c0.39-0.04,0.77-0.11,1.13-0.23
				s0.71-0.27,1.03-0.46s0.59-0.44,0.8-0.75l0.03-4.6h-4.17v-2.2h6.65l0.04,7.52C612.48,213.41,612.14,213.75,611.78,214.06z"/>
			<path class="st3" d="M641.63,197.45v18.28h-2.54v-18.28h-6.33v-2.22h15.21v2.22H641.63z"/>
			<path class="st3" d="M661.83,215.73v-9.48h-8.41v9.48h-2.45v-20.5h2.45v8.81h8.41v-8.81h2.46v20.5H661.83z"/>
			<path class="st3" d="M671.46,206.25v7.26h9.98v2.21h-12.59v-20.5h12.46v2.22h-9.86v6.59h8.56v2.21H671.46z"/>
			<path class="st3" d="M706.07,206.25v7.26h9.98v2.21h-12.59v-20.5h12.46v2.22h-9.86v6.59h8.56v2.21H706.07z"/>
			<path class="st3" d="M731.37,195.23h2.96l-6.38,12.85l-0.04,7.65h-2.42l-0.04-7.65l-6.38-12.85h2.97l4.66,10.29L731.37,195.23z"
				/>
			<path class="st3" d="M740.68,206.25v7.26h9.98v2.21h-12.59v-20.5h12.46v2.22h-9.86v6.59h8.56v2.21H740.68z"/>
			<path class="st3" d="M755.24,195.23h6.1c0.84,0.01,1.67,0.12,2.48,0.33c0.81,0.21,1.53,0.54,2.15,0.98
				c0.63,0.44,1.13,1,1.51,1.69c0.38,0.69,0.56,1.51,0.55,2.46c-0.01,0.54-0.1,1.02-0.26,1.46s-0.39,0.83-0.67,1.18
				c-0.29,0.36-0.61,0.66-0.96,0.9c-0.35,0.24-0.78,0.47-1.27,0.69v0.04c0.52,0.12,1.01,0.34,1.49,0.66s0.87,0.67,1.18,1.06
				c0.33,0.42,0.58,0.9,0.77,1.42c0.18,0.53,0.27,1.09,0.27,1.7c0.01,0.96-0.17,1.8-0.55,2.53c-0.38,0.73-0.88,1.34-1.51,1.83
				c-0.63,0.5-1.35,0.88-2.17,1.14c-0.82,0.26-1.67,0.4-2.54,0.41h-6.56V195.23z M761.49,203.97c0.49-0.01,0.97-0.09,1.44-0.23
				c0.47-0.15,0.89-0.36,1.25-0.64c0.37-0.27,0.66-0.61,0.89-1.01s0.34-0.87,0.34-1.41c0-0.57-0.11-1.06-0.33-1.46
				c-0.22-0.4-0.51-0.74-0.88-1c-0.38-0.25-0.8-0.44-1.29-0.56s-0.98-0.19-1.49-0.2h-3.56v6.52H761.49z M757.85,213.52h4.01
				c0.54-0.01,1.06-0.1,1.55-0.27c0.49-0.17,0.92-0.42,1.3-0.72c0.38-0.31,0.67-0.69,0.89-1.14s0.33-0.96,0.33-1.53
				c0.01-0.58-0.09-1.1-0.29-1.55c-0.2-0.45-0.48-0.84-0.84-1.16c-0.36-0.31-0.77-0.55-1.25-0.72c-0.48-0.17-1-0.26-1.55-0.28h-4.15
				V213.52z"/>
			<path class="st3" d="M775.51,210.42l-1.65,5.31h-2.6l6.62-20.5h2.18l6.5,20.5h-2.59l-1.62-5.31H775.51z M781.66,208.15l-2.7-8.9
				l-2.75,8.9H781.66z"/>
			<path class="st3" d="M802.84,213.52v2.21h-12.63v-20.5h2.6v18.29H802.84z"/>
			<path class="st3" d="M820.14,213.52v2.21h-12.63v-20.5h2.6v18.29H820.14z"/>
			<path class="st3" d="M834.78,208.95c-0.29-0.43-0.66-0.8-1.11-1.1c-0.45-0.29-0.95-0.54-1.49-0.73s-1.06-0.38-1.56-0.54
				c-0.72-0.23-1.46-0.52-2.2-0.85s-1.42-0.73-2.04-1.2c-0.62-0.48-1.12-1.04-1.51-1.7c-0.39-0.65-0.58-1.42-0.58-2.3
				c0-0.88,0.2-1.67,0.58-2.37c0.39-0.69,0.9-1.28,1.53-1.76c0.63-0.48,1.34-0.84,2.14-1.09c0.8-0.25,1.6-0.37,2.41-0.37
				c0.89,0,1.75,0.15,2.58,0.44c0.83,0.3,1.56,0.71,2.2,1.25c0.64,0.54,1.15,1.18,1.53,1.94c0.38,0.76,0.59,1.61,0.61,2.55h-2.67
				c-0.08-0.59-0.22-1.13-0.44-1.61s-0.5-0.9-0.86-1.25c-0.36-0.35-0.78-0.62-1.27-0.81s-1.05-0.29-1.67-0.29
				c-0.5,0-0.98,0.07-1.46,0.21c-0.47,0.14-0.89,0.35-1.26,0.63c-0.38,0.28-0.67,0.63-0.89,1.04c-0.22,0.41-0.33,0.89-0.33,1.44
				c0.01,0.59,0.16,1.09,0.45,1.5s0.66,0.75,1.11,1.04c0.44,0.28,0.92,0.52,1.44,0.7c0.52,0.19,1.01,0.35,1.47,0.49
				c0.76,0.23,1.52,0.52,2.28,0.85c0.76,0.33,1.46,0.76,2.08,1.27c0.62,0.48,1.12,1.07,1.5,1.76c0.38,0.7,0.57,1.5,0.57,2.41
				c0,0.92-0.2,1.72-0.61,2.41s-0.94,1.25-1.58,1.7c-0.65,0.46-1.38,0.81-2.2,1.04c-0.82,0.23-1.63,0.34-2.45,0.34
				c-0.98,0-1.94-0.16-2.88-0.49c-0.94-0.33-1.76-0.8-2.46-1.42c-0.62-0.54-1.11-1.16-1.47-1.88c-0.36-0.72-0.56-1.52-0.58-2.4h2.66
				c0.08,0.64,0.26,1.2,0.52,1.7c0.26,0.49,0.6,0.91,1.01,1.25c0.41,0.35,0.89,0.61,1.43,0.78s1.13,0.26,1.77,0.26
				c0.51,0,1.01-0.06,1.5-0.19c0.49-0.13,0.93-0.33,1.32-0.6c0.38-0.26,0.7-0.6,0.94-1.01s0.37-0.89,0.37-1.46
				C835.21,209.92,835.06,209.39,834.78,208.95z"/>
			<path class="st3" d="M846.82,212.62c0.34-0.39,0.85-0.59,1.53-0.59c0.68,0,1.19,0.2,1.54,0.58c0.35,0.39,0.53,0.87,0.53,1.43
				c0,0.55-0.18,1.02-0.54,1.39c-0.36,0.38-0.87,0.56-1.54,0.56c-0.68,0-1.18-0.19-1.53-0.57s-0.51-0.84-0.51-1.39
				C846.31,213.48,846.48,213.01,846.82,212.62z"/>
		</g>
	</g>
</g>
</svg>
