<?xml version="1.0" encoding="utf-8"?>
<!-- Generator: Adobe Illustrator 28.2.0, SVG Export Plug-In . SVG Version: 6.00 Build 0)  -->
<svg version="1.1" id="Layer_1" xmlns="http://www.w3.org/2000/svg" xmlns:xlink="http://www.w3.org/1999/xlink" x="0px" y="0px"
	 viewBox="0 0 900 380" style="enable-background:new 0 0 900 380;" xml:space="preserve">
<style type="text/css">
	.st0{opacity:0.3;}
	.st1{fill:#00009B;}
	.st2{fill:#1717E2;}
</style>
<g class="st0">
	<g>
		<path class="st1" d="M55.17,120.01h16.51c11.68,0,18.54-0.16,26.02-0.16c23.37,0,41.29,8.1,41.29,27.26
			c0,26.33-27.58,40.19-52.97,40.19c-4.36,0-10.28-0.16-14.8-0.62l-5.92,23.52c-4.36,17.6-2.65,18.07,10.44,19.94l-0.62,2.8H27.13
			l0.62-2.8c14.02-1.87,16.05-2.34,20.41-19.94l16.83-67.46c4.36-17.6,2.65-18.07-10.44-19.94L55.17,120.01z M86.33,125.62
			l-14.49,58.11h1.4c28.82-0.31,46.74-10.91,46.74-37.7c0-13.87-9.19-20.41-24.77-20.41H86.33z"/>
		<path class="st1" d="M155.34,234.98c-11.37,0-18.23-8.88-18.23-24.15c0-28.51,27.42-63.1,51.88-63.1c3.58,0,9.04,0.93,12,3.12
			l16.36-3.12l-8.72,34.12l-8.41,33.65c-1.4,5.76-2.34,10.13,2.34,10.13c3.74,0,12.46-5.14,19.32-16.51l2.49,1.56
			c-8.72,15.89-20.56,24.3-29.6,24.3c-10.44,0-13.4-8.1-9.35-22.75l4.05-14.49C181.04,218.78,168.42,234.98,155.34,234.98z
			 M163.59,223.61c12,0,27.11-32.56,33.81-59.51l1.4-5.76c-1.71-2.65-5.76-4.99-9.97-4.99c-21.5,0-33.65,33.34-33.65,54.06
			C155.18,217.69,157.67,223.61,163.59,223.61z"/>
		<path class="st1" d="M269.53,147.9l-3.74,15.27c9.19-9.5,19.16-15.42,30.54-15.42c0.78,0,1.71,0.16,2.49,0.16l-4.99,19.63h-1.56
			c-3.12-2.8-8.26-4.83-13.87-4.83c-4.99,0-9.81,0.93-13.55,3.89l-16.05,66.37h-15.89l13.71-55.15c3.89-15.42,4.36-17.76-8.1-17.76
			l0.78-2.8L269.53,147.9z"/>
		<path class="st1" d="M304.89,212.24l13.87-57.02h-13.71l1.56-6.08h13.71l3.89-15.11l18.23-10.44l-6.39,25.55h23.52l-1.4,6.08
			h-23.68l-14.8,60.29c-1.4,5.76-2.34,10.13,2.34,10.13c4.36,0,14.02-5.14,20.88-16.51l2.49,1.56c-8.57,15.89-21.5,24.3-31.16,24.3
			C303.49,234.98,301.31,227.04,304.89,212.24z"/>
		<path class="st1" d="M374.21,177.81c3.74-15.42,4.36-17.76-8.1-17.76l0.78-2.8l30.85-9.5c-2.18,8.26-4.99,18.07-8.88,34.12
			l-8.26,33.65c-1.4,5.76-2.34,10.13,2.34,10.13c3.74,0,12.46-5.14,19.32-16.51l2.49,1.56c-8.72,15.89-20.56,24.3-29.6,24.3
			c-10.75,0-12.93-7.95-9.35-22.75L374.21,177.81z M404.75,122.5c0,6.08-4.83,10.59-10.91,10.59s-11.06-4.52-11.06-10.59
			c0-5.92,4.99-10.59,11.06-10.59S404.75,116.58,404.75,122.5z"/>
		<path class="st1" d="M430.61,234.98c-11.37,0-18.23-8.88-18.23-24.15c0-28.51,27.42-63.1,51.88-63.1c3.58,0,9.04,0.93,12,3.12
			l16.36-3.12l-8.72,34.12l-8.41,33.65c-1.4,5.76-2.34,10.13,2.34,10.13c3.74,0,12.46-5.14,19.32-16.51l2.49,1.56
			c-8.72,15.89-20.56,24.3-29.6,24.3c-10.44,0-13.4-8.1-9.35-22.75l4.05-14.49C456.31,218.78,443.69,234.98,430.61,234.98z
			 M438.86,223.61c12,0,27.11-32.56,33.81-59.51l1.4-5.76c-1.71-2.65-5.76-4.99-9.97-4.99c-21.5,0-33.65,33.34-33.65,54.06
			C430.45,217.69,432.94,223.61,438.86,223.61z"/>
		<path class="st1" d="M531.87,137.92c3.9-15.42,4.36-17.76-8.1-17.76l0.78-2.8l30.69-9.5l-8.72,34.12l-18.23,73.53
			c-1.4,5.76-2.34,10.13,2.34,10.13c3.74,0,12.46-5.14,19.32-16.51l2.49,1.56c-8.72,15.89-20.56,24.3-29.6,24.3
			c-10.75,0-13.09-7.95-9.35-22.75L531.87,137.92z"/>
		<path class="st1" d="M573.62,177.81c3.74-15.42,4.36-17.76-8.1-17.76l0.78-2.8l30.85-9.5c-2.18,8.26-4.99,18.07-8.88,34.12
			L580,215.51c-1.4,5.76-2.34,10.13,2.34,10.13c3.74,0,12.46-5.14,19.32-16.51l2.49,1.56c-8.72,15.89-20.56,24.3-29.6,24.3
			c-10.75,0-12.93-7.95-9.35-22.75L573.62,177.81z M604.15,122.5c0,6.08-4.83,10.59-10.91,10.59s-11.06-4.52-11.06-10.59
			c0-5.92,4.99-10.59,11.06-10.59S604.15,116.58,604.15,122.5z"/>
		<path class="st1" d="M664.6,210.37c0,16.2-16.83,24.62-32.87,24.62c-10.28,0-18.85-2.49-23.68-5.61l8.88-29.45h2.96
			c-3.12,19.79-0.62,29.45,13.24,29.45c7.01,0,16.05-4.36,16.05-14.33c0-4.67-2.03-9.35-4.83-13.09l-7.48-9.81
			c-4.83-6.23-10.28-13.55-10.28-21.81c0-14.96,17.29-22.59,31.31-22.59c9.04,0,16.36,2.8,20.25,5.14l-8.26,26.02h-3.12
			c4.05-19.32-0.47-25.55-11.84-25.55c-6.23,0-13.55,3.43-13.55,12c0,4.52,2.96,8.88,5.92,13.09l7.17,9.82
			C661.01,197.28,664.6,203.2,664.6,210.37z"/>
		<path class="st1" d="M784.24,234.98c-10.44,0-13.71-8.1-9.35-22.75l9.66-32.87c4.83-16.05,4.21-20.41-0.62-20.41
			c-10.59,0-29.13,32.56-36.46,59.67l-3.89,14.33h-15.27l14.18-53.59c4.36-16.2,4.21-20.41-0.62-20.41
			c-11.37,0-31.16,38.17-36.61,59.82l-3.58,14.18h-15.42l13.87-55.15c3.89-15.42,4.36-17.76-8.1-17.76l0.78-2.8l30.22-9.35
			l-10.28,40.66c13.71-27.89,24.15-40.82,35.99-40.82c10.28,0,15.27,9.97,10.44,27.89l-2.49,9.19
			c12.77-25.24,22.75-37.08,34.12-37.08c10.28,0,15.58,9.97,10.44,27.89l-11.53,39.88c-1.71,5.61-2.34,10.13,2.34,10.13
			c3.74,0,12.46-5.14,19.32-16.51l2.49,1.56C805.12,226.57,793.28,234.98,784.24,234.98z"/>
		<path class="st1" d="M841.56,234.98c-6.08,0-11.22-5.14-11.22-11.22c0-6.08,5.14-11.22,11.22-11.22c6.08,0,11.22,5.14,11.22,11.22
			C852.78,229.84,847.64,234.98,841.56,234.98z"/>
	</g>
</g>
<g>
	<path class="st2" d="M100.86,53.78l-2.45-10.01l-1.74,10.01h-2.91l2.66-15.35h2.86l2.41,9.96l1.75-9.96h2.9l-2.67,15.35H100.86z"/>
	<path class="st2" d="M117.68,48.92c-0.18,0.56-0.4,1.1-0.66,1.6c-0.27,0.51-0.59,0.98-0.95,1.41c-0.36,0.43-0.77,0.8-1.23,1.11
		c-0.46,0.31-0.96,0.55-1.51,0.72c-0.55,0.17-1.15,0.25-1.79,0.23c-0.61-0.01-1.15-0.12-1.63-0.31s-0.88-0.46-1.23-0.79
		c-0.35-0.32-0.64-0.7-0.86-1.13c-0.22-0.43-0.4-0.9-0.52-1.4c-0.12-0.49-0.19-1-0.21-1.54c-0.02-0.53,0-1.07,0.07-1.59l0.35-2.24
		c0.08-0.56,0.21-1.12,0.38-1.68s0.39-1.09,0.65-1.6c0.25-0.51,0.56-0.98,0.91-1.41c0.35-0.44,0.75-0.81,1.19-1.13
		c0.44-0.31,0.94-0.55,1.48-0.72c0.54-0.17,1.13-0.25,1.77-0.24c0.62,0.01,1.17,0.12,1.65,0.31c0.48,0.19,0.9,0.45,1.27,0.77
		c0.36,0.33,0.66,0.71,0.9,1.14c0.24,0.43,0.43,0.89,0.56,1.39c0.13,0.5,0.2,1.02,0.23,1.56c0.03,0.54,0.01,1.08-0.06,1.61
		l-0.35,2.22C117.99,47.79,117.85,48.35,117.68,48.92z M115.58,44.11c0.02-0.31,0.02-0.62,0.01-0.94c-0.02-0.31-0.07-0.61-0.14-0.91
		c-0.07-0.29-0.18-0.56-0.33-0.79c-0.15-0.23-0.34-0.42-0.58-0.57c-0.24-0.15-0.54-0.23-0.9-0.24c-0.39-0.01-0.73,0.04-1.02,0.16
		c-0.3,0.12-0.55,0.29-0.77,0.51c-0.23,0.23-0.42,0.48-0.58,0.78c-0.16,0.29-0.3,0.6-0.4,0.92c-0.11,0.32-0.2,0.65-0.27,0.99
		s-0.13,0.65-0.17,0.95l-0.35,2.27c-0.04,0.25-0.06,0.52-0.09,0.82c-0.02,0.3-0.03,0.61-0.03,0.93c0,0.32,0.03,0.63,0.08,0.93
		c0.06,0.3,0.15,0.57,0.29,0.81c0.13,0.24,0.31,0.43,0.54,0.59c0.23,0.15,0.52,0.23,0.88,0.25c0.38,0.01,0.72-0.04,1.02-0.16
		s0.57-0.29,0.81-0.51c0.23-0.22,0.44-0.47,0.61-0.77c0.18-0.3,0.33-0.61,0.45-0.94c0.12-0.32,0.22-0.65,0.3-0.99
		c0.08-0.34,0.14-0.66,0.19-0.96l0.35-2.27C115.53,44.7,115.56,44.42,115.58,44.11z"/>
	<path class="st2" d="M130.07,48.59c-0.12,0.79-0.33,1.53-0.64,2.19c-0.31,0.67-0.71,1.24-1.2,1.72c-0.49,0.49-1.07,0.86-1.75,1.12
		s-1.43,0.38-2.26,0.36c-0.77-0.01-1.44-0.17-2-0.46s-1.01-0.68-1.35-1.18c-0.34-0.49-0.58-1.05-0.72-1.7
		c-0.13-0.65-0.16-1.33-0.07-2.05l1.74-10.19h2.89l-1.71,10.19c-0.04,0.3-0.05,0.62-0.05,0.96c0,0.34,0.05,0.66,0.15,0.95
		c0.09,0.29,0.24,0.54,0.46,0.74c0.21,0.2,0.52,0.31,0.91,0.33c0.44,0.02,0.81-0.05,1.13-0.23c0.32-0.17,0.58-0.4,0.8-0.69
		c0.21-0.29,0.38-0.62,0.51-0.98c0.13-0.37,0.22-0.73,0.27-1.1l1.74-10.19h2.87L130.07,48.59z"/>
	<path class="st2" d="M138.88,53.78l-2.45-10.01l-1.74,10.01h-2.91l2.66-15.35h2.86l2.41,9.96l1.75-9.96h2.9l-2.67,15.35H138.88z"/>
	<path class="st2" d="M99.31,105.61V93.83l-3.88,1.39v-2.55l6.69-2.41h0.16v15.35H99.31z"/>
	<path class="st2" d="M111.55,102.53c0.36-0.38,0.86-0.56,1.5-0.56c0.63,0,1.13,0.19,1.49,0.56c0.36,0.37,0.54,0.83,0.54,1.38
		c0,0.55-0.18,1-0.55,1.37s-0.86,0.54-1.48,0.54c-0.63,0-1.12-0.18-1.49-0.55c-0.37-0.37-0.55-0.82-0.55-1.36
		C111.01,103.37,111.19,102.91,111.55,102.53z"/>
	<path class="st2" d="M140.41,92.67v12.94h-2.97V92.67h-4.67v-2.41h12.38v2.41H140.41z"/>
	<path class="st2" d="M154.03,105.61v-6.65h-4.34v6.65h-2.94V90.25h2.94v6.29h4.34v-6.29h2.93v15.35H154.03z"/>
	<path class="st2" d="M162.93,98.88v4.33h7.37v2.39h-10.34V90.25h10.31v2.41h-7.34v3.87h6.31v2.34H162.93z"/>
	<path class="st2" d="M183.28,100.94c-0.12,0.59-0.29,1.14-0.52,1.65c-0.24,0.51-0.53,0.97-0.89,1.39s-0.75,0.77-1.2,1.05
		c-0.41,0.25-0.86,0.44-1.34,0.57c-0.49,0.14-1.01,0.21-1.58,0.21c-0.6,0-1.15-0.08-1.66-0.23c-0.51-0.15-0.97-0.37-1.38-0.65
		c-0.41-0.3-0.77-0.65-1.1-1.07c-0.32-0.42-0.59-0.89-0.81-1.42c-0.2-0.48-0.35-1.01-0.45-1.58c-0.1-0.57-0.15-1.17-0.15-1.8v-2.24
		c0-0.67,0.06-1.31,0.17-1.92c0.12-0.6,0.29-1.16,0.51-1.68c0.22-0.49,0.48-0.92,0.8-1.32c0.31-0.39,0.67-0.73,1.08-1.01
		c0.4-0.27,0.85-0.48,1.35-0.63c0.5-0.15,1.04-0.22,1.62-0.22c0.59,0,1.14,0.08,1.66,0.23s0.98,0.37,1.4,0.65
		c0.41,0.27,0.78,0.59,1.09,0.97c0.31,0.38,0.58,0.8,0.81,1.25c0.25,0.52,0.43,1.09,0.56,1.71c0.13,0.62,0.2,1.28,0.2,1.97v2.24
		C183.46,99.72,183.4,100.35,183.28,100.94z M180.4,95.68c-0.04-0.35-0.1-0.68-0.18-0.99c-0.11-0.38-0.25-0.72-0.42-1.02
		s-0.38-0.54-0.62-0.73c-0.19-0.14-0.4-0.25-0.64-0.33c-0.24-0.08-0.5-0.12-0.79-0.12c-0.27,0-0.52,0.04-0.74,0.11
		c-0.22,0.07-0.42,0.17-0.6,0.31c-0.24,0.2-0.44,0.44-0.61,0.74c-0.17,0.29-0.29,0.64-0.38,1.03c-0.07,0.3-0.12,0.63-0.15,0.99
		s-0.05,0.73-0.05,1.13v2.26c0,0.37,0.01,0.73,0.04,1.08c0.03,0.34,0.08,0.66,0.15,0.96c0.08,0.37,0.19,0.71,0.34,1.02
		s0.33,0.55,0.53,0.74c0.19,0.17,0.41,0.3,0.65,0.39s0.52,0.14,0.83,0.14c0.3,0,0.57-0.04,0.81-0.13c0.25-0.08,0.46-0.21,0.65-0.37
		c0.24-0.2,0.44-0.44,0.61-0.74c0.17-0.3,0.3-0.64,0.4-1.02c0.08-0.3,0.14-0.62,0.17-0.97s0.06-0.72,0.06-1.1V96.8
		C180.45,96.41,180.43,96.03,180.4,95.68z"/>
	<path class="st2" d="M188.67,99.87v5.74h-2.96V90.25h5.15c0.85,0,1.62,0.1,2.31,0.3c0.69,0.2,1.28,0.49,1.77,0.88
		c0.48,0.39,0.86,0.87,1.12,1.44s0.4,1.24,0.4,2c0,0.55-0.07,1.04-0.2,1.48c-0.13,0.44-0.31,0.83-0.55,1.18
		c-0.25,0.35-0.54,0.66-0.88,0.92c-0.34,0.26-0.72,0.48-1.14,0.68l3.3,6.34v0.14h-3.17l-2.89-5.74H188.67z M190.86,97.47
		c0.46,0,0.86-0.06,1.21-0.19c0.35-0.13,0.63-0.32,0.85-0.56c0.18-0.2,0.32-0.43,0.42-0.71c0.09-0.27,0.14-0.58,0.14-0.92
		c0-0.41-0.06-0.77-0.18-1.08c-0.12-0.31-0.31-0.57-0.55-0.77c-0.22-0.18-0.49-0.32-0.8-0.42c-0.32-0.1-0.68-0.15-1.09-0.15h-2.18
		v4.81H190.86z"/>
	<path class="st2" d="M206.93,90.25h3.26l-4.83,10.04l-0.01,5.31h-2.95l-0.01-5.44l-4.76-9.91h3.25l3.03,7.08L206.93,90.25z"/>
	<path class="st2" d="M136.52,127.55l-1.23,3.98h-1.95l4.96-15.35h1.63l4.87,15.35h-1.94l-1.21-3.98H136.52z M141.13,125.85
		l-2.02-6.66l-2.06,6.66H141.13z"/>
	<path class="st2" d="M159.15,116.17h2.09l3.37,11.46l0.22,0.75l0.23-0.77l3.4-11.44h2.08l-4.84,15.35H164L159.15,116.17z"/>
	<path class="st2" d="M182.48,116.17v1.7h-3.68v11.97h3.68v1.69h-9.28v-1.69h3.6v-11.97h-3.6v-1.7H182.48z"/>
	<path class="st2" d="M188.19,124.43v5.44h7.48v1.66h-9.43v-15.35h9.33v1.67h-7.38v4.94h6.41v1.66H188.19z"/>
	<path class="st2" d="M198.05,116.17h1.86l1.11,10.59l0.06,0.61l0.12-0.63l1.86-10.57h1.7l1.87,10.58l0.12,0.62l0.06-0.63
		l1.11-10.57h1.85l-1.87,15.35h-1.99l-1.87-10.92l-0.11-0.64l-0.12,0.65l-1.88,10.91h-2L198.05,116.17z"/>
	<path class="st2" d="M230.65,117.83v13.69h-1.9v-13.69H224v-1.67h11.39v1.67H230.65z"/>
	<path class="st2" d="M245.78,131.52v-7.1h-6.3v7.1h-1.83v-15.35h1.83v6.6h6.3v-6.6h1.85v15.35H245.78z"/>
	<path class="st2" d="M253.16,127.55l-1.23,3.98h-1.95l4.96-15.35h1.63l4.87,15.35h-1.94l-1.21-3.98H253.16z M257.77,125.85
		l-2.02-6.66l-2.06,6.66H257.77z"/>
	<path class="st2" d="M269.53,117.83v13.69h-1.9v-13.69h-4.75v-1.67h11.39v1.67H269.53z"/>
	<path class="st2" d="M289.64,116.17h3.55c0.6,0.01,1.16,0.07,1.69,0.18c0.53,0.12,1.02,0.28,1.47,0.49
		c0.63,0.29,1.18,0.67,1.66,1.13c0.48,0.47,0.87,1.01,1.15,1.62c0.26,0.52,0.46,1.09,0.6,1.71c0.14,0.62,0.21,1.28,0.22,1.98v1.13
		c0,0.68-0.06,1.31-0.19,1.92c-0.13,0.6-0.32,1.16-0.56,1.67c-0.25,0.53-0.57,1-0.96,1.43c-0.39,0.43-0.82,0.79-1.3,1.1
		c-0.51,0.32-1.08,0.56-1.71,0.73c-0.64,0.17-1.32,0.26-2.06,0.26h-3.55V116.17z M291.62,129.93h1.57c0.56-0.01,1.07-0.08,1.53-0.21
		c0.46-0.13,0.87-0.32,1.23-0.57c0.38-0.25,0.71-0.56,0.99-0.93c0.28-0.37,0.5-0.78,0.66-1.24c0.14-0.37,0.25-0.77,0.32-1.21
		c0.07-0.43,0.11-0.88,0.12-1.36v-1.15c-0.01-0.48-0.05-0.94-0.12-1.38c-0.07-0.44-0.18-0.85-0.33-1.23
		c-0.19-0.49-0.44-0.94-0.76-1.33c-0.32-0.4-0.71-0.72-1.18-0.96c-0.33-0.18-0.7-0.33-1.11-0.43c-0.41-0.1-0.85-0.16-1.34-0.16
		h-1.57V129.93z"/>
	<path class="st2" d="M312.64,126.39c-0.09,0.56-0.22,1.1-0.41,1.62c-0.18,0.52-0.42,1.01-0.7,1.46c-0.28,0.45-0.62,0.84-1.02,1.18
		s-0.85,0.6-1.35,0.8s-1.08,0.29-1.71,0.29c-0.63,0-1.2-0.1-1.71-0.29s-0.96-0.46-1.35-0.8s-0.73-0.73-1.02-1.19
		c-0.29-0.45-0.52-0.94-0.71-1.46c-0.19-0.52-0.33-1.06-0.42-1.61c-0.09-0.56-0.14-1.11-0.15-1.66v-1.75
		c0.01-0.55,0.05-1.1,0.14-1.66s0.23-1.1,0.42-1.62c0.18-0.52,0.42-1.01,0.7-1.46s0.62-0.85,1.02-1.2c0.39-0.34,0.85-0.6,1.35-0.8
		s1.08-0.29,1.71-0.29c0.63,0,1.21,0.1,1.72,0.29c0.51,0.19,0.97,0.46,1.36,0.8c0.39,0.34,0.73,0.73,1.02,1.19
		c0.28,0.45,0.52,0.94,0.71,1.46c0.18,0.52,0.32,1.06,0.41,1.62s0.14,1.12,0.14,1.67v1.75
		C312.78,125.28,312.73,125.83,312.64,126.39z M310.78,121.82c-0.04-0.4-0.11-0.79-0.21-1.19c-0.11-0.39-0.24-0.76-0.41-1.11
		c-0.17-0.35-0.38-0.67-0.63-0.94c-0.25-0.27-0.55-0.48-0.9-0.64c-0.34-0.16-0.75-0.24-1.2-0.24c-0.45,0-0.85,0.08-1.19,0.24
		c-0.34,0.16-0.64,0.38-0.9,0.64c-0.25,0.27-0.46,0.59-0.63,0.94c-0.17,0.35-0.3,0.73-0.4,1.11c-0.11,0.39-0.18,0.79-0.23,1.19
		c-0.05,0.4-0.07,0.77-0.08,1.13v1.77c0.01,0.36,0.03,0.74,0.08,1.14c0.05,0.4,0.12,0.79,0.23,1.18c0.11,0.39,0.24,0.77,0.41,1.13
		c0.17,0.36,0.38,0.67,0.63,0.94c0.25,0.27,0.55,0.49,0.9,0.65c0.34,0.16,0.75,0.24,1.2,0.24c0.46,0,0.86-0.08,1.21-0.24
		c0.35-0.16,0.65-0.38,0.9-0.65c0.25-0.27,0.45-0.58,0.62-0.93c0.17-0.36,0.3-0.73,0.41-1.12c0.1-0.39,0.17-0.78,0.21-1.18
		c0.04-0.4,0.06-0.78,0.07-1.15v-1.77C310.85,122.59,310.82,122.21,310.78,121.82z"/>
	<path class="st2" d="M317.79,124.43v5.44h7.48v1.66h-9.43v-15.35h9.33v1.67h-7.38v4.94h6.41v1.66H317.79z"/>
	<path class="st2" d="M336.43,126.45c-0.21-0.32-0.49-0.6-0.83-0.82c-0.34-0.22-0.71-0.4-1.11-0.55c-0.4-0.15-0.79-0.28-1.17-0.4
		c-0.54-0.18-1.09-0.39-1.65-0.64c-0.56-0.25-1.07-0.55-1.52-0.9c-0.46-0.36-0.84-0.78-1.13-1.27c-0.29-0.49-0.44-1.06-0.44-1.72
		c0-0.66,0.15-1.25,0.44-1.77c0.29-0.52,0.67-0.96,1.14-1.32c0.47-0.36,1.01-0.63,1.6-0.82c0.6-0.19,1.2-0.28,1.8-0.28
		c0.67,0,1.31,0.11,1.93,0.33c0.62,0.22,1.17,0.53,1.65,0.93s0.86,0.89,1.15,1.46s0.44,1.21,0.45,1.91h-2
		c-0.06-0.44-0.17-0.85-0.33-1.21c-0.16-0.36-0.38-0.67-0.64-0.93c-0.27-0.26-0.59-0.46-0.95-0.61c-0.37-0.14-0.79-0.22-1.25-0.22
		c-0.37,0-0.74,0.05-1.09,0.16s-0.67,0.26-0.94,0.47c-0.28,0.21-0.5,0.47-0.67,0.78c-0.17,0.31-0.25,0.67-0.25,1.08
		c0.01,0.44,0.12,0.82,0.34,1.12c0.22,0.31,0.5,0.56,0.83,0.77c0.33,0.21,0.69,0.39,1.08,0.53s0.76,0.26,1.1,0.37
		c0.57,0.18,1.14,0.39,1.71,0.64s1.09,0.57,1.56,0.95c0.46,0.36,0.84,0.8,1.12,1.32c0.28,0.52,0.43,1.12,0.43,1.8
		c0,0.69-0.15,1.29-0.46,1.8c-0.31,0.51-0.7,0.94-1.19,1.28c-0.48,0.34-1.03,0.6-1.65,0.78c-0.61,0.17-1.22,0.26-1.83,0.26
		c-0.73,0-1.45-0.12-2.16-0.37c-0.71-0.25-1.32-0.6-1.84-1.06c-0.46-0.4-0.83-0.87-1.1-1.41c-0.27-0.54-0.42-1.14-0.44-1.8h1.99
		c0.06,0.48,0.19,0.9,0.39,1.27s0.45,0.68,0.76,0.93c0.31,0.26,0.67,0.46,1.07,0.58c0.4,0.13,0.85,0.2,1.32,0.2
		c0.38,0,0.75-0.05,1.12-0.14c0.37-0.09,0.7-0.24,0.99-0.45c0.29-0.2,0.52-0.45,0.71-0.75c0.18-0.31,0.27-0.67,0.27-1.09
		C336.75,127.17,336.64,126.77,336.43,126.45z"/>
	<path class="st2" d="M362.27,131.52l-5.96-11.47l-0.03,11.47h-1.97v-15.35h1.98l5.96,11.45l0.03-11.45h1.97v15.35H362.27z"/>
	<path class="st2" d="M377.44,126.39c-0.09,0.56-0.22,1.1-0.41,1.62c-0.18,0.52-0.42,1.01-0.7,1.46c-0.28,0.45-0.62,0.84-1.02,1.18
		s-0.85,0.6-1.35,0.8s-1.08,0.29-1.71,0.29c-0.63,0-1.2-0.1-1.71-0.29s-0.96-0.46-1.35-0.8s-0.73-0.73-1.02-1.19
		c-0.29-0.45-0.52-0.94-0.71-1.46c-0.19-0.52-0.33-1.06-0.42-1.61c-0.09-0.56-0.14-1.11-0.15-1.66v-1.75
		c0.01-0.55,0.05-1.1,0.14-1.66s0.23-1.1,0.42-1.62c0.18-0.52,0.42-1.01,0.7-1.46s0.62-0.85,1.02-1.2c0.39-0.34,0.85-0.6,1.35-0.8
		s1.08-0.29,1.71-0.29c0.63,0,1.21,0.1,1.72,0.29c0.51,0.19,0.97,0.46,1.36,0.8c0.39,0.34,0.73,0.73,1.02,1.19
		c0.28,0.45,0.52,0.94,0.71,1.46c0.18,0.52,0.32,1.06,0.41,1.62s0.14,1.12,0.14,1.67v1.75
		C377.58,125.28,377.53,125.83,377.44,126.39z M375.58,121.82c-0.04-0.4-0.11-0.79-0.21-1.19c-0.11-0.39-0.24-0.76-0.41-1.11
		c-0.17-0.35-0.38-0.67-0.63-0.94c-0.25-0.27-0.55-0.48-0.9-0.64c-0.34-0.16-0.75-0.24-1.2-0.24c-0.45,0-0.85,0.08-1.19,0.24
		c-0.34,0.16-0.64,0.38-0.9,0.64c-0.25,0.27-0.46,0.59-0.63,0.94c-0.17,0.35-0.3,0.73-0.4,1.11c-0.11,0.39-0.18,0.79-0.23,1.19
		c-0.05,0.4-0.07,0.77-0.08,1.13v1.77c0.01,0.36,0.03,0.74,0.08,1.14c0.05,0.4,0.12,0.79,0.23,1.18c0.11,0.39,0.24,0.77,0.41,1.13
		c0.17,0.36,0.38,0.67,0.63,0.94c0.25,0.27,0.55,0.49,0.9,0.65c0.34,0.16,0.75,0.24,1.2,0.24c0.46,0,0.86-0.08,1.21-0.24
		c0.35-0.16,0.65-0.38,0.9-0.65c0.25-0.27,0.45-0.58,0.62-0.93c0.17-0.36,0.3-0.73,0.41-1.12c0.1-0.39,0.17-0.78,0.21-1.18
		c0.04-0.4,0.06-0.78,0.07-1.15v-1.77C375.65,122.59,375.62,122.21,375.58,121.82z"/>
	<path class="st2" d="M386.17,117.83v13.69h-1.9v-13.69h-4.75v-1.67h11.39v1.67H386.17z"/>
	<path class="st2" d="M412.09,117.83v13.69h-1.9v-13.69h-4.75v-1.67h11.39v1.67H412.09z"/>
	<path class="st2" d="M421.64,127.55l-1.23,3.98h-1.95l4.96-15.35h1.63l4.87,15.35h-1.94l-1.21-3.98H421.64z M426.25,125.85
		l-2.02-6.66l-2.06,6.66H426.25z"/>
	<path class="st2" d="M434.37,126.33v5.19h-1.99v-15.35h1.99v7.5l1.49-1.86l4.5-5.64h2.37l-5.37,6.72l5.73,8.64h-2.37l-4.64-7.13
		L434.37,126.33z"/>
	<path class="st2" d="M447.39,124.43v5.44h7.48v1.66h-9.43v-15.35h9.33v1.67h-7.38v4.94h6.41v1.66H447.39z"/>
	<path class="st2" d="M480.55,116.17v1.7h-3.68v11.97h3.68v1.69h-9.28v-1.69h3.6v-11.97h-3.6v-1.7H480.55z"/>
	<path class="st2" d="M491.87,131.52l-5.96-11.47l-0.03,11.47h-1.97v-15.35h1.98l5.96,11.45l0.03-11.45h1.97v15.35H491.87z"/>
	<path class="st2" d="M502.8,117.83v13.69h-1.9v-13.69h-4.75v-1.67h11.39v1.67H502.8z"/>
	<path class="st2" d="M520,126.39c-0.09,0.56-0.22,1.1-0.41,1.62s-0.42,1.01-0.7,1.46c-0.28,0.45-0.62,0.84-1.02,1.18
		s-0.85,0.6-1.35,0.8c-0.51,0.19-1.08,0.29-1.71,0.29s-1.2-0.1-1.71-0.29s-0.96-0.46-1.35-0.8c-0.39-0.34-0.74-0.73-1.02-1.19
		c-0.29-0.45-0.52-0.94-0.71-1.46c-0.19-0.52-0.33-1.06-0.42-1.61c-0.09-0.56-0.14-1.11-0.15-1.66v-1.75
		c0.01-0.55,0.05-1.1,0.14-1.66s0.23-1.1,0.42-1.62c0.18-0.52,0.42-1.01,0.7-1.46s0.62-0.85,1.02-1.2c0.39-0.34,0.85-0.6,1.36-0.8
		c0.51-0.19,1.08-0.29,1.71-0.29s1.21,0.1,1.72,0.29c0.51,0.19,0.97,0.46,1.36,0.8s0.73,0.73,1.02,1.19
		c0.29,0.45,0.52,0.94,0.71,1.46c0.18,0.52,0.32,1.06,0.41,1.62s0.13,1.12,0.14,1.67v1.75C520.13,125.28,520.09,125.83,520,126.39z
		 M518.14,121.82c-0.04-0.4-0.11-0.79-0.21-1.19c-0.11-0.39-0.24-0.76-0.41-1.11s-0.38-0.67-0.63-0.94
		c-0.25-0.27-0.55-0.48-0.9-0.64s-0.75-0.24-1.2-0.24c-0.45,0-0.85,0.08-1.19,0.24c-0.34,0.16-0.64,0.38-0.9,0.64
		c-0.25,0.27-0.46,0.59-0.63,0.94c-0.17,0.35-0.3,0.73-0.4,1.11c-0.11,0.39-0.18,0.79-0.23,1.19s-0.07,0.77-0.08,1.13v1.77
		c0.01,0.36,0.03,0.74,0.08,1.14s0.12,0.79,0.23,1.18c0.11,0.39,0.24,0.77,0.41,1.13c0.17,0.36,0.38,0.67,0.63,0.94
		c0.25,0.27,0.55,0.49,0.9,0.65c0.34,0.16,0.75,0.24,1.2,0.24s0.86-0.08,1.21-0.24c0.35-0.16,0.65-0.38,0.9-0.65
		c0.25-0.27,0.45-0.58,0.62-0.93c0.17-0.36,0.3-0.73,0.41-1.12c0.1-0.39,0.17-0.78,0.21-1.18c0.04-0.4,0.06-0.78,0.07-1.15v-1.77
		C518.2,122.59,518.18,122.21,518.14,121.82z"/>
	<path class="st2" d="M538.28,127.55l-1.23,3.98h-1.95l4.96-15.35h1.63l4.87,15.35h-1.94l-1.21-3.98H538.28z M542.89,125.85
		l-2.02-6.66l-2.06,6.66H542.89z"/>
	<path class="st2" d="M558.43,128.86c-0.27,0.59-0.63,1.1-1.07,1.52c-0.44,0.43-0.96,0.76-1.57,1c-0.6,0.24-1.27,0.35-2.01,0.35
		c-0.63,0-1.21-0.09-1.72-0.27c-0.52-0.18-0.97-0.43-1.38-0.74c-0.41-0.32-0.76-0.69-1.05-1.12c-0.29-0.43-0.53-0.9-0.72-1.4
		c-0.2-0.51-0.34-1.04-0.44-1.59c-0.09-0.55-0.15-1.12-0.15-1.69v-2.14c0.01-0.57,0.06-1.13,0.15-1.69s0.24-1.09,0.44-1.59
		c0.19-0.51,0.43-0.98,0.72-1.41c0.29-0.43,0.64-0.81,1.05-1.12c0.4-0.32,0.86-0.56,1.37-0.74c0.51-0.18,1.09-0.27,1.73-0.27
		c0.77,0,1.45,0.12,2.06,0.35s1.12,0.57,1.56,1c0.44,0.44,0.79,0.96,1.05,1.56c0.26,0.6,0.44,1.27,0.52,2h-1.95
		c-0.06-0.46-0.17-0.9-0.33-1.3s-0.36-0.75-0.62-1.05c-0.26-0.3-0.58-0.54-0.95-0.71c-0.38-0.17-0.82-0.26-1.33-0.26
		c-0.46,0-0.87,0.08-1.23,0.23c-0.36,0.15-0.66,0.36-0.91,0.62c-0.26,0.26-0.48,0.56-0.65,0.91c-0.17,0.34-0.31,0.71-0.42,1.1
		c-0.11,0.39-0.18,0.78-0.23,1.19s-0.07,0.8-0.07,1.18v2.16c0,0.38,0.02,0.77,0.07,1.18c0.05,0.4,0.12,0.8,0.23,1.19
		c0.11,0.39,0.24,0.76,0.41,1.11c0.17,0.34,0.38,0.65,0.64,0.91c0.26,0.27,0.57,0.48,0.92,0.63c0.35,0.15,0.76,0.23,1.23,0.23
		c0.51,0,0.96-0.08,1.33-0.24c0.38-0.16,0.69-0.39,0.95-0.69c0.26-0.29,0.47-0.63,0.62-1.03s0.26-0.83,0.33-1.29h1.95
		C558.89,127.61,558.7,128.27,558.43,128.86z"/>
	<path class="st2" d="M571.39,128.86c-0.27,0.59-0.63,1.1-1.07,1.52c-0.44,0.43-0.96,0.76-1.57,1c-0.6,0.24-1.27,0.35-2.01,0.35
		c-0.63,0-1.21-0.09-1.72-0.27c-0.52-0.18-0.97-0.43-1.38-0.74c-0.41-0.32-0.76-0.69-1.05-1.12c-0.29-0.43-0.53-0.9-0.72-1.4
		c-0.2-0.51-0.34-1.04-0.44-1.59c-0.09-0.55-0.15-1.12-0.15-1.69v-2.14c0.01-0.57,0.06-1.13,0.15-1.69s0.24-1.09,0.44-1.59
		c0.19-0.51,0.43-0.98,0.72-1.41c0.29-0.43,0.64-0.81,1.05-1.12c0.4-0.32,0.86-0.56,1.37-0.74c0.51-0.18,1.09-0.27,1.73-0.27
		c0.77,0,1.45,0.12,2.06,0.35s1.12,0.57,1.56,1c0.44,0.44,0.79,0.96,1.05,1.56c0.26,0.6,0.44,1.27,0.52,2h-1.95
		c-0.06-0.46-0.17-0.9-0.33-1.3s-0.36-0.75-0.62-1.05c-0.26-0.3-0.58-0.54-0.95-0.71c-0.38-0.17-0.82-0.26-1.33-0.26
		c-0.46,0-0.87,0.08-1.23,0.23c-0.36,0.15-0.66,0.36-0.91,0.62c-0.26,0.26-0.48,0.56-0.65,0.91c-0.17,0.34-0.31,0.71-0.42,1.1
		c-0.11,0.39-0.18,0.78-0.23,1.19s-0.07,0.8-0.07,1.18v2.16c0,0.38,0.02,0.77,0.07,1.18c0.05,0.4,0.12,0.8,0.23,1.19
		c0.11,0.39,0.24,0.76,0.41,1.11c0.17,0.34,0.38,0.65,0.64,0.91c0.26,0.27,0.57,0.48,0.92,0.63c0.35,0.15,0.76,0.23,1.23,0.23
		c0.51,0,0.96-0.08,1.33-0.24c0.38-0.16,0.69-0.39,0.95-0.69c0.26-0.29,0.47-0.63,0.62-1.03s0.26-0.83,0.33-1.29h1.95
		C571.85,127.61,571.66,128.27,571.39,128.86z"/>
	<path class="st2" d="M584.8,126.39c-0.09,0.56-0.22,1.1-0.41,1.62s-0.42,1.01-0.7,1.46c-0.28,0.45-0.62,0.84-1.02,1.18
		s-0.85,0.6-1.35,0.8c-0.51,0.19-1.08,0.29-1.71,0.29s-1.2-0.1-1.71-0.29s-0.96-0.46-1.35-0.8c-0.39-0.34-0.74-0.73-1.02-1.19
		c-0.29-0.45-0.52-0.94-0.71-1.46c-0.19-0.52-0.33-1.06-0.42-1.61c-0.09-0.56-0.14-1.11-0.15-1.66v-1.75
		c0.01-0.55,0.05-1.1,0.14-1.66s0.23-1.1,0.42-1.62c0.18-0.52,0.42-1.01,0.7-1.46s0.62-0.85,1.02-1.2c0.39-0.34,0.85-0.6,1.36-0.8
		c0.51-0.19,1.08-0.29,1.71-0.29s1.21,0.1,1.72,0.29c0.51,0.19,0.97,0.46,1.36,0.8s0.73,0.73,1.02,1.19
		c0.29,0.45,0.52,0.94,0.71,1.46c0.18,0.52,0.32,1.06,0.41,1.62s0.13,1.12,0.14,1.67v1.75C584.93,125.28,584.89,125.83,584.8,126.39
		z M582.94,121.82c-0.04-0.4-0.11-0.79-0.21-1.19c-0.11-0.39-0.24-0.76-0.41-1.11s-0.38-0.67-0.63-0.94
		c-0.25-0.27-0.55-0.48-0.9-0.64s-0.75-0.24-1.2-0.24c-0.45,0-0.85,0.08-1.19,0.24c-0.34,0.16-0.64,0.38-0.9,0.64
		c-0.25,0.27-0.46,0.59-0.63,0.94c-0.17,0.35-0.3,0.73-0.4,1.11c-0.11,0.39-0.18,0.79-0.23,1.19s-0.07,0.77-0.08,1.13v1.77
		c0.01,0.36,0.03,0.74,0.08,1.14s0.12,0.79,0.23,1.18c0.11,0.39,0.24,0.77,0.41,1.13c0.17,0.36,0.38,0.67,0.63,0.94
		c0.25,0.27,0.55,0.49,0.9,0.65c0.34,0.16,0.75,0.24,1.2,0.24s0.86-0.08,1.21-0.24c0.35-0.16,0.65-0.38,0.9-0.65
		c0.25-0.27,0.45-0.58,0.62-0.93c0.17-0.36,0.3-0.73,0.41-1.12c0.1-0.39,0.17-0.78,0.21-1.18c0.04-0.4,0.06-0.78,0.07-1.15v-1.77
		C583,122.59,582.98,122.21,582.94,121.82z"/>
	<path class="st2" d="M597.57,126.57c0,0.72-0.13,1.39-0.38,2.01c-0.25,0.63-0.6,1.17-1.04,1.63c-0.44,0.47-0.97,0.84-1.58,1.11
		c-0.61,0.27-1.28,0.41-2.01,0.41c-0.75,0-1.42-0.13-2.04-0.4s-1.14-0.64-1.57-1.11c-0.44-0.46-0.78-1.01-1.02-1.64
		s-0.37-1.3-0.38-2.02l0.02-10.4h1.86l0.04,10.4c0.01,0.46,0.08,0.9,0.22,1.32c0.14,0.42,0.33,0.79,0.6,1.12
		c0.25,0.32,0.57,0.58,0.95,0.78c0.38,0.2,0.82,0.3,1.32,0.3s0.94-0.1,1.32-0.29s0.7-0.46,0.96-0.79c0.25-0.32,0.45-0.7,0.58-1.12
		c0.13-0.42,0.21-0.86,0.22-1.32l0.03-10.4h1.89L597.57,126.57z"/>
	<path class="st2" d="M608.51,131.52l-5.96-11.47l-0.03,11.47h-1.97v-15.35h1.98l5.96,11.45l0.03-11.45h1.97v15.35H608.51z"/>
	<path class="st2" d="M619.44,117.83v13.69h-1.9v-13.69h-4.75v-1.67h11.39v1.67H619.44z"/>
	<path class="st2" d="M641.96,127.55l-1.23,3.98h-1.95l4.96-15.35h1.63l4.87,15.35h-1.94l-1.21-3.98H641.96z M646.56,125.85
		l-2.02-6.66l-2.06,6.66H646.56z"/>
	<path class="st2" d="M662.42,129.87v1.66h-9.46v-15.35h1.95v13.7H662.42z"/>
	<path class="st2" d="M675.38,129.87v1.66h-9.46v-15.35h1.95v13.7H675.38z"/>
	<path class="st2" d="M697.2,117.83v13.69h-1.9v-13.69h-4.75v-1.67h11.39v1.67H697.2z"/>
	<path class="st2" d="M712.33,131.52v-7.1h-6.3v7.1h-1.83v-15.35h1.83v6.6h6.3v-6.6h1.85v15.35H712.33z"/>
	<path class="st2" d="M719.55,124.43v5.44h7.48v1.66h-9.43v-15.35h9.33v1.67h-7.38v4.94h6.41v1.66H719.55z"/>
	<path class="st2" d="M745.58,124.74v6.78h-1.97v-15.35h9.43v1.67h-7.46v5.25h6.39v1.66H745.58z"/>
	<path class="st2" d="M758.6,127.55l-1.23,3.98h-1.95l4.96-15.35H762l4.87,15.35h-1.94l-1.21-3.98H758.6z M763.2,125.85l-2.02-6.66
		l-2.06,6.66H763.2z"/>
	<path class="st2" d="M778.75,128.86c-0.27,0.59-0.63,1.1-1.07,1.52c-0.44,0.43-0.96,0.76-1.57,1c-0.6,0.24-1.27,0.35-2.01,0.35
		c-0.63,0-1.21-0.09-1.72-0.27c-0.52-0.18-0.97-0.43-1.38-0.74c-0.41-0.32-0.76-0.69-1.05-1.12c-0.29-0.43-0.53-0.9-0.72-1.4
		c-0.2-0.51-0.34-1.04-0.44-1.59c-0.09-0.55-0.15-1.12-0.15-1.69v-2.14c0.01-0.57,0.06-1.13,0.15-1.69s0.24-1.09,0.44-1.59
		c0.19-0.51,0.43-0.98,0.72-1.41c0.29-0.43,0.64-0.81,1.05-1.12c0.4-0.32,0.86-0.56,1.37-0.74c0.51-0.18,1.09-0.27,1.73-0.27
		c0.77,0,1.45,0.12,2.06,0.35s1.12,0.57,1.56,1c0.44,0.44,0.79,0.96,1.05,1.56c0.26,0.6,0.44,1.27,0.52,2h-1.95
		c-0.06-0.46-0.17-0.9-0.33-1.3s-0.36-0.75-0.62-1.05c-0.26-0.3-0.58-0.54-0.95-0.71c-0.38-0.17-0.82-0.26-1.33-0.26
		c-0.46,0-0.87,0.08-1.23,0.23c-0.36,0.15-0.66,0.36-0.91,0.62c-0.26,0.26-0.48,0.56-0.65,0.91c-0.17,0.34-0.31,0.71-0.42,1.1
		c-0.11,0.39-0.18,0.78-0.23,1.19s-0.07,0.8-0.07,1.18v2.16c0,0.38,0.02,0.77,0.07,1.18c0.05,0.4,0.12,0.8,0.23,1.19
		c0.11,0.39,0.24,0.76,0.41,1.11c0.17,0.34,0.38,0.65,0.64,0.91c0.26,0.27,0.57,0.48,0.92,0.63c0.35,0.15,0.76,0.23,1.23,0.23
		c0.51,0,0.96-0.08,1.33-0.24c0.38-0.16,0.69-0.39,0.95-0.69c0.26-0.29,0.47-0.63,0.62-1.03s0.26-0.83,0.33-1.29h1.95
		C779.2,127.61,779.02,128.27,778.75,128.86z"/>
	<path class="st2" d="M787.92,117.83v13.69h-1.9v-13.69h-4.75v-1.67h11.39v1.67H787.92z"/>
	<path class="st2" d="M802.99,126.45c-0.21-0.32-0.49-0.6-0.83-0.82c-0.34-0.22-0.71-0.4-1.11-0.55c-0.4-0.15-0.79-0.28-1.17-0.4
		c-0.54-0.18-1.09-0.39-1.65-0.64c-0.56-0.25-1.07-0.55-1.52-0.9c-0.46-0.36-0.84-0.78-1.13-1.27c-0.29-0.49-0.44-1.06-0.44-1.72
		c0-0.66,0.15-1.25,0.44-1.77c0.29-0.52,0.67-0.96,1.14-1.32s1.01-0.63,1.6-0.82c0.6-0.19,1.2-0.28,1.8-0.28
		c0.67,0,1.31,0.11,1.93,0.33c0.62,0.22,1.17,0.53,1.65,0.93c0.48,0.4,0.86,0.89,1.15,1.46c0.29,0.57,0.44,1.21,0.45,1.91h-2
		c-0.06-0.44-0.17-0.85-0.33-1.21c-0.16-0.36-0.38-0.67-0.64-0.93c-0.27-0.26-0.58-0.46-0.95-0.61c-0.37-0.14-0.79-0.22-1.25-0.22
		c-0.37,0-0.74,0.05-1.09,0.16c-0.35,0.11-0.67,0.26-0.94,0.47c-0.28,0.21-0.5,0.47-0.67,0.78c-0.17,0.31-0.25,0.67-0.25,1.08
		c0.01,0.44,0.12,0.82,0.34,1.12c0.22,0.31,0.5,0.56,0.83,0.77c0.33,0.21,0.69,0.39,1.08,0.53c0.39,0.14,0.76,0.26,1.1,0.37
		c0.57,0.18,1.14,0.39,1.71,0.64s1.09,0.57,1.56,0.95c0.46,0.36,0.84,0.8,1.12,1.32c0.28,0.52,0.43,1.12,0.43,1.8
		c0,0.69-0.15,1.29-0.46,1.8c-0.31,0.51-0.7,0.94-1.19,1.28c-0.49,0.34-1.03,0.6-1.65,0.78c-0.61,0.17-1.22,0.26-1.83,0.26
		c-0.73,0-1.45-0.12-2.16-0.37c-0.71-0.25-1.32-0.6-1.84-1.06c-0.46-0.4-0.83-0.87-1.1-1.41c-0.27-0.54-0.42-1.14-0.44-1.8h1.99
		c0.06,0.48,0.19,0.9,0.39,1.27c0.2,0.37,0.45,0.68,0.76,0.93c0.31,0.26,0.67,0.46,1.07,0.58c0.4,0.13,0.85,0.2,1.32,0.2
		c0.38,0,0.75-0.05,1.12-0.14s0.7-0.24,0.99-0.45c0.29-0.2,0.52-0.45,0.71-0.75s0.27-0.67,0.27-1.09
		C803.31,127.17,803.2,126.77,802.99,126.45z"/>
	<path class="st2" d="M94.66,183.35v-2l4.97-5.34c0.39-0.42,0.71-0.81,0.98-1.15s0.48-0.66,0.65-0.95c0.16-0.28,0.28-0.54,0.35-0.79
		c0.07-0.25,0.11-0.49,0.11-0.72c0-0.34-0.05-0.65-0.15-0.92c-0.1-0.27-0.24-0.5-0.41-0.69c-0.18-0.18-0.4-0.32-0.65-0.42
		c-0.25-0.1-0.53-0.15-0.83-0.15c-0.39,0-0.74,0.05-1.04,0.16s-0.55,0.27-0.74,0.48c-0.2,0.22-0.36,0.49-0.46,0.81
		c-0.11,0.32-0.16,0.69-0.16,1.11h-2.94c0-0.68,0.13-1.33,0.39-1.93c0.26-0.61,0.63-1.14,1.11-1.6c0.47-0.46,1.04-0.82,1.71-1.08
		s1.41-0.4,2.23-0.4c0.78,0,1.47,0.11,2.07,0.33s1.11,0.52,1.51,0.92c0.4,0.39,0.71,0.87,0.92,1.42c0.21,0.55,0.32,1.16,0.32,1.83
		c0,0.51-0.08,0.99-0.24,1.45c-0.16,0.46-0.38,0.92-0.67,1.37c-0.3,0.45-0.65,0.91-1.05,1.38c-0.41,0.47-0.86,0.96-1.36,1.47
		L98.39,181h6.74v2.35H94.66z"/>
	<path class="st2" d="M111.55,180.28c0.36-0.38,0.86-0.56,1.5-0.56c0.63,0,1.13,0.19,1.49,0.56c0.36,0.37,0.54,0.83,0.54,1.38
		s-0.18,1-0.55,1.37c-0.37,0.36-0.86,0.54-1.48,0.54c-0.63,0-1.12-0.18-1.49-0.55c-0.37-0.37-0.55-0.82-0.55-1.36
		S111.19,180.66,111.55,180.28z"/>
	<path class="st2" d="M137.02,183.35h-2.96V168h5.25c0.84,0,1.59,0.12,2.27,0.36s1.25,0.58,1.73,1.01c0.47,0.44,0.83,0.96,1.09,1.56
		c0.26,0.6,0.38,1.28,0.38,2.01c0,0.69-0.13,1.33-0.38,1.91c-0.26,0.58-0.62,1.09-1.09,1.51c-0.48,0.43-1.05,0.76-1.73,1
		c-0.67,0.24-1.43,0.36-2.27,0.36h-2.29V183.35z M139.31,175.32c0.42,0,0.79-0.06,1.1-0.19c0.31-0.13,0.57-0.3,0.78-0.52
		c0.2-0.22,0.36-0.47,0.46-0.75c0.1-0.28,0.15-0.58,0.15-0.89c0-0.36-0.05-0.69-0.15-1s-0.25-0.58-0.46-0.81
		c-0.21-0.23-0.47-0.41-0.78-0.55c-0.31-0.13-0.67-0.2-1.1-0.2h-2.29v4.91H139.31z"/>
	<path class="st2" d="M154.65,178.58c-0.09-0.24-0.25-0.46-0.48-0.68c-0.23-0.2-0.53-0.39-0.9-0.56c-0.37-0.17-0.83-0.33-1.38-0.48
		c-0.85-0.23-1.6-0.51-2.24-0.84c-0.64-0.33-1.17-0.69-1.58-1.09c-0.41-0.39-0.72-0.83-0.92-1.31c-0.21-0.48-0.31-1-0.31-1.56
		c0-0.65,0.14-1.23,0.41-1.76c0.27-0.53,0.65-0.98,1.14-1.35c0.48-0.37,1.06-0.66,1.72-0.86c0.66-0.2,1.38-0.3,2.15-0.3
		c0.8,0,1.53,0.12,2.2,0.35c0.66,0.23,1.24,0.56,1.71,0.97c0.48,0.42,0.85,0.92,1.12,1.5c0.27,0.58,0.4,1.21,0.4,1.9h-2.89
		c-0.01-0.34-0.08-0.66-0.18-0.95c-0.11-0.29-0.27-0.54-0.48-0.75c-0.22-0.2-0.49-0.36-0.81-0.48c-0.32-0.12-0.69-0.17-1.12-0.17
		c-0.39,0-0.74,0.05-1.05,0.14s-0.56,0.23-0.77,0.4c-0.21,0.18-0.37,0.38-0.48,0.62c-0.11,0.24-0.16,0.49-0.16,0.76
		c0,0.29,0.07,0.55,0.22,0.78c0.14,0.23,0.35,0.44,0.63,0.62c0.27,0.19,0.61,0.36,1,0.52c0.39,0.16,0.83,0.3,1.32,0.43
		c0.53,0.15,1.03,0.33,1.51,0.54s0.92,0.45,1.32,0.73c0.6,0.45,1.09,0.97,1.44,1.57c0.36,0.6,0.54,1.29,0.54,2.07
		c0,0.67-0.14,1.27-0.41,1.8c-0.27,0.52-0.65,0.96-1.12,1.32c-0.48,0.37-1.05,0.64-1.71,0.83s-1.38,0.28-2.16,0.28
		c-0.77,0-1.52-0.11-2.27-0.34c-0.75-0.23-1.4-0.56-1.96-1.01c-0.53-0.44-0.94-0.95-1.25-1.54c-0.31-0.59-0.46-1.28-0.46-2.08h2.91
		c0.01,0.46,0.09,0.86,0.24,1.19c0.15,0.33,0.35,0.6,0.62,0.81c0.26,0.21,0.57,0.37,0.94,0.46c0.37,0.1,0.78,0.15,1.22,0.15
		c0.39,0,0.74-0.05,1.05-0.14c0.31-0.09,0.56-0.22,0.77-0.38c0.21-0.16,0.37-0.36,0.48-0.58s0.17-0.48,0.17-0.75
		C154.8,179.07,154.75,178.82,154.65,178.58z"/>
	<path class="st2" d="M168.05,168h3.26l-4.83,10.04l-0.01,5.31h-2.95l-0.01-5.44l-4.76-9.91H162l3.03,7.08L168.05,168z"/>
	<path class="st2" d="M182.91,180.63c-0.28,0.62-0.67,1.15-1.14,1.58c-0.48,0.44-1.05,0.77-1.71,1.01s-1.39,0.35-2.19,0.35
		c-0.63,0-1.22-0.08-1.76-0.25c-0.54-0.17-1.02-0.4-1.45-0.71c-0.39-0.29-0.74-0.64-1.05-1.04c-0.31-0.41-0.56-0.86-0.77-1.35
		c-0.2-0.49-0.36-1.03-0.47-1.62c-0.11-0.59-0.16-1.22-0.16-1.88v-2.07c0-0.62,0.05-1.21,0.15-1.77c0.1-0.56,0.25-1.08,0.44-1.56
		c0.23-0.58,0.52-1.1,0.89-1.56c0.37-0.46,0.78-0.84,1.24-1.16c0.41-0.27,0.87-0.47,1.37-0.62s1.03-0.22,1.6-0.22
		c0.84,0,1.59,0.12,2.25,0.36c0.66,0.24,1.22,0.58,1.68,1.02c0.46,0.44,0.83,0.98,1.1,1.62s0.44,1.36,0.51,2.16h-2.95
		c-0.03-0.46-0.1-0.86-0.21-1.2c-0.11-0.34-0.27-0.63-0.47-0.86c-0.21-0.23-0.47-0.4-0.79-0.51c-0.31-0.12-0.69-0.17-1.12-0.17
		c-0.23,0-0.45,0.02-0.65,0.07c-0.2,0.05-0.38,0.12-0.55,0.22c-0.29,0.17-0.53,0.41-0.73,0.72c-0.2,0.31-0.36,0.68-0.48,1.09
		c-0.09,0.32-0.16,0.68-0.2,1.07c-0.04,0.39-0.06,0.81-0.06,1.26v2.09c0,0.61,0.03,1.16,0.1,1.64s0.17,0.9,0.31,1.26
		c0.1,0.25,0.22,0.46,0.35,0.65c0.14,0.19,0.29,0.35,0.47,0.47c0.19,0.14,0.4,0.24,0.64,0.31c0.24,0.07,0.5,0.1,0.79,0.1
		c0.39,0,0.73-0.05,1.04-0.15c0.31-0.1,0.57-0.25,0.79-0.46s0.39-0.48,0.52-0.81c0.13-0.33,0.2-0.73,0.23-1.19h2.96
		C183.36,179.32,183.19,180.01,182.91,180.63z"/>
	<path class="st2" d="M192.91,183.35v-6.65h-4.34v6.65h-2.94V168h2.94v6.3h4.34V168h2.93v15.35H192.91z"/>
	<path class="st2" d="M209.2,178.69c-0.12,0.59-0.29,1.14-0.52,1.65c-0.24,0.51-0.53,0.97-0.89,1.39s-0.75,0.77-1.2,1.05
		c-0.41,0.25-0.86,0.44-1.34,0.57c-0.49,0.14-1.01,0.21-1.58,0.21c-0.6,0-1.15-0.08-1.66-0.23c-0.51-0.15-0.97-0.37-1.38-0.65
		c-0.41-0.3-0.77-0.65-1.1-1.07c-0.32-0.42-0.59-0.89-0.81-1.42c-0.2-0.48-0.35-1.01-0.45-1.58c-0.1-0.57-0.15-1.17-0.15-1.8v-2.24
		c0-0.67,0.06-1.31,0.17-1.92s0.29-1.16,0.51-1.68c0.22-0.49,0.48-0.92,0.8-1.32c0.31-0.39,0.67-0.73,1.08-1.01
		c0.4-0.27,0.85-0.48,1.35-0.63c0.5-0.15,1.04-0.22,1.62-0.22c0.59,0,1.14,0.08,1.66,0.23c0.52,0.15,0.98,0.37,1.4,0.65
		c0.41,0.27,0.78,0.59,1.09,0.97c0.31,0.38,0.58,0.8,0.81,1.25c0.25,0.52,0.43,1.09,0.56,1.71c0.13,0.62,0.2,1.28,0.2,1.97v2.24
		C209.38,177.47,209.32,178.09,209.2,178.69z M206.31,173.43c-0.04-0.35-0.1-0.68-0.18-0.99c-0.11-0.38-0.25-0.72-0.42-1.02
		s-0.38-0.54-0.62-0.73c-0.19-0.14-0.4-0.25-0.64-0.33c-0.24-0.08-0.5-0.12-0.79-0.12c-0.27,0-0.52,0.04-0.74,0.11
		c-0.22,0.07-0.42,0.17-0.6,0.31c-0.24,0.2-0.44,0.44-0.61,0.74c-0.17,0.29-0.29,0.64-0.38,1.03c-0.07,0.3-0.12,0.63-0.15,0.99
		s-0.05,0.73-0.05,1.13v2.26c0,0.37,0.01,0.73,0.04,1.08c0.03,0.34,0.08,0.66,0.15,0.96c0.08,0.37,0.19,0.71,0.34,1.02
		c0.15,0.31,0.33,0.55,0.53,0.74c0.19,0.17,0.41,0.3,0.65,0.39c0.24,0.09,0.52,0.14,0.83,0.14c0.3,0,0.57-0.04,0.81-0.13
		c0.25-0.08,0.46-0.21,0.65-0.37c0.24-0.2,0.44-0.44,0.61-0.74s0.3-0.64,0.4-1.02c0.08-0.3,0.14-0.62,0.17-0.97
		c0.04-0.35,0.06-0.72,0.06-1.1v-2.26C206.37,174.15,206.35,173.78,206.31,173.43z"/>
	<path class="st2" d="M221.99,180.96v2.39h-10.17V168h2.97v12.96H221.99z"/>
	<path class="st2" d="M235.12,178.69c-0.12,0.59-0.29,1.14-0.52,1.65c-0.24,0.51-0.53,0.97-0.89,1.39s-0.75,0.77-1.2,1.05
		c-0.41,0.25-0.86,0.44-1.34,0.57c-0.49,0.14-1.01,0.21-1.58,0.21c-0.6,0-1.15-0.08-1.66-0.23c-0.51-0.15-0.97-0.37-1.38-0.65
		c-0.41-0.3-0.77-0.65-1.1-1.07c-0.32-0.42-0.59-0.89-0.81-1.42c-0.2-0.48-0.35-1.01-0.45-1.58c-0.1-0.57-0.15-1.17-0.15-1.8v-2.24
		c0-0.67,0.06-1.31,0.17-1.92s0.29-1.16,0.51-1.68c0.22-0.49,0.48-0.92,0.8-1.32c0.31-0.39,0.67-0.73,1.08-1.01
		c0.4-0.27,0.85-0.48,1.35-0.63c0.5-0.15,1.04-0.22,1.62-0.22c0.59,0,1.14,0.08,1.66,0.23c0.52,0.15,0.98,0.37,1.4,0.65
		c0.41,0.27,0.78,0.59,1.09,0.97c0.31,0.38,0.58,0.8,0.81,1.25c0.25,0.52,0.43,1.09,0.56,1.71c0.13,0.62,0.2,1.28,0.2,1.97v2.24
		C235.3,177.47,235.24,178.09,235.12,178.69z M232.23,173.43c-0.04-0.35-0.1-0.68-0.18-0.99c-0.11-0.38-0.25-0.72-0.42-1.02
		s-0.38-0.54-0.62-0.73c-0.19-0.14-0.4-0.25-0.64-0.33c-0.24-0.08-0.5-0.12-0.79-0.12c-0.27,0-0.52,0.04-0.74,0.11
		c-0.22,0.07-0.42,0.17-0.6,0.31c-0.24,0.2-0.44,0.44-0.61,0.74c-0.17,0.29-0.29,0.64-0.38,1.03c-0.07,0.3-0.12,0.63-0.15,0.99
		s-0.05,0.73-0.05,1.13v2.26c0,0.37,0.01,0.73,0.04,1.08c0.03,0.34,0.08,0.66,0.15,0.96c0.08,0.37,0.19,0.71,0.34,1.02
		c0.15,0.31,0.33,0.55,0.53,0.74c0.19,0.17,0.41,0.3,0.65,0.39c0.24,0.09,0.52,0.14,0.83,0.14c0.3,0,0.57-0.04,0.81-0.13
		c0.25-0.08,0.46-0.21,0.65-0.37c0.24-0.2,0.44-0.44,0.61-0.74s0.3-0.64,0.4-1.02c0.08-0.3,0.14-0.62,0.17-0.97
		c0.04-0.35,0.06-0.72,0.06-1.1v-2.26C232.29,174.15,232.27,173.78,232.23,173.43z"/>
	<path class="st2" d="M247.32,182.27c-0.33,0.24-0.72,0.45-1.17,0.64c-0.46,0.2-0.97,0.35-1.53,0.47s-1.17,0.18-1.81,0.18
		c-0.56,0-1.09-0.07-1.59-0.2s-0.95-0.32-1.37-0.56c-0.41-0.25-0.78-0.56-1.11-0.93c-0.33-0.37-0.62-0.78-0.85-1.25
		c-0.27-0.52-0.47-1.11-0.61-1.76s-0.21-1.36-0.21-2.13v-2.09c0-0.73,0.07-1.41,0.2-2.04c0.13-0.63,0.32-1.2,0.57-1.71
		c0.23-0.46,0.5-0.87,0.81-1.23c0.31-0.37,0.64-0.68,1.01-0.95c0.43-0.3,0.9-0.53,1.4-0.69c0.51-0.15,1.04-0.23,1.6-0.23
		c0.86,0,1.62,0.11,2.26,0.33c0.64,0.22,1.19,0.53,1.63,0.94c0.44,0.41,0.79,0.92,1.04,1.51c0.25,0.59,0.41,1.25,0.49,1.99h-2.89
		c-0.05-0.37-0.12-0.7-0.23-0.99c-0.1-0.29-0.24-0.53-0.42-0.73c-0.2-0.22-0.44-0.38-0.74-0.49s-0.66-0.16-1.07-0.16
		c-0.23,0-0.44,0.04-0.65,0.11s-0.41,0.17-0.59,0.31c-0.24,0.18-0.46,0.42-0.65,0.72c-0.19,0.3-0.35,0.64-0.48,1.04
		c-0.1,0.31-0.17,0.65-0.23,1.03c-0.05,0.38-0.08,0.79-0.08,1.23v2.11c0,0.56,0.04,1.06,0.11,1.52c0.07,0.46,0.18,0.86,0.31,1.21
		c0.08,0.2,0.18,0.39,0.29,0.56c0.11,0.17,0.23,0.33,0.36,0.46c0.23,0.23,0.49,0.4,0.79,0.51c0.3,0.12,0.64,0.18,1.02,0.18
		c0.23,0,0.46-0.02,0.69-0.05c0.23-0.03,0.44-0.08,0.63-0.15s0.37-0.14,0.52-0.22c0.15-0.08,0.27-0.17,0.34-0.26l0.01-2.78h-2.54
		v-2.21h5.49l0.01,6.05C247.91,181.79,247.65,182.03,247.32,182.27z"/>
	<path class="st2" d="M258.77,168h3.26l-4.83,10.04l-0.01,5.31h-2.95l-0.01-5.44l-4.76-9.91h3.25l3.03,7.08L258.77,168z"/>
	<path class="st2" d="M136.52,205.29l-1.23,3.98h-1.95l4.96-15.35h1.63l4.87,15.35h-1.94l-1.21-3.98H136.52z M141.13,203.6
		l-2.02-6.66l-2.06,6.66H141.13z"/>
	<path class="st2" d="M165.85,195.58v13.69h-1.9v-13.69h-4.75v-1.67h11.39v1.67H165.85z"/>
	<path class="st2" d="M181.22,193.92h2.21l-4.78,9.63l-0.03,5.73h-1.81l-0.03-5.73l-4.78-9.63h2.23l3.49,7.71L181.22,193.92z"/>
	<path class="st2" d="M188.29,209.27h-1.95v-15.35h4.98c0.69,0.01,1.34,0.12,1.96,0.33c0.62,0.2,1.15,0.5,1.62,0.89
		c0.46,0.39,0.83,0.87,1.1,1.43s0.41,1.22,0.41,1.96s-0.14,1.39-0.41,1.96c-0.27,0.57-0.64,1.04-1.1,1.43
		c-0.46,0.39-1,0.68-1.62,0.89c-0.62,0.2-1.27,0.31-1.96,0.32h-3.03V209.27z M191.31,201.51c0.45-0.01,0.86-0.08,1.24-0.22
		c0.38-0.14,0.71-0.33,0.99-0.58c0.28-0.25,0.5-0.56,0.66-0.92c0.16-0.36,0.24-0.77,0.24-1.24s-0.08-0.88-0.24-1.25
		c-0.16-0.37-0.37-0.69-0.65-0.95c-0.28-0.26-0.61-0.46-1-0.6c-0.38-0.14-0.8-0.21-1.25-0.22h-3.03v5.99H191.31z"/>
	<path class="st2" d="M201.15,202.17v5.44h7.48v1.66h-9.43v-15.35h9.33v1.67h-7.38v4.93h6.41v1.66H201.15z"/>
	<path class="st2" d="M234.88,204.14c-0.09,0.56-0.22,1.1-0.41,1.62c-0.18,0.52-0.42,1-0.7,1.46s-0.62,0.84-1.02,1.18
		c-0.39,0.34-0.85,0.6-1.35,0.8s-1.08,0.29-1.71,0.29c-0.63,0-1.2-0.1-1.71-0.29s-0.96-0.46-1.35-0.8
		c-0.39-0.34-0.73-0.73-1.02-1.19c-0.29-0.45-0.52-0.94-0.71-1.46c-0.19-0.52-0.33-1.06-0.42-1.61c-0.09-0.56-0.14-1.11-0.15-1.66
		v-1.75c0.01-0.55,0.05-1.1,0.14-1.66s0.23-1.1,0.42-1.62c0.18-0.52,0.42-1.01,0.7-1.46c0.28-0.45,0.62-0.85,1.02-1.2
		c0.39-0.34,0.85-0.6,1.35-0.8s1.08-0.29,1.71-0.29c0.63,0,1.21,0.1,1.72,0.29c0.51,0.19,0.97,0.46,1.36,0.8
		c0.39,0.34,0.73,0.73,1.02,1.19c0.28,0.45,0.52,0.94,0.71,1.46c0.18,0.52,0.32,1.06,0.41,1.62s0.14,1.12,0.14,1.67v1.75
		C235.02,203.03,234.97,203.58,234.88,204.14z M233.02,199.56c-0.04-0.4-0.11-0.79-0.21-1.19c-0.11-0.39-0.24-0.76-0.41-1.11
		c-0.17-0.36-0.38-0.67-0.63-0.94c-0.25-0.27-0.55-0.48-0.9-0.64c-0.34-0.16-0.75-0.24-1.2-0.24c-0.45,0-0.85,0.08-1.19,0.24
		c-0.34,0.16-0.64,0.38-0.9,0.64c-0.25,0.27-0.46,0.59-0.63,0.94c-0.17,0.35-0.3,0.73-0.4,1.11c-0.11,0.39-0.18,0.79-0.23,1.19
		c-0.05,0.4-0.07,0.77-0.08,1.13v1.77c0.01,0.36,0.03,0.74,0.08,1.14c0.05,0.4,0.12,0.79,0.23,1.18c0.11,0.39,0.24,0.77,0.41,1.13
		c0.17,0.36,0.38,0.67,0.63,0.94c0.25,0.27,0.55,0.49,0.9,0.65c0.34,0.16,0.75,0.24,1.2,0.24c0.46,0,0.86-0.08,1.21-0.24
		c0.35-0.16,0.65-0.38,0.9-0.65c0.25-0.27,0.45-0.58,0.62-0.93s0.3-0.73,0.41-1.12c0.1-0.39,0.17-0.78,0.21-1.18
		c0.04-0.4,0.06-0.78,0.07-1.15v-1.77C233.09,200.34,233.06,199.96,233.02,199.56z"/>
	<path class="st2" d="M240.15,202.49v6.78h-1.97v-15.35h9.43v1.67h-7.46v5.25h6.39v1.66H240.15z"/>
	<path class="st2" d="M266.05,209.27h-1.95v-15.35h4.98c0.69,0.01,1.34,0.12,1.96,0.33c0.62,0.2,1.15,0.5,1.62,0.89
		c0.46,0.39,0.83,0.87,1.1,1.43s0.41,1.22,0.41,1.96s-0.14,1.39-0.41,1.96c-0.27,0.57-0.64,1.04-1.1,1.43
		c-0.46,0.39-1,0.68-1.62,0.89c-0.62,0.2-1.27,0.31-1.96,0.32h-3.03V209.27z M269.07,201.51c0.45-0.01,0.86-0.08,1.24-0.22
		c0.38-0.14,0.71-0.33,0.99-0.58c0.28-0.25,0.5-0.56,0.66-0.92c0.16-0.36,0.24-0.77,0.24-1.24s-0.08-0.88-0.24-1.25
		c-0.16-0.37-0.37-0.69-0.65-0.95c-0.28-0.26-0.61-0.46-1-0.6c-0.38-0.14-0.8-0.21-1.25-0.22h-3.03v5.99H269.07z"/>
	<path class="st2" d="M279.08,205.29l-1.23,3.98h-1.95l4.96-15.35h1.63l4.87,15.35h-1.94l-1.21-3.98H279.08z M283.69,203.6
		l-2.02-6.66l-2.06,6.66H283.69z"/>
	<path class="st2" d="M291.85,203.01v6.26h-1.94v-15.35h4.5c0.72,0.01,1.39,0.12,2.02,0.3c0.63,0.19,1.19,0.47,1.67,0.85
		c0.47,0.38,0.84,0.86,1.11,1.43c0.27,0.57,0.41,1.25,0.41,2.02c0,0.5-0.07,0.96-0.22,1.37s-0.34,0.79-0.6,1.13
		c-0.25,0.34-0.56,0.64-0.91,0.9c-0.35,0.26-0.74,0.48-1.16,0.67l3.26,6.56l-0.01,0.13h-2.06l-3.02-6.26H291.85z M294.47,201.4
		c0.44-0.01,0.85-0.08,1.23-0.21c0.39-0.13,0.73-0.32,1.02-0.56c0.29-0.25,0.52-0.55,0.69-0.9c0.17-0.35,0.25-0.76,0.25-1.23
		c0-0.49-0.08-0.92-0.24-1.29s-0.39-0.68-0.67-0.93c-0.29-0.25-0.63-0.43-1.03-0.56c-0.4-0.13-0.83-0.19-1.3-0.2h-2.56v5.88H294.47z
		"/>
	<path class="st2" d="M305,205.29l-1.23,3.98h-1.95l4.96-15.35h1.63l4.87,15.35h-1.94l-1.21-3.98H305z M309.61,203.6l-2.02-6.66
		l-2.06,6.66H309.61z"/>
	<path class="st2" d="M317.89,209.27h-1.95v-15.35h4.98c0.69,0.01,1.34,0.12,1.96,0.33c0.62,0.2,1.15,0.5,1.62,0.89
		c0.46,0.39,0.83,0.87,1.1,1.43s0.41,1.22,0.41,1.96s-0.14,1.39-0.41,1.96c-0.27,0.57-0.64,1.04-1.1,1.43
		c-0.46,0.39-1,0.68-1.62,0.89c-0.62,0.2-1.27,0.31-1.96,0.32h-3.03V209.27z M320.91,201.51c0.45-0.01,0.86-0.08,1.24-0.22
		c0.38-0.14,0.71-0.33,0.99-0.58c0.28-0.25,0.5-0.56,0.66-0.92c0.16-0.36,0.24-0.77,0.24-1.24s-0.08-0.88-0.24-1.25
		c-0.16-0.37-0.37-0.69-0.65-0.95c-0.28-0.26-0.61-0.46-1-0.6c-0.38-0.14-0.8-0.21-1.25-0.22h-3.03v5.99H320.91z"/>
	<path class="st2" d="M336.5,209.27v-7.1h-6.3v7.1h-1.83v-15.35h1.83v6.6h6.3v-6.6h1.85v15.35H336.5z"/>
	<path class="st2" d="M350.96,193.92v1.7h-3.68v11.97h3.68v1.69h-9.28v-1.69h3.6v-11.97h-3.6v-1.7H350.96z"/>
	<path class="st2" d="M364.35,207.61v1.66h-9.46v-15.35h1.95v13.7H364.35z"/>
	<path class="st2" d="M376.88,193.92v1.7h-3.68v11.97h3.68v1.69h-9.28v-1.69h3.6v-11.97h-3.6v-1.7H376.88z"/>
	<path class="st2" d="M382.76,205.29l-1.23,3.98h-1.95l4.96-15.35h1.63l4.87,15.35h-1.94l-1.21-3.98H382.76z M387.37,203.6
		l-2.02-6.66l-2.06,6.66H387.37z"/>
	<path class="st2" d="M415.75,193.92v1.7h-3.68v11.97h3.68v1.69h-9.28v-1.69h3.6v-11.97h-3.6v-1.7H415.75z"/>
	<path class="st2" d="M427.07,209.27l-5.96-11.47l-0.03,11.47h-1.97v-15.35h1.98l5.96,11.45l0.03-11.45h1.97v15.35H427.07z"/>
	<path class="st2" d="M431.31,193.92h2.09l3.37,11.46l0.22,0.75l0.23-0.77l3.4-11.44h2.08l-4.84,15.35h-1.7L431.31,193.92z"/>
	<path class="st2" d="M455.2,204.14c-0.09,0.56-0.22,1.1-0.41,1.62c-0.18,0.52-0.42,1-0.7,1.46c-0.28,0.45-0.62,0.84-1.02,1.18
		c-0.39,0.34-0.85,0.6-1.35,0.8c-0.51,0.19-1.08,0.29-1.71,0.29c-0.63,0-1.2-0.1-1.71-0.29s-0.96-0.46-1.35-0.8
		c-0.39-0.34-0.73-0.73-1.02-1.19c-0.29-0.45-0.52-0.94-0.71-1.46c-0.19-0.52-0.33-1.06-0.42-1.61c-0.09-0.56-0.14-1.11-0.15-1.66
		v-1.75c0.01-0.55,0.05-1.1,0.14-1.66s0.23-1.1,0.42-1.62c0.18-0.52,0.42-1.01,0.7-1.46c0.28-0.45,0.62-0.85,1.02-1.2
		c0.39-0.34,0.85-0.6,1.35-0.8s1.08-0.29,1.71-0.29c0.63,0,1.21,0.1,1.72,0.29c0.51,0.19,0.97,0.46,1.36,0.8
		c0.39,0.34,0.73,0.73,1.02,1.19c0.29,0.45,0.52,0.94,0.71,1.46c0.18,0.52,0.32,1.06,0.41,1.62s0.13,1.12,0.14,1.67v1.75
		C455.33,203.03,455.29,203.58,455.2,204.14z M453.34,199.56c-0.04-0.4-0.11-0.79-0.21-1.19c-0.11-0.39-0.24-0.76-0.41-1.11
		s-0.38-0.67-0.63-0.94c-0.25-0.27-0.55-0.48-0.9-0.64s-0.75-0.24-1.2-0.24c-0.45,0-0.85,0.08-1.19,0.24
		c-0.34,0.16-0.64,0.38-0.9,0.64c-0.25,0.27-0.46,0.59-0.63,0.94c-0.17,0.35-0.3,0.73-0.4,1.11c-0.11,0.39-0.18,0.79-0.23,1.19
		c-0.05,0.4-0.07,0.77-0.08,1.13v1.77c0.01,0.36,0.03,0.74,0.08,1.14c0.05,0.4,0.12,0.79,0.23,1.18c0.11,0.39,0.24,0.77,0.41,1.13
		c0.17,0.36,0.38,0.67,0.63,0.94c0.25,0.27,0.55,0.49,0.9,0.65c0.34,0.16,0.75,0.24,1.2,0.24c0.46,0,0.86-0.08,1.21-0.24
		c0.35-0.16,0.65-0.38,0.9-0.65c0.25-0.27,0.45-0.58,0.62-0.93s0.3-0.73,0.41-1.12c0.1-0.39,0.17-0.78,0.21-1.18
		c0.04-0.4,0.06-0.78,0.07-1.15v-1.77C453.4,200.34,453.38,199.96,453.34,199.56z"/>
	<path class="st2" d="M468.03,207.61v1.66h-9.46v-15.35h1.95v13.7H468.03z"/>
	<path class="st2" d="M470.19,193.92h2.09l3.37,11.46l0.22,0.75l0.23-0.77l3.4-11.44h2.08l-4.84,15.35h-1.7L470.19,193.92z"/>
	<path class="st2" d="M493.51,193.92v1.7h-3.68v11.97h3.68v1.69h-9.28v-1.69h3.6v-11.97h-3.6v-1.7H493.51z"/>
	<path class="st2" d="M504.83,209.27l-5.96-11.47l-0.03,11.47h-1.97v-15.35h1.98l5.96,11.45l0.03-11.45h1.97v15.35H504.83z"/>
	<path class="st2" d="M519.33,208.02c-0.27,0.23-0.54,0.43-0.83,0.6c-0.49,0.29-1.02,0.52-1.59,0.66s-1.17,0.21-1.79,0.21
		c-0.63-0.01-1.21-0.1-1.75-0.29c-0.53-0.19-1.01-0.44-1.43-0.77c-0.42-0.32-0.79-0.71-1.11-1.15s-0.58-0.92-0.79-1.45
		c-0.22-0.51-0.38-1.05-0.49-1.62s-0.17-1.14-0.17-1.71v-1.78c0.01-0.57,0.06-1.14,0.15-1.7c0.1-0.57,0.24-1.11,0.44-1.63
		c0.2-0.52,0.44-1,0.74-1.45c0.3-0.45,0.65-0.83,1.07-1.17c0.41-0.32,0.87-0.58,1.39-0.77c0.52-0.19,1.1-0.28,1.75-0.28
		c0.72,0,1.38,0.11,1.98,0.33c0.6,0.22,1.13,0.54,1.58,0.94c0.45,0.42,0.81,0.91,1.09,1.49s0.44,1.23,0.51,1.95h-1.93
		c-0.08-0.44-0.2-0.85-0.36-1.23c-0.16-0.38-0.37-0.7-0.63-0.96c-0.27-0.27-0.58-0.48-0.95-0.63c-0.37-0.15-0.79-0.23-1.28-0.23
		c-0.46,0-0.88,0.08-1.23,0.24s-0.67,0.37-0.94,0.64c-0.27,0.27-0.49,0.58-0.66,0.93c-0.18,0.35-0.32,0.73-0.43,1.12
		c-0.11,0.39-0.19,0.79-0.24,1.2c-0.05,0.41-0.07,0.8-0.07,1.18v1.8c0.01,0.39,0.04,0.79,0.1,1.2s0.15,0.81,0.28,1.21
		c0.13,0.39,0.29,0.77,0.49,1.12c0.2,0.35,0.44,0.66,0.72,0.93c0.27,0.27,0.59,0.48,0.96,0.64c0.37,0.16,0.78,0.24,1.24,0.25
		c0.27,0.01,0.55,0,0.84-0.03c0.29-0.03,0.58-0.08,0.85-0.17c0.27-0.08,0.53-0.2,0.77-0.34c0.24-0.14,0.44-0.33,0.6-0.56l0.02-3.45
		h-3.12v-1.64h4.98l0.03,5.63C519.85,207.54,519.6,207.79,519.33,208.02z"/>
	<path class="st2" d="M543.79,204.2c-0.21-0.32-0.49-0.6-0.83-0.82c-0.34-0.22-0.71-0.4-1.11-0.55s-0.79-0.28-1.17-0.4
		c-0.54-0.18-1.09-0.39-1.65-0.64c-0.56-0.25-1.07-0.55-1.52-0.9c-0.46-0.36-0.84-0.78-1.13-1.27c-0.29-0.49-0.44-1.06-0.44-1.72
		c0-0.66,0.15-1.25,0.44-1.77c0.29-0.52,0.67-0.96,1.14-1.32c0.47-0.36,1.01-0.63,1.6-0.82c0.6-0.19,1.2-0.28,1.8-0.28
		c0.67,0,1.31,0.11,1.93,0.33c0.62,0.22,1.17,0.53,1.65,0.93c0.48,0.4,0.86,0.89,1.15,1.46c0.29,0.57,0.44,1.21,0.45,1.91h-2
		c-0.06-0.44-0.17-0.85-0.33-1.21c-0.16-0.36-0.38-0.67-0.64-0.93c-0.27-0.26-0.58-0.46-0.95-0.61s-0.79-0.22-1.25-0.22
		c-0.37,0-0.74,0.05-1.09,0.16c-0.35,0.11-0.67,0.26-0.94,0.47c-0.28,0.21-0.5,0.47-0.67,0.78c-0.17,0.31-0.25,0.67-0.25,1.08
		c0.01,0.44,0.12,0.82,0.34,1.12s0.5,0.56,0.83,0.78c0.33,0.21,0.69,0.39,1.08,0.53c0.39,0.14,0.76,0.26,1.1,0.37
		c0.57,0.18,1.14,0.39,1.71,0.64c0.57,0.25,1.09,0.57,1.56,0.95c0.46,0.36,0.84,0.8,1.12,1.32c0.28,0.52,0.43,1.12,0.43,1.8
		c0,0.69-0.15,1.29-0.46,1.8c-0.31,0.51-0.7,0.94-1.19,1.28c-0.49,0.34-1.03,0.6-1.65,0.78c-0.61,0.17-1.22,0.26-1.83,0.26
		c-0.73,0-1.45-0.12-2.16-0.37s-1.32-0.6-1.84-1.07c-0.46-0.4-0.83-0.87-1.1-1.41c-0.27-0.54-0.42-1.14-0.44-1.8h1.99
		c0.06,0.48,0.19,0.9,0.39,1.27c0.2,0.37,0.45,0.68,0.76,0.93c0.31,0.26,0.67,0.46,1.07,0.58c0.4,0.13,0.85,0.2,1.32,0.2
		c0.38,0,0.75-0.05,1.12-0.14c0.37-0.09,0.7-0.24,0.99-0.45c0.29-0.2,0.52-0.45,0.71-0.75c0.18-0.31,0.27-0.67,0.27-1.09
		C544.11,204.92,544,204.52,543.79,204.2z"/>
	<path class="st2" d="M551.07,202.17v5.44h7.48v1.66h-9.43v-15.35h9.33v1.67h-7.38v4.93h6.41v1.66H551.07z"/>
	<path class="st2" d="M570.06,193.92h2.3l-4.46,7.61l4.57,7.74h-2.28l-3.4-6.14l-3.41,6.14h-2.31l4.58-7.74l-4.46-7.61h2.29
		l3.27,6.02L570.06,193.92z"/>
	<path class="st2" d="M584.61,204.31c0,0.72-0.13,1.39-0.38,2.01s-0.6,1.17-1.04,1.63c-0.44,0.47-0.97,0.84-1.58,1.11
		c-0.61,0.27-1.28,0.41-2.01,0.41c-0.75,0-1.42-0.13-2.04-0.4c-0.61-0.27-1.14-0.64-1.57-1.11c-0.44-0.46-0.78-1.01-1.02-1.64
		s-0.37-1.3-0.38-2.02l0.02-10.4h1.86l0.04,10.4c0.01,0.46,0.08,0.9,0.22,1.32c0.14,0.42,0.33,0.79,0.6,1.12
		c0.25,0.32,0.57,0.58,0.95,0.78c0.38,0.2,0.82,0.29,1.32,0.29s0.94-0.1,1.32-0.29s0.7-0.46,0.96-0.79c0.25-0.32,0.45-0.7,0.58-1.12
		c0.13-0.42,0.21-0.86,0.22-1.32l0.03-10.4h1.89L584.61,204.31z"/>
	<path class="st2" d="M590.12,205.29l-1.23,3.98h-1.95l4.96-15.35h1.63l4.87,15.35h-1.94l-1.21-3.98H590.12z M594.73,203.6
		l-2.02-6.66l-2.06,6.66H594.73z"/>
	<path class="st2" d="M610.59,207.61v1.66h-9.46v-15.35h1.95v13.7H610.59z"/>
	<path class="st2" d="M636.07,193.92v1.7h-3.68v11.97h3.68v1.69h-9.28v-1.69h3.6v-11.97h-3.6v-1.7H636.07z"/>
	<path class="st2" d="M647.39,209.27l-5.96-11.47l-0.03,11.47h-1.97v-15.35h1.98l5.96,11.45l0.03-11.45h1.97v15.35H647.39z"/>
	<path class="st2" d="M658.32,195.58v13.69h-1.9v-13.69h-4.75v-1.67h11.39v1.67H658.32z"/>
	<path class="st2" d="M667.71,202.17v5.44h7.48v1.66h-9.43v-15.35h9.33v1.67h-7.38v4.93h6.41v1.66H667.71z"/>
	<path class="st2" d="M680.65,203.01v6.26h-1.94v-15.35h4.5c0.72,0.01,1.39,0.12,2.02,0.3c0.63,0.19,1.19,0.47,1.67,0.85
		c0.47,0.38,0.84,0.86,1.11,1.43c0.27,0.57,0.41,1.25,0.41,2.02c0,0.5-0.07,0.96-0.22,1.37c-0.14,0.42-0.34,0.79-0.6,1.13
		c-0.25,0.34-0.56,0.64-0.91,0.9c-0.35,0.26-0.74,0.48-1.16,0.67l3.26,6.56l-0.01,0.13h-2.06l-3.02-6.26H680.65z M683.26,201.4
		c0.44-0.01,0.85-0.08,1.23-0.21c0.39-0.13,0.73-0.32,1.02-0.56c0.29-0.25,0.52-0.55,0.69-0.9c0.17-0.35,0.25-0.76,0.25-1.23
		c0-0.49-0.08-0.92-0.24-1.29c-0.16-0.37-0.39-0.68-0.67-0.93c-0.29-0.25-0.63-0.43-1.03-0.56c-0.4-0.13-0.83-0.19-1.3-0.2h-2.56
		v5.88H683.26z"/>
	<path class="st2" d="M693.63,202.17v5.44h7.48v1.66h-9.43v-15.35h9.33v1.67h-7.38v4.93h6.41v1.66H693.63z"/>
	<path class="st2" d="M712.27,204.2c-0.21-0.32-0.49-0.6-0.83-0.82c-0.34-0.22-0.71-0.4-1.11-0.55s-0.79-0.28-1.17-0.4
		c-0.54-0.18-1.09-0.39-1.65-0.64c-0.56-0.25-1.07-0.55-1.52-0.9c-0.46-0.36-0.84-0.78-1.13-1.27c-0.29-0.49-0.44-1.06-0.44-1.72
		c0-0.66,0.15-1.25,0.44-1.77c0.29-0.52,0.67-0.96,1.14-1.32c0.47-0.36,1.01-0.63,1.6-0.82c0.6-0.19,1.2-0.28,1.8-0.28
		c0.67,0,1.31,0.11,1.93,0.33c0.62,0.22,1.17,0.53,1.65,0.93c0.48,0.4,0.86,0.89,1.15,1.46c0.29,0.57,0.44,1.21,0.45,1.91h-2
		c-0.06-0.44-0.17-0.85-0.33-1.21c-0.16-0.36-0.38-0.67-0.64-0.93c-0.27-0.26-0.58-0.46-0.95-0.61s-0.79-0.22-1.25-0.22
		c-0.37,0-0.74,0.05-1.09,0.16c-0.35,0.11-0.67,0.26-0.94,0.47c-0.28,0.21-0.5,0.47-0.67,0.78c-0.17,0.31-0.25,0.67-0.25,1.08
		c0.01,0.44,0.12,0.82,0.34,1.12s0.5,0.56,0.83,0.78c0.33,0.21,0.69,0.39,1.08,0.53c0.39,0.14,0.76,0.26,1.1,0.37
		c0.57,0.18,1.14,0.39,1.71,0.64c0.57,0.25,1.09,0.57,1.56,0.95c0.46,0.36,0.84,0.8,1.12,1.32c0.28,0.52,0.43,1.12,0.43,1.8
		c0,0.69-0.15,1.29-0.46,1.8c-0.31,0.51-0.7,0.94-1.19,1.28c-0.49,0.34-1.03,0.6-1.65,0.78c-0.61,0.17-1.22,0.26-1.83,0.26
		c-0.73,0-1.45-0.12-2.16-0.37s-1.32-0.6-1.84-1.07c-0.46-0.4-0.83-0.87-1.1-1.41c-0.27-0.54-0.42-1.14-0.44-1.8h1.99
		c0.06,0.48,0.19,0.9,0.39,1.27c0.2,0.37,0.45,0.68,0.76,0.93c0.31,0.26,0.67,0.46,1.07,0.58c0.4,0.13,0.85,0.2,1.32,0.2
		c0.38,0,0.75-0.05,1.12-0.14c0.37-0.09,0.7-0.24,0.99-0.45c0.29-0.2,0.52-0.45,0.71-0.75c0.18-0.31,0.27-0.67,0.27-1.09
		C712.59,204.92,712.48,204.52,712.27,204.2z"/>
	<path class="st2" d="M723.12,195.58v13.69h-1.9v-13.69h-4.75v-1.67h11.39v1.67H723.12z"/>
	<path class="st2" d="M752.71,193.92v1.7h-3.68v11.97h3.68v1.69h-9.28v-1.69h3.6v-11.97h-3.6v-1.7H752.71z"/>
	<path class="st2" d="M764.03,209.27l-5.96-11.47l-0.03,11.47h-1.97v-15.35h1.98l5.96,11.45l0.03-11.45h1.97v15.35H764.03z"/>
	<path class="st2" d="M773.8,210.97c-0.33,0.73-0.78,1.35-1.34,1.85l-1.21-0.66c0.34-0.49,0.58-1.02,0.72-1.57
		c0.14-0.55,0.21-1.13,0.21-1.73v-1.89h2.12v1.86C774.3,209.52,774.13,210.24,773.8,210.97z"/>
	<path class="st2" d="M144.16,230.05c-0.09,0.56-0.22,1.1-0.41,1.62c-0.18,0.52-0.42,1.01-0.7,1.46c-0.28,0.45-0.62,0.84-1.02,1.18
		c-0.39,0.34-0.85,0.6-1.35,0.8s-1.08,0.29-1.71,0.29c-0.63,0-1.2-0.1-1.71-0.29s-0.96-0.46-1.35-0.8
		c-0.39-0.34-0.73-0.73-1.02-1.19c-0.29-0.45-0.52-0.94-0.71-1.46c-0.19-0.52-0.33-1.06-0.42-1.61c-0.09-0.55-0.14-1.11-0.15-1.66
		v-1.75c0.01-0.55,0.05-1.1,0.14-1.66s0.23-1.1,0.42-1.62c0.18-0.52,0.42-1.01,0.7-1.46c0.28-0.45,0.62-0.85,1.02-1.2
		c0.39-0.34,0.85-0.6,1.35-0.8s1.08-0.29,1.71-0.29c0.63,0,1.21,0.1,1.72,0.29c0.51,0.19,0.97,0.46,1.36,0.8
		c0.39,0.34,0.73,0.73,1.02,1.19s0.52,0.94,0.71,1.46c0.18,0.52,0.32,1.06,0.41,1.62s0.14,1.12,0.14,1.67v1.75
		C144.3,228.94,144.25,229.5,144.16,230.05z M142.3,225.48c-0.04-0.4-0.11-0.79-0.21-1.19c-0.11-0.39-0.24-0.76-0.41-1.11
		c-0.17-0.35-0.38-0.67-0.63-0.94c-0.25-0.27-0.55-0.48-0.9-0.64c-0.34-0.16-0.75-0.24-1.2-0.24c-0.45,0-0.85,0.08-1.19,0.24
		c-0.34,0.16-0.64,0.38-0.9,0.64c-0.25,0.27-0.46,0.59-0.63,0.94c-0.17,0.36-0.3,0.73-0.4,1.11c-0.11,0.39-0.18,0.79-0.23,1.19
		c-0.05,0.4-0.07,0.78-0.08,1.13v1.77c0.01,0.36,0.03,0.74,0.08,1.14c0.05,0.4,0.12,0.79,0.23,1.18c0.11,0.39,0.24,0.77,0.41,1.13
		c0.17,0.36,0.38,0.67,0.63,0.94c0.25,0.27,0.55,0.49,0.9,0.65c0.34,0.16,0.75,0.24,1.2,0.24c0.46,0,0.86-0.08,1.21-0.24
		c0.35-0.16,0.65-0.38,0.9-0.65c0.25-0.27,0.45-0.58,0.62-0.93c0.17-0.36,0.3-0.73,0.41-1.12c0.1-0.39,0.17-0.78,0.21-1.18
		s0.06-0.78,0.07-1.15v-1.77C142.37,226.26,142.34,225.88,142.3,225.48z"/>
	<path class="st2" d="M149.29,228.92v6.26h-1.94v-15.35h4.5c0.72,0.01,1.39,0.12,2.02,0.31s1.19,0.47,1.67,0.85
		c0.47,0.38,0.84,0.86,1.11,1.43c0.27,0.57,0.41,1.25,0.41,2.02c0,0.5-0.07,0.96-0.22,1.37c-0.14,0.41-0.34,0.79-0.6,1.13
		c-0.25,0.34-0.56,0.64-0.91,0.9c-0.35,0.26-0.74,0.48-1.16,0.66l3.26,6.56l-0.01,0.13h-2.06l-3.02-6.26H149.29z M151.91,227.32
		c0.44-0.01,0.85-0.08,1.23-0.21s0.73-0.32,1.02-0.56c0.29-0.25,0.52-0.55,0.69-0.9c0.17-0.35,0.25-0.76,0.25-1.23
		c0-0.49-0.08-0.92-0.24-1.29c-0.16-0.37-0.39-0.68-0.67-0.93c-0.29-0.25-0.63-0.43-1.03-0.56c-0.4-0.13-0.83-0.19-1.3-0.2h-2.56
		v5.88H151.91z"/>
	<path class="st2" d="M175.35,228.4v6.78h-1.97v-15.35h9.43v1.67h-7.46v5.25h6.39v1.66H175.35z"/>
	<path class="st2" d="M195.44,219.83v1.7h-3.68v11.97h3.68v1.69h-9.28v-1.69h3.6v-11.97h-3.6v-1.7H195.44z"/>
	<path class="st2" d="M207.19,219.83h2.3l-4.46,7.61l4.57,7.74h-2.28l-3.4-6.14l-3.41,6.14h-2.31l4.58-7.74l-4.46-7.61h2.29
		l3.27,6.02L207.19,219.83z"/>
	<path class="st2" d="M214.28,231.21l-1.23,3.98h-1.95l4.96-15.35h1.63l4.87,15.35h-1.94l-1.21-3.98H214.28z M218.89,229.51
		l-2.02-6.67l-2.06,6.67H218.89z"/>
	<path class="st2" d="M230.65,221.5v13.69h-1.9V221.5H224v-1.67h11.39v1.67H230.65z"/>
	<path class="st2" d="M247.28,219.83v1.7h-3.68v11.97h3.68v1.69H238v-1.69h3.6v-11.97H238v-1.7H247.28z"/>
	<path class="st2" d="M260.8,230.05c-0.09,0.56-0.22,1.1-0.41,1.62c-0.18,0.52-0.42,1.01-0.7,1.46c-0.28,0.45-0.62,0.84-1.02,1.18
		c-0.39,0.34-0.85,0.6-1.35,0.8s-1.08,0.29-1.71,0.29c-0.63,0-1.2-0.1-1.71-0.29s-0.96-0.46-1.35-0.8
		c-0.39-0.34-0.73-0.73-1.02-1.19c-0.29-0.45-0.52-0.94-0.71-1.46c-0.19-0.52-0.33-1.06-0.42-1.61c-0.09-0.55-0.14-1.11-0.15-1.66
		v-1.75c0.01-0.55,0.05-1.1,0.14-1.66s0.23-1.1,0.42-1.62c0.18-0.52,0.42-1.01,0.7-1.46c0.28-0.45,0.62-0.85,1.02-1.2
		c0.39-0.34,0.85-0.6,1.35-0.8s1.08-0.29,1.71-0.29c0.63,0,1.21,0.1,1.72,0.29c0.51,0.19,0.97,0.46,1.36,0.8
		c0.39,0.34,0.73,0.73,1.02,1.19s0.52,0.94,0.71,1.46c0.18,0.52,0.32,1.06,0.41,1.62s0.14,1.12,0.14,1.67v1.75
		C260.94,228.94,260.89,229.5,260.8,230.05z M258.94,225.48c-0.04-0.4-0.11-0.79-0.21-1.19c-0.11-0.39-0.24-0.76-0.41-1.11
		c-0.17-0.35-0.38-0.67-0.63-0.94c-0.25-0.27-0.55-0.48-0.9-0.64c-0.34-0.16-0.75-0.24-1.2-0.24c-0.45,0-0.85,0.08-1.19,0.24
		c-0.34,0.16-0.64,0.38-0.9,0.64c-0.25,0.27-0.46,0.59-0.63,0.94c-0.17,0.36-0.3,0.73-0.4,1.11c-0.11,0.39-0.18,0.79-0.23,1.19
		c-0.05,0.4-0.07,0.78-0.08,1.13v1.77c0.01,0.36,0.03,0.74,0.08,1.14c0.05,0.4,0.12,0.79,0.23,1.18c0.11,0.39,0.24,0.77,0.41,1.13
		c0.17,0.36,0.38,0.67,0.63,0.94c0.25,0.27,0.55,0.49,0.9,0.65c0.34,0.16,0.75,0.24,1.2,0.24c0.46,0,0.86-0.08,1.21-0.24
		c0.35-0.16,0.65-0.38,0.9-0.65c0.25-0.27,0.45-0.58,0.62-0.93c0.17-0.36,0.3-0.73,0.41-1.12c0.1-0.39,0.17-0.78,0.21-1.18
		s0.06-0.78,0.07-1.15v-1.77C259.01,226.26,258.98,225.88,258.94,225.48z"/>
	<path class="st2" d="M271.55,235.18l-5.96-11.47l-0.03,11.47h-1.97v-15.35h1.98l5.96,11.45l0.03-11.45h1.97v15.35H271.55z"/>
	<path class="st2" d="M288.77,219.83h1.86l1.11,10.59l0.06,0.61l0.12-0.63l1.86-10.57h1.7l1.87,10.58l0.12,0.62l0.06-0.63
		l1.11-10.57h1.85l-1.87,15.35h-1.99l-1.87-10.92l-0.11-0.64l-0.12,0.65l-1.88,10.91h-2L288.77,219.83z"/>
	<path class="st2" d="M312.08,219.83v1.7h-3.68v11.97h3.68v1.69h-9.28v-1.69h3.6v-11.97h-3.6v-1.7H312.08z"/>
	<path class="st2" d="M321.37,221.5v13.69h-1.9V221.5h-4.75v-1.67h11.39v1.67H321.37z"/>
	<path class="st2" d="M336.5,235.18v-7.1h-6.3v7.1h-1.83v-15.35h1.83v6.6h6.3v-6.6h1.85v15.35H336.5z"/>
	<path class="st2" d="M346.13,236.88c-0.33,0.73-0.78,1.35-1.34,1.84l-1.21-0.66c0.34-0.49,0.58-1.02,0.72-1.57
		c0.14-0.56,0.21-1.13,0.21-1.73v-1.89h2.12v1.86C346.62,235.43,346.46,236.15,346.13,236.88z"/>
	<path class="st2" d="M369.8,231.21l-1.23,3.98h-1.95l4.96-15.35h1.63l4.87,15.35h-1.94l-1.21-3.98H369.8z M374.41,229.51
		l-2.02-6.67l-2.06,6.67H374.41z"/>
	<path class="st2" d="M402.91,232.52c-0.27,0.59-0.63,1.1-1.06,1.52c-0.44,0.43-0.96,0.76-1.57,1s-1.27,0.35-2.01,0.35
		c-0.63,0-1.21-0.09-1.72-0.27c-0.52-0.18-0.98-0.43-1.38-0.74c-0.41-0.32-0.76-0.69-1.05-1.12c-0.29-0.43-0.53-0.9-0.72-1.4
		c-0.2-0.51-0.34-1.04-0.44-1.59s-0.15-1.12-0.15-1.69v-2.14c0.01-0.57,0.06-1.13,0.15-1.69c0.09-0.56,0.24-1.09,0.44-1.59
		c0.19-0.51,0.43-0.98,0.72-1.41c0.29-0.43,0.64-0.81,1.05-1.12c0.4-0.32,0.86-0.56,1.37-0.74c0.51-0.18,1.09-0.27,1.73-0.27
		c0.77,0,1.45,0.12,2.06,0.35s1.12,0.57,1.56,1c0.44,0.44,0.79,0.96,1.05,1.56s0.44,1.27,0.52,2h-1.95c-0.06-0.46-0.17-0.9-0.33-1.3
		c-0.15-0.4-0.36-0.75-0.62-1.05s-0.58-0.54-0.95-0.71c-0.38-0.17-0.82-0.26-1.33-0.26c-0.46,0-0.87,0.08-1.23,0.23
		c-0.35,0.15-0.66,0.36-0.91,0.62c-0.26,0.26-0.48,0.56-0.65,0.91s-0.31,0.71-0.42,1.1s-0.18,0.78-0.23,1.19s-0.07,0.8-0.07,1.18
		v2.16c0,0.38,0.02,0.77,0.07,1.17c0.05,0.41,0.12,0.8,0.23,1.19c0.11,0.39,0.24,0.76,0.41,1.11c0.17,0.34,0.38,0.65,0.64,0.91
		c0.26,0.27,0.57,0.48,0.92,0.63s0.76,0.23,1.23,0.23c0.51,0,0.96-0.08,1.33-0.24c0.38-0.16,0.69-0.39,0.95-0.69
		c0.26-0.29,0.47-0.63,0.62-1.03c0.15-0.4,0.26-0.83,0.33-1.29h1.95C403.37,231.28,403.19,231.93,402.91,232.52z"/>
	<path class="st2" d="M408.51,228.09v5.44h7.48v1.66h-9.43v-15.35h9.33v1.67h-7.38v4.93h6.41v1.66H408.51z"/>
	<path class="st2" d="M421.45,228.92v6.26h-1.94v-15.35h4.5c0.72,0.01,1.39,0.12,2.02,0.31s1.19,0.47,1.67,0.85
		c0.47,0.38,0.84,0.86,1.11,1.43c0.27,0.57,0.41,1.25,0.41,2.02c0,0.5-0.07,0.96-0.22,1.37c-0.14,0.41-0.34,0.79-0.6,1.13
		c-0.25,0.34-0.56,0.64-0.91,0.9c-0.35,0.26-0.74,0.48-1.16,0.66l3.26,6.56l-0.01,0.13h-2.06l-3.02-6.26H421.45z M424.06,227.32
		c0.44-0.01,0.85-0.08,1.23-0.21s0.73-0.32,1.02-0.56c0.29-0.25,0.52-0.55,0.69-0.9c0.17-0.35,0.25-0.76,0.25-1.23
		c0-0.49-0.08-0.92-0.24-1.29c-0.16-0.37-0.39-0.68-0.67-0.93c-0.29-0.25-0.63-0.43-1.03-0.56c-0.4-0.13-0.83-0.19-1.3-0.2h-2.56
		v5.88H424.06z"/>
	<path class="st2" d="M438,221.5v13.69h-1.9V221.5h-4.75v-1.67h11.39v1.67H438z"/>
	<path class="st2" d="M447.56,231.21l-1.23,3.98h-1.95l4.96-15.35h1.63l4.87,15.35h-1.94l-1.21-3.98H447.56z M452.17,229.51
		l-2.02-6.67l-2.06,6.67H452.17z"/>
	<path class="st2" d="M467.59,219.83v1.7h-3.68v11.97h3.68v1.69h-9.28v-1.69h3.6v-11.97h-3.6v-1.7H467.59z"/>
	<path class="st2" d="M478.91,235.18l-5.96-11.47l-0.03,11.47h-1.97v-15.35h1.98l5.96,11.45l0.03-11.45h1.97v15.35H478.91z"/>
	<path class="st2" d="M499.33,235.18h-1.95v-15.35h4.98c0.69,0.01,1.34,0.12,1.96,0.33c0.62,0.2,1.16,0.5,1.62,0.89
		s0.83,0.86,1.1,1.43s0.41,1.22,0.41,1.96s-0.14,1.39-0.41,1.96s-0.64,1.04-1.1,1.43s-1,0.68-1.62,0.89s-1.27,0.31-1.96,0.32h-3.03
		V235.18z M502.35,227.42c0.45-0.01,0.87-0.08,1.24-0.22c0.38-0.14,0.71-0.33,0.99-0.58s0.5-0.56,0.66-0.92
		c0.16-0.36,0.24-0.78,0.24-1.24s-0.08-0.88-0.24-1.25c-0.16-0.37-0.37-0.69-0.65-0.95c-0.28-0.26-0.61-0.46-1-0.6
		c-0.38-0.14-0.8-0.21-1.25-0.22h-3.03v5.99H502.35z"/>
	<path class="st2" d="M512.36,231.21l-1.23,3.98h-1.95l4.96-15.35h1.63l4.87,15.35h-1.94l-1.21-3.98H512.36z M516.97,229.51
		l-2.02-6.67l-2.06,6.67H516.97z"/>
	<path class="st2" d="M525.13,228.92v6.26h-1.94v-15.35h4.5c0.72,0.01,1.39,0.12,2.02,0.31c0.63,0.19,1.19,0.47,1.67,0.85
		c0.47,0.38,0.84,0.86,1.11,1.43s0.41,1.25,0.41,2.02c0,0.5-0.07,0.96-0.22,1.37c-0.14,0.41-0.34,0.79-0.6,1.13
		c-0.25,0.34-0.56,0.64-0.91,0.9c-0.35,0.26-0.74,0.48-1.16,0.66l3.26,6.56l-0.01,0.13h-2.06l-3.02-6.26H525.13z M527.74,227.32
		c0.44-0.01,0.85-0.08,1.23-0.21c0.39-0.13,0.73-0.32,1.02-0.56c0.29-0.25,0.52-0.55,0.69-0.9c0.17-0.35,0.25-0.76,0.25-1.23
		c0-0.49-0.08-0.92-0.24-1.29c-0.16-0.37-0.39-0.68-0.67-0.93c-0.29-0.25-0.63-0.43-1.03-0.56c-0.4-0.13-0.83-0.19-1.3-0.2h-2.56
		v5.88H527.74z"/>
	<path class="st2" d="M541.68,221.5v13.69h-1.9V221.5h-4.75v-1.67h11.39v1.67H541.68z"/>
	<path class="st2" d="M571.84,230.05c-0.09,0.56-0.22,1.1-0.41,1.62s-0.42,1.01-0.7,1.46c-0.28,0.45-0.62,0.84-1.02,1.18
		c-0.39,0.34-0.85,0.6-1.35,0.8c-0.51,0.19-1.08,0.29-1.71,0.29s-1.2-0.1-1.71-0.29s-0.96-0.46-1.35-0.8
		c-0.39-0.34-0.74-0.73-1.02-1.19s-0.52-0.94-0.71-1.46c-0.19-0.52-0.33-1.06-0.42-1.61c-0.09-0.55-0.14-1.11-0.15-1.66v-1.75
		c0.01-0.55,0.05-1.1,0.14-1.66s0.23-1.1,0.42-1.62c0.18-0.52,0.42-1.01,0.7-1.46c0.29-0.45,0.62-0.85,1.02-1.2
		c0.39-0.34,0.85-0.6,1.36-0.8c0.51-0.19,1.08-0.29,1.71-0.29s1.21,0.1,1.72,0.29c0.51,0.19,0.97,0.46,1.36,0.8
		c0.39,0.34,0.73,0.73,1.02,1.19c0.29,0.45,0.52,0.94,0.71,1.46c0.18,0.52,0.32,1.06,0.41,1.62s0.13,1.12,0.14,1.67v1.75
		C571.97,228.94,571.93,229.5,571.84,230.05z M569.98,225.48c-0.04-0.4-0.11-0.79-0.21-1.19c-0.11-0.39-0.24-0.76-0.41-1.11
		c-0.17-0.35-0.38-0.67-0.63-0.94c-0.25-0.27-0.55-0.48-0.9-0.64s-0.75-0.24-1.2-0.24c-0.45,0-0.85,0.08-1.19,0.24
		c-0.34,0.16-0.64,0.38-0.9,0.64c-0.25,0.27-0.46,0.59-0.63,0.94c-0.17,0.36-0.3,0.73-0.4,1.11c-0.11,0.39-0.18,0.79-0.23,1.19
		c-0.05,0.4-0.07,0.78-0.08,1.13v1.77c0.01,0.36,0.03,0.74,0.08,1.14c0.05,0.4,0.12,0.79,0.23,1.18c0.11,0.39,0.24,0.77,0.41,1.13
		s0.38,0.67,0.63,0.94c0.25,0.27,0.55,0.49,0.9,0.65c0.34,0.16,0.75,0.24,1.2,0.24s0.86-0.08,1.21-0.24
		c0.35-0.16,0.65-0.38,0.9-0.65c0.25-0.27,0.45-0.58,0.62-0.93c0.17-0.36,0.3-0.73,0.41-1.12c0.1-0.39,0.17-0.78,0.21-1.18
		c0.04-0.4,0.06-0.78,0.07-1.15v-1.77C570.04,226.26,570.02,225.88,569.98,225.48z"/>
	<path class="st2" d="M577.11,228.4v6.78h-1.97v-15.35h9.43v1.67h-7.46v5.25h6.39v1.66H577.11z"/>
	<path class="st2" d="M606.48,221.5v13.69h-1.9V221.5h-4.75v-1.67h11.39v1.67H606.48z"/>
	<path class="st2" d="M621.62,235.18v-7.1h-6.3v7.1h-1.83v-15.35h1.83v6.6h6.3v-6.6h1.85v15.35H621.62z"/>
	<path class="st2" d="M628.83,228.09v5.44h7.48v1.66h-9.43v-15.35h9.33v1.67h-7.38v4.93h6.41v1.66H628.83z"/>
	<path class="st2" d="M652.69,219.83h4.57c0.63,0.01,1.25,0.09,1.86,0.25s1.14,0.4,1.61,0.73c0.47,0.33,0.85,0.75,1.13,1.27
		s0.42,1.13,0.41,1.84c-0.01,0.4-0.07,0.77-0.2,1.1c-0.12,0.33-0.29,0.62-0.5,0.89c-0.22,0.27-0.46,0.49-0.72,0.67
		c-0.26,0.18-0.58,0.35-0.96,0.52v0.03c0.39,0.09,0.76,0.26,1.12,0.5s0.65,0.5,0.89,0.79c0.25,0.32,0.44,0.67,0.58,1.07
		c0.14,0.39,0.21,0.82,0.21,1.28c0.01,0.72-0.13,1.35-0.41,1.9c-0.28,0.55-0.66,1-1.13,1.37c-0.47,0.37-1.01,0.66-1.63,0.85
		s-1.25,0.3-1.9,0.31h-4.91V219.83z M657.37,226.38c0.37-0.01,0.72-0.06,1.08-0.17c0.35-0.11,0.66-0.27,0.94-0.48
		c0.27-0.2,0.5-0.46,0.66-0.76c0.17-0.3,0.25-0.65,0.25-1.05c0-0.43-0.08-0.79-0.25-1.1c-0.17-0.3-0.38-0.55-0.66-0.75
		c-0.28-0.19-0.6-0.33-0.96-0.42c-0.36-0.09-0.73-0.14-1.11-0.15h-2.67v4.88H657.37z M654.65,233.53h3
		c0.41-0.01,0.79-0.08,1.16-0.21s0.69-0.31,0.97-0.54s0.5-0.52,0.67-0.85c0.17-0.34,0.25-0.72,0.25-1.15
		c0.01-0.44-0.07-0.82-0.22-1.16c-0.15-0.34-0.36-0.63-0.63-0.87c-0.27-0.23-0.58-0.41-0.94-0.54c-0.36-0.13-0.75-0.2-1.16-0.21
		h-3.11V233.53z"/>
	<path class="st2" d="M675.52,230.05c-0.09,0.56-0.22,1.1-0.41,1.62s-0.42,1.01-0.7,1.46c-0.28,0.45-0.62,0.84-1.02,1.18
		c-0.39,0.34-0.85,0.6-1.35,0.8c-0.51,0.19-1.08,0.29-1.71,0.29s-1.2-0.1-1.71-0.29s-0.96-0.46-1.35-0.8
		c-0.39-0.34-0.74-0.73-1.02-1.19s-0.52-0.94-0.71-1.46c-0.19-0.52-0.33-1.06-0.42-1.61c-0.09-0.55-0.14-1.11-0.15-1.66v-1.75
		c0.01-0.55,0.05-1.1,0.14-1.66s0.23-1.1,0.42-1.62c0.18-0.52,0.42-1.01,0.7-1.46c0.29-0.45,0.62-0.85,1.02-1.2
		c0.39-0.34,0.85-0.6,1.36-0.8c0.51-0.19,1.08-0.29,1.71-0.29s1.21,0.1,1.72,0.29c0.51,0.19,0.97,0.46,1.36,0.8
		c0.39,0.34,0.73,0.73,1.02,1.19c0.29,0.45,0.52,0.94,0.71,1.46c0.18,0.52,0.32,1.06,0.41,1.62s0.13,1.12,0.14,1.67v1.75
		C675.65,228.94,675.6,229.5,675.52,230.05z M673.66,225.48c-0.04-0.4-0.11-0.79-0.21-1.19c-0.11-0.39-0.24-0.76-0.41-1.11
		c-0.17-0.35-0.38-0.67-0.63-0.94c-0.25-0.27-0.55-0.48-0.9-0.64s-0.75-0.24-1.2-0.24c-0.45,0-0.85,0.08-1.19,0.24
		c-0.34,0.16-0.64,0.38-0.9,0.64c-0.25,0.27-0.46,0.59-0.63,0.94c-0.17,0.36-0.3,0.73-0.4,1.11c-0.11,0.39-0.18,0.79-0.23,1.19
		c-0.05,0.4-0.07,0.78-0.08,1.13v1.77c0.01,0.36,0.03,0.74,0.08,1.14c0.05,0.4,0.12,0.79,0.23,1.18c0.11,0.39,0.24,0.77,0.41,1.13
		s0.38,0.67,0.63,0.94c0.25,0.27,0.55,0.49,0.9,0.65c0.34,0.16,0.75,0.24,1.2,0.24s0.86-0.08,1.21-0.24
		c0.35-0.16,0.65-0.38,0.9-0.65c0.25-0.27,0.45-0.58,0.62-0.93c0.17-0.36,0.3-0.73,0.41-1.12c0.1-0.39,0.17-0.78,0.21-1.18
		c0.04-0.4,0.06-0.78,0.07-1.15v-1.77C673.72,226.26,673.7,225.88,673.66,225.48z"/>
	<path class="st2" d="M678.43,219.83h3.55c0.6,0.01,1.16,0.07,1.69,0.18c0.53,0.12,1.02,0.28,1.47,0.49
		c0.63,0.29,1.18,0.67,1.66,1.13s0.87,1.01,1.15,1.62c0.26,0.52,0.46,1.09,0.6,1.71c0.14,0.62,0.21,1.28,0.22,1.98v1.13
		c0,0.67-0.07,1.31-0.2,1.92c-0.13,0.61-0.32,1.16-0.56,1.67c-0.25,0.53-0.57,1.01-0.96,1.43c-0.39,0.43-0.82,0.79-1.3,1.1
		c-0.51,0.32-1.08,0.56-1.71,0.73c-0.64,0.17-1.32,0.26-2.06,0.26h-3.55V219.83z M680.42,233.59h1.57c0.56-0.01,1.07-0.08,1.53-0.21
		c0.46-0.13,0.87-0.32,1.23-0.57c0.38-0.25,0.71-0.56,0.99-0.93c0.28-0.37,0.5-0.78,0.66-1.24c0.14-0.37,0.25-0.78,0.32-1.21
		c0.07-0.43,0.11-0.88,0.12-1.36v-1.15c-0.01-0.48-0.05-0.94-0.12-1.38c-0.07-0.44-0.18-0.85-0.33-1.23
		c-0.19-0.49-0.45-0.94-0.76-1.33c-0.32-0.4-0.71-0.72-1.18-0.96c-0.33-0.18-0.7-0.33-1.11-0.43c-0.41-0.1-0.85-0.16-1.34-0.16
		h-1.57V233.59z"/>
	<path class="st2" d="M699.62,219.83h2.21l-4.78,9.63l-0.03,5.73h-1.81l-0.03-5.73l-4.78-9.63h2.22l3.49,7.71L699.62,219.83z"/>
	<path class="st2" d="M99.64,278.05c0.42,0,0.79-0.06,1.09-0.17c0.31-0.12,0.55-0.28,0.74-0.49c0.18-0.18,0.31-0.41,0.4-0.67
		c0.09-0.26,0.13-0.55,0.13-0.86c0-0.3-0.04-0.58-0.13-0.83c-0.09-0.25-0.22-0.47-0.4-0.65c-0.18-0.18-0.4-0.31-0.67-0.41
		c-0.27-0.1-0.58-0.15-0.94-0.15c-0.3,0-0.57,0.04-0.83,0.13c-0.26,0.08-0.48,0.2-0.67,0.36c-0.2,0.16-0.35,0.36-0.46,0.58
		c-0.11,0.23-0.17,0.48-0.17,0.76H94.8c0-0.63,0.13-1.2,0.39-1.71c0.26-0.51,0.61-0.96,1.06-1.33c0.45-0.37,0.98-0.65,1.59-0.85
		s1.26-0.31,1.97-0.31c0.76,0,1.46,0.09,2.09,0.28c0.63,0.19,1.17,0.46,1.62,0.83c0.45,0.37,0.8,0.83,1.05,1.38
		c0.25,0.54,0.37,1.18,0.37,1.89c0,0.33-0.05,0.66-0.15,0.98c-0.1,0.32-0.24,0.62-0.43,0.91c-0.19,0.29-0.43,0.55-0.71,0.8
		c-0.28,0.24-0.6,0.45-0.97,0.63c0.43,0.15,0.8,0.35,1.11,0.59c0.31,0.24,0.57,0.51,0.77,0.81c0.2,0.31,0.35,0.65,0.45,1.01
		c0.1,0.37,0.15,0.75,0.15,1.16c0,0.72-0.14,1.36-0.41,1.92c-0.27,0.56-0.65,1.03-1.13,1.41c-0.48,0.39-1.05,0.68-1.7,0.88
		c-0.66,0.2-1.37,0.3-2.12,0.3c-0.65,0-1.29-0.09-1.91-0.27c-0.62-0.18-1.18-0.45-1.66-0.82c-0.49-0.36-0.87-0.81-1.17-1.36
		c-0.29-0.55-0.44-1.2-0.44-1.94h2.93c0,0.29,0.06,0.57,0.17,0.82c0.11,0.25,0.27,0.46,0.48,0.64c0.2,0.18,0.45,0.33,0.73,0.43
		c0.28,0.1,0.59,0.15,0.93,0.15c0.38,0,0.72-0.05,1.02-0.16s0.56-0.26,0.76-0.46c0.2-0.18,0.35-0.41,0.45-0.67s0.15-0.57,0.15-0.9
		c0-0.42-0.06-0.77-0.18-1.07c-0.12-0.29-0.29-0.54-0.52-0.73c-0.23-0.19-0.51-0.33-0.83-0.42c-0.32-0.09-0.68-0.14-1.08-0.14h-1.59
		v-2.28H99.64z"/>
	<path class="st2" d="M111.55,283.94c0.36-0.38,0.86-0.56,1.5-0.56c0.63,0,1.13,0.19,1.49,0.56c0.36,0.37,0.54,0.83,0.54,1.38
		c0,0.55-0.18,1-0.55,1.37c-0.37,0.36-0.86,0.54-1.48,0.54c-0.63,0-1.12-0.18-1.49-0.55c-0.37-0.37-0.55-0.82-0.55-1.36
		C111.01,284.78,111.19,284.32,111.55,283.94z"/>
	<path class="st2" d="M140.41,274.08v12.94h-2.97v-12.94h-4.67v-2.42h12.38v2.42H140.41z"/>
	<path class="st2" d="M154.03,287.02v-6.65h-4.34v6.65h-2.94v-15.35h2.94v6.29h4.34v-6.29h2.93v15.35H154.03z"/>
	<path class="st2" d="M162.93,280.29v4.33h7.37v2.39h-10.34v-15.35h10.31v2.42h-7.34v3.87h6.31v2.34H162.93z"/>
	<path class="st2" d="M183.28,282.35c-0.12,0.59-0.29,1.14-0.52,1.65c-0.24,0.51-0.53,0.97-0.89,1.39s-0.75,0.77-1.2,1.05
		c-0.41,0.25-0.86,0.44-1.34,0.58c-0.49,0.14-1.01,0.21-1.58,0.21c-0.6,0-1.15-0.08-1.66-0.23c-0.51-0.15-0.97-0.37-1.38-0.65
		c-0.41-0.3-0.77-0.65-1.1-1.07c-0.32-0.42-0.59-0.89-0.81-1.42c-0.2-0.48-0.35-1.01-0.45-1.58c-0.1-0.57-0.15-1.17-0.15-1.8v-2.24
		c0-0.67,0.06-1.31,0.17-1.92s0.29-1.16,0.51-1.68c0.22-0.49,0.48-0.92,0.8-1.32c0.31-0.39,0.67-0.73,1.08-1.01
		c0.4-0.27,0.85-0.48,1.35-0.63c0.5-0.15,1.04-0.22,1.62-0.22c0.59,0,1.14,0.08,1.66,0.23c0.52,0.15,0.98,0.37,1.4,0.65
		c0.41,0.27,0.78,0.59,1.09,0.97c0.31,0.38,0.58,0.8,0.81,1.25c0.25,0.52,0.43,1.09,0.56,1.71c0.13,0.62,0.2,1.28,0.2,1.97v2.24
		C183.46,281.13,183.4,281.76,183.28,282.35z M180.4,277.09c-0.04-0.36-0.1-0.68-0.18-0.99c-0.11-0.38-0.25-0.72-0.42-1.02
		s-0.38-0.54-0.62-0.73c-0.19-0.14-0.4-0.25-0.64-0.33c-0.24-0.08-0.5-0.12-0.79-0.12c-0.27,0-0.52,0.04-0.74,0.11
		c-0.22,0.07-0.42,0.17-0.6,0.31c-0.24,0.2-0.44,0.44-0.61,0.74c-0.17,0.29-0.29,0.64-0.38,1.03c-0.07,0.3-0.12,0.63-0.15,0.99
		s-0.05,0.73-0.05,1.13v2.26c0,0.37,0.01,0.73,0.04,1.08c0.03,0.34,0.08,0.66,0.15,0.96c0.08,0.37,0.19,0.71,0.34,1.02
		c0.15,0.31,0.33,0.55,0.53,0.74c0.19,0.17,0.41,0.3,0.65,0.39c0.24,0.09,0.52,0.14,0.83,0.14c0.3,0,0.57-0.04,0.81-0.13
		s0.46-0.21,0.65-0.37c0.24-0.2,0.44-0.44,0.61-0.74s0.3-0.64,0.4-1.02c0.08-0.3,0.14-0.62,0.17-0.97c0.04-0.35,0.06-0.72,0.06-1.1
		v-2.26C180.45,277.82,180.43,277.44,180.4,277.09z"/>
	<path class="st2" d="M196.07,284.62v2.39H185.9v-15.35h2.97v12.96H196.07z"/>
	<path class="st2" d="M209.2,282.35c-0.12,0.59-0.29,1.14-0.52,1.65c-0.24,0.51-0.53,0.97-0.89,1.39s-0.75,0.77-1.2,1.05
		c-0.41,0.25-0.86,0.44-1.34,0.58c-0.49,0.14-1.01,0.21-1.58,0.21c-0.6,0-1.15-0.08-1.66-0.23c-0.51-0.15-0.97-0.37-1.38-0.65
		c-0.41-0.3-0.77-0.65-1.1-1.07c-0.32-0.42-0.59-0.89-0.81-1.42c-0.2-0.48-0.35-1.01-0.45-1.58c-0.1-0.57-0.15-1.17-0.15-1.8v-2.24
		c0-0.67,0.06-1.31,0.17-1.92s0.29-1.16,0.51-1.68c0.22-0.49,0.48-0.92,0.8-1.32c0.31-0.39,0.67-0.73,1.08-1.01
		c0.4-0.27,0.85-0.48,1.35-0.63c0.5-0.15,1.04-0.22,1.62-0.22c0.59,0,1.14,0.08,1.66,0.23c0.52,0.15,0.98,0.37,1.4,0.65
		c0.41,0.27,0.78,0.59,1.09,0.97c0.31,0.38,0.58,0.8,0.81,1.25c0.25,0.52,0.43,1.09,0.56,1.71c0.13,0.62,0.2,1.28,0.2,1.97v2.24
		C209.38,281.13,209.32,281.76,209.2,282.35z M206.31,277.09c-0.04-0.36-0.1-0.68-0.18-0.99c-0.11-0.38-0.25-0.72-0.42-1.02
		s-0.38-0.54-0.62-0.73c-0.19-0.14-0.4-0.25-0.64-0.33c-0.24-0.08-0.5-0.12-0.79-0.12c-0.27,0-0.52,0.04-0.74,0.11
		c-0.22,0.07-0.42,0.17-0.6,0.31c-0.24,0.2-0.44,0.44-0.61,0.74c-0.17,0.29-0.29,0.64-0.38,1.03c-0.07,0.3-0.12,0.63-0.15,0.99
		s-0.05,0.73-0.05,1.13v2.26c0,0.37,0.01,0.73,0.04,1.08c0.03,0.34,0.08,0.66,0.15,0.96c0.08,0.37,0.19,0.71,0.34,1.02
		c0.15,0.31,0.33,0.55,0.53,0.74c0.19,0.17,0.41,0.3,0.65,0.39c0.24,0.09,0.52,0.14,0.83,0.14c0.3,0,0.57-0.04,0.81-0.13
		s0.46-0.21,0.65-0.37c0.24-0.2,0.44-0.44,0.61-0.74s0.3-0.64,0.4-1.02c0.08-0.3,0.14-0.62,0.17-0.97c0.04-0.35,0.06-0.72,0.06-1.1
		v-2.26C206.37,277.82,206.35,277.44,206.31,277.09z"/>
	<path class="st2" d="M221.4,285.93c-0.33,0.24-0.72,0.45-1.17,0.64c-0.46,0.2-0.97,0.36-1.53,0.47c-0.56,0.12-1.17,0.18-1.81,0.18
		c-0.56,0-1.09-0.07-1.59-0.2s-0.95-0.32-1.37-0.56c-0.41-0.25-0.78-0.56-1.11-0.93c-0.33-0.37-0.62-0.78-0.85-1.25
		c-0.27-0.52-0.47-1.11-0.61-1.76s-0.21-1.36-0.21-2.13v-2.09c0-0.73,0.07-1.41,0.2-2.04c0.13-0.63,0.32-1.2,0.57-1.71
		c0.23-0.46,0.5-0.87,0.81-1.23c0.31-0.37,0.64-0.68,1.01-0.95c0.43-0.3,0.9-0.53,1.4-0.69c0.51-0.16,1.04-0.23,1.6-0.23
		c0.86,0,1.62,0.11,2.26,0.33c0.64,0.22,1.19,0.53,1.63,0.94c0.44,0.41,0.79,0.92,1.04,1.51c0.25,0.59,0.41,1.25,0.49,1.99h-2.89
		c-0.05-0.37-0.12-0.7-0.23-0.99c-0.1-0.29-0.24-0.53-0.42-0.73c-0.2-0.22-0.44-0.38-0.74-0.49c-0.3-0.11-0.66-0.16-1.07-0.16
		c-0.23,0-0.44,0.04-0.65,0.11s-0.41,0.17-0.59,0.31c-0.24,0.18-0.46,0.42-0.65,0.72c-0.19,0.3-0.35,0.64-0.48,1.04
		c-0.1,0.31-0.17,0.65-0.23,1.03c-0.05,0.38-0.08,0.79-0.08,1.23v2.11c0,0.56,0.04,1.06,0.11,1.52c0.07,0.46,0.18,0.86,0.31,1.21
		c0.08,0.2,0.18,0.39,0.29,0.56c0.11,0.17,0.23,0.33,0.36,0.46c0.23,0.23,0.49,0.4,0.79,0.51c0.3,0.12,0.64,0.18,1.02,0.19
		c0.23,0,0.46-0.02,0.69-0.05s0.44-0.08,0.63-0.15c0.2-0.06,0.37-0.13,0.52-0.22c0.15-0.08,0.27-0.17,0.34-0.26l0.01-2.78h-2.54
		v-2.21h5.49l0.01,6.05C221.99,285.46,221.73,285.69,221.4,285.93z"/>
	<path class="st2" d="M232.85,271.66h3.26l-4.83,10.04l-0.01,5.31h-2.95l-0.01-5.44l-4.76-9.91h3.25l3.03,7.08L232.85,271.66z"/>
	<path class="st2" d="M136.45,312.93h-1.95v-15.35h4.98c0.69,0.01,1.34,0.12,1.96,0.33c0.62,0.2,1.15,0.5,1.62,0.89
		c0.46,0.39,0.83,0.87,1.1,1.43s0.41,1.22,0.41,1.96s-0.14,1.39-0.41,1.96c-0.27,0.57-0.64,1.04-1.1,1.43
		c-0.46,0.39-1,0.68-1.62,0.89c-0.62,0.2-1.27,0.31-1.96,0.32h-3.03V312.93z M139.48,305.17c0.45-0.01,0.86-0.08,1.24-0.22
		c0.38-0.14,0.71-0.33,0.99-0.58c0.28-0.25,0.5-0.56,0.66-0.92c0.16-0.36,0.24-0.77,0.24-1.24s-0.08-0.88-0.24-1.25
		c-0.16-0.37-0.37-0.69-0.65-0.95c-0.28-0.26-0.61-0.46-1-0.6c-0.38-0.14-0.8-0.21-1.25-0.22h-3.03v5.99H139.48z"/>
	<path class="st2" d="M149.48,308.96l-1.23,3.98h-1.95l4.96-15.35h1.63l4.87,15.35h-1.94l-1.21-3.98H149.48z M154.09,307.26
		l-2.02-6.66l-2.06,6.66H154.09z"/>
	<path class="st2" d="M162.25,306.67v6.26h-1.94v-15.35h4.5c0.72,0.01,1.39,0.12,2.02,0.3c0.63,0.19,1.19,0.47,1.67,0.85
		c0.47,0.38,0.84,0.86,1.11,1.43c0.27,0.57,0.41,1.25,0.41,2.02c0,0.5-0.07,0.96-0.22,1.37s-0.34,0.79-0.6,1.13
		c-0.25,0.34-0.56,0.64-0.91,0.9c-0.35,0.26-0.74,0.48-1.16,0.67l3.26,6.56l-0.01,0.13h-2.06l-3.02-6.26H162.25z M164.87,305.06
		c0.44-0.01,0.85-0.08,1.23-0.21c0.39-0.13,0.73-0.32,1.02-0.56c0.29-0.25,0.52-0.55,0.69-0.9c0.17-0.35,0.25-0.76,0.25-1.23
		c0-0.49-0.08-0.92-0.24-1.29s-0.39-0.68-0.67-0.93c-0.29-0.25-0.63-0.43-1.03-0.56c-0.4-0.13-0.83-0.19-1.3-0.2h-2.56v5.88H164.87z
		"/>
	<path class="st2" d="M178.81,299.24v13.69h-1.9v-13.69h-4.75v-1.67h11.39v1.67H178.81z"/>
	<path class="st2" d="M195.44,297.58v1.7h-3.68v11.97h3.68v1.69h-9.28v-1.69h3.6v-11.97h-3.6v-1.7H195.44z"/>
	<path class="st2" d="M208.51,310.27c-0.27,0.59-0.63,1.1-1.06,1.52c-0.44,0.43-0.96,0.76-1.57,1c-0.6,0.24-1.27,0.35-2.01,0.35
		c-0.63,0-1.21-0.09-1.72-0.27c-0.52-0.18-0.98-0.43-1.38-0.74c-0.41-0.32-0.76-0.69-1.05-1.12c-0.29-0.43-0.53-0.9-0.72-1.4
		c-0.2-0.51-0.34-1.04-0.44-1.59c-0.09-0.56-0.15-1.12-0.15-1.69v-2.14c0.01-0.57,0.06-1.13,0.15-1.69
		c0.09-0.55,0.24-1.09,0.44-1.59c0.19-0.51,0.43-0.98,0.72-1.41c0.29-0.43,0.64-0.81,1.05-1.12c0.4-0.32,0.86-0.56,1.37-0.74
		c0.51-0.18,1.09-0.27,1.73-0.27c0.77,0,1.45,0.12,2.06,0.35s1.12,0.57,1.56,1c0.44,0.44,0.79,0.96,1.05,1.56s0.44,1.27,0.52,2
		h-1.95c-0.06-0.46-0.17-0.9-0.33-1.3c-0.15-0.4-0.36-0.75-0.62-1.05c-0.26-0.3-0.58-0.54-0.95-0.71c-0.38-0.17-0.82-0.26-1.33-0.26
		c-0.46,0-0.87,0.08-1.23,0.23c-0.35,0.15-0.66,0.36-0.91,0.62c-0.26,0.26-0.48,0.56-0.65,0.91c-0.17,0.34-0.31,0.71-0.42,1.1
		s-0.18,0.78-0.23,1.19s-0.07,0.8-0.07,1.18v2.16c0,0.38,0.02,0.77,0.07,1.18s0.12,0.8,0.23,1.19c0.11,0.39,0.24,0.76,0.41,1.11
		c0.17,0.34,0.38,0.65,0.64,0.91c0.26,0.27,0.57,0.48,0.92,0.63c0.35,0.15,0.76,0.23,1.23,0.23c0.51,0,0.96-0.08,1.33-0.24
		c0.38-0.16,0.69-0.39,0.95-0.69c0.26-0.29,0.47-0.63,0.62-1.03s0.26-0.83,0.33-1.29h1.95
		C208.97,309.02,208.79,309.67,208.51,310.27z"/>
	<path class="st2" d="M221.74,307.97c0,0.72-0.13,1.39-0.38,2.01c-0.25,0.63-0.6,1.17-1.04,1.63c-0.44,0.47-0.97,0.84-1.58,1.11
		s-1.28,0.41-2.01,0.41c-0.75,0-1.42-0.13-2.04-0.4c-0.61-0.27-1.14-0.64-1.57-1.11c-0.44-0.46-0.78-1.01-1.02-1.64
		s-0.37-1.3-0.38-2.02l0.02-10.4h1.86l0.04,10.4c0.01,0.46,0.08,0.9,0.22,1.32s0.34,0.79,0.6,1.12c0.25,0.32,0.57,0.58,0.95,0.78
		c0.38,0.2,0.82,0.29,1.32,0.29s0.94-0.1,1.32-0.29c0.38-0.19,0.7-0.46,0.96-0.79c0.25-0.32,0.45-0.7,0.58-1.12
		c0.13-0.42,0.21-0.86,0.22-1.32l0.03-10.4h1.89L221.74,307.97z"/>
	<path class="st2" d="M234.75,311.28v1.66h-9.46v-15.35h1.95v13.7H234.75z"/>
	<path class="st2" d="M240.2,308.96l-1.23,3.98h-1.95l4.96-15.35h1.63l4.87,15.35h-1.94l-1.21-3.98H240.2z M244.81,307.26
		l-2.02-6.66l-2.06,6.66H244.81z"/>
	<path class="st2" d="M252.97,306.67v6.26h-1.94v-15.35h4.5c0.72,0.01,1.39,0.12,2.02,0.3c0.63,0.19,1.19,0.47,1.67,0.85
		c0.47,0.38,0.84,0.86,1.11,1.43c0.27,0.57,0.41,1.25,0.41,2.02c0,0.5-0.07,0.96-0.22,1.37s-0.34,0.79-0.6,1.13
		c-0.25,0.34-0.56,0.64-0.91,0.9c-0.35,0.26-0.74,0.48-1.16,0.67l3.26,6.56l-0.01,0.13h-2.06l-3.02-6.26H252.97z M255.59,305.06
		c0.44-0.01,0.85-0.08,1.23-0.21c0.39-0.13,0.73-0.32,1.02-0.56c0.29-0.25,0.52-0.55,0.69-0.9c0.17-0.35,0.25-0.76,0.25-1.23
		c0-0.49-0.08-0.92-0.24-1.29s-0.39-0.68-0.67-0.93c-0.29-0.25-0.63-0.43-1.03-0.56c-0.4-0.13-0.83-0.19-1.3-0.2h-2.56v5.88H255.59z
		"/>
	<path class="st2" d="M273.2,297.58v1.7h-3.68v11.97h3.68v1.69h-9.28v-1.69h3.6v-11.97h-3.6v-1.7H273.2z"/>
	<path class="st2" d="M284.59,307.86c-0.21-0.32-0.49-0.6-0.83-0.82c-0.34-0.22-0.71-0.4-1.11-0.55c-0.4-0.15-0.79-0.28-1.17-0.4
		c-0.54-0.18-1.09-0.39-1.65-0.64c-0.56-0.25-1.07-0.55-1.52-0.9c-0.46-0.36-0.84-0.78-1.13-1.27c-0.29-0.49-0.44-1.06-0.44-1.72
		c0-0.66,0.15-1.25,0.44-1.77c0.29-0.52,0.67-0.96,1.14-1.32c0.47-0.36,1.01-0.63,1.6-0.82c0.6-0.19,1.2-0.28,1.8-0.28
		c0.67,0,1.31,0.11,1.93,0.33c0.62,0.22,1.17,0.53,1.65,0.93c0.48,0.4,0.86,0.89,1.15,1.46c0.29,0.57,0.44,1.21,0.45,1.91h-2
		c-0.06-0.44-0.17-0.85-0.33-1.21c-0.16-0.36-0.38-0.67-0.64-0.93c-0.27-0.26-0.59-0.46-0.95-0.61s-0.79-0.22-1.25-0.22
		c-0.37,0-0.74,0.05-1.09,0.16s-0.67,0.26-0.94,0.47c-0.28,0.21-0.5,0.47-0.67,0.78c-0.17,0.31-0.25,0.67-0.25,1.08
		c0.01,0.44,0.12,0.82,0.34,1.12s0.5,0.56,0.83,0.78c0.33,0.21,0.69,0.39,1.08,0.53s0.76,0.26,1.1,0.37
		c0.57,0.18,1.14,0.39,1.71,0.64c0.57,0.25,1.09,0.57,1.56,0.95c0.46,0.36,0.84,0.8,1.12,1.32c0.28,0.52,0.43,1.12,0.43,1.8
		c0,0.69-0.15,1.29-0.46,1.8c-0.31,0.51-0.7,0.94-1.19,1.28c-0.48,0.34-1.03,0.6-1.65,0.78c-0.61,0.17-1.22,0.26-1.83,0.26
		c-0.73,0-1.45-0.12-2.16-0.37s-1.32-0.6-1.84-1.07c-0.46-0.4-0.83-0.87-1.1-1.41c-0.27-0.54-0.42-1.14-0.44-1.8h1.99
		c0.06,0.48,0.19,0.9,0.39,1.27s0.45,0.68,0.76,0.93c0.31,0.26,0.67,0.46,1.07,0.58c0.4,0.13,0.85,0.2,1.32,0.2
		c0.38,0,0.75-0.05,1.12-0.14c0.37-0.09,0.7-0.24,0.99-0.45c0.29-0.2,0.52-0.45,0.71-0.75c0.18-0.31,0.27-0.67,0.27-1.09
		C284.91,308.58,284.81,308.18,284.59,307.86z"/>
	<path class="st2" d="M294.48,305.25l2.7-7.68h2.43v15.35h-1.9v-6.13l0.16-6.41l-2.84,8.27h-1.12l-2.6-8.05l0.16,6.19v6.13h-1.9
		v-15.35h2.42L294.48,305.25z"/>
</g>
</svg>
