<?xml version="1.0" encoding="utf-8"?>
<!-- Generator: Adobe Illustrator 28.2.0, SVG Export Plug-In . SVG Version: 6.00 Build 0)  -->
<svg version="1.1" id="Layer_1" xmlns="http://www.w3.org/2000/svg" xmlns:xlink="http://www.w3.org/1999/xlink" x="0px" y="0px"
	 viewBox="0 0 900 380" style="enable-background:new 0 0 900 380;" xml:space="preserve">
<style type="text/css">
	.st0{fill:#FF1A56;}
</style>
<g>
	<g>
		<path class="st0" d="M55.17,120.01h16.51c11.68,0,18.54-0.16,26.02-0.16c23.37,0,41.29,8.1,41.29,27.26
			c0,26.33-27.58,40.19-52.97,40.19c-4.36,0-10.28-0.16-14.8-0.62l-5.92,23.52c-4.36,17.6-2.65,18.07,10.44,19.94l-0.62,2.8H27.13
			l0.62-2.8c14.02-1.87,16.05-2.34,20.41-19.94l16.83-67.46c4.36-17.6,2.65-18.07-10.44-19.94L55.17,120.01z M86.33,125.62
			l-14.49,58.11h1.4c28.82-0.31,46.74-10.91,46.74-37.7c0-13.87-9.19-20.41-24.77-20.41H86.33z"/>
		<path class="st0" d="M155.34,234.98c-11.37,0-18.23-8.88-18.23-24.15c0-28.51,27.42-63.1,51.88-63.1c3.58,0,9.04,0.93,12,3.12
			l16.36-3.12l-8.72,34.12l-8.41,33.65c-1.4,5.76-2.34,10.13,2.34,10.13c3.74,0,12.46-5.14,19.32-16.51l2.49,1.56
			c-8.72,15.89-20.56,24.3-29.6,24.3c-10.44,0-13.4-8.1-9.35-22.75l4.05-14.49C181.04,218.78,168.42,234.98,155.34,234.98z
			 M163.59,223.61c12,0,27.11-32.56,33.81-59.51l1.4-5.76c-1.71-2.65-5.76-4.99-9.97-4.99c-21.5,0-33.65,33.34-33.65,54.06
			C155.18,217.69,157.67,223.61,163.59,223.61z"/>
		<path class="st0" d="M269.53,147.9l-3.74,15.27c9.19-9.5,19.16-15.42,30.54-15.42c0.78,0,1.71,0.16,2.49,0.16l-4.99,19.63h-1.56
			c-3.12-2.8-8.26-4.83-13.87-4.83c-4.99,0-9.81,0.93-13.55,3.89l-16.05,66.37h-15.89l13.71-55.15c3.89-15.42,4.36-17.76-8.1-17.76
			l0.78-2.8L269.53,147.9z"/>
		<path class="st0" d="M304.89,212.24l13.87-57.02h-13.71l1.56-6.08h13.71l3.89-15.11l18.23-10.44l-6.39,25.55h23.52l-1.4,6.08
			h-23.68l-14.8,60.29c-1.4,5.76-2.34,10.13,2.34,10.13c4.36,0,14.02-5.14,20.88-16.51l2.49,1.56c-8.57,15.89-21.5,24.3-31.16,24.3
			C303.49,234.98,301.31,227.04,304.89,212.24z"/>
		<path class="st0" d="M374.21,177.81c3.74-15.42,4.36-17.76-8.1-17.76l0.78-2.8l30.85-9.5c-2.18,8.26-4.99,18.07-8.88,34.12
			l-8.26,33.65c-1.4,5.76-2.34,10.13,2.34,10.13c3.74,0,12.46-5.14,19.32-16.51l2.49,1.56c-8.72,15.89-20.56,24.3-29.6,24.3
			c-10.75,0-12.93-7.95-9.35-22.75L374.21,177.81z M404.75,122.5c0,6.08-4.83,10.59-10.91,10.59s-11.06-4.52-11.06-10.59
			c0-5.92,4.99-10.59,11.06-10.59S404.75,116.58,404.75,122.5z"/>
		<path class="st0" d="M430.61,234.98c-11.37,0-18.23-8.88-18.23-24.15c0-28.51,27.42-63.1,51.88-63.1c3.58,0,9.04,0.93,12,3.12
			l16.36-3.12l-8.72,34.12l-8.41,33.65c-1.4,5.76-2.34,10.13,2.34,10.13c3.74,0,12.46-5.14,19.32-16.51l2.49,1.56
			c-8.72,15.89-20.56,24.3-29.6,24.3c-10.44,0-13.4-8.1-9.35-22.75l4.05-14.49C456.31,218.78,443.69,234.98,430.61,234.98z
			 M438.86,223.61c12,0,27.11-32.56,33.81-59.51l1.4-5.76c-1.71-2.65-5.76-4.99-9.97-4.99c-21.5,0-33.65,33.34-33.65,54.06
			C430.45,217.69,432.94,223.61,438.86,223.61z"/>
		<path class="st0" d="M531.87,137.92c3.9-15.42,4.36-17.76-8.1-17.76l0.78-2.8l30.69-9.5l-8.72,34.12l-18.23,73.53
			c-1.4,5.76-2.34,10.13,2.34,10.13c3.74,0,12.46-5.14,19.32-16.51l2.49,1.56c-8.72,15.89-20.56,24.3-29.6,24.3
			c-10.75,0-13.09-7.95-9.35-22.75L531.87,137.92z"/>
		<path class="st0" d="M573.62,177.81c3.74-15.42,4.36-17.76-8.1-17.76l0.78-2.8l30.85-9.5c-2.18,8.26-4.99,18.07-8.88,34.12
			L580,215.51c-1.4,5.76-2.34,10.13,2.34,10.13c3.74,0,12.46-5.14,19.32-16.51l2.49,1.56c-8.72,15.89-20.56,24.3-29.6,24.3
			c-10.75,0-12.93-7.95-9.35-22.75L573.62,177.81z M604.15,122.5c0,6.08-4.83,10.59-10.91,10.59s-11.06-4.52-11.06-10.59
			c0-5.92,4.99-10.59,11.06-10.59S604.15,116.58,604.15,122.5z"/>
		<path class="st0" d="M664.6,210.37c0,16.2-16.83,24.62-32.87,24.62c-10.28,0-18.85-2.49-23.68-5.61l8.88-29.45h2.96
			c-3.12,19.79-0.62,29.45,13.24,29.45c7.01,0,16.05-4.36,16.05-14.33c0-4.67-2.03-9.35-4.83-13.09l-7.48-9.81
			c-4.83-6.23-10.28-13.55-10.28-21.81c0-14.96,17.29-22.59,31.31-22.59c9.04,0,16.36,2.8,20.25,5.14l-8.26,26.02h-3.12
			c4.05-19.32-0.47-25.55-11.84-25.55c-6.23,0-13.55,3.43-13.55,12c0,4.52,2.96,8.88,5.92,13.09l7.17,9.82
			C661.01,197.28,664.6,203.2,664.6,210.37z"/>
		<path class="st0" d="M784.24,234.98c-10.44,0-13.71-8.1-9.35-22.75l9.66-32.87c4.83-16.05,4.21-20.41-0.62-20.41
			c-10.59,0-29.13,32.56-36.46,59.67l-3.89,14.33h-15.27l14.18-53.59c4.36-16.2,4.21-20.41-0.62-20.41
			c-11.37,0-31.16,38.17-36.61,59.82l-3.58,14.18h-15.42l13.87-55.15c3.89-15.42,4.36-17.76-8.1-17.76l0.78-2.8l30.22-9.35
			l-10.28,40.66c13.71-27.89,24.15-40.82,35.99-40.82c10.28,0,15.27,9.97,10.44,27.89l-2.49,9.19
			c12.77-25.24,22.75-37.08,34.12-37.08c10.28,0,15.58,9.97,10.44,27.89l-11.53,39.88c-1.71,5.61-2.34,10.13,2.34,10.13
			c3.74,0,12.46-5.14,19.32-16.51l2.49,1.56C805.12,226.57,793.28,234.98,784.24,234.98z"/>
		<path class="st0" d="M841.56,234.98c-6.08,0-11.22-5.14-11.22-11.22c0-6.08,5.14-11.22,11.22-11.22c6.08,0,11.22,5.14,11.22,11.22
			C852.78,229.84,847.64,234.98,841.56,234.98z"/>
	</g>
</g>
</svg>
