<?xml version="1.0" encoding="utf-8"?>
<!-- Generator: Adobe Illustrator 28.2.0, SVG Export Plug-In . SVG Version: 6.00 Build 0)  -->
<svg version="1.1" id="Layer_1" xmlns="http://www.w3.org/2000/svg" xmlns:xlink="http://www.w3.org/1999/xlink" x="0px" y="0px"
	 viewBox="0 0 900 380" style="enable-background:new 0 0 900 380;" xml:space="preserve">
<style type="text/css">
	.st0{fill:#FF1A56;}
	.st1{font-family:'SuisseWorks-RegularItalic_LD-V1Regular';}
	.st2{font-size:126.0549px;}
	.st3{fill:#1717E2;}
</style>
<g>
	<text transform="matrix(1 0 0 1 29.7405 224.7593)" class="st0 st1 st2">Olfactophilia.</text>
</g>
<g>
	<text transform="matrix(1 0 0 1 946.6414 245.8222)" class="st0 st1" style="font-size:169.9853px; letter-spacing:-1;">Auralism.</text>
</g>
<g>
	<g>
		<g>
			<path class="st3" d="M80.05,101.11L77,88.66l-2.17,12.45h-3.62L74.52,82h3.56l3,12.4L83.26,82h3.61l-3.32,19.11H80.05z"/>
			<path class="st3" d="M100.98,95.06c-0.22,0.7-0.49,1.36-0.83,1.99c-0.34,0.63-0.74,1.21-1.19,1.75c-0.45,0.54-0.96,1-1.53,1.38
				c-0.57,0.38-1.19,0.68-1.88,0.89c-0.68,0.21-1.43,0.31-2.23,0.29c-0.76-0.02-1.44-0.15-2.03-0.39c-0.59-0.24-1.1-0.57-1.53-0.98
				c-0.44-0.4-0.8-0.87-1.08-1.41c-0.28-0.54-0.49-1.12-0.64-1.74c-0.15-0.61-0.24-1.25-0.26-1.92c-0.03-0.66,0-1.33,0.09-1.98
				l0.43-2.78c0.1-0.7,0.26-1.4,0.48-2.09c0.21-0.7,0.48-1.36,0.81-1.99c0.31-0.63,0.69-1.22,1.13-1.76
				c0.44-0.54,0.93-1.01,1.48-1.4c0.55-0.38,1.16-0.68,1.84-0.9s1.41-0.31,2.2-0.3c0.77,0.02,1.45,0.14,2.05,0.38
				c0.6,0.24,1.13,0.56,1.58,0.96c0.45,0.41,0.82,0.89,1.12,1.42s0.53,1.11,0.7,1.73c0.16,0.62,0.25,1.27,0.29,1.94
				c0.03,0.67,0.01,1.34-0.08,2.01l-0.43,2.77C101.36,93.65,101.19,94.36,100.98,95.06z M98.36,89.08c0.03-0.38,0.03-0.77,0.01-1.17
				c-0.03-0.38-0.08-0.76-0.17-1.13c-0.09-0.37-0.22-0.7-0.41-0.98s-0.42-0.52-0.72-0.71s-0.67-0.28-1.12-0.3
				c-0.48-0.02-0.91,0.05-1.27,0.2c-0.37,0.15-0.69,0.37-0.96,0.64c-0.28,0.28-0.52,0.6-0.72,0.96c-0.2,0.36-0.37,0.75-0.5,1.15
				c-0.14,0.4-0.25,0.81-0.34,1.23c-0.09,0.42-0.16,0.81-0.21,1.19l-0.43,2.82c-0.04,0.31-0.08,0.65-0.11,1.02
				c-0.03,0.38-0.04,0.76-0.03,1.15c0,0.39,0.03,0.78,0.1,1.15c0.07,0.38,0.19,0.71,0.35,1.01c0.17,0.3,0.39,0.54,0.68,0.73
				s0.65,0.29,1.1,0.31c0.47,0.02,0.9-0.05,1.27-0.2c0.38-0.15,0.71-0.37,1.01-0.64c0.29-0.27,0.54-0.59,0.76-0.96
				c0.22-0.37,0.41-0.76,0.56-1.17c0.15-0.4,0.27-0.81,0.37-1.23s0.17-0.82,0.24-1.19l0.43-2.82C98.3,89.81,98.34,89.46,98.36,89.08
				z"/>
			<path class="st3" d="M116.39,94.65c-0.15,0.99-0.42,1.9-0.8,2.73c-0.39,0.83-0.88,1.54-1.5,2.14c-0.61,0.6-1.34,1.07-2.17,1.4
				s-1.77,0.48-2.81,0.45c-0.96-0.02-1.79-0.21-2.49-0.57c-0.7-0.36-1.26-0.85-1.69-1.46c-0.43-0.6-0.73-1.31-0.89-2.11
				c-0.17-0.8-0.2-1.65-0.09-2.55L106.12,82h3.6l-2.13,12.68c-0.04,0.38-0.06,0.78-0.06,1.2s0.07,0.82,0.19,1.19
				c0.11,0.37,0.3,0.68,0.57,0.92c0.27,0.25,0.65,0.39,1.14,0.41c0.54,0.03,1.01-0.07,1.4-0.28c0.39-0.21,0.73-0.5,1-0.86
				c0.26-0.36,0.47-0.77,0.63-1.22c0.16-0.46,0.27-0.91,0.34-1.36L114.96,82h3.57L116.39,94.65z"/>
			<path class="st3" d="M127.36,101.11l-3.04-12.45l-2.17,12.45h-3.62L121.84,82h3.56l3,12.4l2.18-12.4h3.61l-3.32,19.11H127.36z"/>
			<path class="st3" d="M78.75,165.6V149.6l-5,1.9v-2.22l7.23-2.78h0.2v19.11H78.75z"/>
			<path class="st3" d="M94.13,162.7c0.31-0.37,0.79-0.55,1.43-0.55c0.63,0,1.11,0.18,1.44,0.54c0.33,0.36,0.49,0.81,0.49,1.33
				c0,0.52-0.17,0.95-0.5,1.3c-0.33,0.35-0.81,0.52-1.43,0.52c-0.63,0-1.1-0.18-1.42-0.53c-0.32-0.35-0.48-0.79-0.48-1.29
				C93.65,163.51,93.81,163.07,94.13,162.7z"/>
			<path class="st3" d="M133.93,159.22c-0.11,0.7-0.28,1.37-0.51,2.01s-0.52,1.25-0.87,1.81c-0.35,0.56-0.78,1.05-1.27,1.47
				c-0.49,0.42-1.05,0.75-1.69,0.99c-0.63,0.24-1.34,0.36-2.13,0.36c-0.79,0-1.5-0.12-2.13-0.36c-0.63-0.24-1.2-0.57-1.69-0.99
				c-0.49-0.42-0.91-0.91-1.27-1.48c-0.36-0.56-0.65-1.17-0.88-1.82c-0.24-0.65-0.41-1.32-0.52-2.01c-0.11-0.69-0.18-1.38-0.18-2.06
				v-2.18c0.01-0.68,0.07-1.37,0.18-2.07c0.11-0.7,0.28-1.37,0.52-2.01c0.23-0.65,0.52-1.25,0.87-1.82
				c0.35-0.56,0.78-1.06,1.27-1.49c0.49-0.42,1.05-0.75,1.69-0.99c0.63-0.24,1.34-0.36,2.13-0.36c0.79,0,1.5,0.12,2.14,0.36
				c0.64,0.24,1.2,0.57,1.69,0.99c0.49,0.42,0.91,0.91,1.27,1.48c0.35,0.56,0.65,1.17,0.89,1.82c0.23,0.65,0.4,1.32,0.51,2.02
				c0.11,0.7,0.17,1.39,0.18,2.07v2.18C134.1,157.84,134.04,158.53,133.93,159.22z M131.62,153.53c-0.05-0.49-0.14-0.99-0.26-1.48
				c-0.13-0.48-0.3-0.94-0.51-1.38c-0.21-0.44-0.47-0.83-0.79-1.17c-0.31-0.33-0.69-0.6-1.12-0.79s-0.93-0.3-1.5-0.3
				c-0.56,0-1.05,0.1-1.48,0.3s-0.8,0.47-1.12,0.8c-0.31,0.34-0.58,0.73-0.79,1.17c-0.21,0.44-0.38,0.9-0.5,1.38
				c-0.13,0.49-0.23,0.98-0.28,1.48s-0.09,0.96-0.1,1.41v2.2c0.01,0.45,0.04,0.92,0.1,1.42c0.06,0.5,0.15,0.99,0.28,1.47
				c0.13,0.49,0.3,0.96,0.51,1.4s0.47,0.84,0.79,1.17c0.31,0.34,0.69,0.61,1.12,0.81c0.43,0.2,0.93,0.3,1.5,0.3
				c0.57,0,1.07-0.1,1.5-0.3c0.43-0.2,0.81-0.47,1.12-0.81c0.31-0.33,0.56-0.72,0.77-1.16c0.21-0.44,0.37-0.91,0.51-1.4
				c0.12-0.48,0.21-0.97,0.26-1.47c0.05-0.5,0.08-0.98,0.09-1.43v-2.2C131.7,154.5,131.67,154.02,131.62,153.53z"/>
			<path class="st3" d="M149.89,163.54v2.06h-11.77V146.5h2.43v17.05H149.89z"/>
			<path class="st3" d="M156.61,157.17v8.44h-2.45V146.5h11.73v2.07h-9.28v6.53h7.95v2.06H156.61z"/>
			<path class="st3" d="M172.81,160.66l-1.54,4.95h-2.43l6.17-19.11h2.03l6.06,19.11h-2.41l-1.51-4.95H172.81z M178.54,158.55
				l-2.52-8.29l-2.56,8.29H178.54z"/>
			<path class="st3" d="M197.88,162.29c-0.34,0.74-0.78,1.37-1.33,1.9c-0.55,0.53-1.2,0.95-1.95,1.24c-0.75,0.29-1.58,0.44-2.5,0.44
				c-0.79,0-1.5-0.11-2.15-0.33s-1.21-0.53-1.71-0.92c-0.51-0.39-0.94-0.86-1.31-1.39c-0.36-0.53-0.66-1.12-0.9-1.75
				c-0.24-0.63-0.43-1.29-0.54-1.98s-0.18-1.39-0.19-2.1v-2.66c0.01-0.71,0.07-1.41,0.19-2.1s0.3-1.35,0.54-1.98
				c0.24-0.63,0.54-1.21,0.9-1.75c0.36-0.54,0.8-1,1.31-1.4c0.5-0.39,1.07-0.7,1.71-0.92c0.64-0.22,1.36-0.33,2.15-0.33
				c0.95,0,1.81,0.15,2.56,0.44c0.75,0.29,1.4,0.71,1.94,1.24c0.54,0.54,0.98,1.19,1.31,1.94c0.33,0.75,0.54,1.58,0.65,2.49h-2.43
				c-0.08-0.58-0.21-1.12-0.41-1.61s-0.45-0.94-0.77-1.31c-0.32-0.38-0.72-0.67-1.19-0.89c-0.47-0.21-1.02-0.32-1.66-0.32
				c-0.58,0-1.09,0.09-1.53,0.28s-0.82,0.44-1.13,0.77c-0.32,0.32-0.59,0.7-0.81,1.13c-0.21,0.43-0.39,0.88-0.52,1.36
				c-0.13,0.48-0.23,0.97-0.28,1.48c-0.06,0.5-0.09,0.99-0.09,1.46v2.69c0,0.47,0.03,0.96,0.09,1.46c0.06,0.5,0.15,1,0.28,1.48
				c0.13,0.49,0.3,0.95,0.51,1.38c0.21,0.43,0.48,0.81,0.8,1.13c0.32,0.33,0.7,0.59,1.14,0.78s0.95,0.28,1.54,0.28
				c0.64,0,1.19-0.1,1.66-0.3c0.47-0.2,0.86-0.49,1.19-0.85c0.32-0.36,0.58-0.79,0.77-1.28c0.19-0.49,0.33-1.03,0.41-1.61h2.43
				C198.45,160.74,198.22,161.55,197.88,162.29z"/>
			<path class="st3" d="M209.3,148.57v17.03h-2.36v-17.03h-5.91v-2.07h14.17v2.07H209.3z"/>
			<path class="st3" d="M230.69,159.22c-0.11,0.7-0.28,1.37-0.51,2.01s-0.52,1.25-0.87,1.81c-0.35,0.56-0.78,1.05-1.27,1.47
				c-0.49,0.42-1.05,0.75-1.69,0.99c-0.63,0.24-1.34,0.36-2.13,0.36c-0.79,0-1.5-0.12-2.13-0.36c-0.63-0.24-1.2-0.57-1.69-0.99
				c-0.49-0.42-0.91-0.91-1.27-1.48c-0.36-0.56-0.65-1.17-0.88-1.82c-0.24-0.65-0.41-1.32-0.52-2.01c-0.11-0.69-0.18-1.38-0.18-2.06
				v-2.18c0.01-0.68,0.07-1.37,0.18-2.07c0.11-0.7,0.28-1.37,0.52-2.01c0.23-0.65,0.52-1.25,0.87-1.82
				c0.35-0.56,0.78-1.06,1.27-1.49c0.49-0.42,1.05-0.75,1.69-0.99c0.63-0.24,1.34-0.36,2.13-0.36c0.79,0,1.5,0.12,2.14,0.36
				c0.64,0.24,1.2,0.57,1.69,0.99c0.49,0.42,0.91,0.91,1.27,1.48c0.35,0.56,0.65,1.17,0.89,1.82c0.23,0.65,0.4,1.32,0.51,2.02
				c0.11,0.7,0.17,1.39,0.18,2.07v2.18C230.86,157.84,230.8,158.53,230.69,159.22z M228.38,153.53c-0.05-0.49-0.14-0.99-0.26-1.48
				c-0.13-0.48-0.3-0.94-0.51-1.38c-0.21-0.44-0.47-0.83-0.79-1.17c-0.31-0.33-0.69-0.6-1.12-0.79s-0.93-0.3-1.5-0.3
				c-0.56,0-1.05,0.1-1.48,0.3s-0.8,0.47-1.12,0.8c-0.31,0.34-0.58,0.73-0.79,1.17c-0.21,0.44-0.38,0.9-0.5,1.38
				c-0.13,0.49-0.23,0.98-0.28,1.48s-0.09,0.96-0.1,1.41v2.2c0.01,0.45,0.04,0.92,0.1,1.42c0.06,0.5,0.15,0.99,0.28,1.47
				c0.13,0.49,0.3,0.96,0.51,1.4s0.47,0.84,0.79,1.17c0.31,0.34,0.69,0.61,1.12,0.81c0.43,0.2,0.93,0.3,1.5,0.3
				c0.57,0,1.07-0.1,1.5-0.3c0.43-0.2,0.81-0.47,1.12-0.81c0.31-0.33,0.56-0.72,0.77-1.16c0.21-0.44,0.37-0.91,0.51-1.4
				c0.12-0.48,0.21-0.97,0.26-1.47c0.05-0.5,0.08-0.98,0.09-1.43v-2.2C228.46,154.5,228.43,154.02,228.38,153.53z"/>
			<path class="st3" d="M237.22,165.6h-2.43V146.5h6.19c0.86,0.02,1.67,0.15,2.43,0.41c0.77,0.25,1.44,0.62,2.01,1.1
				c0.58,0.48,1.03,1.08,1.37,1.78c0.34,0.71,0.51,1.52,0.51,2.44c0,0.92-0.17,1.73-0.51,2.43c-0.34,0.7-0.79,1.3-1.37,1.78
				c-0.58,0.48-1.25,0.85-2.01,1.1c-0.77,0.25-1.58,0.39-2.43,0.39h-3.77V165.6z M240.99,155.95c0.56-0.01,1.08-0.1,1.55-0.27
				c0.47-0.17,0.88-0.41,1.23-0.73c0.35-0.31,0.62-0.7,0.82-1.15s0.3-0.96,0.3-1.54c0-0.58-0.1-1.1-0.3-1.56
				c-0.2-0.46-0.47-0.86-0.81-1.18c-0.35-0.32-0.76-0.57-1.24-0.75c-0.48-0.17-1-0.27-1.56-0.28h-3.77v7.45H240.99z"/>
			<path class="st3" d="M260.38,165.6v-8.83h-7.83v8.83h-2.28V146.5h2.28v8.21h7.83v-8.21h2.3v19.11H260.38z"/>
			<path class="st3" d="M278.37,146.5v2.11h-4.58v14.89h4.58v2.1h-11.55v-2.1h4.47v-14.89h-4.47v-2.11H278.37z"/>
			<path class="st3" d="M295.04,163.54v2.06h-11.77V146.5h2.43v17.05H295.04z"/>
			<path class="st3" d="M310.63,146.5v2.11h-4.58v14.89h4.58v2.1h-11.55v-2.1h4.47v-14.89h-4.47v-2.11H310.63z"/>
			<path class="st3" d="M317.95,160.66l-1.54,4.95h-2.43l6.17-19.11h2.03l6.06,19.11h-2.41l-1.51-4.95H317.95z M323.68,158.55
				l-2.52-8.29l-2.56,8.29H323.68z"/>
			<path class="st3" d="M359.71,159.22c-0.11,0.7-0.28,1.37-0.51,2.01s-0.52,1.25-0.87,1.81c-0.35,0.56-0.78,1.05-1.27,1.47
				c-0.49,0.42-1.05,0.75-1.69,0.99c-0.63,0.24-1.34,0.36-2.13,0.36c-0.79,0-1.5-0.12-2.13-0.36c-0.63-0.24-1.2-0.57-1.69-0.99
				c-0.49-0.42-0.91-0.91-1.27-1.48c-0.36-0.56-0.65-1.17-0.88-1.82c-0.24-0.65-0.41-1.32-0.52-2.01c-0.11-0.69-0.18-1.38-0.18-2.06
				v-2.18c0.01-0.68,0.07-1.37,0.18-2.07c0.11-0.7,0.28-1.37,0.52-2.01c0.23-0.65,0.52-1.25,0.87-1.82
				c0.35-0.56,0.78-1.06,1.27-1.49c0.49-0.42,1.05-0.75,1.69-0.99c0.63-0.24,1.34-0.36,2.13-0.36c0.79,0,1.5,0.12,2.14,0.36
				c0.64,0.24,1.2,0.57,1.69,0.99c0.49,0.42,0.91,0.91,1.27,1.48c0.35,0.56,0.65,1.17,0.89,1.82c0.23,0.65,0.4,1.32,0.51,2.02
				c0.11,0.7,0.17,1.39,0.18,2.07v2.18C359.88,157.84,359.82,158.53,359.71,159.22z M357.39,153.53c-0.05-0.49-0.14-0.99-0.26-1.48
				c-0.13-0.48-0.3-0.94-0.51-1.38c-0.21-0.44-0.47-0.83-0.79-1.17c-0.31-0.33-0.69-0.6-1.12-0.79s-0.93-0.3-1.5-0.3
				c-0.56,0-1.05,0.1-1.48,0.3s-0.8,0.47-1.12,0.8c-0.31,0.34-0.58,0.73-0.79,1.17c-0.21,0.44-0.38,0.9-0.5,1.38
				c-0.13,0.49-0.23,0.98-0.28,1.48s-0.09,0.96-0.1,1.41v2.2c0.01,0.45,0.04,0.92,0.1,1.42c0.06,0.5,0.15,0.99,0.28,1.47
				c0.13,0.49,0.3,0.96,0.51,1.4s0.47,0.84,0.79,1.17c0.31,0.34,0.69,0.61,1.12,0.81c0.43,0.2,0.93,0.3,1.5,0.3
				c0.57,0,1.07-0.1,1.5-0.3c0.43-0.2,0.81-0.47,1.12-0.81c0.31-0.33,0.56-0.72,0.77-1.16c0.21-0.44,0.37-0.91,0.51-1.4
				c0.12-0.48,0.21-0.97,0.26-1.47c0.05-0.5,0.08-0.98,0.09-1.43v-2.2C357.48,154.5,357.44,154.02,357.39,153.53z"/>
			<path class="st3" d="M366.09,157.81v7.79h-2.41V146.5h5.6c0.89,0.02,1.73,0.14,2.52,0.38s1.48,0.59,2.07,1.06
				c0.59,0.47,1.05,1.06,1.38,1.78c0.34,0.71,0.51,1.55,0.51,2.51c0,0.62-0.09,1.19-0.27,1.71s-0.43,0.98-0.74,1.4
				s-0.69,0.79-1.13,1.12c-0.44,0.32-0.92,0.6-1.44,0.83l4.05,8.16l-0.01,0.16h-2.56l-3.75-7.79H366.09z M369.35,155.82
				c0.54-0.01,1.05-0.09,1.54-0.26c0.48-0.16,0.91-0.4,1.27-0.7c0.36-0.31,0.64-0.68,0.85-1.12s0.31-0.95,0.31-1.53
				c0-0.61-0.1-1.15-0.3-1.61c-0.2-0.46-0.48-0.85-0.84-1.16c-0.36-0.31-0.79-0.54-1.28-0.7c-0.49-0.16-1.03-0.24-1.62-0.25h-3.19
				v7.32H369.35z"/>
			<path class="st3" d="M408.09,159.22c-0.11,0.7-0.28,1.37-0.51,2.01s-0.52,1.25-0.87,1.81c-0.35,0.56-0.78,1.05-1.27,1.47
				c-0.49,0.42-1.05,0.75-1.69,0.99c-0.63,0.24-1.34,0.36-2.13,0.36c-0.79,0-1.5-0.12-2.13-0.36c-0.63-0.24-1.2-0.57-1.69-0.99
				c-0.49-0.42-0.91-0.91-1.27-1.48c-0.36-0.56-0.65-1.17-0.88-1.82c-0.24-0.65-0.41-1.32-0.52-2.01c-0.11-0.69-0.18-1.38-0.18-2.06
				v-2.18c0.01-0.68,0.07-1.37,0.18-2.07c0.11-0.7,0.28-1.37,0.52-2.01c0.23-0.65,0.52-1.25,0.87-1.82
				c0.35-0.56,0.78-1.06,1.27-1.49c0.49-0.42,1.05-0.75,1.69-0.99c0.63-0.24,1.34-0.36,2.13-0.36c0.79,0,1.5,0.12,2.14,0.36
				c0.64,0.24,1.2,0.57,1.69,0.99c0.49,0.42,0.91,0.91,1.27,1.48c0.35,0.56,0.65,1.17,0.89,1.82c0.23,0.65,0.4,1.32,0.51,2.02
				c0.11,0.7,0.17,1.39,0.18,2.07v2.18C408.26,157.84,408.2,158.53,408.09,159.22z M405.77,153.53c-0.05-0.49-0.14-0.99-0.26-1.48
				c-0.13-0.48-0.3-0.94-0.51-1.38c-0.21-0.44-0.47-0.83-0.79-1.17c-0.31-0.33-0.69-0.6-1.12-0.79s-0.93-0.3-1.5-0.3
				c-0.56,0-1.05,0.1-1.48,0.3s-0.8,0.47-1.12,0.8c-0.31,0.34-0.58,0.73-0.79,1.17c-0.21,0.44-0.38,0.9-0.5,1.38
				c-0.13,0.49-0.23,0.98-0.28,1.48s-0.09,0.96-0.1,1.41v2.2c0.01,0.45,0.04,0.92,0.1,1.42c0.06,0.5,0.15,0.99,0.28,1.47
				c0.13,0.49,0.3,0.96,0.51,1.4s0.47,0.84,0.79,1.17c0.31,0.34,0.69,0.61,1.12,0.81c0.43,0.2,0.93,0.3,1.5,0.3
				c0.57,0,1.07-0.1,1.5-0.3c0.43-0.2,0.81-0.47,1.12-0.81c0.31-0.33,0.56-0.72,0.77-1.16c0.21-0.44,0.37-0.91,0.51-1.4
				c0.12-0.48,0.21-0.97,0.26-1.47c0.05-0.5,0.08-0.98,0.09-1.43v-2.2C405.86,154.5,405.83,154.02,405.77,153.53z"/>
			<path class="st3" d="M421.56,159.29c-0.27-0.4-0.61-0.74-1.03-1.02c-0.42-0.27-0.88-0.5-1.38-0.68s-0.99-0.35-1.45-0.5
				c-0.67-0.22-1.36-0.48-2.05-0.79s-1.33-0.68-1.9-1.12c-0.58-0.45-1.05-0.97-1.41-1.58c-0.36-0.61-0.54-1.32-0.54-2.15
				s0.18-1.56,0.54-2.2c0.36-0.65,0.84-1.19,1.42-1.64c0.59-0.45,1.25-0.79,1.99-1.02c0.74-0.23,1.49-0.35,2.24-0.35
				c0.83,0,1.63,0.14,2.4,0.41c0.77,0.28,1.45,0.66,2.05,1.16s1.07,1.1,1.43,1.81c0.36,0.71,0.55,1.5,0.56,2.38h-2.49
				c-0.07-0.55-0.21-1.05-0.41-1.5s-0.47-0.84-0.8-1.16c-0.33-0.32-0.73-0.57-1.19-0.75c-0.46-0.18-0.98-0.27-1.56-0.27
				c-0.46,0-0.92,0.07-1.36,0.2c-0.44,0.13-0.83,0.33-1.17,0.59c-0.35,0.26-0.63,0.59-0.83,0.97c-0.21,0.39-0.31,0.83-0.31,1.34
				c0.01,0.55,0.15,1.02,0.42,1.4c0.27,0.38,0.62,0.7,1.04,0.96c0.41,0.26,0.86,0.48,1.35,0.66c0.49,0.17,0.94,0.33,1.37,0.46
				c0.71,0.22,1.42,0.48,2.13,0.79s1.36,0.71,1.94,1.19c0.58,0.45,1.04,0.99,1.4,1.64c0.35,0.65,0.53,1.4,0.53,2.24
				c0,0.86-0.19,1.61-0.57,2.24c-0.38,0.64-0.87,1.17-1.48,1.59c-0.6,0.43-1.29,0.75-2.05,0.96s-1.52,0.32-2.28,0.32
				c-0.91,0-1.8-0.15-2.68-0.46c-0.88-0.31-1.64-0.75-2.29-1.33c-0.58-0.5-1.03-1.08-1.37-1.75s-0.52-1.42-0.54-2.24h2.48
				c0.08,0.6,0.24,1.12,0.49,1.58c0.24,0.46,0.56,0.85,0.94,1.16c0.38,0.32,0.83,0.57,1.33,0.73c0.5,0.16,1.05,0.24,1.65,0.24
				c0.47,0,0.94-0.06,1.4-0.18c0.46-0.12,0.87-0.3,1.23-0.56c0.36-0.24,0.65-0.56,0.88-0.94s0.34-0.83,0.34-1.36
				C421.97,160.19,421.83,159.7,421.56,159.29z"/>
			<path class="st3" d="M433.87,156.05l3.36-9.55h3.02v19.11h-2.36v-7.62l0.2-7.98l-3.53,10.29h-1.39l-3.24-10.01l0.2,7.7v7.62
				h-2.36V146.5h3L433.87,156.05z"/>
			<path class="st3" d="M456.47,159.22c-0.11,0.7-0.28,1.37-0.51,2.01s-0.52,1.25-0.87,1.81c-0.35,0.56-0.78,1.05-1.27,1.47
				c-0.49,0.42-1.05,0.75-1.69,0.99c-0.63,0.24-1.34,0.36-2.13,0.36s-1.5-0.12-2.13-0.36c-0.63-0.24-1.2-0.57-1.69-0.99
				c-0.49-0.42-0.91-0.91-1.27-1.48c-0.36-0.56-0.65-1.17-0.88-1.82c-0.24-0.65-0.41-1.32-0.52-2.01c-0.11-0.69-0.18-1.38-0.18-2.06
				v-2.18c0.01-0.68,0.07-1.37,0.18-2.07c0.11-0.7,0.28-1.37,0.52-2.01c0.23-0.65,0.52-1.25,0.87-1.82
				c0.35-0.56,0.78-1.06,1.27-1.49c0.49-0.42,1.05-0.75,1.69-0.99c0.63-0.24,1.34-0.36,2.13-0.36c0.79,0,1.5,0.12,2.14,0.36
				c0.64,0.24,1.2,0.57,1.69,0.99c0.49,0.42,0.91,0.91,1.27,1.48c0.35,0.56,0.65,1.17,0.89,1.82c0.23,0.65,0.4,1.32,0.51,2.02
				c0.11,0.7,0.17,1.39,0.18,2.07v2.18C456.64,157.84,456.58,158.53,456.47,159.22z M454.15,153.53c-0.05-0.49-0.14-0.99-0.26-1.48
				c-0.13-0.48-0.3-0.94-0.51-1.38c-0.21-0.44-0.47-0.83-0.79-1.17c-0.31-0.33-0.69-0.6-1.12-0.79s-0.93-0.3-1.5-0.3
				c-0.56,0-1.05,0.1-1.48,0.3s-0.8,0.47-1.12,0.8c-0.31,0.34-0.58,0.73-0.79,1.17c-0.21,0.44-0.38,0.9-0.5,1.38
				c-0.13,0.49-0.23,0.98-0.28,1.48s-0.09,0.96-0.1,1.41v2.2c0.01,0.45,0.04,0.92,0.1,1.42c0.06,0.5,0.15,0.99,0.28,1.47
				c0.13,0.49,0.3,0.96,0.51,1.4s0.47,0.84,0.79,1.17c0.31,0.34,0.69,0.61,1.12,0.81c0.43,0.2,0.93,0.3,1.5,0.3s1.07-0.1,1.5-0.3
				c0.43-0.2,0.81-0.47,1.12-0.81c0.31-0.33,0.56-0.72,0.77-1.16c0.21-0.44,0.37-0.91,0.51-1.4c0.12-0.48,0.21-0.97,0.26-1.47
				c0.05-0.5,0.08-0.98,0.08-1.43v-2.2C454.24,154.5,454.21,154.02,454.15,153.53z"/>
			<path class="st3" d="M472.43,163.54v2.06h-11.77V146.5h2.43v17.05H472.43z"/>
			<path class="st3" d="M479.22,160.66l-1.54,4.95h-2.43l6.17-19.11h2.03l6.06,19.11h-2.41l-1.51-4.95H479.22z M484.95,158.55
				l-2.52-8.29l-2.56,8.29H484.95z"/>
			<path class="st3" d="M504.02,164.05c-0.33,0.28-0.68,0.53-1.04,0.74c-0.61,0.37-1.27,0.64-1.98,0.82
				c-0.71,0.18-1.45,0.26-2.23,0.26c-0.79-0.01-1.51-0.13-2.17-0.36c-0.66-0.23-1.25-0.55-1.78-0.96c-0.53-0.4-0.98-0.88-1.38-1.43
				s-0.72-1.15-0.98-1.8c-0.27-0.64-0.47-1.31-0.61-2.01c-0.14-0.7-0.21-1.42-0.22-2.13v-2.22c0.01-0.71,0.07-1.41,0.19-2.12
				c0.12-0.7,0.3-1.38,0.54-2.03c0.25-0.65,0.55-1.25,0.92-1.8c0.37-0.56,0.81-1.04,1.33-1.45c0.51-0.4,1.08-0.72,1.73-0.96
				c0.65-0.24,1.37-0.35,2.18-0.35c0.89,0,1.71,0.14,2.47,0.41c0.75,0.28,1.41,0.67,1.97,1.17c0.56,0.52,1.01,1.14,1.35,1.86
				c0.34,0.72,0.55,1.53,0.63,2.42h-2.4c-0.1-0.55-0.25-1.06-0.45-1.53c-0.2-0.47-0.46-0.87-0.79-1.2
				c-0.33-0.33-0.73-0.59-1.18-0.78c-0.46-0.19-0.98-0.28-1.59-0.28c-0.58,0-1.09,0.1-1.54,0.3c-0.45,0.2-0.83,0.46-1.17,0.79
				c-0.33,0.33-0.61,0.72-0.83,1.16c-0.22,0.44-0.4,0.91-0.54,1.4c-0.14,0.49-0.24,0.99-0.3,1.5s-0.09,1-0.09,1.47v2.24
				c0.01,0.48,0.05,0.98,0.12,1.49c0.07,0.51,0.19,1.01,0.35,1.5c0.16,0.49,0.36,0.95,0.6,1.39c0.24,0.44,0.54,0.82,0.89,1.15
				c0.34,0.33,0.74,0.6,1.19,0.79s0.97,0.3,1.55,0.31c0.33,0.01,0.68,0,1.04-0.04c0.36-0.04,0.71-0.1,1.06-0.21
				c0.34-0.1,0.66-0.25,0.96-0.43c0.3-0.18,0.55-0.41,0.75-0.7l0.03-4.29h-3.88v-2.05h6.19l0.04,7.01
				C504.66,163.45,504.35,163.77,504.02,164.05z"/>
			<path class="st3" d="M518.23,165.6l-7.41-14.28l-0.04,14.28h-2.45V146.5h2.47l7.41,14.25l0.04-14.25h2.45v19.11H518.23z"/>
			<path class="st3" d="M536.4,146.5v2.11h-4.58v14.89h4.58v2.1h-11.55v-2.1h4.47v-14.89h-4.47v-2.11H536.4z"/>
			<path class="st3" d="M543.72,160.66l-1.54,4.95h-2.43l6.17-19.11h2.03l6.06,19.11h-2.41l-1.51-4.95H543.72z M549.46,158.55
				l-2.52-8.29l-2.56,8.29H549.46z"/>
			<path class="st3" d="M584.78,146.5v2.11h-4.58v14.89h4.58v2.1h-11.55v-2.1h4.47v-14.89h-4.47v-2.11H584.78z"/>
			<path class="st3" d="M598.96,159.29c-0.27-0.4-0.61-0.74-1.03-1.02c-0.42-0.27-0.88-0.5-1.38-0.68s-0.99-0.35-1.45-0.5
				c-0.67-0.22-1.36-0.48-2.05-0.79s-1.33-0.68-1.9-1.12c-0.58-0.45-1.05-0.97-1.41-1.58s-0.54-1.32-0.54-2.15s0.18-1.56,0.54-2.2
				c0.36-0.65,0.84-1.19,1.42-1.64s1.25-0.79,1.99-1.02c0.74-0.23,1.49-0.35,2.24-0.35c0.83,0,1.63,0.14,2.4,0.41
				c0.77,0.28,1.45,0.66,2.05,1.16s1.07,1.1,1.43,1.81c0.36,0.71,0.55,1.5,0.56,2.38h-2.49c-0.07-0.55-0.21-1.05-0.41-1.5
				s-0.47-0.84-0.8-1.16c-0.33-0.32-0.73-0.57-1.19-0.75c-0.46-0.18-0.98-0.27-1.55-0.27c-0.46,0-0.92,0.07-1.36,0.2
				c-0.44,0.13-0.83,0.33-1.17,0.59c-0.35,0.26-0.63,0.59-0.83,0.97c-0.21,0.39-0.31,0.83-0.31,1.34c0.01,0.55,0.15,1.02,0.42,1.4
				c0.27,0.38,0.62,0.7,1.04,0.96c0.41,0.26,0.86,0.48,1.34,0.66c0.49,0.17,0.94,0.33,1.37,0.46c0.71,0.22,1.42,0.48,2.12,0.79
				c0.71,0.31,1.36,0.71,1.94,1.19c0.58,0.45,1.04,0.99,1.4,1.64c0.35,0.65,0.53,1.4,0.53,2.24c0,0.86-0.19,1.61-0.57,2.24
				c-0.38,0.64-0.87,1.17-1.48,1.59c-0.6,0.43-1.29,0.75-2.05,0.96s-1.52,0.32-2.28,0.32c-0.91,0-1.8-0.15-2.68-0.46
				s-1.64-0.75-2.29-1.33c-0.58-0.5-1.03-1.08-1.37-1.75s-0.52-1.42-0.54-2.24h2.48c0.08,0.6,0.24,1.12,0.49,1.58
				c0.25,0.46,0.56,0.85,0.95,1.16c0.38,0.32,0.83,0.57,1.33,0.73c0.5,0.16,1.05,0.24,1.65,0.24c0.47,0,0.94-0.06,1.4-0.18
				c0.46-0.12,0.87-0.3,1.23-0.56c0.36-0.24,0.65-0.56,0.88-0.94c0.23-0.38,0.34-0.83,0.34-1.36
				C599.36,160.19,599.23,159.7,598.96,159.29z"/>
			<path class="st3" d="M624.36,160.66l-1.54,4.95h-2.43l6.17-19.11h2.03l6.06,19.11h-2.41l-1.51-4.95H624.36z M630.09,158.55
				l-2.52-8.29l-2.56,8.29H630.09z"/>
			<path class="st3" d="M656.52,165.6h-2.43V146.5h6.19c0.86,0.02,1.67,0.15,2.43,0.41s1.44,0.62,2.01,1.1
				c0.58,0.48,1.03,1.08,1.37,1.78s0.5,1.52,0.5,2.44c0,0.92-0.17,1.73-0.5,2.43s-0.79,1.3-1.37,1.78c-0.58,0.48-1.25,0.85-2.01,1.1
				c-0.77,0.25-1.58,0.39-2.43,0.39h-3.77V165.6z M660.29,155.95c0.56-0.01,1.08-0.1,1.55-0.27s0.88-0.41,1.23-0.73
				s0.62-0.7,0.82-1.15c0.2-0.45,0.29-0.96,0.29-1.54c0-0.58-0.1-1.1-0.29-1.56c-0.2-0.46-0.47-0.86-0.81-1.18
				c-0.35-0.32-0.76-0.57-1.24-0.75s-1-0.27-1.55-0.28h-3.77v7.45H660.29z"/>
			<path class="st3" d="M672.74,160.66l-1.54,4.95h-2.43l6.17-19.11h2.03l6.06,19.11h-2.41l-1.51-4.95H672.74z M678.47,158.55
				l-2.52-8.29l-2.56,8.29H678.47z"/>
			<path class="st3" d="M688.63,157.81v7.79h-2.41V146.5h5.6c0.89,0.02,1.73,0.14,2.52,0.38c0.79,0.24,1.48,0.59,2.07,1.06
				c0.59,0.47,1.05,1.06,1.38,1.78c0.34,0.71,0.5,1.55,0.5,2.51c0,0.62-0.09,1.19-0.27,1.71s-0.43,0.98-0.74,1.4
				c-0.32,0.42-0.69,0.79-1.13,1.12s-0.92,0.6-1.44,0.83l4.05,8.16l-0.01,0.16h-2.56l-3.75-7.79H688.63z M691.88,155.82
				c0.54-0.01,1.05-0.09,1.54-0.26c0.48-0.16,0.91-0.4,1.27-0.7c0.36-0.31,0.64-0.68,0.85-1.12s0.31-0.95,0.31-1.53
				c0-0.61-0.1-1.15-0.3-1.61c-0.2-0.46-0.48-0.85-0.84-1.16c-0.36-0.31-0.79-0.54-1.28-0.7c-0.49-0.16-1.03-0.24-1.62-0.25h-3.19
				v7.32H691.88z"/>
			<path class="st3" d="M704.99,160.66l-1.54,4.95h-2.43l6.17-19.11h2.03l6.06,19.11h-2.41l-1.51-4.95H704.99z M710.73,158.55
				l-2.52-8.29l-2.56,8.29H710.73z"/>
			<path class="st3" d="M721.03,165.6h-2.43V146.5h6.19c0.86,0.02,1.67,0.15,2.43,0.41s1.44,0.62,2.01,1.1
				c0.58,0.48,1.03,1.08,1.37,1.78s0.5,1.52,0.5,2.44c0,0.92-0.17,1.73-0.5,2.43s-0.79,1.3-1.37,1.78c-0.58,0.48-1.25,0.85-2.01,1.1
				c-0.77,0.25-1.58,0.39-2.43,0.39h-3.77V165.6z M724.79,155.95c0.56-0.01,1.08-0.1,1.55-0.27s0.88-0.41,1.23-0.73
				s0.62-0.7,0.82-1.15c0.2-0.45,0.29-0.96,0.29-1.54c0-0.58-0.1-1.1-0.29-1.56c-0.2-0.46-0.47-0.86-0.81-1.18
				c-0.35-0.32-0.76-0.57-1.24-0.75s-1-0.27-1.55-0.28h-3.77v7.45H724.79z"/>
			<path class="st3" d="M744.19,165.6v-8.83h-7.83v8.83h-2.28V146.5h2.28v8.21h7.83v-8.21h2.3v19.11H744.19z"/>
			<path class="st3" d="M762.18,146.5v2.11h-4.58v14.89h4.58v2.1h-11.55v-2.1h4.47v-14.89h-4.47v-2.11H762.18z"/>
			<path class="st3" d="M778.84,163.54v2.06h-11.77V146.5h2.43v17.05H778.84z"/>
			<path class="st3" d="M794.43,146.5v2.11h-4.58v14.89h4.58v2.1h-11.55v-2.1h4.47v-14.89h-4.47v-2.11H794.43z"/>
			<path class="st3" d="M801.75,160.66l-1.54,4.95h-2.43l6.17-19.11h2.03l6.06,19.11h-2.41l-1.51-4.95H801.75z M807.49,158.55
				l-2.52-8.29l-2.56,8.29H807.49z"/>
			<path class="st3" d="M124.36,189.42v8.44h-2.45v-19.11h11.73v2.07h-9.28v6.53h7.95v2.06H124.36z"/>
			<path class="st3" d="M150.06,191.47c-0.11,0.7-0.28,1.37-0.51,2.01s-0.52,1.25-0.87,1.81s-0.78,1.05-1.27,1.47
				c-0.49,0.42-1.05,0.75-1.69,0.99s-1.34,0.36-2.13,0.36c-0.79,0-1.5-0.12-2.13-0.36s-1.2-0.57-1.69-0.99s-0.91-0.91-1.27-1.48
				c-0.36-0.56-0.65-1.17-0.88-1.82c-0.24-0.65-0.41-1.32-0.52-2.01c-0.11-0.69-0.18-1.38-0.18-2.06v-2.18
				c0.01-0.68,0.07-1.37,0.18-2.07c0.11-0.7,0.28-1.37,0.52-2.01c0.23-0.65,0.52-1.25,0.87-1.82c0.35-0.56,0.78-1.06,1.27-1.49
				c0.49-0.42,1.05-0.75,1.69-0.99c0.63-0.24,1.34-0.36,2.13-0.36c0.79,0,1.5,0.12,2.14,0.36c0.64,0.24,1.2,0.57,1.69,0.99
				c0.49,0.42,0.91,0.91,1.27,1.48c0.35,0.56,0.65,1.17,0.89,1.82c0.23,0.65,0.4,1.32,0.51,2.02c0.11,0.7,0.17,1.39,0.18,2.07v2.18
				C150.23,190.09,150.17,190.77,150.06,191.47z M147.74,185.77c-0.05-0.49-0.14-0.99-0.26-1.48c-0.13-0.48-0.3-0.94-0.51-1.38
				c-0.21-0.44-0.47-0.83-0.79-1.17c-0.31-0.33-0.69-0.6-1.12-0.79s-0.93-0.3-1.5-0.3c-0.56,0-1.05,0.1-1.48,0.3s-0.8,0.47-1.12,0.8
				c-0.31,0.34-0.58,0.73-0.79,1.17c-0.21,0.44-0.38,0.9-0.5,1.38c-0.13,0.49-0.23,0.98-0.28,1.48s-0.09,0.96-0.1,1.41v2.21
				c0.01,0.45,0.04,0.92,0.1,1.42s0.15,0.99,0.28,1.47c0.13,0.49,0.3,0.96,0.51,1.4s0.47,0.83,0.79,1.17
				c0.31,0.34,0.69,0.61,1.12,0.81c0.43,0.2,0.93,0.3,1.5,0.3c0.57,0,1.07-0.1,1.5-0.3c0.43-0.2,0.81-0.47,1.12-0.81
				c0.31-0.33,0.56-0.72,0.77-1.16c0.21-0.44,0.37-0.91,0.51-1.4c0.12-0.48,0.21-0.97,0.26-1.47c0.05-0.5,0.08-0.98,0.09-1.43v-2.21
				C147.83,186.74,147.79,186.27,147.74,185.77z"/>
			<path class="st3" d="M156.44,190.06v7.79h-2.41v-19.11h5.6c0.89,0.02,1.73,0.14,2.52,0.38s1.48,0.59,2.07,1.06
				c0.59,0.47,1.05,1.06,1.38,1.78c0.34,0.71,0.51,1.55,0.51,2.51c0,0.62-0.09,1.19-0.27,1.71s-0.43,0.98-0.74,1.4
				s-0.69,0.79-1.13,1.12c-0.44,0.32-0.92,0.6-1.44,0.83l4.05,8.16l-0.01,0.16h-2.56l-3.75-7.79H156.44z M159.7,188.06
				c0.54-0.01,1.05-0.09,1.54-0.26c0.48-0.16,0.91-0.4,1.27-0.7c0.36-0.31,0.64-0.68,0.85-1.12s0.31-0.95,0.31-1.53
				c0-0.61-0.1-1.15-0.3-1.61c-0.2-0.46-0.48-0.85-0.84-1.16c-0.36-0.31-0.79-0.54-1.28-0.7c-0.49-0.16-1.03-0.24-1.62-0.25h-3.19
				v7.32H159.7z"/>
			<path class="st3" d="M175.6,199.97c-0.41,0.91-0.97,1.68-1.67,2.3l-1.51-0.83c0.42-0.61,0.72-1.26,0.89-1.96
				c0.17-0.69,0.26-1.41,0.26-2.15v-2.35h2.64v2.31C176.22,198.16,176.01,199.06,175.6,199.97z"/>
			<path class="st3" d="M214.57,191.47c-0.11,0.7-0.28,1.37-0.51,2.01s-0.52,1.25-0.87,1.81s-0.78,1.05-1.27,1.47
				c-0.49,0.42-1.05,0.75-1.69,0.99s-1.34,0.36-2.13,0.36c-0.79,0-1.5-0.12-2.13-0.36s-1.2-0.57-1.69-0.99s-0.91-0.91-1.27-1.48
				c-0.36-0.56-0.65-1.17-0.88-1.82c-0.24-0.65-0.41-1.32-0.52-2.01c-0.11-0.69-0.18-1.38-0.18-2.06v-2.18
				c0.01-0.68,0.07-1.37,0.18-2.07c0.11-0.7,0.28-1.37,0.52-2.01c0.23-0.65,0.52-1.25,0.87-1.82c0.35-0.56,0.78-1.06,1.27-1.49
				c0.49-0.42,1.05-0.75,1.69-0.99c0.63-0.24,1.34-0.36,2.13-0.36c0.79,0,1.5,0.12,2.14,0.36c0.64,0.24,1.2,0.57,1.69,0.99
				c0.49,0.42,0.91,0.91,1.27,1.48c0.35,0.56,0.65,1.17,0.89,1.82c0.23,0.65,0.4,1.32,0.51,2.02c0.11,0.7,0.17,1.39,0.18,2.07v2.18
				C214.73,190.09,214.68,190.77,214.57,191.47z M212.25,185.77c-0.05-0.49-0.14-0.99-0.26-1.48c-0.13-0.48-0.3-0.94-0.51-1.38
				c-0.21-0.44-0.47-0.83-0.79-1.17c-0.31-0.33-0.69-0.6-1.12-0.79s-0.93-0.3-1.5-0.3c-0.56,0-1.05,0.1-1.48,0.3s-0.8,0.47-1.12,0.8
				c-0.31,0.34-0.58,0.73-0.79,1.17c-0.21,0.44-0.38,0.9-0.5,1.38c-0.13,0.49-0.23,0.98-0.28,1.48s-0.09,0.96-0.1,1.41v2.21
				c0.01,0.45,0.04,0.92,0.1,1.42s0.15,0.99,0.28,1.47c0.13,0.49,0.3,0.96,0.51,1.4s0.47,0.83,0.79,1.17
				c0.31,0.34,0.69,0.61,1.12,0.81c0.43,0.2,0.93,0.3,1.5,0.3c0.57,0,1.07-0.1,1.5-0.3c0.43-0.2,0.81-0.47,1.12-0.81
				c0.31-0.33,0.56-0.72,0.77-1.16c0.21-0.44,0.37-0.91,0.51-1.4c0.12-0.48,0.21-0.97,0.26-1.47c0.05-0.5,0.08-0.98,0.09-1.43v-2.21
				C212.33,186.74,212.3,186.27,212.25,185.77z"/>
			<path class="st3" d="M220.95,190.06v7.79h-2.41v-19.11h5.6c0.89,0.02,1.73,0.14,2.52,0.38s1.48,0.59,2.07,1.06
				c0.59,0.47,1.05,1.06,1.38,1.78c0.34,0.71,0.51,1.55,0.51,2.51c0,0.62-0.09,1.19-0.27,1.71s-0.43,0.98-0.74,1.4
				s-0.69,0.79-1.13,1.12c-0.44,0.32-0.92,0.6-1.44,0.83l4.05,8.16l-0.01,0.16h-2.56l-3.75-7.79H220.95z M224.2,188.06
				c0.54-0.01,1.05-0.09,1.54-0.26c0.48-0.16,0.91-0.4,1.27-0.7c0.36-0.31,0.64-0.68,0.85-1.12s0.31-0.95,0.31-1.53
				c0-0.61-0.1-1.15-0.3-1.61c-0.2-0.46-0.48-0.85-0.84-1.16c-0.36-0.31-0.79-0.54-1.28-0.7c-0.49-0.16-1.03-0.24-1.62-0.25h-3.19
				v7.32H224.2z"/>
			<path class="st3" d="M260.3,191.54c-0.27-0.4-0.61-0.74-1.03-1.02c-0.42-0.27-0.88-0.5-1.38-0.68s-0.99-0.35-1.45-0.5
				c-0.67-0.22-1.36-0.48-2.05-0.79s-1.33-0.68-1.9-1.12c-0.58-0.45-1.05-0.97-1.41-1.58c-0.36-0.61-0.54-1.32-0.54-2.15
				s0.18-1.56,0.54-2.2c0.36-0.65,0.84-1.19,1.42-1.64c0.59-0.45,1.25-0.79,1.99-1.02c0.74-0.23,1.49-0.35,2.24-0.35
				c0.83,0,1.63,0.14,2.4,0.41c0.77,0.28,1.45,0.66,2.05,1.16s1.07,1.1,1.43,1.81c0.36,0.71,0.55,1.5,0.56,2.38h-2.49
				c-0.07-0.55-0.21-1.05-0.41-1.5s-0.47-0.84-0.8-1.16c-0.33-0.32-0.73-0.57-1.19-0.75c-0.46-0.18-0.98-0.27-1.56-0.27
				c-0.46,0-0.92,0.07-1.36,0.2c-0.44,0.13-0.83,0.33-1.17,0.59c-0.35,0.26-0.63,0.59-0.83,0.97c-0.21,0.39-0.31,0.83-0.31,1.34
				c0.01,0.55,0.15,1.02,0.42,1.4c0.27,0.38,0.62,0.7,1.04,0.96c0.41,0.26,0.86,0.48,1.35,0.66c0.49,0.17,0.94,0.33,1.37,0.46
				c0.71,0.22,1.42,0.48,2.13,0.79s1.36,0.71,1.94,1.19c0.58,0.45,1.04,0.99,1.4,1.64c0.35,0.65,0.53,1.4,0.53,2.24
				c0,0.86-0.19,1.61-0.57,2.24c-0.38,0.64-0.87,1.17-1.48,1.59c-0.6,0.43-1.29,0.75-2.05,0.96c-0.76,0.21-1.52,0.32-2.28,0.32
				c-0.91,0-1.8-0.15-2.68-0.46c-0.88-0.31-1.64-0.75-2.29-1.33c-0.58-0.5-1.03-1.08-1.37-1.75c-0.34-0.67-0.52-1.42-0.54-2.24h2.48
				c0.08,0.59,0.24,1.12,0.49,1.58c0.24,0.46,0.56,0.85,0.94,1.16c0.38,0.32,0.83,0.57,1.33,0.73c0.5,0.16,1.05,0.24,1.65,0.24
				c0.47,0,0.94-0.06,1.4-0.18s0.87-0.3,1.23-0.56c0.36-0.25,0.65-0.56,0.88-0.94c0.23-0.38,0.34-0.83,0.34-1.36
				C260.7,192.44,260.56,191.94,260.3,191.54z"/>
			<path class="st3" d="M269.36,189.02v6.77h9.3v2.06h-11.73v-19.11h11.61v2.07h-9.19v6.14h7.98v2.06H269.36z"/>
			<path class="st3" d="M292.99,178.75h2.86l-5.55,9.47l5.68,9.63h-2.83l-4.23-7.64l-4.24,7.64h-2.87l5.69-9.63l-5.55-9.47h2.85
				l4.07,7.49L292.99,178.75z"/>
			<path class="st3" d="M311.1,191.69c0,0.89-0.16,1.73-0.47,2.51c-0.31,0.78-0.75,1.46-1.3,2.03c-0.55,0.59-1.21,1.05-1.97,1.38
				c-0.76,0.34-1.6,0.51-2.51,0.51c-0.93,0-1.77-0.17-2.53-0.5s-1.41-0.79-1.96-1.38c-0.54-0.58-0.97-1.26-1.27-2.04
				s-0.46-1.62-0.47-2.51l0.03-12.94h2.31l0.05,12.94c0.01,0.57,0.1,1.12,0.27,1.64c0.17,0.52,0.42,0.99,0.74,1.39
				c0.31,0.4,0.71,0.73,1.19,0.97c0.48,0.25,1.03,0.37,1.65,0.37c0.62,0,1.17-0.12,1.64-0.36c0.47-0.24,0.87-0.57,1.19-0.98
				c0.31-0.4,0.56-0.87,0.72-1.39c0.17-0.53,0.26-1.07,0.28-1.64l0.04-12.94h2.35L311.1,191.69z"/>
			<path class="st3" d="M317.95,192.91l-1.54,4.95h-2.43l6.17-19.11h2.03l6.06,19.11h-2.41l-1.51-4.95H317.95z M323.68,190.79
				l-2.52-8.29l-2.56,8.29H323.68z"/>
			<path class="st3" d="M343.42,195.79v2.06h-11.77v-19.11h2.43v17.05H343.42z"/>
			<path class="st3" d="M366.33,192.91l-1.54,4.95h-2.43l6.17-19.11h2.03l6.06,19.11h-2.41l-1.51-4.95H366.33z M372.06,190.79
				l-2.52-8.29l-2.56,8.29H372.06z"/>
			<path class="st3" d="M382.22,190.06v7.79h-2.41v-19.11h5.6c0.89,0.02,1.73,0.14,2.52,0.38s1.48,0.59,2.07,1.06
				c0.59,0.47,1.05,1.06,1.38,1.78c0.34,0.71,0.51,1.55,0.51,2.51c0,0.62-0.09,1.19-0.27,1.71s-0.43,0.98-0.74,1.4
				s-0.69,0.79-1.13,1.12c-0.44,0.32-0.92,0.6-1.44,0.83l4.05,8.16l-0.01,0.16h-2.56l-3.75-7.79H382.22z M385.47,188.06
				c0.54-0.01,1.05-0.09,1.54-0.26c0.48-0.16,0.91-0.4,1.27-0.7c0.36-0.31,0.64-0.68,0.85-1.12s0.31-0.95,0.31-1.53
				c0-0.61-0.1-1.15-0.3-1.61c-0.2-0.46-0.48-0.85-0.84-1.16c-0.36-0.31-0.79-0.54-1.28-0.7c-0.49-0.16-1.03-0.24-1.62-0.25h-3.19
				v7.32H385.47z"/>
			<path class="st3" d="M408.09,191.47c-0.11,0.7-0.28,1.37-0.51,2.01s-0.52,1.25-0.87,1.81s-0.78,1.05-1.27,1.47
				c-0.49,0.42-1.05,0.75-1.69,0.99s-1.34,0.36-2.13,0.36c-0.79,0-1.5-0.12-2.13-0.36s-1.2-0.57-1.69-0.99s-0.91-0.91-1.27-1.48
				c-0.36-0.56-0.65-1.17-0.88-1.82c-0.24-0.65-0.41-1.32-0.52-2.01c-0.11-0.69-0.18-1.38-0.18-2.06v-2.18
				c0.01-0.68,0.07-1.37,0.18-2.07c0.11-0.7,0.28-1.37,0.52-2.01c0.23-0.65,0.52-1.25,0.87-1.82c0.35-0.56,0.78-1.06,1.27-1.49
				c0.49-0.42,1.05-0.75,1.69-0.99c0.63-0.24,1.34-0.36,2.13-0.36c0.79,0,1.5,0.12,2.14,0.36c0.64,0.24,1.2,0.57,1.69,0.99
				c0.49,0.42,0.91,0.91,1.27,1.48c0.35,0.56,0.65,1.17,0.89,1.82c0.23,0.65,0.4,1.32,0.51,2.02c0.11,0.7,0.17,1.39,0.18,2.07v2.18
				C408.26,190.09,408.2,190.77,408.09,191.47z M405.77,185.77c-0.05-0.49-0.14-0.99-0.26-1.48c-0.13-0.48-0.3-0.94-0.51-1.38
				c-0.21-0.44-0.47-0.83-0.79-1.17c-0.31-0.33-0.69-0.6-1.12-0.79s-0.93-0.3-1.5-0.3c-0.56,0-1.05,0.1-1.48,0.3s-0.8,0.47-1.12,0.8
				c-0.31,0.34-0.58,0.73-0.79,1.17c-0.21,0.44-0.38,0.9-0.5,1.38c-0.13,0.49-0.23,0.98-0.28,1.48s-0.09,0.96-0.1,1.41v2.21
				c0.01,0.45,0.04,0.92,0.1,1.42s0.15,0.99,0.28,1.47c0.13,0.49,0.3,0.96,0.51,1.4s0.47,0.83,0.79,1.17
				c0.31,0.34,0.69,0.61,1.12,0.81c0.43,0.2,0.93,0.3,1.5,0.3c0.57,0,1.07-0.1,1.5-0.3c0.43-0.2,0.81-0.47,1.12-0.81
				c0.31-0.33,0.56-0.72,0.77-1.16c0.21-0.44,0.37-0.91,0.51-1.4c0.12-0.48,0.21-0.97,0.26-1.47c0.05-0.5,0.08-0.98,0.09-1.43v-2.21
				C405.86,186.74,405.83,186.27,405.77,185.77z"/>
			<path class="st3" d="M423.99,191.69c0,0.89-0.16,1.73-0.47,2.51c-0.31,0.78-0.75,1.46-1.3,2.03c-0.55,0.59-1.21,1.05-1.97,1.38
				c-0.76,0.34-1.6,0.51-2.51,0.51c-0.93,0-1.77-0.17-2.53-0.5s-1.41-0.79-1.96-1.38c-0.54-0.58-0.97-1.26-1.27-2.04
				s-0.46-1.62-0.47-2.51l0.03-12.94h2.31l0.05,12.94c0.01,0.57,0.1,1.12,0.27,1.64c0.17,0.52,0.42,0.99,0.74,1.39
				c0.31,0.4,0.71,0.73,1.19,0.97c0.48,0.25,1.03,0.37,1.65,0.37c0.62,0,1.17-0.12,1.64-0.36c0.47-0.24,0.87-0.57,1.19-0.98
				c0.31-0.4,0.56-0.87,0.72-1.39c0.17-0.53,0.26-1.07,0.28-1.64l0.04-12.94h2.35L423.99,191.69z"/>
			<path class="st3" d="M437.69,191.54c-0.27-0.4-0.61-0.74-1.03-1.02c-0.42-0.27-0.88-0.5-1.38-0.68s-0.99-0.35-1.45-0.5
				c-0.67-0.22-1.36-0.48-2.05-0.79s-1.33-0.68-1.9-1.12c-0.58-0.45-1.05-0.97-1.41-1.58c-0.36-0.61-0.54-1.32-0.54-2.15
				s0.18-1.56,0.54-2.2c0.36-0.65,0.84-1.19,1.42-1.64c0.59-0.45,1.25-0.79,1.99-1.02c0.74-0.23,1.49-0.35,2.24-0.35
				c0.83,0,1.63,0.14,2.4,0.41c0.77,0.28,1.45,0.66,2.05,1.16s1.07,1.1,1.43,1.81c0.36,0.71,0.55,1.5,0.56,2.38h-2.49
				c-0.07-0.55-0.21-1.05-0.41-1.5s-0.47-0.84-0.8-1.16c-0.33-0.32-0.73-0.57-1.19-0.75c-0.46-0.18-0.98-0.27-1.56-0.27
				c-0.46,0-0.92,0.07-1.36,0.2c-0.44,0.13-0.83,0.33-1.17,0.59c-0.35,0.26-0.63,0.59-0.83,0.97c-0.21,0.39-0.31,0.83-0.31,1.34
				c0.01,0.55,0.15,1.02,0.42,1.4c0.27,0.38,0.62,0.7,1.04,0.96c0.41,0.26,0.86,0.48,1.35,0.66c0.49,0.17,0.94,0.33,1.37,0.46
				c0.71,0.22,1.42,0.48,2.13,0.79s1.36,0.71,1.94,1.19c0.58,0.45,1.04,0.99,1.4,1.64c0.35,0.65,0.53,1.4,0.53,2.24
				c0,0.86-0.19,1.61-0.57,2.24c-0.38,0.64-0.87,1.17-1.48,1.59c-0.6,0.43-1.29,0.75-2.05,0.96c-0.76,0.21-1.52,0.32-2.28,0.32
				c-0.91,0-1.8-0.15-2.68-0.46c-0.88-0.31-1.64-0.75-2.29-1.33c-0.58-0.5-1.03-1.08-1.37-1.75c-0.34-0.67-0.52-1.42-0.54-2.24h2.48
				c0.08,0.59,0.24,1.12,0.49,1.58c0.24,0.46,0.56,0.85,0.94,1.16c0.38,0.32,0.83,0.57,1.33,0.73c0.5,0.16,1.05,0.24,1.65,0.24
				c0.47,0,0.94-0.06,1.4-0.18s0.87-0.3,1.23-0.56c0.36-0.25,0.65-0.56,0.88-0.94c0.23-0.38,0.34-0.83,0.34-1.36
				C438.09,192.44,437.96,191.94,437.69,191.54z"/>
			<path class="st3" d="M446.96,192.91l-1.54,4.95H443l6.17-19.11h2.03l6.06,19.11h-2.42l-1.51-4.95H446.96z M452.7,190.79
				l-2.52-8.29l-2.56,8.29H452.7z"/>
			<path class="st3" d="M472.43,195.79v2.06h-11.77v-19.11h2.43v17.05H472.43z"/>
			<path class="st3" d="M492.57,178.75h5.68c0.79,0.01,1.56,0.11,2.31,0.31c0.75,0.2,1.42,0.5,2.01,0.91s1.05,0.94,1.4,1.57
				c0.35,0.64,0.52,1.4,0.51,2.3c-0.01,0.5-0.09,0.95-0.24,1.36s-0.36,0.78-0.62,1.1c-0.27,0.33-0.57,0.61-0.9,0.84
				s-0.72,0.44-1.19,0.64v0.04c0.48,0.11,0.94,0.32,1.39,0.62c0.45,0.3,0.81,0.63,1.1,0.98c0.31,0.39,0.54,0.83,0.71,1.33
				s0.26,1.02,0.26,1.59c0.01,0.89-0.16,1.68-0.51,2.36c-0.35,0.68-0.82,1.25-1.4,1.71c-0.59,0.46-1.26,0.82-2.03,1.06
				c-0.77,0.25-1.55,0.37-2.37,0.38h-6.12V178.75z M498.4,186.9c0.46-0.01,0.9-0.08,1.34-0.22s0.83-0.33,1.17-0.6
				c0.34-0.25,0.62-0.57,0.83-0.94c0.21-0.38,0.32-0.81,0.32-1.31c0-0.53-0.1-0.99-0.31-1.36c-0.21-0.38-0.48-0.69-0.82-0.93
				c-0.35-0.24-0.75-0.41-1.2-0.52c-0.45-0.11-0.91-0.17-1.38-0.18h-3.32v6.08H498.4z M495.01,195.79h3.74
				c0.51-0.01,0.99-0.09,1.44-0.26c0.46-0.16,0.86-0.39,1.21-0.68c0.35-0.29,0.63-0.64,0.83-1.06c0.21-0.42,0.31-0.9,0.31-1.43
				c0.01-0.54-0.08-1.02-0.27-1.44c-0.19-0.42-0.45-0.78-0.78-1.08c-0.33-0.29-0.72-0.51-1.17-0.67c-0.45-0.16-0.93-0.24-1.44-0.26
				h-3.87V195.79z"/>
			<path class="st3" d="M518.71,178.75h2.75l-5.94,11.98l-0.04,7.12h-2.26l-0.04-7.12l-5.94-11.98h2.77l4.34,9.59L518.71,178.75z"/>
			<path class="st3" d="M530.39,199.97c-0.41,0.91-0.97,1.68-1.67,2.3l-1.51-0.83c0.42-0.61,0.72-1.26,0.89-1.96
				s0.26-1.41,0.26-2.15v-2.35h2.64v2.31C531.01,198.16,530.8,199.06,530.39,199.97z"/>
			<path class="st3" d="M566.71,191.54c-0.27-0.4-0.61-0.74-1.03-1.02c-0.42-0.27-0.88-0.5-1.38-0.68s-0.99-0.35-1.45-0.5
				c-0.67-0.22-1.36-0.48-2.05-0.79s-1.33-0.68-1.9-1.12c-0.58-0.45-1.05-0.97-1.41-1.58s-0.54-1.32-0.54-2.15s0.18-1.56,0.54-2.2
				c0.36-0.65,0.84-1.19,1.42-1.64s1.25-0.79,1.99-1.02c0.74-0.23,1.49-0.35,2.24-0.35c0.83,0,1.63,0.14,2.4,0.41
				c0.77,0.28,1.45,0.66,2.05,1.16s1.07,1.1,1.43,1.81c0.36,0.71,0.55,1.5,0.56,2.38h-2.49c-0.07-0.55-0.21-1.05-0.41-1.5
				s-0.47-0.84-0.8-1.16c-0.33-0.32-0.73-0.57-1.19-0.75c-0.46-0.18-0.98-0.27-1.55-0.27c-0.46,0-0.92,0.07-1.36,0.2
				c-0.44,0.13-0.83,0.33-1.17,0.59c-0.35,0.26-0.63,0.59-0.83,0.97c-0.21,0.39-0.31,0.83-0.31,1.34c0.01,0.55,0.15,1.02,0.42,1.4
				c0.27,0.38,0.62,0.7,1.04,0.96c0.41,0.26,0.86,0.48,1.34,0.66c0.49,0.17,0.94,0.33,1.37,0.46c0.71,0.22,1.42,0.48,2.12,0.79
				c0.71,0.31,1.36,0.71,1.94,1.19c0.58,0.45,1.04,0.99,1.4,1.64s0.53,1.4,0.53,2.24c0,0.86-0.19,1.61-0.57,2.24
				c-0.38,0.64-0.87,1.17-1.48,1.59c-0.6,0.43-1.29,0.75-2.05,0.96c-0.76,0.21-1.52,0.32-2.28,0.32c-0.91,0-1.8-0.15-2.68-0.46
				c-0.88-0.31-1.64-0.75-2.29-1.33c-0.58-0.5-1.03-1.08-1.37-1.75c-0.34-0.67-0.52-1.42-0.54-2.24h2.48
				c0.08,0.59,0.24,1.12,0.49,1.58s0.56,0.85,0.95,1.16c0.38,0.32,0.83,0.57,1.33,0.73c0.5,0.16,1.05,0.24,1.65,0.24
				c0.47,0,0.94-0.06,1.4-0.18s0.87-0.3,1.23-0.56c0.36-0.25,0.65-0.56,0.88-0.94c0.23-0.38,0.34-0.83,0.34-1.36
				C567.11,192.44,566.97,191.94,566.71,191.54z"/>
			<path class="st3" d="M579.01,188.3l3.36-9.55h3.02v19.11h-2.36v-7.62l0.2-7.98l-3.53,10.29h-1.39l-3.24-10.01l0.2,7.7v7.62h-2.36
				v-19.11h3L579.01,188.3z"/>
			<path class="st3" d="M591.89,189.02v6.77h9.3v2.06h-11.73v-19.11h11.61v2.07h-9.19v6.14h7.98v2.06H591.89z"/>
			<path class="st3" d="M617.57,195.79v2.06H605.8v-19.11h2.43v17.05H617.57z"/>
			<path class="st3" d="M633.7,195.79v2.06h-11.77v-19.11h2.43v17.05H633.7z"/>
			<path class="st3" d="M647.34,191.54c-0.27-0.4-0.61-0.74-1.03-1.02c-0.42-0.27-0.88-0.5-1.38-0.68s-0.99-0.35-1.45-0.5
				c-0.67-0.22-1.36-0.48-2.05-0.79s-1.33-0.68-1.9-1.12c-0.58-0.45-1.05-0.97-1.41-1.58s-0.54-1.32-0.54-2.15s0.18-1.56,0.54-2.2
				c0.36-0.65,0.84-1.19,1.42-1.64s1.25-0.79,1.99-1.02c0.74-0.23,1.49-0.35,2.24-0.35c0.83,0,1.63,0.14,2.4,0.41
				c0.77,0.28,1.45,0.66,2.05,1.16s1.07,1.1,1.43,1.81c0.36,0.71,0.55,1.5,0.56,2.38h-2.49c-0.07-0.55-0.21-1.05-0.41-1.5
				s-0.47-0.84-0.8-1.16c-0.33-0.32-0.73-0.57-1.19-0.75c-0.46-0.18-0.98-0.27-1.55-0.27c-0.46,0-0.92,0.07-1.36,0.2
				c-0.44,0.13-0.83,0.33-1.17,0.59c-0.35,0.26-0.63,0.59-0.83,0.97c-0.21,0.39-0.31,0.83-0.31,1.34c0.01,0.55,0.15,1.02,0.42,1.4
				c0.27,0.38,0.62,0.7,1.04,0.96c0.41,0.26,0.86,0.48,1.34,0.66c0.49,0.17,0.94,0.33,1.37,0.46c0.71,0.22,1.42,0.48,2.12,0.79
				c0.71,0.31,1.36,0.71,1.94,1.19c0.58,0.45,1.04,0.99,1.4,1.64s0.53,1.4,0.53,2.24c0,0.86-0.19,1.61-0.57,2.24
				c-0.38,0.64-0.87,1.17-1.48,1.59c-0.6,0.43-1.29,0.75-2.05,0.96c-0.76,0.21-1.52,0.32-2.28,0.32c-0.91,0-1.8-0.15-2.68-0.46
				c-0.88-0.31-1.64-0.75-2.29-1.33c-0.58-0.5-1.03-1.08-1.37-1.75c-0.34-0.67-0.52-1.42-0.54-2.24h2.48
				c0.08,0.59,0.24,1.12,0.49,1.58s0.56,0.85,0.95,1.16c0.38,0.32,0.83,0.57,1.33,0.73c0.5,0.16,1.05,0.24,1.65,0.24
				c0.47,0,0.94-0.06,1.4-0.18s0.87-0.3,1.23-0.56c0.36-0.25,0.65-0.56,0.88-0.94c0.23-0.38,0.34-0.83,0.34-1.36
				C647.74,192.44,647.61,191.94,647.34,191.54z"/>
			<path class="st3" d="M672.74,192.91l-1.54,4.95h-2.43l6.17-19.11h2.03l6.06,19.11h-2.41l-1.51-4.95H672.74z M678.47,190.79
				l-2.52-8.29l-2.56,8.29H678.47z"/>
			<path class="st3" d="M695.62,197.85l-7.41-14.28l-0.04,14.28h-2.45v-19.11h2.47L695.6,193l0.04-14.25h2.45v19.11H695.62z"/>
			<path class="st3" d="M702,178.75h4.42c0.74,0.01,1.45,0.08,2.11,0.23c0.66,0.14,1.27,0.35,1.83,0.61
				c0.78,0.36,1.47,0.83,2.07,1.41c0.6,0.58,1.08,1.25,1.44,2.01c0.32,0.65,0.57,1.36,0.74,2.13c0.17,0.77,0.26,1.59,0.27,2.47v1.4
				c0,0.84-0.08,1.64-0.24,2.39c-0.16,0.75-0.4,1.44-0.7,2.07c-0.32,0.66-0.71,1.25-1.19,1.79c-0.48,0.53-1.02,0.99-1.61,1.36
				c-0.63,0.39-1.34,0.7-2.13,0.91c-0.79,0.21-1.65,0.32-2.57,0.33H702V178.75z M704.47,195.87h1.96c0.7-0.01,1.34-0.1,1.91-0.26
				c0.57-0.17,1.08-0.4,1.53-0.71c0.47-0.32,0.88-0.7,1.23-1.16c0.35-0.46,0.62-0.97,0.82-1.54c0.17-0.46,0.31-0.96,0.39-1.5
				c0.09-0.54,0.13-1.1,0.14-1.69v-1.43c-0.01-0.59-0.06-1.17-0.15-1.71s-0.23-1.06-0.41-1.53c-0.24-0.61-0.55-1.17-0.95-1.66
				c-0.4-0.49-0.89-0.89-1.46-1.2c-0.41-0.23-0.87-0.4-1.38-0.53c-0.51-0.13-1.06-0.19-1.67-0.2h-1.96V195.87z"/>
			<path class="st3" d="M746.75,191.47c-0.11,0.7-0.28,1.37-0.5,2.01s-0.52,1.25-0.87,1.81c-0.35,0.56-0.78,1.05-1.27,1.47
				c-0.49,0.42-1.05,0.75-1.69,0.99c-0.63,0.24-1.34,0.36-2.13,0.36c-0.79,0-1.5-0.12-2.13-0.36c-0.63-0.24-1.2-0.57-1.69-0.99
				c-0.49-0.42-0.92-0.91-1.27-1.48c-0.36-0.56-0.65-1.17-0.88-1.82c-0.24-0.65-0.41-1.32-0.53-2.01c-0.11-0.69-0.17-1.38-0.18-2.06
				v-2.18c0.01-0.68,0.07-1.37,0.18-2.07c0.11-0.7,0.28-1.37,0.52-2.01c0.23-0.65,0.52-1.25,0.87-1.82
				c0.35-0.56,0.78-1.06,1.27-1.49c0.49-0.42,1.05-0.75,1.69-0.99c0.63-0.24,1.35-0.36,2.13-0.36s1.5,0.12,2.14,0.36
				c0.64,0.24,1.2,0.57,1.69,0.99c0.49,0.42,0.91,0.91,1.27,1.48c0.35,0.56,0.65,1.17,0.89,1.82c0.23,0.65,0.4,1.32,0.5,2.02
				c0.11,0.7,0.17,1.39,0.18,2.07v2.18C746.92,190.09,746.86,190.77,746.75,191.47z M744.44,185.77c-0.05-0.49-0.14-0.99-0.26-1.48
				c-0.13-0.48-0.3-0.94-0.51-1.38c-0.21-0.44-0.47-0.83-0.79-1.17c-0.32-0.33-0.69-0.6-1.12-0.79c-0.43-0.2-0.93-0.3-1.5-0.3
				c-0.56,0-1.05,0.1-1.48,0.3s-0.8,0.47-1.12,0.8c-0.31,0.34-0.58,0.73-0.79,1.17c-0.21,0.44-0.38,0.9-0.5,1.38
				c-0.13,0.49-0.23,0.98-0.28,1.48c-0.06,0.49-0.09,0.96-0.1,1.41v2.21c0.01,0.45,0.04,0.92,0.1,1.42c0.06,0.5,0.15,0.99,0.28,1.47
				c0.13,0.49,0.3,0.96,0.51,1.4s0.47,0.83,0.79,1.17c0.31,0.34,0.69,0.61,1.12,0.81c0.43,0.2,0.93,0.3,1.5,0.3
				c0.57,0,1.07-0.1,1.5-0.3c0.43-0.2,0.81-0.47,1.12-0.81c0.31-0.33,0.56-0.72,0.77-1.16c0.21-0.44,0.37-0.91,0.5-1.4
				c0.12-0.48,0.21-0.97,0.26-1.47c0.05-0.5,0.08-0.98,0.09-1.43v-2.21C744.52,186.74,744.49,186.27,744.44,185.77z"/>
			<path class="st3" d="M750.38,178.75h4.42c0.74,0.01,1.45,0.08,2.11,0.23c0.66,0.14,1.27,0.35,1.83,0.61
				c0.78,0.36,1.47,0.83,2.07,1.41c0.6,0.58,1.08,1.25,1.44,2.01c0.32,0.65,0.57,1.36,0.74,2.13c0.17,0.77,0.26,1.59,0.27,2.47v1.4
				c0,0.84-0.08,1.64-0.24,2.39c-0.16,0.75-0.4,1.44-0.7,2.07c-0.32,0.66-0.71,1.25-1.19,1.79c-0.48,0.53-1.02,0.99-1.61,1.36
				c-0.63,0.39-1.34,0.7-2.13,0.91c-0.79,0.21-1.65,0.32-2.57,0.33h-4.42V178.75z M752.85,195.87h1.96c0.7-0.01,1.34-0.1,1.91-0.26
				c0.57-0.17,1.08-0.4,1.53-0.71c0.47-0.32,0.88-0.7,1.23-1.16c0.35-0.46,0.62-0.97,0.82-1.54c0.17-0.46,0.31-0.96,0.39-1.5
				c0.09-0.54,0.13-1.1,0.14-1.69v-1.43c-0.01-0.59-0.06-1.17-0.15-1.71s-0.23-1.06-0.41-1.53c-0.24-0.61-0.55-1.17-0.95-1.66
				c-0.4-0.49-0.89-0.89-1.46-1.2c-0.41-0.23-0.87-0.4-1.38-0.53c-0.51-0.13-1.06-0.19-1.67-0.2h-1.96V195.87z"/>
			<path class="st3" d="M779.01,191.47c-0.11,0.7-0.28,1.37-0.5,2.01s-0.52,1.25-0.87,1.81c-0.35,0.56-0.78,1.05-1.27,1.47
				c-0.49,0.42-1.05,0.75-1.69,0.99c-0.63,0.24-1.34,0.36-2.13,0.36c-0.79,0-1.5-0.12-2.13-0.36c-0.63-0.24-1.2-0.57-1.69-0.99
				c-0.49-0.42-0.92-0.91-1.27-1.48c-0.36-0.56-0.65-1.17-0.88-1.82c-0.24-0.65-0.41-1.32-0.53-2.01c-0.11-0.69-0.17-1.38-0.18-2.06
				v-2.18c0.01-0.68,0.07-1.37,0.18-2.07c0.11-0.7,0.28-1.37,0.52-2.01c0.23-0.65,0.52-1.25,0.87-1.82
				c0.35-0.56,0.78-1.06,1.27-1.49c0.49-0.42,1.05-0.75,1.69-0.99c0.63-0.24,1.35-0.36,2.13-0.36s1.5,0.12,2.14,0.36
				c0.64,0.24,1.2,0.57,1.69,0.99c0.49,0.42,0.91,0.91,1.27,1.48c0.35,0.56,0.65,1.17,0.89,1.82c0.23,0.65,0.4,1.32,0.5,2.02
				c0.11,0.7,0.17,1.39,0.18,2.07v2.18C779.18,190.09,779.12,190.77,779.01,191.47z M776.69,185.77c-0.05-0.49-0.14-0.99-0.26-1.48
				c-0.13-0.48-0.3-0.94-0.51-1.38c-0.21-0.44-0.47-0.83-0.79-1.17c-0.32-0.33-0.69-0.6-1.12-0.79c-0.43-0.2-0.93-0.3-1.5-0.3
				c-0.56,0-1.05,0.1-1.48,0.3s-0.8,0.47-1.12,0.8c-0.31,0.34-0.58,0.73-0.79,1.17c-0.21,0.44-0.38,0.9-0.5,1.38
				c-0.13,0.49-0.23,0.98-0.28,1.48c-0.06,0.49-0.09,0.96-0.1,1.41v2.21c0.01,0.45,0.04,0.92,0.1,1.42c0.06,0.5,0.15,0.99,0.28,1.47
				c0.13,0.49,0.3,0.96,0.51,1.4s0.47,0.83,0.79,1.17c0.31,0.34,0.69,0.61,1.12,0.81c0.43,0.2,0.93,0.3,1.5,0.3
				c0.57,0,1.07-0.1,1.5-0.3c0.43-0.2,0.81-0.47,1.12-0.81c0.31-0.33,0.56-0.72,0.77-1.16c0.21-0.44,0.37-0.91,0.5-1.4
				c0.12-0.48,0.21-0.97,0.26-1.47c0.05-0.5,0.08-0.98,0.09-1.43v-2.21C776.77,186.74,776.74,186.27,776.69,185.77z"/>
			<path class="st3" d="M785.39,190.06v7.79h-2.41v-19.11h5.6c0.89,0.02,1.73,0.14,2.52,0.38c0.79,0.24,1.48,0.59,2.07,1.06
				c0.59,0.47,1.05,1.06,1.38,1.78c0.34,0.71,0.5,1.55,0.5,2.51c0,0.62-0.09,1.19-0.27,1.71s-0.43,0.98-0.74,1.4
				c-0.32,0.42-0.69,0.79-1.13,1.12s-0.92,0.6-1.44,0.83l4.05,8.16l-0.01,0.16h-2.56l-3.75-7.79H785.39z M788.64,188.06
				c0.54-0.01,1.05-0.09,1.54-0.26c0.48-0.16,0.91-0.4,1.27-0.7c0.36-0.31,0.64-0.68,0.85-1.12s0.31-0.95,0.31-1.53
				c0-0.61-0.1-1.15-0.3-1.61c-0.2-0.46-0.48-0.85-0.84-1.16c-0.36-0.31-0.79-0.54-1.28-0.7c-0.49-0.16-1.03-0.24-1.62-0.25h-3.19
				v7.32H788.64z"/>
			<path class="st3" d="M808.61,191.54c-0.27-0.4-0.61-0.74-1.03-1.02c-0.42-0.27-0.88-0.5-1.38-0.68s-0.99-0.35-1.45-0.5
				c-0.67-0.22-1.36-0.48-2.05-0.79s-1.33-0.68-1.9-1.12c-0.58-0.45-1.05-0.97-1.41-1.58s-0.54-1.32-0.54-2.15s0.18-1.56,0.54-2.2
				c0.36-0.65,0.84-1.19,1.42-1.64s1.25-0.79,1.99-1.02c0.74-0.23,1.49-0.35,2.24-0.35c0.83,0,1.63,0.14,2.4,0.41
				c0.77,0.28,1.45,0.66,2.05,1.16s1.07,1.1,1.43,1.81c0.36,0.71,0.55,1.5,0.56,2.38H809c-0.07-0.55-0.21-1.05-0.41-1.5
				s-0.47-0.84-0.8-1.16c-0.33-0.32-0.73-0.57-1.19-0.75c-0.46-0.18-0.98-0.27-1.55-0.27c-0.46,0-0.92,0.07-1.36,0.2
				c-0.44,0.13-0.83,0.33-1.17,0.59c-0.35,0.26-0.63,0.59-0.83,0.97c-0.21,0.39-0.31,0.83-0.31,1.34c0.01,0.55,0.15,1.02,0.42,1.4
				c0.27,0.38,0.62,0.7,1.04,0.96c0.41,0.26,0.86,0.48,1.34,0.66c0.49,0.17,0.94,0.33,1.37,0.46c0.71,0.22,1.42,0.48,2.12,0.79
				c0.71,0.31,1.36,0.71,1.94,1.19c0.58,0.45,1.04,0.99,1.4,1.64s0.53,1.4,0.53,2.24c0,0.86-0.19,1.61-0.57,2.24
				c-0.38,0.64-0.87,1.17-1.48,1.59c-0.6,0.43-1.29,0.75-2.05,0.96c-0.76,0.21-1.52,0.32-2.28,0.32c-0.91,0-1.8-0.15-2.68-0.46
				c-0.88-0.31-1.64-0.75-2.29-1.33c-0.58-0.5-1.03-1.08-1.37-1.75c-0.34-0.67-0.52-1.42-0.54-2.24h2.48
				c0.08,0.59,0.24,1.12,0.49,1.58s0.56,0.85,0.95,1.16c0.38,0.32,0.83,0.57,1.33,0.73c0.5,0.16,1.05,0.24,1.65,0.24
				c0.47,0,0.94-0.06,1.4-0.18s0.87-0.3,1.23-0.56c0.36-0.25,0.65-0.56,0.88-0.94c0.23-0.38,0.34-0.83,0.34-1.36
				C809.01,192.44,808.88,191.94,808.61,191.54z"/>
			<path class="st3" d="M124.21,221.27v6.77h9.3v2.06h-11.73V211h11.61v2.07h-9.19v6.14h7.98v2.06H124.21z"/>
			<path class="st3" d="M143.58,220.55l3.36-9.55h3.02v19.11h-2.36v-7.62l0.2-7.98l-3.53,10.29h-1.39l-3.24-10.01l0.2,7.7v7.62
				h-2.36V211h3L143.58,220.55z"/>
			<path class="st3" d="M156.68,225.16l-1.54,4.95h-2.43l6.17-19.11h2.03l6.06,19.11h-2.41l-1.51-4.95H156.68z M162.41,223.04
				l-2.52-8.29l-2.56,8.29H162.41z"/>
			<path class="st3" d="M179.56,230.1l-7.41-14.28l-0.04,14.28h-2.45V211h2.47l7.41,14.25l0.04-14.25h2.45v19.11H179.56z"/>
			<path class="st3" d="M188.93,225.16l-1.54,4.95h-2.43l6.17-19.11h2.03l6.06,19.11h-2.41l-1.51-4.95H188.93z M194.67,223.04
				l-2.52-8.29l-2.56,8.29H194.67z"/>
			<path class="st3" d="M209.3,213.07v17.03h-2.36v-17.03h-5.91V211h14.17v2.07H209.3z"/>
			<path class="st3" d="M229.99,211v2.11h-4.58V228h4.58v2.1h-11.55V228h4.47v-14.89h-4.47V211H229.99z"/>
			<path class="st3" d="M244.07,230.1l-7.41-14.28l-0.04,14.28h-2.45V211h2.47l7.41,14.25l0.04-14.25h2.45v19.11H244.07z"/>
			<path class="st3" d="M262.11,228.55c-0.33,0.28-0.68,0.53-1.04,0.74c-0.61,0.37-1.27,0.64-1.98,0.82
				c-0.71,0.18-1.45,0.26-2.23,0.26c-0.79-0.01-1.51-0.13-2.17-0.36s-1.25-0.55-1.78-0.96c-0.52-0.4-0.98-0.88-1.38-1.43
				s-0.72-1.15-0.98-1.8c-0.27-0.64-0.47-1.31-0.61-2.01c-0.14-0.7-0.21-1.42-0.22-2.13v-2.22c0.01-0.71,0.07-1.42,0.19-2.12
				s0.3-1.38,0.54-2.03c0.25-0.65,0.55-1.25,0.92-1.8c0.37-0.56,0.81-1.04,1.33-1.45c0.51-0.4,1.08-0.72,1.73-0.96
				s1.37-0.35,2.18-0.35c0.89,0,1.71,0.14,2.47,0.41c0.75,0.28,1.41,0.67,1.97,1.17c0.56,0.52,1.01,1.13,1.35,1.86
				c0.34,0.72,0.55,1.53,0.63,2.42h-2.4c-0.1-0.55-0.25-1.06-0.45-1.53c-0.2-0.47-0.46-0.87-0.79-1.2
				c-0.33-0.33-0.73-0.59-1.18-0.78c-0.46-0.19-0.98-0.28-1.59-0.28c-0.58,0-1.09,0.1-1.54,0.29c-0.45,0.2-0.84,0.46-1.17,0.79
				c-0.33,0.33-0.61,0.72-0.83,1.16c-0.22,0.44-0.4,0.91-0.54,1.4c-0.14,0.49-0.24,0.99-0.3,1.5c-0.06,0.51-0.09,1-0.09,1.47v2.24
				c0.01,0.48,0.05,0.98,0.12,1.49s0.19,1.01,0.35,1.5c0.16,0.49,0.36,0.95,0.6,1.39c0.24,0.44,0.54,0.82,0.89,1.15
				c0.34,0.33,0.74,0.6,1.19,0.79c0.45,0.2,0.97,0.3,1.55,0.31c0.33,0.01,0.68,0,1.04-0.04c0.36-0.04,0.72-0.11,1.06-0.21
				c0.34-0.11,0.66-0.25,0.96-0.43c0.3-0.18,0.55-0.41,0.75-0.7l0.03-4.29h-3.88v-2.05h6.19l0.04,7.01
				C262.76,227.95,262.45,228.26,262.11,228.55z"/>
			<path class="st3" d="M285.63,221.66v8.44h-2.45V211h11.73v2.07h-9.28v6.53h7.95v2.06H285.63z"/>
			<path class="st3" d="M301.58,222.31v7.79h-2.41V211h5.6c0.89,0.02,1.73,0.14,2.52,0.38c0.79,0.24,1.48,0.59,2.07,1.06
				c0.59,0.47,1.05,1.07,1.38,1.78s0.51,1.55,0.51,2.51c0,0.62-0.09,1.19-0.27,1.71c-0.18,0.52-0.43,0.98-0.74,1.4
				s-0.69,0.79-1.13,1.12c-0.44,0.32-0.92,0.6-1.44,0.83l4.05,8.16l-0.01,0.16h-2.56l-3.75-7.79H301.58z M304.84,220.31
				c0.54-0.01,1.05-0.09,1.54-0.26c0.48-0.16,0.91-0.4,1.27-0.7c0.36-0.31,0.64-0.68,0.85-1.12c0.21-0.44,0.31-0.95,0.31-1.53
				c0-0.61-0.1-1.15-0.3-1.61s-0.48-0.85-0.84-1.16c-0.36-0.31-0.79-0.54-1.28-0.7c-0.49-0.16-1.03-0.24-1.62-0.25h-3.19v7.32
				H304.84z"/>
			<path class="st3" d="M327.45,223.72c-0.11,0.7-0.28,1.37-0.51,2.01s-0.52,1.25-0.87,1.81s-0.78,1.05-1.27,1.47
				c-0.49,0.42-1.05,0.75-1.69,0.99s-1.34,0.36-2.13,0.36c-0.79,0-1.5-0.12-2.13-0.36s-1.2-0.57-1.69-0.99s-0.91-0.91-1.27-1.48
				c-0.36-0.56-0.65-1.17-0.88-1.82c-0.24-0.65-0.41-1.32-0.52-2.01c-0.11-0.69-0.18-1.38-0.18-2.06v-2.18
				c0.01-0.68,0.07-1.37,0.18-2.07s0.28-1.37,0.52-2.01c0.23-0.65,0.52-1.25,0.87-1.82s0.78-1.06,1.27-1.49
				c0.49-0.42,1.05-0.75,1.69-0.99c0.63-0.24,1.34-0.36,2.13-0.36c0.79,0,1.5,0.12,2.14,0.36c0.64,0.24,1.2,0.57,1.69,0.99
				c0.49,0.42,0.91,0.91,1.27,1.48c0.35,0.56,0.65,1.17,0.89,1.82c0.23,0.65,0.4,1.32,0.51,2.02c0.11,0.7,0.17,1.39,0.18,2.07v2.18
				C327.62,222.33,327.56,223.02,327.45,223.72z M325.14,218.02c-0.05-0.49-0.14-0.99-0.26-1.48c-0.13-0.48-0.3-0.94-0.51-1.38
				c-0.21-0.44-0.47-0.83-0.79-1.17c-0.31-0.33-0.69-0.6-1.12-0.79c-0.43-0.2-0.93-0.3-1.5-0.3c-0.56,0-1.05,0.1-1.48,0.3
				s-0.8,0.47-1.12,0.8c-0.31,0.34-0.58,0.73-0.79,1.17c-0.21,0.44-0.38,0.9-0.5,1.38c-0.13,0.49-0.23,0.98-0.28,1.48
				s-0.09,0.96-0.1,1.41v2.21c0.01,0.45,0.04,0.92,0.1,1.42c0.06,0.5,0.15,0.99,0.28,1.47c0.13,0.49,0.3,0.96,0.51,1.4
				c0.21,0.45,0.47,0.84,0.79,1.17c0.31,0.34,0.69,0.61,1.12,0.81c0.43,0.2,0.93,0.3,1.5,0.3c0.57,0,1.07-0.1,1.5-0.3
				c0.43-0.2,0.81-0.47,1.12-0.81c0.31-0.33,0.56-0.72,0.77-1.16c0.21-0.44,0.37-0.91,0.51-1.4c0.12-0.48,0.21-0.97,0.26-1.47
				c0.05-0.5,0.08-0.97,0.09-1.43v-2.21C325.22,218.99,325.19,218.52,325.14,218.02z"/>
			<path class="st3" d="M337.11,220.55l3.36-9.55h3.02v19.11h-2.36v-7.62l0.2-7.98l-3.53,10.29h-1.39l-3.24-10.01l0.2,7.7v7.62
				h-2.36V211h3L337.11,220.55z"/>
			<path class="st3" d="M370.57,213.07v17.03h-2.36v-17.03h-5.91V211h14.17v2.07H370.57z"/>
			<path class="st3" d="M389.4,230.1v-8.83h-7.83v8.83h-2.28V211h2.28v8.21h7.83V211h2.3v19.11H389.4z"/>
			<path class="st3" d="M398.37,221.27v6.77h9.3v2.06h-11.73V211h11.61v2.07h-9.19v6.14h7.98v2.06H398.37z"/>
			<path class="st3" d="M428.07,211h5.68c0.79,0.01,1.56,0.11,2.31,0.31c0.75,0.2,1.42,0.5,2.01,0.91c0.59,0.41,1.05,0.94,1.4,1.58
				c0.35,0.64,0.52,1.4,0.51,2.3c-0.01,0.5-0.09,0.95-0.24,1.37c-0.15,0.41-0.36,0.78-0.62,1.1c-0.27,0.33-0.57,0.61-0.9,0.84
				c-0.33,0.23-0.72,0.44-1.19,0.64v0.04c0.48,0.11,0.94,0.32,1.39,0.62c0.45,0.3,0.81,0.62,1.1,0.98c0.31,0.39,0.54,0.83,0.72,1.33
				c0.17,0.49,0.26,1.02,0.26,1.59c0.01,0.89-0.16,1.68-0.51,2.36c-0.35,0.68-0.82,1.25-1.4,1.71c-0.59,0.46-1.26,0.82-2.03,1.06
				c-0.77,0.25-1.55,0.37-2.37,0.38h-6.11V211z M433.89,219.15c0.46-0.01,0.9-0.08,1.34-0.22c0.44-0.13,0.83-0.33,1.17-0.6
				c0.34-0.25,0.62-0.57,0.83-0.94s0.31-0.81,0.31-1.31c0-0.53-0.1-0.99-0.31-1.36c-0.21-0.38-0.48-0.69-0.82-0.93
				c-0.35-0.24-0.75-0.41-1.2-0.52c-0.45-0.11-0.91-0.17-1.38-0.18h-3.32v6.08H433.89z M430.51,228.04h3.74
				c0.51-0.01,0.99-0.09,1.44-0.26c0.45-0.16,0.86-0.39,1.21-0.68c0.35-0.29,0.63-0.64,0.83-1.06s0.31-0.9,0.31-1.43
				c0.01-0.54-0.08-1.02-0.27-1.44c-0.19-0.42-0.45-0.78-0.78-1.08c-0.33-0.29-0.72-0.51-1.17-0.67c-0.45-0.16-0.93-0.24-1.44-0.26
				h-3.87V228.04z"/>
			<path class="st3" d="M456.47,223.72c-0.11,0.7-0.28,1.37-0.51,2.01s-0.52,1.25-0.87,1.81s-0.78,1.05-1.27,1.47
				s-1.05,0.75-1.69,0.99c-0.63,0.24-1.34,0.36-2.13,0.36s-1.5-0.12-2.13-0.36s-1.2-0.57-1.69-0.99s-0.91-0.91-1.27-1.48
				c-0.36-0.56-0.65-1.17-0.88-1.82c-0.24-0.65-0.41-1.32-0.52-2.01c-0.11-0.69-0.18-1.38-0.18-2.06v-2.18
				c0.01-0.68,0.07-1.37,0.18-2.07s0.28-1.37,0.52-2.01c0.23-0.65,0.52-1.25,0.87-1.82s0.78-1.06,1.27-1.49
				c0.49-0.42,1.05-0.75,1.69-0.99c0.63-0.24,1.34-0.36,2.13-0.36c0.79,0,1.5,0.12,2.14,0.36c0.64,0.24,1.2,0.57,1.69,0.99
				c0.49,0.42,0.91,0.91,1.27,1.48c0.35,0.56,0.65,1.17,0.89,1.82c0.23,0.65,0.4,1.32,0.51,2.02c0.11,0.7,0.17,1.39,0.18,2.07v2.18
				C456.64,222.33,456.58,223.02,456.47,223.72z M454.15,218.02c-0.05-0.49-0.14-0.99-0.26-1.48c-0.13-0.48-0.3-0.94-0.51-1.38
				c-0.21-0.44-0.47-0.83-0.79-1.17c-0.31-0.33-0.69-0.6-1.12-0.79c-0.43-0.2-0.93-0.3-1.5-0.3c-0.56,0-1.05,0.1-1.48,0.3
				s-0.8,0.47-1.12,0.8c-0.31,0.34-0.58,0.73-0.79,1.17c-0.21,0.44-0.38,0.9-0.5,1.38c-0.13,0.49-0.23,0.98-0.28,1.48
				s-0.09,0.96-0.1,1.41v2.21c0.01,0.45,0.04,0.92,0.1,1.42c0.06,0.5,0.15,0.99,0.28,1.47c0.13,0.49,0.3,0.96,0.51,1.4
				c0.21,0.45,0.47,0.84,0.79,1.17c0.31,0.34,0.69,0.61,1.12,0.81c0.43,0.2,0.93,0.3,1.5,0.3s1.07-0.1,1.5-0.3
				c0.43-0.2,0.81-0.47,1.12-0.81c0.31-0.33,0.56-0.72,0.77-1.16c0.21-0.44,0.37-0.91,0.51-1.4c0.12-0.48,0.21-0.97,0.26-1.47
				c0.05-0.5,0.08-0.97,0.08-1.43v-2.21C454.24,218.99,454.21,218.52,454.15,218.02z"/>
			<path class="st3" d="M460.1,211h4.42c0.74,0.01,1.45,0.08,2.11,0.23c0.66,0.14,1.27,0.35,1.83,0.61
				c0.78,0.36,1.47,0.83,2.07,1.41c0.6,0.58,1.08,1.25,1.44,2.01c0.32,0.65,0.57,1.36,0.74,2.13c0.17,0.77,0.26,1.59,0.27,2.47v1.4
				c0,0.84-0.08,1.64-0.24,2.39c-0.16,0.75-0.4,1.44-0.7,2.07c-0.32,0.66-0.71,1.25-1.19,1.78c-0.48,0.53-1.02,0.99-1.61,1.37
				c-0.63,0.39-1.34,0.7-2.13,0.91c-0.79,0.21-1.65,0.32-2.57,0.33h-4.42V211z M462.56,228.12h1.96c0.7-0.01,1.34-0.1,1.91-0.26
				c0.57-0.17,1.08-0.4,1.53-0.71c0.47-0.32,0.88-0.7,1.23-1.16c0.35-0.46,0.62-0.97,0.82-1.54c0.17-0.46,0.31-0.96,0.39-1.5
				c0.09-0.54,0.13-1.1,0.14-1.69v-1.43c-0.01-0.59-0.06-1.17-0.15-1.71c-0.09-0.55-0.23-1.06-0.41-1.53
				c-0.24-0.61-0.55-1.17-0.95-1.66c-0.4-0.49-0.89-0.89-1.46-1.2c-0.41-0.23-0.87-0.4-1.38-0.53c-0.51-0.13-1.06-0.2-1.67-0.2
				h-1.96V228.12z"/>
			<path class="st3" d="M486.46,211h2.75l-5.94,11.98l-0.04,7.12h-2.26l-0.04-7.12L474.99,211h2.77l4.34,9.59L486.46,211z"/>
			<path class="st3" d="M498.14,232.21c-0.41,0.91-0.97,1.68-1.67,2.3l-1.51-0.83c0.42-0.61,0.72-1.26,0.89-1.96
				s0.26-1.41,0.26-2.15v-2.35h2.64v2.31C498.75,230.41,498.55,231.31,498.14,232.21z"/>
			<path class="st3" d="M527.39,221.27v6.77h9.3v2.06h-11.73V211h11.61v2.07h-9.19v6.14h7.98v2.06H527.39z"/>
			<path class="st3" d="M550.58,223.79c-0.27-0.4-0.61-0.74-1.03-1.02c-0.42-0.27-0.88-0.5-1.38-0.68s-0.99-0.35-1.45-0.5
				c-0.67-0.22-1.36-0.48-2.05-0.79s-1.33-0.68-1.9-1.12c-0.58-0.45-1.05-0.97-1.41-1.58c-0.36-0.61-0.54-1.32-0.54-2.15
				s0.18-1.56,0.54-2.21s0.84-1.19,1.42-1.64c0.59-0.45,1.25-0.79,1.99-1.02c0.74-0.23,1.49-0.35,2.24-0.35
				c0.83,0,1.63,0.14,2.4,0.41c0.77,0.28,1.45,0.66,2.05,1.16c0.59,0.5,1.07,1.1,1.43,1.81c0.36,0.71,0.55,1.5,0.56,2.38h-2.49
				c-0.07-0.55-0.21-1.05-0.41-1.5c-0.2-0.45-0.47-0.84-0.8-1.16c-0.33-0.32-0.73-0.58-1.19-0.75c-0.46-0.18-0.98-0.27-1.55-0.27
				c-0.46,0-0.92,0.07-1.36,0.2c-0.44,0.13-0.83,0.33-1.17,0.59c-0.35,0.26-0.63,0.59-0.83,0.97c-0.21,0.38-0.31,0.83-0.31,1.34
				c0.01,0.55,0.15,1.02,0.42,1.4c0.27,0.38,0.62,0.7,1.04,0.96c0.41,0.26,0.86,0.48,1.34,0.66c0.49,0.17,0.94,0.33,1.37,0.46
				c0.71,0.22,1.42,0.48,2.12,0.79c0.71,0.31,1.36,0.71,1.94,1.19c0.58,0.45,1.04,0.99,1.4,1.64s0.53,1.4,0.53,2.24
				c0,0.86-0.19,1.61-0.57,2.24c-0.38,0.64-0.87,1.17-1.48,1.59c-0.6,0.43-1.29,0.75-2.05,0.96c-0.76,0.21-1.52,0.32-2.28,0.32
				c-0.91,0-1.8-0.15-2.68-0.46c-0.88-0.31-1.64-0.75-2.29-1.33c-0.58-0.5-1.03-1.08-1.37-1.75c-0.34-0.67-0.52-1.41-0.54-2.24h2.48
				c0.08,0.6,0.24,1.12,0.49,1.58c0.25,0.46,0.56,0.85,0.95,1.16c0.38,0.32,0.83,0.57,1.33,0.73c0.5,0.16,1.05,0.24,1.65,0.24
				c0.47,0,0.94-0.06,1.4-0.18s0.87-0.3,1.23-0.56c0.36-0.25,0.65-0.56,0.88-0.94c0.23-0.38,0.34-0.83,0.34-1.36
				C550.98,224.69,550.85,224.19,550.58,223.79z"/>
			<path class="st3" d="M559.76,230.1h-2.43V211h6.19c0.86,0.02,1.67,0.15,2.43,0.41c0.77,0.25,1.44,0.62,2.01,1.1
				c0.58,0.48,1.03,1.08,1.37,1.79c0.34,0.71,0.5,1.52,0.5,2.44c0,0.92-0.17,1.73-0.5,2.43c-0.34,0.71-0.79,1.3-1.37,1.78
				s-1.25,0.85-2.01,1.1s-1.58,0.38-2.43,0.39h-3.77V230.1z M563.52,220.44c0.56-0.01,1.08-0.1,1.55-0.27s0.88-0.41,1.23-0.73
				c0.35-0.31,0.62-0.7,0.82-1.15c0.2-0.45,0.29-0.96,0.29-1.54c0-0.58-0.1-1.1-0.29-1.56c-0.2-0.46-0.47-0.86-0.81-1.18
				c-0.35-0.32-0.76-0.57-1.24-0.75c-0.48-0.17-1-0.27-1.55-0.28h-3.77v7.45H563.52z"/>
			<path class="st3" d="M575.77,221.27v6.77h9.3v2.06h-11.73V211h11.61v2.07h-9.19v6.14h7.98v2.06H575.77z"/>
			<path class="st3" d="M601.05,226.79c-0.34,0.74-0.78,1.37-1.33,1.9c-0.55,0.53-1.2,0.95-1.95,1.24s-1.58,0.44-2.5,0.44
				c-0.79,0-1.5-0.11-2.15-0.33c-0.64-0.22-1.21-0.53-1.71-0.92c-0.51-0.39-0.94-0.86-1.31-1.39c-0.36-0.53-0.66-1.12-0.9-1.75
				c-0.25-0.63-0.43-1.29-0.54-1.98c-0.12-0.69-0.18-1.39-0.19-2.1v-2.66c0.01-0.71,0.07-1.41,0.19-2.1s0.3-1.35,0.54-1.98
				c0.24-0.63,0.54-1.21,0.9-1.75c0.36-0.54,0.8-1,1.31-1.4c0.5-0.39,1.07-0.7,1.71-0.92c0.64-0.22,1.36-0.33,2.15-0.33
				c0.95,0,1.81,0.15,2.56,0.44c0.75,0.29,1.4,0.71,1.94,1.24c0.54,0.54,0.98,1.19,1.31,1.94c0.33,0.75,0.54,1.58,0.65,2.49h-2.43
				c-0.08-0.58-0.21-1.12-0.41-1.61s-0.45-0.94-0.77-1.31c-0.32-0.38-0.72-0.67-1.19-0.89c-0.47-0.21-1.02-0.32-1.66-0.32
				c-0.58,0-1.09,0.09-1.53,0.28c-0.44,0.19-0.82,0.44-1.14,0.77c-0.32,0.32-0.59,0.7-0.81,1.13c-0.21,0.43-0.39,0.88-0.52,1.36
				c-0.13,0.48-0.22,0.97-0.28,1.48c-0.06,0.5-0.08,0.99-0.08,1.46v2.69c0,0.47,0.03,0.96,0.08,1.46c0.06,0.5,0.15,1,0.28,1.48
				c0.13,0.49,0.3,0.95,0.51,1.38s0.48,0.81,0.8,1.13c0.32,0.33,0.7,0.59,1.14,0.78c0.44,0.19,0.95,0.28,1.54,0.28
				c0.64,0,1.19-0.1,1.66-0.3s0.86-0.49,1.19-0.85c0.32-0.36,0.58-0.79,0.77-1.28s0.33-1.03,0.41-1.61h2.43
				C601.62,225.24,601.39,226.05,601.05,226.79z"/>
			<path class="st3" d="M617.04,211v2.11h-4.58V228h4.58v2.1h-11.55V228h4.47v-14.89h-4.47V211H617.04z"/>
			<path class="st3" d="M624.36,225.16l-1.54,4.95h-2.43l6.17-19.11h2.03l6.06,19.11h-2.41l-1.51-4.95H624.36z M630.09,223.04
				l-2.52-8.29l-2.56,8.29H630.09z"/>
			<path class="st3" d="M649.83,228.04v2.06h-11.77V211h2.43v17.04H649.83z"/>
			<path class="st3" d="M665.95,228.04v2.06h-11.77V211h2.43v17.04H665.95z"/>
			<path class="st3" d="M679.98,211h2.75l-5.94,11.98l-0.04,7.12h-2.26l-0.04-7.12L668.51,211h2.77l4.34,9.59L679.98,211z"/>
			<path class="st3" d="M709.23,213.07v17.03h-2.36v-17.03h-5.91V211h14.17v2.07H709.23z"/>
			<path class="st3" d="M728.06,230.1v-8.83h-7.83v8.83h-2.28V211h2.28v8.21h7.83V211h2.3v19.11H728.06z"/>
			<path class="st3" d="M737.04,221.27v6.77h9.3v2.06h-11.73V211h11.61v2.07h-9.19v6.14h7.98v2.06H737.04z"/>
			<path class="st3" d="M131.28,256.04c-0.27-0.4-0.61-0.74-1.03-1.02c-0.42-0.27-0.88-0.5-1.38-0.68s-0.99-0.35-1.45-0.5
				c-0.67-0.22-1.36-0.48-2.05-0.79s-1.33-0.68-1.9-1.12c-0.58-0.45-1.05-0.97-1.41-1.58c-0.36-0.61-0.54-1.32-0.54-2.15
				s0.18-1.56,0.54-2.21c0.36-0.65,0.84-1.19,1.42-1.64c0.59-0.45,1.25-0.79,1.99-1.02c0.74-0.23,1.49-0.35,2.24-0.35
				c0.83,0,1.63,0.14,2.4,0.41c0.77,0.28,1.45,0.66,2.05,1.16c0.59,0.5,1.07,1.1,1.43,1.81c0.36,0.71,0.55,1.5,0.56,2.38h-2.49
				c-0.07-0.55-0.21-1.05-0.41-1.5c-0.2-0.45-0.47-0.84-0.8-1.16c-0.33-0.32-0.73-0.58-1.19-0.75c-0.46-0.18-0.98-0.27-1.56-0.27
				c-0.46,0-0.92,0.07-1.36,0.2c-0.44,0.13-0.83,0.33-1.17,0.59c-0.35,0.26-0.63,0.59-0.83,0.97s-0.31,0.83-0.31,1.34
				c0.01,0.55,0.15,1.02,0.42,1.4c0.27,0.38,0.62,0.7,1.04,0.96c0.41,0.26,0.86,0.48,1.35,0.66s0.94,0.33,1.37,0.46
				c0.71,0.22,1.42,0.48,2.13,0.79s1.36,0.71,1.94,1.19c0.58,0.45,1.04,0.99,1.4,1.64c0.35,0.65,0.53,1.4,0.53,2.24
				c0,0.86-0.19,1.61-0.57,2.24c-0.38,0.64-0.87,1.17-1.48,1.59c-0.6,0.43-1.29,0.75-2.05,0.96c-0.76,0.21-1.52,0.32-2.28,0.32
				c-0.91,0-1.8-0.15-2.68-0.46c-0.88-0.31-1.64-0.75-2.29-1.33c-0.58-0.5-1.03-1.08-1.37-1.75c-0.34-0.67-0.52-1.41-0.54-2.24h2.48
				c0.08,0.6,0.24,1.12,0.49,1.58c0.24,0.46,0.56,0.85,0.94,1.16c0.38,0.32,0.83,0.57,1.33,0.73c0.5,0.16,1.05,0.24,1.65,0.24
				c0.47,0,0.94-0.06,1.4-0.18s0.87-0.3,1.23-0.56c0.36-0.25,0.65-0.56,0.88-0.94s0.34-0.83,0.34-1.36
				C131.68,256.94,131.55,256.44,131.28,256.04z"/>
			<path class="st3" d="M140.34,253.52v6.77h9.3v2.06h-11.73v-19.11h11.61v2.07h-9.19v6.14h7.98v2.06H140.34z"/>
			<path class="st3" d="M163.97,243.25h2.86l-5.55,9.47l5.68,9.63h-2.83l-4.23-7.64l-4.24,7.64h-2.87l5.69-9.63l-5.55-9.47h2.85
				l4.07,7.49L163.97,243.25z"/>
			<path class="st3" d="M182.08,256.18c0,0.89-0.16,1.73-0.47,2.51s-0.75,1.46-1.3,2.03c-0.55,0.59-1.21,1.05-1.97,1.38
				c-0.76,0.34-1.6,0.51-2.51,0.51c-0.93,0-1.77-0.17-2.53-0.5s-1.41-0.79-1.96-1.38c-0.54-0.58-0.97-1.26-1.27-2.04
				s-0.46-1.62-0.47-2.51l0.03-12.94h2.31l0.05,12.94c0.01,0.57,0.1,1.12,0.27,1.64c0.17,0.53,0.42,0.99,0.74,1.39
				c0.31,0.4,0.71,0.73,1.19,0.97c0.48,0.25,1.03,0.37,1.65,0.37c0.62,0,1.17-0.12,1.64-0.36c0.47-0.24,0.87-0.57,1.19-0.98
				c0.31-0.4,0.56-0.87,0.72-1.39c0.17-0.52,0.26-1.07,0.28-1.64l0.04-12.94h2.35L182.08,256.18z"/>
			<path class="st3" d="M188.93,257.4l-1.54,4.95h-2.43l6.17-19.11h2.03l6.06,19.11h-2.41l-1.51-4.95H188.93z M194.67,255.29
				l-2.52-8.29l-2.56,8.29H194.67z"/>
			<path class="st3" d="M214.4,260.29v2.06h-11.77v-19.11h2.43v17.04H214.4z"/>
			<path class="st3" d="M237.31,257.4l-1.54,4.95h-2.43l6.17-19.11h2.03l6.06,19.11h-2.41l-1.51-4.95H237.31z M243.05,255.29
				l-2.52-8.29l-2.56,8.29H243.05z"/>
			<path class="st3" d="M253.2,254.56v7.79h-2.41v-19.11h5.6c0.89,0.02,1.73,0.14,2.52,0.38c0.79,0.24,1.48,0.59,2.07,1.06
				c0.59,0.47,1.05,1.07,1.38,1.78s0.51,1.55,0.51,2.51c0,0.62-0.09,1.19-0.27,1.71c-0.18,0.52-0.43,0.98-0.74,1.4
				s-0.69,0.79-1.13,1.12c-0.44,0.32-0.92,0.6-1.44,0.83l4.05,8.16l-0.01,0.16h-2.56l-3.75-7.79H253.2z M256.46,252.56
				c0.54-0.01,1.05-0.09,1.54-0.26c0.48-0.16,0.91-0.4,1.27-0.7c0.36-0.31,0.64-0.68,0.85-1.12c0.21-0.44,0.31-0.95,0.31-1.53
				c0-0.61-0.1-1.15-0.3-1.61s-0.48-0.85-0.84-1.16c-0.36-0.31-0.79-0.54-1.28-0.7c-0.49-0.16-1.03-0.24-1.62-0.25h-3.19v7.32
				H256.46z"/>
			<path class="st3" d="M269.36,253.52v6.77h9.3v2.06h-11.73v-19.11h11.61v2.07h-9.19v6.14h7.98v2.06H269.36z"/>
			<path class="st3" d="M285.69,257.4l-1.54,4.95h-2.43l6.17-19.11h2.03l6.06,19.11h-2.41l-1.51-4.95H285.69z M291.43,255.29
				l-2.52-8.29l-2.56,8.29H291.43z"/>
			<path class="st3" d="M308.68,256.04c-0.27-0.4-0.61-0.74-1.03-1.02c-0.42-0.27-0.88-0.5-1.38-0.68s-0.99-0.35-1.45-0.5
				c-0.67-0.22-1.36-0.48-2.05-0.79s-1.33-0.68-1.9-1.12c-0.58-0.45-1.05-0.97-1.41-1.58c-0.36-0.61-0.54-1.32-0.54-2.15
				s0.18-1.56,0.54-2.21c0.36-0.65,0.84-1.19,1.42-1.64c0.59-0.45,1.25-0.79,1.99-1.02c0.74-0.23,1.49-0.35,2.24-0.35
				c0.83,0,1.63,0.14,2.4,0.41c0.77,0.28,1.45,0.66,2.05,1.16c0.59,0.5,1.07,1.1,1.43,1.81c0.36,0.71,0.55,1.5,0.56,2.38h-2.49
				c-0.07-0.55-0.21-1.05-0.41-1.5c-0.2-0.45-0.47-0.84-0.8-1.16c-0.33-0.32-0.73-0.58-1.19-0.75c-0.46-0.18-0.98-0.27-1.56-0.27
				c-0.46,0-0.92,0.07-1.36,0.2c-0.44,0.13-0.83,0.33-1.17,0.59c-0.35,0.26-0.63,0.59-0.83,0.97s-0.31,0.83-0.31,1.34
				c0.01,0.55,0.15,1.02,0.42,1.4c0.27,0.38,0.62,0.7,1.04,0.96c0.41,0.26,0.86,0.48,1.35,0.66s0.94,0.33,1.37,0.46
				c0.71,0.22,1.42,0.48,2.13,0.79s1.36,0.71,1.94,1.19c0.58,0.45,1.04,0.99,1.4,1.64c0.35,0.65,0.53,1.4,0.53,2.24
				c0,0.86-0.19,1.61-0.57,2.24c-0.38,0.64-0.87,1.17-1.48,1.59c-0.6,0.43-1.29,0.75-2.05,0.96c-0.76,0.21-1.52,0.32-2.28,0.32
				c-0.91,0-1.8-0.15-2.68-0.46c-0.88-0.31-1.64-0.75-2.29-1.33c-0.58-0.5-1.03-1.08-1.37-1.75c-0.34-0.67-0.52-1.41-0.54-2.24h2.48
				c0.08,0.6,0.24,1.12,0.49,1.58c0.24,0.46,0.56,0.85,0.94,1.16c0.38,0.32,0.83,0.57,1.33,0.73c0.5,0.16,1.05,0.24,1.65,0.24
				c0.47,0,0.94-0.06,1.4-0.18s0.87-0.3,1.23-0.56c0.36-0.25,0.65-0.56,0.88-0.94s0.34-0.83,0.34-1.36
				C309.08,256.94,308.94,256.44,308.68,256.04z"/>
			<path class="st3" d="M319.9,259.45c0.31-0.37,0.79-0.55,1.43-0.55c0.63,0,1.11,0.18,1.44,0.54s0.49,0.81,0.49,1.33
				c0,0.52-0.17,0.95-0.5,1.3s-0.81,0.52-1.43,0.52c-0.63,0-1.1-0.18-1.42-0.53s-0.48-0.79-0.48-1.29
				C319.43,260.26,319.59,259.82,319.9,259.45z"/>
		</g>
	</g>
</g>
</svg>
